<svg width="45" height="45" fill="none" xmlns="http://www.w3.org/2000/svg"><circle r="22.5" transform="matrix(-1 0 0 1 22.5 22.5)" fill="#B3B6E9"/><path d="M22.31 14h-.067c-.515.463-1.003.958-1.493 1.448 2.085 2.03 4.183 4.047 6.27 6.076-.457.012-.915.005-1.373-.013H14.04c-.346-.003-.694.013-1.04-.02v2.068c.948.031 1.899-.023 2.848-.018 3.731-.002 7.463.002 11.195-.002-2.102 2.023-4.204 4.045-6.293 6.08.483.46.96.924 1.446 1.381h.022c.623-.634 1.291-1.225 1.927-1.846 2.29-2.195 4.564-4.405 6.836-6.617l.019.068v-.077c-2.364-2.31-4.742-4.609-7.109-6.919-.554-.524-1.079-1.08-1.648-1.588L22.31 14z" fill="#5E62C0"/></svg>