<svg width="28" height="21" fill="none" xmlns="http://www.w3.org/2000/svg"><path d="M4.04.08c.292-.053.589-.079.886-.08 5.745.003 11.49.003 17.234 0a4.842 4.842 0 013.433 1.41 4.838 4.838 0 011.411 3.434c-.002 3.772-.002 7.544 0 11.317a4.822 4.822 0 01-1.282 3.29A4.823 4.823 0 0122.166 21c-5.838-.008-11.677.007-17.514-.008C2.259 20.92.158 18.825.09 16.429.077 12.522.086 8.613.085 4.704.095 2.482 1.845.434 4.039.081zM2.31 4.225c-.132.737-.053 1.492-.073 2.238h22.611c-.032-.845.108-1.721-.156-2.54-.36-1.043-1.419-1.786-2.524-1.763a8190.5 8190.5 0 00-17.25 0c-1.214-.03-2.363.875-2.608 2.065zm-.071 4.392c-.003 2.47-.002 4.94-.002 7.41-.019.746.234 1.513.784 2.036.522.547 1.288.802 2.035.783 5.704-.001 11.408.007 17.112-.004 1.385.038 2.656-1.155 2.67-2.545.026-2.56.005-5.12.011-7.68-7.537.001-15.074 0-22.61 0z" fill="#fff"/><path d="M5.11 10.827c1.324-.134 2.668-.019 4.001-.06.573-.062 1.141.374 1.197.953.094.616-.447 1.223-1.07 1.2-1.26.005-2.52.008-3.78-.001-.529.016-1.014-.424-1.063-.948a1.087 1.087 0 01.716-1.144z" fill="#fff"/></svg>