<svg width="17" height="17" fill="none" xmlns="http://www.w3.org/2000/svg"><path d="M3.901.972A7.827 7.827 0 018.017.007a7.91 7.91 0 014.57 1.703c.144.116.277.244.429.348.465-.563.932-1.125 1.406-1.68.204-.284.72-.155.766.19.287 1.58.55 3.163.828 4.744.09.283-.13.61-.436.594-1.606-.013-3.214-.03-4.82-.053-.342.002-.542-.463-.32-.718.47-.571.944-1.142 1.43-1.7-.912-.893-2.134-1.454-3.398-1.613a6.098 6.098 0 00-4.505 1.213 6.101 6.101 0 00-2.22 3.41.877.877 0 01-.982.67c-.466-.05-.824-.531-.747-.992C.49 3.954 1.958 2.035 3.901.972zM14.28 9.71a.882.882 0 01.788-.722c.542-.07 1.05.454.953.994-.308 1.46-1.085 2.806-2.142 3.853a7.826 7.826 0 01-4.596 2.221 7.863 7.863 0 01-4.71-.917c-.562-.294-1.063-.686-1.549-1.09-.46.567-.936 1.12-1.403 1.681-.206.28-.719.165-.766-.185-.284-1.559-.545-3.122-.82-4.683-.136-.33.137-.723.5-.661 1.584.024 3.167.025 4.75.057.336.002.543.462.318.714-.474.574-.953 1.144-1.432 1.714a6.06 6.06 0 003.694 1.633 6.11 6.11 0 003.362-.695c1.502-.803 2.655-2.252 3.053-3.914z" fill="#fff"/></svg>