<svg width="23" height="23" fill="none" xmlns="http://www.w3.org/2000/svg"><path d="M.03 1.501L1.47.031C4.827 3.33 8.117 6.7 11.478 10c3.3-3.355 6.676-6.64 9.971-10.001l1.43 1.46c-2.84 2.846-5.695 5.671-8.515 8.536-.485.48-.975.956-1.466 1.436 3.361 3.35 6.661 6.762 10.088 10.037-.51.5-1.016 1.01-1.511 1.531-3.275-3.427-6.691-6.722-10.027-10.088-3.34 3.31-6.656 6.646-9.976 9.972-.49-.475-.98-.95-1.471-1.42 3.346-3.32 6.671-6.666 10.007-9.997-.496-.485-.996-.975-1.486-1.47C5.7 7.156 2.866 4.326.03 1.5z" fill="#FEFEFD"/></svg>