<svg width="172" height="50" fill="none" xmlns="http://www.w3.org/2000/svg"><path d="M151.25.001c2.707 0 5.414-.004 8.121.002-.012.932.02 1.866-.008 2.798l-.163.132c-1.631.038-3.262.004-4.894.013-.143 1.038-.27 2.078-.404 3.116 1.858-.09 3.856.47 5.064 1.964 1.989 2.465 1.792 6.556-.665 8.644-1.065.932-2.473 1.43-3.877 1.486-1.951.108-3.868-.57-5.509-1.586.382-.936.747-1.877 1.147-2.803 1.42.888 3.101 1.747 4.821 1.357 1.656-.414 2.399-2.361 1.987-3.905-.203-1.146-1.267-1.936-2.363-2.133-1.471-.242-2.938.184-4.316.658.357-3.246.686-6.497 1.059-9.743zM141.486 2.95c1.081-.588 2.134-1.223 3.219-1.8.032 1.434.002 2.866.019 4.301.985.021 1.97-.004 2.954.021v2.77c-.988.028-1.975-.016-2.962.035.01 1.929-.004 3.857.006 5.785-.017.344.079.677.2.998.84.106 1.584-.337 2.316-.673.412.845.834 1.686 1.238 2.535-1.474.678-3.162 1.435-4.799.89-1.237-.334-2.205-1.514-2.208-2.807-.012-2.25.018-4.499-.014-6.749-.669 0-1.336-.003-2.003-.018-.004-.92-.002-1.84-.002-2.758.669-.021 1.338-.025 2.009-.025.017-.836-.004-1.671.027-2.505zM0 30.134C6.87 20.5 13.837 10.939 20.737 1.328c2.609 0 5.218-.002 7.826 0a8352.374 8352.374 0 01-6.34 19.07c4.01.792 8.019 1.586 12.017 2.425-7.064 8.896-14.089 17.825-21.129 26.74-2.655.034-5.313.003-7.97.017a2195.047 2195.047 0 016.413-17.15c-3.85-.775-7.7-1.544-11.554-2.296zM21.941 6.53c-5.01 6.963-10.015 13.925-15.026 20.883 3.344.671 6.682 1.367 10.034 1.995-1.71 4.675-3.478 9.328-5.21 13.996-.268.748-.59 1.482-.8 2.251.558-.46.938-1.083 1.397-1.631 4.887-6.193 9.772-12.386 14.668-18.571-3.352-.662-6.703-1.329-10.051-2.011 2.007-6.063 4.083-12.104 6.022-18.186-.438.34-.707.836-1.034 1.274zM54.897 1.334c.627.002 1.253.002 1.88.002.002 16.011-.002 32.023.002 48.034-.625-.002-1.25.002-1.873.01-.019-16.016-.002-32.03-.01-48.046zM88.255 6.44c.767-.584 1.474-1.254 2.274-1.794l.15-.017c1.566 1.48 3.039 3.062 4.583 4.57 1.522-1.547 3.04-3.101 4.558-4.653.841.588 1.639 1.238 2.482 1.824-.3.51-.771.879-1.172 1.304-1.217 1.254-2.47 2.473-3.671 3.741 1.28 1.392 2.603 2.741 3.898 4.117.331.358.722.677.928 1.13-.843.58-1.641 1.222-2.491 1.79-1.522-1.606-3.002-3.249-4.533-4.844-1.554 1.609-3.072 3.252-4.607 4.877-.811-.63-1.594-1.291-2.386-1.943 1.601-1.715 3.221-3.408 4.824-5.121-1.58-1.694-3.272-3.278-4.837-4.981zM103.701 4.57c.726.314 1.401.73 2.13 1.038 1.363-.236 2.758-.616 4.153-.357 1.817.215 3.513 1.304 4.426 2.898 1.23 2.074 1.215 4.82-.059 6.87-1.066 1.765-3.057 2.926-5.117 2.992-.773.041-1.535-.104-2.295-.221-.015 1.773.013 3.546-.015 5.317-1.076.02-2.151.01-3.227.008-.009-6.182-.017-12.363.004-18.545zm3.249 3.877c-.038 2.09.002 4.18-.02 6.269 1.274.573 2.913.491 3.975-.48 1.635-1.51 1.274-4.615-.711-5.66-.994-.544-2.193-.423-3.244-.129zM130.565 4.77c.618.341 1.194.75 1.809 1.091.219.169.454-.034.656-.126 1.89-1.074 4.482-1.032 6.187.384-.527.937-1.047 1.879-1.59 2.807-.561-.416-1.187-.858-1.919-.836-.739 0-1.586.346-1.856 1.085-.079 2.838.057 5.683-.068 8.52-1.087.008-2.174.01-3.259-.002-.026-3.348-.004-6.694-.011-10.041.017-.96-.049-1.925.051-2.881zM77.059 7.6c1.701-2.55 5.65-3.285 8.089-1.383 1.796 1.43 2.476 3.841 2.437 6.059-2.738.04-5.477-.029-8.214.036.055.472.117.967.399 1.368.773 1.206 2.391 1.596 3.728 1.299.945-.193 1.716-.802 2.47-1.365.473.832.953 1.658 1.416 2.495-1.425 1.093-3.147 1.923-4.979 1.906-2.047.032-4.166-.887-5.318-2.622-1.525-2.282-1.552-5.503-.028-7.792zm2.53 2.027c1.432.047 2.867.034 4.3.008-.287-.832-.928-1.67-1.883-1.7-1.108-.124-2.043.711-2.418 1.692zM118.059 7.56c1.748-2.57 5.8-3.26 8.204-1.228 1.698 1.448 2.31 3.775 2.31 5.932-2.747.064-5.495-.019-8.242.043.07.48.136.983.425 1.39.715 1.113 2.172 1.514 3.426 1.336 1.047-.138 1.93-.767 2.728-1.417.519.807.984 1.648 1.432 2.499-1.453 1.13-3.234 1.952-5.107 1.9-2.036-.006-4.118-.965-5.233-2.708-1.472-2.289-1.476-5.485.057-7.746zm2.518 2.08c1.431.012 2.864.04 4.295-.015-.308-.794-.9-1.62-1.824-1.684-1.121-.155-2.133.67-2.471 1.7zM120.057 25.124a73.94 73.94 0 011.298.002c.118.31.133.758.515.873.446.114 1 .15 1.374-.172.147-.211.206-.468.308-.705.438-.002.877 0 1.319.004-.119.607-.37 1.265-.99 1.514-.906.377-1.972.369-2.885.029-.633-.242-.852-.934-.939-1.545zM75.996 27.578c1.494.002 2.99.002 4.484.002l-.003 1.26c-1.008 0-2.016-.009-3.021.008v1.454c.964.034 2.03.008 2.84.622.787.576.906 1.728.54 2.578-.287.675-.998 1.038-1.688 1.16-1.042.18-2.104.075-3.153.101 0-2.395-.002-4.79.001-7.185zm1.46 3.973v1.976c.548-.021 1.153.055 1.65-.23.547-.309.577-1.27-.017-1.541-.514-.224-1.087-.186-1.633-.205zM82.422 27.58h1.46l.001 2.72c.871.042 1.817.026 2.57.537 1.22.77 1.122 2.915-.19 3.543-1.195.576-2.563.33-3.841.383 0-2.395-.002-4.79 0-7.183zm1.461 3.975v1.976c.497-.025 1.038.034 1.49-.223.463-.244.497-.895.293-1.318-.433-.51-1.186-.4-1.783-.435zM88.214 27.582c.499-.002.996-.002 1.497-.002.002 2.393-.002 4.788.002 7.181-.501.002-1 .002-1.497.002-.004-2.395 0-4.788-.002-7.181zM92.84 27.91c1.184-.657 2.642-.463 3.833.08a47.6 47.6 0 00-.482 1.213c-.745-.302-1.6-.674-2.39-.296-.87.417-1.079 1.495-1.068 2.368.015.78.187 1.726.944 2.129.875.417 1.856.073 2.731-.17-.072.404.15.971-.13 1.29-1.265.46-2.85.536-3.959-.336-.941-.792-1.168-2.113-1.113-3.28.034-1.173.56-2.42 1.633-2.998zM97.246 27.581c1.807-.001 3.614-.007 5.422.002-.004.418-.004.836-.004 1.256-.66-.002-1.32 0-1.979.002.002 1.973 0 3.947.002 5.92-.5.002-.999.002-1.496.002-.002-1.975-.002-3.949-.002-5.924h-1.94l-.003-1.258zM103.794 27.578c1.253.064 2.565-.183 3.767.276 1.569.639 1.554 3.187.118 3.964-.723.414-1.585.391-2.39.399v2.543c-.499.003-.998.003-1.497.003.002-2.395 0-4.79.002-7.185zm1.501 1.221c-.008.726-.006 1.452-.008 2.178.507-.01 1.059.043 1.509-.238.512-.33.557-1.114.211-1.577-.446-.448-1.141-.314-1.712-.363zM110.117 27.582c.497-.002.996-.002 1.497-.002v2.73c.879.024 1.838.024 2.588.553 1.176.787 1.076 2.851-.193 3.498-1.204.605-2.597.346-3.892.402-.002-2.395 0-4.788 0-7.181zm1.499 3.96c-.004.667-.002 1.335 0 2.002.507-.044 1.068.019 1.518-.267.395-.259.444-.818.28-1.227-.391-.58-1.195-.45-1.798-.508zM115.922 27.58c.499-.002 1 0 1.501.004-.002 2.39-.002 4.784-.002 7.177l-1.497.004c-.006-2.395-.002-4.79-.002-7.185zM119.221 27.593c.442-.012.886-.015 1.332-.017.002 1.84.017 3.68-.034 5.521 1.144-1.83 2.256-3.678 3.386-5.516a41.65 41.65 0 011.819.014c-.016 2.389-.004 4.776-.008 7.166-.444 0-.888 0-1.331.002.01-1.86-.03-3.72.064-5.579-1.162 1.847-2.266 3.728-3.419 5.58-.603-.001-1.202-.003-1.804-.001-.003-2.392.01-4.78-.005-7.17zM130.138 27.581c1.272.065 2.616-.202 3.83.295 1.285.558 1.432 2.412.654 3.443-.711.888-1.951.91-2.993.898v2.544c-.497.002-.994.002-1.489.002-.002-2.395 0-4.788-.002-7.181zm1.495 1.216a160.28 160.28 0 00-.002 2.193c.497-.029 1.034.024 1.488-.227.552-.323.601-1.185.204-1.647-.465-.396-1.13-.266-1.69-.319zM136.488 27.578c1.365.002 2.729.002 4.096.002-.002.408 0 .818.002 1.229-.881.001-1.762-.014-2.641.026.002.525.002 1.05.002 1.575.817.007 1.631.005 2.448.003-.002.41 0 .82.002 1.231-.819-.002-1.635-.01-2.452.027.002.61.002 1.22.002 1.831.877.014 1.756.01 2.637.008-.002.416-.002.834.002 1.253h-4.1c0-2.395-.002-4.79.002-7.185zM142.101 27.582l2.045-.004c.599 1.85 1.138 3.722 1.754 5.567.62-1.853 1.219-3.71 1.84-5.565h2.06c0 2.395.002 4.79-.002 7.183h-1.393c-.006-1.917-.002-3.833.036-5.748-.658 1.909-1.274 3.833-1.915 5.748-.459 0-.917-.002-1.372-.005-.588-1.912-1.155-3.829-1.779-5.728.051 1.91.051 3.822.047 5.733-.442-.002-.883 0-1.32 0l-.001-7.181zM153.346 27.604c1.471-.47 3.428-.213 4.257 1.238.694 1.324.7 2.997.104 4.358-.848 1.775-3.313 2.058-4.909 1.194-1.384-.801-1.654-2.6-1.471-4.056.101-1.19.84-2.373 2.019-2.734zm.755 1.133c-.704.185-1.093.901-1.188 1.576-.126.843-.109 1.771.32 2.533.467.79 1.588.925 2.365.547.639-.322.875-1.078.937-1.743.057-.813.038-1.715-.457-2.401-.448-.6-1.299-.692-1.977-.512zM166.637 27.582c1.786-.006 3.574 0 5.363-.004-.004.42-.004.841-.006 1.26-.641-.001-1.282 0-1.921.005.002 1.973 0 3.947.002 5.92-.503 0-1.002-.002-1.501-.005v-5.92h-1.933c-.002-.419-.004-.839-.004-1.256zM159.629 27.58c.496 0 .993 0 1.49.002 0 .943-.002 1.888.002 2.833.96 0 1.92-.002 2.881 0 .004-.945.002-1.89.004-2.835.497 0 .994 0 1.495-.002.002 2.395.002 4.79 0 7.185h-1.495a794.08 794.08 0 010-3.087c-.965-.002-1.927-.004-2.887 0v3.085c-.497.002-.994.002-1.49.002-.002-2.395-.002-4.788 0-7.183zM76 38.381c1.293-.5 2.83-.758 4.113-.1 1.153.6 1.634 1.974 1.617 3.208.04 1.198-.322 2.554-1.4 3.225-1.26.77-2.852.61-4.203.181V43.63c1.034.272 2.208.624 3.22.094.585-.298.765-.975.802-1.578-1.043-.006-2.087-.002-3.13-.004 0-.412 0-.822.002-1.234 1.045-.004 2.09.007 3.136-.008-.053-.59-.265-1.217-.819-1.514-.905-.503-1.962-.12-2.858.208A94.978 94.978 0 0176 38.38zM84.41 37.977c1.507-.002 3.014 0 4.52 0 0 2.395.002 4.788 0 7.183h-1.484c-.001-1.975-.001-3.949 0-5.922a73.3 73.3 0 00-1.816.007c-.233 1.671-.299 3.4-.88 4.998-.328.944-1.445 1.151-2.311.936-.006-.405-.01-.81-.017-1.212.316-.005.726.136.941-.183.225-.42.297-.898.39-1.36.257-1.476.47-2.96.657-4.447zM90.769 37.977c1.38.005 2.76-.015 4.14.013-.004.403-.006.807-.008 1.212-.877.007-1.754.003-2.63.005-.005.533-.005 1.07-.001 1.605.813-.002 1.63-.002 2.444.004-.002.406 0 .813 0 1.221-.814.006-1.63.004-2.442.004-.006.622-.006 1.244-.004 1.866.877.002 1.756 0 2.635.002 0 .416-.002.831 0 1.25-1.378.005-2.754 0-4.132.003-.004-2.395-.002-4.79-.002-7.185zM100.509 37.978a74.648 74.648 0 011.59.006c-.885 1.146-1.758 2.299-2.634 3.452.936 1.23 1.843 2.482 2.772 3.72-.567.004-1.133.004-1.698.004-.803-1.125-1.62-2.236-2.416-3.365-.02-.08-.062-.234-.083-.312l.09-.3c.782-1.076 1.59-2.135 2.379-3.205zM102.471 37.975c1.799.002 3.597.002 5.397.002l-.002 1.26c-.654-.003-1.308-.001-1.961 0v5.921c-.497.002-.994.002-1.489.002-.004-1.973 0-3.949 0-5.922-.649-.002-1.297-.004-1.942 0-.003-.422-.003-.842-.003-1.263zM109.008 37.978c1.219.055 2.486-.168 3.665.225 1.696.55 1.711 3.306.168 4.047-.716.38-1.55.356-2.334.365-.002.847-.002 1.696-.002 2.545-.501 0-.998 0-1.497-.002 0-2.393.002-4.787 0-7.18zm1.499 1.218c-.002.727-.004 1.457 0 2.189.62-.027 1.435.056 1.816-.552.163-.384.176-.88-.054-1.239-.437-.498-1.176-.343-1.762-.398zM115.344 37.974l1.336.004c-.001 1.84.014 3.679-.041 5.518 1.117-1.839 2.253-3.663 3.357-5.508a48.979 48.979 0 011.826-.01c0 2.393.002 4.789-.002 7.182h-1.336c-.006-1.86-.013-3.72.06-5.579-1.128 1.859-2.266 3.711-3.387 5.571-.605.008-1.208.01-1.811.01-.006-2.397-.002-4.792-.002-7.188zM123.643 37.975c.499-.004 1 .003 1.5.017-.007 2.387 0 4.777-.005 7.164-.499.004-.998.004-1.497.004.002-2.395 0-4.79.002-7.185zM127.743 37.978c.529-.003 1.06-.003 1.592.002-.881 1.15-1.757 2.3-2.634 3.454.934 1.233 1.845 2.482 2.77 3.72-.567.006-1.135.008-1.7.002-.873-1.223-1.762-2.437-2.624-3.667.851-1.182 1.732-2.338 2.596-3.51zM130.378 37.984c.442-.005.885-.01 1.329-.011.002 1.84.017 3.678-.034 5.516 1.147-1.824 2.255-3.677 3.387-5.512a96.008 96.008 0 011.811.005c-.003 2.392 0 4.783-.002 7.176l-1.328.002c.007-1.858-.033-3.718.062-5.576-1.165 1.844-2.267 3.727-3.42 5.578-.603-.002-1.202-.004-1.801-.002-.004-2.393.002-4.784-.004-7.176zM96.408 37.977h1.463c.021 2.397.016 4.786 0 7.183h-1.46c0-2.395 0-4.788-.003-7.183z" fill="#fff"/></svg>