<svg width="24" height="24" fill="none" xmlns="http://www.w3.org/2000/svg"><path d="M4.975 2.83a12.195 12.195 0 016.36-1.834 11.801 11.801 0 017.913 3.028 11.396 11.396 0 013.548 6.259 11.24 11.24 0 01-.85 7.062c-1.36 2.834-3.906 5.08-6.903 6.043-1.895.648-3.96.786-5.924.392-2.726-.517-5.257-2.033-6.976-4.216-.903-1.118-1.56-2.422-1.994-3.788l1.861-.59c.774 2.628 2.773 4.838 5.27 5.945 3.424 1.606 7.757.946 10.568-1.578 2.234-1.927 3.451-4.954 3.188-7.892a9.37 9.37 0 00-2.475-5.583c-2.262-2.487-5.858-3.662-9.154-2.991-2.33.48-4.498 1.807-5.922 3.721.995-.139 1.987-.294 2.981-.436.1.652.195 1.306.295 1.959-1.959.293-3.918.588-5.877.88C.586 7.27.3 5.326 0 3.384c.653-.103 1.306-.2 1.96-.294.1.717.195 1.435.295 2.152a11.648 11.648 0 012.72-2.412z" fill="#222"/><path d="M6.666 10.04c.795-.563 1.842-.784 2.788-.527.443.12.858.39 1.098.786.384.618.344 1.432.01 2.062-.44.86-1.214 1.472-1.933 2.09.764.004 1.529-.003 2.293.003.002.388 0 .778.002 1.167-1.452.018-2.906.004-4.359.007 0-.299-.005-.596.005-.894.33-.286.633-.601.964-.888.595-.535 1.232-1.052 1.658-1.74.19-.31.296-.724.112-1.062-.17-.33-.564-.47-.918-.46-.488-.01-.942.211-1.332.487-.13-.344-.267-.685-.388-1.032zM13.982 9.409c.597-.001 1.195-.003 1.792.002-.002 1.206.003 2.412-.002 3.618.245.003.49.004.736.002.002.359.001.719-.001 1.079-.245-.002-.488-.001-.731 0-.005.49 0 .979-.004 1.468-.457 0-.915 0-1.373.002.004-.49 0-.98.003-1.47-.916-.005-1.83.005-2.745-.004.006-.306-.01-.611.007-.916.75-1.273 1.562-2.511 2.318-3.781zm-.275 2.52c-.245.383-.484.768-.724 1.154.455-.002.912-.004 1.367.002.029-.832-.064-1.675.096-2.498-.28.429-.466.91-.74 1.342z" fill="#222"/></svg>