<svg width="25" height="25" fill="none" xmlns="http://www.w3.org/2000/svg"><path d="M10.46.12a12.163 12.163 0 017.718 1.469 12.21 12.21 0 015.424 6.414 12.22 12.22 0 01-.036 8.424 12.171 12.171 0 01-20.205 4.134 12.136 12.136 0 01-3.315-7.352c-.24-2.712.463-5.5 1.98-7.764C3.91 2.577 7.059.581 10.462.12zm.509 2.166c-2.634.309-5.112 1.736-6.71 3.852a9.88 9.88 0 00-2.042 6.232c.037 3.29 1.858 6.48 4.648 8.215a9.907 9.907 0 005.927 1.515c2.493-.142 4.906-1.288 6.613-3.108a9.947 9.947 0 002.7-6.294c.235-3.607-1.71-7.237-4.824-9.061a9.892 9.892 0 00-6.312-1.351z" fill="#fff"/><path d="M11.062 5.525c-.015-.587.52-1.118 1.105-1.102.585-.01 1.123.516 1.106 1.105.003 2.06 0 4.121.002 6.181.982.982 1.966 1.964 2.947 2.948.25.242.41.59.365.943-.048.509-.488.944-.998.988a1.125 1.125 0 01-.886-.32c-1.057-1.054-2.107-2.114-3.168-3.163-.26-.242-.484-.56-.472-.93-.005-2.215-.003-4.433-.001-6.65z" fill="#fff"/></svg>