<svg width="133" height="40" fill="none" xmlns="http://www.w3.org/2000/svg"><path d="M17.144.07C19.34.05 21.537.142 23.736 0 21.7 5.205 20.191 10.598 18.44 15.9c3.346.525 6.638 1.382 9.998 1.88-5.873 7.362-11.736 14.738-17.531 22.16-2.222.023-4.449-.014-6.67.032 1.89-4.711 3.512-9.524 5.375-14.244-3.227-.512-6.399-1.314-9.612-1.913A8605.065 8605.065 0 0117.144.069zM5.574 21.698c2.857.332 5.637 1.148 8.495 1.498-1.645 4.522-3.254 9.063-4.932 13.572a885.263 885.263 0 0113.244-16.73c-2.817-.53-5.62-1.152-8.45-1.59 1.876-4.993 3.264-10.156 5.048-15.185-4.476 6.14-8.791 12.405-13.406 18.435zM45.55.088l1.628-.079c-.092 13.327-.074 26.66-.01 39.991l-1.617-.074c.023-13.28.023-26.557 0-39.838zM124.679 11.253c2.328 0 4.651-.005 6.979.005-.004.862-.004 1.724-.009 2.59-1.392.005-2.78.005-4.172-.009-.097.816-.23 1.627-.378 2.439 2.047-.19 4.255.834 4.988 2.853 1.065 2.384-.087 5.472-2.526 6.468-2.264.908-4.827.346-6.906-.779.355-.825.719-1.646 1.139-2.443 1.268.617 2.738 1.738 4.2 1.088 1.867-.692 1.917-3.923-.033-4.546-1.378-.682-2.853.12-4.218.42.364-2.688.576-5.394.936-8.086z" fill="#1117A3"/><path d="M116.464 13.816a21.018 21.018 0 013.075-1.738c.019 1.259.014 2.517.014 3.776l2.425.014c-.005.765-.005 1.53 0 2.29-.812.01-1.618.01-2.425.019.005 1.844-.009 3.692.018 5.541a49.974 49.974 0 001.941-.64c.438.69.816 1.42 1.176 2.166-1.784.751-4.444 1.47-5.781-.401-.844-2.098-.221-4.462-.401-6.67h-1.6c.152-.872.222-1.752.231-2.633.345.088 1.042.268 1.387.355a280.89 280.89 0 00-.06-2.079zM72.717 16.444a55.606 55.606 0 002.014-1.595c1.434 1.101 2.605 2.489 3.845 3.794 1.355-1.208 2.503-2.633 3.905-3.79.733.558 1.47 1.107 2.212 1.655-1.378 1.342-2.706 2.73-4.084 4.066 1.282 1.526 2.701 2.927 4.084 4.356-.733.53-1.433 1.12-2.254 1.522-1.576-.872-2.319-2.997-3.974-3.638-1.337 1.148-2.305 2.674-3.715 3.744a45.814 45.814 0 00-2-1.558c1.115-1.623 2.622-2.91 3.977-4.32-1.332-1.415-2.82-2.692-4.01-4.236zM85.503 14.784c2.227 1.64 5.15-.286 7.404 1.295 3.084 1.77 3.314 6.717.48 8.833-1.338 1.272-3.264 1.138-4.966 1.06 0 1.392 0 2.789.005 4.181-.977 0-1.955-.005-2.932-.01.01-5.12 0-10.238.01-15.36zm2.918 3.383c.005 1.743.01 3.485-.009 5.228 1.973 1 4.476-.825 3.872-3.043-.225-1.862-2.222-2.595-3.863-2.185zM64.262 16.48c2.014-1.724 5.642-1.516 7.09.844.834 1.185.94 2.655.986 4.057-2.281.041-4.563-.032-6.84.06.23.95.788 1.848 1.806 2.074 1.356.604 2.591-.507 3.711-1.125.415.738.83 1.47 1.245 2.213-2.033 1.43-4.859 2-7.132.811-3.176-1.65-3.641-6.698-.866-8.934zm3.135 1.227c-.752.161-1.24.793-1.79 1.263 1.177.166 2.366.17 3.55.027-.497-.52-.944-1.323-1.76-1.29zM96.97 17.895c1.12-2.31 4.167-3.093 6.439-2.157 2.079 1.01 2.937 3.453 2.895 5.643-2.309.027-4.614.009-6.924.013l.54 1.47c1.516 1.264 3.526.803 4.863-.483a13.37 13.37 0 011.323 2.226c-2.07 1.476-5.002 2.015-7.274.701-2.508-1.457-3.048-4.946-1.863-7.413zm2.572.922c1.124.47 2.364.277 3.554.272-.484-.544-.895-1.318-1.706-1.373-.747.083-1.254.719-1.849 1.101zM107.577 25.539c.028-3.522-.046-7.044.042-10.562.567.355 1.134.71 1.705 1.07 1.535-.76 3.356-.88 4.988-.355.83.945-.23 2-.728 2.812-.945-.899-2.208-.945-3.103.014.051 2.342.014 4.684.028 7.025-.977-.004-1.954-.004-2.932-.004z" fill="#1117A3"/></svg>