<svg width="22" height="22" fill="none" xmlns="http://www.w3.org/2000/svg"><path d="M.003 1.12C.028.536.539.03 1.119.011 2.579-.004 4.037.005 5.497.008c.62-.028 1.215.515 1.205 1.143.023 1.483.232 2.962.683 4.376a1.204 1.204 0 01-.304 1.336c-.885.894-1.774 1.783-2.662 2.672 1.768 3.432 4.61 6.315 8.068 8.039.885-.888 1.765-1.779 2.655-2.66.341-.4.93-.476 1.4-.283 1.387.447 2.842.637 4.297.66.62 0 1.178.563 1.151 1.19.007 1.464.02 2.928-.005 4.39-.013.585-.534 1.12-1.12 1.128a20.68 20.68 0 01-11.5-3.4C3.57 14.838-.115 8.038.004 1.118z" fill="#1117A3"/></svg>