<?xml version="1.0" encoding="utf-8"?><svg viewBox="0 0 88 93" xmlns="http://www.w3.org/2000/svg" xmlns:xlink="http://www.w3.org/1999/xlink"><style>:root>svg{display:none}:root>svg:target{display:block}</style><svg fill="none" viewBox="0 0 63 63" id="arrow-next" xmlns="http://www.w3.org/2000/svg"><circle r="31.5" transform="matrix(-1 0 0 1 31.5 31.5)" fill="#fff"/><path d="M26.39 20c-.494.367-.927.883-1.388 1.316 3.519 3.348 7.026 6.71 10.542 10.06C32.03 34.723 28.517 38.07 25 41.413c.437.455.87.913 1.311 1.366 3.997-3.804 8-7.599 11.995-11.404-3.972-3.793-7.94-7.59-11.916-11.376z" fill="#231F20"/></svg><svg fill="none" viewBox="0 0 63 63" id="arrow-prev" xmlns="http://www.w3.org/2000/svg"><circle cx="31.5" cy="31.5" r="31.5" fill="#fff"/><path d="M36.61 20c.494.367.927.883 1.388 1.316-3.519 3.348-7.025 6.71-10.542 10.06C30.97 34.723 34.483 38.07 38 41.413c-.437.455-.87.913-1.311 1.366-3.996-3.804-8-7.599-11.994-11.404 3.97-3.793 7.938-7.59 11.915-11.376z" fill="#231F20"/></svg><svg viewBox="0 0 29 34" id="byt" xmlns="http://www.w3.org/2000/svg"><path d="M.41.07C.603-.013.818.007 1.022 0 9.88.005 18.737-.004 27.593.004c.383-.036.688.28.753.636-.023 10.85-.004 21.713-.012 32.568.047.42-.312.822-.741.788-8.9.006-17.8-.002-26.7.004-.25.004-.536-.022-.705-.231-.25-.26-.174-.645-.187-.969C.011 22.13-.002 11.458.005.788-.012.497.13.185.41.07zm1.01 1.347c0 2.361.003 4.721 0 7.082 8.499.003 16.998-.002 25.498.003-.004-2.363-.004-4.724 0-7.086l-25.497.001zm0 8.5c.003 7.553 0 15.108.002 22.663h25.495c-.007-7.555.007-15.11-.007-22.664H1.42z"/><path d="M21.485 2.947c1.26-.357 2.59.829 2.556 2.095-.088 1.072-1.075 2.022-2.163 1.996-1.06-.08-2.006-1.053-1.995-2.127.042-.907.742-1.713 1.602-1.964zm.015 1.465c-.279.233-.239.68-.106.984.381.468 1.372.21 1.23-.478.069-.606-.708-.775-1.124-.506zM8.907 4.315c.192-.076.406-.06.61-.066 2.262.008 4.524-.007 6.785.006.476-.033.837.51.656.942-.1.332-.463.498-.792.469-2.347-.007-4.695.013-7.04-.01-.688-.032-.854-1.09-.22-1.341zM12.913 12.848a8.232 8.232 0 015.591 1.14c1.877 1.139 3.306 3.006 3.877 5.13a8.023 8.023 0 01.03 4.12c-.588 2.368-2.25 4.433-4.417 5.552-1.847.982-4.078 1.221-6.086.628-3.273-.929-5.888-3.947-6.19-7.357-.252-2.297.562-4.656 2.092-6.372 1.307-1.497 3.137-2.535 5.103-2.84zm-4.68 4.462c-1.025 1.557-1.338 3.51-1.023 5.332 1.72-1.252 3.884-2.19 6.047-1.76 1.136.177 2.036.998 3.165 1.19 1.685.33 3.434-.23 4.822-1.185-.093-1.86-.898-3.7-2.308-4.935-1.525-1.387-3.679-1.984-5.71-1.72-2.007.231-3.898 1.372-4.993 3.078zm-.581 6.77a6.827 6.827 0 003.744 3.71c2.126.867 4.67.682 6.618-.55 1.646-1.01 2.761-2.757 3.128-4.639-1.716.891-3.772 1.302-5.648.693-1.003-.293-1.858-1.017-2.933-1.077-1.823-.162-3.519.772-4.91 1.862z"/></svg><svg viewBox="0 0 88 64" id="day" xmlns="http://www.w3.org/2000/svg"><path d="M43.711.185c.954-.572 2.241.267 2.093 1.369 0 6.069.03 12.138-.015 18.204.04 1.016-1.262 1.744-2.1 1.143-.575-.279-.724-.939-.683-1.521.008-5.818 0-11.638 0-17.455-.014-.631.049-1.44.705-1.74zM14.132 12.475c.645-.211 1.254.171 1.677.631 4.214 4.203 8.443 8.388 12.643 12.603.983.723.423 2.455-.79 2.46-.568.088-1.017-.294-1.377-.672-4.203-4.211-8.447-8.377-12.632-12.6-.842-.663-.575-2.155.479-2.422zM31.175 12.509c.805-.597 1.952-.093 2.204.835 1.054 2.641 2.27 5.223 3.228 7.902.348 1.402-1.81 2.252-2.52.98-1.16-2.557-2.184-5.18-3.279-7.77-.345-.63-.248-1.517.367-1.947zM56.047 12.487c1.05-.794 2.642.437 2.07 1.662-1.12 2.708-2.196 5.438-3.405 8.102-.69 1.261-2.868.382-2.504-1.005.73-2.085 1.673-4.092 2.485-6.144.43-.872.616-1.937 1.354-2.615zM73.864 12.487c.731-.241 1.592.233 1.744.994.267.72-.349 1.328-.805 1.792-4.17 4.118-8.303 8.277-12.476 12.39-.642.858-2.16.55-2.393-.5-.297-.642.174-1.228.605-1.65 4.088-4.09 8.206-8.144 12.28-12.247.326-.282.615-.657 1.045-.78zM39.219 25.742c4.89-1.425 10.317-.616 14.68 1.97 4.66 2.69 8.065 7.52 8.848 12.862.727 4.274-.242 8.726-2.341 12.484 6.392-.019 12.788-.022 19.18 0 1.042-.126 1.844 1.146 1.302 2.037-.267.612-.976.786-1.58.749-23.143-.004-46.285.011-69.427-.007-.757.063-1.662-.375-1.666-1.236-.137-.805.583-1.595 1.395-1.558 6.255.011 12.514-.011 18.772.011-2.493-4.192-3.183-9.382-1.88-14.083 1.55-6.21 6.506-11.534 12.717-13.229zm-4.604 5.394c-3.217 2.438-5.413 6.188-5.925 10.195-.579 4.103.579 8.4 3.057 11.708 8.432.023 16.861-.018 25.294.023a15.71 15.71 0 003.205-9.175c.108-6.526-4.096-12.988-10.298-15.196-5.083-1.94-11.056-.834-15.333 2.445zM14.062 29.845c.494-.207.998.108 1.462.249 2.46 1.024 4.927 2.033 7.375 3.075 1.199.635.646 2.671-.727 2.6-1.428-.344-2.72-1.071-4.084-1.59-1.455-.643-2.987-1.114-4.39-1.87-.979-.553-.693-2.178.364-2.464zM73.821 29.897c1.035-.508 2.27.683 1.84 1.736-.17.69-.935.898-1.499 1.154-2.4.91-4.733 2.004-7.141 2.886-1.517.627-2.515-1.847-1.061-2.504 2.586-1.16 5.235-2.203 7.861-3.272z"/><path d="M1.901 42.255c6.229-.126 12.473-.034 18.709-.045 1.643-.052 1.718 2.723.07 2.746-5.82.122-11.645-.023-17.47.063-.708-.034-1.606.126-2.077-.546-.671-.73-.223-2.088.768-2.218zM67.96 42.255c6.228-.123 12.472-.045 18.704-.038 1.124-.096 1.751 1.459 1.024 2.256-.486.686-1.42.471-2.133.538-5.82-.063-11.645.056-17.459-.052-1.465-.067-1.606-2.486-.137-2.704zM18.202 61.468c.475-.39 1.15-.241 1.718-.293 16.58.015 33.159.018 49.738 0 .59.026 1.388-.015 1.7.616.712.942-.186 2.415-1.355 2.185-16.917.007-33.834.007-50.747 0-1.384.248-2.196-1.718-1.054-2.508z"/></svg><svg viewBox="0 0 26 39" id="el" xmlns="http://www.w3.org/2000/svg"><path d="M4.554.912c.001-.406.305-.783.698-.878.552-.166 1.166.302 1.158.877.005 1.91.001 3.819.002 5.728 2.597.008 5.194.005 7.79.002-.003-1.91-.004-3.819 0-5.728-.01-.495.446-.93.939-.907.479-.006.92.42.914.903.01 1.912-.01 3.825.009 5.737 1.08-.006 2.16 0 3.24-.004a.933.933 0 01.868.595c.098.254.055.533.061.8l.001 7.214c-.014.745.062 1.507-.151 2.232a4.286 4.286 0 01-2.759 2.935c-1.035.363-2.145.185-3.219.23 0 .888.005 1.775 0 2.662.003.478-.424.91-.905.903-.726.008-1.45 0-2.176 0 .014.16.024.322.025.483-.003 3.423 0 6.845-.002 10.267-.014.543.175 1.096.551 1.492.544.61 1.457.832 2.232.599a1.959 1.959 0 001.299-1.287c.145-.407.075-.846.09-1.268.014-.866-.021-1.733.017-2.598.114-1.604 1.32-3.053 2.873-3.46.626-.19 1.285-.14 1.93-.146 1.668.003 3.336-.001 5.003.001.475-.026.915.37.949.842.063.497-.351.988-.85 1.01-1.825.013-3.65-.002-5.473.006-.416-.006-.847-.031-1.24.133-.785.276-1.344 1.066-1.358 1.896-.003 1.019.001 2.039-.002 3.058a3.815 3.815 0 01-1.465 2.945c-1.377 1.103-3.5 1.071-4.88-.011a3.954 3.954 0 01-1.541-3.027V25.064a8.942 8.942 0 01.022-.848c-.735-.004-1.472.007-2.207-.005a.928.928 0 01-.86-.924v-2.642c-1.16-.037-2.38.157-3.476-.322C1.11 19.71.023 18.12 0 16.455 0 13.496 0 10.538.002 7.58c-.02-.481.398-.926.878-.934 1.225-.009 2.45.005 3.674-.008.003-1.908 0-3.818.001-5.726zM1.858 8.499c.004 2.621-.001 5.244.002 7.866-.027 1.232 1.038 2.363 2.268 2.417.988.02 1.976-.002 2.964.01.48-.008.91.42.909.898.007.889 0 1.779.002 2.669 1.414-.001 2.827.002 4.24-.002 0-.884-.005-1.769.001-2.653a.913.913 0 01.841-.908c.682-.018 1.364 0 2.045-.006.46-.01.928.038 1.38-.067.87-.213 1.595-.936 1.794-1.81.088-.361.06-.735.064-1.102V8.5c-5.503.001-11.007.004-16.51-.001z"/></svg><svg fill="none" viewBox="0 0 25 25" id="facebook" xmlns="http://www.w3.org/2000/svg"><path d="M10.813.112c2.711-.362 5.558.153 7.915 1.554 3.08 1.734 5.316 4.853 6 8.312.52 2.445.296 5.053-.697 7.352-1.275 3.024-3.772 5.533-6.833 6.744-2.151.801-4.517 1.191-6.79.727-3.171-.495-6.099-2.3-7.969-4.903-2.088-2.764-2.86-6.428-2.22-9.815.588-2.914 2.22-5.65 4.614-7.44C6.539 1.263 8.643.41 10.813.112zm.54 5.387c-1.193 1.102-.92 2.828-.93 4.282a98.94 98.94 0 01-1.549.004c.002.908.004 1.816.002 2.725.516 0 1.031.002 1.547.004-.006 2.606-.01 5.214.002 7.822 1.082-.002 2.161-.004 3.243-.002-.006-2.608.002-5.214-.004-7.822.732 0 1.466 0 2.197-.006.091-.909.19-1.815.281-2.723-.826.006-1.651.004-2.476 0 .04-.685-.095-1.401.089-2.063.614-.59 1.585-.194 2.347-.303 0-.89 0-1.78.002-2.669-1.589.025-3.447-.422-4.751.751z" fill="#fff"/></svg><svg viewBox="0 0 86 85" id="faster" xmlns="http://www.w3.org/2000/svg"><path d="M65.457.05c1.87-.255 3.775.487 5.123 1.775.352.353.678.733 1.025 1.093 1.164-.582 2.32-1.187 3.487-1.768 1.274-.627 2.857-.684 4.11.025 1.185.59 1.977 1.794 2.24 3.071 1.117.06 2.235 0 3.353.033.688-.014 1.286.673 1.196 1.352-.083.577-.614 1.073-1.206 1.06-1.198.029-2.396.003-3.593.006-.566 1.125-1.21 2.278-2.297 2.98-.028 3.745.014 7.491-.014 11.237.037.703-.657 1.35-1.359 1.24-.598-.086-1.087-.65-1.062-1.258-.006-3.522.001-7.044 0-10.566-.824-.07-1.621-.293-2.423-.475 0 1.314.024 2.63-.002 3.944-.02 1.62-.93 3.258-2.416 3.967-1.266.683-2.873.706-4.119-.031.01 1.63.005 3.259 0 4.888.038.794-.832 1.457-1.586 1.192-.48-.177-.846-.662-.834-1.182-.019-3.241.018-6.482-.03-9.722-.044-1.525.238-3.148-.474-4.569-.553-1.229-1.657-2.049-2.692-2.85a5.36 5.36 0 00-2.728-1.03c-2.06-.186-4.125-.323-6.184-.51-.614-.044-1.205-.621-1.127-1.257.019-.695.709-1.265 1.397-1.151 2.42.203 4.846.355 7.257.62C62.142 1.447 63.614.227 65.457.05zm-2.205 3.427c1.367 1.03 2.726 2.187 3.434 3.79 1.05 2.063.837 4.443.88 6.68-.028 1.271 1.385 2.23 2.574 1.85.844-.257 1.524-1.094 1.47-1.998-.014-1.94.031-3.883-.023-5.823-.019-1.1-.582-2.097-1.317-2.882-.981-1.08-1.933-2.468-3.519-2.62-1.275-.282-2.433.408-3.5 1.003zm13.202-.273c-1.123.52-2.206 1.125-3.328 1.649.392.79.69 1.626.843 2.498.733.157 1.461.34 2.193.502.812.212 1.724-.19 2.124-.927.352-.617.867-1.226.805-1.983.019-1.276-1.468-2.272-2.637-1.739zM7.637 1.506c1.305-.858 2.998-1.21 4.5-.69 1.457.466 2.554 1.636 3.345 2.903.395.654.565 1.406.792 2.127 1.222.128 2.456.172 3.67.385 2.613.572 5.062 2.06 6.643 4.238a10.854 10.854 0 012.023 6.44c0 13 .002 26 0 39.002a1.288 1.288 0 01-.758 1.262c-.669.32-1.542-.189-1.645-.91-.045-.404-.024-.811-.024-1.217-.003-12.833.004-25.667-.005-38.502.035-3.284-2.23-6.36-5.271-7.51-1.236-.527-2.597-.557-3.912-.68.33 1.071.785 2.224.36 3.34-.28.742-.603 1.47-.94 2.188-.42.778-1.69.795-2.079-.023-.44-.677.099-1.412.348-2.05.167-.47.567-.943.368-1.465-.447-1.558-.926-3.106-1.36-4.666-.22-.832-.83-1.472-1.407-2.075-.875-.807-2.261-.773-3.23-.144.596 1.418.99 2.918 1.216 4.438.155.96-.08 2.002-.738 2.733-.934 1.146-2.666 1.395-3.98.815-1.07-.458-2.158-.877-3.23-1.333-.536-.2-.892-.797-.786-1.363.111-.677.893-1.175 1.546-.927 1.257.456 2.469 1.026 3.72 1.49.529.242 1.177-.335 1.09-.888-.244-1.536-.575-3.093-1.312-4.476-.213-.362-.513-.834-1.002-.77-.988.047-1.731.812-2.277 1.564-.467.62-.734 1.356-1.085 2.038-.404.725-1.552.751-1.994.05-.521-.658-.005-1.47.293-2.105.94-1.786 2.4-3.6 4.514-3.925.936-.227 1.86.165 2.607.706z"/><path d="M27.455 3.934c.259-.11.55-.081.825-.095 3.814.007 7.627-.007 11.44.009 2.779-.006 5.5.601 8.23 1.034 2.049.397 4.217.496 6.082 1.522 2.295 1.15 4.065 3.257 4.826 5.704.542 1.54.499 3.19.49 4.797-.005 12.412.002 24.824-.003 37.236.074.995-1.264 1.69-1.993.96-.55-.433-.425-1.183-.437-1.797.008-12.364 0-24.727.005-37.091-.005-.78.02-1.564-.094-2.338-.369-2.34-1.974-4.434-4.108-5.452-1.293-.62-2.749-.702-4.137-.972-2.999-.452-5.977-1.185-9.025-1.179-3.874-.008-7.748.002-11.622-.005-.565.025-1.103-.414-1.215-.963-.14-.557.21-1.167.736-1.37zM10.605 11c-.026-.709.695-1.336 1.396-1.2.55.103 1.033.623 1.015 1.199.014 2.551.002 5.1.004 7.652.007 1.177-.477 2.332-1.272 3.191-.755.756-1.777 1.205-2.826 1.36-.014 1.188.033 2.377-.01 3.566-.052 1.193-.76 2.389-1.895 2.84-1.437.714-3.364.048-4.08-1.378-.522-.962-.426-2.101-.385-3.155.127-.877 1.318-1.32 1.968-.688.807.686.216 1.848.53 2.716.328.645 1.425.421 1.432-.312.03-1.375.014-2.75.001-4.124-1.48-.742-2.397-2.388-2.39-4.024 0-.758-.017-1.515.004-2.273.012-.662.653-1.24 1.317-1.173.497.06.946.449 1.068.938.131 1.059-.077 2.137.11 3.19.339 1.262 1.982 1.881 3.065 1.145.536-.375.95-.973.93-1.649.024-2.607-.015-5.214.018-7.82z"/><path d="M36.337 13.728c.553-.265 1.257.033 1.526.567.172.32.125.698.14 1.05-.003 3.585.005 7.17-.005 10.755.06.68-.52 1.356-1.21 1.342-.69.015-1.275-.654-1.213-1.331-.004-3.706-.002-7.41 0-11.114a1.28 1.28 0 01.762-1.27zM50.194 17.846c.747-.37 1.677.31 1.656 1.113.019 3.768.005 7.536.005 11.306.057.674-.537 1.331-1.22 1.3-.674.002-1.241-.633-1.208-1.298.001-3.706.007-7.413-.004-11.12-.038-.538.267-1.09.771-1.301zM70.954 20.923c.78-.389 1.744.325 1.683 1.17.012 2.03-.003 4.059.007 6.087.07.686-.489 1.388-1.196 1.381-.653.04-1.237-.572-1.227-1.213-.02-2.023 0-4.046-.01-6.066-.058-.552.22-1.138.743-1.36zM44.478 29.478c.767-.424 1.799.253 1.738 1.122.01 7.28.002 14.56.005 21.84.066.613-.338 1.244-.951 1.383-.734.199-1.515-.472-1.475-1.217-.004-7.282 0-14.562 0-21.842-.047-.516.202-1.059.683-1.286zM36.347 31.06c.732-.327 1.633.288 1.642 1.075.02.704.024 1.41.01 2.115.007.586-.466 1.104-1.031 1.215-.693.095-1.407-.501-1.387-1.212-.017-.705-.019-1.41.006-2.114.006-.472.338-.895.76-1.078zM71.167 31.208c.468-.104.984.102 1.25.504.313.434.223 1.006.22 1.508-.02.614-.569 1.175-1.19 1.175-.53.018-1.013-.38-1.181-.868-.18-.842-.125-2.073.9-2.32zM36.313 36.692c.782-.387 1.75.341 1.694 1.184-.021 1.506.02 3.012-.012 4.519.024.712-.699 1.345-1.404 1.208-.576-.082-1.007-.636-1.01-1.207-.017-1.513-.004-3.026-.003-4.541-.03-.494.29-.965.735-1.163zM50.335 45.187c.667-.206 1.421.312 1.5.998.04.565.069 1.146-.034 1.708-.21.77-1.265 1.14-1.877.6-.669-.498-.492-1.415-.487-2.136-.009-.54.397-1.012.898-1.17zM68.919 46.468c.704-.2 1.5.366 1.504 1.106.058.577-.41.992-.724 1.413-.317.43-.789.839-1.364.733-.86-.076-1.361-1.212-.813-1.89.41-.492.743-1.166 1.397-1.362zM36.497 48.02c.771-.214 1.584.495 1.5 1.289a916.21 916.21 0 01-.003 8.172c.032.77-.814 1.444-1.556 1.18-.494-.16-.876-.654-.862-1.181-.008-2.725 0-5.453-.001-8.178-.037-.577.362-1.139.922-1.283zM17.434 49.208c.526-.301 1.22-.12 1.57.36.41.53 1.063 1.067.907 1.814-.124.837-1.232 1.282-1.894.749-.4-.354-.725-.787-1.024-1.226-.378-.556-.155-1.395.442-1.697zM65.26 50.957c.729-.24 1.557.376 1.54 1.142.02.427-.25.78-.504 1.094-1.285 1.552-2.536 3.127-3.803 4.692-.233.281-.447.59-.756.792-.548.331-1.333.123-1.645-.436-.277-.435-.203-1.021.128-1.404 1.361-1.704 2.75-3.386 4.108-5.091.26-.31.517-.68.931-.789zM50.32 51.406c.736-.227 1.575.415 1.53 1.188.01 1.456.022 2.913-.004 4.37.004.566-.47 1.069-1.017 1.162-.683.115-1.397-.47-1.39-1.168-.014-1.453-.02-2.907-.002-4.36-.012-.538.38-1.029.884-1.192zM21.06 53.687a1.191 1.191 0 011.512.303c1.465 1.775 2.893 3.581 4.353 5.36.424.449.523 1.203.09 1.681-.461.596-1.456.56-1.895-.045-1.471-1.829-2.96-3.645-4.427-5.475-.485-.552-.272-1.491.366-1.824zM76.367 53.722c.528-.286 1.258-.172 1.6.348.443.583.197 1.53-.493 1.801-.584.25-1.203.706-1.867.485-.72-.2-1.041-1.15-.643-1.77.309-.485.907-.637 1.403-.864zM71.674 55.818c.83-.45 1.917.399 1.7 1.312-.064.551-.565.867-1.035 1.05-1.06.448-2.088.971-3.16 1.385-.608.233-1.308-.156-1.502-.759-.215-.58.105-1.272.677-1.497 1.1-.508 2.21-1 3.32-1.491zM9.77 56.293c.718-.299 1.41.221 2.046.497.811.385.81 1.673.026 2.092-.738.43-1.54-.121-2.206-.445-.853-.43-.75-1.819.135-2.144zM14.642 58.403c.373-.16.775-.017 1.125.132.922.402 1.832.829 2.754 1.23.377.17.82.339.976.76.323.619-.034 1.465-.702 1.667-.608.215-1.187-.187-1.73-.409-.903-.454-1.875-.767-2.747-1.28-.771-.51-.565-1.843.324-2.1zM65.086 58.757c.83-.402 1.856.43 1.667 1.322-.124.727-.885 1.078-1.537 1.203-.794.117-1.524-.715-1.291-1.485.114-.565.658-.87 1.161-1.04zM21.252 61.364c.9-.242 2.19.416 2.09 1.47-.058.692-.788 1.258-1.47 1.056-.523-.163-1.14-.394-1.334-.959-.255-.605.102-1.352.714-1.567zM66.093 64.879c-.475-.645-.07-1.64.69-1.832.667-.144 1.322.127 1.968.253 1.588.314 3.192.602 4.715 1.163.88.34 1.796.844 2.195 1.75.3.765-.007 1.64-.503 2.25-.792.912-1.84 1.547-2.699 2.393.898.655 1.983.955 3.025 1.298 3.09.984 6.16 2.033 9.22 3.11.528.166.939.694.892 1.261-.023.78-.93 1.36-1.65 1.037-2.423-.825-4.834-1.688-7.273-2.468-1.578-.538-3.209-.945-4.706-1.692-.823-.402-1.55-1.08-1.818-1.976-.23-.642-.007-1.345.369-1.88.709-1.043 1.832-1.677 2.707-2.558-1.607-.712-3.359-.974-5.068-1.326-.709-.149-1.605-.123-2.064-.783zM24.526 65.14c.521-.484.852-1.355 1.684-1.332.886-.017 1.522 1.05 1.053 1.813-.985 1.55-2.644 2.546-4.363 3.094-1.893.588-3.806 1.225-5.477 2.317-.182.148-.522.283-.371.574.818.54 1.813.68 2.76.84 4.703.602 9.458.49 14.19.53 2.562-.004 5.125-.026 7.687.003 2.815.017 5.642.03 8.434.416 1.032.168 2.196.439 2.826 1.354.449.73.199 1.7-.402 2.265-1.162 1.111-2.704 1.675-4.03 2.55 3.804.704 7.616 1.364 11.413 2.104.652.095 1.177.778 1.021 1.437-.116.641-.814 1.11-1.454.946-3.645-.686-7.297-1.35-10.95-2.008-.85-.172-1.746-.27-2.514-.703-.718-.37-1.118-1.326-.773-2.076.284-.697.934-1.137 1.542-1.53 1.082-.647 2.205-1.222 3.287-1.867-1.817-.345-3.673-.376-5.516-.434-4.794-.088-9.59.006-14.385-.048-3.066-.007-6.137-.063-9.193-.357-1.335-.172-2.69-.298-3.966-.75-.92-.3-1.78-.88-2.288-1.715-.482-.919-.234-2.132.529-2.824 1.348-1.346 3.177-2.04 4.93-2.693 1.466-.562 3.154-.771 4.326-1.907zM51.584 64.309c.641-.232 1.298.152 1.868.418.739.403.805 1.587.063 2.024-.673.503-1.505.007-2.148-.298-.833-.456-.683-1.85.217-2.144zM55.911 65.857c.508-.347 1.118-.085 1.656.03 1.703.45 3.442.788 5.106 1.379 1.042.378 2.104 1.057 2.45 2.172.209.664.327 1.542-.245 2.066-.48.49-1.366.397-1.765-.15-.29-.323-.211-.776-.269-1.17-.273-.393-.774-.528-1.196-.701-1.435-.493-2.927-.782-4.392-1.165-.58-.17-1.298-.175-1.688-.709-.457-.532-.253-1.41.343-1.752zM62.736 73.556c.508-.423 1.349-.28 1.702.27.323.375.208.888.13 1.33.416.787 1.236 1.203 1.968 1.647 2.03 1.066 4.229 1.75 6.402 2.456.711.2 1.113 1.099.727 1.747-.29.517-.968.766-1.519.537-2.617-.83-5.269-1.68-7.632-3.113-1.091-.71-2.225-1.73-2.315-3.12-.038-.613-.007-1.357.537-1.754z"/></svg><svg fill="none" viewBox="0 0 25 26" id="instagram" xmlns="http://www.w3.org/2000/svg"><path d="M10.294.345c2.948-.534 6.101.022 8.656 1.602 4.383 2.574 6.818 8.007 5.832 12.997-.738 4.056-3.636 7.644-7.441 9.218-2.14.823-4.5 1.248-6.777.81-2.934-.432-5.687-1.955-7.58-4.243C1.179 18.626.106 15.905.019 13.132c-.21-3.59 1.334-7.207 3.963-9.636C5.736 1.88 7.933.739 10.294.345zM8.8 6.289c-1.497.437-2.724 1.813-2.738 3.415-.022 1.954-.024 3.907.002 5.861.03 1.792 1.528 3.386 3.316 3.518 1.613.059 3.23.002 4.847.026.955.014 1.976-.008 2.823-.51 1.087-.613 1.853-1.786 1.89-3.046.05-1.683.003-3.368.024-5.05.018-1.022-.138-2.122-.82-2.925-.728-.834-1.787-1.45-2.92-1.412-1.685-.01-3.37 0-5.056-.006-.458.008-.925-.004-1.368.13z" fill="#fff"/><path d="M15.861 8.123c.587-.327 1.314.326 1.067.945-.11.512-.82.692-1.2.366-.454-.31-.386-1.11.133-1.31zM11.49 9.44c2.013-.716 4.37.941 4.354 3.081.155 2.106-2.034 3.922-4.075 3.378-1.914-.368-3.126-2.597-2.413-4.412A3.362 3.362 0 0111.49 9.44zm.178 1.17c-1.473.536-1.819 2.702-.598 3.677 1.148 1.084 3.278.414 3.565-1.15.473-1.65-1.415-3.26-2.967-2.527z" fill="#fff"/></svg><svg viewBox="0 0 36 35" id="meb" xmlns="http://www.w3.org/2000/svg"><path d="M.006 2.74C.002 1.29 1.28.01 2.726.005c9.799-.012 19.598 0 29.397-.005 1.162-.031 2.292.71 2.716 1.795.212.421.153.898.159 1.352-.002 8.662.003 17.322-.002 25.982-.127 1.357-1.453 2.361-2.773 2.383-.005.95.022 1.903-.01 2.853-.003.389-.392.669-.761.63-1.738 0-3.474.006-5.21 0-.379.021-.741-.295-.72-.683-.014-.94.005-1.877-.01-2.816-5.344.003-10.688 0-16.03.001-.011.935.008 1.872-.007 2.807.02.384-.334.712-.713.687-1.782.01-3.566.009-5.349.002-.38.024-.73-.297-.71-.682-.03-.963.02-1.928-.024-2.889-1.433.012-2.677-1.288-2.674-2.705-.006-8.66-.008-17.32.001-25.979zm1.462.002c-.024 1.103-.003 2.206-.01 3.31 5.102.001 10.205-.003 15.309.002.002-1.534 0-3.066 0-4.598-4.357.008-8.713 0-13.07.004-.453.01-.921-.051-1.361.087-.503.166-.857.669-.868 1.195zM18.225 1.46c.007 1.531.003 3.062.003 4.593 5.054-.006 10.11.002 15.163-.004 0-1.107.01-2.213-.004-3.32.009-.726-.68-1.336-1.397-1.27-4.589 0-9.177-.004-13.765.001zM1.46 7.506c-.003 7.019-.002 14.037 0 21.057-.065.715.531 1.441 1.274 1.403 4.676.002 9.353-.01 14.028.005.011-7.487.006-14.975.003-22.462-5.102 0-10.204.004-15.305-.003zm16.765.004c.006 7.485.006 14.968 0 22.453 4.585.004 9.17.001 13.756.001.715.065 1.419-.537 1.408-1.266.01-7.063 0-14.127.005-21.19-5.057.005-10.113 0-15.169.002zm8.75 23.988c.002.68.005 1.36.005 2.043 1.262-.005 2.525-.002 3.787-.003-.004-.682.016-1.363-.01-2.045-1.262.01-2.522.004-3.783.005zM4.162 33.54c1.283-.001 2.566-.005 3.85.003.01-.682.008-1.363.008-2.045-1.288.004-2.574 0-3.86.001-.003.681-.009 1.36.002 2.041z"/><path d="M8.384 4.017c.65-.158 1.344-.065 2.011-.068.748.023.835 1.25.12 1.416-.628.056-1.264.032-1.894.018-.676-.036-.82-1.087-.237-1.366zM24.277 4.061c.388-.219.863-.089 1.29-.126.394.03.872-.108 1.195.19.419.375.204 1.225-.39 1.257a19.61 19.61 0 01-1.838-.006c-.601-.086-.745-.995-.257-1.315zM13.442 13.707c.253-.04.533-.081.777.014.4.166.394.7-.01.864-.276.085-.632.03-.842.229-.198.147-.192.378-.194.575.008 1.19-.004 2.38.004 3.57-.001.248.23.503.55.53.204.043.459.017.614.156a.453.453 0 01-.061.756c-.245.136-.563.09-.835.044-.842-.155-1.49-.807-1.488-1.499a830.86 830.86 0 010-3.736c-.014-.699.629-1.359 1.485-1.503zM20.862 13.69c1.066-.179 2.159.56 2.182 1.426.014 1.3.007 2.6.002 3.9-.016.852-1.048 1.584-2.103 1.462-.461-.064-.594-.582-.28-.831.159-.134.405-.119.614-.156.321-.028.556-.284.551-.536.01-1.22 0-2.442.006-3.662.008-.192-.055-.404-.255-.524-.251-.194-.666-.068-.915-.263a.464.464 0 01.198-.817z"/></svg><svg viewBox="0 0 72 67" id="night" xmlns="http://www.w3.org/2000/svg"><path d="M48.136.907C48.48-.17 50.218-.333 50.585.81c.25 1.157.072 2.362.114 3.536 1.184.031 2.4-.152 3.567.121 1.132.405.925 2.327-.298 2.448-1.084.1-2.178.021-3.266.038-.03 1.157.094 2.328-.083 3.477-.332 1.088-2.029 1.119-2.42.06-.236-1.168-.066-2.373-.132-3.557-1.14 0-2.289.093-3.421-.052-1.178-.295-1.133-2.13-.01-2.466 1.146-.183 2.313-.055 3.466-.055.007-1.15-.111-2.307.035-3.453zM17.07 6.527c1.13-.817 2.626.72 1.812 1.843-2.978 5.734-4.042 12.463-2.823 18.82 1.455 8.139 6.646 15.435 13.672 19.736 8.2 5.153 19.04 5.704 27.731 1.44.454-.221.89-.488 1.372-.657.917-.274 1.904.723 1.63 1.63-3.24 6.272-8.511 11.508-14.96 14.441-6.828 3.193-14.79 3.882-22.058 1.884-7.934-2.067-14.94-7.404-19.057-14.489A32.48 32.48 0 01.1 32.378C.674 25.224 3.63 18.232 8.597 13.02c2.407-2.649 5.343-4.778 8.474-6.493zM3.199 28.31c-1.704 7.044-.547 14.694 3.047 20.968 3.578 6.268 9.458 11.224 16.311 13.53 5.627 1.946 11.85 2.067 17.554.36 6.354-1.866 11.933-5.99 15.825-11.324-8.044 2.91-17.249 2.421-24.943-1.319-7.259-3.442-13.052-9.8-15.843-17.332-2.698-7.113-2.784-15.188-.201-22.35C9.172 15.081 4.795 21.29 3.198 28.31zM27.83 7.698c1.705-.807 3.675 1.4 2.667 2.992-.661 1.354-2.711 1.583-3.58.319-.963-1.067-.36-2.823.914-3.31zM63.474 8.297c.318-1.25 2.441-1.028 2.497.27.09 1.631.013 3.266.027 4.9 1.714.052 3.439-.097 5.146.066 1.13.301 1.146 2.126.021 2.462-1.71.208-3.446.031-5.163.087-.056 1.714.131 3.445-.083 5.153-.295 1.132-2.172 1.125-2.46-.007-.183-1.708-.01-3.432-.072-5.146-1.714-.056-3.438.117-5.139-.087-1.143-.301-1.17-2.157-.014-2.448 1.711-.187 3.439-.02 5.153-.083.056-1.721-.118-3.456.087-5.167z"/><path d="M36.339 18.277c.599-.187 1.37.042 1.638.644 1.025 2.068 1.613 4.433 3.189 6.178 1.804 1.517 4.18 2.057 6.202 3.203.755.392.772 1.68.031 2.096-2.06 1.18-4.55 1.655-6.327 3.307-1.565 1.776-2.084 4.172-3.203 6.212-.388.69-1.472.793-1.988.197-1.326-2.08-1.748-4.71-3.48-6.534-1.818-1.493-4.17-2.064-6.199-3.186-.737-.43-.723-1.697.032-2.105 2.077-1.181 4.578-1.69 6.347-3.377 1.569-1.856 2.05-4.346 3.328-6.375.107-.066.322-.194.43-.26zm.45 4.422c-.773 1.784-1.607 3.688-3.256 4.845-.983.776-2.195 1.17-3.234 1.863 1.389.648 2.85 1.25 3.958 2.345 1.174 1.187 1.895 2.721 2.535 4.242.644-1.458 1.278-2.975 2.42-4.128 1.147-1.184 2.695-1.832 4.174-2.5-1.476-.714-3.048-1.365-4.201-2.573-1.122-1.147-1.745-2.653-2.396-4.094zM56.195 22.256c1.58-.596 3.37 1.16 2.74 2.75-.472 1.45-2.535 1.967-3.557.782-1.164-1.032-.613-3.064.817-3.532zM54.124 36.783c1.655-.374 3.189 1.76 2.206 3.186-.683 1.316-2.709 1.475-3.54.228-1.087-1.17-.155-3.178 1.334-3.414z"/></svg><svg viewBox="0 0 38 36" id="ot" xmlns="http://www.w3.org/2000/svg"><path d="M4.646 1.027a3.16 3.16 0 015.028.493c.305.49.457 1.066.465 1.642.63.003 1.259-.001 1.888.002a3.183 3.183 0 01.92-2.224 3.161 3.161 0 012.559-.923 3.17 3.17 0 012.449 1.613c.265.466.392 1 .403 1.534.628-.003 1.257 0 1.886-.002.003-.95.45-1.889 1.2-2.476A3.172 3.172 0 0124.61.238c1.169.463 1.97 1.672 1.969 2.926.627 0 1.256-.003 1.884 0A3.184 3.184 0 0129.895.52a3.155 3.155 0 012.886-.3c1.191.452 2.017 1.673 2.014 2.944.516.005 1.032-.017 1.548.012.865.08 1.589.865 1.603 1.733 0 .539.007 1.078-.003 1.618-.04.87-.793 1.634-1.662 1.687-.498.018-.996-.002-1.493.009v18.96c.569.018 1.144-.042 1.709.036.752.145 1.366.813 1.44 1.577.025.345.004.692.01 1.038-.008.398.043.81-.102 1.192-.234.688-.914 1.196-1.643 1.213-.47.007-.941-.002-1.41 0a3.177 3.177 0 01-.894 2.196 3.15 3.15 0 01-2.38.965 3.163 3.163 0 01-2.52-1.407 3.224 3.224 0 01-.54-1.754l-1.886.002c0 .868-.372 1.73-1.015 2.315a3.146 3.146 0 01-2.576.816 3.171 3.171 0 01-2.377-1.676 3.267 3.267 0 01-.362-1.456c-.628.002-1.256-.001-1.884 0a3.2 3.2 0 01-1.028 2.328 3.17 3.17 0 01-3.02.708c-1.321-.362-2.298-1.664-2.283-3.034-.63-.005-1.258 0-1.887-.002a3.185 3.185 0 01-1.115 2.402 3.146 3.146 0 01-2.447.734 3.168 3.168 0 01-2.765-3.162v-2.501l-1.897-.001c.003.835 0 1.669.003 2.503a.638.638 0 01-.514.646c-.46.107-.846-.368-.755-.805.006-.99.003-1.98 0-2.97-.035-.332.268-.633.589-.65.858.021 1.716.007 2.574.01V8.223c-.843-.003-1.686-.002-2.528 0-.004.44.01.882-.005 1.322a.625.625 0 01-.626.572.627.627 0 01-.626-.55c-.04-2.565-.034-5.133-.005-7.698a.632.632 0 01.555-.599c.355-.051.716.255.706.617.004.424 0 .85 0 1.274.842.007 1.683 0 2.525.003a3.18 3.18 0 01.837-2.136zm1.913.285A1.914 1.914 0 005.126 2.74c-.075.272-.021.553-.03.83-.008 1.731.018 3.463-.018 5.195l.001 23.519c.004.782.553 1.516 1.295 1.756a1.9 1.9 0 001.983-.504c.37-.387.556-.938.5-1.471.001-1.807-.014-3.615.012-5.422.003-7.912.006-15.824-.017-23.735C8.737 1.843 7.6 1.047 6.56 1.312zm8.23-.002c-.784.16-1.42.867-1.483 1.666.014 1.482.003 2.965.007 4.447-.035 2.598-.01 5.197-.017 7.796v11.35c.029 1.856.017 3.713.012 5.57-.1.993.748 1.94 1.737 1.99.967.102 1.911-.666 2.025-1.627.01-1.952-.021-3.906.019-5.857-.002-5.962-.002-11.924 0-17.886-.04-1.952-.009-3.907-.02-5.859-.12-1.057-1.244-1.848-2.28-1.59zm8.166.011c-.861.199-1.507 1.062-1.439 1.947 0 9.717-.008 19.435.005 29.153.07.929.912 1.71 1.842 1.715a1.903 1.903 0 001.82-1.23c.192-.482.086-1.01.11-1.515.02-9.474.014-18.95 0-28.425-.077-1.107-1.268-1.943-2.338-1.645zm8.24-.004c-.9.191-1.56 1.108-1.454 2.023-.005 6.16-.016 12.32-.01 18.482-.013 3.512.026 7.024.006 10.536.033.934.856 1.743 1.787 1.775.98.078 1.921-.73 1.99-1.712.012-9.816.014-19.634-.001-29.451-.08-1.098-1.25-1.94-2.317-1.653zM1.304 4.427c.001.842.002 1.685 0 2.527.83.003 1.662.002 2.493.001V4.427H1.303zm8.844.001c.004.843 0 1.686.002 2.529.622-.006 1.244.003 1.865-.002V4.43c-.622-.002-1.245-.002-1.867 0zm8.224-.001c0 .843-.001 1.685.002 2.527.624.006 1.248-.002 1.872.002v-2.53c-.625.004-1.249.001-1.874 0zm8.213 0c-.003.844.002 1.686-.002 2.528.623 0 1.247.002 1.872 0-.003-.841-.002-1.684-.001-2.527h-1.87zm8.207 0c.003.843-.002 1.686.003 2.529.466-.005.932.011 1.398-.008a.543.543 0 00.49-.564c.003-.47.002-.94 0-1.41a.548.548 0 00-.56-.545c-.443-.005-.888 0-1.331-.002zM10.135 8.22c0 6.32.001 12.641-.001 18.962h1.897c-.001-6.322-.002-12.641 0-18.962h-1.896zm8.22 0c-.003 6.32-.003 12.642-.002 18.962l1.888.001c.015-6.321 0-12.642.007-18.963h-1.894zm8.215.002c.002 6.32 0 12.64 0 18.96.633 0 1.265.001 1.897-.002-.003-6.32-.002-12.64 0-18.96-.632 0-1.265-.004-1.897.002zM10.148 28.448c.002.843-.002 1.685.002 2.529.622-.003 1.245 0 1.867 0-.006-.844.001-1.688-.003-2.532-.621.008-1.244-.001-1.866.003zm8.223-.001l.001 2.53 1.875-.001c-.005-.844 0-1.687-.003-2.53-.624.002-1.249.003-1.873 0zm8.21.001c.004.843.001 1.686.003 2.53.622-.005 1.245 0 1.867-.002.003-.843-.001-1.685.002-2.527-.624 0-1.248-.004-1.872 0zm8.212-.004c-.002.845.001 1.69-.002 2.534.444-.006.889.001 1.333-.003a.55.55 0 00.557-.546c.003-.47.004-.941.001-1.412a.553.553 0 00-.55-.568c-.447-.008-.893.006-1.34-.005z"/></svg><svg viewBox="0 0 35 31" id="rem" xmlns="http://www.w3.org/2000/svg"><path d="M12.714.39a.729.729 0 01.791-.376c2.032.295 4.062.597 6.092.905.508.041.809.69.51 1.106-1.023 1.724-2.068 3.439-3.09 5.166 4.701 2.813 9.4 5.63 14.093 8.457 1.237.776 1.537 2.632.625 3.771-.65.879-1.879 1.261-2.914.91-.44-.157-.826-.428-1.226-.663-4.432-2.655-8.857-5.318-13.29-7.969-.895 1.495-1.787 2.99-2.69 4.482-.187.386-.719.483-1.06.239-1.591-.957-3.184-1.912-4.778-2.866-.465-.206-.562-.818-.247-1.198.874-1.448 1.737-2.904 2.617-4.348-.76-.417-1.53-.983-1.74-1.876-.468-1.411.543-3.036 1.989-3.3.879-.218 1.745.162 2.453.658.628-1.029 1.236-2.07 1.865-3.099zm1.023 1.127c-2.228 3.698-4.438 7.407-6.665 11.105 1.217.739 2.44 1.467 3.663 2.2 2.522-4.21 5.048-8.418 7.572-12.624-1.524-.228-3.049-.445-4.57-.681zM7.833 5.805c.156.49.665.695 1.067.94.392-.675.816-1.334 1.194-2.02-.425-.231-.86-.596-1.38-.475-.69.105-1.152.906-.88 1.555zm8.43 2.633c-.399.668-.804 1.333-1.204 2.001a6252.01 6252.01 0 0013.986 8.392c.59.387 1.475.073 1.693-.597.223-.552-.06-1.212-.587-1.467-4.628-2.78-9.257-5.556-13.888-8.33zM5.132 20.92c-.667-.198-.603-1.275.081-1.393 1.438-.047 2.882-.019 4.323-.016.699-.038.989 1.007.375 1.343-.539.222-1.156.069-1.727.109-.003 1.264-.003 2.529 0 3.793 8.685.007 17.371 0 26.056.004.38-.023.753.285.75.676.014 1.432.012 2.866.001 4.298a.708.708 0 01-.741.71c-11.165.007-22.331.006-33.497 0-.396.031-.763-.32-.744-.717a224.25 224.25 0 01.002-4.27c-.013-.396.357-.716.743-.696 1.99-.006 3.98-.001 5.972-.001-.008-1.267-.001-2.533-.004-3.799-.53-.013-1.067.056-1.59-.041zm-3.68 5.315c.017.918.002 1.837.012 2.757 10.69-.003 21.382-.006 32.073.002.005-.922 0-1.844.006-2.766a7430.071 7430.071 0 00-32.09.007z"/></svg><svg viewBox="0 0 42 37" id="san" xmlns="http://www.w3.org/2000/svg"><path d="M4.17.21c.599-.256 1.266-.2 1.902-.208 1.535.024 3.067-.026 4.602.015 1.314.035 2.517.947 2.987 2.16.3.718.228 1.509.23 2.266C18 3.717 22.105 2.956 26.216 2.22c.516-.181 1.165.19 1.135.772.059.45-.35.809-.774.835-4.223.763-8.445 1.54-12.671 2.285-.015 1.364-.053 2.733.033 4.097.052 1.347 1.296 2.489 2.641 2.436 6.122.002 12.247.002 18.369.002 1.574-.026 3.05.83 4.082 1.968.89 1.076 1.602 2.329 1.979 3.674.05.857-.971.94-1.594.933.026.94.244 1.865.286 2.805.015.468-.429.76-.855.77-2.761.289-5.519.63-8.282.899-.4.059-.814-.18-.87-.597-.169-.912-.217-1.841-.346-2.76-2.943.337-5.89.643-8.833.969a8.692 8.692 0 00-4.528 1.854c-1.428 1.177-2.115 3.046-2.1 4.865.621-.037 1.422.06 1.553.805.09 1.246.42 2.457.584 3.693.006.507-.508.859-.982.793-4.734-.015-9.468.011-14.201-.013-.534.037-.967-.503-.81-1.017.189-1.21.427-2.416.659-3.616.076-.479.584-.66 1.012-.627 3.514 0 7.028.006 10.541-.005.018-1.58.34-3.203 1.242-4.528 1.406-2.136 3.875-3.352 6.337-3.776 6.388-.728 12.786-1.384 19.175-2.119-.542-1.159-1.283-2.306-2.434-2.938-.684-.405-1.502-.377-2.27-.383H16.782c-.944.004-1.922-.177-2.702-.735-.892-.597-1.386-1.604-1.715-2.595-2.914-.01-5.83-.007-8.745-.004-.081 5.013.004 10.027-.042 15.04-.547-.002-1.093-.002-1.64 0 .007-5.267-.002-10.534.002-15.8-.037-.48.357-.922.85-.878 3.152-.033 6.302.002 9.453-.015-.009-2.038.009-4.076-.004-6.112.065-.854-.713-1.596-1.555-1.541a767.66 767.66 0 00-5.497 0c-.778-.07-1.539.549-1.554 1.345-.068 1.42-.002 2.844-.027 4.268l-1.642.013c-.006-1.288-.01-2.574-.002-3.862C1.904 2.018 2.891.717 4.17.21zm26.819 19.953c.059.604.135 1.205.223 1.804 2.252-.214 4.5-.498 6.75-.734-.066-.602-.138-1.2-.217-1.802-2.254.227-4.504.496-6.756.732zm-28.82 9.54c-.125.652-.24 1.303-.352 1.959 4.13.01 8.263.004 12.395.002l-.36-1.961c-3.895-.015-7.789-.013-11.683 0zM35.405 26.39c.446-.255 1.028.044 1.168.517.575 1.502 1.908 2.52 2.645 3.924.79 1.57.785 3.698-.542 4.979-1.489 1.57-4.24 1.594-5.742.03-1.233-1.136-1.381-3.032-.776-4.526.57-1.582 2.06-2.59 2.716-4.125.146-.282.22-.645.531-.798zm-1.598 5.194c-.702 1.128-.429 2.824.743 3.53.744.33 1.634.353 2.388.044 1.154-.636 1.533-2.234.94-3.38-.573-1.038-1.423-1.885-2.081-2.866-.656.896-1.404 1.727-1.99 2.672z"/></svg><svg viewBox="0 0 72 93" id="slow" xmlns="http://www.w3.org/2000/svg"><path d="M30.168 1c2.135-1.387 5.092-1.328 7.163.157.667.407 1.268 1.18 2.142.97 3.676-.473 7.359-.884 11.039-1.323 1.264-.15 2.56-.414 3.823-.114 1.879.46 3.53 1.804 4.352 3.557.613 1.29.659 2.766.511 4.162-.363 3.218-3.585 5.817-6.814 5.431-4.387-.504-8.774-1.037-13.16-1.563-.675-.155-1.19.365-1.708.702-.677.49-1.445.824-2.21 1.148-.015 1.57-.013 3.14.012 4.71 1.413.047 2.828.005 4.241.01.617.006 1.333.046 1.76.56.445.47.427 1.157.445 1.758-.004 1.84-.013 3.678-.007 5.517.98.022 1.991-.12 2.95.141.75.262 1.037 1.097 1.015 1.83.015 3.024-.033 6.053.008 9.077 5.938.852 11.9 3.008 16.252 7.27 4.52 4.32 6.73 10.633 6.74 16.808.664.033 1.365-.037 1.997.214.965.456 1.15 1.9.399 2.634-.465.493-1.192.491-1.82.504-5.437-.022-10.875-.01-16.313-.008-.907-.014-1.828.075-2.726-.082-1.102-.213-1.569-1.711-.895-2.57.52-.749 1.536-.632 2.33-.718-.147-1.277-.42-2.643-1.37-3.583-.893-.947-2.228-1.324-3.501-1.28-.601.042-1.335-.125-1.806.348-.69.63-1.302 1.346-2.04 1.923-2.929 2.367-6.684 3.781-10.467 3.662-3.56-.063-7.017-1.497-9.764-3.724-.83-.621-1.433-1.49-2.264-2.103-.9-.176-1.825-.057-2.735-.077-4.786-.007-9.572.015-14.36-.014-.046.873.04 1.765-.163 2.62-.334 1.09-1.898 1.442-2.687.629-.563-.498-.522-1.306-.537-1.989.015-7.204.02-14.406.004-21.607-.008-.668.093-1.447.712-1.833.863-.65 2.29-.178 2.54.89.193 1.04.063 2.105.087 3.156.013 4.938-.028 9.876.02 14.813 5.97.051 11.944-.002 17.914.025 1.066-.067 1.643.942 2.242 1.645 2.679 3.264 7.16 4.766 11.292 4.112 3.013-.408 5.834-2.024 7.724-4.403.469-.53.907-1.258 1.687-1.32 1.086-.096 2.178-.059 3.268-.043 1.967.061 3.96.856 5.235 2.392 1.43 1.603 2.03 3.735 2.32 5.818 3.446-.01 6.893-.017 10.34.005.055-4.244-1.19-8.524-3.581-12.036-2.23-3.271-5.603-5.643-9.292-7.006-2.467-.932-5.064-1.49-7.678-1.793-.683-.112-1.449-.172-1.975-.672-.516-.515-.45-1.301-.474-1.97.03-2.79.002-5.577.011-8.363-5.876-.016-11.752-.005-17.63-.007a592.487 592.487 0 000 8.153c-.022.65.026 1.412-.476 1.91-.542.588-1.41.493-2.134.52-4.746-.044-9.492.026-14.238-.04.024-1.086.026-2.172.004-3.258 4.504-.083 9.008.012 13.514-.048-.007-2.711 0-5.42-.013-8.129.024-.676-.033-1.482.522-1.976.456-.449 1.138-.433 1.733-.453 4.92.01 9.84.009 14.763.004.004-1.489-.007-2.98-.005-4.468-3.151-.049-6.303-.016-9.455-.018-.828-.015-1.676.08-2.49-.112-1.049-.313-1.437-1.756-.75-2.588.43-.61 1.24-.626 1.912-.634a356.2 356.2 0 014.337.028c-.044-1.553.081-3.11-.04-4.658-.61-.447-1.343-.683-1.971-1.106-.645-.383-1.264-1.039-2.088-.825-4.27.51-8.543 1.015-12.816 1.526-3.426.53-6.909-2.387-7.03-5.84-.09-1.408-.004-2.897.75-4.133A6.702 6.702 0 0112.71.742c1.004-.29 2.064-.189 3.086-.065 3.797.464 7.6.892 11.393 1.385.469.035.96.156 1.42.013.557-.3 1.024-.738 1.56-1.075zm2.405 2.425c-2.964.53-3.684 4.83-1.541 6.676 1.268 1.066 3.206 1.1 4.651.39 1.896-1.005 2.225-3.683 1.282-5.45-.846-1.515-2.79-2.003-4.392-1.616zm-20.244.899c-.793.568-.97 1.614-.987 2.526-.02 1.035-.055 2.246.747 3.026.724.755 1.857.74 2.817.625 3.931-.493 7.873-.903 11.8-1.427a10.157 10.157 0 01-.013-3.728c-3.782-.514-7.583-.884-11.369-1.377-.995-.101-2.123-.253-2.995.355zm28.303 1.008c.178 1.247.198 2.52-.088 3.751 3.977.493 7.96.95 11.94 1.432.915.103 1.977.099 2.682-.59.7-.67.77-1.707.784-2.62-.01-.973-.047-2.1-.802-2.816-.756-.707-1.866-.656-2.821-.56-3.9.46-7.797.937-11.695 1.403zM60.106 70.114c.865-.326 1.867.167 2.125 1.057 1.321 3.623 4.85 5.887 6.13 9.527.818 2.218.98 4.773.008 6.97-1.471 3.355-5.35 5.421-8.957 4.824-2.8-.434-5.387-2.319-6.488-4.953-.925-2.3-.7-4.92.213-7.182 1.306-3.37 4.544-5.526 5.874-8.885.229-.535.482-1.171 1.095-1.358zm-2.602 9.331c-1.048 1.275-1.933 2.804-1.946 4.502-.042 1.975.911 4.178 2.854 4.933a6.68 6.68 0 004.552-.01c2.002-.79 2.934-3.11 2.82-5.141-.065-1.727-1.036-3.236-2.104-4.524-1.05-1.255-2.03-2.566-2.997-3.885a71.062 71.062 0 01-3.178 4.125z"/></svg><svg fill="none" viewBox="0 0 28 27" id="star" xmlns="http://www.w3.org/2000/svg"><path d="M12.978.88c.197-.41.518-.867 1.02-.88.501 0 .819.467 1.021.868 1.225 2.463 2.432 4.935 3.656 7.398 2.706.38 5.41.783 8.115 1.172.442.059.95.21 1.158.644.168.439-.092.898-.4 1.202-1.99 1.962-4.001 3.903-5.996 5.861.469 2.692.925 5.387 1.39 8.08.075.457.1 1.028-.303 1.344-.413.278-.934.097-1.335-.108-2.432-1.28-4.867-2.556-7.297-3.84-2.434 1.279-4.869 2.555-7.3 3.84-.388.205-.882.365-1.295.136-.395-.26-.443-.797-.373-1.225.473-2.74.93-5.486 1.417-8.226a3477.116 3477.116 0 00-5.934-5.79c-.303-.31-.614-.727-.497-1.187.158-.5.726-.668 1.19-.73 2.707-.397 5.415-.781 8.12-1.181 1.217-2.46 2.425-4.92 3.643-7.378z" fill="#FBBC04"/></svg><svg fill="none" viewBox="0 0 25 25" id="youtube" xmlns="http://www.w3.org/2000/svg"><circle cx="12.5" cy="12.5" r="12.5" fill="#fff"/><path d="M9.102 9.103a55.486 55.486 0 017.41.044c.65.023 1.237.543 1.31 1.195.244 1.701.236 3.437-.017 5.137-.108.598-.602 1.12-1.22 1.185-2.693.21-5.4.205-8.096.003-.71-.024-1.267-.667-1.327-1.352-.21-1.703-.24-3.44.054-5.135.17-.859 1.126-1.118 1.886-1.077zm2.159 5.356c.977-.549 1.983-1.047 2.948-1.617-.982-.525-1.96-1.053-2.944-1.576-.004 1.064-.009 2.128-.004 3.193z" fill="#222"/></svg></svg>