<svg width="20" height="20" viewBox="0 0 20 20" fill="none" xmlns="http://www.w3.org/2000/svg">
<rect width="20" height="20" fill="white"/>
<path d="M16.3636 18.8621H3.63636C3.39526 18.8621 3.16403 18.7664 2.99354 18.5959C2.82305 18.4254 2.72727 18.1942 2.72727 17.9531V9.77123H0L9.38818 1.23669C9.55556 1.0844 9.77371 1 10 1C10.2263 1 10.4444 1.0844 10.6118 1.23669L20 9.77123H17.2727V17.9531C17.2727 18.1942 17.177 18.4254 17.0065 18.5959C16.836 18.7664 16.6047 18.8621 16.3636 18.8621ZM10.9091 17.044H15.4545V8.09578L10 3.1376L4.54545 8.09578V17.044H9.09091V11.5894H10.9091V17.044Z" fill="#B1B1B1"/>
</svg>
