<svg width="70" height="70" viewBox="0 0 70 70" fill="none" xmlns="http://www.w3.org/2000/svg">
<rect width="70" height="70" rx="5" fill="#070707"/>
<path d="M52.0909 13H16.9091C14.7493 13 13 14.7493 13 16.9091V52.0909C13 54.2507 14.7493 56 16.9091 56H52.0909C54.2507 56 56 54.2507 56 52.0909V16.9091C56 14.7493 54.2507 13 52.0909 13ZM34.5 45.0155C34.5 48.4887 32.3695 50.4354 28.8318 50.4354C25.3371 50.4354 23.1109 48.3929 23.1109 45.0897H26.8968C26.9066 46.3152 27.6376 47.0892 28.7673 47.0892C29.9283 47.0892 30.5518 46.3582 30.5518 44.9822V34.4961H34.5V45.0155ZM45.2129 50.4354C41.2862 50.4354 38.8156 48.5864 38.7492 45.596H42.5136C42.6094 46.7257 43.7372 47.445 45.3731 47.445C46.8469 47.445 47.8593 46.7355 47.8593 45.7132C47.8593 44.8532 47.1811 44.39 45.4064 44.0362L43.3639 43.6277C40.5239 43.0902 39.0619 41.5422 39.0619 39.101C39.0619 36.0675 41.4934 34.0778 45.2344 34.0778C48.8698 34.0778 51.3853 36.046 51.4498 38.9173H47.8046C47.7186 37.8208 46.6749 37.0565 45.2852 37.0565C43.8994 37.0565 42.9866 37.7133 42.9866 38.7453C42.9866 39.5955 43.6746 40.09 45.3086 40.4125L47.3062 40.7995C50.3729 41.3917 51.7489 42.7775 51.7489 45.2402C51.7508 48.4789 49.2783 50.4354 45.2129 50.4354Z" fill="white"/>
</svg>
