<svg width="70" height="70" viewBox="0 0 70 70" fill="none" xmlns="http://www.w3.org/2000/svg">
<rect width="70" height="70" rx="5" fill="#070707"/>
<path d="M52.5595 14.5767C52.2305 14.2095 51.7612 14 51.2694 14H17.7318C17.24 14 16.7706 14.2095 16.4416 14.5767C16.1126 14.9438 15.9567 15.4339 16.0104 15.9223L19.8238 50.2513C19.9 50.9492 20.3935 51.5328 21.0689 51.725L34.0226 55.4258C34.1785 55.4708 34.3395 55.4934 34.4988 55.4934C34.6582 55.4934 34.8192 55.4708 34.9751 55.4258L47.9288 51.725C48.6042 51.5328 49.096 50.9492 49.1739 50.2513L52.989 15.9223C53.0444 15.4339 52.8886 14.9438 52.5595 14.5767ZM44.053 31.4459L43.2807 44.0619L34.556 46.9141L25.8313 44.0619L25.5005 38.0284H29.9166L30.0274 40.7715L34.556 42.3076L39.0846 40.7715L39.4153 35.836H29.6966L29.4767 31.4476H39.637L39.9678 27.0593H24.7264L24.3957 22.6693H44.6055L44.053 31.4459Z" fill="white"/>
</svg>
