<svg width="20" height="20" fill="none" xmlns="http://www.w3.org/2000/svg"><g clip-path="url(#clip0)" fill="#C62828"><path d="M11.248 14.814a.718.718 0 00-1.004.154l-1.172 1.597-.005-5.402a.718.718 0 10-1.436.001l.005 5.414-1.212-1.608a.718.718 0 10-1.147.864l1.82 2.416c.3.4.76.629 1.26.629h.01a1.563 1.563 0 001.261-.644l1.774-2.418a.718.718 0 00-.154-1.003z"/><path d="M15.503 4.9h-2.767a4.55 4.55 0 00-1.264-2.46 4.439 4.439 0 00-3.17-1.32 4.506 4.506 0 00-4.447 3.832A4.55 4.55 0 001.32 6.227 4.439 4.439 0 000 9.397a4.505 4.505 0 004.497 4.497h1.73a.718.718 0 100-1.436H4.498a3.067 3.067 0 01-3.062-3.061c0-1.689 1.347-3.032 3.068-3.06h.021a.718.718 0 00.717-.719 3.066 3.066 0 013.06-3.061c1.69 0 3.035 1.35 3.062 3.072a.718.718 0 00.718.707h3.42a3.064 3.064 0 013.062 3.061 3.064 3.064 0 01-3.061 3.06h-5.158a.718.718 0 100 1.437h5.158A4.502 4.502 0 0020 9.397 4.502 4.502 0 0015.503 4.9z"/></g><defs><clipPath id="clip0"><path fill="#fff" d="M0 0h20v20H0z"/></clipPath></defs></svg>