<svg width="20" height="21" fill="none" xmlns="http://www.w3.org/2000/svg"><g clip-path="url(#clip0)"><path d="M16.04.003H7.638c-1.221 0-2.214.993-2.214 2.213v.272H3.96c-1.22 0-2.214.993-2.214 2.214V17.79c0 1.22.993 2.213 2.214 2.213h8.402c1.221 0 2.214-.993 2.214-2.213v-.272h1.464c1.22 0 2.213-.993 2.213-2.214V2.216c0-1.22-.992-2.213-2.213-2.213zM13.148 17.79a.787.787 0 01-.785.785H3.96a.787.787 0 01-.786-.785V4.702c0-.434.353-.786.786-.786h8.402c.434 0 .786.352.786.786V17.79zm3.678-2.486a.787.787 0 01-.786.786h-1.464V4.702c0-1.22-.993-2.214-2.213-2.214H6.852v-.272c0-.433.352-.785.786-.785h8.402c.433 0 .786.352.786.785v13.088z" fill="#fff"/></g><defs><clipPath id="clip0"><path fill="#fff" transform="translate(0 .003)" d="M0 0h20v20H0z"/></clipPath></defs></svg>