<svg width="18" height="18" fill="none" xmlns="http://www.w3.org/2000/svg"><g clip-path="url(#clip0)"><path d="M9.177 18.001h-.18a62.577 62.577 0 01-3.981-.11c-1.163-.07-2.224-.472-3.069-1.161-.815-.665-1.372-1.565-1.655-2.672-.246-.965-.26-1.912-.272-2.828C.011 10.573.002 9.794 0 9.003c.002-.796.011-1.574.02-2.231.013-.916.026-1.863.272-2.828.283-1.108.84-2.007 1.655-2.672C2.792.583 3.853.182 5.016.111A62.712 62.712 0 019 0a62.968 62.968 0 013.983.11c1.162.07 2.223.472 3.068 1.161.816.665 1.373 1.564 1.655 2.672.246.965.26 1.912.272 2.828.01.657.018 1.435.02 2.227v.004c-.002.791-.01 1.57-.02 2.227-.012.916-.025 1.863-.272 2.828-.282 1.107-.84 2.007-1.655 2.672-.845.689-1.906 1.09-3.068 1.161-1.214.074-2.462.11-3.807.11zm-.18-1.407a61.424 61.424 0 003.901-.107c.88-.053 1.641-.338 2.266-.847.577-.47.974-1.12 1.18-1.93.206-.803.217-1.665.229-2.499.009-.653.018-1.426.02-2.21-.002-.784-.011-1.557-.02-2.21-.012-.834-.023-1.696-.228-2.5-.207-.81-.604-1.458-1.181-1.929-.625-.509-1.387-.794-2.266-.848a61.449 61.449 0 00-3.897-.107 61.276 61.276 0 00-3.9.107c-.879.054-1.641.34-2.265.848-.577.47-.975 1.12-1.181 1.93-.205.803-.217 1.665-.229 2.499-.008.653-.018 1.427-.02 2.212.002.781.012 1.555.02 2.208.012.834.024 1.696.229 2.499.206.81.604 1.46 1.18 1.93.625.509 1.387.794 2.266.847a61.09 61.09 0 003.897.107zm-.033-3.199A4.4 4.4 0 014.57 9.002a4.4 4.4 0 014.394-4.395 4.4 4.4 0 014.395 4.395 4.4 4.4 0 01-4.395 4.395zm0-7.382A2.992 2.992 0 005.976 9a2.992 2.992 0 002.988 2.988 2.992 2.992 0 002.989-2.988 2.992 2.992 0 00-2.989-2.988zM13.851 3.2a1.055 1.055 0 100 2.11 1.055 1.055 0 000-2.11z" fill="#C62828"/></g><defs><clipPath id="clip0"><path fill="#fff" d="M0 0h18v18H0z"/></clipPath></defs></svg>