<?xml version="1.0" encoding="utf-8"?><svg viewBox="0 0 502.66 502.66" xmlns="http://www.w3.org/2000/svg" xmlns:xlink="http://www.w3.org/1999/xlink"><style>:root>svg{display:none}:root>svg:target{display:block}</style><svg fill="none" viewBox="0 0 34 34" id="dot" xmlns="http://www.w3.org/2000/svg"><circle cx="17" cy="17" r="16.5"/><circle cx="17" cy="17" r="6"/></svg><svg viewBox="0 0 502.664 502.664" id="icon" xmlns="http://www.w3.org/2000/svg"><g fill="#010002"><path d="M153.821 358.226L0 274.337v-46.463l153.821-83.414v54.574L46.636 250.523l107.185 53.431v54.272zM180.094 387.584L282.103 115.08h32.227L212.084 387.584h-31.99zM348.843 358.226v-54.272l107.164-52.999-107.164-52.59v-53.927l153.821 83.522v46.183l-153.821 84.083z"/></g></svg><svg viewBox="0 0 24 24" id="right-arrow" xmlns="http://www.w3.org/2000/svg"><g clip-path="url(#cclip0)"><path d="M23.725 11.336l-4.9-4.876a.938.938 0 00-1.322 1.33l3.289 3.272H.937a.937.937 0 100 1.876h19.855l-3.29 3.272a.937.937 0 101.324 1.33l4.898-4.875.001-.001a.938.938 0 000-1.328z"/></g><defs><clipPath id="cclip0"><path fill="#fff" d="M0 0h24v24H0z"/></clipPath></defs></svg></svg>