<svg width="18" height="18" fill="none" xmlns="http://www.w3.org/2000/svg"><g clip-path="url(#clip0)"><path d="M14.624 13.978l-.375-.627c-.676-1.113-1.607-2.39-2.83-2.39-.226 0-.45.045-.672.137l-.656.281c-.06.025-.118.053-.18.083-.168.082-.358.175-.554.175-.483 0-1.042-.629-1.575-1.77-.524-1.12-.49-1.708-.37-2.003.132-.326.44-.466.772-.591l.128-.05.664-.28c1.73-.723 1.086-3.252.875-4.082l-.179-.712C9.52 1.56 9.114 0 7.768 0c-.25 0-.515.059-.79.173-.18.072-2.662 1.085-3.56 2.864-1.075 2.118-.876 4.958.59 8.44 1.454 3.486 3.34 5.618 5.606 6.337.388.124.828.186 1.305.186 1.564 0 3.107-.665 3.233-.72.539-.228.887-.576 1.035-1.032.251-.773-.17-1.62-.563-2.27zm-.595 1.895c-.034.106-.154.202-.355.287a.252.252 0 00-.011.005c-.014.006-1.411.618-2.744.618a3.11 3.11 0 01-.937-.13c-1.908-.605-3.54-2.504-4.852-5.647-1.32-3.138-1.532-5.634-.626-7.42.703-1.39 2.904-2.274 2.926-2.282l.013-.005a.888.888 0 01.325-.08c.268 0 .512.415.724 1.231l.179.71c.384 1.51.326 2.454-.167 2.66l-.66.279-.092.035c-.365.138-1.125.426-1.468 1.271-.312.767-.183 1.74.394 2.977.777 1.664 1.653 2.472 2.68 2.472.475 0 .857-.185 1.086-.296.042-.02.08-.04.12-.056l.657-.282a.51.51 0 01.199-.042c.316 0 .883.313 1.786 1.802l.375.626c.462.764.499 1.11.448 1.267z" fill="#fff"/></g><defs><clipPath id="clip0"><path fill="#fff" d="M0 0h18v18H0z"/></clipPath></defs></svg>