<svg width="18" height="18" fill="none" xmlns="http://www.w3.org/2000/svg"><path d="M14.624 13.977l-.375-.627c-.676-1.113-1.607-2.39-2.83-2.39-.226 0-.45.045-.672.138l-.656.28c-.06.026-.118.054-.18.084-.168.082-.358.174-.554.174-.483 0-1.042-.628-1.575-1.77-.524-1.12-.49-1.707-.37-2.003.132-.326.44-.465.772-.59l.128-.05.664-.28c1.73-.724 1.086-3.253.875-4.082l-.179-.713C9.52 1.561 9.114 0 7.768 0c-.25 0-.515.058-.79.173-.18.071-2.662 1.084-3.56 2.863-1.075 2.118-.876 4.959.59 8.44 1.454 3.486 3.34 5.619 5.606 6.338.388.123.828.186 1.305.186 1.564 0 3.107-.665 3.233-.72.539-.229.887-.576 1.035-1.032.251-.774-.17-1.621-.563-2.27zm-.595 1.895c-.034.106-.154.203-.355.288a.252.252 0 00-.011.004c-.014.006-1.411.618-2.744.618a3.11 3.11 0 01-.937-.129c-1.908-.606-3.54-2.505-4.852-5.647-1.32-3.139-1.532-5.634-.626-7.42.703-1.391 2.904-2.274 2.926-2.283l.013-.005a.888.888 0 01.325-.08c.268 0 .512.416.724 1.232l.179.71c.384 1.51.326 2.454-.167 2.66l-.66.278-.092.036c-.365.138-1.125.425-1.468 1.27-.312.768-.183 1.741.394 2.978.777 1.663 1.653 2.472 2.68 2.472.475 0 .857-.186 1.086-.297.042-.02.08-.039.12-.056l.657-.281a.51.51 0 01.199-.042c.316 0 .883.313 1.786 1.801l.375.627c.462.763.499 1.11.448 1.266z" fill="#C62828"/></svg>