<svg width="18" height="18" fill="none" xmlns="http://www.w3.org/2000/svg"><g clip-path="url(#clip0)"><g clip-path="url(#clip1)"><path d="M9 15.54h-.005c-.544-.004-5.345-.048-6.706-.416a2.782 2.782 0 01-1.957-1.956c-.356-1.337-.333-3.91-.33-4.115-.003-.204-.026-2.799.329-4.146v-.004a2.84 2.84 0 011.956-1.969l.007-.002c1.345-.353 6.156-.397 6.7-.4h.01c.545.003 5.36.047 6.707.416A2.781 2.781 0 0117.666 4.9c.37 1.348.335 3.948.332 4.167.002.217.024 2.766-.33 4.11l-.001.003a2.783 2.783 0 01-1.959 1.957h-.004c-1.344.354-6.156.398-6.7.401H9zM1.69 5.267c-.312 1.189-.283 3.75-.283 3.776v.018c-.009.71.024 2.768.283 3.742.126.466.496.836.966.962 1.003.272 4.914.357 6.343.367 1.433-.01 5.35-.093 6.346-.354.468-.126.837-.495.963-.962.26-.988.293-3.035.283-3.74v-.023c.013-.719-.012-2.8-.281-3.782V5.27a1.372 1.372 0 00-.967-.964c-.994-.272-4.91-.357-6.344-.367-1.432.01-5.344.093-6.344.353a1.41 1.41 0 00-.965.977zm15.298 7.73zm-9.781-1.115V6.188l4.922 2.848-4.922 2.847z" fill="#C62828"/></g></g><defs><clipPath id="clip0"><path fill="#fff" d="M0 0h18v18H0z"/></clipPath><clipPath id="clip1"><path fill="#fff" d="M0 0h18v18H0z"/></clipPath></defs></svg>