<svg width="44" height="44" viewBox="0 0 44 44" fill="none" xmlns="http://www.w3.org/2000/svg">
<rect width="44" height="44" rx="22" fill="#181817"/>
<rect x="0.5" y="0.5" width="43" height="43" rx="21.5" stroke="#FFEFEF" stroke-opacity="0.5"/>
<g clip-path="url(#clip0)">
<path d="M32.9784 17.4681C32.9269 16.2991 32.7379 15.4955 32.4671 14.7991C32.1877 14.0599 31.7579 13.3982 31.1949 12.848C30.6447 12.2893 29.9786 11.8552 29.248 11.5802C28.5476 11.3094 27.7481 11.1204 26.5792 11.0688C25.4015 11.0129 25.0276 11 22.0407 11C19.0538 11 18.68 11.0129 17.5066 11.0645C16.3377 11.116 15.5341 11.3052 14.8379 11.5758C14.0985 11.8552 13.4367 12.2849 12.8866 12.848C12.3279 13.3982 11.8939 14.0643 11.6188 14.7949C11.348 15.4955 11.1589 16.2948 11.1074 17.4637C11.0515 18.6414 11.0386 19.0152 11.0386 22.0021C11.0386 24.9891 11.0515 25.3629 11.103 26.5362C11.1546 27.7052 11.3438 28.5088 11.6146 29.2052C11.8939 29.9444 12.3279 30.6061 12.8866 31.1563C13.4367 31.715 14.1029 32.1491 14.8335 32.4241C15.5341 32.6949 16.3333 32.8839 17.5024 32.9355C18.6756 32.9872 19.0496 32.9999 22.0365 32.9999C25.0235 32.9999 25.3973 32.9872 26.5706 32.9355C27.7396 32.8839 28.5432 32.6949 29.2394 32.4241C30.7179 31.8525 31.8869 30.6835 32.4585 29.2052C32.7291 28.5046 32.9183 27.7052 32.9699 26.5362C33.0214 25.3629 33.0343 24.9891 33.0343 22.0021C33.0343 19.0152 33.03 18.6414 32.9784 17.4681ZM30.9973 26.4503C30.9499 27.5247 30.7695 28.1049 30.619 28.4917C30.2494 29.4501 29.4887 30.2108 28.5303 30.5805C28.1435 30.7309 27.5591 30.9113 26.4889 30.9585C25.3285 31.0102 24.9805 31.023 22.0451 31.023C19.1097 31.023 18.7573 31.0102 17.6012 30.9585C16.5267 30.9113 15.9465 30.7309 15.5597 30.5805C15.0828 30.4042 14.6487 30.1248 14.2963 29.7595C13.931 29.4028 13.6516 28.973 13.4753 28.4961C13.3249 28.1093 13.1445 27.5247 13.0973 26.4546C13.0456 25.2943 13.0328 24.9461 13.0328 22.0107C13.0328 19.0753 13.0456 18.723 13.0973 17.5669C13.1445 16.4925 13.3249 15.9123 13.4753 15.5255C13.6516 15.0484 13.931 14.6144 14.3006 14.2619C14.6572 13.8966 15.087 13.6172 15.5641 13.4411C15.9509 13.2907 16.5355 13.1102 17.6055 13.0629C18.7659 13.0114 19.1141 12.9984 22.0493 12.9984C24.989 12.9984 25.337 13.0114 26.4932 13.0629C27.5677 13.1102 28.1479 13.2907 28.5347 13.4411C29.0116 13.6172 29.4457 13.8966 29.7981 14.2619C30.1634 14.6186 30.4428 15.0484 30.619 15.5255C30.7695 15.9123 30.9499 16.4967 30.9973 17.5669C31.0488 18.7273 31.0617 19.0753 31.0617 22.0107C31.0617 24.9461 31.0488 25.2899 30.9973 26.4503Z" fill="white"/>
<path d="M22.1515 16.5C19.0315 16.5 16.5 19.0313 16.5 22.1515C16.5 25.2717 19.0315 27.803 22.1515 27.803C25.2717 27.803 27.803 25.2717 27.803 22.1515C27.803 19.0313 25.2717 16.5 22.1515 16.5ZM22.1515 25.8175C20.1274 25.8175 18.4855 24.1758 18.4855 22.1515C18.4855 20.1272 20.1274 18.4855 22.1515 18.4855C24.1758 18.4855 25.8175 20.1272 25.8175 22.1515C25.8175 24.1758 24.1758 25.8175 22.1515 25.8175Z" fill="white"/>
<path d="M29.2351 16.1275C29.2351 16.8561 28.6443 17.4468 27.9156 17.4468C27.187 17.4468 26.5962 16.8561 26.5962 16.1275C26.5962 15.3987 27.187 14.8081 27.9156 14.8081C28.6443 14.8081 29.2351 15.3987 29.2351 16.1275Z" fill="white"/>
</g>
<defs>
<clipPath id="clip0">
<rect width="22" height="22" fill="white" transform="translate(11 11)"/>
</clipPath>
</defs>
</svg>
