<svg width="44" height="44" viewBox="0 0 44 44" fill="none" xmlns="http://www.w3.org/2000/svg">
<rect width="44" height="44" rx="22" fill="#181817"/>
<rect x="0.5" y="0.5" width="43" height="43" rx="21.5" stroke="#FFEFEF" stroke-opacity="0.5"/>
<g clip-path="url(#clip0)">
<path d="M19.6324 24.916L19.2685 30.0346C19.7892 30.0346 20.0147 29.811 20.2851 29.5424L22.7262 27.2095L27.7843 30.9137C28.712 31.4307 29.3656 31.1585 29.6158 30.0603L32.936 14.5026L32.9369 14.5017C33.2312 13.1304 32.441 12.5941 31.5372 12.9305L12.0213 20.4023C10.6894 20.9193 10.7096 21.6618 11.7949 21.9982L16.7843 23.5501L28.3737 16.2984C28.9192 15.9372 29.4151 16.137 29.0072 16.4982L19.6324 24.916Z" fill="white"/>
</g>
<defs>
<clipPath id="clip0">
<rect width="22" height="22" fill="white" transform="translate(11 11)"/>
</clipPath>
</defs>
</svg>
