<svg width="44" height="44" viewBox="0 0 44 44" fill="none" xmlns="http://www.w3.org/2000/svg">
<rect width="44" height="44" rx="22" fill="#181817"/>
<rect x="0.5" y="0.5" width="43" height="43" rx="21.5" stroke="#FFEFEF" stroke-opacity="0.5"/>
<path d="M29.2561 23.359C28.9004 22.9098 29.0021 22.71 29.2561 22.3085C29.2606 22.3039 32.1968 18.2467 32.4993 16.8708L32.5012 16.8699C32.6515 16.3685 32.5012 16 31.7742 16H29.3688C28.7564 16 28.4741 16.3162 28.3228 16.6701C28.3228 16.6701 27.0981 19.6016 25.3656 21.5018C24.8064 22.0509 24.5479 22.2269 24.2426 22.2269C24.0923 22.2269 23.8585 22.0509 23.8585 21.5495V16.8699C23.8585 16.2686 23.6871 16 23.1802 16H19.3979C19.0138 16 18.7855 16.2805 18.7855 16.5418C18.7855 17.1119 19.6518 17.243 19.7416 18.8472V22.3277C19.7416 23.0904 19.6032 23.2307 19.2961 23.2307C18.4784 23.2307 16.4938 20.2872 15.3176 16.9185C15.0802 16.2649 14.8483 16.0009 14.2314 16.0009H11.825C11.1384 16.0009 11 16.3172 11 16.671C11 17.2962 11.8177 20.4046 14.8025 24.5112C16.7917 27.3144 19.5931 28.8333 22.1416 28.8333C23.6734 28.8333 23.8604 28.496 23.8604 27.9157C23.8604 25.2373 23.7219 24.9842 24.4892 24.9842C24.8449 24.9842 25.4573 25.1602 26.8873 26.5123C28.5218 28.1156 28.7904 28.8333 29.7052 28.8333H32.1106C32.7963 28.8333 33.1438 28.496 32.9439 27.8305C32.4865 26.4307 29.3954 23.5515 29.2561 23.359Z" fill="white"/>
</svg>
