<svg width="31" height="30" viewBox="0 0 31 30" fill="none" xmlns="http://www.w3.org/2000/svg"><path d="M1.963 26V15c0-7.732 6.268-14 14-14m14 25v-8m0-3c0-5.78-3.502-10.741-8.5-12.878" stroke="#28D" stroke-width="2" stroke-linecap="round"/><path d="M6.963 28.035V23.5m18 4.535v-13.27c0-4.84-4.03-8.765-9-8.765a9.23 9.23 0 00-2.5.343M9.67 8.5C8 10.091 6.964 12.31 6.964 14.765V20.5" stroke="#28D" stroke-width="2" stroke-linecap="round"/><path d="M11.963 26.044V14.957c0-2.186 1.791-3.957 4-3.957 2.21 0 4 1.771 4 3.957V18.5m0 7.544V22.5" stroke="#28D" stroke-width="2" stroke-linecap="round"/></svg>