<svg width="28" height="33" viewBox="0 0 28 33" fill="none" xmlns="http://www.w3.org/2000/svg"><mask id="a" fill="#fff"><path fill-rule="evenodd" clip-rule="evenodd" d="M23.356 26.276l-5.985 4.132c-1.65 1.14-2.474 1.709-3.41 1.709-.934 0-1.76-.57-3.409-1.709l-6.015-4.154a8.456 8.456 0 01-.395-.273l-.414-.286.03-.012a8.45 8.45 0 0110.205-13.456 8.45 8.45 0 0110.204 13.457l.03.011-.38.263c-.15.11-.304.217-.461.318z"/></mask><path d="M17.372 30.408l1.136 1.646-1.136-1.646zm5.984-4.132l-1.082-1.683-.028.018-.027.019 1.137 1.646zm-9.394 5.841v2-2zm-3.41-1.709l-1.136 1.646 1.136-1.646zm-6.015-4.154l1.137-1.646-.024-.016-.023-.015-1.09 1.677zm-.395-.273l1.183-1.613-.023-.016-.023-.017-1.137 1.646zm-.414-.286L2.98 23.84l-3.445 1.39 3.056 2.11 1.137-1.645zm.03-.012l.749 1.854 3.117-1.257-2.592-2.14-1.273 1.543zm10.205-13.457l-1.144 1.64 1.144.799 1.145-.798-1.145-1.64zm10.204 13.457l-1.273-1.542-2.593 2.14 3.118 1.257.748-1.855zm.03.012l1.136 1.646 3.057-2.111-3.445-1.39-.748 1.855zm-.38.263l-1.137-1.646-.028.019-.026.02 1.19 1.607zm-5.309 6.096l5.984-4.133-2.273-3.291-5.984 4.133 2.273 3.29zm-4.546 2.063c.917 0 1.69-.293 2.384-.666.65-.35 1.374-.853 2.162-1.397l-2.273-3.292c-.861.596-1.375.947-1.784 1.167-.365.196-.471.188-.49.188v4zm-4.546-2.063c.788.544 1.512 1.047 2.161 1.397.694.373 1.467.666 2.385.666v-4c-.018 0-.124.008-.49-.188-.408-.22-.922-.571-1.783-1.166l-2.273 3.29zM3.4 27.9l6.015 4.154 2.273-3.292-6.015-4.154L3.4 27.9zm2.226-3.323a6.48 6.48 0 01-.302-.209L2.96 27.594c.159.117.322.23.488.337l2.179-3.354zM2.59 27.34l.415.286 2.273-3.291-.415-.287L2.59 27.34zm.42-3.513l-.031.012 1.496 3.71.03-.013-1.495-3.71zm2.02.312a6.433 6.433 0 01-2.347-4.978h-4c0 3.247 1.483 6.15 3.802 8.063l2.546-3.085zm-2.347-4.978a6.45 6.45 0 016.45-6.45v-4c-5.771 0-10.45 4.678-10.45 10.45h4zm6.45-6.45c1.373 0 2.641.426 3.685 1.155l2.288-3.281a10.412 10.412 0 00-5.973-1.874v4zm5.973 1.155a6.412 6.412 0 013.685-1.155v-4c-2.218 0-4.28.693-5.973 1.874l2.288 3.28zm3.685-1.155a6.45 6.45 0 016.45 6.45h4c0-5.772-4.678-10.45-10.45-10.45v4zm6.45 6.45c0 2.003-.91 3.792-2.348 4.979l2.546 3.085a10.434 10.434 0 003.803-8.064h-4zm-.297 4.678l-.03-.012-1.496 3.71.03.012 1.495-3.71zm.008 3.763l.38-.262-2.273-3.292-.38.263 2.273 3.291zm-2.327-3.253a6.44 6.44 0 01-.352.243l2.163 3.365c.194-.125.384-.256.57-.393l-2.381-3.215z" fill="#28D" mask="url(#a)"/><path d="M13.963 18.681v3.745" stroke="#28D" stroke-width="2" stroke-linecap="round"/><path d="M18.924 12.646V6.878a4.96 4.96 0 00-4.96-4.96v0a4.96 4.96 0 00-4.961 4.96v5.768" stroke="#28D" stroke-width="2"/></svg>