<svg width="152" height="29" viewBox="0 0 152 29" fill="none" xmlns="http://www.w3.org/2000/svg"><path d="M.88 22V.3h9.145c2.108 0 3.792.558 5.053 1.674C16.359 3.069 17 4.423 17 6.035c0 1.405-.496 2.583-1.488 3.534-.476.434-.961.754-1.457.961a5.721 5.721 0 012.015 1.054c1.343 1.137 2.015 2.542 2.015 4.216 0 1.736-.682 3.203-2.046 4.402C14.695 21.401 12.897 22 10.645 22H.88zm4.65-4.03h4.805c.91 0 1.622-.238 2.139-.713.537-.475.806-1.116.806-1.922 0-.806-.269-1.447-.806-1.922-.517-.475-1.23-.713-2.14-.713H5.53v5.27zm0-9.3h4.185c.764 0 1.364-.196 1.798-.589.454-.413.682-.94.682-1.581 0-.64-.228-1.157-.682-1.55-.434-.413-1.034-.62-1.798-.62H5.53v4.34zm20.35 8.618c.743.765 1.663 1.147 2.758 1.147s2.015-.382 2.76-1.147c.743-.765 1.115-1.726 1.115-2.883s-.372-2.118-1.116-2.883c-.744-.765-1.663-1.147-2.759-1.147-1.095 0-2.015.382-2.759 1.147-.744.765-1.116 1.726-1.116 2.883s.372 2.118 1.116 2.883zm-2.946 2.697c-1.57-1.55-2.356-3.41-2.356-5.58s.785-4.03 2.356-5.58c1.57-1.55 3.472-2.325 5.704-2.325 2.232 0 4.134.775 5.704 2.325 1.57 1.55 2.356 3.41 2.356 5.58s-.785 4.03-2.356 5.58c-1.57 1.55-3.472 2.325-5.704 2.325-2.232 0-4.133-.775-5.704-2.325zM37.321 22l5.425-7.75-5.115-7.44h4.805l2.883 4.65h.124l2.883-4.65h4.805l-5.115 7.44L53.44 22h-4.805l-3.193-4.96h-.124L42.126 22H37.32zm17.972 0V6.81h4.185v2.17h.155c.29-.475.62-.889.992-1.24.951-.827 2.015-1.24 3.193-1.24 1.344 0 2.501.444 3.472 1.333a4.81 4.81 0 011.023 1.302h.155c.331-.475.755-.91 1.271-1.302 1.137-.889 2.367-1.333 3.69-1.333 1.529 0 2.79.558 3.781 1.674.992 1.095 1.488 2.552 1.488 4.371V22h-4.185v-8.835c0-1.757-.826-2.635-2.48-2.635-.868 0-1.58.29-2.139.868-.537.558-.806 1.302-.806 2.232V22h-4.185v-8.835c0-1.757-.826-2.635-2.48-2.635-.868 0-1.58.29-2.139.868-.537.558-.806 1.302-.806 2.232V22h-4.185zm31.8-4.712c.743.765 1.663 1.147 2.758 1.147s2.015-.382 2.76-1.147c.743-.765 1.115-1.726 1.115-2.883s-.372-2.118-1.116-2.883c-.744-.765-1.664-1.147-2.759-1.147s-2.015.382-2.759 1.147c-.744.765-1.116 1.726-1.116 2.883s.372 2.118 1.116 2.883zm-2.946 2.697c-1.57-1.55-2.356-3.41-2.356-5.58s.785-4.03 2.356-5.58c1.57-1.55 3.472-2.325 5.704-2.325 2.232 0 4.133.775 5.704 2.325 1.57 1.55 2.356 3.41 2.356 5.58s-.785 4.03-2.356 5.58c-1.57 1.55-3.472 2.325-5.704 2.325-2.232 0-4.133-.775-5.704-2.325zM101.006 22V6.81h4.185v2.17h.155a7.243 7.243 0 011.147-1.24c.992-.827 2.108-1.24 3.348-1.24 1.592 0 2.914.589 3.968 1.767 1.075 1.157 1.612 2.687 1.612 4.588V22h-4.185v-8.525c0-.93-.248-1.653-.744-2.17-.496-.517-1.178-.775-2.046-.775-.93 0-1.705.32-2.325.961-.62.64-.93 1.457-.93 2.449V22h-4.185zm29.907-5.115l2.17 2.945c-.434.434-.992.847-1.674 1.24a9.795 9.795 0 01-4.836 1.24c-2.232 0-4.134-.775-5.704-2.325-1.571-1.55-2.356-3.41-2.356-5.58s.775-4.03 2.325-5.58c1.55-1.55 3.41-2.325 5.58-2.325 2.087 0 3.875.744 5.363 2.232 1.488 1.488 2.232 3.276 2.232 5.363 0 .207-.031.651-.093 1.333l-.062.527h-11.005a3.768 3.768 0 001.364 1.891c.682.496 1.57.744 2.666.744 1.157 0 2.159-.279 3.007-.837a4.826 4.826 0 001.023-.868zm-8.06-4.03h6.82a4.017 4.017 0 00-1.271-1.86c-.6-.517-1.313-.775-2.139-.775-.827 0-1.54.258-2.139.775a4.01 4.01 0 00-1.271 1.86zm13.339 15.19V24.17c.207.083.372.134.496.155.372.103.775.155 1.209.155 1.22 0 2.098-.62 2.635-1.86l.31-.775-5.89-15.035h4.495l3.565 10.075h.155l3.41-10.075h4.495l-6.2 16.43c-.661 1.757-1.467 3.069-2.418 3.937-.93.889-2.087 1.333-3.472 1.333-.744 0-1.405-.072-1.984-.217a6.406 6.406 0 01-.403-.124 1.902 1.902 0 01-.403-.124z" fill="#28D"/></svg>