<svg width="121" height="25" viewBox="0 0 121 25" fill="none" xmlns="http://www.w3.org/2000/svg"><path fill-rule="evenodd" clip-rule="evenodd" d="M57.98 23.635h1.82c.828 0 1.5-.668 1.5-1.496V11.545h1.878a1.5 1.5 0 001.5-1.5v-1.04a1.5 1.5 0 00-1.5-1.5H61.3v-.287c0-3.133.735-3.093 2.2-2.734a.95.95 0 001.18-.937V1.845c0-.732-.395-1.433-1.1-1.63-2.999-.834-7.1.7-7.1 5.513v1.777h-1.49a1.5 1.5 0 00-1.5 1.5v1.04a1.5 1.5 0 001.5 1.5h1.49v10.593c0 .828.672 1.497 1.5 1.497zm58.181-1.848c-1.364 1.392-3.189 2.242-5.193 2.242-4.226 0-7.652-3.78-7.652-8.445 0-4.664 3.426-8.444 7.652-8.444 2.004 0 3.829.85 5.193 2.241v-7.44A1.78 1.78 0 01117.94.16h.814c.982 0 1.779.798 1.779 1.783v20.304c0 .985-.797 1.783-1.779 1.783h-.814a1.78 1.78 0 01-1.779-1.783v-.459zm-.286-6.203c0 2.408-1.769 4.36-3.951 4.36-2.181 0-3.95-1.952-3.95-4.36 0-2.407 1.769-4.36 3.95-4.36 2.182 0 3.951 1.953 3.951 4.36zM0 21.866a1.78 1.78 0 001.78 1.783h6.885c2.864 0 7.376-1.507 7.376-6.386 0-3.903-3.107-5.955-4.297-5.955 1.58-1.078 2.65-2.439 2.65-5.022S12.746.618 8.664.618H1.78A1.78 1.78 0 000 2.401v19.465zM5.448 4.822a.89.89 0 00-.89.892v3.261a.89.89 0 00.89.892h1.918c1.356 0 2.711-.873 2.711-2.668 0-1.795-1.355-2.377-3.05-2.377H5.449zm-.89 9.573a.89.89 0 01.89-.89h2.16c2.518 0 3.583 1.357 3.583 3.152 0 1.794-1.452 2.813-3.582 2.813h-2.16a.89.89 0 01-.89-.891v-4.184zm30.499 1.243c0 4.634-3.75 8.39-8.375 8.39s-8.375-3.756-8.375-8.39 3.75-8.39 8.375-8.39 8.375 3.756 8.375 8.39zm-4.406 0a3.973 3.973 0 01-3.97 3.977 3.973 3.973 0 01-3.969-3.977 3.973 3.973 0 013.97-3.977c2.192 0 3.97 1.78 3.97 3.977zm9.905-7.672a1.777 1.777 0 00-2.505-.237l-.774.642a1.785 1.785 0 00-.236 2.51l3.87 4.684-3.87 4.685a1.785 1.785 0 00.236 2.51l.774.641a1.777 1.777 0 002.505-.236l3.316-4.014 3.315 4.014a1.777 1.777 0 002.505.236l.774-.641a1.785 1.785 0 00.236-2.51l-3.869-4.684 3.87-4.685a1.785 1.785 0 00-.237-2.51l-.774-.642a1.777 1.777 0 00-2.505.237l-3.315 4.014-3.316-4.014zm42.186 7.672c0 4.634-3.75 8.39-8.375 8.39-4.626 0-8.375-3.756-8.375-8.39s3.75-8.39 8.375-8.39 8.374 3.756 8.374 8.39zm-4.406 0a3.973 3.973 0 01-3.97 3.977 3.973 3.973 0 01-3.969-3.977 3.973 3.973 0 013.97-3.977c2.192 0 3.97 1.78 3.97 3.977zm14.843 8.39c4.625 0 8.374-3.756 8.374-8.39s-3.75-8.39-8.374-8.39c-4.626 0-8.375 3.756-8.375 8.39s3.75 8.39 8.375 8.39zm0-4.413c2.192 0 3.97-1.78 3.97-3.977a3.973 3.973 0 00-3.97-3.977 3.973 3.973 0 00-3.97 3.977 3.973 3.973 0 003.97 3.977z" fill="#8598A7"/></svg>