<svg width="164" height="213" viewBox="0 0 164 213" fill="none" xmlns="http://www.w3.org/2000/svg"><path d="M73.054 14.564h0l.004-.01c.716-1.675 2.122-3.246 3.985-4.628 1.86-1.38 4.146-2.55 6.578-3.432 4.884-1.77 10.24-2.338 13.789-1.21 0 0 0 0 0 0l55.686 17.738c4.186 1.534 7.307 5.224 8.955 9.571 1.649 4.352 1.793 9.288.106 13.235l-66.2 154.885c-3.711 8.685-13.414 13.128-22.415 10.265l-59.05-18.786c-4.114-1.309-8.087-4.489-10.599-8.348-2.512-3.86-3.508-8.308-1.853-12.187l.003-.005 71.01-157.088z" fill="#fff" stroke="#8598A7"/><path d="M69.291 10.035c2.95-6.9 10.659-10.431 17.81-8.156l62.311 19.824c8.191 2.606 12.356 11.701 8.978 19.605L92.191 196.193c-3.712 8.685-13.415 13.129-22.415 10.265l-59.05-18.786c-8.192-2.606-12.357-11.701-8.979-19.605L69.291 10.035z" fill="#fff" stroke="#8598A7"/><path d="M71.162 70.539l43.668 14.678-17.881 41.643-43.241-14.589 17.454-41.732z" fill="#28D"/></svg>