<svg width="188" height="99" viewBox="0 0 188 99" fill="none" xmlns="http://www.w3.org/2000/svg"><rect x="1.24" y=".816" width="185.446" height="96.884" rx="16.5" stroke="#8598A7"/><path d="M93.225 58.28l-.929-.372-.548 1.371h1.477v-1zm8.4-21v-1h-.677l-.252.628.929.371zm3.6 0l.928-.372-.251-.629h-.677v1zm8.4 21v1h1.477l-.549-1.372-.928.371zm-3.45 0l-.932.362.248.637h.684v-1zm-2.1-5.4l.932-.363-.248-.638h-.684v1zm-9.3 0v-1h-.684l-.248.637.932.362zm-2.1 5.4v1h.684l.248-.638-.932-.363zm3.3-8.4l-.93-.37-.543 1.37h1.473v-1zm6.9 0v1h1.472l-.543-1.37-.929.37zm-3.45-8.7l.929-.37-.929-2.343-.93 2.344.93.368zm-9.272 17.47l8.4-21-1.857-.742-8.4 21 1.857.743zm7.472-20.37h3.6v-2h-3.6v2zm2.671-.63l8.4 21 1.857-.742-8.4-21-1.857.743zm9.329 19.63h-3.45v2h3.45v-2zm-2.518.637l-2.1-5.4-1.864.725 2.1 5.4 1.864-.725zm-3.032-6.038h-9.3v2h9.3v-2zm-10.232.638l-2.1 5.4 1.864.725 2.1-5.4-1.864-.725zm-1.168 4.762h-3.45v2h3.45v-2zm3.3-6.4h6.9v-2h-6.9v2zm7.829-1.368l-3.45-8.7-1.859.737 3.45 8.7 1.859-.737zm-5.309-8.7l-3.45 8.7 1.859.737 3.45-8.7-1.859-.737zm15.936 17.468h-1v1h1v-1zm0-14.4v-1h-1v1h1zm3 0h1v-1h-1v1zm0 5.7h-1v1h1v-1zm7.05 0v1h1v-1h-1zm0-5.7v-1h-1v1h1zm3 0h1v-1h-1v1zm0 14.4v1h1v-1h-1zm-3 0h-1v1h1v-1zm0-6h1v-1h-1v1zm-7.05 0v-1h-1v1h1zm0 6v1h1v-1h-1zm-2 0v-14.4h-2v14.4h2zm-1-13.4h3v-2h-3v2zm2-1v5.7h2v-5.7h-2zm1 6.7h7.05v-2h-7.05v2zm8.05-1v-5.7h-2v5.7h2zm-1-4.7h3v-2h-3v2zm2-1v14.4h2v-14.4h-2zm1 13.4h-3v2h3v-2zm-2 1v-6h-2v6h2zm-1-7h-7.05v2h7.05v-2zm-8.05 1v6h2v-6h-2zm1 5h-3v2h3v-2zm15.605 1l-.846-.532-.963 1.532h1.809v-1zm3.3-5.25l.847.533.638-1.016-1.113-.445-.372.928zm-1.44-.93l-.691.723.008.008.009.008.674-.739zm.09-6.84l.669.744.008-.008-.677-.735zm10.5-1.38h1v-1h-1v1zm0 14.4v1h1v-1h-1zm-3 0h-1v1h1v-1zm0-4.8h1v-1h-1v1zm-3.15 0v-1h-.569l-.29.49.859.51zm-2.85 4.8v1h.57l.29-.489-.86-.51zm6-7.5v1h1v-1h-1zm0-4.2h1v-1h-1v1zm-5.34.6l.654.757.01-.008.009-.008-.673-.74zm0 3.03l-.672.74.009.009.01.008.653-.757zm-3.263 8.603l3.3-5.25-1.693-1.065-3.3 5.25 1.693 1.065zm2.825-6.71a3.776 3.776 0 01-1.137-.74l-1.349 1.476a5.766 5.766 0 001.743 1.12l.743-1.857zm-1.12-.725c-.73-.699-1.102-1.572-1.102-2.698h-2c0 1.635.569 3.042 1.719 4.143l1.383-1.445zm-1.102-2.698c0-1.104.386-1.971 1.169-2.676l-1.338-1.487c-1.216 1.095-1.831 2.508-1.831 4.163h2zm1.177-2.684c.773-.71 1.859-1.115 3.373-1.115v-2c-1.885 0-3.499.514-4.727 1.644l1.354 1.471zm3.373-1.115h6.45v-2h-6.45v2zm5.45-1v14.4h2v-14.4h-2zm1 13.4h-3v2h3v-2zm-2 1v-4.8h-2v4.8h2zm-1-5.8h-3.15v2h3.15v-2zm-4.009.489l-2.85 4.8 1.719 1.021 2.85-4.8-1.719-1.021zm-1.991 4.31h-3.45v2h3.45v-2zm2.55-5.5h3.45v-2h-3.45v2zm4.45-1v-4.2h-2v4.2h2zm-1-5.2h-3.45v2h3.45v-2zm-3.45 0c-.973 0-1.878.239-2.562.86l1.345 1.48c.196-.178.551-.34 1.217-.34v-2zm-2.543.844c-.676.584-1.007 1.368-1.007 2.256h2c0-.35.11-.567.314-.743l-1.307-1.513zm-1.007 2.256c0 .889.329 1.672.988 2.27l1.345-1.48c-.222-.2-.333-.438-.333-.79h-2zm1.007 2.287c.684.591 1.581.813 2.543.813v-2c-.677 0-1.04-.157-1.236-.326l-1.307 1.513z" fill="#8598A7"/><path fill="#28D" d="M36.178 29.279h39.956v39.956H36.178z"/></svg>