<svg width="261" height="149" viewBox="0 0 261 149" fill="none" xmlns="http://www.w3.org/2000/svg"><path d="M44.035 89.665c0-9.113 7.387-16.5 16.5-16.5h183.183c9.113 0 16.5 7.387 16.5 16.5v20.321c0 9.112-7.387 16.5-16.5 16.5h-4.315a7.5 7.5 0 00-7.5 7.5v4.383c0 3.809-4.436 5.895-7.37 3.466l-13.684-11.329a17.499 17.499 0 00-11.16-4.02H60.535c-9.113 0-16.5-7.388-16.5-16.5V89.665zM17.463.975h105.861c9.112 0 16.5 7.388 16.5 16.5v20.321c0 9.113-7.388 16.5-16.5 16.5H51.463a17.5 17.5 0 00-13.434 6.284l-4.946 5.924c-1.497 1.794-4.419.735-4.419-1.602v-3.106a7.5 7.5 0 00-7.5-7.5h-3.7c-9.114 0-16.5-7.387-16.5-16.5v-20.32c0-9.113 7.386-16.5 16.5-16.5z" stroke="#8598A7"/><path fill="#28D" d="M62.557 89.873h20.959v20.959H62.557z"/><path d="M95.164 92.47h143.971M95.164 99.806h143.971m-143.971 7.878h92.902" stroke="#8598A7" stroke-linecap="round" stroke-linejoin="round"/></svg>