<svg width="245" height="200" viewBox="0 0 245 200" fill="none" xmlns="http://www.w3.org/2000/svg"><path d="M111.421 22.124c-9.507-2.893-13.09-11.987-15.432-15.983C93.647 2.145 87.998.492 80.97 2.008 75.35 3.22 25.068 11.904.63 16.094c4.48 5.916 13.874 20.121 15.614 29.61 2.174 11.86 6.325 18.383 13.244 21.15 6.918 2.768 14.232 18.384 25.5 35.977 9.013 14.074 43.157 69.646 59.103 95.672l129.672-84.405c-1.252-4.283-5.812-16.09-14.035-29.058-10.279-16.209-37.563-53.96-60.16-66.911-22.597-12.952-35.687-7.716-39.269-5.65-2.866 1.654-56.492 30.267-82.947 44.367" stroke="#8598A7" stroke-linecap="round" stroke-linejoin="round"/><path d="M151.496 57.372l-46.997 27.504c1.872 2.82 8.377 10.71 14.995 19.886 6.618 9.174 13.058 20.41 16.004 24.86l47.565-30.27c-1.065-2.13-5.038-8.911-12.408-18.988-7.37-10.077-15.844-19.527-19.159-22.992z" fill="#28D"/></svg>