<svg width="170" height="213" viewBox="0 0 170 213" fill="none" xmlns="http://www.w3.org/2000/svg"><path d="M142.497 174.414c3.961-3.3 13.092-11.621 17.929-18.504 4.837-6.884 7.596-12.015 8.371-13.721-17.131-25.968-54.463-82.462-66.742-100.694C89.777 23.263 75.855 6.613 70.429.566c.077 6.667-.233 22.884-2.093 34.418-1.86 11.534-3.876 18.759-4.651 20.93m78.812 118.5l-8.169 4.174m8.169-4.174l-12.535-18.504M63.685 55.913L1.129 77.308l34.39 67.098m28.166-88.493l45.347 68.138m-73.513 20.355l34.39 67.097 64.419-32.915m-98.81-34.182c3.415-1.96 8.779-4.275 15.414-6.03m83.396 40.212c-1.145-8.102-9.994-27.003-36.226-37.794a67.416 67.416 0 00-13.038-3.872m-34.132 1.454l-11.2-36.65 31.394-5.814 13.938 41.01m-34.132 1.454c9.45-2.5 21.48-3.865 34.132-1.454" stroke="#8598A7" stroke-linecap="round" stroke-linejoin="round"/><path d="M47.983 106.035l19.946-3.494 5.662 20.76-20.235 3.397-5.373-20.663z" fill="#28D"/></svg>