<svg width="34" height="27" viewBox="0 0 34 27" fill="none" xmlns="http://www.w3.org/2000/svg"><path d="M27.461 22.085l-.048-.998-.952.045v.953h1zm0 .006v1h1v-1h-1zm-.21 0v-1h-.007l.006 1zm-2.327 0h-1v1h1v-1zm0 0h1v-1h-1v1zm-15.922 0v-1h-1v1h1zm0 0v1h1v-1h-1zm0-6.85h-1v1h1v-1zm15.922 0v1h1v-1h-1zm3-6.392a4 4 0 00-4 4h2a2 2 0 012-2v-2zm1.294 0h-1.294v2h1.294v-2zm4 4a4 4 0 00-4-4v2a2 2 0 012 2h2zm0 4.242V12.85h-2v4.242h2zm-5.71 5.993a6 6 0 005.71-5.993h-2a4 4 0 01-3.805 3.996l.096 1.997zm-1.047-.998v.005h2v-.006h-2zm1-.995h-.21v2h.21v-2zm-.242 2h.037l-.012-2h-.026v2zm-2.295 0h2.294v-2h-2.294v2zm-1-1h2-2zm1-1H9.002v2h15.922v-2zm-14.921 1h-2 2zm-3.295 1h2.294v-2H6.708v2zm-6-6a6 6 0 006 6v-2a4 4 0 01-4-4h-2zm0-4.242v4.242h2V12.85h-2zm4-4a4 4 0 00-4 4h2a2 2 0 012-2v-2zm1.294 0H4.708v2h1.294v-2zm4 4a4 4 0 00-4-4v2a2 2 0 012 2h2zm0 2.392v-2.392h-2v2.392h2zm-1 1h15.922v-2H9.002v2zm14.922-3.392v2.392h2v-2.392h-2z" fill="#28D"/><path d="M27.493 10.674V8.249a7 7 0 00-7-7h-7.06a7 7 0 00-7 7v2.425" stroke="#28D" stroke-width="2"/><path fill-rule="evenodd" clip-rule="evenodd" d="M26.002 22.036a2.358 2.358 0 100 4.715h.393a2.358 2.358 0 000-4.715h-.393zm-18.47 0a2.358 2.358 0 000 4.715h.393a2.358 2.358 0 100-4.715H7.53z" fill="#28D"/></svg>