<svg width="24" height="29" viewBox="0 0 24 29" fill="none" xmlns="http://www.w3.org/2000/svg"><path d="M12.362 26.968l.584.811-.584-.811a1 1 0 01-1.205-.028l-.62.785.62-.785-.228-.18a3 3 0 00-3.723 0l-.233.183a1 1 0 01-1.201.03l-.924-.66-.56.785.56-.785a2.358 2.358 0 00-2.742 0l.572.8-.572-.8a.358.358 0 01-.565-.291V3.148a2 2 0 012-2h16.845a2 2 0 012 2v22.888a.345.345 0 01-.546.28 2.345 2.345 0 00-2.74 0l-.962.693a1 1 0 01-1.169 0l-.58-.418a3 3 0 00-3.504 0l-.523.377z" stroke="#28D" stroke-width="2"/><path fill-rule="evenodd" clip-rule="evenodd" d="M4.943 8.778a2 2 0 012-2h2.402a2 2 0 012 2v2.403a2 2 0 01-2 2H6.943a2 2 0 01-2-2V8.778zm4.402 0H6.943v2.403h2.402V8.778zM4.943 16.37a2 2 0 012-2h2.402a2 2 0 012 2v2.403a2 2 0 01-2 2H6.943a2 2 0 01-2-2V16.37zm4.402 0H6.943v2.403h2.402V16.37zm3.235-7.592a2 2 0 012-2h2.403a2 2 0 012 2v2.403a2 2 0 01-2 2H14.58a2 2 0 01-2-2V8.778zm4.403 0H14.58v2.403h2.403V8.778z" fill="#28D"/><path d="M12.616 15.405a1 1 0 112 0 1 1 0 01-2 0zm0 4.368a1 1 0 112 0 1 1 0 01-2 0zm2.165-2.201a1 1 0 112.001 0 1 1 0 01-2.001 0zm2.201-2.167a1 1 0 112.001 0 1 1 0 01-2 0zm0 4.368a1 1 0 112.001 0 1 1 0 01-2 0z" fill="#28D"/></svg>