<svg width="36" height="27" viewBox="0 0 36 27" fill="none" xmlns="http://www.w3.org/2000/svg"><path d="M13.613 8.8c-2.444-1.44-4.597-1.99-5.816-2.2a.787.787 0 00-.928.929c.19 1.103.66 2.973 1.816 5.13m13.349-4.108c2.262-1.256 4.233-1.754 5.379-1.951a.787.787 0 01.928.93c-.192 1.12-.674 3.028-1.868 5.227" stroke="#28D" stroke-width="2"/><path d="M22.5 13.763c4.192-1.681 7.83-1.225 9.41-.883a.81.81 0 01.611 1.056c-.581 1.81-2.448 6.168-7.554 9.116-2.632 1.52-5.159 2.106-7.243 2.263" stroke="#28D" stroke-width="2" stroke-linecap="round"/><path d="M13.047 13.645c-4.032-1.507-7.5-1.067-9.032-.736a.81.81 0 00-.61 1.056c.582 1.81 2.449 6.168 7.554 9.116 2.457 1.418 4.822 2.024 6.82 2.226" stroke="#28D" stroke-width="2" stroke-linecap="round"/><path d="M22.532 12.963c0 5.895-2.84 9.69-4.118 11.1a.81.81 0 01-1.22 0c-1.276-1.41-4.116-5.205-4.116-11.1 0-5.896 2.84-9.692 4.117-11.1a.81.81 0 011.22 0c1.277 1.408 4.117 5.204 4.117 11.1z" stroke="#28D" stroke-width="2"/></svg>