<svg width="131" height="40" viewBox="0 0 131 40" fill="none" xmlns="http://www.w3.org/2000/svg">
<path fill-rule="evenodd" clip-rule="evenodd" d="M21.2141 2.74508C21.2141 3.48408 21.5466 4.42286 21.3098 4.81834C20.9037 5.49701 21.0546 6.07071 21.3326 6.75834C21.6787 7.61477 21.877 7.5876 22.3048 8.23043C22.3613 8.31517 22.4867 8.47711 22.5722 8.7055C22.6387 8.88326 22.6628 9.11442 22.7326 9.29905C22.8566 9.62808 22.9963 9.74799 22.9909 10.0525C22.9909 10.2296 22.6304 10.55 22.6304 10.7646C22.6304 11.1567 22.9909 11.2632 22.9909 11.6097C22.9909 12.07 22.3395 12.318 22.3395 12.7476C22.3187 13.1152 22.5763 13.2765 22.5763 13.5262C22.5763 13.6943 22.4952 13.8894 22.3555 14.0292C22.0217 14.3634 22.1269 14.4282 22.068 14.8016C21.9665 15.4431 21.6248 15.7129 21.3516 16.241C21.1908 16.5515 21.0767 16.814 20.8444 17.0458C20.8114 17.0793 20.685 17.2067 20.5538 17.3421C20.3055 17.5981 20.2309 17.6239 20.1975 17.952C20.1433 18.4759 19.8681 18.1807 19.3411 18.5204C19.0482 18.7092 18.6036 19.3366 18.3713 19.3366C18.0324 19.3366 18.169 18.6844 18.2504 18.4956C18.3516 18.2606 18.7266 17.9785 18.7266 17.779C18.7266 17.3966 18.6084 17.3232 18.6084 16.9408V16.701C18.6084 15.8115 19.8552 15.8814 20.0181 14.7725C20.0685 14.4286 20.0388 14.2722 20.0814 14.1248C20.1298 13.9573 20.2579 13.8075 20.4606 13.5429C20.9256 12.9658 20.7055 12.8948 20.9184 12.2344C21.3415 11.1044 21.6079 11.185 20.7283 9.94472C20.4156 9.50407 20.6701 9.03139 20.5539 8.44403C20.4943 8.14121 19.9111 7.84115 19.9111 7.35704C19.9111 5.49634 20.0283 5.58145 19.1058 4.33805C18.8707 4.02111 18.5073 3.39754 18.2988 3.17774C18.1289 2.99893 17.9916 2.8897 17.8604 2.66273C17.7579 2.48496 17.6945 1.96614 17.5423 1.96614C17.2915 1.96614 17.187 2.71305 17.187 2.98452V3.16438C17.187 4.25749 18.1346 5.01717 18.1346 5.44027V5.50022C18.1346 6.07452 17.528 6.05488 17.9561 6.99852C18.0839 7.27969 18.2733 7.67241 18.3693 8.07819C18.4525 8.42895 18.4995 8.6925 18.2573 8.9695C18.1435 9.09941 18.0161 9.24858 18.0161 9.45353C18.0161 9.99683 18.5955 10.0144 18.6084 11.1144C18.6204 12.1418 17.797 11.9196 17.7201 12.7478V12.8077C17.7201 13.4158 18.1128 13.9433 17.6768 14.3815C17.1001 14.961 17.1277 14.8242 17.1277 15.7426V15.9225C17.1277 16.3317 16.5858 17.0121 16.4825 17.9055C16.3295 19 15.9923 19.1633 15.8117 19.9223C15.6039 20.7953 15.8162 21.3361 15.4104 22.1523C15.1321 22.7128 14.7588 23.3133 14.7588 24.1467C14.7588 24.4712 15.0109 24.7814 15.0909 25.11C15.1475 25.3415 15.2211 26.105 15.4101 26.105C15.7528 26.105 15.9109 25.5117 16.0131 24.9691C16.057 24.7355 16.2178 24.4426 16.2791 24.2962C16.4116 23.9779 16.6167 23.8173 16.8269 23.5845C17.0977 23.2848 17.1406 23.0656 17.3314 22.717C17.4622 22.4772 17.6352 22.3118 17.8673 22.1637C18.1851 21.9607 18.5775 21.7898 18.7972 21.5039C18.8626 21.4184 18.9314 21.2565 19.0673 21.1552C19.2199 21.0415 19.3752 21.0436 19.582 20.9489C19.9264 20.7901 20.2596 20.5944 20.5117 20.5944C21.0281 20.5841 21.1947 21.0736 21.688 21.0736C21.907 21.0736 22.3676 20.6829 22.6949 20.6829C23.9382 20.6829 24.7102 20.6829 25.5233 21.5073C25.7529 21.7395 25.7417 21.8063 25.9151 22.0695C26.0404 22.2594 26.1839 22.2501 26.3511 22.4523C26.4414 22.5615 26.6083 22.8188 26.6523 23.0066C26.6918 23.1741 26.669 23.3429 26.7065 23.4958C26.7613 23.7195 26.8588 23.8669 27.0185 23.8886C27.1629 23.9086 27.307 23.8297 27.4699 23.7866C27.6845 23.7298 28.1058 23.7576 28.2942 23.8572C28.4076 23.9172 28.5081 24.0398 28.6205 24.3047C28.7824 24.6861 28.6427 24.7122 28.9254 25.1347C29.0474 25.3173 29.2511 25.7455 29.5059 25.7455C29.8711 25.7352 29.6521 25.1691 29.7924 24.8397C29.9494 24.4714 30.1572 24.4078 30.1572 23.8286V23.6491C30.1572 23.2667 29.8874 22.9283 29.9413 22.5367C30.0023 22.0895 30.2166 21.7067 30.2166 21.3729C30.2166 20.8062 30.0122 20.5526 30.0122 19.8891C30.0122 19.3316 30.098 18.8287 30.098 18.1986V18.1386C30.098 17.8916 29.8613 17.2401 29.6835 17.2401C29.4941 17.2401 29.4195 17.4137 29.3991 17.6445C29.3875 17.7758 29.398 17.8816 29.3429 18.0062C29.3143 18.0711 29.2359 18.1454 29.2185 18.2105C29.1402 18.5058 29.0431 18.6425 28.9708 18.706C28.7927 18.8624 28.698 19.0508 28.6438 19.2169C28.5126 19.6179 28.6506 19.8887 28.4166 20.0116C28.2687 20.0895 28.1219 19.9617 28.0572 19.8401C27.9962 19.7249 27.9144 19.5789 27.8331 19.4429C27.7459 19.2968 27.6753 19.2199 27.6069 19.1004C27.4434 18.8145 27.4611 18.6194 27.6664 18.3542C27.7751 18.2133 27.9495 18.0913 28.0697 17.9276C28.1631 17.8002 28.2163 17.6017 28.269 17.4553C28.5293 16.736 28.5787 17.0027 28.6083 16.5675C28.6171 16.4363 28.5378 16.2275 28.5378 15.8023C28.5378 14.9114 28.9714 14.3902 28.746 13.696C28.5463 13.08 28.363 12.7627 28.2929 12.2342C28.2732 12.086 28.2623 11.9217 28.2623 11.7294V11.6695C28.2623 11.1821 27.3687 10.4954 27.3776 9.19557C27.3782 9.13525 27.3878 9.02915 27.2608 9.02714C27.1991 9.02609 27.1763 9.08224 27.1541 9.18699L27.0775 9.8726L27.0642 10.2918C27.0642 10.9002 27.4331 11.3016 27.4331 11.849C27.4331 11.9496 27.3712 12.1843 27.29 12.3796C27.2186 12.5515 27.1269 12.6786 27.1119 12.8674C27.0714 13.3814 26.8407 13.655 26.8407 13.9457C26.8407 14.1693 27.0186 14.3743 27.0186 14.4846C27.0186 14.8132 26.8404 14.9707 26.697 15.1781C26.48 15.4916 26.5448 15.6063 26.4739 16.0304C26.4075 16.428 26.2017 16.715 26.0304 16.8755C25.8359 17.0574 25.672 17.0939 25.5626 17.2583C25.3535 17.5739 25.6162 17.7069 25.2575 18.0345C25.0534 18.2405 24.9365 18.3666 24.6255 18.4738C24.5158 18.5113 24.2123 18.5675 23.9051 18.656C23.5096 18.7704 23.0984 18.9171 22.9918 18.9171C22.8531 18.9171 22.6668 18.8368 22.6818 18.6977C22.7131 18.4038 23.0041 18.5219 23.1894 18.3387C23.2963 18.2329 23.3573 17.936 23.4438 17.7575C23.6458 17.3389 23.8969 17.1053 24.2706 16.8565C24.769 16.5248 24.7918 16.4673 24.893 15.7823C24.9843 15.237 25.4193 14.9551 25.4193 14.6045C25.4193 14.2045 25.2387 14.0663 25.3651 13.7738C25.4349 13.6115 25.5416 13.5147 25.6362 13.3935C25.9019 13.0531 25.7837 12.62 25.733 12.2197C25.6829 11.8257 25.6158 11.4222 25.5736 11.2737C25.4227 10.7428 25.1836 10.2036 25.1256 9.6307C25.0738 9.11904 24.7298 8.69497 24.6139 7.99144C24.4532 7.33106 24.2232 7.0964 23.8339 6.68435C23.4768 6.30709 23.2848 5.82164 23.003 5.3683C22.6698 4.9101 22.6637 4.25585 22.5281 3.75181C22.4644 3.40837 22.3493 3.0046 22.2553 2.69177C22.1139 2.22357 22.0765 1.88663 22.0738 1.38954C22.0717 1.05364 22.0812 0.710867 22.1037 0.413193C22.1027 -0.0426123 21.8891 -0.190441 21.728 0.327408C21.6432 0.598875 21.6598 0.981289 21.5958 1.27374C21.4845 1.78016 21.2143 2.1457 21.2143 2.74486L21.2141 2.74508Z" fill="white"/>
<path fill-rule="evenodd" clip-rule="evenodd" d="M21.6879 22.3915C21.3946 22.3915 21.1574 22.3953 20.948 22.3757C20.5477 22.3384 20.328 22.2351 19.8388 22.5579C19.662 22.6712 19.4293 22.8752 19.1981 23.0443C18.9811 23.2031 18.7651 23.3268 18.5978 23.4536C18.434 23.578 18.2119 23.7816 18.0334 24.0321C17.8975 24.2222 17.7612 24.5633 17.6461 24.7938C17.373 25.3399 17.1869 25.8363 17.1869 26.3448V26.5243C17.1869 27.0768 17.4172 27.5857 17.4993 28.1194C17.5831 28.6638 17.5402 29.2177 17.8195 29.5415C18.0549 29.8144 18.291 29.6762 18.5877 30.1638C18.6807 30.3171 18.8043 30.4411 18.901 30.5658C18.9982 30.6902 19.0687 30.8156 19.1903 30.9038C19.3177 30.9954 19.4512 31.064 19.6556 31.1016C20.1822 31.1984 20.3233 30.9851 20.6728 31.4217C20.8509 31.6439 20.9064 31.7238 21.1739 31.7355C21.3722 31.7441 21.6386 31.6428 21.921 31.5184C22.234 31.3806 22.3884 31.4781 22.6129 31.3926C22.9651 31.2586 23.3013 31.0667 23.4223 30.9737C23.6812 30.7739 23.9431 30.5492 24.1118 30.2695C24.2198 30.0904 24.2654 29.8884 24.3287 29.6562C24.3825 29.4582 24.4718 29.2225 24.4718 28.9799V28.6806C24.4718 28.1693 24.2391 27.2525 23.8597 27.1799C23.471 27.1054 23.3994 27.2908 22.9485 26.9439C22.882 26.8925 22.819 26.7923 22.7375 26.7055C22.6599 26.6225 22.6299 26.4825 22.4828 26.4643C22.0944 26.4165 21.8842 26.6462 21.6591 26.6317C21.2976 26.6083 21.1767 26.7223 21.1409 26.7496C21.0148 26.8467 20.7955 27.0473 20.6811 27.3164C20.5172 27.7022 20.4791 28.2183 20.71 28.2014C21.0915 28.1738 21.3017 27.7012 21.6236 27.7156C21.8906 27.7277 22.5225 28.1081 22.5225 28.4846L22.517 28.8005C22.517 29.2983 22.003 29.465 21.6641 29.6745C21.5731 29.7307 21.2703 29.9208 21.0035 30.0766C20.5671 30.3308 20.4772 30.4517 20.0787 30.0266C19.8974 29.8337 19.7159 29.5715 19.4996 29.3562C19.3129 29.1702 19.1085 29.0444 18.9719 28.8945C18.8264 28.7351 18.7406 28.5604 18.7266 28.3895V27.7901C18.7266 27.5152 18.7484 27.4363 18.887 27.1876C18.9875 27.007 19.121 26.7752 19.242 26.5464C19.4219 26.2075 19.599 25.7513 19.6532 25.628C19.7503 25.4075 20.0282 25.1853 20.3086 25.0068C20.6162 24.8104 20.9436 24.6547 21.2798 24.6547C21.493 24.6547 21.6729 24.7874 21.8657 24.7874C22.2537 24.7874 22.5214 24.5872 22.9316 24.5868H23.573C24.0537 24.5868 24.1627 25.0891 24.4267 25.3717C24.7272 25.6934 24.7915 25.7434 24.9803 25.7881C25.0934 25.815 25.2824 25.773 25.512 25.9645C25.6313 26.0641 25.7317 26.7573 25.8387 27.0584C26.0131 27.5545 26.298 27.1935 26.298 27.9296C26.298 28.3571 26.3453 28.7337 26.3238 29.0734C26.2499 30.2341 25.9198 30.9693 25.2201 31.8668C24.9589 32.2023 24.2765 32.8031 23.7993 32.9123C23.2396 33.0405 23.3159 32.8069 22.7351 33.0939C22.201 33.3575 22.3001 33.2328 21.7472 33.2328H21.5105C21.1095 33.2328 20.9143 33.4726 20.3257 33.4726H20.2075C19.7813 33.4726 19.5705 33.2056 19.2963 33.0164C18.9689 32.7915 18.5687 32.8652 18.274 32.6726C17.8052 32.3657 17.5042 31.5085 17.0848 31.1199C16.7608 30.8198 16.5434 31.0479 16.2771 30.5594C16.1013 30.2362 16.0257 29.9299 15.7811 29.683C15.5368 29.4359 15.2888 29.2664 15.1454 28.9295C15.065 28.741 14.9922 28.0089 14.6931 28.0089C14.4168 28.0089 14.3442 28.5002 14.3442 28.8006V29.3994C14.3442 29.972 14.6102 30.003 14.893 30.282C15.2087 30.5931 15.2105 30.794 15.3583 31.2487C15.4608 31.564 15.5719 31.7532 15.7064 31.8892C15.982 32.1672 16.3166 32.212 16.5945 32.8735C17.4427 34.6171 17.5423 33.6735 18.0171 34.3102C18.2648 34.6234 18.3294 34.8765 18.7842 34.9913C19.5404 35.1897 19.6221 34.9507 20.1958 34.9507C20.559 35.0105 20.9241 35.0971 21.2914 35.1174C21.6429 35.137 21.9498 35.0905 22.301 35.0705C22.7054 35.0639 22.8492 35.2097 23.1094 35.2097C23.5921 35.2097 24.0455 34.5833 24.4345 34.6044C24.7598 34.622 25.0456 34.5141 25.2892 34.3529C25.467 34.2354 25.6189 34.0287 25.8949 33.8968C26.3598 33.6742 26.5622 33.6208 26.8916 33.1991C27.5197 32.6813 27.5743 32.1097 27.8815 31.6501C28.0484 31.3445 28.3687 31.1754 28.57 30.9019C28.8186 30.5649 28.7713 30.3065 28.679 29.9317C28.6184 29.6844 28.5476 29.4573 28.5152 29.2104C28.4921 29.0346 28.4815 28.9216 28.4805 28.6808C28.4799 28.4193 28.6481 28.4596 28.6175 27.8302C28.597 26.8679 28.3852 27.0402 28.1726 26.5345C27.992 26.1048 27.9985 25.7848 27.7696 25.3456C27.5213 24.8702 27.3946 24.8089 26.9286 24.5976C26.2742 24.3396 26.5044 24.3741 26.0278 23.9324C25.6245 23.5731 25.3074 23.2496 25.01 23.0522C24.8312 22.9337 24.6629 22.901 24.4953 22.8566C24.3376 22.8145 24.2259 22.6987 24.0767 22.6522C23.8849 22.5923 23.7585 22.6815 23.4677 22.5213C23.3014 22.4293 23.1154 22.3674 22.9325 22.2712C22.3605 21.9708 22.0881 22.3918 21.6882 22.3918L21.6879 22.3915Z" fill="white"/>
<path fill-rule="evenodd" clip-rule="evenodd" d="M15.7061 34.7303C15.7061 35.0466 15.8587 35.2043 15.8699 35.3959C15.8877 35.6874 15.6645 35.7346 15.84 36.0911C16.0341 36.4859 16.417 36.4263 16.584 37.0771C16.7264 37.6332 16.9117 37.8244 17.128 38.2636C17.3409 38.696 17.3725 39.1829 17.7211 39.4481C17.8093 39.5153 17.937 39.6107 18.1091 39.6238C19.0059 39.6923 19.0407 39.0092 19.5265 38.9693C19.8256 38.9448 19.8392 39.1029 20.0889 39.1029C20.31 39.1029 20.6272 38.7477 20.764 38.6078C20.9991 38.367 21.1384 38.366 21.4423 38.377C21.8046 38.3897 21.913 38.2984 22.1402 37.9939C22.3007 37.7789 22.3896 37.5394 22.5872 37.3272C22.8055 37.0344 23.2228 37.0406 23.2279 36.7667C23.2279 36.4325 22.7251 36.5193 22.5248 36.5835C22.0823 36.7247 21.9528 37.0379 21.6831 36.9982C21.435 37.0057 21.3103 36.9038 21.1193 36.8945C20.9524 36.8866 20.8076 36.9613 20.6219 36.9465C20.3399 36.9283 20.299 36.5797 19.7805 36.5841C19.464 36.5869 19.3333 36.6754 18.9915 36.6262C18.4731 36.5511 18.5123 36.1828 17.554 35.9006C17.4075 35.8469 17.2948 35.7649 17.1633 35.6309C17.0138 35.4792 16.8996 35.2888 16.7348 35.1189C16.6108 34.9911 16.435 34.8874 16.2794 34.792C16.1857 34.7348 16.1053 34.6842 16.0239 34.6328C15.8324 34.5119 15.7061 34.4637 15.7061 34.7303H15.7061Z" fill="white"/>
<path fill-rule="evenodd" clip-rule="evenodd" d="M3.74297 18.0185C3.74297 17.1396 4.6995 16.9068 5.15226 16.4489C5.41935 16.1785 5.50277 15.8413 5.81445 15.6211C6.41094 15.1997 6.42046 15.5167 7.00942 15.3324C8.20439 14.9576 8.1618 15.9163 8.95178 16.0896C9.23961 16.153 9.45016 16.164 9.64365 16.2643C10.0698 16.4851 10.3168 16.9103 10.3168 17.6593C10.3168 17.9717 10.1986 18.0058 10.1986 18.2581C10.1986 18.5312 10.4371 18.6773 10.6721 18.6773C10.9728 18.6773 11.2645 18.3624 11.2645 18.0186C11.2645 17.4195 10.8625 16.8428 10.7024 16.4672C10.5927 16.2095 10.8063 16.1369 10.977 16.2867C11.1623 16.4493 11.3973 16.7601 11.4753 16.8989C11.6211 17.1576 11.7788 17.5046 11.7915 17.8725C11.8201 18.7327 11.3142 19.4563 10.4333 19.4563H10.2576C9.58134 19.4563 8.88881 17.9587 7.11883 17.9587C6.38946 17.9587 5.95752 18.1247 5.50749 18.4258C5.25576 18.5942 5.19685 18.7235 4.94201 18.8724C4.72467 18.9991 4.42355 19.1706 4.20178 19.1325C3.82603 19.0677 3.7429 18.5733 3.7429 18.2336V18.0187L3.74297 18.0185ZM5.89617 13.9029C5.89617 14.2413 6.13528 14.4776 6.47524 14.5672C7.04205 14.7164 7.88924 14.5724 8.3764 14.6502C9.37006 14.809 10.4353 14.9637 10.4353 13.7658V13.2266C10.4353 12.2937 8.81439 12.4753 7.88548 12.5049C7.26788 12.5245 7.20933 12.981 6.92556 13.2711C6.67176 13.5305 5.8961 13.525 5.8961 13.9029H5.89617ZM9.91067 5.50639C9.91642 5.37723 9.9478 5.25837 10.033 5.15295C10.1597 4.99586 10.5852 4.78121 10.8498 4.78121C11.2934 4.78121 11.7018 5.0806 11.975 5.0806H12.1528C12.5313 5.0806 12.4778 4.78121 12.9226 4.78121C13.4387 4.78121 13.9916 5.08299 14.3336 5.40515C14.555 5.61353 14.5714 5.79682 14.3254 6.03902C14.2355 6.12757 13.9249 6.21373 13.7699 6.21888C13.4006 6.23023 13.0129 6.01147 12.7449 6.04731C12.3872 6.09554 12.363 6.37388 12.3634 6.51827C12.3648 6.98132 12.7667 7.31789 13.5144 7.65656C13.7127 7.74645 13.9461 7.83739 14.1068 7.99694C14.3493 8.23779 14.4266 8.58198 13.9668 8.89167C13.4756 9.22242 12.829 9.27371 12.0343 9.27371C11.6947 9.27371 11.1718 9.24198 10.8536 9.27752C10.53 9.31366 10.267 9.4532 9.90218 9.4532C9.27778 9.4532 7.76087 9.48941 7.71081 8.49478C7.69716 8.22398 7.89065 8.07137 8.13795 7.83328C8.37847 7.60175 8.58621 7.38927 8.72728 7.32962C9.15036 7.14326 9.59899 7.10705 9.79351 6.72673C9.9196 6.48005 9.96315 6.28742 9.95673 6.08897C9.9509 5.91359 9.90048 5.73344 9.91074 5.50639H9.91067ZM11.8568 2.44507C11.4542 2.44507 11.3059 2.79926 10.8938 2.86847C10.4135 2.86294 10.2565 3.00458 10.1434 3.12792C9.97268 3.31464 9.89125 3.28052 9.65044 3.28538C9.23961 3.29329 8.98685 3.34294 8.77667 3.643C8.72832 3.71221 8.62031 3.83869 8.49223 3.92447C8.41184 3.97786 8.30834 3.97412 8.22108 4.0178C8.07631 4.09045 7.9503 4.20244 7.85654 4.2541C7.00558 4.72193 7.40216 4.83288 7.17766 5.14571C6.92962 5.48161 6.45073 5.09023 6.25008 5.75964C6.12369 6.03596 6.02086 5.95152 5.8188 6.08658C5.66651 6.18857 5.62258 6.39456 5.49819 6.5565C5.30204 6.8149 4.98933 6.87142 4.7311 7.33268C4.4327 7.74055 4.15269 7.74503 3.83998 8.04614C3.24113 8.72204 3.61718 8.64693 3.55657 9.1179C3.54875 9.39765 3.43262 9.47657 3.28712 9.63015C3.10315 9.82479 2.88958 10.0257 2.76696 10.1576C3.24452 10.2944 3.70481 10.2927 4.17388 10.3602C4.71921 10.3801 4.97811 10.1728 5.90842 10.2144C6.30116 10.2144 6.49945 10.4801 6.78972 10.4801C7.07586 10.4801 7.1474 10.3013 7.44136 10.2754C8.05963 10.2813 8.52087 10.4118 9.27165 10.454L10.0207 10.4715C10.7436 10.4715 11.3281 10.1994 12.1668 10.1942C12.7408 10.1594 13.4004 10.3041 14.5217 10.2917H15.5287C15.5048 10.5828 15.2548 10.8123 14.9125 10.9398C14.6012 11.0562 14.2128 11.0796 13.849 11.1558C13.5502 11.2181 13.2798 11.3194 13.0634 11.3924C12.2858 11.6557 11.1156 12.0288 10.1394 12.0288H7.23709C6.25392 12.0288 5.47213 11.8886 4.64472 11.7157C4.16 11.6143 3.21573 11.2919 2.6659 11.1086C2.42405 11.028 2.20805 11.0218 2.12596 11.3222C2.08233 11.481 2.08476 11.6771 2.08476 11.7893C2.08476 12.0184 2.11813 12.18 2.12293 12.335C2.13548 12.7319 2.0776 12.971 1.65489 13.331C1.40552 13.5432 0.621368 13.9542 0.60402 14.3498C0.59553 14.5469 0.701762 14.6978 0.755209 14.869C0.823717 15.0897 0.816187 15.4261 0.757646 15.7117C0.681682 16.082 0.184336 16.5956 0.184631 17.0801C0.184631 17.619 0.679246 17.8635 0.6633 18.421C0.648609 18.9367 0.204047 18.9815 0.195262 19.42C0.18943 19.707 0.436442 19.7314 0.431274 20.1456C0.42618 20.5597 0.0541861 20.8053 0 21.1871V21.5164C0 21.9049 0.212906 22.0948 0.439099 22.1011C0.615167 22.1059 0.791014 22.017 1.00458 21.9109C1.18685 21.8203 1.36838 21.7428 1.51928 21.6394C1.63643 21.5591 1.73565 21.4512 1.80202 21.3865C1.98052 21.2122 2.23876 21.0206 2.60898 20.8931C3.01914 20.7519 3.92391 20.6833 4.42872 20.8587C4.64738 20.9349 4.81739 21.0437 5.04868 21.0706C5.39617 21.1109 5.49598 21.0034 5.7985 21.1509C6.0199 21.2591 6.16843 21.3507 6.33224 21.4134C6.51828 21.4844 6.71959 21.5246 6.97878 21.6339C7.41412 21.8174 7.46491 22.1992 8.03445 22.2019C8.27563 22.203 8.47835 22.2033 8.61766 22.2388C8.95185 22.3236 9.01246 22.5705 9.48766 22.5705C9.80037 22.5705 9.93732 22.3911 10.376 22.3911C10.7896 22.3911 11.3237 22.6192 11.3237 23.0498C11.3237 23.6093 11.2032 24.136 10.8938 24.5095C10.638 24.8186 10.2603 25.0504 9.72471 25.0267C9.57174 25.0267 9.44337 24.9443 9.34526 24.8258C9.23312 24.6907 9.17871 24.514 9.05535 24.3727C8.8217 24.1047 8.77844 24.1213 8.4582 24.1257L8.24389 24.1281H7.94786C7.20387 24.1281 7.04825 23.291 6.64045 23.2486C6.3301 23.2162 6.09985 23.5311 5.76639 23.5239C5.68969 23.5222 5.61786 23.4867 5.54463 23.4454C5.25745 23.283 5.12701 22.737 4.74955 22.7505C4.60242 22.7556 4.47641 22.8645 4.26276 22.9548C4.12789 23.0119 4.01509 23.0336 3.87718 23.0994C3.61932 23.2225 3.49906 23.3493 3.32838 23.3493C3.09296 23.3493 3.03066 23.2297 2.79523 23.2297C2.5435 23.2297 2.24784 23.3166 1.97019 23.4857C1.28784 23.9015 0.635173 24.7126 0.254689 25.2094C0.157907 25.3355 0.118412 25.3509 0.177028 25.497C0.247529 25.6724 0.236012 25.6869 0.431865 25.6782C0.78747 25.6617 0.886984 25.4984 1.15577 25.363C1.26784 25.3065 1.39998 25.3065 1.51721 25.2555C1.6681 25.1897 1.80542 25.0736 1.95565 25.0116C2.4806 24.7942 2.81472 24.7987 3.30151 24.9692C3.55768 25.0588 3.65682 24.9719 3.83156 25.0474C4.13881 25.1797 4.33467 25.6255 4.74963 25.6255H5.10494C5.59719 25.6255 5.99059 25.4404 6.3868 25.7068C6.69235 25.909 6.86812 26.2983 7.14134 26.5012C7.18017 26.5302 7.31844 26.6924 7.88939 26.8223C8.35573 26.9288 8.88172 27.439 9.38416 27.4074C9.74833 27.3846 9.74464 27.2279 9.90742 27.2279C10.1561 27.2279 10.3816 27.4667 10.3713 27.6272C10.3679 27.9266 10.2071 27.9404 10.1891 28.38C10.1823 28.7048 10.3284 28.9147 10.2576 29.2196C9.71083 29.0907 9.7295 29.3395 9.3691 29.3395H9.13235C8.73179 29.3395 8.45377 29.0484 8.0944 28.9064C7.59535 28.7183 7.41921 28.7621 7.10244 28.3377C6.73554 27.846 6.88134 27.7451 6.16836 27.7847C5.87233 27.7768 5.7906 27.6345 5.56817 27.6118C5.38177 27.5928 5.19138 27.7221 4.92739 27.7221C4.60921 27.7221 4.45049 27.3917 3.98039 27.3624C3.32632 27.3862 3.35083 27.1681 2.73603 27.1833C2.3647 27.1833 1.88847 27.5254 1.42486 27.6745C1.24532 27.7325 1.24192 27.7655 1.28112 27.9332C1.40921 28.4807 1.73181 29.3902 1.91844 29.8118C2.02268 30.0485 2.02474 30.0275 2.26489 30.0626C2.58956 30.1102 2.83687 30.237 3.17579 30.2335C3.48614 30.2335 3.62272 30.1774 3.88774 30.176C4.36124 30.1735 4.77952 30.2615 5.17706 30.5243C5.52078 30.8378 5.60767 30.6948 5.99664 30.8739C6.48513 31.0989 6.56419 31.1888 6.72697 31.1878C6.88983 31.1864 6.91567 31.1361 7.08295 31.1361C7.54966 31.1361 7.64674 31.3107 7.96728 31.4758C8.37064 31.6835 8.58554 31.5812 9.04952 31.6991C9.52745 31.8203 9.77852 31.8547 10.0997 31.842C10.7159 31.8175 11.0549 32.1001 11.0921 32.3726C11.0955 32.5428 11.0774 32.5755 11.0812 32.7457C11.0689 32.9848 11.1766 33.1602 11.2052 33.3524C11.2426 33.6049 11.1404 33.7924 11.0178 33.8658C10.7432 34.0301 10.2145 33.8916 9.78362 33.8916C9.51512 33.8916 9.33056 33.9516 9.17694 33.9499C8.91974 33.9468 8.64482 33.8754 8.14984 33.5692C7.80272 33.3545 7.76596 33.5974 7.33505 33.3135C7.1395 33.2026 6.83328 32.9332 6.5856 32.9332C6.37543 32.9332 6.29806 32.9925 6.17544 32.9804C5.73465 32.937 5.69242 32.711 5.53259 32.4939C5.26521 32.1307 5.12317 32.1535 4.75967 32.2775C4.58662 32.3364 4.41019 32.394 4.39417 32.394C4.18362 32.394 4.06307 32.2745 3.9203 32.2745C3.82455 32.2745 3.72408 32.302 3.63276 32.341C3.43993 32.4233 3.45019 32.568 3.5517 32.754C3.83001 33.2646 4.33415 34.2224 4.94157 34.8356C5.35889 35.257 5.54965 35.4196 6.2548 35.2911C6.86901 35.1791 7.37795 35.8082 7.71074 35.8082C7.98256 35.8082 8.04656 35.6287 8.42166 35.6287H8.48064C8.71023 35.6287 8.91191 35.8254 9.13707 35.9667C9.4822 36.1834 9.64055 36.1135 9.93488 35.8599C10.0429 35.7666 10.1332 35.6008 10.2657 35.4895C10.7606 35.0734 11.4068 34.704 11.739 34.9666C11.8548 35.0582 11.9781 35.2009 11.9775 35.5068C12.052 36.253 12.6513 36.4366 12.1665 37.0802C11.9965 37.2831 11.8119 37.2848 11.4069 37.537C11.0444 37.7627 10.9948 37.8546 10.7314 37.845H10.554C9.88763 37.845 9.17775 37.3358 8.95495 37.3058C8.84016 37.2903 8.78501 37.3913 8.7986 37.4898C8.8327 37.7379 9.22404 38.0393 9.63663 38.2467C9.84541 38.3514 10.0454 38.4317 10.1745 38.4682C10.3108 38.5068 10.4518 38.5075 10.5503 38.5647C11.0732 38.8696 11.2026 39.2823 11.7977 39.2823H11.9752C12.6606 39.2823 12.6797 38.8779 13.2737 39.1803C13.5101 39.3006 14.0099 39.9183 14.3148 39.8745C14.525 39.8859 14.6088 39.8014 14.7784 39.7646C14.8673 39.7453 15.0043 39.7442 15.1426 39.766C15.3071 39.7915 15.4777 39.5706 15.4611 39.4184C15.4611 39.1662 14.9413 38.2391 14.8162 38.0262C14.481 37.4547 14.3792 37.2524 14.1584 36.5355C13.8168 35.4276 13.207 34.6606 12.9464 33.4487C12.8013 32.7728 12.8612 32.1861 12.6354 31.6069C12.4027 31.0105 12.1844 30.7759 12.1507 29.9409C12.1309 29.4554 12.2164 28.3875 12.2842 27.9147C12.318 27.6784 12.4205 27.2667 12.4471 26.9969C12.4733 26.7351 12.3306 26.3244 12.3306 26.045C12.3306 25.5913 12.5044 25.1862 12.5108 24.7297C12.4941 23.9952 12.4638 23.9818 12.7179 23.4692C12.8848 23.1325 13.0317 22.8311 13.0862 22.5558C13.19 22.0305 13.1454 21.5816 13.3597 21.0362C13.5126 20.6465 13.6618 20.5094 13.8199 20.004C13.9452 19.6026 13.9201 19.0732 13.9813 18.5898C14.0614 17.9566 14.194 18.0447 14.5244 17.6755C14.8163 17.3492 14.8797 17.261 14.862 17.0302C14.8538 16.9254 14.8047 16.8125 14.8047 16.5961V16.1893C14.7747 15.2408 15.7023 15.6508 15.4932 14.4612C15.4223 14.0718 15.4843 13.7284 15.6015 13.5245C15.8102 13.161 16.1802 13.0487 16.1802 12.5412C16.1802 12.1588 15.9892 12.0851 15.9892 11.8494C15.9892 11.53 16.4 11.4019 16.4174 11.1907C16.4449 10.851 16.3175 10.8971 16.2957 10.5895C16.2603 10.0827 16.2184 9.59804 16.2371 8.97447L16.2333 8.45461C16.2333 8.04636 16.4854 7.83865 16.4765 7.35732C16.4735 7.19956 16.499 7.03553 16.4571 6.8812C16.2544 6.13332 15.9063 4.67878 15.6695 3.83227C15.5708 3.47987 15.5881 3.01615 15.368 2.59379C15.1882 2.24826 14.9596 2.04735 14.6997 2.02637H14.4627C13.9554 2.02637 13.5957 2.20346 13.1536 2.25991C12.3207 2.29642 12.4763 2.61992 11.8571 2.44559L11.8568 2.44507Z" fill="white"/>
<path d="M43.8086 27.7827H46.8259V22.3693H50.1871L52.8162 27.7827H56.2328L53.3487 21.859C54.2583 21.4449 54.9276 20.82 55.3565 19.9843C55.7928 19.1412 56.011 18.1761 56.011 17.089C56.011 15.7431 55.6819 14.5968 55.0237 13.6502C54.3655 12.7036 53.3191 12.1193 51.8844 11.8975C51.6773 11.8605 51.4407 11.8383 51.1744 11.8309C50.9156 11.8161 50.7085 11.8087 50.5532 11.8087H43.8086V27.7827ZM46.8259 19.5517V14.6264H50.4201C50.5754 14.6264 50.7455 14.6338 50.9304 14.6486C51.1153 14.6633 51.2853 14.6929 51.4407 14.7373C51.8474 14.8482 52.1617 15.0368 52.3836 15.303C52.6054 15.5619 52.757 15.854 52.8384 16.1794C52.9271 16.4974 52.9715 16.8006 52.9715 17.089C52.9715 17.3774 52.9271 17.6844 52.8384 18.0097C52.757 18.3277 52.6054 18.6199 52.3836 18.8861C52.1617 19.1449 51.8474 19.3298 51.4407 19.4408C51.2853 19.4851 51.1153 19.5147 50.9304 19.5295C50.7455 19.5443 50.5754 19.5517 50.4201 19.5517H46.8259ZM64.0628 28.1155C65.2608 28.1155 66.3147 27.8493 67.2243 27.3168C68.1413 26.7769 68.855 26.0337 69.3653 25.0871C69.8829 24.1331 70.1418 23.0349 70.1418 21.7925C70.1418 20.5574 69.8866 19.4666 69.3764 18.52C68.8661 17.566 68.1524 16.8191 67.2354 16.2792C66.3258 15.7394 65.2682 15.4694 64.0628 15.4694C62.8795 15.4694 61.8331 15.7357 60.9235 16.2681C60.0138 16.8006 59.3002 17.5438 58.7825 18.4978C58.2648 19.4444 58.006 20.5427 58.006 21.7925C58.006 23.0275 58.2574 24.122 58.7603 25.076C59.2706 26.0226 59.9806 26.7659 60.8902 27.3057C61.7998 27.8456 62.8574 28.1155 64.0628 28.1155ZM64.0628 25.2979C63.1236 25.2979 62.4099 24.9836 61.9218 24.355C61.4411 23.719 61.2008 22.8648 61.2008 21.7925C61.2008 20.7497 61.43 19.9067 61.8886 19.2633C62.3545 18.6125 63.0792 18.2871 64.0628 18.2871C65.0168 18.2871 65.7341 18.6051 66.2148 19.2411C66.7029 19.8771 66.947 20.7275 66.947 21.7925C66.947 22.8204 66.7066 23.6635 66.2259 24.3217C65.7526 24.9725 65.0316 25.2979 64.0628 25.2979ZM76.9375 28.1155C78.5053 28.1155 79.7329 27.7642 80.6204 27.0617C81.5078 26.3591 81.9515 25.394 81.9515 24.1664C81.9515 23.2346 81.6631 22.4987 81.0863 21.9589C80.5168 21.419 79.548 20.9716 78.1799 20.6166C77.2481 20.38 76.5529 20.1877 76.0944 20.0398C75.6433 19.8919 75.3438 19.7477 75.1959 19.6071C75.0554 19.4666 74.9851 19.2928 74.9851 19.0858C74.9851 18.7382 75.1515 18.472 75.4843 18.2871C75.8245 18.1022 76.2719 18.0282 76.8265 18.0652C78.0024 18.154 78.6458 18.6568 78.7567 19.5739L81.8406 19.0192C81.6853 17.9321 81.1528 17.0705 80.2432 16.4345C79.3336 15.7911 78.1725 15.4694 76.76 15.4694C75.3105 15.4694 74.1531 15.8096 73.2879 16.49C72.4226 17.1704 71.99 18.0874 71.99 19.2411C71.99 20.1581 72.2895 20.8828 72.8885 21.4153C73.4875 21.9404 74.5192 22.3915 75.9835 22.7687C76.8487 22.9979 77.4847 23.1828 77.8915 23.3233C78.3056 23.4638 78.5719 23.608 78.6902 23.7559C78.8085 23.8965 78.8677 24.085 78.8677 24.3217C78.8677 24.6989 78.7198 24.9947 78.4239 25.2091C78.1281 25.4162 77.7066 25.5197 77.1593 25.5197C76.4938 25.5197 75.9428 25.3607 75.5065 25.0427C75.0775 24.7247 74.8002 24.2847 74.6745 23.7227L71.5906 24.1886C71.7903 25.4384 72.3524 26.4072 73.2768 27.0949C74.2086 27.7753 75.4288 28.1155 76.9375 28.1155ZM89.6695 28.1155C91.0598 28.1155 92.2283 27.7716 93.1749 27.0839C94.1215 26.3961 94.7649 25.4162 95.1051 24.1442L92.0212 23.5008C91.8437 24.0776 91.5775 24.5214 91.2225 24.832C90.8676 25.1426 90.3499 25.2979 89.6695 25.2979C88.7599 25.2979 88.0721 24.9762 87.6062 24.3328C87.1477 23.682 86.9184 22.8352 86.9184 21.7925C86.9184 20.7941 87.1366 19.9621 87.5729 19.2965C88.0166 18.6236 88.7155 18.2871 89.6695 18.2871C90.2242 18.2871 90.7197 18.4609 91.156 18.8084C91.5997 19.156 91.9103 19.6404 92.0878 20.2616L95.1051 19.4629C94.8389 18.2279 94.2251 17.2554 93.2637 16.5455C92.3097 15.8281 91.1264 15.4694 89.7139 15.4694C88.4937 15.4694 87.4361 15.7431 86.5413 16.2903C85.6464 16.8376 84.9513 17.5882 84.4558 18.5422C83.9677 19.4962 83.7236 20.5796 83.7236 21.7925C83.7236 22.9905 83.9603 24.0665 84.4336 25.0205C84.9069 25.9745 85.5873 26.7289 86.4747 27.2835C87.3622 27.8382 88.4271 28.1155 89.6695 28.1155ZM100.435 28.1155C101.36 28.1155 102.136 27.975 102.765 27.694C103.401 27.4056 103.985 26.947 104.517 26.3184V27.7827H107.158V20.4613C107.158 19.9141 107.135 19.4186 107.091 18.9748C107.047 18.5311 106.906 18.0874 106.669 17.6437C106.248 16.845 105.627 16.2829 104.806 15.9575C103.985 15.6321 103.046 15.4694 101.988 15.4694C100.546 15.4694 99.4072 15.78 98.5715 16.4013C97.7358 17.0225 97.1664 17.8286 96.8632 18.8195L99.5921 19.6848C99.7843 19.1375 100.121 18.7567 100.602 18.5422C101.082 18.3277 101.544 18.2205 101.988 18.2205C102.698 18.2205 103.227 18.3536 103.574 18.6199C103.922 18.8787 104.125 19.2891 104.185 19.8512C103.06 20.0139 102.07 20.1729 101.212 20.3282C100.354 20.4761 99.6364 20.6536 99.0596 20.8607C98.0982 21.2156 97.4215 21.7 97.0296 22.3138C96.6376 22.9203 96.4416 23.6413 96.4416 24.477C96.4416 25.1426 96.5932 25.7527 96.8965 26.3073C97.2071 26.8546 97.6582 27.2946 98.2498 27.6274C98.8488 27.9528 99.5773 28.1155 100.435 28.1155ZM101.079 25.7416C100.561 25.7416 100.15 25.627 99.8472 25.3977C99.544 25.1611 99.3924 24.8394 99.3924 24.4326C99.3924 24.1294 99.4885 23.8706 99.6808 23.6561C99.8731 23.4342 100.191 23.2346 100.635 23.0571C100.975 22.9314 101.393 22.8167 101.888 22.7132C102.391 22.6023 103.149 22.4618 104.162 22.2917C104.155 22.5801 104.133 22.8981 104.096 23.2457C104.059 23.5858 103.978 23.8854 103.852 24.1442C103.77 24.3143 103.615 24.5251 103.386 24.7765C103.164 25.0279 102.861 25.2535 102.476 25.4532C102.099 25.6455 101.633 25.7416 101.079 25.7416ZM111.04 27.7827H114.058V18.1318H116.831V15.8022H114.058V15.1367C114.058 14.8039 114.172 14.5191 114.401 14.2825C114.631 14.0384 114.982 13.9164 115.455 13.9164H116.831V11.4759H115.344C115.056 11.4759 114.708 11.4833 114.302 11.4981C113.895 11.5055 113.473 11.5869 113.037 11.7422C112.608 11.8901 112.209 12.1711 111.839 12.5853C111.558 12.8959 111.362 13.2434 111.251 13.628C111.14 14.0126 111.077 14.3971 111.062 14.7817C111.048 15.1588 111.04 15.499 111.04 15.8022H109.154V18.1318H111.04V27.7827ZM123.735 28.1155C124.889 28.1155 125.95 27.8123 126.919 27.2059C127.895 26.5995 128.609 25.749 129.06 24.6545L126.043 23.7892C125.584 24.795 124.756 25.2979 123.558 25.2979C122.737 25.2979 122.09 25.0686 121.617 24.6101C121.151 24.1516 120.862 23.4934 120.751 22.6355H129.16C129.286 21.1861 129.138 19.9251 128.716 18.8528C128.295 17.7805 127.644 16.9485 126.764 16.3569C125.884 15.7653 124.815 15.4694 123.558 15.4694C122.375 15.4694 121.328 15.7394 120.419 16.2792C119.509 16.8117 118.795 17.5623 118.278 18.5311C117.76 19.4999 117.501 20.6388 117.501 21.9478C117.501 23.1458 117.764 24.2108 118.289 25.1426C118.821 26.067 119.553 26.7954 120.485 27.3279C121.424 27.853 122.508 28.1155 123.735 28.1155ZM123.691 18.0874C124.416 18.0874 124.97 18.2686 125.355 18.631C125.747 18.9933 125.998 19.5813 126.109 20.3948H120.829C121.147 18.8565 122.101 18.0874 123.691 18.0874Z" fill="white"/>
</svg>
