<svg width="104" height="206" viewBox="0 0 104 206" fill="none" xmlns="http://www.w3.org/2000/svg"><path d="M1.146 7.146a.5.5 0 000 .708l3.182 3.182a.5.5 0 10.708-.708L2.207 7.5l2.829-2.828a.5.5 0 10-.708-.708L1.146 7.146zM101.075 204h-.5v1h.5v-1zm-5.85 1h.5v-1h-.5v1zm-5.85-1h-.5v1h.5v-1zm-5.85 1h.5v-1h-.5v1zm-5.85-1h-.5v1h.5v-1zm-5.85 1h.5v-1h-.5v1zm-5.85-1h-.5v1h.5v-1zm-5.85 1h.5v-1h-.5v1zm-5.85-1h-.5v1h.5v-1zm-5.85 1h.5v-1h-.5v1zm-5.03-1.417l-.462-.192-.383.924.462.192.383-.924zm-3.902-2.595l.192.462.924-.383-.192-.462-.924.383zm.507-5.571v-.5h-1v.5h1zm-1-6.167v.5h1v-.5h-1zm1-6.167v-.5h-1v.5h1zm-1-6.166v.5h1v-.5h-1zm1-6.167v-.5h-1v.5h1zm-1-6.167v.5h1v-.5h-1zm1-6.166v-.5h-1v.5h1zm-1-6.167v.5h1v-.5h-1zm1-6.167v-.5h-1v.5h1zm-1-6.166v.5h1v-.5h-1zm1-6.167v-.5h-1v.5h1zm-1-6.167v.5h1v-.5h-1zm1-6.166v-.5h-1v.5h1zm-1-6.167v.5h1v-.5h-1zm1-6.167v-.5h-1v.5h1zm-1-6.166v.5h1v-.5h-1zm1-6.167v-.5h-1v.5h1zm-1-6.167v.5h1v-.5h-1zm1-6.166v-.5h-1v.5h1zm-1-6.167v.5h1v-.5h-1zm1-6.167v-.5h-1v.5h1zm-1-6.166v.5h1v-.5h-1zm1-6.167v-.5h-1v.5h1zm-1-6.167v.5h1v-.5h-1zm1-6.166v-.5h-1v.5h1zm-1-6.167v.5h1v-.5h-1zm1-6.167v-.5h-1v.5h1zm-1-6.166v.5h1v-.5h-1zm1-6.167v-.5h-1v.5h1zm-1-6.167v.5h1v-.5h-1zm.507-5.571l-.192-.462-.924.383.192.462.924-.383zm-3.902-2.595l.462.192.383-.924-.462-.192-.383.924zM30.833 7h-.5v1h.5V7zM25.5 8h.5V7h-.5v1zm-5.333-1h-.5v1h.5V7zm-5.334 1h.5V7h-.5v1zM9.5 7H9v1h.5V7zM4.167 8h.5V7h-.5v1zM104 204h-2.925v1H104v-1zm-8.775 0h-5.85v1h5.85v-1zm-11.7 0h-5.85v1h5.85v-1zm-11.7 0h-5.85v1h5.85v-1zm-11.7 0h-5.85v1h5.85v-1zm-11.7 0H45.5v1h2.925v-1zm-2.925 0a5.494 5.494 0 01-2.105-.417l-.383.924A6.484 6.484 0 0045.5 205v-1zm-5.083-3.395A5.481 5.481 0 0140 198.5h-1c0 .88.175 1.721.493 2.488l.924-.383zM40 198.5v-3.083h-1v3.083h1zm0-9.25v-6.167h-1v6.167h1zm0-12.333v-6.167h-1v6.167h1zm0-12.334v-6.166h-1v6.166h1zm0-12.333v-6.167h-1v6.167h1zm0-12.333v-6.167h-1v6.167h1zm0-12.334v-6.166h-1v6.166h1zm0-12.333v-6.167h-1v6.167h1zm0-12.333V96.75h-1v6.167h1zm0-12.334v-6.166h-1v6.166h1zm0-12.333v-6.167h-1v6.167h1zm0-12.333V59.75h-1v6.167h1zm0-12.334v-6.166h-1v6.166h1zm0-12.333v-6.167h-1v6.167h1zm0-12.333V22.75h-1v6.167h1zm0-12.334V13.5h-1v3.083h1zm0-3.083c0-.88-.175-1.721-.493-2.488l-.924.383c.269.648.417 1.358.417 2.105h1zm-4.012-6.007A6.482 6.482 0 0033.5 7v1c.747 0 1.457.149 2.105.417l.383-.924zM33.5 7h-2.667v1H33.5V7zm-8 0h-5.333v1H25.5V7zM14.833 7H9.5v1h5.333V7zM4.167 7H1.5v1h2.667V7zM.793 6.793a1 1 0 000 1.414l6.364 6.364a1 1 0 001.414-1.414L2.914 7.5l5.657-5.657A1 1 0 007.157.43L.793 6.793zM101.075 203.5h-1v2h1v-2zm-5.85 2h1v-2h-1v2zm-5.85-2h-1v2h1v-2zm-5.85 2h1v-2h-1v2zm-5.85-2h-1v2h1v-2zm-5.85 2h1v-2h-1v2zm-5.85-2h-1v2h1v-2zm-5.85 2h1v-2h-1v2zm-5.85-2h-1v2h1v-2zm-5.85 2h1v-2h-1v2zm-4.839-2.379l-.923-.383-.766 1.847.923.383.766-1.847zm-4.554-1.941l.383.924 1.847-.767-.383-.923-1.847.766zm1.468-5.763v-1h-2v1h2zm-2-6.167v1h2v-1h-2zm2-6.167v-1h-2v1h2zm-2-6.166v1h2v-1h-2zm2-6.167v-1h-2v1h2zm-2-6.167v1h2v-1h-2zm2-6.166v-1h-2v1h2zm-2-6.167v1h2v-1h-2zm2-6.167v-1h-2v1h2zm-2-6.166v1h2v-1h-2zm2-6.167v-1h-2v1h2zm-2-6.167v1h2v-1h-2zm2-6.166v-1h-2v1h2zm-2-6.167v1h2v-1h-2zm2-6.167v-1h-2v1h2zm-2-6.166v1h2v-1h-2zm2-6.167v-1h-2v1h2zm-2-6.167v1h2v-1h-2zm2-6.166v-1h-2v1h2zm-2-6.167v1h2v-1h-2zm2-6.167v-1h-2v1h2zm-2-6.166v1h2v-1h-2zm2-6.167v-1h-2v1h2zm-2-6.167v1h2v-1h-2zm2-6.166v-1h-2v1h2zm-2-6.167v1h2v-1h-2zm2-6.167v-1h-2v1h2zm-2-6.166v1h2v-1h-2zm2-6.167v-1h-2v1h2zm-2-6.167v1h2v-1h-2zm1.468-5.763l-.383-.924-1.847.767.383.923 1.847-.766zm-4.554-1.94l.923.383.766-1.847-.923-.383-.766 1.847zm-4.58-2.38h-1v2h1v-2zm-5.334 2h1v-2h-1v2zm-5.333-2h-1v2h1v-2zm-5.334 2h1v-2h-1v2zM9.5 6.5h-1v2h1v-2zm-5.333 2h1v-2h-1v2zM104 203.5h-2.925v2H104v-2zm-8.775 0h-5.85v2h5.85v-2zm-11.7 0h-5.85v2h5.85v-2zm-11.7 0h-5.85v2h5.85v-2zm-11.7 0h-5.85v2h5.85v-2zm-11.7 0H45.5v2h2.925v-2zm-2.925 0a4.98 4.98 0 01-1.914-.379l-.766 1.847a6.98 6.98 0 002.68.532v-2zm-4.621-3.086a4.982 4.982 0 01-.379-1.914h-2c0 .947.189 1.853.532 2.68l1.847-.766zM40.5 198.5v-3.083h-2v3.083h2zm0-9.25v-6.167h-2v6.167h2zm0-12.333v-6.167h-2v6.167h2zm0-12.334v-6.166h-2v6.166h2zm0-12.333v-6.167h-2v6.167h2zm0-12.333v-6.167h-2v6.167h2zm0-12.334v-6.166h-2v6.166h2zm0-12.333v-6.167h-2v6.167h2zm0-12.333V96.75h-2v6.167h2zm0-12.334v-6.166h-2v6.166h2zm0-12.333v-6.167h-2v6.167h2zm0-12.333V59.75h-2v6.167h2zm0-12.334v-6.166h-2v6.166h2zm0-12.333v-6.167h-2v6.167h2zm0-12.333V22.75h-2v6.167h2zm0-12.334V13.5h-2v3.083h2zm0-3.083c0-.947-.189-1.853-.532-2.68l-1.847.766A4.98 4.98 0 0138.5 13.5h2zm-4.32-6.468A6.982 6.982 0 0033.5 6.5v2c.68 0 1.325.135 1.914.379l.766-1.847zM33.5 6.5h-2.667v2H33.5v-2zm-8 0h-5.333v2H25.5v-2zm-10.667 0H9.5v2h5.333v-2zm-10.666 0H1.5v2h2.667v-2z" fill="#EFB306"/></svg>