<svg width="267" height="16" viewBox="0 0 267 16" fill="none" xmlns="http://www.w3.org/2000/svg"><path d="M.646 7.646a.5.5 0 000 .708l3.182 3.182a.5.5 0 10.708-.708L1.707 8l2.829-2.828a.5.5 0 10-.708-.708L.646 7.646zM263.977 7.5h-.5v1h.5v-1zm-6.045 1h.5v-1h-.5v1zm-6.046-1h-.5v1h.5v-1zm-6.045 1h.5v-1h-.5v1zm-6.046-1h-.5v1h.5v-1zm-6.045 1h.5v-1h-.5v1zm-6.045-1h-.5v1h.5v-1zm-6.046 1h.5v-1h-.5v1zm-6.045-1h-.5v1h.5v-1zm-6.046 1h.5v-1h-.5v1zm-6.045-1h-.5v1h.5v-1zm-6.046 1h.5v-1h-.5v1zm-6.045-1h-.5v1h.5v-1zm-6.046 1h.5v-1h-.5v1zm-6.045-1h-.5v1h.5v-1zm-6.046 1h.5v-1h-.5v1zm-6.045-1h-.5v1h.5v-1zm-6.045 1h.5v-1h-.5v1zm-6.046-1h-.5v1h.5v-1zm-6.045 1h.5v-1h-.5v1zm-6.046-1h-.5v1h.5v-1zm-6.045 1h.5v-1h-.5v1zm-6.046-1h-.5v1h.5v-1zm-6.045 1h.5v-1h-.5v1zm-6.046-1h-.5v1h.5v-1zm-6.045 1h.5v-1h-.5v1zm-6.046-1h-.5v1h.5v-1zm-6.045 1h.5v-1h-.5v1zm-6.046-1h-.5v1h.5v-1zm-6.045 1h.5v-1h-.5v1zm-6.045-1h-.5v1h.5v-1zm-6.046 1h.5v-1h-.5v1zm-6.045-1h-.5v1h.5v-1zm-6.046 1h.5v-1h-.5v1zm-6.045-1h-.5v1h.5v-1zm-6.046 1h.5v-1h-.5v1zm-6.045-1h-.5v1h.5v-1zm-6.046 1h.5v-1h-.5v1zm-6.045-1h-.5v1h.5v-1zm-6.046 1h.5v-1h-.5v1zm-6.045-1h-.5v1h.5v-1zm-6.045 1h.5v-1h-.5v1zm-6.046-1h-.5v1h.5v-1zm-6.045 1h.5v-1h-.5v1zM267 7.5h-3.023v1H267v-1zm-9.068 0h-6.046v1h6.046v-1zm-12.091 0h-6.046v1h6.046v-1zm-12.091 0h-6.045v1h6.045v-1zm-12.091 0h-6.045v1h6.045v-1zm-12.091 0h-6.045v1h6.045v-1zm-12.091 0h-6.045v1h6.045v-1zm-12.091 0h-6.045v1h6.045v-1zm-12.091 0h-6.045v1h6.045v-1zm-12.09 0h-6.046v1h6.046v-1zm-12.091 0h-6.046v1h6.046v-1zm-12.091 0h-6.046v1h6.046v-1zm-12.091 0h-6.046v1h6.046v-1zm-12.091 0h-6.046v1h6.046v-1zm-12.091 0h-6.046v1h6.046v-1zm-12.09 0h-6.046v1h6.045v-1zm-12.092 0h-6.045v1h6.045v-1zm-12.09 0h-6.046v1h6.045v-1zm-12.092 0h-6.045v1h6.045v-1zm-12.09 0H34.25v1h6.045v-1zm-12.091 0h-6.046v1h6.046v-1zm-12.091 0h-6.046v1h6.046v-1zm-12.091 0H1v1h3.023v-1zm-3.73-.207a1 1 0 000 1.414l6.364 6.364a1 1 0 001.414-1.414L2.414 8l5.657-5.657A1 1 0 006.657.93L.293 7.293zM263.977 7h-1v2h1V7zm-6.045 2h1V7h-1v2zm-6.046-2h-1v2h1V7zm-6.045 2h1V7h-1v2zm-6.046-2h-1v2h1V7zm-6.045 2h1V7h-1v2zm-6.045-2h-1v2h1V7zm-6.046 2h1V7h-1v2zm-6.045-2h-1v2h1V7zm-6.046 2h1V7h-1v2zm-6.045-2h-1v2h1V7zm-6.046 2h1V7h-1v2zm-6.045-2h-1v2h1V7zm-6.046 2h1V7h-1v2zm-6.045-2h-1v2h1V7zm-6.046 2h1V7h-1v2zm-6.045-2h-1v2h1V7zm-6.045 2h1V7h-1v2zm-6.046-2h-1v2h1V7zm-6.045 2h1V7h-1v2zm-6.046-2h-1v2h1V7zm-6.045 2h1V7h-1v2zm-6.046-2h-1v2h1V7zm-6.045 2h1V7h-1v2zm-6.046-2h-1v2h1V7zm-6.045 2h1V7h-1v2zm-6.046-2h-1v2h1V7zm-6.045 2h1V7h-1v2zm-6.046-2h-1v2h1V7zM88.66 9h1V7h-1v2zm-6.045-2h-1v2h1V7zm-6.046 2h1V7h-1v2zm-6.045-2h-1v2h1V7zm-6.046 2h1V7h-1v2zm-6.045-2h-1v2h1V7zm-6.046 2h1V7h-1v2zm-6.045-2h-1v2h1V7zm-6.046 2h1V7h-1v2zM34.25 7h-1v2h1V7zm-6.046 2h1V7h-1v2zM22.16 7h-1v2h1V7zm-6.045 2h1V7h-1v2zm-6.046-2h-1v2h1V7zM4.023 9h1V7h-1v2zM267 7h-3.023v2H267V7zm-9.068 0h-6.046v2h6.046V7zm-12.091 0h-6.046v2h6.046V7zM233.75 7h-6.045v2h6.045V7zm-12.091 0h-6.045v2h6.045V7zm-12.091 0h-6.045v2h6.045V7zm-12.091 0h-6.045v2h6.045V7zm-12.091 0h-6.045v2h6.045V7zm-12.091 0h-6.045v2h6.045V7zm-12.09 0h-6.046v2h6.046V7zm-12.091 0h-6.046v2h6.046V7zm-12.091 0h-6.046v2h6.046V7zm-12.091 0h-6.046v2h6.046V7zm-12.091 0h-6.046v2h6.046V7zM100.75 7h-6.046v2h6.046V7zM88.66 7h-6.046v2h6.045V7zM76.567 7h-6.045v2h6.045V7zm-12.09 0h-6.046v2h6.045V7zM52.385 7H46.34v2h6.045V7zm-12.09 0H34.25v2h6.045V7zM28.204 7h-6.046v2h6.046V7zm-12.09 0h-6.046v2h6.046V7zM4.023 7H1v2h3.023V7z" fill="#EFB306"/></svg>