<svg width="105" height="121" viewBox="0 0 105 121" fill="none" xmlns="http://www.w3.org/2000/svg"><path d="M1.146 7.646a.5.5 0 000 .708l3.182 3.182a.5.5 0 10.708-.708L2.207 8l2.829-2.828a.5.5 0 00-.708-.708L1.146 7.646zM102.125 119h-.5v1h.5v-1zm-5.75 1h.5v-1h-.5v1zm-5.75-1h-.5v1h.5v-1zm-5.75 1h.5v-1h-.5v1zm-5.75-1h-.5v1h.5v-1zm-5.75 1h.5v-1h-.5v1zm-5.75-1h-.5v1h.5v-1zm-5.75 1h.5v-1h-.5v1zm-4.98-1.417l-.462-.192-.383.924.462.192.383-.924zm-3.902-2.595l.192.462.924-.383-.192-.462-.924.383zm.507-5.597v-.5h-1v.5h1zm-1-6.219v.5h1v-.5h-1zm1-6.219v-.5h-1v.5h1zm-1-6.219v.5h1v-.5h-1zm1-6.218v-.5h-1v.5h1zm-1-6.22v.5h1v-.5h-1zm1-6.218v-.5h-1v.5h1zm-1-6.219v.5h1v-.5h-1zm1-6.218v-.5h-1v.5h1zm-1-6.22v.5h1v-.5h-1zm1-6.218v-.5h-1v.5h1zm-1-6.219v.5h1v-.5h-1zm1-6.218v-.5h-1v.5h1zm-1-6.22v.5h1v-.5h-1zm1-6.218v-.5h-1v.5h1zm-1-6.219v.5h1v-.5h-1zm.507-5.597l-.192-.462-.924.383.192.462.924-.383zm-3.902-2.595l.462.192.383-.924-.462-.192-.383.924zM44.156 7.5h-.5v1h.5v-1zm-5.687 1h.5v-1h-.5v1zm-5.688-1h-.5v1h.5v-1zm-5.687 1h.5v-1h-.5v1zm-5.688-1h-.5v1h.5v-1zm-5.687 1h.5v-1h-.5v1zm-5.688-1h-.5v1h.5v-1zm-5.687 1h.5v-1h-.5v1zM105 119h-2.875v1H105v-1zm-8.625 0h-5.75v1h5.75v-1zm-11.5 0h-5.75v1h5.75v-1zm-11.5 0h-5.75v1h5.75v-1zm-11.5 0H59v1h2.875v-1zM59 119a5.494 5.494 0 01-2.105-.417l-.383.924A6.484 6.484 0 0059 120v-1zm-5.083-3.395a5.481 5.481 0 01-.417-2.105h-1c0 .88.175 1.721.493 2.488l.924-.383zM53.5 113.5v-3.109h-1v3.109h1zm0-9.328v-6.219h-1v6.219h1zm0-12.438v-6.218h-1v6.218h1zm0-12.437v-6.219h-1v6.219h1zm0-12.438v-6.218h-1v6.218h1zm0-12.437v-6.219h-1v6.219h1zm0-12.438v-6.218h-1v6.218h1zm0-12.437v-6.219h-1v6.219h1zm0-12.438V14h-1v3.11h1zm0-3.109c0-.88-.175-1.721-.493-2.488l-.924.383c.269.648.417 1.358.417 2.105h1zm-4.012-6.007A6.482 6.482 0 0047 7.5v1c.747 0 1.457.149 2.105.417l.383-.924zM47 7.5h-2.844v1H47v-1zm-8.531 0H32.78v1h5.688v-1zm-11.375 0h-5.688v1h5.688v-1zm-11.375 0H10.03v1h5.688v-1zm-11.375 0H1.5v1h2.844v-1zM.793 7.293a1 1 0 000 1.414l6.364 6.364a1 1 0 001.414-1.414L2.914 8l5.657-5.657A1 1 0 007.157.93L.793 7.293zM102.125 118.5h-1v2h1v-2zm-5.75 2h1v-2h-1v2zm-5.75-2h-1v2h1v-2zm-5.75 2h1v-2h-1v2zm-5.75-2h-1v2h1v-2zm-5.75 2h1v-2h-1v2zm-5.75-2h-1v2h1v-2zm-5.75 2h1v-2h-1v2zm-4.789-2.379l-.923-.383-.766 1.847.923.383.766-1.847zm-4.554-1.941l.383.924 1.847-.767-.383-.923-1.847.766zM54 110.391v-1h-2v1h2zm-2-6.219v1h2v-1h-2zm2-6.219v-1h-2v1h2zm-2-6.219v1h2v-1h-2zm2-6.218v-1h-2v1h2zm-2-6.22v1h2v-1h-2zm2-6.218v-1h-2v1h2zm-2-6.219v1h2v-1h-2zm2-6.218v-1h-2v1h2zm-2-6.22v1h2v-1h-2zm2-6.218v-1h-2v1h2zm-2-6.219v1h2v-1h-2zm2-6.218v-1h-2v1h2zm-2-6.22v1h2v-1h-2zm2-6.218v-1h-2v1h2zm-2-6.219v1h2v-1h-2zm1.468-5.789l-.383-.924-1.847.767.383.923 1.847-.766zm-4.554-1.94l.923.383.766-1.847-.923-.383-.766 1.847zM44.156 7h-1v2h1V7zM38.47 9h1V7h-1v2zm-5.69-2h-1v2h1V7zm-5.687 2h1V7h-1v2zm-5.688-2h-1v2h1V7zM15.72 9h1V7h-1v2zm-5.69-2h-1v2h1V7zM4.344 9h1V7h-1v2zM105 118.5h-2.875v2H105v-2zm-8.625 0h-5.75v2h5.75v-2zm-11.5 0h-5.75v2h5.75v-2zm-11.5 0h-5.75v2h5.75v-2zm-11.5 0H59v2h2.875v-2zm-2.875 0a4.98 4.98 0 01-1.914-.379l-.766 1.847a6.98 6.98 0 002.68.532v-2zm-4.621-3.086A4.982 4.982 0 0154 113.5h-2c0 .947.189 1.853.532 2.68l1.847-.766zM54 113.5v-3.109h-2v3.109h2zm0-9.328v-6.219h-2v6.219h2zm0-12.438v-6.218h-2v6.218h2zm0-12.437v-6.219h-2v6.219h2zm0-12.438v-6.218h-2v6.218h2zm0-12.437v-6.219h-2v6.219h2zm0-12.438v-6.218h-2v6.218h2zm0-12.437v-6.219h-2v6.219h2zm0-12.438V14h-2v3.11h2zM54 14c0-.947-.189-1.853-.532-2.68l-1.847.766A4.98 4.98 0 0152 14h2zm-4.32-6.468A6.982 6.982 0 0047 7v2c.68 0 1.325.135 1.914.379l.766-1.847zM47 7h-2.844v2H47V7zm-8.531 0H32.78v2h5.688V7zM27.094 7h-5.688v2h5.688V7zM15.719 7H10.03v2h5.688V7zM4.344 7H1.5v2h2.844V7z" fill="#EFB306"/></svg>