<svg width="35" height="35" viewBox="0 0 35 35" fill="none" xmlns="http://www.w3.org/2000/svg"><mask id="a" style="mask-type:alpha" maskUnits="userSpaceOnUse" x="3" y="9" width="28" height="28"><circle r="12.681" transform="matrix(0 1 1 0 17 22.681)" fill="#fff" stroke="#EFB306" stroke-width="1.522"/></mask><g filter="url(#filter0_di)" mask="url(#a)"><path d="M17.347 30.13c-.122.055-.432-.077-.623-.268-.165-.166-.191-.259-.261-.868-.053-.457-.72-3.306-1.974-8.428-1.04-4.259-1.921-7.802-1.951-7.874-.034-.068-.022-.19.02-.266.117-.194.543-.518.683-.522.076 0 .398.222.873.595.76.6 1.154.842 1.272.784.034-.017.148-.004.25.03.106.03.22.026.258-.011.08-.08.08-.089.106-7.333.007-1.307.21-2.147.214-3.456.014-2.884.025-5.493.028-5.802l.007-.558-.315-.45c-.17-.246-.37-.547-.442-.661-.069-.119-.567-.912-1.107-1.764l-.975-1.556-.019-.55c-.078-2.69-.216-13.2-.17-13.432.148-.828.554-.886 1.187-.177.327.36.39.492 1.168 2.263.7 1.593.84 1.868.92 1.83.642-.302 1.26-.3 1.764.028.085.06.178.094.19.081.017-.016.59-.894 1.274-1.944 1.148-1.776 1.253-1.924 1.401-1.953.355-.074.796.257.878.65.021.09-.173 3.383-.432 7.32l-.467 7.158-.594.645c-.328.362-.838.897-1.137 1.205l-.543.552v10.97c.004 7.888.008-19.624.013-9.984 0 7.371.005 14.193.004 15.161l-.001 1.76.245.077c.195.06.297.052.537-.07.165-.08.414-.167.55-.2.21-.05.341-.14.81-.556.753-.678.897-.77 1.024-.677.064.047.153.043.233-.003.11-.067.122-.063.084.026-.025.05-.02.114.01.135.033.017-1.03 3.857-2.36 8.525-2.074 7.279-2.416 8.555-2.427 8.956-.007.457-.036.546-.205.613z" fill="#C5CAD2"/></g><defs><filter id="filter0_di" x="-16.476" y="-31.738" width="67.285" height="67.285" filterUnits="userSpaceOnUse" color-interpolation-filters="sRGB"><feFlood flood-opacity="0" result="BackgroundImageFix"/><feColorMatrix in="SourceAlpha" values="0 0 0 0 0 0 0 0 0 0 0 0 0 0 0 0 0 0 127 0" result="hardAlpha"/><feOffset/><feGaussianBlur stdDeviation="2.609"/><feColorMatrix values="0 0 0 0 0 0 0 0 0 0 0 0 0 0 0 0 0 0 0.5 0"/><feBlend in2="BackgroundImageFix" result="effect1_dropShadow"/><feBlend in="SourceGraphic" in2="effect1_dropShadow" result="shape"/><feColorMatrix in="SourceAlpha" values="0 0 0 0 0 0 0 0 0 0 0 0 0 0 0 0 0 0 127 0" result="hardAlpha"/><feOffset dx="1" dy=".29"/><feComposite in2="hardAlpha" operator="arithmetic" k2="-1" k3="1"/><feColorMatrix values="0 0 0 0 1 0 0 0 0 1 0 0 0 0 1 0 0 0 1 0"/><feBlend in2="shape" result="effect2_innerShadow"/></filter></defs></svg>