<svg width="94" height="59" viewBox="0 0 94 59" fill="none" xmlns="http://www.w3.org/2000/svg"><path d="M.646 7.146a.5.5 0 000 .708l3.182 3.182a.5.5 0 10.708-.708L1.707 7.5l2.829-2.828a.5.5 0 10-.708-.708L.646 7.146zM90.312 57.5h-.5v1h.5v-1zm-7.374 1h.5v-1h-.5v1zm-7.376-1h-.5v1h.5v-1zm-7.374 1h.5v-1h-.5v1zm-5.793-1.417l-.462-.192-.383.924.462.192.383-.924zm-3.902-2.595l.192.462.924-.383-.192-.462-.924.383zM59 48.792v-.5h-1v.5h1zm-1-6.417v.5h1v-.5h-1zm1-6.417v-.5h-1v.5h1zm-1-6.416v.5h1v-.5h-1zm1-6.417v-.5h-1v.5h1zm-1-6.417v.5h1v-.5h-1zm.507-5.696l-.192-.462-.924.383.192.462.924-.383zm-3.902-2.595l.462.192.383-.924-.462-.192-.383.924zM49.281 7h-.5v1h.5V7zm-6.437 1h.5V7h-.5v1zm-6.438-1h-.5v1h.5V7zM29.97 8h.5V7h-.5v1zm-6.44-1h-.5v1h.5V7zm-6.437 1h.5V7h-.5v1zm-6.438-1h-.5v1h.5V7zM4.22 8h.5V7h-.5v1zM94 57.5h-3.688v1H94v-1zm-11.063 0h-7.374v1h7.374v-1zm-14.75 0H64.5v1h3.688v-1zm-3.687 0a5.482 5.482 0 01-2.105-.417l-.383.924a6.482 6.482 0 002.488.493v-1zm-5.083-3.395A5.482 5.482 0 0159 52h-1c0 .88.175 1.721.493 2.488l.924-.383zM59 52v-3.208h-1V52h1zm0-9.625v-6.417h-1v6.417h1zm0-12.833v-6.417h-1v6.417h1zm0-12.834V13.5h-1v3.208h1zm0-3.208c0-.88-.175-1.721-.493-2.488l-.924.383c.269.648.417 1.358.417 2.105h1zm-4.012-6.007A6.482 6.482 0 0052.5 7v1c.747 0 1.457.149 2.105.417l.383-.924zM52.5 7h-3.219v1H52.5V7zm-9.656 0h-6.438v1h6.438V7zM29.969 7H23.53v1h6.438V7zM17.094 7h-6.438v1h6.438V7zM4.219 7H1v1h3.219V7zM.293 6.793a1 1 0 000 1.414l6.364 6.364a1 1 0 001.414-1.414L2.414 7.5l5.657-5.657A1 1 0 006.657.43L.293 6.793zM90.313 57h-1v2h1v-2zm-7.376 2h1v-2h-1v2zm-7.374-2h-1v2h1v-2zm-7.376 2h1v-2h-1v2zm-5.6-2.379l-.924-.383-.766 1.847.923.383.766-1.847zm-4.555-1.941l.383.923 1.847-.766-.383-.923-1.847.766zm1.468-5.888v-1h-2v1h2zm-2-6.417v1h2v-1h-2zm2-6.417v-1h-2v1h2zm-2-6.416v1h2v-1h-2zm2-6.417v-1h-2v1h2zm-2-6.417v1h2v-1h-2zm1.468-5.888l-.383-.924-1.847.767.383.923 1.847-.766zm-4.554-1.94l.923.383.766-1.847-.923-.383-.766 1.847zM49.28 6.5h-1v2h1v-2zm-6.437 2h1v-2h-1v2zm-6.438-2h-1v2h1v-2zm-6.437 2h1v-2h-1v2zm-6.438-2h-1v2h1v-2zm-6.437 2h1v-2h-1v2zm-6.438-2h-1v2h1v-2zm-6.437 2h1v-2h-1v2zM94 57h-3.688v2H94v-2zm-11.063 0h-7.374v2h7.374v-2zm-14.75 0H64.5v2h3.688v-2zM64.5 57c-.68 0-1.325-.135-1.914-.379l-.766 1.847A6.981 6.981 0 0064.5 59v-2zm-4.621-3.086A4.982 4.982 0 0159.5 52h-2c0 .947.189 1.853.532 2.68l1.847-.766zM59.5 52v-3.208h-2V52h2zm0-9.625v-6.417h-2v6.417h2zm0-12.833v-6.417h-2v6.417h2zm0-12.834V13.5h-2v3.208h2zm0-3.208c0-.947-.189-1.853-.532-2.68l-1.847.766A4.98 4.98 0 0157.5 13.5h2zm-4.32-6.468A6.982 6.982 0 0052.5 6.5v2c.68 0 1.325.135 1.914.379l.766-1.847zM52.5 6.5h-3.219v2H52.5v-2zm-9.656 0h-6.438v2h6.438v-2zm-12.875 0H23.53v2h6.438v-2zm-12.875 0h-6.438v2h6.438v-2zm-12.875 0H1v2h3.219v-2z" fill="#EFB306"/></svg>