<svg width="34" height="42" viewBox="0 0 34 42" fill="none" xmlns="http://www.w3.org/2000/svg"><g filter="url(#filter0_di)"><path d="M22.328 25.626l-5.323-4.048-5.217 4.046c-.436.335-.69.853-.69 1.403v2.235h11.935V27.04a1.79 1.79 0 00-.705-1.414z" fill="url(#paint0_linear)"/><path d="M9.624 9H24.31a.1.1 0 01.1.1v2.62a.1.1 0 01-.1.1H9.624a.1.1 0 01-.1-.1V9.1a.1.1 0 01.1-.1z" fill="url(#paint1_linear)"/><path d="M9.624 30.18H24.31a.1.1 0 01.1.1v2.62a.1.1 0 01-.1.1H9.624a.1.1 0 01-.1-.1v-2.62a.1.1 0 01.1-.1z" fill="url(#paint2_linear)"/><path d="M11.033 14.791c0 .54.246 1.051.67 1.387l5.296 4.235 5.298-4.235a1.77 1.77 0 00.67-1.387v-2.053H11.033v2.053z" fill="url(#paint3_linear)"/></g><defs><linearGradient id="paint0_linear" x1="17.092" y1="28.109" x2="17.148" y2="20.938" gradientUnits="userSpaceOnUse"><stop stop-color="#5E5E5E"/><stop offset="1" stop-color="#fff"/></linearGradient><linearGradient id="paint1_linear" x1="17" y1="11.397" x2="17.006" y2="8.765" gradientUnits="userSpaceOnUse"><stop stop-color="#5E5E5E"/><stop offset="1" stop-color="#fff"/></linearGradient><linearGradient id="paint2_linear" x1="17" y1="32.576" x2="17.006" y2="29.945" gradientUnits="userSpaceOnUse"><stop stop-color="#5E5E5E"/><stop offset="1" stop-color="#fff"/></linearGradient><linearGradient id="paint3_linear" x1="17.026" y1="19.262" x2="17.082" y2="12.099" gradientUnits="userSpaceOnUse"><stop stop-color="#5E5E5E"/><stop offset="1" stop-color="#fff"/></linearGradient><filter id="filter0_di" x="-4" y="0" width="42" height="42" filterUnits="userSpaceOnUse" color-interpolation-filters="sRGB"><feFlood flood-opacity="0" result="BackgroundImageFix"/><feColorMatrix in="SourceAlpha" values="0 0 0 0 0 0 0 0 0 0 0 0 0 0 0 0 0 0 127 0" result="hardAlpha"/><feOffset/><feGaussianBlur stdDeviation="4.5"/><feColorMatrix values="0 0 0 0 0 0 0 0 0 0 0 0 0 0 0 0 0 0 0.5 0"/><feBlend in2="BackgroundImageFix" result="effect1_dropShadow"/><feBlend in="SourceGraphic" in2="effect1_dropShadow" result="shape"/><feColorMatrix in="SourceAlpha" values="0 0 0 0 0 0 0 0 0 0 0 0 0 0 0 0 0 0 127 0" result="hardAlpha"/><feOffset dx=".5" dy=".5"/><feComposite in2="hardAlpha" operator="arithmetic" k2="-1" k3="1"/><feColorMatrix values="0 0 0 0 1 0 0 0 0 1 0 0 0 0 1 0 0 0 1 0"/><feBlend in2="shape" result="effect2_innerShadow"/></filter></defs></svg>