<svg width="42" height="42" viewBox="0 0 42 42" fill="none" xmlns="http://www.w3.org/2000/svg"><g filter="url(#filter0_i)"><path fill-rule="evenodd" clip-rule="evenodd" d="M21 39.667c10.31 0 18.667-8.358 18.667-18.667 0-10.31-8.358-18.667-18.667-18.667C10.69 2.333 2.333 10.691 2.333 21c0 10.31 8.358 18.667 18.667 18.667zM21 42c11.598 0 21-9.402 21-21S32.598 0 21 0 0 9.402 0 21s9.402 21 21 21z" fill="url(#paint0_linear)"/></g><g clip-path="url(#clip0)" filter="url(#filter1_di)"><path d="M14.884 26.3a3.17 3.17 0 01-.263-.3l-2.588 2.588 1.562 1.561 2.588-2.588a3.158 3.158 0 01-.3-.263l-.999-.998z" fill="url(#paint1_linear)"/><path d="M27.378 25.999c-.08.104-.168.205-.264.3l-.997.998a3.185 3.185 0 01-.3.264l2.587 2.587 1.561-1.561-2.587-2.588z" fill="url(#paint2_linear)"/><path d="M21.932 26.798l.109.109a2.055 2.055 0 002.906 0l1.776-1.777a2.055 2.055 0 000-2.906l-.108-.108-1.174 1.17-1.322-1.321-2.342 2.342 1.322 1.322-1.167 1.17z" fill="url(#paint3_linear)"/><path d="M20.218 18.06l-3.288-3.288a10.933 10.933 0 00-5.079-2.876l-.185-.046.046.185a10.932 10.932 0 002.876 5.079l3.288 3.288 2.342-2.342z" fill="url(#paint4_linear)"/><path d="M27.411 17.114a10.933 10.933 0 002.876-5.08l.047-.184-.186.046a10.932 10.932 0 00-5.079 2.876l-8.514 8.514-1.17-1.171-.11.108a2.055 2.055 0 000 2.906l1.779 1.779a2.055 2.055 0 002.906 0l.109-.109-1.171-1.17 8.513-8.515z" fill="url(#paint5_linear)"/></g><defs><linearGradient id="paint0_linear" x1="21.093" y1="35.7" x2="21.564" y2="-3.494" gradientUnits="userSpaceOnUse"><stop stop-color="#5E5E5E"/><stop offset="1" stop-color="#fff"/></linearGradient><linearGradient id="paint1_linear" x1="14.117" y1="29.527" x2="14.164" y2="25.655" gradientUnits="userSpaceOnUse"><stop stop-color="#5E5E5E"/><stop offset="1" stop-color="#fff"/></linearGradient><linearGradient id="paint2_linear" x1="27.9" y1="29.526" x2="27.947" y2="25.654" gradientUnits="userSpaceOnUse"><stop stop-color="#5E5E5E"/><stop offset="1" stop-color="#fff"/></linearGradient><linearGradient id="paint3_linear" x1="24.563" y1="26.677" x2="24.626" y2="21.504" gradientUnits="userSpaceOnUse"><stop stop-color="#5E5E5E"/><stop offset="1" stop-color="#fff"/></linearGradient><linearGradient id="paint4_linear" x1="15.961" y1="19.119" x2="16.057" y2="11.138" gradientUnits="userSpaceOnUse"><stop stop-color="#5E5E5E"/><stop offset="1" stop-color="#fff"/></linearGradient><linearGradient id="paint5_linear" x1="22.538" y1="25.161" x2="22.714" y2="10.547" gradientUnits="userSpaceOnUse"><stop stop-color="#5E5E5E"/><stop offset="1" stop-color="#fff"/></linearGradient><filter id="filter0_i" x="0" y="0" width="42.5" height="42.5" filterUnits="userSpaceOnUse" color-interpolation-filters="sRGB"><feFlood flood-opacity="0" result="BackgroundImageFix"/><feBlend in="SourceGraphic" in2="BackgroundImageFix" result="shape"/><feColorMatrix in="SourceAlpha" values="0 0 0 0 0 0 0 0 0 0 0 0 0 0 0 0 0 0 127 0" result="hardAlpha"/><feOffset dx=".5" dy=".5"/><feGaussianBlur stdDeviation="1"/><feComposite in2="hardAlpha" operator="arithmetic" k2="-1" k3="1"/><feColorMatrix values="0 0 0 0 0.116667 0 0 0 0 0.116667 0 0 0 0 0.116667 0 0 0 0.76 0"/><feBlend in2="shape" result="effect1_innerShadow"/></filter><filter id="filter1_di" x="2.666" y="2.667" width="36.666" height="36.667" filterUnits="userSpaceOnUse" color-interpolation-filters="sRGB"><feFlood flood-opacity="0" result="BackgroundImageFix"/><feColorMatrix in="SourceAlpha" values="0 0 0 0 0 0 0 0 0 0 0 0 0 0 0 0 0 0 127 0" result="hardAlpha"/><feOffset/><feGaussianBlur stdDeviation="4.5"/><feColorMatrix values="0 0 0 0 0 0 0 0 0 0 0 0 0 0 0 0 0 0 0.5 0"/><feBlend in2="BackgroundImageFix" result="effect1_dropShadow"/><feBlend in="SourceGraphic" in2="effect1_dropShadow" result="shape"/><feColorMatrix in="SourceAlpha" values="0 0 0 0 0 0 0 0 0 0 0 0 0 0 0 0 0 0 127 0" result="hardAlpha"/><feOffset dx=".5" dy=".5"/><feComposite in2="hardAlpha" operator="arithmetic" k2="-1" k3="1"/><feColorMatrix values="0 0 0 0 1 0 0 0 0 1 0 0 0 0 1 0 0 0 1 0"/><feBlend in2="shape" result="effect2_innerShadow"/></filter><clipPath id="clip0"><path fill="#fff" transform="translate(11.666 11.667)" d="M0 0h18.667v18.667H0z"/></clipPath></defs></svg>