<svg width="72" height="37" viewBox="0 0 72 37" fill="none" xmlns="http://www.w3.org/2000/svg"><path d="M20.276 28.254h-7.574V17.45H7.788v10.817H0V.388h7.788V10.75h4.914V.388h7.574v27.866zm34.588.132a14.305 14.305 0 0010.012-4.255 14.335 14.335 0 004.133-10.073 14.157 14.157 0 00-3.118-8.775 14.12 14.12 0 00-17.137-3.887 14.141 14.141 0 00-6.592 6.573c0-3.474-3.411-7.581-7.419-7.581H21.838v27.866h12.034A8.344 8.344 0 0039.594 26a8.361 8.361 0 002.627-5.565 14.19 14.19 0 005.192 5.776 14.17 14.17 0 007.45 2.176zM32.81 17.043a2.217 2.217 0 011.992 2.388 2.222 2.222 0 01-1.992 2.388h-3.78v-4.764l3.78-.012zm0-10.459a2.218 2.218 0 011.992 2.388 2.222 2.222 0 01-1.992 2.388h-3.769V6.584h3.769zm5.093 7.51a5.962 5.962 0 002.85-1.755 12.878 12.878 0 000 3.892 5.343 5.343 0 00-2.874-2.137h.024zm9.84 0a7.098 7.098 0 014.365-6.548 7.077 7.077 0 017.716 1.521 7.094 7.094 0 01-4.961 12.12 7.08 7.08 0 01-5.01-2.078c-1.328-1.33-2.11-3.134-2.11-5.015zm7.12 5.576a5.566 5.566 0 005.146-3.442 5.582 5.582 0 00-1.208-6.076 5.568 5.568 0 00-9.508 3.942c0 1.479.587 2.897 1.631 3.943a5.567 5.567 0 003.939 1.633zM0 31.466h.99v2.137h2.445v-2.137h.978v5.349h-.978v-2.28H.99v2.28H0v-5.35zm7.872-.119a2.79 2.79 0 012.79 2.794 2.795 2.795 0 01-2.79 2.793 2.778 2.778 0 01-2.78-2.782 2.784 2.784 0 012.78-2.781v-.024zm0 4.656a1.846 1.846 0 001.725-1.126 1.852 1.852 0 00-1.332-2.538 1.848 1.848 0 00-2.218 1.813 1.864 1.864 0 001.825 1.827m3.566-4.632l2.373 2.411 2.374-2.411v5.456h-.99v-3.295L13.81 34.94l-1.395-1.432v3.295h-.978v-5.456zm5.82.119h4.103v.931h-3.113v1.206h2.17v.931h-2.17v1.337h3.113v.944h-4.103v-5.35zm7.002 0h2.85a1.407 1.407 0 011.515 1.42 1.123 1.123 0 01-.656 1.063 1.312 1.312 0 01.954 1.302 1.53 1.53 0 01-1.646 1.552h-3.018v-5.337zm.99 2.137h1.753a.61.61 0 100-1.194h-1.754v1.194zm0 2.269h1.943a.68.68 0 100-1.338H25.25v1.338zm6.953-4.525a2.777 2.777 0 012.507 1.773 2.784 2.784 0 01-2.079 3.741 2.776 2.776 0 01-2.828-1.196 2.785 2.785 0 01-.463-1.536 2.797 2.797 0 011.775-2.592 2.79 2.79 0 011.088-.19zm0 4.632a1.848 1.848 0 001.84-2.197 1.85 1.85 0 00-2.518-1.365 1.849 1.849 0 00-.61 3.008c.34.346.803.545 1.288.554m4.687-1.839l-1.646-2.674h1.169l1.038 1.815 1.097-1.815h1.097l-1.634 2.674 1.634 2.675h-1.169L37.45 35l-1.097 1.815h-1.109l1.646-2.675zm8.158-2.793a2.777 2.777 0 012.507 1.773 2.784 2.784 0 01-2.078 3.741 2.776 2.776 0 01-2.828-1.196 2.783 2.783 0 01-.464-1.536 2.797 2.797 0 011.776-2.592c.346-.135.715-.2 1.087-.19zm0 4.632a1.848 1.848 0 001.84-2.197 1.852 1.852 0 00-1.447-1.467 1.847 1.847 0 00-1.681 3.11c.34.346.803.545 1.288.554m3.709-4.513h4.091v.931h-3.113v1.206h2.17v.931h-2.17v2.28h-.978v-5.348zm4.544 0h4.091v.931H54.28v1.206h2.171v.931h-2.17v2.28H53.3v-5.348zm5.451 0h-.99v5.349h.99v-5.35zm5.737 4.358a2.863 2.863 0 01-2.278 1.098 2.778 2.778 0 01-2.78-2.782 2.784 2.784 0 012.78-2.782 2.858 2.858 0 012.278 1.099l-.823.609a1.73 1.73 0 00-1.467-.776 1.847 1.847 0 00-1.7 1.844 1.852 1.852 0 001.7 1.845 1.823 1.823 0 001.479-.74l.81.585zm.524-4.358h4.103v.931h-3.112v1.206h2.17v.931h-2.17v1.337h3.112v.944h-4.103v-5.35zM67.053.292v.239h-.68v1.755H66.1V.53h-.668V.292h1.622zm.239 0h.381l.573 1.683.572-1.683h.358V2.31h-.262V.614l-.537 1.696h-.262L67.542.602V2.31h-.262l.012-2.018zm3.936 34.529v.227h-.668v1.755h-.275v-1.755h-.68v-.227h1.623z" fill="#3F4043"/></svg>