<svg width="32" height="29" viewBox="0 0 32 29" fill="none" xmlns="http://www.w3.org/2000/svg"><g filter="url(#filter0_di_506:12252)"><path fill-rule="evenodd" clip-rule="evenodd" d="M32.692 13.44a59.176 59.176 0 01-.441-.04 17.96 17.96 0 00-1.788-.112h-.018c-7.512-.028-7.521-.028-7.604-.11-.04-.04-.044-.159-.013-.269.036-.106.05-.224.032-.26-.06-.122.192-.532.814-1.321.39-.494.62-.83.62-.909-.004-.145-.341-.587-.543-.71-.079-.043-.206-.056-.277-.02-.075.03-3.758.946-8.185 2.027-5.324 1.305-8.285 1.998-8.76 2.053-.634.072-.73.1-.903.271-.198.199-.336.52-.28.648.07.175.163.206.637.213.418.011 1.744.366 9.31 2.522 4.853 1.383 8.845 2.488 8.862 2.453.022-.03.088-.035.14-.01.093.04.098.027.028-.087-.048-.084-.052-.176-.004-.242.098-.132.001-.281-.703-1.066-.434-.486-.526-.622-.577-.841-.035-.14-.126-.4-.21-.571-.126-.25-.134-.356-.072-.558l.08-.255 1.83.001h2.555c1.39-.002 3.24-.002 5.364-.003l.001-.01c-3.42-.002-5.68-.003-2.539-.004h2.54a16.157 16.157 0 00.104-2.79z" fill="#C5CAD2"/></g><defs><filter id="filter0_di_506:12252" x="-3.666" y=".668" width="45.377" height="28.219" filterUnits="userSpaceOnUse" color-interpolation-filters="sRGB"><feFlood flood-opacity="0" result="BackgroundImageFix"/><feColorMatrix in="SourceAlpha" values="0 0 0 0 0 0 0 0 0 0 0 0 0 0 0 0 0 0 127 0" result="hardAlpha"/><feOffset/><feGaussianBlur stdDeviation="4.5"/><feColorMatrix values="0 0 0 0 0 0 0 0 0 0 0 0 0 0 0 0 0 0 0.5 0"/><feBlend in2="BackgroundImageFix" result="effect1_dropShadow_506:12252"/><feBlend in="SourceGraphic" in2="effect1_dropShadow_506:12252" result="shape"/><feColorMatrix in="SourceAlpha" values="0 0 0 0 0 0 0 0 0 0 0 0 0 0 0 0 0 0 127 0" result="hardAlpha"/><feOffset dx=".5" dy=".5"/><feComposite in2="hardAlpha" operator="arithmetic" k2="-1" k3="1"/><feColorMatrix values="0 0 0 0 1 0 0 0 0 1 0 0 0 0 1 0 0 0 1 0"/><feBlend in2="shape" result="effect2_innerShadow_506:12252"/></filter></defs></svg>