<svg width="42" height="42" viewBox="0 0 42 42" fill="none" xmlns="http://www.w3.org/2000/svg"><g clip-path="url(#clip0)" filter="url(#filter0_di)"><path d="M32.633 21.011c0-.453.083-.953.17-1.48.176-1.056.374-2.252-.088-3.37-.462-1.119-1.447-1.826-2.315-2.45-.435-.313-.846-.608-1.166-.929-.342-.342-.65-.767-.976-1.216-.652-.898-1.326-1.827-2.396-2.272-1.071-.444-2.204-.266-3.3-.094-.547.086-1.064.167-1.545.167h-.006c-.454 0-.953-.083-1.481-.17-1.055-.176-2.251-.374-3.37.088-1.118.462-1.825 1.446-2.45 2.315-.312.435-.607.846-.928 1.166-.342.342-.767.65-1.216.976-.898.652-1.827 1.325-2.272 2.396-.445 1.07-.266 2.204-.094 3.3.086.55.168 1.067.167 1.55 0 .454-.083.953-.171 1.482-.175 1.055-.373 2.25.089 3.37.462 1.118 1.446 1.825 2.315 2.449.435.313.845.608 1.166.929.342.342.65.766.976 1.216.651.898 1.325 1.827 2.396 2.271 1.07.445 2.204.267 3.3.095.547-.086 1.063-.167 1.545-.167h.006c.453 0 .952.083 1.48.17.572.095 1.184.197 1.802.197.525 0 1.055-.073 1.568-.285 1.118-.462 1.826-1.447 2.45-2.315.312-.435.607-.846.928-1.166.342-.342.767-.65 1.217-.976.898-.652 1.827-1.326 2.271-2.396.445-1.07.267-2.204.095-3.3-.086-.55-.168-1.068-.167-1.55zm-18.764 6.125a9.358 9.358 0 01-1.536-2.474 9.35 9.35 0 01-.74-3.662 9.375 9.375 0 012.755-6.652A9.37 9.37 0 0121 11.593a9.35 9.35 0 013.662.74 9.358 9.358 0 012.474 1.536l-.998.999a8 8 0 00-11.27 11.27l-.999.998zm9.276-9.503a2.8 2.8 0 01.384.597 2.43 2.43 0 011.97.225 2.444 2.444 0 01.943 3.2l-1.957 3.884h-6.97l-1.958-3.884a2.444 2.444 0 01.944-3.2 2.43 2.43 0 011.97-.225 2.8 2.8 0 011.826-1.508v-1.387h1.406v1.387a2.794 2.794 0 011.442.91zm6.522 7.03a9.372 9.372 0 01-2.015 2.989A9.372 9.372 0 0121 30.407a9.35 9.35 0 01-3.662-.74 9.356 9.356 0 01-2.474-1.536l.998-.999a8 8 0 0011.27-11.27l.998-.998a9.359 9.359 0 011.537 2.474 9.35 9.35 0 01.74 3.662c0 1.27-.25 2.501-.74 3.662z" fill="url(#paint0_linear)"/><path d="M18.208 19.64a1.034 1.034 0 00-1.394 1.384l1.567 3.11h.628l-.801-4.494z" fill="url(#paint1_linear)"/><path d="M25.186 21.023a1.035 1.035 0 00-1.393-1.383l-.763 4.494h.59l1.566-3.11z" fill="url(#paint2_linear)"/><path d="M19.932 18.537a1.39 1.39 0 00-.305 1.139l.811 4.457h1.165l.77-4.455A1.392 1.392 0 0021 18.04a1.39 1.39 0 00-1.068.498z" fill="url(#paint3_linear)"/></g><defs><linearGradient id="paint0_linear" x1="21.053" y1="29.4" x2="21.322" y2="7.003" gradientUnits="userSpaceOnUse"><stop stop-color="#5E5E5E"/><stop offset="1" stop-color="#fff"/></linearGradient><linearGradient id="paint1_linear" x1="17.861" y1="23.442" x2="17.965" y2="19.144" gradientUnits="userSpaceOnUse"><stop stop-color="#5E5E5E"/><stop offset="1" stop-color="#fff"/></linearGradient><linearGradient id="paint2_linear" x1="24.168" y1="23.442" x2="24.274" y2="19.144" gradientUnits="userSpaceOnUse"><stop stop-color="#5E5E5E"/><stop offset="1" stop-color="#fff"/></linearGradient><linearGradient id="paint3_linear" x1="21.006" y1="23.219" x2="21.156" y2="17.535" gradientUnits="userSpaceOnUse"><stop stop-color="#5E5E5E"/><stop offset="1" stop-color="#fff"/></linearGradient><clipPath id="clip0"><path fill="#fff" transform="translate(9 9)" d="M0 0h24v24H0z"/></clipPath><filter id="filter0_di" x="0" y="0" width="42" height="42" filterUnits="userSpaceOnUse" color-interpolation-filters="sRGB"><feFlood flood-opacity="0" result="BackgroundImageFix"/><feColorMatrix in="SourceAlpha" values="0 0 0 0 0 0 0 0 0 0 0 0 0 0 0 0 0 0 127 0" result="hardAlpha"/><feOffset/><feGaussianBlur stdDeviation="4.5"/><feColorMatrix values="0 0 0 0 0 0 0 0 0 0 0 0 0 0 0 0 0 0 0.5 0"/><feBlend in2="BackgroundImageFix" result="effect1_dropShadow"/><feBlend in="SourceGraphic" in2="effect1_dropShadow" result="shape"/><feColorMatrix in="SourceAlpha" values="0 0 0 0 0 0 0 0 0 0 0 0 0 0 0 0 0 0 127 0" result="hardAlpha"/><feOffset dx=".5" dy=".5"/><feComposite in2="hardAlpha" operator="arithmetic" k2="-1" k3="1"/><feColorMatrix values="0 0 0 0 1 0 0 0 0 1 0 0 0 0 1 0 0 0 1 0"/><feBlend in2="shape" result="effect2_innerShadow"/></filter></defs></svg>