<svg width="42" height="42" viewBox="0 0 42 42" fill="none" xmlns="http://www.w3.org/2000/svg"><g clip-path="url(#clip0)" filter="url(#filter0_di)" fill="#EB5757"><path d="M13.138 27.816a4.075 4.075 0 01-.339-.386l-3.327 3.327 2.008 2.007 3.327-3.327a4.101 4.101 0 01-.386-.338l-1.283-1.283zM29.2 27.43a4.088 4.088 0 01-.338.386l-1.283 1.283a4.089 4.089 0 01-.386.338l3.327 3.327 2.008-2.008L29.2 27.43zm-7 1.024l.14.14a2.642 2.642 0 003.736 0l2.284-2.284a2.642 2.642 0 000-3.736l-.14-.14-1.509 1.506-1.7-1.7-3.01 3.011 1.7 1.7-1.501 1.503zM19.996 17.22l-4.227-4.227a14.057 14.057 0 00-6.531-3.697L9 9.236l.06.238a14.058 14.058 0 003.697 6.53l4.228 4.228 3.011-3.011z"/><path d="M29.243 16.005a14.057 14.057 0 003.698-6.53l.059-.24-.238.06a14.057 14.057 0 00-6.53 3.697L15.285 23.94l-1.506-1.506-.14.14a2.642 2.642 0 000 3.736l2.287 2.287a2.642 2.642 0 003.737 0l.14-.14-1.506-1.506 10.946-10.946z"/></g><defs><clipPath id="clip0"><path fill="#fff" transform="translate(9 9)" d="M0 0h24v24H0z"/></clipPath><filter id="filter0_di" x="0" y="0" width="42" height="42" filterUnits="userSpaceOnUse" color-interpolation-filters="sRGB"><feFlood flood-opacity="0" result="BackgroundImageFix"/><feColorMatrix in="SourceAlpha" values="0 0 0 0 0 0 0 0 0 0 0 0 0 0 0 0 0 0 127 0" result="hardAlpha"/><feOffset/><feGaussianBlur stdDeviation="4.5"/><feColorMatrix values="0 0 0 0 0 0 0 0 0 0 0 0 0 0 0 0 0 0 0.5 0"/><feBlend in2="BackgroundImageFix" result="effect1_dropShadow"/><feBlend in="SourceGraphic" in2="effect1_dropShadow" result="shape"/><feColorMatrix in="SourceAlpha" values="0 0 0 0 0 0 0 0 0 0 0 0 0 0 0 0 0 0 127 0" result="hardAlpha"/><feOffset dx=".5" dy=".5"/><feComposite in2="hardAlpha" operator="arithmetic" k2="-1" k3="1"/><feColorMatrix values="0 0 0 0 1 0 0 0 0 1 0 0 0 0 1 0 0 0 1 0"/><feBlend in2="shape" result="effect2_innerShadow"/></filter></defs></svg>