<svg width="35" height="10" viewBox="0 0 35 10" fill="none" xmlns="http://www.w3.org/2000/svg"><path fill-rule="evenodd" clip-rule="evenodd" d="M21.638 4.529c0 .553-.031 1.107-.093 1.63a4.3 4.3 0 01-.492 1.54 3.13 3.13 0 01-1.201 1.169 4.76 4.76 0 01-2.248.461 4.4 4.4 0 01-2.155-.461 3.05 3.05 0 01-1.17-1.17c-.277-.461-.431-.984-.493-1.538a14.477 14.477 0 01-.092-1.631c0-.493.03-.954.123-1.416.092-.523.246-1.016.524-1.477.277-.493.708-.862 1.17-1.17a4.098 4.098 0 012.093-.461c.74-.031 1.478.092 2.125.4.492.246.923.584 1.231 1.046.277.43.462.923.555 1.446.092.554.123 1.108.123 1.632zm8.62-.616l.832 2.832.03-.031s.031 0 .031.03l.862-3.046.924-3.17c0-.092.062-.185.123-.277.062-.061.154-.061.246-.061h1.478c.123 0 .216.03.216.092 0 .092 0 .154-.03.215l-2.71 8.248c-.062.215-.154.308-.247.339-.092.03-.184.03-.277.03H30.69c-.246.031-.43-.123-.492-.369L29.55 6.9l-.77-2.34h-.03l-.77 2.34-.616 1.846c-.062.277-.308.43-.585.43h-.954c-.154.032-.308-.03-.431-.122a1.041 1.041 0 01-.185-.37L22.469.56a.34.34 0 010-.246c.03-.062.092-.123.215-.123h1.478c.092 0 .185.03.277.061.062.062.123.154.123.246l.924 3.109.924 3.17h.061l.893-2.77.554-1.693-.554-1.785a.345.345 0 010-.246c.03-.062.123-.123.185-.123h1.355c.092 0 .184 0 .277.061.061.093.092.185.123.277l.954 3.416zM17.42 7.545l1.662-5.232c.062.061.092.123.123.184.154.277.277.585.308.893.031.4.062.83.062 1.262.03.43 0 .861-.062 1.292-.03.308-.154.616-.308.893-.154.215-.37.4-.615.523a2.831 2.831 0 01-1.017.185h-.154zm-1.202-.493l1.663-5.263h-.277a2.51 2.51 0 00-.954.185 1.443 1.443 0 00-.586.554 2.34 2.34 0 00-.307.923c-.062.4-.093.831-.093 1.262 0 .431.031.862.093 1.262.03.308.123.615.277.892l.184.185zm-7.543-.308l-.831-2.831L6.797.528c0-.093-.062-.185-.123-.277C6.58.189 6.489.189 6.397.189H5.042c-.062 0-.154.062-.185.123a.344.344 0 000 .246l.585 1.785-.554 1.662-.893 2.77h-.062l-.923-3.17L2.086.497c0-.092-.062-.185-.123-.246C1.87.22 1.778.189 1.686.189H.208a.208.208 0 00-.185.123.34.34 0 000 .246l2.74 8.125c.031.123.093.246.185.37.123.092.277.153.431.123h.955c.277 0 .523-.154.585-.431l.615-1.847.801-2.37h.03l.77 2.34.647 1.907c.062.216.246.4.493.37h1.047c.092 0 .184 0 .277-.031.092-.03.184-.123.246-.339l2.71-8.278c.03-.062.03-.123.03-.216 0-.061-.092-.092-.215-.092h-1.478c-.093 0-.185 0-.246.062-.062.092-.124.184-.124.277L9.6 3.698l-.862 3.046c0-.03-.031-.03-.031-.03l-.031.03z" fill="#fff"/></svg>