<svg width="159" height="33" fill="none" xmlns="http://www.w3.org/2000/svg"><path d="M0 0h29a5 5 0 015 5v23a5 5 0 01-5 5H0V0z" fill="#E33327"/><path d="M12.674 8.051C8.95 7.463 6.211 12.04 7.206 16.03 8.504 21.238 16.9 25.75 16.9 25.75s7.814-4.695 9.693-9.723c1.492-3.988-1.335-8.426-4.97-7.977-2.891.357-4.475 2.992-4.475 2.992s-1.597-2.537-4.474-2.992z" fill="#fff"/><mask id="a" style="mask-type:alpha" maskUnits="userSpaceOnUse" x="7" y="8" width="20" height="18"><path d="M12.674 8.051C8.95 7.463 6.211 12.04 7.206 16.03 8.504 21.238 16.9 25.75 16.9 25.75s7.814-4.695 9.693-9.723c1.492-3.988-1.335-8.426-4.97-7.977-2.891.357-4.475 2.992-4.475 2.992s-1.597-2.537-4.474-2.992z" fill="#fff"/></mask><g mask="url(#a)"><path fill="#E33327" d="M24 2h10v29H24z"/></g><path d="M45 22V11h7.59v2.692h-4.109v2.046h3.313v2.57H48.48V22H45zM53.817 22V11h7.79v2.677h-4.324v1.554h3.435v2.446h-3.435v1.646h4.57V22h-8.036zM63.173 22V11h4.509l1.855 5.338L71.424 11h4.416v11h-3.45v-6.492L69.89 22h-1.165l-2.454-6.492V22h-3.098zM76.853 22l3.45-11h4.493l3.435 11h-3.68l-.506-1.83h-3.466l-.49 1.83h-3.236zm5.474-8.185L81.238 17.8h2.163l-1.074-3.985zM89.21 22V11h3.48v8.308h3.987V22H89.21zM97.981 22V11h7.791v2.677h-4.325v1.554h3.435v2.446h-3.435v1.646h4.57V22h-8.036zM111.833 22l3.45-11h4.494l3.435 11h-3.681l-.506-1.83h-3.466l-.49 1.83h-3.236zm5.475-8.185l-1.089 3.985h2.162l-1.073-3.985zM124.19 22V11h4.477c1.514 0 2.653.303 3.42.908.777.595 1.166 1.482 1.166 2.661v.062c0 1.354-.619 2.313-1.856 2.877l2.5 4.492h-3.65l-2.04-3.77h-.552V22h-3.465zm3.465-6.015h.813c.951 0 1.426-.4 1.426-1.2v-.062c0-.39-.117-.672-.352-.846-.225-.174-.578-.262-1.059-.262h-.828v2.37zM134.924 22V11h4.508l1.856 5.338L143.174 11h4.416v11h-3.45v-6.492L141.64 22h-1.165l-2.454-6.492V22h-3.097zM152.099 22v-4.692L148.541 11h3.773l1.671 3.446L155.672 11H159l-3.404 6.292V22h-3.497z" fill="#000"/></svg>