<svg width="20" height="20" viewBox="0 0 20 20" fill="none" xmlns="http://www.w3.org/2000/svg">
<path fill-rule="evenodd" clip-rule="evenodd" d="M9.45225 3.87029C9.73743 2.07602 11.2696 0.688477 13.1414 0.688477C15.219 0.688477 16.8782 2.3979 16.8782 4.47554V9.45601C16.9711 9.47017 17.0623 9.49985 17.148 9.54527C17.426 9.69265 17.5999 9.98159 17.5999 10.2963V17.6923C17.5999 18.1618 17.2193 18.5423 16.7499 18.5423H3.9999C3.53046 18.5423 3.1499 18.1618 3.1499 17.6923V10.2963C3.1499 9.98159 3.32377 9.69265 3.60182 9.54527C3.87987 9.39788 4.2166 9.41619 4.47704 9.59283L4.5933 9.67169V4.72029C4.5933 4.25085 4.97386 3.87029 5.4433 3.87029H9.45225ZM9.40462 5.57029H6.2933V10.5977L7.57389 9.62055C7.86444 9.39884 8.26419 9.38768 8.56666 9.59283L9.40462 10.1612V5.57029ZM11.1046 10.1612L11.9426 9.59283C12.2307 9.39744 12.6088 9.39744 12.8968 9.59283L14.5848 10.7377L15.1782 10.3353V8.48067H13.4999C13.0305 8.48067 12.6499 8.10011 12.6499 7.63067C12.6499 7.16123 13.0305 6.78067 13.4999 6.78067H15.1782V5.81505H13.4999C13.0305 5.81505 12.6499 5.43449 12.6499 4.96505C12.6499 4.49561 13.0305 4.11505 13.4999 4.11505H15.1481C14.9807 3.12487 14.1352 2.38848 13.1414 2.38848C12.0303 2.38848 11.1046 3.30899 11.1046 4.47554V10.1612ZM15.8999 11.8999L15.0619 12.4683C14.7739 12.6637 14.3958 12.6637 14.1077 12.4683L12.4197 11.3234L10.7318 12.4683C10.4437 12.6637 10.0656 12.6637 9.77748 12.4683L8.11875 11.3432L6.68063 12.4406C6.39008 12.6623 5.99033 12.6734 5.68786 12.4683L4.97671 11.9859C4.97004 11.9815 4.96343 11.977 4.95689 11.9725L4.8499 11.8999V16.8423H15.8999V11.8999Z" fill="#EAEAEA"/>
</svg>
