<svg width="24" height="24" viewBox="0 0 24 24" fill="none" xmlns="http://www.w3.org/2000/svg">
<path d="M9.60039 2.3999H3.60039C2.93765 2.3999 2.40039 2.93716 2.40039 3.5999V9.5999C2.40039 10.2626 2.93765 10.7999 3.60039 10.7999H9.60039C10.2631 10.7999 10.8004 10.2626 10.8004 9.5999V3.5999C10.8004 2.93716 10.2631 2.3999 9.60039 2.3999Z" fill="#D7D7D7"/>
<path d="M9.60039 13.2H3.60039C2.93765 13.2 2.40039 13.7372 2.40039 14.4V20.3999C2.40039 21.0627 2.93765 21.5999 3.60039 21.5999H9.60039C10.2631 21.5999 10.8004 21.0627 10.8004 20.3999V14.4C10.8004 13.7372 10.2631 13.2 9.60039 13.2Z" fill="#D7D7D7"/>
<path d="M20.4002 2.3999H14.4002C13.7375 2.3999 13.2002 2.93716 13.2002 3.5999V9.5999C13.2002 10.2626 13.7375 10.7999 14.4002 10.7999H20.4002C21.0629 10.7999 21.6002 10.2626 21.6002 9.5999V3.5999C21.6002 2.93716 21.0629 2.3999 20.4002 2.3999Z" fill="#D7D7D7"/>
<path d="M20.4002 13.2H14.4002C13.7375 13.2 13.2002 13.7372 13.2002 14.4V20.3999C13.2002 21.0627 13.7375 21.5999 14.4002 21.5999H20.4002C21.0629 21.5999 21.6002 21.0627 21.6002 20.3999V14.4C21.6002 13.7372 21.0629 13.2 20.4002 13.2Z" fill="#D7D7D7"/>
</svg>
