<svg width="24" height="24" viewBox="0 0 24 24" fill="none" xmlns="http://www.w3.org/2000/svg">
<path d="M21.6 4.80005H7.2C6.53726 4.80005 6 4.26279 6 3.60005C6 2.93731 6.53726 2.40005 7.2 2.40005H21.6C22.2627 2.40005 22.8 2.93731 22.8 3.60005C22.8 4.26279 22.2627 4.80005 21.6 4.80005Z" fill="#D7D7D7"/>
<path d="M3.6002 3.60005C3.6002 4.26279 3.06294 4.80005 2.4002 4.80005C1.73745 4.80005 1.2002 4.26279 1.2002 3.60005C1.2002 2.93731 1.73745 2.40005 2.4002 2.40005C3.06294 2.40005 3.6002 2.93731 3.6002 3.60005Z" fill="#D7D7D7"/>
<path d="M21.6 13.2H7.2C6.53726 13.2 6 12.6627 6 12C6 11.3372 6.53726 10.7999 7.2 10.7999H21.6C22.2627 10.7999 22.8 11.3372 22.8 12C22.8 12.6627 22.2627 13.2 21.6 13.2Z" fill="#D7D7D7"/>
<path d="M3.6002 12C3.6002 12.6627 3.06294 13.2 2.4002 13.2C1.73745 13.2 1.2002 12.6627 1.2002 12C1.2002 11.3372 1.73745 10.7999 2.4002 10.7999C3.06294 10.7999 3.6002 11.3372 3.6002 12Z" fill="#D7D7D7"/>
<path d="M21.6 21.6001H7.2C6.53726 21.6001 6 21.0628 6 20.4001C6 19.7374 6.53726 19.2001 7.2 19.2001H21.6C22.2627 19.2001 22.8 19.7374 22.8 20.4001C22.8 21.0628 22.2627 21.6001 21.6 21.6001Z" fill="#D7D7D7"/>
<path d="M3.6002 20.4001C3.6002 21.0628 3.06294 21.6001 2.4002 21.6001C1.73745 21.6001 1.2002 21.0628 1.2002 20.4001C1.2002 19.7374 1.73745 19.2001 2.4002 19.2001C3.06294 19.2001 3.6002 19.7374 3.6002 20.4001Z" fill="#D7D7D7"/>
</svg>
