<svg width="20" height="20" viewBox="0 0 20 20" fill="none" xmlns="http://www.w3.org/2000/svg">
<path fill-rule="evenodd" clip-rule="evenodd" d="M13.1099 2.95843H13.2928C14.4538 2.95843 15.3982 3.90281 15.3982 5.06381C15.3982 5.24552 15.4733 5.41913 15.603 5.54006C16.2907 6.18112 16.8579 7.02752 17.2454 7.98712C17.6412 8.9675 17.85 10.0718 17.85 11.1812C17.85 12.6873 17.4805 14.1225 16.7795 15.331C16.0867 16.5252 15.0905 17.4273 13.9701 17.8659C13.7084 17.9684 13.5176 18.1747 13.4432 18.4307L13.3066 18.9007H11.5219L11.3635 18.4461C11.2776 18.1998 11.0861 18.0081 10.8369 17.92C10.5494 17.8183 10.2697 17.6864 10.0006 17.5272C9.77686 17.6597 9.54578 17.7732 9.30903 17.8659C9.04735 17.9684 8.85656 18.1747 8.78221 18.4307L8.64581 18.9007H6.86085L6.70239 18.4461C6.61655 18.1998 6.42506 18.008 6.1759 17.9199C5.01843 17.5108 3.98558 16.615 3.26348 15.4034C2.53443 14.1801 2.15027 12.7199 2.15027 11.1812C2.15027 10.0718 2.35908 8.9675 2.7549 7.98712C3.14235 7.02752 3.70962 6.18109 4.39721 5.54009C4.52699 5.41912 4.60209 5.24553 4.60209 5.06381C4.60209 3.90281 5.54647 2.95843 6.70747 2.95843H8.63176C9.15406 2.95843 9.63224 3.14997 10.0004 3.46578C10.3684 3.15 10.8463 2.95843 11.3685 2.95843H11.7932C12.0676 1.8908 13.0375 1.09912 14.19 1.09912H14.7979V2.33046H14.19C13.7284 2.33046 13.3245 2.58344 13.1099 2.95843ZM13.1889 11.1812C13.1889 12.6873 12.8194 14.1224 12.1184 15.331C11.8212 15.8433 11.4683 16.3015 11.074 16.6925C11.1312 16.7162 11.189 16.7384 11.2473 16.759C11.7191 16.9258 12.1075 17.2484 12.3546 17.6694H12.4329C12.6672 17.2402 13.048 16.9046 13.5211 16.7193C15.3317 16.0105 16.6187 13.7419 16.6186 11.1812C16.6186 9.29086 15.921 7.51997 14.7634 6.44081C14.384 6.08718 14.1668 5.58538 14.1668 5.06384C14.1668 4.58198 13.7746 4.18981 13.2928 4.18981H11.3685C11.0837 4.18981 10.8301 4.32676 10.6702 4.53884C10.7135 4.70667 10.7371 4.88249 10.7371 5.06384C10.7371 5.24556 10.8123 5.41915 10.942 5.54009C11.6296 6.18116 12.1968 7.02755 12.5843 7.98715C12.9801 8.96754 13.1889 10.0718 13.1889 11.1812ZM8.86015 16.7193C8.38709 16.9046 8.00628 17.2402 7.77195 17.6694H7.69361C7.44654 17.2484 7.05812 16.9258 6.5863 16.759C4.71343 16.097 3.38165 13.8137 3.38165 11.1812C3.38165 9.29083 4.0793 7.51994 5.23689 6.44075C6.5 5.5 8.5 5.5 10.1024 6.44075L10.1555 6.49105C10.2809 6.61166 10.4006 6.74047 10.5145 6.87674C11.4236 7.9645 11.9577 9.5271 11.9577 11.1812C11.9576 13.72 10.6927 15.9716 8.90655 16.7008C8.89112 16.707 8.87565 16.7132 8.86015 16.7193Z" fill="#AFAFAF"/>
<path d="M9.88356 14.2202C10.4125 13.4283 10.701 12.3894 10.701 11.2957C10.701 10.2021 10.4125 9.16321 9.88356 8.37133C9.3148 7.51977 8.5298 7.03857 7.66964 7.03857C6.80947 7.03857 6.02451 7.51973 5.45572 8.37133C4.92682 9.16321 4.63831 10.2021 4.63831 11.2957C4.63831 12.3893 4.92682 13.4283 5.45572 14.2202C6.02451 15.0717 6.80947 15.5529 7.66964 15.5529C8.5298 15.5529 9.3148 15.0718 9.88356 14.2202ZM9.06053 9.13833C9.36955 9.59055 9.61735 10.1885 9.63896 10.8932H8.23557V8.32417C8.47693 8.4644 8.78998 8.7424 9.06053 9.13833ZM5.64047 10.8932C5.66315 10.1847 5.92447 9.58717 6.24753 9.13603C6.53085 8.74037 6.85736 8.46314 7.10371 8.32325V10.8932H5.64047ZM7.10371 14.2749C6.55994 14.0134 5.68556 13.3506 5.64067 12.1111H7.10371V14.2749ZM9.63842 12.1111C9.61367 12.7061 9.37033 13.1996 9.06547 13.575C8.79591 13.907 8.48133 14.1427 8.23557 14.2716V12.1111H9.63842Z" fill="#AFAFAF"/>
</svg>
