<svg width="20" height="20" viewBox="0 0 20 20" fill="none" xmlns="http://www.w3.org/2000/svg">
<path fill-rule="evenodd" clip-rule="evenodd" d="M13.1692 2.88003H13.3556C14.5388 2.88003 15.5013 3.83494 15.5013 5.00888C15.5013 5.19262 15.5778 5.36816 15.71 5.49044C16.4109 6.13864 16.9889 6.99448 17.3838 7.96477C17.7872 8.95608 18 10.0727 18 11.1945C18 12.7173 17.6234 14.1685 16.909 15.3905C16.203 16.598 15.1877 17.5102 14.0459 17.9537C13.7792 18.0573 13.5847 18.2659 13.5089 18.5248L13.3697 19H11.5509L11.3894 18.5403C11.3019 18.2913 11.1067 18.0975 10.8528 18.0084C10.5598 17.9055 10.2747 17.7722 10.0005 17.6112C9.77245 17.7452 9.53695 17.8599 9.29568 17.9537C9.02899 18.0573 8.83455 18.2659 8.75878 18.5248L8.61977 19H6.80067L6.63918 18.5403C6.5517 18.2913 6.35655 18.0974 6.10262 18.0083C4.92302 17.5946 3.87041 16.6888 3.1345 15.4637C2.39151 14.2268 2 12.7503 2 11.1945C2 10.0727 2.2128 8.95608 2.61619 7.96477C3.01105 6.99448 3.58917 6.13861 4.28991 5.49047C4.42218 5.36815 4.49871 5.19263 4.49871 5.00888C4.49871 3.83494 5.46116 2.88003 6.64436 2.88003H8.60545C9.13774 2.88003 9.62507 3.07371 10.0003 3.39304C10.3753 3.07374 10.8623 2.88003 11.3945 2.88003H11.8274C12.107 1.8005 13.0955 1 14.27 1H14.8895V2.24506H14.27C13.7996 2.24506 13.3879 2.50086 13.1692 2.88003ZM13.2498 11.1945C13.2498 12.7173 12.8732 14.1684 12.1588 15.3905C11.8559 15.9085 11.4962 16.3718 11.0944 16.7672C11.1527 16.7911 11.2116 16.8136 11.271 16.8344C11.7518 17.0031 12.1477 17.3293 12.3995 17.755H12.4793C12.7181 17.321 13.1062 16.9817 13.5883 16.7943C15.4335 16.0776 16.7452 13.7837 16.745 11.1945C16.745 9.28305 16.0341 7.49242 14.8544 6.40123C14.4677 6.04366 14.2464 5.53626 14.2464 5.00891C14.2464 4.52168 13.8467 4.12514 13.3556 4.12514H11.3945C11.1043 4.12514 10.8458 4.26362 10.6829 4.47806C10.727 4.64776 10.7511 4.82554 10.7511 5.00891C10.7511 5.19266 10.8277 5.36818 10.9599 5.49047C11.6606 6.13869 12.2387 6.99451 12.6336 7.96481C13.037 8.95612 13.2498 10.0727 13.2498 11.1945ZM8.83821 16.7943C8.3561 16.9817 7.96801 17.321 7.7292 17.755H7.64936C7.39757 17.3293 7.00172 17.0031 6.52087 16.8344C4.61218 16.165 3.25493 13.8563 3.25493 11.1945C3.25493 9.28302 3.96592 7.49239 5.14565 6.40117C6.43292 5.44993 8.47117 5.44993 10.1042 6.40117L10.1583 6.45203C10.2861 6.57398 10.4081 6.70423 10.5242 6.84202C11.4507 7.9419 11.995 9.52192 11.995 11.1945C11.9949 13.7616 10.7058 16.0383 8.8855 16.7756C8.86977 16.7818 8.85401 16.7881 8.83821 16.7943Z" fill="#AFAFAF"/>
<path d="M9.8812 14.2673C10.4203 13.4666 10.7143 12.4161 10.7143 11.3102C10.7143 10.2044 10.4203 9.15397 9.8812 8.35327C9.30156 7.49222 8.50154 7.00565 7.62493 7.00565C6.74831 7.00565 5.94834 7.49218 5.36867 8.35327C4.82965 9.15397 4.53563 10.2044 4.53563 11.3102C4.53563 12.416 4.82965 13.4666 5.36867 14.2673C5.94834 15.1283 6.74831 15.6149 7.62493 15.6149C8.50154 15.6149 9.30156 15.1284 9.8812 14.2673ZM9.04242 9.12882C9.35735 9.58608 9.60989 10.1907 9.63192 10.9032H8.20169V8.30558C8.44766 8.44737 8.7667 8.72847 9.04242 9.12882ZM5.55695 10.9032C5.58007 10.1868 5.84638 9.58266 6.17562 9.12649C6.46436 8.72642 6.79712 8.4461 7.04818 8.30465V10.9032H5.55695ZM7.04818 14.3226C6.49401 14.0582 5.60291 13.388 5.55716 12.1347H7.04818V14.3226ZM9.63137 12.1347C9.60614 12.7364 9.35815 13.2354 9.04746 13.6149C8.77274 13.9506 8.45215 14.189 8.20169 14.3193V12.1347H9.63137Z" fill="#AFAFAF"/>
</svg>
