<svg width="24" height="24" viewBox="0 0 24 24" fill="none" xmlns="http://www.w3.org/2000/svg">
<path fill-rule="evenodd" clip-rule="evenodd" d="M14.0003 4.64289C13.2507 4.64289 12.6431 5.25051 12.6431 6.00004C12.6431 6.74956 13.2507 7.35718 14.0003 7.35718C14.7498 7.35718 15.3574 6.74956 15.3574 6.00004C15.3574 5.25051 14.7498 4.64289 14.0003 4.64289ZM11.3574 6.00004C11.3574 4.54043 12.5407 3.35718 14.0003 3.35718C15.4599 3.35718 16.6431 4.54043 16.6431 6.00004C16.6431 7.45965 15.4599 8.64289 14.0003 8.64289C12.5407 8.64289 11.3574 7.45965 11.3574 6.00004Z" fill="#1D2620"/>
<path fill-rule="evenodd" clip-rule="evenodd" d="M3.35742 6.00003C3.35742 5.64499 3.64524 5.35718 4.00028 5.35718H12.0003C12.3553 5.35718 12.6431 5.64499 12.6431 6.00003C12.6431 6.35507 12.3553 6.64289 12.0003 6.64289H4.00028C3.64524 6.64289 3.35742 6.35507 3.35742 6.00003Z" fill="#1D2620"/>
<path fill-rule="evenodd" clip-rule="evenodd" d="M15.3574 6.00003C15.3574 5.64499 15.6452 5.35718 16.0003 5.35718H20.0003C20.3553 5.35718 20.6431 5.64499 20.6431 6.00003C20.6431 6.35507 20.3553 6.64289 20.0003 6.64289H16.0003C15.6452 6.64289 15.3574 6.35507 15.3574 6.00003Z" fill="#1D2620"/>
<path fill-rule="evenodd" clip-rule="evenodd" d="M8.00028 10.6429C7.25075 10.6429 6.64314 11.2505 6.64314 12C6.64314 12.7496 7.25075 13.3572 8.00028 13.3572C8.74981 13.3572 9.35742 12.7496 9.35742 12C9.35742 11.2505 8.74981 10.6429 8.00028 10.6429ZM5.35742 12C5.35742 10.5404 6.54067 9.35718 8.00028 9.35718C9.45989 9.35718 10.6431 10.5404 10.6431 12C10.6431 13.4596 9.45989 14.6429 8.00028 14.6429C6.54067 14.6429 5.35742 13.4596 5.35742 12Z" fill="#1D2620"/>
<path fill-rule="evenodd" clip-rule="evenodd" d="M3.35742 12C3.35742 11.645 3.64524 11.3572 4.00028 11.3572H6.00028C6.35532 11.3572 6.64314 11.645 6.64314 12C6.64314 12.3551 6.35532 12.6429 6.00028 12.6429H4.00028C3.64524 12.6429 3.35742 12.3551 3.35742 12Z" fill="#1D2620"/>
<path fill-rule="evenodd" clip-rule="evenodd" d="M9.35742 12C9.35742 11.645 9.64524 11.3572 10.0003 11.3572H20.0003C20.3553 11.3572 20.6431 11.645 20.6431 12C20.6431 12.3551 20.3553 12.6429 20.0003 12.6429H10.0003C9.64524 12.6429 9.35742 12.3551 9.35742 12Z" fill="#1D2620"/>
<path fill-rule="evenodd" clip-rule="evenodd" d="M17.0003 16.6429C16.2507 16.6429 15.6431 17.2505 15.6431 18C15.6431 18.7496 16.2507 19.3572 17.0003 19.3572C17.7498 19.3572 18.3574 18.7496 18.3574 18C18.3574 17.2505 17.7498 16.6429 17.0003 16.6429ZM14.3574 18C14.3574 16.5404 15.5407 15.3572 17.0003 15.3572C18.4599 15.3572 19.6431 16.5404 19.6431 18C19.6431 19.4596 18.4599 20.6429 17.0003 20.6429C15.5407 20.6429 14.3574 19.4596 14.3574 18Z" fill="#1D2620"/>
<path fill-rule="evenodd" clip-rule="evenodd" d="M3.35742 18C3.35742 17.645 3.64524 17.3572 4.00028 17.3572H15.0003C15.3553 17.3572 15.6431 17.645 15.6431 18C15.6431 18.3551 15.3553 18.6429 15.0003 18.6429H4.00028C3.64524 18.6429 3.35742 18.3551 3.35742 18Z" fill="#1D2620"/>
<path fill-rule="evenodd" clip-rule="evenodd" d="M18.3574 18C18.3574 17.645 18.6452 17.3572 19.0003 17.3572H20.0003C20.3553 17.3572 20.6431 17.645 20.6431 18C20.6431 18.3551 20.3553 18.6429 20.0003 18.6429H19.0003C18.6452 18.6429 18.3574 18.3551 18.3574 18Z" fill="#1D2620"/>
</svg>
