<svg width="20" height="20" viewBox="0 0 20 20"  xmlns="http://www.w3.org/2000/svg">
<path d="M15.0948 7.19993L15.0951 7.19967L15.0886 7.19353L12.6302 4.87702V2.39446C12.6302 1.99493 12.3407 1.65 11.9589 1.65H7.83168C7.44989 1.65 7.16033 1.99493 7.16033 2.39446V4.8752L4.54701 7.19147L4.54653 7.19093L4.53852 7.19997C4.41419 7.34021 4.34596 7.52811 4.34596 7.72196V17.8615C4.34596 18.2611 4.63552 18.606 5.01731 18.606H14.6161C14.9979 18.606 15.2874 18.2611 15.2874 17.8615V7.72196C15.2874 7.52815 15.2193 7.34022 15.0948 7.19993ZM5.68866 11.0013H13.9447V13.3147H5.68866V11.0013ZM11.2875 3.13892V4.44271H8.50292V3.13892H11.2875ZM7.74929 6.501H12.2109L13.9447 8.034V9.51242H5.68866V8.03908L7.74929 6.501ZM5.68866 17.1171V14.8037H13.9447V17.1171H5.68866Z" fill="#EAEAEA" stroke="#EAEAEA" stroke-width="0.2"/>
</svg>
