<svg width="16" height="16" viewBox="0 0 16 16" fill="none" xmlns="http://www.w3.org/2000/svg">
<path d="M8 9.33325C9.10457 9.33325 10 8.43782 10 7.33325C10 6.22868 9.10457 5.33325 8 5.33325C6.89543 5.33325 6 6.22868 6 7.33325C6 8.43782 6.89543 9.33325 8 9.33325Z" stroke="#1D2620" stroke-width="1.5" stroke-linecap="round" stroke-linejoin="round"/>
<path d="M11.7713 11.1047L8.94266 13.9334C8.69265 14.1831 8.35371 14.3234 8.00033 14.3234C7.64694 14.3234 7.308 14.1831 7.05799 13.9334L4.22866 11.1047C3.48281 10.3588 2.97488 9.40852 2.76912 8.37396C2.56335 7.3394 2.66899 6.26706 3.07266 5.29254C3.47634 4.31801 4.15992 3.48508 5.03698 2.89905C5.91404 2.31303 6.94517 2.00024 7.99999 2.00024C9.05481 2.00024 10.0859 2.31303 10.963 2.89905C11.8401 3.48508 12.5236 4.31801 12.9273 5.29254C13.331 6.26706 13.4366 7.3394 13.2309 8.37396C13.0251 9.40852 12.5172 10.3588 11.7713 11.1047V11.1047Z" stroke="#1D2620" stroke-width="1.5" stroke-linecap="round" stroke-linejoin="round"/>
</svg>
