<svg width="20" height="20" viewBox="0 0 20 20" fill="none" xmlns="http://www.w3.org/2000/svg">
<path d="M18.7188 8.40063C15.8818 14.4088 14.9588 14.4088 14.4081 14.4088H8.98246C7.08213 14.4088 5.62603 13.2912 5.27268 11.5604C5.26183 11.5075 4.18755 6.23444 3.91288 4.76138C3.77792 4.03909 3.43475 3.55756 2.20041 3.55756C1.63818 3.55756 1.18311 3.10249 1.18311 2.54026C1.18311 1.97802 1.63818 1.52295 2.20041 1.52295C4.24859 1.52295 5.56702 2.54026 5.91291 4.38769C6.18487 5.84515 7.25575 11.1006 7.2666 11.1541C7.48295 12.2162 8.43447 12.3749 8.98246 12.3749H14.1402C14.6943 11.7794 15.9571 9.48508 16.8788 7.53185C17.1189 7.02387 17.7259 6.80752 18.2332 7.04625C18.7418 7.28566 18.9589 7.89197 18.7188 8.40063ZM8.30426 15.0871C7.36766 15.0871 6.60875 15.846 6.60875 16.7826C6.60875 17.7192 7.36766 18.4781 8.30426 18.4781C9.24086 18.4781 9.99977 17.7192 9.99977 16.7826C9.99977 15.846 9.24086 15.0871 8.30426 15.0871ZM14.4081 15.0871C13.4715 15.0871 12.7126 15.846 12.7126 16.7826C12.7126 17.7192 13.4715 18.4781 14.4081 18.4781C15.3447 18.4781 16.1036 17.7192 16.1036 16.7826C16.1036 15.846 15.3447 15.0871 14.4081 15.0871ZM11.1276 9.55561C11.1954 9.61055 11.2789 9.637 11.3623 9.637C11.4457 9.637 11.5278 9.61055 11.5969 9.55561C11.6648 9.50203 13.5149 7.69733 14.5241 6.19578C14.6021 6.07913 14.6095 5.92993 14.5431 5.80649C14.4786 5.68374 14.3498 5.60642 14.2107 5.60642H12.7011C12.7011 5.60642 12.5539 2.69624 12.4576 2.56128C12.3179 2.36189 11.7407 2.22625 11.3616 2.22625C10.9811 2.22625 10.3938 2.36189 10.2534 2.56128C10.1578 2.69557 10.031 5.60642 10.031 5.60642H8.50162C8.36191 5.60642 8.23372 5.68374 8.16794 5.80649C8.10215 5.92993 8.10961 6.07981 8.18693 6.19578C9.19678 7.69801 11.0605 9.50203 11.1276 9.55561Z" fill="#EAEAEA"/>
<path fill-rule="evenodd" clip-rule="evenodd" d="M15.1387 14.1872C15.7854 13.743 16.8262 12.4088 18.7188 8.40063C18.9589 7.89197 18.7418 7.28566 18.2332 7.04625C17.7259 6.80752 17.1189 7.02387 16.8788 7.53185C15.9571 9.48508 14.6943 11.7794 14.1402 12.3749H8.98246C8.43447 12.3749 7.48295 12.2162 7.2666 11.1541C7.26612 11.1517 7.26348 11.1388 7.25887 11.1162C7.16103 10.6354 6.17263 5.77959 5.91291 4.38769C5.56702 2.54026 4.24859 1.52295 2.20041 1.52295C1.63818 1.52295 1.18311 1.97802 1.18311 2.54026C1.18311 3.10249 1.63818 3.55756 2.20041 3.55756C3.43475 3.55756 3.77792 4.03909 3.91288 4.76138C4.18755 6.23444 5.26183 11.5075 5.27268 11.5604C5.53278 12.8344 6.39042 13.7763 7.58293 14.1846C7.81167 14.2629 8.05273 14.3216 8.30426 14.3593C8.52283 14.392 8.7493 14.4088 8.98246 14.4088H14.4081C14.5914 14.4088 14.816 14.4088 15.1387 14.1872ZM15.1952 15.2804C14.96 15.1569 14.6922 15.0871 14.4081 15.0871C14.0367 15.0871 13.6932 15.2064 13.4139 15.4088C12.9889 15.7169 12.7126 16.2174 12.7126 16.7826C12.7126 17.7192 13.4715 18.4781 14.4081 18.4781C15.3447 18.4781 16.1036 17.7192 16.1036 16.7826C16.1036 16.1301 15.7353 15.5639 15.1952 15.2804ZM9.29844 15.4088C9.20049 15.3378 9.09464 15.2771 8.98246 15.2281C8.77479 15.1374 8.54541 15.0871 8.30426 15.0871C8.05669 15.0871 7.82153 15.1401 7.60953 15.2354C7.01948 15.5007 6.60875 16.0935 6.60875 16.7826C6.60875 17.7192 7.36766 18.4781 8.30426 18.4781C9.24086 18.4781 9.99977 17.7192 9.99977 16.7826C9.99977 16.2174 9.72342 15.7169 9.29844 15.4088ZM10.031 5.60642H8.50162C8.36191 5.60642 8.23372 5.68374 8.16794 5.80649C8.10215 5.92993 8.10961 6.07981 8.18693 6.19578C9.19678 7.69801 11.0605 9.50203 11.1276 9.55561C11.1954 9.61055 11.2789 9.637 11.3623 9.637C11.4457 9.637 11.5278 9.61055 11.5969 9.55561C11.6648 9.50203 13.5149 7.69733 14.5241 6.19578C14.6021 6.07913 14.6095 5.92993 14.5431 5.80649C14.4786 5.68374 14.3498 5.60642 14.2107 5.60642H12.7011C12.7011 5.60642 12.5539 2.69624 12.4576 2.56128C12.3179 2.36189 11.7407 2.22625 11.3616 2.22625C10.9811 2.22625 10.3938 2.36189 10.2534 2.56128C10.1578 2.69557 10.031 5.60642 10.031 5.60642ZM12.9648 6.60642H11.7504L11.7023 5.65693L11.6959 5.5338C11.6918 5.45477 11.6857 5.34154 11.6781 5.20517C11.6629 4.93214 11.6417 4.56769 11.6176 4.19992C11.5949 3.85434 11.5701 3.51253 11.5457 3.24261C11.5405 3.24181 11.5354 3.24103 11.5302 3.24029C11.4591 3.23001 11.4003 3.22625 11.3616 3.22625C11.3222 3.22625 11.2621 3.23007 11.1892 3.2405C11.1825 3.24145 11.1759 3.24244 11.1692 3.24347C11.1469 3.51205 11.1247 3.85052 11.1046 4.19275C11.083 4.56054 11.0644 4.92504 11.0511 5.19812C11.0445 5.33451 11.0392 5.44776 11.0356 5.5268L11.03 5.64954L10.9883 6.60642H9.74811C10.0725 7.00085 10.4204 7.39114 10.7429 7.73777C10.9737 7.98586 11.1866 8.20631 11.361 8.3832C11.5339 8.20664 11.7447 7.98686 11.9734 7.73964C12.2944 7.39261 12.6411 7.00163 12.9648 6.60642ZM11.0697 3.13893C11.0691 3.13974 11.0686 3.14055 11.068 3.14135ZM4.92999 4.57171C5.06768 5.30956 5.40498 6.99554 5.70741 8.49507C5.85905 9.24698 6.00252 9.95491 6.10875 10.4782L6.28643 11.3523L6.28673 11.3537C6.4598 12.2034 6.95936 12.7503 7.5408 13.051C8.07583 13.3277 8.63293 13.3749 8.98246 13.3749H14.5545C14.5293 13.3911 14.5126 13.3995 14.5042 13.4033C14.5034 13.4036 14.5033 13.404 14.5031 13.4043C14.5024 13.4064 14.5014 13.4088 14.4081 13.4088H8.98246C7.50485 13.4088 6.50065 12.576 6.25247 11.3604L6.07427 10.4839C5.9678 9.95942 5.82401 9.24975 5.67199 8.49579C5.36717 6.98401 5.03163 5.30577 4.89594 4.57807C4.81048 4.12075 4.62582 3.54399 4.10293 3.11529C3.59094 2.69553 2.92591 2.55756 2.20041 2.55756C2.19593 2.55756 2.19427 2.55686 2.1936 2.55658C2.19229 2.55602 2.1902 2.55481 2.18803 2.55264C2.18586 2.55047 2.18466 2.54841 2.1841 2.5471C2.18382 2.54642 2.18311 2.54474 2.18311 2.54026C2.18311 2.53578 2.18381 2.53412 2.18409 2.53345C2.18465 2.53213 2.18586 2.53004 2.18803 2.52787C2.1902 2.5257 2.19226 2.5245 2.19357 2.52395C2.19425 2.52366 2.19593 2.52295 2.20041 2.52295C3.06161 2.52295 3.67132 2.73571 4.08411 3.05423C4.48864 3.36638 4.79474 3.8496 4.92999 4.57171ZM14.6173 13.3302L14.8723 13.0561C15.2451 12.6554 15.7551 11.8235 16.2439 10.9516C16.7561 10.038 17.3128 8.9554 17.783 7.95887C17.7847 7.95553 17.7857 7.95463 17.7862 7.9542C17.7859 7.9544 17.7864 7.95404 17.7862 7.9542C17.7874 7.95329 17.79 7.95154 17.7927 7.95056C17.7961 7.94936 17.799 7.94908 17.8008 7.94916C17.8019 7.9492 17.8037 7.94934 17.8073 7.95104C17.8111 7.95282 17.812 7.95395 17.8123 7.95427C17.8131 7.95513 17.8143 7.95695 17.8154 7.95982C17.8159 7.96119 17.8162 7.96246 17.8164 7.9636C17.8166 7.96484 17.8166 7.9659 17.8166 7.96673M14.6173 13.3302C14.6921 13.2723 14.803 13.1721 14.9521 13.001C15.5098 12.3607 16.4016 10.966 17.8144 7.97379M8.30426 16.0871C7.91994 16.0871 7.60875 16.3982 7.60875 16.7826C7.60875 17.1669 7.91994 17.4781 8.30426 17.4781C8.68857 17.4781 8.99977 17.1669 8.99977 16.7826C8.99977 16.3982 8.68857 16.0871 8.30426 16.0871ZM14.4081 16.0871C14.0238 16.0871 13.7126 16.3982 13.7126 16.7826C13.7126 17.1669 14.0238 17.4781 14.4081 17.4781C14.7924 17.4781 15.1036 17.1669 15.1036 16.7826C15.1036 16.3982 14.7924 16.0871 14.4081 16.0871Z" fill="#EAEAEA"/>
</svg>
