<svg width="180" height="50" viewBox="0 0 180 50" fill="none" xmlns="http://www.w3.org/2000/svg">
<g clip-path="url(#clip0)">
<path fill-rule="evenodd" clip-rule="evenodd" d="M26.4445 3.42806C26.4445 4.36071 26.8642 5.54551 26.5653 6.04463C26.0529 6.90114 26.2433 7.62518 26.5941 8.493C27.0309 9.57387 27.2811 9.53957 27.821 10.3509C27.8924 10.4578 28.0506 10.6622 28.1586 10.9504C28.2424 11.1748 28.2729 11.4665 28.361 11.6995C28.5175 12.1148 28.6937 12.2661 28.6869 12.6504C28.6869 12.874 28.232 13.2783 28.232 13.5492C28.232 14.044 28.6869 14.1783 28.6869 14.6157C28.6869 15.1966 27.8649 15.5096 27.8649 16.0518C27.8386 16.5157 28.1637 16.7192 28.1637 17.0344C28.1637 17.2466 28.0614 17.4927 27.8851 17.6692C27.4638 18.091 27.5966 18.1728 27.5222 18.6441C27.3941 19.4537 26.9629 19.7941 26.6181 20.4607C26.4152 20.8525 26.2712 21.1838 25.978 21.4763C25.9363 21.5185 25.7768 21.6794 25.6112 21.8503C25.2978 22.1734 25.2037 22.2059 25.1615 22.62C25.0931 23.2812 24.7458 22.9087 24.0808 23.3373C23.7111 23.5756 23.15 24.3674 22.8568 24.3674C22.4291 24.3674 22.6014 23.5443 22.7042 23.306C22.8319 23.0095 23.3052 22.6534 23.3052 22.4016C23.3052 21.919 23.1561 21.8264 23.1561 21.3438V21.0412C23.1561 19.9186 24.7296 20.0068 24.9351 18.6072C24.9988 18.1733 24.9613 17.9759 25.0151 17.7898C25.0761 17.5785 25.2377 17.3894 25.4936 17.0554C26.0804 16.3272 25.8027 16.2375 26.0714 15.4041C26.6054 13.9779 26.9416 14.0797 25.8315 12.5144C25.4368 11.9583 25.758 11.3617 25.6113 10.6204C25.5362 10.2383 24.8001 9.85956 24.8001 9.2486C24.8001 6.9003 24.948 7.00771 23.7837 5.43847C23.4871 5.03848 23.0284 4.2515 22.7653 3.9741C22.5508 3.74843 22.3776 3.61058 22.212 3.32413C22.0826 3.09978 22.0026 2.445 21.8105 2.445C21.494 2.445 21.3621 3.38764 21.3621 3.73024V3.95724C21.3621 5.3368 22.5581 6.29555 22.5581 6.82953V6.90519C22.5581 7.62998 21.7925 7.6052 22.3328 8.79613C22.494 9.15098 22.7331 9.64661 22.8543 10.1587C22.9592 10.6014 23.0186 10.934 22.7129 11.2836C22.5693 11.4476 22.4085 11.6358 22.4085 11.8945C22.4085 12.5802 23.1398 12.6023 23.1561 13.9906C23.1712 15.2872 22.132 15.0068 22.0349 16.052V16.1277C22.0349 16.8951 22.5305 17.5608 21.9803 18.1138C21.2524 18.8452 21.2873 18.6725 21.2873 19.8316V20.0586C21.2873 20.5751 20.6033 21.4338 20.473 22.5612C20.28 23.9426 19.8544 24.1487 19.6265 25.1066C19.3642 26.2084 19.6321 26.8909 19.12 27.921C18.7688 28.6284 18.2976 29.3862 18.2976 30.4381C18.2976 30.8476 18.6158 31.239 18.7168 31.6538C18.7881 31.946 18.881 32.9095 19.1196 32.9095C19.5521 32.9095 19.7516 32.1607 19.8806 31.4759C19.9361 31.1812 20.139 30.8115 20.2163 30.6267C20.3836 30.2249 20.6424 30.0224 20.9076 29.7285C21.2494 29.3502 21.3036 29.0737 21.5443 28.6337C21.7094 28.331 21.9278 28.1223 22.2207 27.9353C22.6217 27.6792 23.117 27.4636 23.3943 27.1027C23.4768 26.9948 23.5637 26.7905 23.7352 26.6626C23.9278 26.5191 24.1238 26.5218 24.3848 26.4022C24.8194 26.2018 25.2399 25.9548 25.558 25.9548C26.2099 25.9418 26.42 26.5596 27.0426 26.5596C27.319 26.5596 27.9003 26.0666 28.3134 26.0666C29.8826 26.0666 30.8568 26.0666 31.883 27.107C32.1727 27.4 32.1586 27.4844 32.3774 27.8165C32.5356 28.0561 32.7167 28.0444 32.9278 28.2996C33.0417 28.4375 33.2524 28.7622 33.3078 28.9992C33.3577 29.2105 33.3289 29.4236 33.3762 29.6166C33.4454 29.8988 33.5684 30.0849 33.77 30.1123C33.9523 30.1375 34.1341 30.0379 34.3396 29.9835C34.6105 29.9118 35.1423 29.947 35.38 30.0727C35.5232 30.1483 35.65 30.3032 35.7919 30.6375C35.9961 31.1188 35.8198 31.1518 36.1767 31.6849C36.3306 31.9154 36.5876 32.4557 36.9092 32.4557C37.3701 32.4427 37.0937 31.7283 37.2708 31.3127C37.469 30.8479 37.7313 30.7675 37.7313 30.0366V29.8101C37.7313 29.3274 37.3907 28.9004 37.4587 28.4061C37.5357 27.8418 37.8062 27.3587 37.8062 26.9374C37.8062 26.2221 37.5482 25.9021 37.5482 25.0647C37.5482 24.3612 37.6565 23.7264 37.6565 22.9312V22.8555C37.6565 22.5438 37.3577 21.7215 37.1334 21.7215C36.8943 21.7215 36.8002 21.9407 36.7744 22.2319C36.7598 22.3976 36.7731 22.5311 36.7035 22.6885C36.6674 22.7702 36.5685 22.8641 36.5465 22.9463C36.4477 23.3189 36.3252 23.4914 36.2339 23.5715C36.0091 23.7689 35.8896 24.0068 35.8212 24.2163C35.6557 24.7224 35.8298 25.0642 35.5344 25.2194C35.3478 25.3176 35.1625 25.1563 35.0809 25.0028C35.0039 24.8575 34.9007 24.6732 34.798 24.5016C34.688 24.3172 34.5989 24.2202 34.5126 24.0693C34.3062 23.7085 34.3286 23.4623 34.5878 23.1275C34.7249 22.9497 34.945 22.7958 35.0967 22.5892C35.2145 22.4284 35.2817 22.1779 35.3482 21.9932C35.6767 21.0853 35.739 21.4219 35.7764 20.8727C35.7876 20.7071 35.6874 20.4436 35.6874 19.907C35.6874 18.7826 36.2347 18.1248 35.9502 17.2487C35.6982 16.4712 35.4669 16.0708 35.3784 15.4038C35.3535 15.2168 35.3397 15.0095 35.3397 14.7668V14.6912C35.3397 14.076 34.212 13.2094 34.2232 11.5689C34.224 11.4928 34.236 11.3589 34.0758 11.3563C33.998 11.355 33.9691 11.4259 33.9412 11.5581L33.8445 12.4234L33.8277 12.9524C33.8277 13.7203 34.2933 14.2269 34.2933 14.9177C34.2933 15.0446 34.2151 15.3408 34.1127 15.5873C34.0225 15.8043 33.9068 15.9647 33.8879 16.203C33.8367 16.8517 33.5457 17.197 33.5457 17.5639C33.5457 17.846 33.7701 18.1047 33.7701 18.2439C33.7701 18.6587 33.5452 18.8574 33.3643 19.1192C33.0904 19.5148 33.1722 19.6596 33.0827 20.1949C32.9989 20.6966 32.7392 21.0588 32.523 21.2614C32.2775 21.4909 32.0707 21.537 31.9326 21.7445C31.6687 22.1428 32.0002 22.3106 31.5475 22.7241C31.29 22.984 31.1425 23.1432 30.75 23.2785C30.6115 23.3259 30.2285 23.3968 29.8407 23.5085C29.3416 23.6529 28.8227 23.838 28.688 23.838C28.5131 23.838 28.2779 23.7367 28.2968 23.5611C28.3364 23.1902 28.7036 23.3393 28.9375 23.108C29.0725 22.9745 29.1494 22.5998 29.2586 22.3745C29.5135 21.8463 29.8304 21.5514 30.302 21.2375C30.931 20.8188 30.9598 20.7462 31.0875 19.8817C31.2028 19.1935 31.7517 18.8378 31.7517 18.3952C31.7517 17.8905 31.5238 17.716 31.6833 17.3469C31.7715 17.1421 31.9061 17.0199 32.0255 16.8669C32.3608 16.4373 32.2117 15.8908 32.1476 15.3856C32.0844 14.8882 31.9997 14.379 31.9464 14.1916C31.756 13.5216 31.4542 12.8412 31.3811 12.1181C31.3157 11.4723 30.8815 10.9371 30.7353 10.0492C30.5324 9.21581 30.2422 8.91966 29.7508 8.39962C29.3003 7.9235 29.0578 7.31084 28.7022 6.7387C28.2817 6.16043 28.274 5.33473 28.1029 4.69861C28.0225 4.26517 27.8773 3.75559 27.7586 3.36078C27.5802 2.76989 27.5329 2.34465 27.5295 1.71729C27.5269 1.29337 27.5389 0.860775 27.5673 0.485095C27.566 -0.0901559 27.2965 -0.276724 27.0931 0.376829C26.986 0.719435 27.0071 1.20206 26.9263 1.57115C26.7858 2.21028 26.4448 2.67161 26.4448 3.42778L26.4445 3.42806Z" fill="#EAEAEA"/>
<path fill-rule="evenodd" clip-rule="evenodd" d="M27.0424 28.2226C26.6723 28.2226 26.373 28.2274 26.1087 28.2026C25.6036 28.1556 25.3263 28.0253 24.7089 28.4326C24.4857 28.5756 24.1921 28.8331 23.9002 29.0465C23.6263 29.2469 23.3538 29.403 23.1427 29.563C22.936 29.72 22.6556 29.977 22.4303 30.2931C22.2588 30.5331 22.0868 30.9635 21.9416 31.2544C21.5968 31.9436 21.3621 32.5701 21.3621 33.2119V33.4384C21.3621 34.1357 21.6526 34.778 21.7563 35.4515C21.862 36.1385 21.8079 36.8377 22.1603 37.2463C22.4574 37.5906 22.7554 37.4163 23.1298 38.0316C23.2472 38.2251 23.4033 38.3816 23.5253 38.539C23.6479 38.696 23.7369 38.8542 23.8904 38.9656C24.0512 39.0812 24.2197 39.1678 24.4776 39.2152C25.1423 39.3374 25.3203 39.0682 25.7614 39.6191C25.9862 39.8996 26.0563 40.0005 26.3938 40.0152C26.6441 40.026 26.9803 39.8982 27.3367 39.7413C27.7317 39.5673 27.9265 39.6904 28.2098 39.5825C28.6544 39.4134 29.0787 39.1712 29.2313 39.0538C29.5581 38.8016 29.8887 38.5181 30.1015 38.165C30.2378 37.939 30.2954 37.6841 30.3754 37.3911C30.4433 37.1411 30.5559 36.8437 30.5559 36.5376V36.1597C30.5559 35.5145 30.2623 34.3575 29.7834 34.2658C29.2928 34.1718 29.2026 34.4058 28.6334 33.9679C28.5495 33.9031 28.4701 33.7766 28.3672 33.6671C28.2692 33.5623 28.2314 33.3857 28.0457 33.3627C27.5555 33.3023 27.2903 33.5922 27.0061 33.574C26.55 33.5445 26.3973 33.6884 26.3522 33.7227C26.193 33.8453 25.9162 34.0984 25.7718 34.438C25.5651 34.925 25.5169 35.5763 25.8083 35.555C26.2898 35.5202 26.5551 34.9237 26.9613 34.9419C27.2984 34.9572 28.0958 35.4372 28.0958 35.9124L28.0889 36.311C28.0889 36.9393 27.4402 37.1498 27.0124 37.4142C26.8977 37.485 26.5155 37.725 26.1788 37.9216C25.6281 38.2424 25.5146 38.395 25.0116 37.8585C24.7828 37.615 24.5537 37.2841 24.2807 37.0125C24.0451 36.7777 23.7871 36.6189 23.6148 36.4298C23.4311 36.2285 23.3229 36.008 23.3052 35.7924V35.0359C23.3052 34.6889 23.3328 34.5893 23.5076 34.2755C23.6344 34.0476 23.803 33.7551 23.9557 33.4664C24.1826 33.0386 24.4062 32.4629 24.4746 32.3072C24.5971 32.0289 24.9479 31.7485 25.3018 31.5232C25.6899 31.2754 26.1031 31.0789 26.5274 31.0789C26.7966 31.0789 27.0235 31.2463 27.2669 31.2463C27.7566 31.2463 28.0944 30.9937 28.6121 30.9932H29.4216C30.0282 30.9932 30.1658 31.6272 30.499 31.9837C30.8782 32.3897 30.9594 32.4529 31.1977 32.5093C31.3404 32.5432 31.579 32.4902 31.8688 32.732C32.0192 32.8576 32.146 33.7325 32.281 34.1125C32.5012 34.7386 32.8606 34.2829 32.8606 35.212C32.8606 35.7515 32.9204 36.2268 32.8932 36.6555C32.8 38.1204 32.3833 39.0482 31.5004 40.1809C31.1707 40.6044 30.3095 41.3626 29.7072 41.5005C29.0009 41.6622 29.0971 41.3674 28.3641 41.7296C27.6901 42.0622 27.8151 41.9049 27.1174 41.9049H26.8186C26.3126 41.9049 26.0662 42.2075 25.3233 42.2075H25.1741C24.6363 42.2075 24.3702 41.8706 24.0242 41.6318C23.611 41.3479 23.1059 41.4409 22.734 41.1979C22.1423 40.8105 21.7624 39.7287 21.2331 39.2383C20.8243 38.8596 20.5499 39.1474 20.2138 38.5309C19.9919 38.123 19.8965 37.7365 19.5878 37.4248C19.2796 37.113 18.9665 36.8991 18.7856 36.4739C18.6841 36.236 18.5922 35.3121 18.2146 35.3121C17.866 35.3121 17.7744 35.9321 17.7744 36.3112V37.0669C17.7744 37.7896 18.1101 37.8287 18.4669 38.1809C18.8654 38.5735 18.8677 38.827 19.0542 39.4009C19.1836 39.7987 19.3238 40.0375 19.4936 40.2092C19.8414 40.5601 20.2636 40.6166 20.6144 41.4515C21.6849 43.6519 21.8105 42.4611 22.4097 43.2646C22.7223 43.6598 22.8039 43.9794 23.3779 44.1242C24.3323 44.3746 24.4354 44.0729 25.1594 44.0729C25.6177 44.1485 26.0785 44.2577 26.542 44.2833C26.9857 44.3081 27.373 44.2494 27.8163 44.2242C28.3267 44.2159 28.5081 44.3998 28.8365 44.3998C29.4457 44.3998 30.0179 43.6093 30.5089 43.6359C30.9194 43.6581 31.2801 43.522 31.5875 43.3186C31.8119 43.1702 32.0037 42.9093 32.3519 42.7428C32.9387 42.4619 33.1942 42.3946 33.6099 41.8624C34.4026 41.2089 34.4714 40.4875 34.8592 39.9075C35.0699 39.5218 35.474 39.3084 35.7281 38.9631C36.0419 38.5379 35.9822 38.2118 35.8657 37.7388C35.7892 37.4266 35.6998 37.1401 35.659 36.8284C35.6297 36.6065 35.6164 36.464 35.6152 36.16C35.6143 35.83 35.8267 35.8809 35.788 35.0865C35.7622 33.8721 35.4948 34.0895 35.2266 33.4513C34.9987 32.909 35.0069 32.5052 34.718 31.9508C34.4045 31.3508 34.2447 31.2734 33.6565 31.0069C32.8306 30.6812 33.1212 30.7248 32.5197 30.1673C32.0108 29.7138 31.6105 29.3055 31.2352 29.0564C31.0096 28.9069 30.7971 28.8656 30.5856 28.8095C30.3865 28.7565 30.2456 28.6103 30.0573 28.5516C29.8152 28.476 29.6557 28.5886 29.2886 28.3864C29.0788 28.2704 28.844 28.1921 28.6133 28.0708C27.8914 27.6916 27.5475 28.223 27.0428 28.223L27.0424 28.2226Z" fill="#EAEAEA"/>
<path fill-rule="evenodd" clip-rule="evenodd" d="M19.493 43.795C19.493 44.1941 19.6856 44.3932 19.6998 44.635C19.7221 45.0029 19.4405 45.0624 19.6619 45.5124C19.907 46.0106 20.3902 45.9354 20.6009 46.7568C20.7806 47.4586 21.0145 47.6999 21.2874 48.2542C21.5561 48.7999 21.5961 49.4143 22.036 49.7491C22.1473 49.8339 22.3085 49.9544 22.5256 49.9709C23.6576 50.0574 23.7014 49.1952 24.3145 49.1448C24.692 49.1139 24.7091 49.3134 25.0243 49.3134C25.3033 49.3134 25.7036 48.8652 25.8764 48.6886C26.173 48.3846 26.3488 48.3834 26.7323 48.3973C27.1897 48.4133 27.3264 48.2981 27.6132 47.9138C27.8157 47.6424 27.9279 47.3402 28.1773 47.0725C28.4528 46.7029 28.9794 46.7107 28.9859 46.365C28.9859 45.9432 28.3513 46.0528 28.0985 46.1338C27.5401 46.312 27.3767 46.7072 27.0362 46.6572C26.7232 46.6667 26.5658 46.5381 26.3247 46.5263C26.114 46.5163 25.9313 46.6106 25.697 46.592C25.341 46.569 25.2895 46.129 24.6351 46.1346C24.2357 46.1381 24.0707 46.2499 23.6394 46.1877C22.9851 46.0929 23.0345 45.6281 21.8251 45.272C21.6403 45.2041 21.498 45.1007 21.3321 44.9315C21.1433 44.7402 20.9993 44.4998 20.7912 44.2854C20.6348 44.1241 20.4129 43.9932 20.2165 43.8728C20.0982 43.8006 19.9968 43.7368 19.894 43.6719C19.6524 43.5194 19.4929 43.4585 19.4929 43.795H19.493Z" fill="#EAEAEA"/>
<path fill-rule="evenodd" clip-rule="evenodd" d="M4.39497 22.7042C4.39497 21.595 5.60216 21.3011 6.17356 20.7233C6.51064 20.382 6.61593 19.9564 7.00928 19.6785C7.76208 19.1467 7.7741 19.5468 8.5174 19.3141C10.0255 18.8411 9.97176 20.0511 10.9688 20.2698C11.332 20.3498 11.5977 20.3637 11.8419 20.4903C12.3798 20.769 12.6914 21.3055 12.6914 22.2508C12.6914 22.6451 12.5423 22.6882 12.5423 23.0065C12.5423 23.3513 12.8433 23.5356 13.1399 23.5356C13.5194 23.5356 13.8875 23.1382 13.8875 22.7043C13.8875 21.9481 13.3802 21.2203 13.1782 20.7464C13.0397 20.4211 13.3092 20.3294 13.5247 20.5185C13.7585 20.7238 14.0552 21.1159 14.1536 21.2912C14.3376 21.6177 14.5366 22.0556 14.5526 22.5199C14.5887 23.6056 13.9502 24.5187 12.8386 24.5187H12.6167C11.7633 24.5187 10.8893 22.6286 8.65548 22.6286C7.73497 22.6286 7.18984 22.8382 6.62189 23.2182C6.30418 23.4308 6.22984 23.5939 5.90822 23.7818C5.63393 23.9418 5.25389 24.1582 4.97402 24.1101C4.49979 24.0283 4.39488 23.4044 4.39488 22.9757V22.7044L4.39497 22.7042ZM7.11242 17.5101C7.11242 17.9371 7.41419 18.2353 7.84324 18.3484C8.55858 18.5367 9.62779 18.355 10.2426 18.4532C11.4967 18.6536 12.841 18.8488 12.841 17.3371V16.6566C12.841 15.4791 10.7954 15.7083 9.62303 15.7457C8.84359 15.7705 8.7697 16.3466 8.41156 16.7126C8.09125 17.0401 7.11233 17.0331 7.11233 17.5101H7.11242ZM12.1789 6.91322C12.1862 6.75021 12.2258 6.6002 12.3333 6.46715C12.4932 6.2689 13.0302 5.998 13.3642 5.998C13.924 5.998 14.4395 6.37584 14.7842 6.37584H15.0086C15.4863 6.37584 15.4188 5.998 15.9802 5.998C16.6315 5.998 17.3293 6.37886 17.7609 6.78545C18.0403 7.04843 18.061 7.27976 17.7506 7.58543C17.6371 7.69718 17.2451 7.80592 17.0495 7.81242C16.5835 7.82674 16.0941 7.55066 15.7559 7.59588C15.3045 7.65675 15.2739 8.00803 15.2744 8.19026C15.2761 8.77465 15.7834 9.19943 16.727 9.62684C16.9773 9.74028 17.2718 9.85505 17.4747 10.0564C17.7808 10.3604 17.8783 10.7948 17.298 11.1856C16.678 11.603 15.8621 11.6678 14.8591 11.6678C14.4304 11.6678 13.7705 11.6277 13.369 11.6726C12.9606 11.7182 12.6287 11.8943 12.1682 11.8943C11.3802 11.8943 9.46576 11.94 9.4026 10.6847C9.38536 10.343 9.62955 10.1504 9.94167 9.84987C10.2452 9.55767 10.5074 9.28951 10.6854 9.21422C11.2194 8.97903 11.7856 8.93333 12.0311 8.45334C12.1902 8.14202 12.2452 7.89892 12.2371 7.64846C12.2297 7.42713 12.1661 7.19976 12.179 6.91322H12.1789ZM14.635 3.04966C14.1269 3.04966 13.9398 3.49667 13.4197 3.58402C12.8135 3.57704 12.6153 3.75579 12.4726 3.91145C12.2572 4.14711 12.1544 4.10405 11.8505 4.11018C11.332 4.12016 11.013 4.18282 10.7478 4.56152C10.6867 4.64887 10.5504 4.80849 10.3888 4.91675C10.2873 4.98412 10.1567 4.97941 10.0466 5.03454C9.86387 5.12622 9.70484 5.26756 9.58651 5.33276C8.51256 5.92318 9.01306 6.0632 8.72973 6.45801C8.41669 6.88193 7.8123 6.388 7.55907 7.23283C7.39957 7.58156 7.26978 7.47499 7.01478 7.64545C6.82257 7.77416 6.76714 8.03413 6.61015 8.23851C6.3626 8.56462 5.96794 8.63595 5.64204 9.21808C5.26545 9.73284 4.91206 9.73849 4.5174 10.1185C3.76161 10.9715 4.23621 10.8767 4.15972 11.4711C4.14985 11.8242 4.00329 11.9238 3.81966 12.1176C3.58748 12.3633 3.31795 12.6168 3.16319 12.7833C3.7659 12.9559 4.34681 12.9538 4.9388 13.039C5.62704 13.0641 5.95378 12.8024 7.12789 12.855C7.62354 12.855 7.87379 13.1903 8.24013 13.1903C8.60125 13.1903 8.69153 12.9646 9.06253 12.932C9.84282 12.9394 10.4249 13.1042 11.3725 13.1573L12.3178 13.1794C13.2301 13.1794 13.9679 12.836 15.0263 12.8295C15.7507 12.7856 16.5831 12.9682 17.9983 12.9525H19.2691C19.2391 13.3199 18.9235 13.6095 18.4915 13.7704C18.0986 13.9173 17.6084 13.9469 17.1493 14.043C16.7722 14.1217 16.431 14.2496 16.1579 14.3417C15.1764 14.674 13.6996 15.1448 12.4676 15.1448H8.80473C7.56392 15.1448 6.57726 14.968 5.53303 14.7496C4.92128 14.6218 3.72956 14.2148 3.03565 13.9835C2.73042 13.8817 2.45781 13.8739 2.35421 14.2531C2.29915 14.4535 2.30222 14.7009 2.30222 14.8426C2.30222 15.1317 2.34433 15.3357 2.35039 15.5313C2.36623 16.0321 2.29318 16.334 1.7597 16.7883C1.44498 17.0561 0.455342 17.5748 0.433448 18.074C0.422733 18.3228 0.556803 18.5132 0.624257 18.7293C0.710717 19.0079 0.701214 19.4324 0.627331 19.7928C0.531461 20.2602 -0.0962156 20.9084 -0.0958429 21.5199C-0.0958429 22.1999 0.528386 22.5086 0.508262 23.2121C0.489721 23.863 -0.0713396 23.9195 -0.0824266 24.4729C-0.089787 24.8351 0.221955 24.8659 0.215433 25.3886C0.209005 25.9113 -0.260472 26.2213 -0.328857 26.7031V27.1187C-0.328857 27.6091 -0.0601593 27.8487 0.225309 27.8566C0.447516 27.8627 0.669443 27.7505 0.93898 27.6166C1.16901 27.5022 1.39811 27.4044 1.58855 27.2739C1.73641 27.1726 1.86163 27.0364 1.94539 26.9547C2.17067 26.7347 2.49657 26.4929 2.96381 26.3321C3.48146 26.1538 4.62333 26.0673 5.26042 26.2887C5.53638 26.3848 5.75095 26.5222 6.04285 26.5561C6.48139 26.607 6.60735 26.4713 6.98916 26.6574C7.26857 26.7939 7.45603 26.9095 7.66277 26.9887C7.89755 27.0783 8.15162 27.1291 8.47874 27.2669C9.02815 27.4986 9.09225 27.9804 9.81105 27.9839C10.1154 27.9852 10.3713 27.9856 10.5471 28.0304C10.9689 28.1374 11.0453 28.4491 11.6451 28.4491C12.0397 28.4491 12.2126 28.2226 12.7663 28.2226C13.2882 28.2226 13.9623 28.5104 13.9623 29.0539C13.9623 29.7601 13.8101 30.4248 13.4197 30.8961C13.0969 31.2862 12.6202 31.5788 11.9442 31.5488C11.7512 31.5488 11.5892 31.4449 11.4653 31.2953C11.3238 31.1248 11.2552 30.9018 11.0995 30.7235C10.8046 30.3852 10.75 30.4062 10.3458 30.4118L10.0754 30.4148H9.70176C8.76281 30.4148 8.56641 29.3583 8.05175 29.3048C7.66007 29.2639 7.36947 29.6614 6.94863 29.6523C6.85183 29.6501 6.76118 29.6053 6.66875 29.5531C6.30633 29.3483 6.1417 28.6592 5.66533 28.6762C5.47964 28.6827 5.3206 28.8201 5.05097 28.934C4.88075 29.0061 4.73839 29.0335 4.56435 29.1166C4.23892 29.2719 4.08714 29.4319 3.87174 29.4319C3.57462 29.4319 3.49599 29.281 3.19888 29.281C2.88117 29.281 2.50803 29.3906 2.15762 29.6041C1.29647 30.1289 0.472765 31.1524 -0.00742596 31.7794C-0.12957 31.9386 -0.179415 31.9581 -0.105439 32.1425C-0.0164633 32.3638 -0.0309976 32.3821 0.216179 32.3712C0.664971 32.3502 0.790563 32.1442 1.12979 31.9733C1.27122 31.902 1.43799 31.902 1.58594 31.8376C1.77638 31.7546 1.94967 31.608 2.13927 31.5298C2.80179 31.2554 3.22347 31.2611 3.83783 31.4763C4.16112 31.5894 4.28625 31.4797 4.50678 31.5749C4.89454 31.7419 5.14172 32.3045 5.66542 32.3045H6.11384C6.73509 32.3045 7.23158 32.071 7.73162 32.4071C8.11724 32.6624 8.33908 33.1537 8.68389 33.4098C8.7329 33.4464 8.90741 33.6511 9.62797 33.8151C10.2165 33.9494 10.8803 34.5934 11.5144 34.5534C11.974 34.5247 11.9694 34.3269 12.1748 34.3269C12.4886 34.3269 12.7732 34.6282 12.7603 34.8308C12.756 35.2087 12.5531 35.2261 12.5303 35.7809C12.5217 36.1909 12.7061 36.4558 12.6167 36.8405C11.9267 36.6779 11.9503 36.9918 11.4954 36.9918H11.1966C10.6911 36.9918 10.3402 36.6244 9.8867 36.4453C9.25688 36.2079 9.03458 36.2632 8.63479 35.7275C8.17175 35.107 8.35575 34.9796 7.45593 35.0296C7.08233 35.0197 6.97919 34.8401 6.69847 34.8114C6.46322 34.7875 6.22294 34.9506 5.88977 34.9506C5.48821 34.9506 5.2879 34.5336 4.6946 34.4967C3.86913 34.5267 3.90006 34.2514 3.12416 34.2706C2.65552 34.2706 2.05449 34.7023 1.46939 34.8906C1.2428 34.9637 1.23852 35.0053 1.28799 35.2171C1.44964 35.908 1.85678 37.0558 2.09231 37.588C2.22387 37.8867 2.22648 37.8602 2.52955 37.9045C2.93931 37.9645 3.25142 38.1245 3.67916 38.1202C4.07084 38.1202 4.2432 38.0493 4.57768 38.0475C5.17526 38.0444 5.70315 38.1554 6.20487 38.4871C6.63866 38.8827 6.74832 38.7023 7.23922 38.9284C7.85572 39.2123 7.9555 39.3258 8.16094 39.3245C8.36647 39.3227 8.39908 39.2593 8.6102 39.2593C9.19921 39.2593 9.32173 39.4797 9.72626 39.688C10.2353 39.9501 10.5066 39.8211 11.0921 39.9697C11.6953 40.1228 12.0122 40.1662 12.4175 40.1502C13.1952 40.1193 13.623 40.4758 13.6699 40.8198C13.6742 41.0346 13.6515 41.0759 13.6562 41.2907C13.6407 41.5924 13.7766 41.8137 13.8126 42.0564C13.8599 42.375 13.7309 42.6117 13.5762 42.7043C13.2297 42.9117 12.5624 42.7369 12.0186 42.7369C11.6797 42.7369 11.4468 42.8125 11.2529 42.8104C10.9283 42.8065 10.5814 42.7164 9.95667 42.3299C9.51859 42.059 9.47219 42.3655 8.92837 42.0073C8.68157 41.8673 8.2951 41.5273 7.98252 41.5273C7.71727 41.5273 7.61963 41.6021 7.46488 41.5868C6.90857 41.5321 6.85528 41.2469 6.65357 40.9729C6.31611 40.5146 6.13685 40.5433 5.67809 40.6998C5.4597 40.7742 5.23703 40.8468 5.21681 40.8468C4.9511 40.8468 4.79895 40.6959 4.61876 40.6959C4.49792 40.6959 4.37112 40.7307 4.25587 40.7799C4.01252 40.8838 4.02547 41.0664 4.15357 41.3012C4.50482 41.9456 5.14107 43.1543 5.90766 43.9283C6.43434 44.46 6.67509 44.6652 7.56503 44.5031C8.3402 44.3617 8.9825 45.1557 9.4025 45.1557C9.74555 45.1557 9.82633 44.9291 10.2997 44.9291H10.3742C10.6639 44.9291 10.9184 45.1774 11.2026 45.3557C11.6382 45.6292 11.838 45.541 12.2095 45.221C12.3458 45.1032 12.4597 44.894 12.627 44.7535C13.2516 44.2283 14.0672 43.7622 14.4863 44.0936C14.6325 44.2092 14.7881 44.3892 14.7874 44.7753C14.8815 45.7171 15.6377 45.9488 15.026 46.761C14.8114 47.0171 14.5784 47.0193 14.0673 47.3376C13.6098 47.6223 13.5471 47.7384 13.2148 47.7262H12.9908C12.1499 47.7262 11.2539 47.0836 10.9728 47.0457C10.8279 47.0262 10.7583 47.1536 10.7754 47.2779C10.8185 47.591 11.3124 47.9714 11.8331 48.2332C12.0966 48.3654 12.349 48.4667 12.5119 48.5128C12.6839 48.5615 12.8619 48.5623 12.9861 48.6345C13.6461 49.0193 13.8095 49.5402 14.5605 49.5402H14.7845C15.6495 49.5402 15.6736 49.0298 16.4233 49.4115C16.7216 49.5633 17.3524 50.3428 17.7372 50.2876C18.0024 50.3019 18.1082 50.1954 18.3223 50.1489C18.4344 50.1246 18.6074 50.1232 18.7819 50.1507C18.9895 50.1828 19.2049 49.9041 19.1838 49.712C19.1838 49.3937 18.5278 48.2237 18.37 47.9549C17.947 47.2336 17.8184 46.9784 17.5398 46.0736C17.1087 44.6753 16.3391 43.7074 16.0102 42.1778C15.827 41.3248 15.9027 40.5844 15.6177 39.8535C15.324 39.1008 15.0485 38.8047 15.0059 37.7508C14.981 37.1381 15.0889 35.7903 15.1745 35.1937C15.2171 34.8955 15.3465 34.3759 15.38 34.0354C15.4131 33.7049 15.233 33.1867 15.233 32.8341C15.233 32.2615 15.4523 31.7502 15.4604 31.1741C15.4394 30.2471 15.4012 30.2301 15.7218 29.5832C15.9325 29.1583 16.1178 28.7779 16.1866 28.4305C16.3177 27.7675 16.2613 27.201 16.5318 26.5126C16.7248 26.0209 16.9131 25.8478 17.1126 25.21C17.2708 24.7034 17.239 24.0352 17.3163 23.4251C17.4173 22.626 17.5847 22.7373 18.0017 22.2712C18.3701 21.8595 18.4501 21.7481 18.4277 21.4568C18.4174 21.3246 18.3554 21.1821 18.3554 20.909V20.3956C18.3176 19.1985 19.4883 19.716 19.2243 18.2146C19.1349 17.7232 19.2132 17.2898 19.361 17.0324C19.6245 16.5738 20.0915 16.4319 20.0915 15.7915C20.0915 15.3089 19.8503 15.2159 19.8503 14.9184C19.8503 14.5154 20.3688 14.3536 20.3907 14.0871C20.4255 13.6584 20.2647 13.7166 20.2372 13.3284C20.1924 12.6888 20.1396 12.0771 20.1632 11.2901L20.1584 10.634C20.1584 10.1188 20.4766 9.85665 20.4653 9.24918C20.4615 9.05008 20.4938 8.84306 20.4408 8.6483C20.1851 7.70443 19.7457 5.86872 19.4469 4.80038C19.3223 4.35564 19.3441 3.7704 19.0664 3.23736C18.8395 2.80128 18.551 2.54772 18.223 2.52124H17.9238C17.2836 2.52124 16.8296 2.74474 16.2716 2.81598C15.2205 2.86206 15.4169 3.27034 14.6354 3.05032L14.635 3.04966Z" fill="#EAEAEA"/>
<path d="M54.96 36H58.768V29.168H63.01L66.328 36H70.64L67 28.524C68.148 28.0013 68.9927 27.2127 69.534 26.158C70.0847 25.094 70.36 23.876 70.36 22.504C70.36 20.8053 69.9447 19.3587 69.114 18.164C68.2833 16.9693 66.9627 16.232 65.152 15.952C64.8907 15.9053 64.592 15.8773 64.256 15.868C63.9293 15.8493 63.668 15.84 63.472 15.84H54.96V36ZM58.768 25.612V19.396H63.304C63.5 19.396 63.7147 19.4053 63.948 19.424C64.1813 19.4427 64.396 19.48 64.592 19.536C65.1053 19.676 65.502 19.914 65.782 20.25C66.062 20.5767 66.2533 20.9453 66.356 21.356C66.468 21.7573 66.524 22.14 66.524 22.504C66.524 22.868 66.468 23.2553 66.356 23.666C66.2533 24.0673 66.062 24.436 65.782 24.772C65.502 25.0987 65.1053 25.332 64.592 25.472C64.396 25.528 64.1813 25.5653 63.948 25.584C63.7147 25.6027 63.5 25.612 63.304 25.612H58.768ZM80.5218 36.42C82.0338 36.42 83.3638 36.084 84.5118 35.412C85.6691 34.7307 86.5698 33.7927 87.2138 32.598C87.8671 31.394 88.1938 30.008 88.1938 28.44C88.1938 26.8813 87.8718 25.5047 87.2278 24.31C86.5838 23.106 85.6831 22.1633 84.5258 21.482C83.3778 20.8007 82.0431 20.46 80.5218 20.46C79.0285 20.46 77.7078 20.796 76.5598 21.468C75.4118 22.14 74.5111 23.078 73.8578 24.282C73.2045 25.4767 72.8778 26.8627 72.8778 28.44C72.8778 29.9987 73.1951 31.38 73.8298 32.584C74.4738 33.7787 75.3698 34.7167 76.5178 35.398C77.6658 36.0793 79.0005 36.42 80.5218 36.42ZM80.5218 32.864C79.3365 32.864 78.4358 32.4673 77.8198 31.674C77.2131 30.8713 76.9098 29.7933 76.9098 28.44C76.9098 27.124 77.1991 26.06 77.7778 25.248C78.3658 24.4267 79.2805 24.016 80.5218 24.016C81.7258 24.016 82.6311 24.4173 83.2378 25.22C83.8538 26.0227 84.1618 27.096 84.1618 28.44C84.1618 29.7373 83.8585 30.8013 83.2518 31.632C82.6545 32.4533 81.7445 32.864 80.5218 32.864ZM96.7703 36.42C98.749 36.42 100.298 35.9767 101.418 35.09C102.538 34.2033 103.098 32.9853 103.098 31.436C103.098 30.26 102.734 29.3313 102.006 28.65C101.288 27.9687 100.065 27.404 98.3383 26.956C97.1623 26.6573 96.285 26.4147 95.7063 26.228C95.137 26.0413 94.759 25.8593 94.5723 25.682C94.395 25.5047 94.3063 25.2853 94.3063 25.024C94.3063 24.5853 94.5163 24.2493 94.9363 24.016C95.3657 23.7827 95.9303 23.6893 96.6303 23.736C98.1143 23.848 98.9263 24.4827 99.0663 25.64L102.958 24.94C102.762 23.568 102.09 22.4807 100.942 21.678C99.7943 20.866 98.329 20.46 96.5463 20.46C94.717 20.46 93.2563 20.8893 92.1643 21.748C91.0723 22.6067 90.5263 23.764 90.5263 25.22C90.5263 26.3773 90.9043 27.292 91.6603 27.964C92.4163 28.6267 93.7183 29.196 95.5663 29.672C96.6583 29.9613 97.461 30.1947 97.9743 30.372C98.497 30.5493 98.833 30.7313 98.9823 30.918C99.1317 31.0953 99.2063 31.3333 99.2063 31.632C99.2063 32.108 99.0197 32.4813 98.6463 32.752C98.273 33.0133 97.741 33.144 97.0503 33.144C96.2103 33.144 95.515 32.9433 94.9643 32.542C94.423 32.1407 94.073 31.5853 93.9143 30.876L90.0223 31.464C90.2743 33.0413 90.9837 34.264 92.1503 35.132C93.3263 35.9907 94.8663 36.42 96.7703 36.42ZM112.839 36.42C114.594 36.42 116.068 35.986 117.263 35.118C118.458 34.25 119.27 33.0133 119.699 31.408L115.807 30.596C115.583 31.324 115.247 31.884 114.799 32.276C114.351 32.668 113.698 32.864 112.839 32.864C111.691 32.864 110.823 32.458 110.235 31.646C109.656 30.8247 109.367 29.756 109.367 28.44C109.367 27.18 109.642 26.13 110.193 25.29C110.753 24.4407 111.635 24.016 112.839 24.016C113.539 24.016 114.164 24.2353 114.715 24.674C115.275 25.1127 115.667 25.724 115.891 26.508L119.699 25.5C119.363 23.9413 118.588 22.714 117.375 21.818C116.171 20.9127 114.678 20.46 112.895 20.46C111.355 20.46 110.02 20.8053 108.891 21.496C107.762 22.1867 106.884 23.134 106.259 24.338C105.643 25.542 105.335 26.9093 105.335 28.44C105.335 29.952 105.634 31.31 106.231 32.514C106.828 33.718 107.687 34.67 108.807 35.37C109.927 36.07 111.271 36.42 112.839 36.42ZM126.426 36.42C127.592 36.42 128.572 36.2427 129.366 35.888C130.168 35.524 130.906 34.9453 131.578 34.152V36H134.91V26.76C134.91 26.0693 134.882 25.444 134.826 24.884C134.77 24.324 134.592 23.764 134.294 23.204C133.762 22.196 132.978 21.4867 131.942 21.076C130.906 20.6653 129.72 20.46 128.386 20.46C126.566 20.46 125.128 20.852 124.074 21.636C123.019 22.42 122.3 23.4373 121.918 24.688L125.362 25.78C125.604 25.0893 126.029 24.6087 126.636 24.338C127.242 24.0673 127.826 23.932 128.386 23.932C129.282 23.932 129.949 24.1 130.388 24.436C130.826 24.7627 131.083 25.2807 131.158 25.99C129.739 26.1953 128.488 26.396 127.406 26.592C126.323 26.7787 125.418 27.0027 124.69 27.264C123.476 27.712 122.622 28.3233 122.128 29.098C121.633 29.8633 121.386 30.7733 121.386 31.828C121.386 32.668 121.577 33.438 121.96 34.138C122.352 34.8287 122.921 35.384 123.668 35.804C124.424 36.2147 125.343 36.42 126.426 36.42ZM127.238 33.424C126.584 33.424 126.066 33.2793 125.684 32.99C125.301 32.6913 125.11 32.2853 125.11 31.772C125.11 31.3893 125.231 31.0627 125.474 30.792C125.716 30.512 126.118 30.26 126.678 30.036C127.107 29.8773 127.634 29.7327 128.26 29.602C128.894 29.462 129.851 29.2847 131.13 29.07C131.12 29.434 131.092 29.8353 131.046 30.274C130.999 30.7033 130.896 31.0813 130.738 31.408C130.635 31.6227 130.439 31.8887 130.15 32.206C129.87 32.5233 129.487 32.808 129.002 33.06C128.526 33.3027 127.938 33.424 127.238 33.424ZM139.81 36H143.618V23.82H147.118V20.88H143.618V20.04C143.618 19.62 143.763 19.2607 144.052 18.962C144.341 18.654 144.785 18.5 145.382 18.5H147.118V15.42H145.242C144.878 15.42 144.439 15.4293 143.926 15.448C143.413 15.4573 142.881 15.56 142.33 15.756C141.789 15.9427 141.285 16.2973 140.818 16.82C140.463 17.212 140.216 17.6507 140.076 18.136C139.936 18.6213 139.857 19.1067 139.838 19.592C139.819 20.068 139.81 20.4973 139.81 20.88H137.43V23.82H139.81V36ZM155.832 36.42C157.288 36.42 158.627 36.0373 159.85 35.272C161.082 34.5067 161.982 33.4333 162.552 32.052L158.744 30.96C158.165 32.2293 157.12 32.864 155.608 32.864C154.572 32.864 153.755 32.5747 153.158 31.996C152.57 31.4173 152.206 30.5867 152.066 29.504H162.678C162.836 27.6747 162.65 26.0833 162.118 24.73C161.586 23.3767 160.764 22.3267 159.654 21.58C158.543 20.8333 157.194 20.46 155.608 20.46C154.114 20.46 152.794 20.8007 151.646 21.482C150.498 22.154 149.597 23.1013 148.944 24.324C148.29 25.5467 147.964 26.984 147.964 28.636C147.964 30.148 148.295 31.492 148.958 32.668C149.63 33.8347 150.554 34.754 151.73 35.426C152.915 36.0887 154.282 36.42 155.832 36.42ZM155.776 23.764C156.69 23.764 157.39 23.9927 157.876 24.45C158.37 24.9073 158.688 25.6493 158.828 26.676H152.164C152.565 24.7347 153.769 23.764 155.776 23.764Z" fill="#EAEAEA"/>
</g>
<defs>
<clipPath id="clip0">
<rect width="180" height="50" fill="white"/>
</clipPath>
</defs>
</svg>
