<svg width="86" height="24" viewBox="0 0 86 24" fill="none" xmlns="http://www.w3.org/2000/svg">
<g clip-path="url(#clip0)">
<path fill-rule="evenodd" clip-rule="evenodd" d="M12.6346 1.63765C12.6346 2.08325 12.8351 2.64932 12.6923 2.88779C12.4475 3.29702 12.5385 3.64294 12.7061 4.05757C12.9147 4.57398 13.0343 4.5576 13.2923 4.94521C13.3264 4.99631 13.4019 5.09396 13.4535 5.23167C13.4936 5.33886 13.5082 5.47824 13.5503 5.58957C13.625 5.78797 13.7092 5.86027 13.706 6.04391C13.706 6.15069 13.4886 6.34387 13.4886 6.4733C13.4886 6.70969 13.706 6.77389 13.706 6.98287C13.706 7.26041 13.3132 7.40997 13.3132 7.66901C13.3007 7.89064 13.456 7.98788 13.456 8.13847C13.456 8.23985 13.4071 8.35744 13.3229 8.44176C13.1216 8.64327 13.185 8.68234 13.1495 8.90753C13.0883 9.29433 12.8823 9.45699 12.7175 9.77545C12.6206 9.96264 12.5518 10.1209 12.4117 10.2607C12.3918 10.2809 12.3156 10.3577 12.2365 10.4394C12.0867 10.5938 12.0418 10.6093 12.0216 10.8071C11.9889 11.1231 11.823 10.9451 11.5053 11.1498C11.3286 11.2637 11.0606 11.642 10.9205 11.642C10.7161 11.642 10.7985 11.2488 10.8476 11.1349C10.9086 10.9932 11.1347 10.8231 11.1347 10.7028C11.1347 10.4722 11.0635 10.428 11.0635 10.1974V10.0528C11.0635 9.51646 11.8152 9.5586 11.9134 8.88993C11.9438 8.68261 11.926 8.5883 11.9516 8.49939C11.9808 8.39841 12.058 8.30805 12.1803 8.14851C12.4607 7.80055 12.328 7.75774 12.4563 7.35955C12.7114 6.67814 12.8721 6.72676 12.3417 5.9789C12.1532 5.71319 12.3066 5.42818 12.2365 5.07401C12.2006 4.89141 11.8489 4.71048 11.8489 4.41858C11.8489 3.29661 11.9196 3.34793 11.3633 2.59818C11.2216 2.40708 11.0025 2.03108 10.8768 1.89854C10.7743 1.79072 10.6915 1.72486 10.6124 1.588C10.5506 1.48081 10.5124 1.16797 10.4206 1.16797C10.2694 1.16797 10.2063 1.61834 10.2063 1.78203V1.89048C10.2063 2.54961 10.7778 3.00768 10.7778 3.2628V3.29895C10.7778 3.64524 10.4119 3.6334 10.6701 4.2024C10.7471 4.37194 10.8614 4.60874 10.9193 4.85342C10.9694 5.06492 10.9977 5.22384 10.8517 5.39086C10.7831 5.46919 10.7063 5.55914 10.7063 5.68272C10.7063 6.01032 11.0557 6.0209 11.0635 6.68421C11.0707 7.30368 10.5742 7.1697 10.5278 7.6691V7.70525C10.5278 8.07188 10.7646 8.38994 10.5017 8.65416C10.1539 9.0036 10.1706 8.92113 10.1706 9.47491V9.58336C10.1706 9.83011 9.84382 10.2404 9.78154 10.7791C9.68931 11.439 9.48597 11.5375 9.37709 11.9952C9.25178 12.5216 9.37976 12.8477 9.13511 13.3398C8.96729 13.6778 8.74219 14.0399 8.74219 14.5424C8.74219 14.7381 8.8942 14.9251 8.94246 15.1233C8.97655 15.2629 9.02093 15.7232 9.13493 15.7232C9.34157 15.7232 9.43687 15.3655 9.49852 15.0383C9.52501 14.8975 9.62196 14.7209 9.65891 14.6326C9.73881 14.4406 9.86247 14.3438 9.9892 14.2034C10.1525 14.0227 10.1784 13.8906 10.2934 13.6803C10.3723 13.5357 10.4766 13.436 10.6165 13.3467C10.8082 13.2243 11.0448 13.1213 11.1773 12.9489C11.2167 12.8973 11.2582 12.7997 11.3402 12.7386C11.4322 12.6701 11.5258 12.6713 11.6505 12.6142C11.8582 12.5184 12.059 12.4004 12.2111 12.4004C12.5225 12.3942 12.6229 12.6894 12.9203 12.6894C13.0524 12.6894 13.3301 12.4538 13.5275 12.4538C14.2772 12.4538 14.7427 12.4538 15.233 12.9509C15.3714 13.0909 15.3646 13.1312 15.4692 13.2899C15.5448 13.4044 15.6313 13.3988 15.7322 13.5207C15.7866 13.5866 15.8872 13.7417 15.9137 13.855C15.9376 13.9559 15.9238 14.0577 15.9464 14.15C15.9795 14.2848 16.0382 14.3737 16.1346 14.3868C16.2216 14.3988 16.3085 14.3512 16.4067 14.3253C16.5361 14.291 16.7902 14.3078 16.9038 14.3679C16.9722 14.404 17.0328 14.478 17.1006 14.6377C17.1981 14.8677 17.1139 14.8834 17.2844 15.1381C17.3579 15.2483 17.4808 15.5064 17.6344 15.5064C17.8546 15.5002 17.7225 15.1589 17.8072 14.9603C17.9018 14.7382 18.0272 14.6998 18.0272 14.3506V14.2424C18.0272 14.0118 17.8645 13.8078 17.897 13.5716C17.9337 13.302 18.0629 13.0712 18.0629 12.8699C18.0629 12.5282 17.9397 12.3753 17.9397 11.9752C17.9397 11.639 17.9915 11.3358 17.9915 10.9558V10.9197C17.9915 10.7707 17.8487 10.3779 17.7415 10.3779C17.6273 10.3779 17.5823 10.4826 17.57 10.6217C17.563 10.7009 17.5694 10.7647 17.5361 10.8398C17.5189 10.8789 17.4716 10.9238 17.4611 10.963C17.4139 11.1411 17.3554 11.2235 17.3118 11.2618C17.2044 11.3561 17.1473 11.4697 17.1146 11.5698C17.0355 11.8116 17.1187 11.9749 16.9776 12.0491C16.8884 12.096 16.7999 12.0189 16.7609 11.9456C16.7241 11.8762 16.6748 11.7881 16.6257 11.7061C16.5732 11.618 16.5306 11.5717 16.4893 11.4996C16.3907 11.3272 16.4014 11.2096 16.5253 11.0496C16.5908 10.9647 16.6959 10.8911 16.7684 10.7924C16.8247 10.7156 16.8568 10.5959 16.8886 10.5076C17.0455 10.0739 17.0753 10.2347 17.0932 9.97232C17.0985 9.89318 17.0507 9.76731 17.0507 9.51092C17.0507 8.97371 17.3121 8.65943 17.1762 8.24084C17.0558 7.86939 16.9453 7.67806 16.903 7.35941C16.8911 7.27005 16.8845 7.17101 16.8845 7.05504V7.01893C16.8845 6.725 16.3457 6.31096 16.3511 5.52717C16.3515 5.4908 16.3572 5.42683 16.2807 5.42561C16.2435 5.42498 16.2297 5.45884 16.2163 5.522L16.1701 5.93541L16.1621 6.18819C16.1621 6.55505 16.3846 6.79708 16.3846 7.12716C16.3846 7.1878 16.3472 7.32929 16.2983 7.44706C16.2552 7.55074 16.1999 7.62736 16.1909 7.74122C16.1664 8.05118 16.0274 8.21613 16.0274 8.39143C16.0274 8.52622 16.1346 8.64984 16.1346 8.71633C16.1346 8.91451 16.0271 9.00945 15.9407 9.13452C15.8099 9.32355 15.8489 9.39275 15.8062 9.64845C15.7661 9.88818 15.6421 10.0612 15.5387 10.158C15.4214 10.2677 15.3227 10.2897 15.2567 10.3888C15.1306 10.5791 15.289 10.6593 15.0727 10.8569C14.9496 10.9811 14.8792 11.0571 14.6916 11.1218C14.6255 11.1444 14.4425 11.1783 14.2572 11.2316C14.0188 11.3006 13.7708 11.3891 13.7065 11.3891C13.6229 11.3891 13.5106 11.3407 13.5196 11.2568C13.5385 11.0796 13.7139 11.1508 13.8257 11.0403C13.8902 10.9765 13.9269 10.7975 13.9791 10.6898C14.1009 10.4375 14.2523 10.2966 14.4776 10.1466C14.7781 9.94657 14.7919 9.91186 14.8529 9.49886C14.908 9.17004 15.1703 9.00009 15.1703 8.78863C15.1703 8.54747 15.0614 8.46414 15.1376 8.28775C15.1797 8.18992 15.244 8.13153 15.3011 8.05842C15.4613 7.85318 15.39 7.59207 15.3594 7.35068C15.3292 7.11307 15.2888 6.86978 15.2633 6.78024C15.1723 6.46011 15.0281 6.13502 14.9932 5.78955C14.9619 5.48103 14.7545 5.22532 14.6847 4.80111C14.5877 4.40291 14.449 4.26142 14.2143 4.01296C13.999 3.78547 13.8832 3.49276 13.7133 3.2194C13.5124 2.94312 13.5087 2.54862 13.427 2.24469C13.3885 2.0376 13.3191 1.79414 13.2624 1.60551C13.1772 1.32319 13.1546 1.12002 13.153 0.820285C13.1517 0.617744 13.1575 0.411061 13.1711 0.23157C13.1704 -0.0432725 13.0416 -0.13241 12.9445 0.179843C12.8933 0.343532 12.9034 0.57412 12.8648 0.750461C12.7977 1.05583 12.6347 1.27624 12.6347 1.63752L12.6346 1.63765Z" fill="#EAEAEA"/>
<path fill-rule="evenodd" clip-rule="evenodd" d="M12.9202 13.4839C12.7434 13.4839 12.6004 13.4862 12.4741 13.4744C12.2328 13.4519 12.1003 13.3896 11.8053 13.5843C11.6987 13.6526 11.5584 13.7756 11.419 13.8776C11.2881 13.9733 11.1579 14.0479 11.057 14.1244C10.9583 14.1994 10.8243 14.3221 10.7167 14.4732C10.6347 14.5878 10.5526 14.7935 10.4832 14.9324C10.3185 15.2617 10.2063 15.5611 10.2063 15.8677V15.9759C10.2063 16.3091 10.3451 16.6159 10.3946 16.9377C10.4451 17.266 10.4193 17.6 10.5877 17.7953C10.7296 17.9598 10.872 17.8765 11.0509 18.1705C11.107 18.2629 11.1815 18.3377 11.2399 18.4129C11.2984 18.4879 11.3409 18.5635 11.4143 18.6167C11.4911 18.6719 11.5716 18.7133 11.6948 18.7359C12.0124 18.7943 12.0975 18.6657 12.3082 18.9289C12.4156 19.0629 12.4491 19.1111 12.6103 19.1182C12.7299 19.1233 12.8906 19.0623 13.0608 18.9873C13.2496 18.9042 13.3426 18.963 13.478 18.9114C13.6904 18.8306 13.8931 18.7149 13.9661 18.6588C14.1222 18.5383 14.2801 18.4029 14.3818 18.2342C14.4469 18.1262 14.4745 18.0044 14.5126 17.8644C14.5451 17.745 14.5989 17.6029 14.5989 17.4566V17.2761C14.5989 16.9678 14.4586 16.415 14.2298 16.3712C13.9954 16.3263 13.9523 16.4381 13.6804 16.2289C13.6403 16.1979 13.6023 16.1375 13.5532 16.0852C13.5064 16.0351 13.4883 15.9507 13.3996 15.9398C13.1654 15.9109 13.0387 16.0494 12.9029 16.0407C12.6849 16.0266 12.612 16.0953 12.5904 16.1118C12.5144 16.1703 12.3822 16.2913 12.3132 16.4535C12.2144 16.6862 12.1914 16.9973 12.3306 16.9872C12.5607 16.9706 12.6874 16.6855 12.8815 16.6943C13.0425 16.7016 13.4235 16.9309 13.4235 17.1579L13.4202 17.3484C13.4202 17.6486 13.1103 17.7491 12.9059 17.8754C12.8511 17.9093 12.6685 18.024 12.5076 18.1179C12.2445 18.2712 12.1903 18.3441 11.9499 18.0878C11.8407 17.9714 11.7312 17.8133 11.6008 17.6835C11.4882 17.5713 11.3649 17.4955 11.2826 17.4051C11.1948 17.309 11.1431 17.2036 11.1347 17.1006V16.7392C11.1347 16.5734 11.1478 16.5258 11.2314 16.3759C11.292 16.267 11.3725 16.1272 11.4455 15.9893C11.5539 15.7849 11.6607 15.5098 11.6934 15.4354C11.7519 15.3025 11.9195 15.1685 12.0886 15.0609C12.274 14.9425 12.4715 14.8486 12.6742 14.8486C12.8028 14.8486 12.9112 14.9286 13.0275 14.9286C13.2614 14.9286 13.4229 14.8079 13.6702 14.8077H14.057C14.3468 14.8077 14.4125 15.1105 14.5717 15.2809C14.7529 15.4749 14.7917 15.505 14.9055 15.532C14.9737 15.5482 15.0877 15.5229 15.2262 15.6384C15.298 15.6984 15.3586 16.1164 15.4231 16.298C15.5283 16.5971 15.7001 16.3794 15.7001 16.8233C15.7001 17.0811 15.7286 17.3082 15.7156 17.513C15.6711 18.2129 15.472 18.6562 15.0501 19.1973C14.8926 19.3997 14.4812 19.7619 14.1934 19.8278C13.8559 19.9051 13.9019 19.7642 13.5517 19.9373C13.2297 20.0962 13.2894 20.021 12.956 20.021H12.8133C12.5715 20.021 12.4538 20.1656 12.0989 20.1656H12.0276C11.7706 20.1656 11.6435 20.0046 11.4782 19.8905C11.2808 19.7549 11.0394 19.7993 10.8617 19.6832C10.5791 19.4982 10.3976 18.9813 10.1447 18.747C9.94935 18.566 9.81826 18.7036 9.65765 18.409C9.55166 18.2141 9.50608 18.0295 9.35856 17.8805C9.21131 17.7316 9.06174 17.6294 8.9753 17.4262C8.92682 17.3126 8.88289 16.8711 8.70252 16.8711C8.53594 16.8711 8.49219 17.1673 8.49219 17.3485V17.7095C8.49219 18.0548 8.65257 18.0735 8.82306 18.2418C9.01345 18.4294 9.01451 18.5505 9.10363 18.8247C9.16546 19.0147 9.23245 19.1288 9.31356 19.2108C9.47973 19.3785 9.68146 19.4055 9.84906 19.8044C10.3605 20.8557 10.4205 20.2868 10.7068 20.6706C10.8562 20.8595 10.8952 21.0122 11.1694 21.0813C11.6254 21.201 11.6747 21.0569 12.0206 21.0569C12.2395 21.093 12.4597 21.1451 12.6812 21.1574C12.8931 21.1692 13.0782 21.1412 13.29 21.1291C13.5338 21.1252 13.6205 21.213 13.7774 21.213C14.0685 21.213 14.3418 20.8354 14.5764 20.8481C14.7726 20.8587 14.9449 20.7936 15.0918 20.6964C15.199 20.6256 15.2906 20.5009 15.457 20.4214C15.7374 20.2872 15.8594 20.255 16.058 20.0007C16.4368 19.6885 16.4697 19.3438 16.6549 19.0667C16.7556 18.8824 16.9487 18.7805 17.0701 18.6155C17.22 18.4123 17.1914 18.2565 17.1358 18.0305C17.0993 17.8814 17.0565 17.7445 17.037 17.5956C17.023 17.4896 17.0167 17.4215 17.0161 17.2762C17.0157 17.1186 17.1171 17.1429 17.0987 16.7633C17.0863 16.1831 16.9586 16.287 16.8304 15.9821C16.7216 15.723 16.7255 15.53 16.5874 15.2652C16.4377 14.9785 16.3613 14.9415 16.0803 14.8142C15.6857 14.6586 15.8246 14.6794 15.5372 14.4131C15.294 14.1964 15.1028 14.0013 14.9235 13.8823C14.8156 13.8108 14.7142 13.7911 14.6131 13.7643C14.518 13.739 14.4506 13.6692 14.3607 13.6411C14.245 13.605 14.1688 13.6588 13.9934 13.5622C13.8932 13.5067 13.781 13.4694 13.6708 13.4114C13.3259 13.2302 13.1616 13.4841 12.9204 13.4841L12.9202 13.4839Z" fill="#EAEAEA"/>
<path fill-rule="evenodd" clip-rule="evenodd" d="M9.31328 20.9243C9.31328 21.115 9.40529 21.2101 9.41205 21.3256C9.42274 21.5014 9.28817 21.5298 9.39398 21.7448C9.51105 21.9828 9.74195 21.9469 9.84259 22.3393C9.92846 22.6747 10.0402 22.7899 10.1706 23.0548C10.299 23.3155 10.3181 23.6091 10.5282 23.769C10.5814 23.8095 10.6584 23.8671 10.7622 23.875C11.303 23.9163 11.324 23.5044 11.6169 23.4803C11.7972 23.4655 11.8054 23.5609 11.956 23.5609C12.0893 23.5609 12.2806 23.3467 12.3631 23.2623C12.5048 23.1171 12.5888 23.1165 12.772 23.1231C12.9906 23.1308 13.0559 23.0758 13.1929 22.8921C13.2897 22.7625 13.3433 22.6181 13.4624 22.4902C13.594 22.3136 13.8457 22.3173 13.8487 22.1522C13.8487 21.9507 13.5456 22.003 13.4248 22.0417C13.158 22.1269 13.0799 22.3157 12.9173 22.2918C12.7677 22.2963 12.6925 22.2349 12.5773 22.2292C12.4767 22.2245 12.3894 22.2695 12.2774 22.2606C12.1073 22.2496 12.0827 22.0394 11.77 22.0421C11.5792 22.0438 11.5004 22.0971 11.2943 22.0674C10.9817 22.0221 11.0053 21.8001 10.4275 21.6299C10.3392 21.5975 10.2712 21.5481 10.1919 21.4673C10.1018 21.3758 10.0329 21.261 9.93353 21.1586C9.85879 21.0815 9.75276 21.019 9.65893 20.9614C9.60244 20.927 9.55396 20.8964 9.50486 20.8655C9.38944 20.7926 9.31323 20.7635 9.31323 20.9243H9.31328Z" fill="#EAEAEA"/>
<path fill-rule="evenodd" clip-rule="evenodd" d="M2.09984 10.8476C2.09984 10.3176 2.6766 10.1772 2.94961 9.90112C3.11066 9.73806 3.16096 9.53471 3.3489 9.40195C3.70857 9.14786 3.71431 9.33901 4.06944 9.22786C4.78999 9.00187 4.7643 9.57996 5.24065 9.68445C5.41421 9.72267 5.54116 9.72933 5.65783 9.78979C5.91481 9.92296 6.06371 10.1793 6.06371 10.6309C6.06371 10.8193 5.99244 10.8399 5.99244 10.992C5.99244 11.1567 6.13626 11.2448 6.27795 11.2448C6.4593 11.2448 6.63518 11.0549 6.63518 10.8476C6.63518 10.4863 6.3928 10.1386 6.29625 9.91215C6.2301 9.75675 6.35888 9.71294 6.46179 9.8033C6.57352 9.90135 6.71526 10.0887 6.76231 10.1725C6.85022 10.3284 6.9453 10.5376 6.95292 10.7595C6.97019 11.2782 6.66513 11.7145 6.13399 11.7145H6.02801C5.62026 11.7145 5.20268 10.8115 4.13541 10.8115C3.69561 10.8115 3.43516 10.9116 3.16381 11.0931C3.01201 11.1947 2.97649 11.2726 2.82283 11.3624C2.69178 11.4388 2.51021 11.5423 2.37649 11.5192C2.14991 11.4802 2.09979 11.1821 2.09979 10.9773V10.8477L2.09984 10.8476ZM3.39817 8.36592C3.39817 8.56995 3.54235 8.71244 3.74734 8.76646C4.08912 8.85641 4.59996 8.76961 4.8937 8.81652C5.49286 8.91228 6.13515 9.00556 6.13515 8.28327V7.95814C6.13515 7.39558 5.15781 7.50507 4.59769 7.52294C4.22529 7.53478 4.18999 7.81003 4.01887 7.98493C3.86584 8.14137 3.39813 8.13804 3.39813 8.36592H3.39817ZM5.81884 3.30298C5.82231 3.2251 5.84123 3.15342 5.8926 3.08986C5.96898 2.99514 6.22556 2.86571 6.38514 2.86571C6.65258 2.86571 6.89888 3.04623 7.06358 3.04623H7.17081C7.39903 3.04623 7.36676 2.86571 7.635 2.86571C7.9462 2.86571 8.27956 3.04767 8.4858 3.24193C8.61929 3.36758 8.62917 3.4781 8.48085 3.62414C8.42664 3.67754 8.23932 3.72949 8.14589 3.7326C7.92323 3.73944 7.68944 3.60753 7.52781 3.62914C7.31214 3.65822 7.29754 3.82606 7.29776 3.91312C7.29861 4.19233 7.54099 4.39528 7.99183 4.59949C8.11139 4.65369 8.2521 4.70852 8.34905 4.80473C8.49528 4.94996 8.54188 5.1575 8.26461 5.34424C7.96841 5.54367 7.57856 5.5746 7.09937 5.5746C6.89456 5.5746 6.57927 5.55547 6.38741 5.5769C6.19231 5.59869 6.0337 5.68283 5.81372 5.68283C5.43722 5.68283 4.52255 5.70466 4.49237 5.10492C4.48413 4.94163 4.6008 4.84961 4.74993 4.70605C4.89495 4.56644 5.02021 4.43832 5.10528 4.40235C5.36039 4.28998 5.6309 4.26814 5.74819 4.03882C5.82422 3.89007 5.85049 3.77392 5.84661 3.65426C5.8431 3.54851 5.81269 3.43988 5.81888 3.30298H5.81884ZM6.99231 1.45706C6.74953 1.45706 6.66015 1.67063 6.41163 1.71236C6.12202 1.70903 6.02734 1.79443 5.95914 1.8688C5.85623 1.9814 5.80713 1.96082 5.66192 1.96375C5.41421 1.96852 5.26179 1.99846 5.13506 2.17939C5.1059 2.22112 5.04078 2.29739 4.96355 2.34911C4.91507 2.3813 4.85266 2.37905 4.80005 2.40539C4.71276 2.44919 4.63677 2.51672 4.58024 2.54787C4.06713 2.82996 4.30626 2.89686 4.17089 3.08549C4.02132 3.28803 3.73256 3.05204 3.61157 3.45568C3.53536 3.6223 3.47336 3.57138 3.35152 3.65282C3.25969 3.71432 3.2332 3.83853 3.1582 3.93617C3.03993 4.09198 2.85136 4.12606 2.69566 4.40419C2.51573 4.65013 2.34689 4.65283 2.15833 4.83439C1.79723 5.24195 2.02399 5.19666 1.98744 5.48065C1.98272 5.64933 1.9127 5.69692 1.82496 5.78952C1.71404 5.90689 1.58526 6.02803 1.51132 6.10758C1.79928 6.19006 2.07682 6.18902 2.35966 6.22972C2.68849 6.24174 2.8446 6.11672 3.40556 6.14184C3.64238 6.14184 3.76194 6.30202 3.93697 6.30202C4.1095 6.30202 4.15264 6.1942 4.32989 6.17862C4.7027 6.18213 4.98082 6.26087 5.43352 6.28626L5.88521 6.29684C6.32109 6.29684 6.67355 6.13275 7.17927 6.12964C7.52536 6.10866 7.92305 6.19591 8.59922 6.18844H9.20639C9.19201 6.36397 9.04124 6.50231 8.83483 6.5792C8.64711 6.64939 8.41293 6.66352 8.19356 6.70944C8.01341 6.74703 7.85036 6.80813 7.71989 6.85215C7.25098 7.01089 6.54539 7.23585 5.95674 7.23585H4.20672C3.61389 7.23585 3.14249 7.15135 2.64357 7.04704C2.3513 6.98595 1.78192 6.79151 1.45038 6.68099C1.30455 6.63237 1.1743 6.62863 1.12481 6.80979C1.0985 6.90555 1.09997 7.02377 1.09997 7.09148C1.09997 7.2296 1.12009 7.32706 1.12298 7.42052C1.13055 7.6598 1.09565 7.804 0.840763 8.02108C0.690395 8.14902 0.217569 8.39685 0.207108 8.63536C0.201989 8.75421 0.266044 8.8452 0.298272 8.94843C0.339581 9.08155 0.335041 9.28436 0.299741 9.45656C0.253936 9.67985 -0.0459534 9.98958 -0.0457753 10.2817C-0.0457753 10.6066 0.252468 10.7541 0.242853 11.0902C0.233994 11.4012 -0.0340682 11.4282 -0.0393653 11.6926C-0.0428819 11.8657 0.106061 11.8804 0.102945 12.1301C0.099874 12.3798 -0.124431 12.5279 -0.157104 12.7581V12.9567C-0.157104 13.191 -0.0287265 13.3055 0.107664 13.3093C0.213829 13.3122 0.319862 13.2586 0.44864 13.1946C0.558545 13.1399 0.668004 13.0932 0.758991 13.0309C0.829634 12.9825 0.889461 12.9174 0.929479 12.8784C1.03711 12.7733 1.19282 12.6577 1.41606 12.5809C1.66338 12.4957 2.20894 12.4544 2.51333 12.5601C2.64518 12.6061 2.74769 12.6717 2.88715 12.6879C3.09668 12.7122 3.15686 12.6474 3.33928 12.7363C3.47278 12.8015 3.56234 12.8568 3.66112 12.8946C3.77329 12.9374 3.89468 12.9617 4.05097 13.0275C4.31347 13.1382 4.34409 13.3684 4.68752 13.3701C4.83294 13.3707 4.95518 13.3709 5.03918 13.3923C5.24069 13.4434 5.27724 13.5923 5.56377 13.5923C5.75233 13.5923 5.83491 13.4841 6.09945 13.4841C6.34882 13.4841 6.67088 13.6216 6.67088 13.8813C6.67088 14.2187 6.59819 14.5363 6.41167 14.7615C6.25743 14.9479 6.02965 15.0876 5.70671 15.0733C5.61447 15.0733 5.53706 15.0237 5.4779 14.9522C5.41029 14.8707 5.37748 14.7642 5.3031 14.679C5.16221 14.5174 5.13613 14.5274 4.94303 14.5301L4.8138 14.5315H4.6353C4.18669 14.5315 4.09286 14.0267 3.84696 14.0012C3.65983 13.9817 3.52099 14.1716 3.31992 14.1672C3.27367 14.1661 3.23036 14.1448 3.1862 14.1198C3.01304 14.022 2.93438 13.6927 2.70678 13.7008C2.61807 13.7039 2.54208 13.7696 2.41326 13.824C2.33193 13.8585 2.26392 13.8715 2.18076 13.9113C2.02528 13.9854 1.95276 14.0619 1.84985 14.0619C1.70789 14.0619 1.67032 13.9898 1.52837 13.9898C1.37658 13.9898 1.1983 14.0422 1.03088 14.1442C0.61944 14.3949 0.225893 14.8839 -0.00353168 15.1835C-0.0618894 15.2595 -0.0857043 15.2688 -0.0503603 15.357C-0.00784953 15.4627 -0.0147937 15.4714 0.103302 15.4662C0.317725 15.4562 0.37773 15.3578 0.539805 15.2761C0.607377 15.2421 0.687056 15.2421 0.757744 15.2113C0.848731 15.1717 0.931526 15.1016 1.02211 15.0642C1.33865 14.9331 1.54012 14.9358 1.83364 15.0387C1.98811 15.0927 2.04789 15.0403 2.15325 15.0858C2.33852 15.1656 2.45662 15.4344 2.70683 15.4344H2.92107C3.21789 15.4344 3.45511 15.3228 3.69401 15.4834C3.87825 15.6054 3.98424 15.8401 4.14899 15.9625C4.1724 15.9799 4.25578 16.0778 4.60005 16.1561C4.88124 16.2203 5.1984 16.5279 5.50136 16.5089C5.72095 16.4951 5.71872 16.4006 5.81688 16.4006C5.9668 16.4006 6.10279 16.5446 6.0966 16.6414C6.09456 16.8219 5.9976 16.8302 5.9867 17.0953C5.9826 17.2912 6.0707 17.4177 6.02801 17.6016C5.69834 17.5239 5.7096 17.6739 5.49228 17.6739H5.34953C5.10799 17.6739 4.94036 17.4983 4.72366 17.4128C4.42275 17.2993 4.31654 17.3257 4.12553 17.0698C3.90429 16.7733 3.99221 16.7125 3.5623 16.7364C3.38379 16.7316 3.33452 16.6458 3.2004 16.6321C3.088 16.6207 2.9732 16.6986 2.81402 16.6986C2.62216 16.6986 2.52646 16.4994 2.24299 16.4818C1.8486 16.4961 1.86338 16.3646 1.49267 16.3737C1.26876 16.3737 0.981605 16.58 0.702057 16.6699C0.5938 16.7049 0.591752 16.7248 0.615389 16.8259C0.692621 17.1561 0.887146 17.7044 0.999677 17.9587C1.06253 18.1014 1.06378 18.0888 1.20858 18.1099C1.40435 18.1386 1.55347 18.215 1.75784 18.213C1.94497 18.213 2.02732 18.1791 2.18713 18.1783C2.47264 18.1768 2.72486 18.2298 2.96456 18.3883C3.17182 18.5773 3.22421 18.4911 3.45876 18.5991C3.7533 18.7347 3.80098 18.789 3.89913 18.7884C3.99733 18.7875 4.01291 18.7572 4.11378 18.7572C4.39519 18.7572 4.45373 18.8625 4.64701 18.962C4.89023 19.0873 5.01981 19.0256 5.29958 19.0966C5.58776 19.1698 5.73916 19.1905 5.93284 19.1829C6.30439 19.1681 6.5088 19.3384 6.53119 19.5028C6.53324 19.6054 6.52238 19.6251 6.52465 19.7278C6.51726 19.8719 6.58216 19.9777 6.59939 20.0936C6.62195 20.2459 6.56035 20.3589 6.48641 20.4032C6.32086 20.5022 6.00206 20.4187 5.74223 20.4187C5.58033 20.4187 5.46905 20.4549 5.37641 20.4538C5.22133 20.452 5.05556 20.409 4.75709 20.2243C4.54779 20.0949 4.52562 20.2413 4.26579 20.0701C4.14787 20.0032 3.96323 19.8408 3.81389 19.8408C3.68716 19.8408 3.64051 19.8766 3.56657 19.8693C3.30078 19.8431 3.27531 19.7068 3.17894 19.5759C3.01771 19.357 2.93207 19.3707 2.71288 19.4455C2.60854 19.481 2.50215 19.5157 2.49249 19.5157C2.36554 19.5157 2.29285 19.4436 2.20676 19.4436C2.14902 19.4436 2.08844 19.4602 2.03338 19.4837C1.91711 19.5334 1.9233 19.6206 1.9845 19.7328C2.15232 20.0407 2.4563 20.6182 2.82256 20.9879C3.0742 21.242 3.18922 21.34 3.61442 21.2626C3.98478 21.195 4.29166 21.5744 4.49232 21.5744C4.65622 21.5744 4.69482 21.4661 4.92099 21.4661H4.95656C5.095 21.4661 5.21661 21.5848 5.35238 21.6699C5.56048 21.8006 5.65596 21.7585 5.83344 21.6056C5.89856 21.5493 5.953 21.4494 6.0329 21.3822C6.33132 21.1313 6.721 20.9086 6.92127 21.0669C6.99111 21.1222 7.06545 21.2082 7.06509 21.3926C7.11005 21.8426 7.47137 21.9533 7.17909 22.3414C7.07658 22.4637 6.96525 22.4648 6.72104 22.6168C6.50248 22.7529 6.47252 22.8083 6.31374 22.8025H6.20673C5.80495 22.8025 5.3769 22.4955 5.24256 22.4774C5.17334 22.4681 5.14009 22.529 5.14828 22.5883C5.16884 22.7379 5.40481 22.9197 5.6536 23.0447C5.77949 23.1079 5.90007 23.1563 5.97793 23.1783C6.0601 23.2016 6.14512 23.202 6.2045 23.2365C6.5198 23.4203 6.59787 23.6692 6.9567 23.6692H7.06371C7.47698 23.6692 7.48851 23.4253 7.84671 23.6077C7.98924 23.6802 8.2906 24.0527 8.47444 24.0263C8.60117 24.0331 8.6517 23.9822 8.75399 23.96C8.80759 23.9484 8.8902 23.9477 8.97358 23.9609C9.0728 23.9762 9.17567 23.8431 9.16561 23.7513C9.16561 23.5992 8.85219 23.0402 8.77678 22.9118C8.57469 22.5672 8.51326 22.4452 8.38016 22.0129C8.17415 21.3449 7.80647 20.8824 7.64933 20.1516C7.56182 19.7441 7.59797 19.3903 7.4618 19.0411C7.32149 18.6815 7.18986 18.54 7.16952 18.0365C7.15759 17.7438 7.20914 17.0998 7.25005 16.8148C7.27039 16.6723 7.33222 16.424 7.34824 16.2613C7.36405 16.1035 7.278 15.8559 7.278 15.6874C7.278 15.4138 7.38279 15.1695 7.38666 14.8943C7.3766 14.4514 7.35835 14.4433 7.51156 14.1342C7.61221 13.9312 7.70075 13.7495 7.7336 13.5835C7.79623 13.2667 7.7693 12.996 7.89852 12.6671C7.99076 12.4322 8.08072 12.3495 8.17602 12.0448C8.25161 11.8027 8.23643 11.4835 8.27337 11.192C8.32163 10.8102 8.40158 10.8634 8.60082 10.6407C8.77683 10.444 8.81506 10.3908 8.80438 10.2516C8.79944 10.1884 8.76984 10.1203 8.76984 9.98986V9.74455C8.75177 9.17262 9.31108 9.41987 9.18497 8.70253C9.14224 8.46776 9.17963 8.26067 9.25028 8.13772C9.37616 7.91857 9.59927 7.85081 9.59927 7.54482C9.59927 7.31423 9.48406 7.2698 9.48406 7.12767C9.48406 6.93512 9.73178 6.85783 9.74224 6.73051C9.75885 6.52568 9.68206 6.5535 9.66888 6.36802C9.64752 6.06243 9.62228 5.77016 9.63354 5.39416L9.63127 5.0807C9.63127 4.83453 9.78328 4.70929 9.7779 4.41905C9.77607 4.32392 9.79148 4.22502 9.76619 4.13196C9.644 3.681 9.43407 2.80394 9.29132 2.29351C9.23176 2.08102 9.24222 1.80141 9.10952 1.54674C9.00109 1.33839 8.86327 1.21724 8.70654 1.20459H8.56361C8.25775 1.20459 8.04083 1.31138 7.77424 1.34541C7.27204 1.36742 7.36587 1.56249 6.99249 1.45737L6.99231 1.45706Z" fill="#EAEAEA"/>
<path d="M26.2587 16.8665H28.0781V13.6023H30.1048L31.6901 16.8665H33.7503L32.0112 13.2946C32.5596 13.0449 32.9632 12.6681 33.2218 12.1642C33.4849 11.6558 33.6165 11.0739 33.6165 10.4184C33.6165 9.60678 33.4181 8.9156 33.0212 8.34481C32.6243 7.77402 31.9933 7.42174 31.1282 7.28797C31.0034 7.26567 30.8607 7.25229 30.7001 7.24783C30.5441 7.23891 30.4192 7.23445 30.3256 7.23445H26.2587V16.8665ZM28.0781 11.9033V8.93343H30.2453C30.3389 8.93343 30.4415 8.93789 30.553 8.94681C30.6645 8.95573 30.767 8.97357 30.8607 9.00032C31.1059 9.06721 31.2954 9.18092 31.4292 9.34145C31.563 9.49753 31.6544 9.67367 31.7035 9.86988C31.757 10.0616 31.7837 10.2445 31.7837 10.4184C31.7837 10.5923 31.757 10.7773 31.7035 10.9735C31.6544 11.1653 31.563 11.3414 31.4292 11.502C31.2954 11.658 31.1059 11.7695 30.8607 11.8364C30.767 11.8632 30.6645 11.881 30.553 11.8899C30.4415 11.8988 30.3389 11.9033 30.2453 11.9033H28.0781ZM38.4716 17.0671C39.194 17.0671 39.8294 16.9066 40.3779 16.5855C40.9309 16.26 41.3612 15.8118 41.6689 15.2411C41.981 14.6658 42.1371 14.0036 42.1371 13.2545C42.1371 12.5098 41.9832 11.852 41.6756 11.2812C41.3679 10.706 40.9375 10.2556 40.3846 9.93008C39.8361 9.60455 39.1984 9.44179 38.4716 9.44179C37.7581 9.44179 37.1271 9.60232 36.5786 9.92339C36.0301 10.2445 35.5998 10.6926 35.2877 11.2679C34.9755 11.8386 34.8194 12.5008 34.8194 13.2545C34.8194 13.9992 34.9711 14.6591 35.2743 15.2344C35.582 15.8052 36.0101 16.2533 36.5586 16.5788C37.107 16.9044 37.7447 17.0671 38.4716 17.0671ZM38.4716 15.3681C37.9053 15.3681 37.4749 15.1786 37.1806 14.7996C36.8908 14.4161 36.7458 13.901 36.7458 13.2545C36.7458 12.6257 36.8841 12.1173 37.1606 11.7294C37.4415 11.337 37.8785 11.1408 38.4716 11.1408C39.0468 11.1408 39.4794 11.3325 39.7692 11.716C40.0635 12.0995 40.2107 12.6123 40.2107 13.2545C40.2107 13.8743 40.0658 14.3826 39.7759 14.7795C39.4905 15.1719 39.0557 15.3681 38.4716 15.3681ZM46.2348 17.0671C47.1801 17.0671 47.9204 16.8553 48.4555 16.4317C48.9906 16.008 49.2581 15.4261 49.2581 14.6859C49.2581 14.124 49.0842 13.6803 48.7364 13.3548C48.393 13.0293 47.8089 12.7595 46.9839 12.5454C46.4221 12.4027 46.0029 12.2868 45.7264 12.1976C45.4544 12.1084 45.2738 12.0215 45.1846 11.9367C45.0999 11.852 45.0575 11.7472 45.0575 11.6224C45.0575 11.4128 45.1579 11.2522 45.3585 11.1408C45.5636 11.0293 45.8334 10.9847 46.1679 11.007C46.8769 11.0605 47.2649 11.3637 47.3317 11.9167L49.1913 11.5822C49.0976 10.9267 48.7765 10.4072 48.2281 10.0237C47.6796 9.63577 46.9795 9.44179 46.1277 9.44179C45.2537 9.44179 44.5559 9.64691 44.0341 10.0572C43.5124 10.4674 43.2515 11.0204 43.2515 11.716C43.2515 12.269 43.4321 12.706 43.7933 13.027C44.1545 13.3436 44.7766 13.6157 45.6595 13.8431C46.1813 13.9813 46.5647 14.0928 46.81 14.1775C47.0597 14.2622 47.2203 14.3492 47.2916 14.4384C47.363 14.5231 47.3986 14.6368 47.3986 14.7795C47.3986 15.0069 47.3094 15.1853 47.1311 15.3146C46.9527 15.4395 46.6985 15.5019 46.3685 15.5019C45.9672 15.5019 45.635 15.406 45.3719 15.2143C45.1133 15.0226 44.946 14.7572 44.8702 14.4183L43.0107 14.6993C43.1311 15.4529 43.47 16.037 44.0274 16.4517C44.5893 16.862 45.3251 17.0671 46.2348 17.0671ZM53.9119 17.0671C54.7503 17.0671 55.4548 16.8598 56.0256 16.4451C56.5964 16.0303 56.9844 15.4395 57.1895 14.6725L55.33 14.2845C55.223 14.6324 55.0624 14.8999 54.8484 15.0872C54.6343 15.2745 54.3222 15.3681 53.9119 15.3681C53.3634 15.3681 52.9487 15.1742 52.6678 14.7862C52.3913 14.3938 52.2531 13.8832 52.2531 13.2545C52.2531 12.6525 52.3846 12.1508 52.6477 11.7495C52.9153 11.3437 53.3367 11.1408 53.9119 11.1408C54.2464 11.1408 54.5452 11.2456 54.8082 11.4551C55.0758 11.6647 55.2631 11.9568 55.3701 12.3314L57.1895 11.8498C57.029 11.1051 56.6588 10.5187 56.0791 10.0906C55.5039 9.65806 54.7904 9.44179 53.9387 9.44179C53.2029 9.44179 52.5652 9.60678 52.0257 9.93677C51.4861 10.2668 51.0669 10.7194 50.7682 11.2946C50.4738 11.8699 50.3267 12.5231 50.3267 13.2545C50.3267 13.9769 50.4694 14.6257 50.7548 15.2009C51.0402 15.7762 51.4504 16.231 51.9855 16.5655C52.5206 16.8999 53.1628 17.0671 53.9119 17.0671ZM60.4034 17.0671C60.9608 17.0671 61.429 16.9824 61.8081 16.8129C62.1916 16.639 62.5438 16.3626 62.8649 15.9835V16.8665H64.4569V12.4518C64.4569 12.1218 64.4435 11.823 64.4167 11.5555C64.39 11.2879 64.3053 11.0204 64.1626 10.7528C63.9084 10.2712 63.5338 9.93231 63.0388 9.7361C62.5438 9.53989 61.9775 9.44179 61.3398 9.44179C60.4703 9.44179 59.7836 9.62908 59.2797 10.0037C58.7758 10.3782 58.4324 10.8643 58.2496 11.4618L59.895 11.9836C60.011 11.6536 60.2139 11.4239 60.5037 11.2946C60.7936 11.1653 61.0723 11.1006 61.3398 11.1006C61.7679 11.1006 62.0868 11.1809 62.2964 11.3414C62.5059 11.4975 62.6286 11.745 62.6642 12.0839C61.9864 12.182 61.3889 12.2779 60.8716 12.3715C60.3543 12.4607 59.9218 12.5677 59.574 12.6926C58.9943 12.9066 58.5863 13.1987 58.3499 13.5688C58.1136 13.9345 57.9954 14.3693 57.9954 14.8732C57.9954 15.2745 58.0868 15.6424 58.2696 15.9768C58.4569 16.3068 58.7289 16.5721 59.0857 16.7728C59.4469 16.969 59.8861 17.0671 60.4034 17.0671ZM60.7914 15.6357C60.4792 15.6357 60.2317 15.5666 60.0489 15.4283C59.8661 15.2856 59.7746 15.0917 59.7746 14.8464C59.7746 14.6636 59.8326 14.5075 59.9486 14.3782C60.0645 14.2444 60.2562 14.124 60.5238 14.017C60.7289 13.9412 60.9809 13.8721 61.2796 13.8096C61.5829 13.7427 62.0399 13.658 62.6509 13.5555C62.6464 13.7294 62.633 13.9211 62.6107 14.1307C62.5884 14.3358 62.5394 14.5164 62.4636 14.6725C62.4145 14.7751 62.3209 14.9022 62.1826 15.0538C62.0489 15.2054 61.866 15.3414 61.6342 15.4618C61.4067 15.5777 61.1258 15.6357 60.7914 15.6357ZM66.7981 16.8665H68.6175V11.0471H70.2897V9.64245H68.6175V9.24112C68.6175 9.04045 68.6866 8.86877 68.8248 8.72608C68.9631 8.57892 69.1749 8.50534 69.4603 8.50534H70.2897V7.03379H69.3934C69.2195 7.03379 69.0099 7.03825 68.7646 7.04717C68.5194 7.05162 68.2652 7.10068 68.0021 7.19432C67.7434 7.28351 67.5026 7.45296 67.2797 7.70268C67.1102 7.88997 66.9921 8.09955 66.9252 8.33143C66.8583 8.56331 66.8204 8.7952 66.8115 9.02708C66.8025 9.2545 66.7981 9.45962 66.7981 9.64245H65.661V11.0471H66.7981V16.8665ZM74.453 17.0671C75.1486 17.0671 75.7885 16.8843 76.3727 16.5186C76.9613 16.153 77.3916 15.6402 77.6637 14.9802L75.8443 14.4585C75.5678 15.0649 75.0684 15.3681 74.346 15.3681C73.851 15.3681 73.4608 15.2299 73.1754 14.9534C72.8945 14.677 72.7206 14.2801 72.6537 13.7628H77.7239C77.7997 12.8888 77.7105 12.1285 77.4563 11.4819C77.2021 10.8353 76.8097 10.3336 76.2791 9.9769C75.7484 9.62016 75.104 9.44179 74.346 9.44179C73.6325 9.44179 73.0015 9.60455 72.453 9.93008C71.9045 10.2511 71.4742 10.7038 71.1621 11.2879C70.8499 11.8721 70.6938 12.5588 70.6938 13.3481C70.6938 14.0705 70.8521 14.7126 71.1687 15.2745C71.4898 15.8319 71.9313 16.2711 72.4931 16.5922C73.0595 16.9088 73.7128 17.0671 74.453 17.0671ZM74.4262 11.0204C74.8632 11.0204 75.1977 11.1296 75.4296 11.3481C75.6659 11.5666 75.8175 11.9211 75.8844 12.4117H72.7005C72.8923 11.4841 73.4675 11.0204 74.4262 11.0204Z" fill="#EAEAEA"/>
</g>
<defs>
<clipPath id="clip0">
<rect width="86" height="23.8889" fill="white"/>
</clipPath>
</defs>
</svg>
