<svg width="36" height="36" viewBox="0 0 36 36" fill="none" xmlns="http://www.w3.org/2000/svg">
<path d="M25.333 19.3333C20.5544 19.3333 16.6664 15.4453 16.6664 10.6667C16.6664 5.888 20.5544 2 25.333 2C30.1117 2 33.9997 5.888 33.9997 10.6667C33.9997 15.4453 30.1117 19.3333 25.333 19.3333ZM25.333 3.33333C21.289 3.33333 17.9997 6.62267 17.9997 10.6667C17.9997 14.7107 21.289 18 25.333 18C29.377 18 32.6664 14.7107 32.6664 10.6667C32.6664 6.62267 29.377 3.33333 25.333 3.33333Z" fill="#DDA63C"/>
<path d="M24.0002 14.0001C23.8242 14.0001 23.6535 13.9294 23.5282 13.8054L20.8615 11.1388C20.6015 10.8788 20.6015 10.4561 20.8615 10.1961C21.1215 9.9361 21.5442 9.9361 21.8042 10.1961L23.9668 12.3588L28.1642 7.56143C28.4068 7.28277 28.8282 7.25477 29.1055 7.49877C29.3829 7.74143 29.4108 8.16277 29.1682 8.4401L24.5015 13.7734C24.3802 13.9121 24.2055 13.9948 24.0215 14.0001C24.0148 14.0001 24.0068 14.0001 24.0002 14.0001Z" fill="#DDA63C"/>
<path d="M25.3333 34H5.33333C3.496 34 2 32.504 2 30.6667V5.33333C2 3.496 3.496 2 5.33333 2H14.6667C15.0347 2 15.3333 2.29867 15.3333 2.66667C15.3333 3.03467 15.0347 3.33333 14.6667 3.33333H5.33333C4.23067 3.33333 3.33333 4.23067 3.33333 5.33333V30.6667C3.33333 31.7693 4.23067 32.6667 5.33333 32.6667H25.3333C26.436 32.6667 27.3333 31.7693 27.3333 30.6667V22.6667C27.3333 22.2987 27.632 22 28 22C28.368 22 28.6667 22.2987 28.6667 22.6667V30.6667C28.6667 32.504 27.1707 34 25.3333 34Z" fill="#DDA63C"/>
<path d="M12.949 17.3333H6.66667C6.29867 17.3333 6 17.0347 6 16.6667C6 16.2987 6.29867 16 6.66667 16H12.949C13.317 16 13.6157 16.2987 13.6157 16.6667C13.6157 17.0347 13.317 17.3333 12.949 17.3333Z" fill="#DDA63C"/>
<path d="M17.1271 21.3333H6.66667C6.29867 21.3333 6 21.0347 6 20.6667C6 20.2987 6.29867 20 6.66667 20H17.1271C17.4951 20 17.7938 20.2987 17.7938 20.6667C17.7938 21.0347 17.4951 21.3333 17.1271 21.3333Z" fill="#DDA63C"/>
<path d="M23.3726 25.3333H6.66667C6.29867 25.3333 6 25.0347 6 24.6667C6 24.2987 6.29867 24 6.66667 24L23.3726 24C23.7406 24 24.0393 24.2987 24.0393 24.6667C24.0393 25.0347 23.7406 25.3333 23.3726 25.3333Z" fill="#DDA63C"/>
<path d="M20.2115 29.3333H6.66667C6.29867 29.3333 6 29.0347 6 28.6667C6 28.2987 6.29867 28 6.66667 28H20.2115C20.5795 28 20.8781 28.2987 20.8781 28.6667C20.8781 29.0347 20.5795 29.3333 20.2115 29.3333Z" fill="#DDA63C"/>
</svg>
