<svg width="36" height="36" viewBox="0 0 36 36" fill="none" xmlns="http://www.w3.org/2000/svg">
<path d="M25.333 19.3333C20.5544 19.3333 16.6664 15.4453 16.6664 10.6667C16.6664 5.888 20.5544 2 25.333 2C30.1117 2 33.9997 5.888 33.9997 10.6667C33.9997 15.4453 30.1117 19.3333 25.333 19.3333ZM25.333 3.33333C21.289 3.33333 17.9997 6.62267 17.9997 10.6667C17.9997 14.7107 21.289 18 25.333 18C29.377 18 32.6664 14.7107 32.6664 10.6667C32.6664 6.62267 29.377 3.33333 25.333 3.33333Z" fill="#DDA63C"/>
<path d="M24.0002 14.0001C23.8242 14.0001 23.6535 13.9294 23.5282 13.8054L20.8615 11.1388C20.6015 10.8788 20.6015 10.4561 20.8615 10.1961C21.1215 9.9361 21.5442 9.9361 21.8042 10.1961L23.9668 12.3588L28.1642 7.56143C28.4068 7.28277 28.8282 7.25477 29.1055 7.49877C29.3829 7.74143 29.4108 8.16277 29.1682 8.4401L24.5015 13.7734C24.3802 13.9121 24.2055 13.9948 24.0215 14.0001C24.0148 14.0001 24.0068 14.0001 24.0002 14.0001Z" fill="#DDA63C"/>
<path d="M25.3333 34H5.33333C3.496 34 2 32.504 2 30.6667V5.33333C2 3.496 3.496 2 5.33333 2H14.6667C15.0347 2 15.3333 2.29867 15.3333 2.66667C15.3333 3.03467 15.0347 3.33333 14.6667 3.33333H5.33333C4.23067 3.33333 3.33333 4.23067 3.33333 5.33333V30.6667C3.33333 31.7693 4.23067 32.6667 5.33333 32.6667H25.3333C26.436 32.6667 27.3333 31.7693 27.3333 30.6667V22.6667C27.3333 22.2987 27.632 22 28 22C28.368 22 28.6667 22.2987 28.6667 22.6667V30.6667C28.6667 32.504 27.1707 34 25.3333 34Z" fill="#DDA63C"/>
<path d="M6.66667 30C6.29867 30 6 29.7013 6 29.3333V22.6667C6 22.2987 6.29867 22 6.66667 22H8.66666C10.1373 22 11.3333 23.196 11.3333 24.6667C11.3333 26.1373 10.1373 27.3333 8.66666 27.3333H7.33333V29.3333C7.33333 29.7013 7.03467 30 6.66667 30ZM7.33333 26H8.66666C9.40133 26 9.99999 25.4013 9.99999 24.6667C9.99999 23.932 9.40133 23.3333 8.66666 23.3333H7.33333V26Z" fill="#DDA63C"/>
<path d="M15.9997 30H13.333C12.965 30 12.6664 29.7013 12.6664 29.3333V22.6667C12.6664 22.2987 12.965 22 13.333 22H15.9997C17.1024 22 17.9997 22.8973 17.9997 24V28C17.9997 29.1027 17.1024 30 15.9997 30ZM13.9997 28.6667H15.9997C16.3677 28.6667 16.6664 28.368 16.6664 28V24C16.6664 23.632 16.3677 23.3333 15.9997 23.3333H13.9997V28.6667Z" fill="#DDA63C"/>
<path d="M20.0003 30C19.6323 30 19.3336 29.7013 19.3336 29.3333V24C19.3336 22.8973 20.231 22 21.3336 22H24.0003C24.3683 22 24.6669 22.2987 24.6669 22.6667C24.6669 23.0347 24.3683 23.3333 24.0003 23.3333H21.3336C20.9656 23.3333 20.667 23.632 20.667 24V29.3333C20.667 29.7013 20.3683 30 20.0003 30Z" fill="#DDA63C"/>
<path d="M24.0003 27.3333H20.0003C19.6323 27.3333 19.3336 27.0347 19.3336 26.6667C19.3336 26.2987 19.6323 26 20.0003 26H24.0003C24.3683 26 24.6669 26.2987 24.6669 26.6667C24.6669 27.0347 24.3683 27.3333 24.0003 27.3333Z" fill="#DDA63C"/>
</svg>
