<svg width="24" height="24" viewBox="0 0 24 24" fill="none" xmlns="http://www.w3.org/2000/svg">
<path fill-rule="evenodd" clip-rule="evenodd" d="M11.1581 4.70654C8.1713 4.70654 5.75 7.12785 5.75 10.1147C5.75 13.1015 8.1713 15.5228 11.1581 15.5228C14.145 15.5228 16.5663 13.1015 16.5663 10.1147C16.5663 7.12785 14.145 4.70654 11.1581 4.70654ZM4.25 10.1147C4.25 6.29942 7.34288 3.20654 11.1581 3.20654C14.9734 3.20654 18.0663 6.29942 18.0663 10.1147C18.0663 13.9299 14.9734 17.0228 11.1581 17.0228C7.34288 17.0228 4.25 13.9299 4.25 10.1147Z" fill="#EAEAEA"/>
<path fill-rule="evenodd" clip-rule="evenodd" d="M15.0263 13.9831C15.3192 13.6902 15.7941 13.6902 16.087 13.9831L20.5736 18.4697C20.8665 18.7626 20.8665 19.2375 20.5736 19.5304C20.2807 19.8233 19.8059 19.8233 19.513 19.5304L15.0263 15.0438C14.7334 14.7509 14.7334 14.276 15.0263 13.9831Z" fill="#EAEAEA"/>
</svg>
