<svg width="24" height="24" viewBox="0 0 24 24" fill="none" xmlns="http://www.w3.org/2000/svg">
<path fill-rule="evenodd" clip-rule="evenodd" d="M11.9936 1.14502C12.3198 1.14502 12.6178 1.33025 12.7622 1.62282L15.6487 7.47154L22.1025 8.40688C22.4256 8.4537 22.694 8.67995 22.7948 8.99042C22.8956 9.30089 22.8113 9.64168 22.5774 9.86937L17.9006 14.4218L19.0034 20.8502C19.0585 21.172 18.9262 21.4971 18.6621 21.6888C18.3979 21.8806 18.0477 21.9056 17.759 21.7535L12.0001 18.7188L6.22744 21.7538C5.93865 21.9057 5.5887 21.8804 5.32474 21.6886C5.06078 21.4968 4.92859 21.1718 4.98375 20.8502L6.0865 14.4218L1.40969 9.86937C1.17578 9.64168 1.0915 9.30089 1.19232 8.99042C1.29315 8.67995 1.56156 8.4537 1.88462 8.40688L8.33845 7.47154L11.2249 1.62282C11.3693 1.33025 11.6673 1.14502 11.9936 1.14502ZM11.9936 3.93894L9.67619 8.6345C9.55129 8.88758 9.30981 9.06296 9.0305 9.10344L3.85162 9.854L7.60542 13.508C7.80774 13.7049 7.90009 13.9888 7.85236 14.2671L6.96702 19.4282L11.6017 16.9915C11.8516 16.8601 12.1503 16.8602 12.4001 16.9919L17.0198 19.4262L16.1348 14.2671C16.087 13.9888 16.1794 13.7049 16.3817 13.508L20.1355 9.854L14.9566 9.10344C14.6773 9.06296 14.4358 8.88758 14.3109 8.6345L11.9936 3.93894Z" fill="#DDA63C"/>
<path fill-rule="evenodd" clip-rule="evenodd" d="M11.9936 1.14502C12.3198 1.14502 12.6178 1.33025 12.7622 1.62282L15.6487 7.47154L22.1025 8.40688C22.4256 8.4537 22.694 8.67995 22.7948 8.99042C22.8956 9.30089 22.8113 9.64168 22.5774 9.86937L17.9006 14.4218L19.0034 20.8502C19.0585 21.172 18.9262 21.4971 18.6621 21.6888C18.3979 21.8806 18.0477 21.9056 17.759 21.7535L12.0001 18.7188L6.22744 21.7538C5.93865 21.9057 5.5887 21.8804 5.32474 21.6886C5.06078 21.4968 4.92859 21.1718 4.98376 20.8502L6.0865 14.4218L1.40969 9.86937C1.17578 9.64168 1.0915 9.30089 1.19232 8.99042C1.29315 8.67995 1.56156 8.4537 1.88462 8.40688L8.33845 7.47154L11.2249 1.62282C11.3693 1.33025 11.6673 1.14502 11.9936 1.14502Z" fill="#DDA63C"/>
</svg>
