<svg width="20" height="20" viewBox="0 0 20 20" fill="none" xmlns="http://www.w3.org/2000/svg">
<path fill-rule="evenodd" clip-rule="evenodd" d="M3.77845 2.96484H12.6665C13.2053 2.96484 13.6964 3.20483 14.0399 3.58845C14.3802 3.96844 14.5553 4.46237 14.5553 4.95738V12.8977C14.5553 14.1824 14.0993 15.4337 13.2589 16.3721C12.4154 17.3141 11.246 17.8678 10.0001 17.8678H6.44486C5.19888 17.8678 4.02955 17.3141 3.18598 16.3721C2.34565 15.4337 1.88965 14.1824 1.88965 12.8977V4.95738C1.88965 4.46237 2.06473 3.96844 2.40501 3.58845C2.74853 3.20483 3.23965 2.96484 3.77845 2.96484ZM3.88965 4.96484H12.5553V12.8977C12.5553 13.7189 12.2621 14.4872 11.769 15.0379C11.2791 15.585 10.6399 15.8678 10.0001 15.8678H6.44486C5.80503 15.8678 5.1658 15.585 4.67591 15.0379C4.18277 14.4872 3.88965 13.7189 3.88965 12.8977V4.96484Z" fill="#EAEAEA"/>
<path fill-rule="evenodd" clip-rule="evenodd" d="M12.5552 6.94238C12.5552 6.3901 13.0029 5.94238 13.5552 5.94238H15.3328C16.1073 5.94238 16.8245 6.28694 17.3347 6.85669C17.8417 7.42282 18.1104 8.16921 18.1104 8.92746V10.9125C18.1104 11.6708 17.8417 12.4172 17.3347 12.9833C16.8245 13.553 16.1073 13.8976 15.3328 13.8976H13.5552C13.0029 13.8976 12.5552 13.4499 12.5552 12.8976C12.5552 12.3453 13.0029 11.8976 13.5552 11.8976H15.3328C15.5012 11.8976 15.6882 11.8239 15.8448 11.6491C16.0045 11.4707 16.1104 11.2072 16.1104 10.9125V8.92746C16.1104 8.63275 16.0045 8.36932 15.8448 8.1909C15.6882 8.01611 15.5012 7.94238 15.3328 7.94238H13.5552C13.0029 7.94238 12.5552 7.49467 12.5552 6.94238Z" fill="#EAEAEA"/>
</svg>
