<svg width="24" height="24" viewBox="0 0 24 24" fill="none" xmlns="http://www.w3.org/2000/svg">
<path fill-rule="evenodd" clip-rule="evenodd" d="M8 17.75C7.30964 17.75 6.75 18.3096 6.75 19C6.75 19.6904 7.30964 20.25 8 20.25C8.69036 20.25 9.25 19.6904 9.25 19C9.25 18.3096 8.69036 17.75 8 17.75ZM5.25 19C5.25 17.4812 6.48122 16.25 8 16.25C9.51878 16.25 10.75 17.4812 10.75 19C10.75 20.5188 9.51878 21.75 8 21.75C6.48122 21.75 5.25 20.5188 5.25 19Z" fill="white"/>
<path fill-rule="evenodd" clip-rule="evenodd" d="M16 17.75C15.3096 17.75 14.75 18.3096 14.75 19C14.75 19.6904 15.3096 20.25 16 20.25C16.6904 20.25 17.25 19.6904 17.25 19C17.25 18.3096 16.6904 17.75 16 17.75ZM13.25 19C13.25 17.4812 14.4812 16.25 16 16.25C17.5188 16.25 18.75 17.4812 18.75 19C18.75 20.5188 17.5188 21.75 16 21.75C14.4812 21.75 13.25 20.5188 13.25 19Z" fill="white"/>
<path fill-rule="evenodd" clip-rule="evenodd" d="M2.25 3C2.25 2.58579 2.58579 2.25 3 2.25H5.11111C5.46216 2.25 5.76625 2.49351 5.84298 2.83607L6.60884 6.25539L22.0961 8.25618C22.3154 8.28452 22.5111 8.40821 22.6307 8.59421C22.7504 8.7802 22.7819 9.00952 22.7167 9.22087L21.6612 12.6462C21.6507 12.6803 21.6378 12.7135 21.6225 12.7458C21.3093 13.4086 20.7385 13.933 20.0469 14.2761C19.3588 14.6175 18.5589 14.7772 17.7626 14.7462H10.4041C9.60781 14.7772 8.80783 14.6175 8.11973 14.2761C7.42814 13.933 6.85736 13.4086 6.54413 12.7458C6.52048 12.6957 6.50245 12.6433 6.49036 12.5893L5.30625 7.30267C5.2318 7.17412 5.19482 7.02259 5.20815 6.86469L4.51052 3.75H3C2.58579 3.75 2.25 3.41421 2.25 3ZM6.95771 7.81292L7.93373 12.1705C8.08596 12.4494 8.36841 12.7251 8.78632 12.9324C9.23577 13.1553 9.7883 13.2709 10.3573 13.2469C10.3678 13.2464 10.3783 13.2462 10.3889 13.2462H17.7778C17.7883 13.2462 17.7989 13.2464 17.8094 13.2469C18.3784 13.2709 18.9309 13.1553 19.3803 12.9324C19.8099 12.7193 20.0963 12.434 20.2453 12.1472L21.0211 9.62977L6.95771 7.81292Z" fill="white"/>
</svg>
