<svg width="24" height="24" viewBox="0 0 24 24" fill="none" xmlns="http://www.w3.org/2000/svg">
<path fill-rule="evenodd" clip-rule="evenodd" d="M11.9926 5.46808C10.8809 4.31217 8.92418 2.68856 6.06012 3.4406C3.89373 4.00945 2.69188 5.72798 2.3531 7.63333C2.01811 9.51738 2.50386 11.6514 3.74579 13.2609C4.61453 14.3867 6.05244 15.785 7.49945 17.0981C8.83606 18.311 10.2165 19.4832 11.2324 20.3458L11.9756 20.9773L12.4598 20.5794C14.2094 19.1417 18.2427 15.6464 20.2049 13.2816C21.5532 11.6567 21.9993 9.50361 21.6202 7.61689C21.2392 5.7208 19.9995 4.01233 17.9144 3.44254C15.1412 2.68469 13.1343 4.31698 11.9926 5.46808ZM11.4278 7.06861C10.4018 5.93602 8.87417 4.25254 6.44107 4.89142C4.95274 5.28223 4.08835 6.44258 3.82994 7.89592C3.56774 9.37056 3.95384 11.0751 4.93335 12.3445C5.71313 13.3551 7.06213 14.6757 8.50746 15.9873C9.73387 17.1002 10.9993 18.1796 11.9892 19.0206C13.9023 17.418 17.3458 14.3783 19.0506 12.3238C20.091 11.0698 20.4453 9.38435 20.1496 7.91235C19.8557 6.44974 18.9456 5.27931 17.519 4.88948C15.202 4.25632 13.6009 5.93478 12.5312 7.07761L11.9746 7.67222L11.4278 7.06861Z" fill="#EAEAEA"/>
</svg>
