<svg width="36" height="36" viewBox="0 0 36 36" fill="none" xmlns="http://www.w3.org/2000/svg">
<path d="M25.3329 19.3333C20.5543 19.3333 16.6663 15.4453 16.6663 10.6667C16.6663 5.888 20.5543 2 25.3329 2C30.1116 2 33.9996 5.888 33.9996 10.6667C33.9996 15.4453 30.1116 19.3333 25.3329 19.3333ZM25.3329 3.33333C21.2903 3.33333 17.9996 6.62267 17.9996 10.6667C17.9996 14.7107 21.2903 18 25.3329 18C29.3756 18 32.6662 14.7107 32.6662 10.6667C32.6662 6.62267 29.3756 3.33333 25.3329 3.33333Z" fill="#DDA63C"/>
<path d="M24.0002 14C23.8228 14 23.6535 13.9293 23.5282 13.8053L20.8615 11.1386C20.6015 10.8786 20.6015 10.456 20.8615 10.196C21.1215 9.93597 21.5442 9.93597 21.8042 10.196L23.9668 12.3586L28.1642 7.56131C28.4068 7.28264 28.8282 7.25597 29.1042 7.49864C29.3815 7.74131 29.4095 8.16264 29.1668 8.43997L24.5002 13.7733C24.3802 13.912 24.2068 13.9933 24.0228 14C24.0148 14 24.0082 14 24.0002 14Z" fill="#DDA63C"/>
<path d="M17.3329 30H13.3329C12.9649 30 12.6663 29.7013 12.6663 29.3333V22.6667C12.6663 22.2987 12.9649 22 13.3329 22C13.7009 22 13.9996 22.2987 13.9996 22.6667V28.6667H17.3329C17.7009 28.6667 17.9996 28.9653 17.9996 29.3333C17.9996 29.7013 17.7009 30 17.3329 30Z" fill="#DDA63C"/>
<path d="M10.6663 29.9999C10.441 29.9999 10.2197 29.8853 10.0943 29.6759L6.09432 23.0093C5.90365 22.6933 6.00765 22.2839 6.32365 22.0946C6.63565 21.9079 7.04765 22.0079 7.23832 22.3226L11.2383 28.9893C11.429 29.3053 11.325 29.7146 11.009 29.9039C10.9023 29.9693 10.7837 29.9999 10.6663 29.9999Z" fill="#DDA63C"/>
<path d="M6.66707 30.0001C6.54974 30.0001 6.43107 29.9694 6.3244 29.9054C6.0084 29.7161 5.90574 29.3067 6.09507 28.9907L10.0951 22.3241C10.2857 22.0081 10.6977 21.9081 11.0097 22.0961C11.3257 22.2854 11.4284 22.6947 11.2391 23.0107L7.23907 29.6774C7.11373 29.8854 6.8924 30.0001 6.66707 30.0001Z" fill="#DDA63C"/>
<path d="M22.3337 30H20.0004C19.6324 30 19.3337 29.7013 19.3337 29.3333C19.3337 28.9653 19.6324 28.6667 20.0004 28.6667H22.3337C22.8844 28.6667 23.3337 28.2187 23.3337 27.6667C23.3337 27.1147 22.8844 26.6667 22.3337 26.6667H21.6671C20.3804 26.6667 19.3337 25.62 19.3337 24.3333C19.3337 23.0467 20.3804 22 21.6671 22H24.0004C24.3684 22 24.6671 22.2987 24.6671 22.6667C24.6671 23.0347 24.3684 23.3333 24.0004 23.3333H21.6671C21.1164 23.3333 20.6671 23.7813 20.6671 24.3333C20.6671 24.8853 21.1164 25.3333 21.6671 25.3333H22.3337C23.6204 25.3333 24.6671 26.38 24.6671 27.6667C24.6671 28.9533 23.6204 30 22.3337 30Z" fill="#DDA63C"/>
<path d="M25.3333 34H5.33333C3.49467 34 2 32.504 2 30.6667V5.33333C2 3.496 3.49467 2 5.33333 2H14.6667C15.0347 2 15.3333 2.29867 15.3333 2.66667C15.3333 3.03467 15.0347 3.33333 14.6667 3.33333H5.33333C4.23067 3.33333 3.33333 4.23067 3.33333 5.33333V30.6667C3.33333 31.7693 4.23067 32.6667 5.33333 32.6667H25.3333C26.436 32.6667 27.3333 31.7693 27.3333 30.6667V22.6667C27.3333 22.2987 27.632 22 28 22C28.368 22 28.6667 22.2987 28.6667 22.6667V30.6667C28.6667 32.504 27.172 34 25.3333 34Z" fill="#DDA63C"/>
</svg>
