<svg width="203" height="128" viewBox="0 0 203 128" fill="none" xmlns="http://www.w3.org/2000/svg">
<path fill-rule="evenodd" clip-rule="evenodd" d="M33.018 102.371V91.5189H34.1645C34.5296 91.5189 34.8319 91.5503 35.0715 91.6216C35.311 91.6872 35.5078 91.787 35.6676 91.9296C35.8301 92.0751 35.9727 92.2605 36.0982 92.4858C36.2579 92.8024 36.4034 93.1617 36.5403 93.5667C36.6715 93.9717 36.797 94.4622 36.9225 95.0298L38.1032 94.9214C38.0804 94.4851 38.0547 94.0202 38.0433 93.5325C38.0319 93.0419 38.0262 92.5656 38.0262 92.1036C38.0205 91.6444 38.0148 91.2394 38.0148 90.8858L37.9977 90.1243H23.5293L23.4922 90.8801L23.4494 92.0922C23.4323 92.5514 23.4095 93.0248 23.3838 93.5182C23.3667 94.0088 23.3439 94.4736 23.3125 94.9214L24.459 95.0298C24.5531 94.6704 24.6444 94.3596 24.7271 94.0858C24.8098 93.8177 24.8954 93.561 24.9781 93.3271C25.0608 93.0961 25.1521 92.8622 25.2462 92.6284C25.403 92.1863 25.6398 91.8954 25.962 91.7414C26.2843 91.5788 26.7036 91.5075 27.2169 91.5189H28.4348V102.371C28.4405 102.862 28.4177 103.255 28.3749 103.552C28.3264 103.851 28.2266 104.085 28.0697 104.245C27.9157 104.413 27.6818 104.533 27.3595 104.616C27.043 104.693 26.6152 104.758 26.0704 104.807V105.953H35.6676V104.807C35.0544 104.758 34.5695 104.693 34.213 104.61C33.8537 104.524 33.5856 104.399 33.4201 104.233C33.2462 104.065 33.1378 103.834 33.0836 103.535C33.0351 103.235 33.0123 102.847 33.018 102.371Z" fill="#FFCC00"/>
<path fill-rule="evenodd" clip-rule="evenodd" d="M5.44455 93.9184C5.44455 92.8518 5.55578 91.825 5.78394 90.8268C6.00926 89.8314 6.34295 88.9045 6.78501 88.0461C7.22708 87.1933 7.77182 86.4461 8.42208 85.8015C9.07235 85.1569 9.81673 84.655 10.6666 84.2985C11.5194 83.9334 12.4634 83.7537 13.5016 83.7509C14.1918 83.7423 14.8734 83.8336 15.5408 84.0104C16.211 84.1901 16.8442 84.4896 17.4402 84.9003C18.0363 85.3195 18.5668 85.8785 19.0402 86.5915C19.5108 87.2931 19.8987 88.1773 20.1982 89.2268L21.5215 88.9787C21.4388 88.22 21.3561 87.5156 21.2705 86.8653C21.1821 86.2151 21.0937 85.5819 20.9967 84.9659C20.9083 84.3527 20.8057 83.7195 20.6973 83.0692C20.3636 83.0037 19.8759 82.8953 19.2256 82.747C18.5754 82.6015 17.811 82.4646 16.944 82.3391C16.0798 82.2136 15.1529 82.1423 14.1804 82.1366C12.0328 82.1423 10.0934 82.4475 8.35649 83.0436C6.61959 83.6482 5.12512 84.4953 3.87878 85.599C2.63814 86.7028 1.68271 88.0175 1.01248 89.5377C0.345098 91.0607 0.00570372 92.7491 0 94.6001C0 95.7466 0.159715 96.8874 0.481995 98.0197C0.809981 99.1605 1.31194 100.23 1.99928 101.242C2.67807 102.258 3.55079 103.159 4.6089 103.946C5.66986 104.731 6.93617 105.349 8.41068 105.797C9.87663 106.251 11.5622 106.479 13.4645 106.49C14.0805 106.485 14.7308 106.447 15.4039 106.376C16.0798 106.299 16.7301 106.211 17.3575 106.102C17.9907 106 18.5497 105.894 19.0345 105.797C19.5222 105.695 19.8873 105.618 20.1269 105.56C20.2809 105.235 20.4492 104.847 20.6345 104.383C20.8114 103.918 20.9967 103.416 21.1821 102.885C21.3675 102.349 21.5415 101.816 21.7069 101.291C21.8695 100.76 22.0121 100.276 22.1319 99.8279L20.877 99.2917C19.97 101.106 18.9433 102.472 17.7968 103.404C16.6531 104.334 15.3383 104.802 13.8581 104.808C12.6346 104.802 11.5137 104.545 10.487 104.026C9.46593 103.513 8.5761 102.777 7.82316 101.821C7.07307 100.86 6.4884 99.7223 6.07485 98.3847C5.65845 97.0528 5.45026 95.5612 5.44455 93.9184Z" fill="#FFCC00"/>
<path fill-rule="evenodd" clip-rule="evenodd" d="M48.3452 95.9966C48.1313 96.1762 47.8204 96.3588 47.4097 96.5556C46.9904 96.7467 46.5199 96.952 45.9837 97.1488C45.4446 97.3513 44.8913 97.5538 44.3181 97.7563C43.7448 97.9588 43.1887 98.1613 42.6525 98.3581C42.0307 98.5919 41.5231 98.8543 41.1181 99.1538C40.7188 99.4532 40.4193 99.8098 40.2225 100.24C40.0258 100.663 39.9316 101.182 39.9316 101.798C39.9316 102.359 40.0429 102.907 40.2653 103.452C40.4849 103.988 40.8015 104.484 41.2208 104.918C41.6372 105.36 42.1448 105.713 42.7409 105.976C43.3398 106.238 44.0129 106.375 44.7659 106.381C45.0111 106.369 45.3448 106.255 45.7555 106.041C46.1691 105.828 46.6225 105.559 47.1045 105.243L48.5248 104.305C48.5962 104.518 48.6988 104.741 48.8414 104.966C48.9783 105.194 49.1751 105.414 49.4204 105.631C49.6543 105.85 49.9594 106.03 50.3273 106.167C50.6924 106.304 51.1231 106.375 51.6051 106.381L55.5095 104.342L55.1501 103.195C54.9534 103.284 54.7566 103.355 54.5541 103.403C54.3573 103.458 54.1491 103.48 53.9323 103.48C53.7298 103.486 53.5387 103.426 53.3676 103.309C53.1936 103.189 53.0567 102.973 52.9484 102.665C52.8457 102.354 52.7887 101.923 52.7887 101.367V95.4575C52.7944 94.7902 52.7459 94.1684 52.6432 93.6037C52.5491 93.0361 52.3637 92.5114 52.0956 92.0379C51.8218 91.5616 51.4339 91.1253 50.9263 90.7317C50.4471 90.3723 49.9281 90.11 49.3605 89.9445C48.7958 89.7763 48.1427 89.6936 47.4154 89.6936C46.902 89.7934 46.3716 89.9388 45.8154 90.1242C45.2678 90.3124 44.7231 90.5235 44.1869 90.7631C43.6564 90.9998 43.1544 91.2451 42.6896 91.5017C42.2218 91.7527 41.8168 91.998 41.4717 92.2347C41.0753 92.5342 40.7673 92.8137 40.5505 93.0818C40.3309 93.347 40.2225 93.6379 40.2168 93.9545C40.2283 94.2711 40.348 94.562 40.5876 94.8329C40.8272 95.101 41.1124 95.3206 41.4575 95.4889C41.8054 95.6543 42.1391 95.7399 42.4728 95.7456C42.8322 95.7513 43.143 95.6686 43.3969 95.4832C43.6564 95.3035 43.8532 94.9869 43.9758 94.5278C44.1213 93.9716 44.2753 93.4839 44.4379 93.0647C44.6033 92.6426 44.783 92.306 44.9798 92.055C45.1423 91.8411 45.3192 91.6814 45.5245 91.573C45.7213 91.4647 45.9466 91.4133 46.1976 91.4133C46.8536 91.419 47.3726 91.7157 47.7548 92.3203C48.1427 92.9221 48.3395 93.7862 48.3452 94.9213V95.9966ZM48.3452 97.3912V103.124C48.0657 103.338 47.809 103.486 47.5837 103.569C47.3498 103.66 47.1045 103.703 46.8421 103.697C46.6339 103.697 46.4058 103.649 46.1605 103.546C45.9181 103.446 45.6785 103.289 45.4589 103.075C45.2364 102.861 45.0568 102.579 44.9142 102.228C44.7716 101.88 44.7003 101.464 44.6946 100.973C44.6946 100.563 44.7602 100.203 44.8828 99.9067C45.0111 99.6073 45.1965 99.3449 45.4446 99.1167C45.6956 98.8971 46.0065 98.6889 46.3773 98.5035C46.748 98.3067 47.0874 98.1156 47.404 97.936C47.7149 97.7506 48.0286 97.5709 48.3452 97.3912Z" fill="#FFCC00"/>
<path fill-rule="evenodd" clip-rule="evenodd" d="M61.2761 91.5189V102.371C61.2818 102.862 61.2561 103.255 61.2162 103.552C61.1677 103.851 61.065 104.085 60.911 104.245C60.7542 104.413 60.5231 104.533 60.2009 104.616C59.8843 104.693 59.4536 104.758 58.9117 104.807V105.953H68.5089V104.807C67.8928 104.758 67.4108 104.693 67.0515 104.61C66.695 104.524 66.4269 104.399 66.2586 104.233C66.0846 104.065 65.9791 103.834 65.9249 103.535C65.8764 103.235 65.8536 102.847 65.8593 102.371V91.5189H67.0058C67.368 91.5189 67.6732 91.5503 67.9128 91.6216C68.1495 91.6872 68.3463 91.787 68.5089 91.9296C68.6714 92.0751 68.814 92.2605 68.9395 92.4858C69.0992 92.8024 69.2418 93.1617 69.3816 93.5667C69.5128 93.9717 69.6383 94.4622 69.7638 95.0298L70.9445 94.9214C70.9188 94.4851 70.896 94.0202 70.8846 93.5325C70.8732 93.0419 70.8675 92.5656 70.8675 92.1036C70.8618 91.6444 70.8532 91.2394 70.8532 90.8858L70.8361 90.1243H56.3677L56.3335 90.8801L56.2907 92.0922C56.2736 92.5514 56.2479 93.0248 56.2251 93.5182C56.208 94.0088 56.1823 94.4736 56.1538 94.9214L57.3003 95.0298C57.3944 94.6704 57.4857 94.3596 57.5684 94.0858C57.6511 93.8177 57.7338 93.561 57.8194 93.3271C57.9021 93.0961 57.9905 92.8622 58.0875 92.6284C58.2415 92.1863 58.4811 91.8954 58.8034 91.7414C59.1256 91.5788 59.542 91.5075 60.0583 91.5189H61.2761Z" fill="#FFCC00"/>
<path fill-rule="evenodd" clip-rule="evenodd" d="M74.9747 95.4351L76.0414 98.1274L77.4018 101.57C77.8981 102.825 78.4171 104.157 78.9676 105.56C79.0446 105.768 79.1045 106.005 79.1501 106.281C79.2043 106.555 79.21 106.8 79.1815 107.026C79.1102 107.308 79.0275 107.553 78.9191 107.773C78.8164 107.993 78.6738 108.232 78.4998 108.495C78.3287 108.811 78.0663 109.145 77.7241 109.499C77.3847 109.855 76.9426 110.197 76.4007 110.525C75.8503 110.848 75.1772 111.127 74.3815 111.361C74.1134 111.432 73.9109 111.563 73.7683 111.76C73.6314 111.951 73.5601 112.202 73.5601 112.505C73.5658 112.858 73.6656 113.203 73.8767 113.531C74.0792 113.868 74.3473 114.142 74.6867 114.356C75.0261 114.572 75.4025 114.684 75.8161 114.692C76.1327 114.698 76.4464 114.618 76.7573 114.458C77.0624 114.296 77.3847 114.016 77.7241 113.611C78.0663 113.198 78.4457 112.63 78.8592 111.897C79.0959 111.492 79.3412 111.024 79.5979 110.508C79.8489 109.981 80.1255 109.373 80.4164 108.68C80.7102 107.981 81.0382 107.168 81.3947 106.239C81.7597 105.315 82.1647 104.239 82.6182 103.016L84.1241 99.0059C84.5462 97.8879 84.9169 96.9267 85.2335 96.1281C85.5501 95.3267 85.8353 94.6251 86.092 94.0262C86.3629 93.3987 86.6196 92.8996 86.8677 92.5232C87.1187 92.1467 87.4182 91.8643 87.7519 91.6761C88.0856 91.4793 88.5105 91.3453 89.0296 91.2683V90.1246H82.4414V91.2683L83.5879 91.5905C83.8845 91.6675 84.1127 91.7645 84.261 91.8729C84.415 91.9784 84.5063 92.121 84.5348 92.3007C84.5604 92.4747 84.5291 92.7028 84.4464 92.988C84.3865 93.2276 84.2781 93.5955 84.1241 94.0918C83.9729 94.5937 83.7904 95.167 83.5879 95.8059C83.3768 96.4504 83.1572 97.1064 82.9291 97.7795C82.7095 98.4554 82.4927 99.0829 82.2845 99.6675C82.082 100.252 81.908 100.734 81.7597 101.116L78.8592 93.0251C78.7109 92.6173 78.6681 92.3007 78.7394 92.0754C78.805 91.8472 79.0275 91.6761 79.3954 91.5563L80.4706 91.2683L80.5077 90.1246H71.4097V91.2683C71.9658 91.2996 72.4079 91.3995 72.7416 91.5734C73.0753 91.7474 73.3605 92.0041 73.5886 92.3492C73.8168 92.6943 74.0478 93.1421 74.276 93.7039L74.9747 95.4351Z" fill="#FFCC00"/>
<path fill-rule="evenodd" clip-rule="evenodd" d="M104.967 94.6001C104.967 95.7466 105.127 96.8874 105.449 98.0197C105.78 99.1605 106.279 100.23 106.966 101.242C107.648 102.258 108.518 103.159 109.576 103.946C110.637 104.731 111.903 105.349 113.377 105.797C114.846 106.251 116.529 106.479 118.431 106.49C119.047 106.485 119.698 106.447 120.371 106.376C121.047 106.299 121.697 106.211 122.324 106.102C122.957 106 123.516 105.894 124.001 105.797C124.492 105.695 124.854 105.618 125.094 105.56C125.248 105.235 125.416 104.847 125.601 104.383C125.781 103.918 125.964 103.416 126.149 102.885C126.334 102.349 126.508 101.816 126.677 101.291C126.836 100.76 126.979 100.276 127.099 99.8279L125.844 99.2917C124.937 101.106 123.913 102.472 122.766 103.404C121.62 104.334 120.305 104.802 118.825 104.808C117.601 104.802 116.48 104.545 115.454 104.026C114.433 103.513 113.543 102.777 112.793 101.821C112.04 100.86 111.455 99.7223 111.042 98.3847C110.625 97.0528 110.417 95.5612 110.411 93.9184C110.411 92.8518 110.523 91.825 110.751 90.8268C110.976 89.8314 111.313 88.9045 111.752 88.0461C112.194 87.1933 112.739 86.4461 113.389 85.8015C114.039 85.1569 114.784 84.655 115.633 84.2985C116.486 83.9334 117.43 83.7537 118.468 83.7509C119.161 83.7423 119.84 83.8336 120.51 84.0104C121.178 84.1901 121.811 84.4896 122.407 84.9003C123.003 85.3195 123.536 85.8785 124.007 86.5915C124.478 87.2931 124.866 88.1773 125.165 89.2268L126.491 88.9787C126.406 88.22 126.323 87.5156 126.24 86.8653C126.149 86.2151 126.061 85.5819 125.964 84.9659C125.875 84.3527 125.772 83.7195 125.667 83.0692C125.333 83.0037 124.843 82.8953 124.192 82.747C123.542 82.6015 122.778 82.4646 121.911 82.3391C121.047 82.2136 120.123 82.1423 119.147 82.1366C117 82.1423 115.06 82.4475 113.323 83.0436C111.586 83.6482 110.095 84.4953 108.846 85.599C107.605 86.7028 106.65 88.0175 105.982 89.5377C105.312 91.0607 104.973 92.7491 104.967 94.6001Z" fill="#FFCC00"/>
<path fill-rule="evenodd" clip-rule="evenodd" d="M94.2343 99.2736C93.9947 98.5634 93.8692 97.7335 93.8635 96.7837C93.8692 95.8283 93.9605 95.0183 94.1402 94.3538C94.317 93.6921 94.5509 93.1559 94.8446 92.7481C95.1355 92.3431 95.4578 92.0436 95.8115 91.864C96.168 91.6814 96.5216 91.5845 96.8724 91.5902C97.3687 91.5845 97.9163 91.7356 98.5067 92.0379C99.0999 92.3374 99.7616 92.808 100.489 93.4525C100.646 93.5951 100.788 93.6978 100.908 93.7577C101.034 93.8176 101.153 93.8461 101.279 93.8461C101.487 93.8404 101.712 93.7463 101.946 93.5666C102.186 93.3869 102.388 93.1474 102.554 92.8508C102.722 92.5513 102.81 92.229 102.819 91.8782C102.842 91.6272 102.805 91.3934 102.711 91.1795C102.614 90.9627 102.437 90.7659 102.172 90.5891C101.858 90.3324 101.433 90.1157 100.891 89.9502C100.346 89.782 99.7501 89.6993 99.0942 89.6936H99.0571C98.5979 89.6878 98.0475 89.7534 97.4086 89.8846C96.7698 90.0215 96.0739 90.2468 95.3209 90.5691C94.568 90.9 93.7979 91.3449 93.0051 91.9124C92.2521 92.48 91.6019 93.1246 91.0657 93.8547C90.5266 94.582 90.1102 95.3634 89.8222 96.1934C89.537 97.0233 89.3944 97.8761 89.3887 98.7545C89.3887 99.7384 89.5655 100.688 89.9134 101.595C90.2585 102.502 90.7662 103.315 91.4336 104.031C92.1038 104.752 92.9138 105.32 93.8749 105.736C94.8361 106.156 95.9284 106.369 97.1576 106.381C97.8935 106.375 98.6264 106.215 99.3623 105.899C100.095 105.577 100.8 105.129 101.476 104.55C102.149 103.977 102.765 103.295 103.318 102.513L102.639 101.655C102.214 102.026 101.804 102.311 101.41 102.525C101.008 102.747 100.603 102.896 100.181 102.993C99.7616 103.081 99.3024 103.124 98.8061 103.124C98.4952 103.124 98.133 103.055 97.7138 102.918C97.2945 102.782 96.861 102.568 96.419 102.263C95.9712 101.966 95.5519 101.564 95.1726 101.076C94.7847 100.58 94.4739 99.9837 94.2343 99.2736Z" fill="#FFCC00"/>
<path fill-rule="evenodd" clip-rule="evenodd" d="M133.402 91.5189V102.371C133.407 102.862 133.384 103.255 133.342 103.552C133.293 103.851 133.193 104.085 133.039 104.245C132.882 104.413 132.649 104.533 132.326 104.616C132.01 104.693 131.582 104.758 131.037 104.807V105.953H140.637V104.807C140.021 104.758 139.539 104.693 139.18 104.61C138.82 104.524 138.552 104.399 138.387 104.233C138.213 104.065 138.105 103.834 138.05 103.535C138.005 103.235 137.979 102.847 137.985 102.371V91.5189H139.131C139.496 91.5189 139.802 91.5503 140.038 91.6216C140.278 91.6872 140.475 91.787 140.637 91.9296C140.797 92.0751 140.94 92.2605 141.065 92.4858C141.228 92.8024 141.37 93.1617 141.507 93.5667C141.638 93.9717 141.764 94.4622 141.889 95.0298L143.07 94.9214C143.047 94.4851 143.024 94.0202 143.013 93.5325C142.999 93.0419 142.993 92.5656 142.993 92.1036C142.987 91.6444 142.982 91.2394 142.982 90.8858L142.964 90.1243H128.496L128.459 90.8801L128.419 92.0922C128.399 92.5514 128.376 93.0248 128.353 93.5182C128.336 94.0088 128.311 94.4736 128.279 94.9214L129.426 95.0298C129.523 94.6704 129.611 94.3596 129.694 94.0858C129.779 93.8177 129.862 93.561 129.945 93.3271C130.03 93.0961 130.119 92.8622 130.213 92.6284C130.37 92.1863 130.609 91.8954 130.932 91.7414C131.254 91.5788 131.67 91.5075 132.184 91.5189H133.402Z" fill="#FFCC00"/>
<path fill-rule="evenodd" clip-rule="evenodd" d="M146.832 94.4571V110.537C146.837 111.03 146.82 111.438 146.772 111.743C146.729 112.054 146.629 112.291 146.472 112.465C146.318 112.63 146.073 112.756 145.745 112.847C145.411 112.93 144.964 112.995 144.396 113.044V114.19H154.352V113.044C153.659 112.984 153.118 112.913 152.718 112.827C152.316 112.739 152.025 112.613 151.834 112.448C151.649 112.274 151.535 112.034 151.48 111.723C151.432 111.415 151.409 111.008 151.415 110.5V105.954C151.683 106.065 152.011 106.162 152.393 106.245C152.77 106.333 153.189 106.376 153.637 106.382C154.795 106.119 155.893 105.714 156.931 105.158C157.969 104.605 158.896 103.912 159.706 103.076C160.519 102.246 161.157 101.291 161.622 100.21C162.093 99.1231 162.327 97.9252 162.338 96.6047C162.338 95.7349 162.201 94.8935 161.922 94.075C161.639 93.2564 161.229 92.5177 160.684 91.8589C160.136 91.203 159.46 90.6782 158.651 90.2903C157.843 89.9024 156.914 89.7056 155.856 89.6942C155.55 89.6942 155.237 89.7541 154.914 89.8711C154.586 89.9908 154.244 90.1591 153.888 90.373L151.415 91.9502V89.3349C150.228 89.6828 149.065 89.9994 147.924 90.2903C146.789 90.5841 145.734 90.8151 144.755 90.9833V92.0557C145.189 92.1156 145.548 92.1812 145.816 92.2611C146.093 92.3381 146.307 92.4579 146.449 92.6119C146.598 92.7687 146.7 92.994 146.755 93.2878C146.809 93.5787 146.837 93.9666 146.832 94.4571ZM151.415 103.196V93.2735C151.72 93.0054 152.059 92.7915 152.436 92.6432C152.812 92.4921 153.223 92.4151 153.671 92.4151C154.119 92.4094 154.566 92.5177 155.026 92.7374C155.485 92.9513 155.91 93.2992 156.298 93.7698C156.691 94.2489 157.002 94.8621 157.242 95.6322C157.478 96.4022 157.604 97.3349 157.61 98.4329C157.604 99.6792 157.467 100.766 157.187 101.684C156.908 102.603 156.526 103.316 156.029 103.823C155.539 104.328 154.966 104.585 154.315 104.59C154.013 104.585 153.677 104.513 153.32 104.371C152.955 104.234 152.61 104.054 152.27 103.846C151.934 103.629 151.649 103.415 151.415 103.196Z" fill="#FFCC00"/>
<path fill-rule="evenodd" clip-rule="evenodd" d="M164.486 98.3951C164.486 99.1823 164.6 99.9581 164.822 100.722C165.042 101.492 165.37 102.214 165.818 102.89C166.26 103.569 166.822 104.173 167.489 104.692C168.159 105.217 168.941 105.631 169.836 105.927C170.732 106.227 171.744 106.375 172.868 106.381C173.709 106.381 174.534 106.267 175.338 106.036C176.145 105.808 176.901 105.463 177.6 105.003C178.304 104.544 178.926 103.971 179.456 103.278C179.995 102.59 180.412 101.786 180.717 100.859C181.013 99.9409 181.17 98.9028 181.176 97.7506C181.17 96.6697 180.985 95.6429 180.608 94.6761C180.226 93.7149 179.69 92.8565 178.98 92.1092C178.27 91.3649 177.414 90.7745 176.419 90.3495C175.418 89.9189 174.294 89.6993 173.048 89.6936C172.241 89.6936 171.428 89.8133 170.618 90.0444C169.805 90.2782 169.035 90.629 168.302 91.0968C167.569 91.5616 166.916 92.1463 166.343 92.8394C165.769 93.5381 165.321 94.3481 164.994 95.275C164.66 96.2048 164.494 97.2429 164.486 98.3951ZM169.608 97.106C169.614 95.7456 169.756 94.6247 170.033 93.7349C170.307 92.8394 170.663 92.1748 171.105 91.7413C171.542 91.305 172.012 91.0882 172.509 91.0882C173.273 91.0882 173.923 91.3934 174.448 91.9894C174.973 92.5827 175.375 93.4583 175.643 94.6048C175.917 95.757 176.054 97.1602 176.054 98.8258C176.048 100.138 175.971 101.207 175.811 102.026C175.649 102.841 175.441 103.463 175.172 103.891C174.902 104.322 174.605 104.615 174.271 104.769C173.94 104.918 173.607 104.998 173.262 104.986C172.694 104.978 172.186 104.775 171.739 104.376C171.291 103.971 170.903 103.415 170.586 102.699C170.27 101.983 170.033 101.147 169.859 100.198C169.691 99.2422 169.608 98.2155 169.608 97.106Z" fill="#FFCC00"/>
<path fill-rule="evenodd" clip-rule="evenodd" d="M185.491 92.4801C185.534 92.7852 185.551 93.1788 185.545 93.6694V102.405C185.551 102.884 185.534 103.272 185.491 103.566C185.443 103.863 185.349 104.091 185.198 104.25C185.044 104.413 184.81 104.533 184.487 104.616C184.165 104.693 183.732 104.758 183.181 104.807V105.953H190.308V105.702C190.308 105.54 190.326 105.374 190.363 105.194C190.397 105.021 190.451 104.841 190.522 104.664L195.573 93.0961H195.645C195.596 93.9888 195.568 94.7303 195.542 95.3093C195.525 95.894 195.513 96.3731 195.508 96.7467C195.502 97.1318 195.502 97.4654 195.502 97.7506V102.442C195.513 103.05 195.471 103.517 195.382 103.834C195.291 104.151 195.108 104.376 194.82 104.513C194.541 104.644 194.11 104.747 193.531 104.807V105.953H202.199V104.807C201.668 104.758 201.243 104.693 200.927 104.61C200.616 104.524 200.379 104.399 200.228 104.233C200.08 104.065 199.977 103.834 199.931 103.535C199.888 103.235 199.866 102.847 199.871 102.371V93.561C199.866 93.1018 199.883 92.7196 199.923 92.4259C199.971 92.1407 200.068 91.9068 200.216 91.7414C200.365 91.5731 200.599 91.4476 200.915 91.3649C201.232 91.2794 201.654 91.2081 202.199 91.1624V90.1243H195.108V90.3382C195.108 90.4437 195.083 90.5578 195.043 90.6833C195 90.8088 194.946 90.9457 194.892 91.0883L189.844 102.727H189.772C189.818 101.9 189.849 101.159 189.872 100.514C189.889 99.8697 189.903 99.3022 189.909 98.8059C189.915 98.3125 189.915 97.8761 189.915 97.4997V93.561C189.909 92.945 189.943 92.4858 190.035 92.1692C190.123 91.8469 190.314 91.6273 190.608 91.4904C190.893 91.3592 191.329 91.2565 191.92 91.1967V90.1243H183.252V91.1967C183.786 91.2451 184.208 91.3107 184.519 91.3934C184.83 91.479 185.055 91.6045 185.206 91.7756C185.354 91.9439 185.449 92.1749 185.491 92.4801Z" fill="#FFCC00"/>
<path fill-rule="evenodd" clip-rule="evenodd" d="M188.605 86.2862C188.953 86.7853 189.467 87.1818 190.146 87.467C190.827 87.755 191.669 87.8976 192.673 87.9033C193.685 87.8976 194.541 87.755 195.234 87.467C195.924 87.1818 196.443 86.7796 196.797 86.2748C197.147 85.7671 197.327 85.1768 197.327 84.5008C197.327 84.1957 197.267 83.9048 197.147 83.6281C197.028 83.3543 196.851 83.129 196.611 82.9493C196.372 82.7696 196.075 82.6812 195.716 82.6755C195.345 82.6812 195.048 82.7639 194.814 82.9265C194.581 83.0919 194.427 83.3001 194.338 83.5568C194.253 83.8078 194.247 84.0787 194.318 84.3582C194.338 84.4837 194.361 84.6149 194.384 84.7518C194.409 84.8887 194.427 85.0199 194.427 85.1454C194.481 85.5561 194.367 85.867 194.081 86.0837C193.793 86.2919 193.334 86.4003 192.707 86.4003C192.094 86.4003 191.64 86.2919 191.335 86.078C191.03 85.8613 190.904 85.539 190.953 85.1083L191.007 84.7233L191.061 84.3582C191.144 84.0787 191.155 83.8078 191.095 83.5568C191.035 83.3001 190.893 83.0919 190.665 82.9265C190.439 82.7639 190.117 82.6812 189.698 82.6755C189.33 82.6812 189.025 82.7696 188.785 82.9493C188.554 83.129 188.374 83.36 188.26 83.6424C188.146 83.9219 188.086 84.2213 188.086 84.5351C188.086 85.1996 188.26 85.7785 188.605 86.2862Z" fill="#FFCC00"/>
<path fill-rule="evenodd" clip-rule="evenodd" d="M200.639 123.448C200.282 123.448 199.98 123.547 199.735 123.75C199.489 123.95 199.364 124.223 199.364 124.566C199.364 124.908 199.486 125.187 199.729 125.398C199.971 125.612 200.262 125.718 200.607 125.718C200.955 125.718 201.258 125.612 201.511 125.398C201.765 125.187 201.894 124.908 201.894 124.566C201.894 124.223 201.771 123.95 201.528 123.75C201.286 123.547 200.989 123.448 200.639 123.448Z" fill="#FFCC00"/>
<path fill-rule="evenodd" clip-rule="evenodd" d="M197.843 124.387V121.247C197.843 120.642 198.049 120.34 198.46 120.34V120.06H195.228V120.34C195.428 120.34 195.565 120.411 195.642 120.556C195.716 120.702 195.753 120.933 195.753 121.247L194.233 122.644V121.247C194.233 120.642 194.418 120.34 194.792 120.34V120.06H191.538V120.34C191.94 120.34 192.139 120.642 192.139 121.247V124.387C192.139 124.991 191.94 125.294 191.538 125.294V125.573H194.792V125.294C194.418 125.294 194.233 124.991 194.233 124.387V123.583L195.753 122.185V124.387C195.753 124.701 195.716 124.932 195.642 125.074C195.565 125.22 195.428 125.294 195.228 125.294V125.573H198.46V125.294C198.049 125.294 197.843 124.991 197.843 124.387Z" fill="#FFCC00"/>
<path fill-rule="evenodd" clip-rule="evenodd" d="M190.462 124.387V121.247C190.462 120.642 190.667 120.34 191.078 120.34V120.06H187.847V120.34C188.049 120.34 188.186 120.411 188.26 120.556C188.334 120.702 188.372 120.933 188.372 121.247L186.851 122.644V121.247C186.851 120.642 187.037 120.34 187.41 120.34V120.06H184.156V120.34C184.558 120.34 184.761 120.642 184.761 121.247V124.387C184.761 124.991 184.558 125.294 184.156 125.294V125.573H187.41V125.294C187.037 125.294 186.851 124.991 186.851 124.387V123.583L188.372 122.185V124.387C188.372 124.701 188.334 124.932 188.26 125.074C188.186 125.22 188.049 125.294 187.847 125.294V125.573H191.078V125.294C190.667 125.294 190.462 124.991 190.462 124.387Z" fill="#FFCC00"/>
<path fill-rule="evenodd" clip-rule="evenodd" d="M181.954 124.119V120.765C182.416 120.765 182.799 120.907 183.107 121.19C183.38 121.443 183.62 121.834 183.82 122.365L184.056 122.319L183.54 119.881C183.489 119.955 183.4 120.006 183.278 120.032C183.155 120.057 183.012 120.072 182.847 120.072H178.868C178.717 120.072 178.597 120.057 178.503 120.032C178.409 120.006 178.341 119.955 178.295 119.881L177.748 122.319L177.993 122.365C178.13 121.857 178.361 121.463 178.694 121.184C179.025 120.904 179.416 120.765 179.864 120.765V124.119C179.864 124.618 179.812 124.94 179.71 125.08C179.61 125.222 179.459 125.294 179.259 125.294V125.573H182.502V125.294C182.202 125.294 182.028 125.125 181.977 124.792C181.96 124.695 181.954 124.47 181.954 124.119Z" fill="#FFCC00"/>
<path fill-rule="evenodd" clip-rule="evenodd" d="M177.043 124.387V121.247C177.043 120.642 177.246 120.34 177.648 120.34V120.06H174.428V120.34C174.627 120.34 174.767 120.411 174.841 120.556C174.916 120.702 174.953 120.933 174.953 121.247V121.783H173.432V121.247C173.432 120.933 173.47 120.702 173.544 120.556C173.618 120.411 173.758 120.34 173.957 120.34V120.06H170.737V120.34C171.139 120.34 171.342 120.642 171.342 121.247V124.387C171.342 124.991 171.139 125.294 170.737 125.294V125.573H173.957V125.294C173.758 125.294 173.618 125.22 173.544 125.074C173.47 124.932 173.432 124.701 173.432 124.387V122.499H174.953V124.387C174.953 124.701 174.916 124.932 174.841 125.074C174.767 125.22 174.627 125.294 174.428 125.294V125.573H177.648V125.294C177.246 125.294 177.043 124.991 177.043 124.387Z" fill="#FFCC00"/>
<path fill-rule="evenodd" clip-rule="evenodd" d="M169.888 122.027C169.888 121.617 169.865 121.309 169.819 121.1C169.745 120.755 169.6 120.501 169.38 120.333C169.158 120.165 168.907 120.054 168.624 119.997C168.339 119.942 168.025 119.914 167.675 119.914C167.412 119.914 167.147 119.934 166.873 119.971C166.602 120.008 166.183 120.088 165.615 120.216L165.393 120.262C165.31 120.276 165.236 120.282 165.168 120.282C165.088 120.282 165.022 120.268 164.974 120.239C164.925 120.208 164.865 120.159 164.8 120.094L164.574 122.116H164.8C164.979 121.699 165.245 121.368 165.593 121.126C165.938 120.886 166.337 120.764 166.788 120.764C166.964 120.764 167.127 120.784 167.27 120.824C167.409 120.866 167.535 120.943 167.64 121.055C167.706 121.129 167.749 121.209 167.769 121.289C167.789 121.371 167.797 121.474 167.797 121.602V121.893C167.198 121.982 166.676 122.093 166.226 122.227C165.575 122.424 165.076 122.663 164.723 122.954C164.281 123.319 164.061 123.773 164.061 124.309C164.061 124.748 164.238 125.099 164.589 125.358C164.911 125.598 165.296 125.718 165.744 125.718C166.126 125.718 166.502 125.644 166.879 125.492C167.304 125.321 167.612 125.099 167.797 124.822C167.834 124.965 167.886 125.102 167.954 125.236C168.02 125.37 168.097 125.481 168.185 125.572H170.504V125.293C170.241 125.27 170.067 125.156 169.976 124.945C169.916 124.811 169.888 124.594 169.888 124.297V122.027ZM167.797 122.529C167.797 123.037 167.737 123.47 167.618 123.827C167.446 124.343 167.158 124.6 166.756 124.6C166.571 124.6 166.423 124.531 166.314 124.392C166.206 124.255 166.152 124.092 166.152 123.907C166.152 123.704 166.22 123.51 166.354 123.319C166.488 123.128 166.648 122.974 166.836 122.854C166.984 122.757 167.124 122.689 167.255 122.649C167.384 122.606 167.566 122.569 167.797 122.529Z" fill="#FFCC00"/>
<path fill-rule="evenodd" clip-rule="evenodd" d="M163.571 122.978C163.571 122.538 163.474 122.119 163.28 121.72C163.086 121.321 162.826 120.987 162.501 120.719C162.179 120.451 161.825 120.274 161.446 120.188C161.067 120.103 160.625 120.06 160.125 120.06H156.637V120.339C157.045 120.339 157.251 120.636 157.251 121.235V126.825C157.251 127.116 157.188 127.338 157.057 127.489C156.925 127.643 156.752 127.72 156.538 127.72V128H160.037V127.72C159.829 127.72 159.661 127.641 159.532 127.484C159.407 127.327 159.344 127.107 159.344 126.825V125.619L159.775 125.661C159.926 125.676 160.068 125.684 160.205 125.684C160.65 125.684 161.067 125.644 161.446 125.562C161.922 125.456 162.299 125.293 162.575 125.068C163.237 124.563 163.571 123.865 163.571 122.978ZM161.335 122.912C161.335 123.425 161.221 123.87 160.998 124.241C160.73 124.68 160.354 124.903 159.869 124.903C159.681 124.903 159.535 124.831 159.432 124.689C159.381 124.623 159.353 124.526 159.35 124.398L159.344 124.041V120.787H159.489C160.063 120.787 160.522 121.004 160.864 121.435C161.178 121.831 161.335 122.322 161.335 122.912Z" fill="#FFCC00"/>
<path fill-rule="evenodd" clip-rule="evenodd" d="M155.798 122.027C155.798 121.617 155.776 121.309 155.73 121.1C155.656 120.755 155.507 120.501 155.288 120.333C155.068 120.165 154.817 120.054 154.535 119.997C154.25 119.942 153.933 119.914 153.582 119.914C153.323 119.914 153.055 119.934 152.784 119.971C152.513 120.008 152.094 120.088 151.526 120.216L151.304 120.262C151.221 120.276 151.147 120.282 151.078 120.282C150.996 120.282 150.933 120.268 150.881 120.239C150.836 120.208 150.776 120.159 150.71 120.094L150.485 122.116H150.71C150.887 121.699 151.152 121.368 151.503 121.126C151.848 120.886 152.248 120.764 152.695 120.764C152.875 120.764 153.038 120.784 153.18 120.824C153.32 120.866 153.443 120.943 153.551 121.055C153.617 121.129 153.659 121.209 153.679 121.289C153.696 121.371 153.705 121.474 153.705 121.602V121.893C153.109 121.982 152.584 122.093 152.136 122.227C151.486 122.424 150.987 122.663 150.633 122.954C150.191 123.319 149.972 123.773 149.972 124.309C149.972 124.748 150.146 125.099 150.499 125.358C150.819 125.598 151.204 125.718 151.654 125.718C152.034 125.718 152.413 125.644 152.787 125.492C153.212 125.321 153.52 125.099 153.705 124.822C153.745 124.965 153.796 125.102 153.862 125.236C153.93 125.37 154.007 125.481 154.096 125.572H156.412V125.293C156.152 125.27 155.978 125.156 155.887 124.945C155.827 124.811 155.798 124.594 155.798 124.297V122.027ZM153.705 122.529C153.705 123.037 153.645 123.47 153.528 123.827C153.357 124.343 153.069 124.6 152.667 124.6C152.481 124.6 152.333 124.531 152.225 124.392C152.116 124.255 152.062 124.092 152.062 123.907C152.062 123.704 152.131 123.51 152.265 123.319C152.399 123.128 152.558 122.974 152.744 122.854C152.895 122.757 153.035 122.689 153.163 122.649C153.294 122.606 153.474 122.569 153.705 122.529Z" fill="#FFCC00"/>
<path fill-rule="evenodd" clip-rule="evenodd" d="M146.74 120.015V119.758C146.74 119.61 146.752 119.484 146.78 119.384C146.806 119.284 146.863 119.202 146.951 119.145C147.048 119.062 147.168 119.008 147.311 118.985C147.45 118.965 147.627 118.954 147.835 118.954C148.263 118.954 148.648 119.039 148.985 119.207C149.099 119.267 149.207 119.333 149.313 119.413C149.721 119.718 150.02 120.149 150.205 120.708L150.431 120.631L149.892 118.035C149.863 118.118 149.815 118.169 149.746 118.186C149.681 118.206 149.589 118.215 149.478 118.215H143.831V118.494C144.062 118.494 144.225 118.583 144.313 118.757C144.401 118.934 144.447 119.219 144.447 119.612V124.176C144.447 124.586 144.401 124.874 144.313 125.043C144.225 125.208 144.062 125.294 143.831 125.294V125.573H147.422V125.294C147.196 125.294 147.037 125.208 146.94 125.037C146.843 124.866 146.777 124.578 146.74 124.176V120.015Z" fill="#FFCC00"/>
<path fill-rule="evenodd" clip-rule="evenodd" d="M139.214 124.566C139.214 124.223 139.094 123.95 138.852 123.75C138.609 123.547 138.313 123.448 137.962 123.448C137.603 123.448 137.303 123.547 137.055 123.75C136.81 123.95 136.687 124.223 136.687 124.566C136.687 124.908 136.81 125.187 137.049 125.398C137.292 125.612 137.585 125.718 137.928 125.718C138.278 125.718 138.581 125.612 138.835 125.398C139.088 125.187 139.214 124.908 139.214 124.566Z" fill="#FFCC00"/>
<path fill-rule="evenodd" clip-rule="evenodd" d="M134.754 124.991C135.433 124.46 135.769 123.741 135.769 122.832C135.769 121.902 135.45 121.169 134.808 120.641C134.221 120.156 133.456 119.914 132.518 119.914C131.554 119.914 130.752 120.173 130.114 120.695C129.426 121.254 129.084 122.004 129.084 122.946C129.084 123.391 129.172 123.813 129.352 124.209C129.532 124.603 129.791 124.911 130.134 125.136C130.447 125.344 130.801 125.492 131.192 125.584C131.582 125.672 131.99 125.718 132.415 125.718C133.348 125.718 134.126 125.475 134.754 124.991ZM133.473 122.15C133.513 122.427 133.533 122.706 133.533 122.988C133.533 123.191 133.513 123.41 133.473 123.65C133.43 123.887 133.376 124.084 133.311 124.24C133.228 124.42 133.128 124.563 133.008 124.665C132.86 124.799 132.703 124.865 132.538 124.856C132.099 124.856 131.771 124.568 131.554 123.995C131.397 123.584 131.32 123.12 131.32 122.598C131.32 122.136 131.388 121.745 131.522 121.423C131.699 120.983 131.99 120.764 132.395 120.764C132.581 120.764 132.755 120.832 132.92 120.966C133.054 121.077 133.168 121.234 133.265 121.434C133.362 121.636 133.43 121.873 133.473 122.15Z" fill="#FFCC00"/>
<path fill-rule="evenodd" clip-rule="evenodd" d="M124.845 122.262V121.492C124.845 121.155 124.891 120.933 124.979 120.822C125.045 120.739 125.176 120.696 125.37 120.696C125.564 120.696 125.706 120.762 125.795 120.893C125.883 121.024 125.929 121.181 125.929 121.369C125.929 121.555 125.869 121.72 125.749 121.86C125.632 122.002 125.47 122.099 125.27 122.151L124.845 122.262ZM128.838 123.751C128.838 123.354 128.655 123.024 128.296 122.755C127.934 122.487 127.469 122.311 126.901 122.228C127.215 122.125 127.48 121.988 127.697 121.814C127.957 121.606 128.088 121.386 128.088 121.155C128.088 120.665 127.797 120.34 127.215 120.183C126.91 120.1 126.374 120.06 125.607 120.06H122.15V120.34C122.418 120.34 122.592 120.46 122.675 120.696C122.729 120.847 122.755 121.11 122.755 121.492V124.142C122.755 124.507 122.723 124.772 122.663 124.934C122.575 125.174 122.404 125.294 122.15 125.294V125.573H125.818C126.682 125.573 127.386 125.428 127.931 125.137C128.536 124.817 128.838 124.355 128.838 123.751ZM124.845 124.119V122.978L125.875 122.687C126.106 122.77 126.285 122.909 126.417 123.106C126.548 123.306 126.61 123.551 126.61 123.851C126.61 124.193 126.514 124.461 126.314 124.649C126.117 124.84 125.855 124.934 125.527 124.934C125.267 124.934 125.088 124.88 124.991 124.769C124.894 124.658 124.845 124.441 124.845 124.119Z" fill="#FFCC00"/>
<path fill-rule="evenodd" clip-rule="evenodd" d="M119.948 124.119V120.765C120.41 120.765 120.792 120.907 121.097 121.19C121.374 121.443 121.614 121.834 121.813 122.365L122.05 122.319L121.534 119.881C121.482 119.955 121.394 120.006 121.271 120.032C121.149 120.057 121.006 120.072 120.841 120.072H116.859C116.711 120.072 116.591 120.057 116.497 120.032C116.403 120.006 116.334 119.955 116.289 119.881L115.741 122.319L115.989 122.365C116.123 121.857 116.354 121.463 116.688 121.184C117.019 120.904 117.41 120.765 117.855 120.765V124.119C117.855 124.618 117.806 124.94 117.703 125.08C117.604 125.222 117.452 125.294 117.253 125.294V125.573H120.496V125.294C120.196 125.294 120.022 125.125 119.968 124.792C119.954 124.695 119.948 124.47 119.948 124.119Z" fill="#FFCC00"/>
<path fill-rule="evenodd" clip-rule="evenodd" d="M112.085 122.61C112.085 122.347 112.128 122.093 112.213 121.842C112.299 121.594 112.427 121.383 112.601 121.212C112.735 121.078 112.895 120.967 113.08 120.881C113.269 120.796 113.451 120.753 113.628 120.753C113.987 120.753 114.31 120.898 114.601 121.189C114.872 121.457 115.048 121.774 115.14 122.139L115.374 122.085L114.872 119.857C114.832 119.926 114.777 119.974 114.703 120.003C114.626 120.034 114.549 120.049 114.467 120.049L114.156 120.014L112.992 119.914C112.082 119.914 111.344 120.143 110.776 120.599C110.16 121.092 109.849 121.783 109.849 122.664C109.849 123.639 110.2 124.404 110.902 124.965C111.543 125.482 112.353 125.741 113.337 125.741L113.987 125.687L114.21 125.644C114.301 125.627 114.404 125.619 114.524 125.619C114.621 125.619 114.706 125.624 114.78 125.639C114.854 125.656 114.926 125.687 114.994 125.741L115.787 123.773L115.573 123.671C115.402 124.007 115.165 124.278 114.86 124.483C114.555 124.689 114.218 124.791 113.853 124.791C113.317 124.791 112.881 124.555 112.544 124.084C112.239 123.659 112.085 123.169 112.085 122.61Z" fill="#FFCC00"/>
<path fill-rule="evenodd" clip-rule="evenodd" d="M105.374 122.278C105.374 121.893 105.443 121.565 105.577 121.3C105.748 120.949 106.002 120.775 106.338 120.775C106.592 120.775 106.803 120.869 106.974 121.055C107.145 121.24 107.234 121.463 107.234 121.725V121.913L105.374 122.278ZM109.47 122.15C109.341 121.411 108.996 120.846 108.429 120.45C107.907 120.094 107.259 119.914 106.484 119.914C105.551 119.914 104.775 120.156 104.156 120.641C103.478 121.169 103.141 121.882 103.141 122.777C103.141 123.239 103.241 123.667 103.441 124.064C103.643 124.457 103.925 124.791 104.29 125.059C104.604 125.29 104.964 125.455 105.366 125.561C105.768 125.666 106.184 125.718 106.618 125.718C106.84 125.718 107.077 125.704 107.322 125.672C107.567 125.644 107.807 125.609 108.038 125.572L108.283 125.538C108.358 125.538 108.437 125.561 108.517 125.607L108.643 125.684L109.336 123.536L109.099 123.448C108.928 123.858 108.668 124.183 108.323 124.426C107.975 124.668 107.582 124.791 107.143 124.791C106.643 124.791 106.241 124.603 105.936 124.229C105.668 123.91 105.503 123.487 105.443 122.966L109.47 122.15Z" fill="#FFCC00"/>
<path fill-rule="evenodd" clip-rule="evenodd" d="M102.066 124.387V121.247C102.066 120.642 102.269 120.34 102.671 120.34V120.06H99.4508V120.34C99.6676 120.34 99.8073 120.408 99.8758 120.545C99.9413 120.685 99.9756 120.916 99.9756 121.247V122.117C99.6847 122.333 99.3766 122.442 99.0458 122.442C98.869 122.442 98.7264 122.39 98.618 122.291C98.5096 122.191 98.4554 122.037 98.4554 121.826V121.247C98.4554 120.933 98.4925 120.702 98.5667 120.556C98.6408 120.411 98.7777 120.34 98.9802 120.34V120.06H95.7603V120.34C95.9827 120.34 96.1396 120.411 96.228 120.556C96.3193 120.702 96.362 120.933 96.362 121.247V121.826C96.362 122.305 96.536 122.673 96.8783 122.935C97.192 123.172 97.5941 123.292 98.0847 123.292C98.4212 123.292 98.7321 123.26 99.0144 123.197C99.2968 123.132 99.6162 123.012 99.9756 122.832V124.387C99.9756 124.701 99.9385 124.932 99.8643 125.074C99.7902 125.22 99.6504 125.294 99.4508 125.294V125.573H102.671V125.294C102.269 125.294 102.066 124.991 102.066 124.387Z" fill="#FFCC00"/>
<path fill-rule="evenodd" clip-rule="evenodd" d="M95.1329 124.064V122.027C95.1329 121.617 95.1101 121.309 95.0673 121.1C94.9931 120.755 94.8448 120.501 94.6252 120.333C94.4056 120.165 94.1518 120.054 93.8694 119.997C93.5871 119.942 93.2705 119.914 92.9197 119.914C92.6602 119.914 92.3921 119.934 92.1211 119.971C91.8473 120.008 91.4281 120.088 90.8605 120.216L90.6381 120.262C90.5553 120.276 90.4812 120.282 90.4156 120.282C90.3329 120.282 90.2673 120.268 90.2188 120.239C90.1703 120.208 90.1133 120.159 90.0448 120.094L89.8224 122.116H90.0448C90.2245 121.699 90.4898 121.368 90.8377 121.126C91.1828 120.886 91.5821 120.764 92.0327 120.764C92.2124 120.764 92.3721 120.784 92.5147 120.824C92.6573 120.866 92.7799 120.943 92.8855 121.055C92.9539 121.129 92.9967 121.209 93.0138 121.289C93.0338 121.371 93.0423 121.474 93.0423 121.602V121.893C92.4434 121.982 91.9215 122.093 91.4709 122.227C90.8206 122.424 90.3215 122.663 89.9707 122.954C89.5286 123.319 89.3062 123.773 89.3062 124.309C89.3062 124.748 89.483 125.099 89.8338 125.358C90.1561 125.598 90.5411 125.718 90.9917 125.718C91.371 125.718 91.7504 125.644 92.124 125.492C92.5489 125.321 92.8569 125.099 93.0423 124.822C93.0794 124.965 93.1307 125.102 93.1992 125.236C93.2648 125.37 93.3418 125.481 93.4302 125.572H95.7489V125.293C95.4865 125.27 95.3126 125.156 95.2241 124.945C95.1643 124.811 95.1329 124.594 95.1329 124.297V124.064ZM93.0423 122.529C93.0423 123.037 92.9824 123.47 92.8627 123.827C92.6915 124.343 92.4063 124.6 92.0013 124.6C91.816 124.6 91.6676 124.531 91.5621 124.392C91.4537 124.255 91.3996 124.092 91.3996 123.907C91.3996 123.704 91.4651 123.51 91.5992 123.319C91.7332 123.128 91.893 122.974 92.0812 122.854C92.2295 122.757 92.3692 122.689 92.5004 122.649C92.6316 122.606 92.8113 122.569 93.0423 122.529Z" fill="#FFCC00"/>
<path fill-rule="evenodd" clip-rule="evenodd" d="M87.3612 122.111C86.9448 121.338 86.4514 120.659 85.8867 120.086L86.4571 119.593C86.8079 119.302 87.1359 119.071 87.4411 118.899C87.8204 118.68 88.194 118.546 88.5591 118.494V118.215H85.3163V118.494C85.4418 118.494 85.5616 118.534 85.6728 118.611C85.784 118.691 85.8411 118.788 85.8411 118.908C85.8411 119.034 85.7413 119.21 85.5388 119.433L85.091 119.881L83.896 120.953V119.67C83.896 119.25 83.9416 118.951 84.0357 118.768C84.127 118.586 84.2867 118.494 84.512 118.494L84.4978 118.215H80.9897V118.494C81.2179 118.494 81.3805 118.583 81.4689 118.757C81.5602 118.934 81.6029 119.219 81.6029 119.615V124.184C81.6029 124.595 81.5602 124.886 81.4689 125.054C81.3805 125.22 81.2179 125.305 80.9897 125.305V125.573H84.5776V125.305C84.1241 125.305 83.896 124.932 83.896 124.187V121.894L84.2867 121.538C84.532 121.834 84.7316 122.088 84.8799 122.296C85.0653 122.564 85.225 122.838 85.3619 123.112C85.496 123.389 85.6272 123.708 85.7584 124.073C85.8867 124.441 85.9523 124.723 85.9523 124.923C85.9523 125.066 85.8981 125.171 85.784 125.237C85.7042 125.282 85.5872 125.305 85.4389 125.305V125.573H89.1409V125.305C88.9384 125.305 88.7701 125.214 88.6361 125.037C88.5477 124.917 88.4507 124.715 88.3452 124.43C88.0257 123.511 87.6978 122.741 87.3612 122.111Z" fill="#FFCC00"/>
<path fill-rule="evenodd" clip-rule="evenodd" d="M75.9894 125.398C76.2432 125.187 76.3687 124.908 76.3687 124.566C76.3687 124.223 76.2489 123.95 76.0065 123.75C75.7641 123.547 75.4675 123.448 75.1167 123.448C74.7573 123.448 74.4578 123.547 74.2097 123.75C73.9644 123.95 73.8418 124.223 73.8418 124.566C73.8418 124.908 73.9616 125.187 74.204 125.398C74.4464 125.612 74.7402 125.718 75.0824 125.718C75.4332 125.718 75.7356 125.612 75.9894 125.398Z" fill="#FFCC00"/>
<path fill-rule="evenodd" clip-rule="evenodd" d="M72.3989 125.131C72.9579 124.837 73.2374 124.43 73.2374 123.908C73.2374 123.16 72.8552 122.613 72.0852 122.262C71.4748 121.98 70.6477 121.837 69.6039 121.837V121.492C69.6039 121.11 69.6324 120.847 69.6951 120.696C69.7893 120.46 69.9889 120.34 70.2855 120.34V120.06H66.9087V120.34C67.1768 120.34 67.3536 120.46 67.4335 120.696C67.4877 120.847 67.5133 121.11 67.5133 121.492V124.142C67.5133 124.612 67.462 124.92 67.3622 125.068C67.2623 125.22 67.1112 125.294 66.9087 125.294V125.573H70.0973C71.0727 125.573 71.8399 125.425 72.3989 125.131ZM70.7675 122.924C71.027 123.192 71.1582 123.511 71.1582 123.885C71.1582 124.204 71.0584 124.461 70.8616 124.649C70.6648 124.84 70.4196 124.934 70.1286 124.934C69.9147 124.934 69.7721 124.88 69.7037 124.769C69.6381 124.658 69.6039 124.452 69.6039 124.153V122.487C70.0973 122.487 70.4823 122.633 70.7675 122.924Z" fill="#FFCC00"/>
<path fill-rule="evenodd" clip-rule="evenodd" d="M64.7068 124.119V120.765C65.1689 120.765 65.551 120.907 65.8591 121.19C66.1329 121.443 66.3724 121.834 66.5721 122.365L66.8088 122.319L66.2926 119.881C66.2412 119.955 66.1528 120.006 66.0302 120.032C65.9076 120.057 65.765 120.072 65.5995 120.072H61.6181C61.4698 120.072 61.35 120.057 61.2559 120.032C61.1646 120.006 61.0933 119.955 61.0477 119.881L60.5029 122.319L60.7482 122.365C60.8823 121.857 61.1133 121.463 61.447 121.184C61.7778 120.904 62.1685 120.765 62.6163 120.765V124.119C62.6163 124.618 62.565 124.94 62.4651 125.08C62.3625 125.222 62.2113 125.294 62.0117 125.294V125.573H65.2544V125.294C64.955 125.294 64.781 125.125 64.7297 124.792C64.7125 124.695 64.7068 124.47 64.7068 124.119Z" fill="#FFCC00"/>
<path fill-rule="evenodd" clip-rule="evenodd" d="M56.8439 122.61C56.8439 122.347 56.8867 122.093 56.9723 121.842C57.0607 121.594 57.189 121.383 57.3601 121.212C57.4942 121.078 57.6539 120.967 57.8393 120.881C58.0275 120.796 58.21 120.753 58.3897 120.753C58.7462 120.753 59.0714 120.898 59.3623 121.189C59.6304 121.457 59.81 121.774 59.8985 122.139L60.1323 122.085L59.6304 119.857C59.5933 119.926 59.5362 119.974 59.4621 120.003C59.3879 120.034 59.3081 120.049 59.2282 120.049L58.9145 120.014L57.7509 119.914C56.8411 119.914 56.1024 120.143 55.5377 120.599C54.9188 121.092 54.6079 121.783 54.6079 122.664C54.6079 123.639 54.9587 124.404 55.6603 124.965C56.302 125.482 57.1149 125.741 58.0988 125.741L58.7462 125.687L58.9687 125.644C59.06 125.627 59.1626 125.619 59.2824 125.619C59.3794 125.619 59.4649 125.624 59.5391 125.639C59.6132 125.656 59.6845 125.687 59.753 125.741L60.5459 123.773L60.3348 123.671C60.1637 124.007 59.9241 124.278 59.619 124.483C59.3109 124.689 58.9772 124.791 58.6122 124.791C58.076 124.791 57.6396 124.555 57.3031 124.084C56.9979 123.659 56.8439 123.169 56.8439 122.61Z" fill="#FFCC00"/>
<path fill-rule="evenodd" clip-rule="evenodd" d="M54.1407 122.832C54.1407 121.902 53.8184 121.169 53.1767 120.641C52.5892 120.156 51.8248 119.914 50.8865 119.914C49.9225 119.914 49.1211 120.173 48.4822 120.695C47.7949 121.254 47.4526 122.004 47.4526 122.946C47.4526 123.391 47.541 123.813 47.7207 124.209C47.9004 124.603 48.1599 124.911 48.505 125.136C48.8159 125.344 49.1696 125.492 49.5603 125.584C49.951 125.672 50.3589 125.718 50.7838 125.718C51.7164 125.718 52.495 125.475 53.1225 124.991C53.8013 124.46 54.1407 123.741 54.1407 122.832ZM51.8419 122.15C51.8819 122.427 51.9018 122.706 51.9018 122.988C51.9018 123.191 51.8819 123.41 51.8419 123.65C51.7992 123.887 51.7478 124.084 51.6794 124.24C51.5967 124.42 51.4968 124.563 51.377 124.665C51.2287 124.799 51.0719 124.865 50.9065 124.856C50.4672 124.856 50.1393 124.568 49.9225 123.995C49.7656 123.584 49.6886 123.12 49.6886 122.598C49.6886 122.136 49.7571 121.745 49.8911 121.423C50.0708 120.983 50.3589 120.764 50.761 120.764C50.9492 120.764 51.1232 120.832 51.2886 120.966C51.4227 121.077 51.5368 121.234 51.6337 121.434C51.7307 121.636 51.7992 121.873 51.8419 122.15Z" fill="#FFCC00"/>
<path fill-rule="evenodd" clip-rule="evenodd" d="M46.38 124.387V121.247C46.38 120.642 46.5797 120.34 46.9818 120.34V120.06H43.7618V120.34C43.9643 120.34 44.1012 120.411 44.1754 120.556C44.2495 120.702 44.2866 120.933 44.2866 121.247V121.783H42.7665V121.247C42.7665 120.933 42.8035 120.702 42.8777 120.556C42.9519 120.411 43.0916 120.34 43.2912 120.34V120.06H40.0713V120.34C40.4734 120.34 40.6759 120.642 40.6759 121.247V124.387C40.6759 124.991 40.4734 125.294 40.0713 125.294V125.573H43.2912V125.294C43.0916 125.294 42.9519 125.22 42.8777 125.074C42.8035 124.932 42.7665 124.701 42.7665 124.387V122.499H44.2866V124.387C44.2866 124.701 44.2495 124.932 44.1754 125.074C44.1012 125.22 43.9643 125.294 43.7618 125.294V125.573H46.9818V125.294C46.5797 125.294 46.38 124.991 46.38 124.387Z" fill="#FFCC00"/>
<path fill-rule="evenodd" clip-rule="evenodd" d="M38.5284 123.28C38.3487 122.938 38.1547 122.613 37.9465 122.308C37.7897 122.085 37.5672 121.786 37.2763 121.412L37.4788 121.235C37.7897 120.967 38.1319 120.75 38.4998 120.585C38.8706 120.422 39.2414 120.34 39.6121 120.34V120.06H36.4378V120.34C36.5433 120.34 36.6375 120.368 36.7287 120.422C36.8171 120.479 36.8628 120.556 36.8628 120.653C36.8628 120.705 36.8 120.816 36.6774 120.981C36.5547 121.15 36.3922 121.341 36.1925 121.558L35.5109 122.296V121.247C35.5109 120.961 35.5309 120.762 35.5765 120.642C35.6506 120.44 35.8047 120.34 36.0357 120.34V120.06H32.8927V120.34C33.1323 120.34 33.2863 120.44 33.3633 120.642C33.4004 120.745 33.4175 120.947 33.4175 121.247V122.296L32.7359 121.558C32.5933 121.401 32.4678 121.255 32.3565 121.121C32.1626 120.884 32.0656 120.728 32.0656 120.653C32.0656 120.548 32.1084 120.471 32.194 120.417C32.2795 120.365 32.3794 120.34 32.4906 120.34V120.06H29.3134V120.34C29.6728 120.34 30.0435 120.425 30.4257 120.596C30.8107 120.768 31.153 120.981 31.4496 121.235L31.6521 121.412C31.3897 121.74 31.1672 122.042 30.979 122.319C30.7508 122.661 30.554 122.984 30.4 123.28L29.9865 124.096C29.7384 124.566 29.6043 124.817 29.5815 124.846C29.3819 125.145 29.1651 125.294 28.9341 125.294V125.573H32.579V125.294C32.2738 125.294 32.1198 125.145 32.1198 124.846C32.1198 124.578 32.2282 124.216 32.4449 123.756C32.6617 123.297 32.8699 122.952 33.0724 122.721L33.4175 123.046V124.053C33.4175 124.484 33.3947 124.78 33.3519 124.934C33.2834 125.174 33.1323 125.294 32.8927 125.294V125.573H36.0357V125.294C35.8474 125.294 35.7134 125.222 35.6307 125.08C35.5508 124.94 35.5109 124.595 35.5109 124.053V123.046L35.856 122.721C36.0727 122.984 36.2838 123.332 36.492 123.774C36.703 124.213 36.8057 124.569 36.8057 124.846C36.8057 125.145 36.6688 125.294 36.3922 125.294V125.573H39.9943V125.294C39.7547 125.294 39.5351 125.145 39.3355 124.846C39.2899 124.786 39.1587 124.538 38.9419 124.096L38.5284 123.28Z" fill="#FFCC00"/>
<path fill-rule="evenodd" clip-rule="evenodd" d="M28.9571 122.15C28.8288 121.411 28.4837 120.846 27.9161 120.45C27.3942 120.094 26.7468 119.914 25.971 119.914C25.0384 119.914 24.2626 120.156 23.6437 120.641C22.965 121.169 22.6284 121.882 22.6284 122.777C22.6284 123.239 22.7282 123.667 22.9307 124.064C23.1304 124.457 23.4127 124.791 23.7778 125.059C24.0915 125.29 24.4509 125.455 24.853 125.561C25.2552 125.666 25.6715 125.718 26.1051 125.718C26.3275 125.718 26.5642 125.704 26.8095 125.672C27.0548 125.644 27.2944 125.609 27.5254 125.572L27.7707 125.538C27.8448 125.538 27.9247 125.561 28.0074 125.607L28.13 125.684L28.8231 123.536L28.5863 123.448C28.4152 123.858 28.1585 124.183 27.8106 124.426C27.4626 124.668 27.0719 124.791 26.6298 124.791C26.1307 124.791 25.7286 124.603 25.4234 124.229C25.1553 123.91 24.9899 123.487 24.93 122.966L28.9571 122.15ZM26.4616 121.055C26.6355 121.24 26.7211 121.463 26.7211 121.725V121.913L24.8616 122.278C24.8616 121.893 24.93 121.565 25.0641 121.3C25.238 120.949 25.489 120.775 25.8256 120.775C26.0794 120.775 26.2904 120.869 26.4616 121.055Z" fill="#FFCC00"/>
<path fill-rule="evenodd" clip-rule="evenodd" d="M21.553 124.386V121.491C21.553 121.08 21.5758 120.812 21.6215 120.687C21.6956 120.462 21.8753 120.35 22.1577 120.35V120.059H17.2721V120.35C17.4347 120.35 17.5174 120.413 17.5174 120.541C17.5174 120.636 17.4775 120.733 17.3947 120.832C16.9156 121.346 16.5363 121.956 16.2539 122.663C16.0457 123.185 15.8917 123.776 15.7948 124.432C15.7662 124.657 15.7035 124.845 15.6094 125.002C15.5181 125.159 15.4069 125.236 15.2814 125.236C15.2072 125.236 15.1274 125.202 15.0447 125.136L15.0218 125.247C15.0846 125.27 15.1559 125.284 15.2357 125.293V125.572H14.9505L14.4971 127.686L14.7338 127.731C14.8907 127.135 15.1673 126.645 15.5694 126.265C16.0543 125.803 16.6646 125.572 17.3947 125.572H19.7648C20.3381 125.572 20.8315 125.715 21.2422 125.997C21.7184 126.325 22.112 126.902 22.4258 127.731L22.6511 127.686L22.1577 125.125C22.0607 125.185 21.978 125.213 21.9124 125.213C21.784 125.213 21.6928 125.139 21.6386 124.985C21.5815 124.831 21.553 124.631 21.553 124.386ZM19.4625 124.42C19.4625 124.606 19.4197 124.74 19.3284 124.822C19.24 124.905 19.0204 124.945 18.6696 124.945H17.7741C17.4775 124.945 17.2835 124.939 17.1923 124.922C16.9527 124.885 16.8357 124.725 16.8357 124.443C16.8357 123.756 16.9498 123.105 17.1751 122.492C17.4033 121.876 17.6942 121.408 18.0536 121.086C18.2104 120.938 18.3644 120.829 18.5185 120.758C18.6696 120.687 18.855 120.653 19.0717 120.653C19.2429 120.653 19.3512 120.707 19.394 120.815C19.4397 120.924 19.4625 121.149 19.4625 121.491V124.42Z" fill="#FFCC00"/>
<path fill-rule="evenodd" clip-rule="evenodd" d="M14.6193 122.027C14.6193 121.617 14.5993 121.309 14.5537 121.1C14.4795 120.755 14.3312 120.501 14.1116 120.333C13.892 120.165 13.641 120.054 13.3558 119.997C13.0735 119.942 12.7569 119.914 12.4061 119.914C12.1466 119.914 11.8785 119.934 11.6075 119.971C11.3337 120.008 10.9145 120.088 10.3469 120.216L10.1245 120.262C10.0418 120.276 9.9676 120.282 9.902 120.282C9.81929 120.282 9.7537 120.268 9.70521 120.239C9.65673 120.208 9.59969 120.159 9.53124 120.094L9.30878 122.116H9.53124C9.71092 121.699 9.97616 121.368 10.3241 121.126C10.6721 120.886 11.0685 120.764 11.5191 120.764C11.6988 120.764 11.8585 120.784 12.0011 120.824C12.1437 120.866 12.2663 120.943 12.3719 121.055C12.4403 121.129 12.4831 121.209 12.5002 121.289C12.5202 121.371 12.5287 121.474 12.5287 121.602V121.893C11.9298 121.982 11.4079 122.093 10.9573 122.227C10.307 122.424 9.80789 122.663 9.45708 122.954C9.01502 123.319 8.79541 123.773 8.79541 124.309C8.79541 124.748 8.96938 125.099 9.32304 125.358C9.64247 125.598 10.0275 125.718 10.4781 125.718C10.8574 125.718 11.2368 125.644 11.6104 125.492C12.0353 125.321 12.3434 125.099 12.5287 124.822C12.5658 124.965 12.6171 125.102 12.6856 125.236C12.7512 125.37 12.8282 125.481 12.9195 125.572H14.9501L15.0214 125.247C14.876 125.19 14.7733 125.09 14.7105 124.945C14.6507 124.811 14.6193 124.594 14.6193 124.297V122.027ZM12.5287 122.529C12.5287 123.037 12.4688 123.47 12.3491 123.827C12.1779 124.343 11.8927 124.6 11.4906 124.6C11.3024 124.6 11.1541 124.531 11.0485 124.392C10.9401 124.255 10.886 124.092 10.886 123.907C10.886 123.704 10.9516 123.51 11.0856 123.319C11.2196 123.128 11.3822 122.974 11.5676 122.854C11.7159 122.757 11.8557 122.689 11.9868 122.649C12.118 122.606 12.2977 122.569 12.5287 122.529Z" fill="#FFCC00"/>
<path fill-rule="evenodd" clip-rule="evenodd" d="M7.67485 124.176V119.612C7.67485 119.202 7.72048 118.914 7.81174 118.745C7.90016 118.577 8.05987 118.494 8.29089 118.494V118.215H4.72298V118.494C4.95685 118.494 5.12227 118.583 5.22779 118.763C5.33047 118.942 5.38466 119.225 5.38466 119.612V120.217H3.15721V119.612C3.15721 119.21 3.2114 118.922 3.31407 118.751C3.4196 118.58 3.58787 118.494 3.81888 118.494V118.215H0.250977V118.494C0.661671 118.494 0.867018 118.874 0.867018 119.635L0.867018 124.176C0.867018 124.586 0.821386 124.874 0.732972 125.043C0.641707 125.208 0.481992 125.294 0.250977 125.294V125.573H3.81888V125.294C3.56505 125.294 3.39108 125.202 3.29696 125.026C3.20569 124.846 3.15721 124.544 3.15721 124.119V120.953H5.38466V124.119C5.38466 124.544 5.33617 124.846 5.2392 125.026C5.14223 125.202 4.97111 125.294 4.72298 125.294V125.573H8.29089V125.294C8.05987 125.294 7.90016 125.205 7.81174 125.031C7.72048 124.855 7.67485 124.569 7.67485 124.176Z" fill="#FFCC00"/>
<path fill-rule="evenodd" clip-rule="evenodd" d="M63.5807 32.6074L101.484 11.0374L139.391 32.6074L149.179 27.1429L101.484 7.62939e-06L53.7925 27.1429L63.5807 32.6074Z" fill="#FFCC00"/>
<path fill-rule="evenodd" clip-rule="evenodd" d="M82.5637 27.1458L72.9951 32.5875V66.6922L91.773 77.376V65.1493L81.9876 59.5792V48.7557L91.773 54.3229V43.4994L101.481 37.975L82.5637 27.1458Z" fill="#FFCC00"/>
<path fill-rule="evenodd" clip-rule="evenodd" d="M120.402 27.1458L101.481 37.975L111.19 43.4994V54.3229L120.975 48.7557V59.5792L111.19 65.1493V77.376L129.971 66.6922V32.5875L120.402 27.1458Z" fill="#FFCC00"/>
</svg>
