<svg width="231" height="63" viewBox="0 0 231 63" fill="none" xmlns="http://www.w3.org/2000/svg">
<path fill-rule="evenodd" clip-rule="evenodd" d="M9.13949 26.3613L44.531 8.92375L79.9253 26.3613L89.0648 21.9437L44.531 0.000911713L0 21.9437L9.13949 26.3613Z" fill="#FFCC00"/>
<path fill-rule="evenodd" clip-rule="evenodd" d="M26.8646 21.9457L17.9302 26.3449V53.9158L35.4635 62.5527V52.6684L26.3267 48.1655V39.4156L35.4635 43.9162V35.1663L44.5284 30.7003L26.8646 21.9457Z" fill="#FFCC00"/>
<path fill-rule="evenodd" clip-rule="evenodd" d="M62.1943 21.9457L44.5278 30.7003L53.5928 35.1663V43.9162L62.7296 39.4156V48.1655L53.5928 52.6684V62.5527L71.1288 53.9158V26.3449L62.1943 21.9457Z" fill="#FFCC00"/>
<path fill-rule="evenodd" clip-rule="evenodd" d="M111.923 36.7781V30.26H112.726C112.981 30.26 113.193 30.2788 113.361 30.3216C113.529 30.361 113.666 30.421 113.778 30.5066C113.892 30.594 113.992 30.7054 114.08 30.8407C114.192 31.0308 114.293 31.2467 114.389 31.4899C114.481 31.7332 114.569 32.0278 114.657 32.3687L115.483 32.3036C115.467 32.0415 115.449 31.7623 115.441 31.4694C115.433 31.1747 115.429 30.8886 115.429 30.6111C115.425 30.3353 115.421 30.0921 115.421 29.8797L115.41 29.4223H105.28L105.254 29.8762L105.224 30.6043C105.212 30.8801 105.196 31.1644 105.178 31.4608C105.166 31.7554 105.15 32.0347 105.128 32.3036L105.931 32.3687C105.997 32.1529 106.061 31.9662 106.119 31.8017C106.177 31.6407 106.237 31.4865 106.294 31.346C106.352 31.2073 106.416 31.0668 106.482 30.9263C106.592 30.6608 106.758 30.4861 106.983 30.3936C107.209 30.2959 107.503 30.2531 107.862 30.26H108.715V36.7781C108.719 37.0727 108.703 37.3091 108.673 37.4873C108.639 37.6672 108.569 37.8076 108.459 37.9036C108.351 38.0046 108.187 38.0766 107.962 38.1263C107.74 38.1725 107.441 38.2119 107.059 38.241V38.9297H113.778V38.241C113.349 38.2119 113.009 38.1725 112.76 38.1228C112.508 38.0715 112.321 37.9961 112.205 37.8967C112.083 37.7957 112.007 37.6569 111.969 37.477C111.935 37.2972 111.919 37.0642 111.923 36.7781Z" fill="#FFCC00"/>
<path fill-rule="evenodd" clip-rule="evenodd" d="M92.6189 31.6989C92.6189 31.0582 92.6967 30.4415 92.8565 29.8419C93.0142 29.2441 93.2478 28.6873 93.5573 28.1717C93.8668 27.6595 94.2482 27.2107 94.7034 26.8236C95.1587 26.4364 95.6798 26.1349 96.2749 25.9208C96.8719 25.7015 97.5328 25.5936 98.2596 25.5919C98.7428 25.5867 99.22 25.6415 99.6873 25.7478C100.156 25.8557 100.6 26.0355 101.017 26.2822C101.434 26.534 101.806 26.8698 102.137 27.2981C102.467 27.7195 102.738 28.2505 102.948 28.8809L103.874 28.7319C103.816 28.2762 103.759 27.8531 103.699 27.4625C103.637 27.0719 103.575 26.6916 103.507 26.3216C103.445 25.9533 103.373 25.573 103.297 25.1825C103.064 25.1431 102.722 25.078 102.267 24.9889C101.812 24.9015 101.277 24.8193 100.67 24.7439C100.065 24.6685 99.4157 24.6257 98.7348 24.6223C97.2313 24.6257 95.8735 24.809 94.6575 25.167C93.4415 25.5302 92.3952 26.039 91.5227 26.7019C90.6541 27.3649 89.9852 28.1546 89.516 29.0676C89.0487 29.9824 88.8111 30.9965 88.8071 32.1083C88.8071 32.7969 88.9189 33.4822 89.1446 34.1622C89.3742 34.8475 89.7256 35.4899 90.2068 36.098C90.682 36.7078 91.293 37.2492 92.0338 37.722C92.7766 38.193 93.6632 38.5648 94.6955 38.8337C95.7218 39.1061 96.9018 39.2431 98.2336 39.25C98.6649 39.2466 99.1202 39.2243 99.5914 39.1815C100.065 39.1352 100.52 39.0821 100.959 39.017C101.402 38.9554 101.794 38.892 102.133 38.8337C102.475 38.7721 102.73 38.7258 102.898 38.6915C103.006 38.4963 103.124 38.2633 103.253 37.9841C103.377 37.7048 103.507 37.4033 103.637 37.0847C103.767 36.7627 103.888 36.4423 104.004 36.1271C104.118 35.8085 104.218 35.5173 104.302 35.2483L103.423 34.9263C102.788 36.0158 102.069 36.8363 101.267 37.3965C100.466 37.9549 99.5455 38.2359 98.5092 38.2393C97.6526 38.2359 96.8679 38.0817 96.1491 37.7699C95.4342 37.4616 94.8113 37.0196 94.2841 36.4457C93.759 35.8684 93.3497 35.1849 93.0601 34.3815C92.7686 33.5815 92.6229 32.6856 92.6189 31.6989Z" fill="#FFCC00"/>
<path fill-rule="evenodd" clip-rule="evenodd" d="M122.654 32.9484C122.504 33.0563 122.287 33.1659 121.999 33.2841C121.706 33.3989 121.376 33.5222 121.001 33.6404C120.623 33.762 120.236 33.8837 119.835 34.0053C119.433 34.1269 119.044 34.2486 118.669 34.3668C118.233 34.5072 117.878 34.6648 117.594 34.8447C117.315 35.0246 117.105 35.2387 116.967 35.4974C116.83 35.7509 116.764 36.0627 116.764 36.4327C116.764 36.7702 116.842 37.0991 116.997 37.4262C117.151 37.7483 117.373 38.0464 117.666 38.3068C117.958 38.5723 118.313 38.7847 118.73 38.9423C119.15 39.0999 119.621 39.1821 120.148 39.1855C120.32 39.1787 120.553 39.1102 120.841 38.9817C121.13 38.8532 121.448 38.6922 121.785 38.502L122.78 37.9385C122.83 38.0669 122.902 38.2005 123.001 38.3359C123.097 38.4729 123.235 38.6048 123.407 38.735C123.57 38.8669 123.784 38.9748 124.042 39.0571C124.297 39.1393 124.599 39.1821 124.936 39.1855L127.67 37.9607L127.418 37.2721C127.28 37.3252 127.143 37.368 127.001 37.3971C126.863 37.4297 126.717 37.4434 126.566 37.4434C126.424 37.4468 126.29 37.4108 126.17 37.3406C126.048 37.2686 125.953 37.1385 125.877 36.9534C125.805 36.7667 125.765 36.5081 125.765 36.174V32.6246C125.769 32.2237 125.735 31.8503 125.663 31.5111C125.597 31.1702 125.467 30.855 125.28 30.5706C125.088 30.2846 124.816 30.0225 124.461 29.7861C124.126 29.5702 123.762 29.4126 123.365 29.3133C122.969 29.2122 122.512 29.1625 122.003 29.1625C121.644 29.2225 121.272 29.3098 120.883 29.4212C120.5 29.5343 120.118 29.661 119.743 29.8049C119.371 29.9471 119.02 30.0944 118.694 30.2486C118.367 30.3993 118.083 30.5467 117.842 30.6888C117.564 30.8687 117.349 31.0366 117.197 31.1976C117.043 31.3569 116.967 31.5317 116.963 31.7218C116.971 31.912 117.055 32.0867 117.223 32.2494C117.391 32.4105 117.59 32.5424 117.832 32.6434C118.076 32.7428 118.309 32.7942 118.543 32.7976C118.794 32.801 119.012 32.7514 119.19 32.64C119.371 32.5321 119.509 32.3419 119.595 32.0661C119.697 31.7321 119.805 31.4392 119.918 31.1873C120.034 30.9338 120.16 30.7317 120.298 30.5809C120.412 30.4524 120.535 30.3565 120.679 30.2914C120.817 30.2263 120.975 30.1955 121.15 30.1955C121.61 30.1989 121.973 30.3771 122.241 30.7402C122.512 31.1017 122.65 31.6207 122.654 32.3025V32.9484ZM122.654 33.786V37.2292C122.458 37.3577 122.279 37.4468 122.121 37.4965C121.957 37.5513 121.785 37.577 121.602 37.5736C121.456 37.5736 121.296 37.5444 121.124 37.4828C120.955 37.4228 120.787 37.3286 120.633 37.2001C120.478 37.0716 120.352 36.9021 120.252 36.6914C120.152 36.4824 120.102 36.2323 120.098 35.9376C120.098 35.6909 120.144 35.4751 120.23 35.2969C120.32 35.1171 120.45 34.9595 120.623 34.8224C120.799 34.6905 121.017 34.5655 121.276 34.4541C121.536 34.3359 121.773 34.2211 121.995 34.1132C122.213 34.0019 122.432 33.894 122.654 33.786Z" fill="#FFCC00"/>
<path fill-rule="evenodd" clip-rule="evenodd" d="M131.707 30.26V36.7781C131.711 37.0727 131.693 37.3091 131.665 37.4873C131.631 37.6672 131.559 37.8076 131.451 37.9036C131.341 38.0046 131.18 38.0766 130.954 38.1263C130.732 38.1725 130.431 38.2119 130.051 38.241V38.9297H136.77V38.241C136.339 38.2119 136.002 38.1725 135.75 38.1228C135.5 38.0715 135.313 37.9961 135.195 37.8967C135.073 37.7957 134.999 37.6569 134.961 37.477C134.927 37.2972 134.911 37.0642 134.915 36.7781V30.26H135.718C135.972 30.26 136.185 30.2788 136.353 30.3216C136.519 30.361 136.657 30.421 136.77 30.5066C136.884 30.594 136.984 30.7054 137.072 30.8407C137.184 31.0308 137.284 31.2467 137.381 31.4899C137.473 31.7332 137.561 32.0278 137.649 32.3687L138.476 32.3036C138.458 32.0415 138.442 31.7623 138.434 31.4694C138.426 31.1747 138.422 30.8886 138.422 30.6111C138.418 30.3353 138.412 30.0921 138.412 29.8797L138.4 29.4223H128.27L128.246 29.8762L128.216 30.6043C128.204 30.8801 128.186 31.1644 128.171 31.4608C128.159 31.7554 128.141 32.0347 128.121 32.3036L128.923 32.3687C128.989 32.1529 129.053 31.9662 129.111 31.8017C129.169 31.6407 129.227 31.4865 129.287 31.346C129.345 31.2073 129.406 31.0668 129.474 30.9263C129.582 30.6608 129.75 30.4861 129.976 30.3936C130.201 30.2959 130.493 30.2531 130.854 30.26H131.707Z" fill="#FFCC00"/>
<path fill-rule="evenodd" clip-rule="evenodd" d="M141.297 32.6111L142.044 34.2282L142.996 36.2958C143.344 37.0496 143.707 37.8496 144.093 38.6924C144.146 38.8174 144.188 38.9596 144.22 39.1258C144.258 39.2902 144.262 39.4376 144.242 39.5729C144.192 39.7425 144.135 39.8898 144.059 40.0217C143.987 40.1536 143.887 40.2975 143.765 40.4551C143.645 40.6453 143.462 40.8457 143.222 41.0581C142.984 41.2722 142.675 41.4778 142.296 41.6748C141.91 41.8684 141.439 42.0363 140.882 42.1767C140.694 42.2196 140.552 42.2984 140.453 42.4166C140.357 42.5313 140.307 42.6821 140.307 42.8637C140.311 43.0761 140.381 43.2834 140.528 43.4804C140.67 43.6825 140.858 43.8469 141.096 43.9754C141.333 44.1056 141.597 44.1724 141.886 44.1776C142.108 44.181 142.327 44.133 142.545 44.0371C142.759 43.9394 142.984 43.7716 143.222 43.5283C143.462 43.2799 143.727 42.939 144.017 42.4988C144.182 42.2555 144.354 41.9746 144.534 41.6645C144.71 41.3476 144.903 40.9827 145.107 40.5665C145.313 40.1468 145.542 39.6585 145.792 39.1001C146.047 38.5451 146.331 37.8993 146.648 37.1644L147.703 34.7558C147.998 34.0843 148.258 33.507 148.479 33.0273C148.701 32.546 148.901 32.1246 149.08 31.7648C149.27 31.388 149.45 31.0882 149.624 30.8621C149.799 30.6359 150.009 30.4663 150.242 30.3533C150.476 30.2351 150.774 30.1546 151.137 30.1083V29.4214H146.525V30.1083L147.327 30.3019C147.535 30.3481 147.695 30.4064 147.799 30.4715C147.906 30.5349 147.97 30.6205 147.99 30.7284C148.008 30.8329 147.986 30.97 147.928 31.1413C147.886 31.2852 147.81 31.5062 147.703 31.8042C147.597 32.1057 147.469 32.4501 147.327 32.8338C147.18 33.2209 147.026 33.6149 146.866 34.0192C146.712 34.4252 146.561 34.8021 146.415 35.1532C146.273 35.5044 146.151 35.7939 146.047 36.0235L144.017 31.1636C143.913 30.9186 143.883 30.7284 143.933 30.5931C143.979 30.4561 144.135 30.3533 144.392 30.2813L145.145 30.1083L145.171 29.4214H138.801V30.1083C139.191 30.1272 139.5 30.1871 139.734 30.2916C139.967 30.3961 140.167 30.5503 140.327 30.7576C140.487 30.9648 140.648 31.2338 140.808 31.5713L141.297 32.6111Z" fill="#FFCC00"/>
<path fill-rule="evenodd" clip-rule="evenodd" d="M162.294 32.1083C162.294 32.7969 162.406 33.4822 162.632 34.1622C162.863 34.8475 163.213 35.4899 163.694 36.098C164.171 36.7078 164.78 37.2492 165.521 37.722C166.264 38.193 167.15 38.5648 168.183 38.8337C169.211 39.1061 170.389 39.2431 171.721 39.25C172.152 39.2466 172.608 39.2243 173.079 39.1815C173.552 39.1352 174.007 39.0821 174.446 39.017C174.89 38.9554 175.281 38.892 175.621 38.8337C175.964 38.7721 176.218 38.7258 176.385 38.6915C176.493 38.4963 176.611 38.2633 176.741 37.9841C176.867 37.7048 176.994 37.4033 177.124 37.0847C177.254 36.7627 177.376 36.4423 177.493 36.1271C177.605 35.8085 177.705 35.5173 177.789 35.2483L176.91 34.9263C176.275 36.0158 175.559 36.8363 174.756 37.3965C173.953 37.9549 173.033 38.2359 171.997 38.2393C171.14 38.2359 170.355 38.0817 169.636 37.7699C168.922 37.4616 168.299 37.0196 167.773 36.4457C167.246 35.8684 166.837 35.1849 166.547 34.3815C166.256 33.5815 166.11 32.6856 166.106 31.6989C166.106 31.0582 166.184 30.4415 166.344 29.8419C166.502 29.2441 166.737 28.6873 167.045 28.1717C167.354 27.6595 167.736 27.2107 168.191 26.8236C168.646 26.4364 169.167 26.1349 169.762 25.9208C170.359 25.7015 171.02 25.5936 171.747 25.5919C172.232 25.5867 172.707 25.6415 173.177 25.7478C173.644 25.8557 174.087 26.0355 174.504 26.2822C174.922 26.534 175.295 26.8698 175.625 27.2981C175.954 27.7195 176.226 28.2505 176.435 28.8809L177.364 28.7319C177.304 28.2762 177.246 27.8531 177.188 27.4625C177.124 27.0719 177.062 26.6916 176.994 26.3216C176.932 25.9533 176.861 25.573 176.787 25.1825C176.553 25.1431 176.21 25.078 175.754 24.9889C175.299 24.9015 174.764 24.8193 174.157 24.7439C173.552 24.6685 172.905 24.6257 172.222 24.6223C170.719 24.6257 169.361 24.809 168.145 25.167C166.929 25.5302 165.885 26.039 165.01 26.7019C164.141 27.3649 163.472 28.1546 163.005 29.0676C162.536 29.9824 162.298 30.9965 162.294 32.1083Z" fill="#FFCC00"/>
<path fill-rule="evenodd" clip-rule="evenodd" d="M154.781 34.9166C154.613 34.4901 154.526 33.9916 154.522 33.4211C154.526 32.8473 154.589 32.3608 154.715 31.9616C154.839 31.5642 155.003 31.2422 155.208 30.9972C155.412 30.7539 155.638 30.5741 155.885 30.4661C156.135 30.3565 156.382 30.2983 156.628 30.3017C156.976 30.2983 157.359 30.3891 157.772 30.5706C158.188 30.7505 158.651 31.0332 159.16 31.4203C159.27 31.506 159.37 31.5676 159.453 31.6036C159.541 31.6396 159.625 31.6567 159.713 31.6567C159.859 31.6533 160.017 31.5968 160.18 31.4888C160.348 31.3809 160.49 31.237 160.606 31.0589C160.723 30.879 160.785 30.6854 160.791 30.4747C160.807 30.324 160.781 30.1835 160.715 30.055C160.647 29.9248 160.524 29.8066 160.338 29.7004C160.118 29.5462 159.821 29.416 159.441 29.3167C159.06 29.2156 158.643 29.1659 158.184 29.1625H158.158C157.836 29.1591 157.451 29.1985 157.003 29.2773C156.556 29.3595 156.069 29.4948 155.542 29.6884C155.015 29.8871 154.476 30.1544 153.921 30.4953C153.393 30.8362 152.938 31.2233 152.563 31.6619C152.185 32.0987 151.894 32.5681 151.692 33.0665C151.493 33.565 151.393 34.0772 151.389 34.6049C151.389 35.1959 151.512 35.7663 151.756 36.3111C151.998 36.8558 152.353 37.344 152.82 37.774C153.29 38.2074 153.857 38.5483 154.53 38.7984C155.202 39.0502 155.967 39.1787 156.828 39.1855C157.343 39.1821 157.856 39.0862 158.371 38.896C158.884 38.7025 159.378 38.4335 159.851 38.0858C160.322 37.7414 160.753 37.332 161.141 36.8627L160.665 36.347C160.368 36.5697 160.08 36.741 159.805 36.8695C159.523 37.0031 159.24 37.0922 158.944 37.1504C158.651 37.2036 158.329 37.2292 157.982 37.2292C157.764 37.2292 157.511 37.1881 157.217 37.1059C156.924 37.0237 156.62 36.8952 156.311 36.7119C155.997 36.5338 155.704 36.2922 155.438 35.9993C155.166 35.7012 154.949 35.3432 154.781 34.9166Z" fill="#FFCC00"/>
<path fill-rule="evenodd" clip-rule="evenodd" d="M182.202 30.26V36.7781C182.206 37.0727 182.19 37.3091 182.16 37.4873C182.126 37.6672 182.056 37.8076 181.948 37.9036C181.838 38.0046 181.675 38.0766 181.449 38.1263C181.227 38.1725 180.928 38.2119 180.547 38.241V38.9297H187.268V38.241C186.836 38.2119 186.499 38.1725 186.247 38.1228C185.996 38.0715 185.808 37.9961 185.692 37.8967C185.57 37.7957 185.494 37.6569 185.456 37.477C185.425 37.2972 185.407 37.0642 185.411 36.7781V30.26H186.213C186.469 30.26 186.682 30.2788 186.848 30.3216C187.016 30.361 187.154 30.421 187.268 30.5066C187.379 30.594 187.479 30.7054 187.567 30.8407C187.681 31.0308 187.781 31.2467 187.877 31.4899C187.968 31.7332 188.056 32.0278 188.144 32.3687L188.971 32.3036C188.955 32.0415 188.939 31.7623 188.931 31.4694C188.921 31.1747 188.917 30.8886 188.917 30.6111C188.913 30.3353 188.909 30.0921 188.909 29.8797L188.897 29.4223H178.767L178.742 29.8762L178.714 30.6043C178.7 30.8801 178.684 31.1644 178.668 31.4608C178.656 31.7554 178.638 32.0347 178.616 32.3036L179.418 32.3687C179.486 32.1529 179.548 31.9662 179.606 31.8017C179.666 31.6407 179.724 31.4865 179.782 31.346C179.842 31.2073 179.904 31.0668 179.969 30.9263C180.079 30.6608 180.247 30.4861 180.473 30.3936C180.698 30.2959 180.99 30.2531 181.349 30.26H182.202Z" fill="#FFCC00"/>
<path fill-rule="evenodd" clip-rule="evenodd" d="M191.604 32.0224V41.6806C191.608 41.9769 191.596 42.2219 191.562 42.4052C191.532 42.5919 191.462 42.7341 191.353 42.8386C191.245 42.938 191.073 43.0133 190.843 43.0682C190.61 43.1178 190.296 43.1572 189.899 43.1864V43.875H196.869V43.1864C196.384 43.1504 196.005 43.1076 195.725 43.0562C195.444 43.0031 195.24 42.9277 195.106 42.8283C194.977 42.7238 194.897 42.5799 194.859 42.3932C194.825 42.2082 194.809 41.9632 194.813 41.6583V38.9277C195.001 38.9945 195.23 39.0528 195.498 39.1025C195.761 39.1556 196.055 39.1813 196.368 39.1847C197.179 39.0271 197.948 38.7838 198.674 38.4498C199.401 38.1175 200.05 37.7012 200.617 37.1993C201.186 36.7008 201.634 36.1269 201.959 35.4777C202.289 34.825 202.452 34.1055 202.46 33.3124C202.46 32.7899 202.364 32.2845 202.169 31.7929C201.971 31.3013 201.684 30.8576 201.302 30.4619C200.919 30.0679 200.446 29.7527 199.878 29.5197C199.313 29.2867 198.663 29.1685 197.922 29.1617C197.708 29.1617 197.488 29.1976 197.263 29.2679C197.033 29.3398 196.794 29.4409 196.544 29.5694L194.813 30.5167V28.9458C193.982 29.1548 193.168 29.345 192.369 29.5197C191.574 29.6961 190.835 29.8349 190.151 29.936V30.5801C190.454 30.616 190.706 30.6554 190.893 30.7034C191.087 30.7497 191.237 30.8216 191.337 30.9141C191.44 31.0083 191.512 31.1437 191.55 31.3201C191.588 31.4948 191.608 31.7278 191.604 32.0224ZM194.813 37.2712V31.3115C195.026 31.1505 195.264 31.022 195.528 30.9329C195.791 30.8422 196.079 30.7959 196.392 30.7959C196.706 30.7925 197.019 30.8576 197.341 30.9895C197.662 31.118 197.96 31.3269 198.231 31.6096C198.507 31.8974 198.724 32.2657 198.892 32.7282C199.058 33.1907 199.146 33.7509 199.15 34.4104C199.146 35.159 199.05 35.8117 198.854 36.3633C198.659 36.9149 198.391 37.3432 198.044 37.6481C197.7 37.9513 197.299 38.1055 196.843 38.1089C196.632 38.1055 196.396 38.0626 196.147 37.977C195.891 37.8948 195.649 37.7868 195.412 37.6618C195.176 37.5316 194.977 37.4031 194.813 37.2712Z" fill="#FFCC00"/>
<path fill-rule="evenodd" clip-rule="evenodd" d="M203.964 34.389C203.964 34.8618 204.044 35.3278 204.2 35.7869C204.354 36.2494 204.583 36.6828 204.897 37.0888C205.206 37.4965 205.6 37.8596 206.067 38.1714C206.536 38.4866 207.083 38.735 207.71 38.9132C208.337 39.093 209.046 39.1821 209.833 39.1855C210.422 39.1855 210.999 39.117 211.562 38.9783C212.127 38.8412 212.656 38.6339 213.145 38.3581C213.638 38.0823 214.074 37.738 214.445 37.3218C214.823 36.9089 215.114 36.4258 215.328 35.8691C215.535 35.3175 215.645 34.6939 215.649 34.0019C215.645 33.3526 215.515 32.7359 215.252 32.1552C214.984 31.5779 214.609 31.0623 214.112 30.6135C213.615 30.1664 213.016 29.8118 212.319 29.5565C211.618 29.2979 210.831 29.1659 209.959 29.1625C209.393 29.1625 208.824 29.2345 208.257 29.3732C207.688 29.5137 207.149 29.7244 206.636 30.0053C206.123 30.2846 205.666 30.6357 205.264 31.052C204.863 31.4717 204.549 31.9582 204.32 32.515C204.086 33.0734 203.97 33.697 203.964 34.389ZM207.55 33.6147C207.554 32.7976 207.654 32.1244 207.848 31.5899C208.04 31.052 208.289 30.6529 208.599 30.3925C208.904 30.1304 209.234 30.0002 209.581 30.0002C210.116 30.0002 210.572 30.1835 210.939 30.5415C211.306 30.8978 211.588 31.4237 211.776 32.1124C211.967 32.8045 212.063 33.6473 212.063 34.6477C212.059 35.4357 212.005 36.0781 211.893 36.5697C211.78 37.0597 211.634 37.4331 211.446 37.6901C211.256 37.9487 211.049 38.1252 210.815 38.2177C210.583 38.3068 210.35 38.3547 210.108 38.3479C209.711 38.3427 209.356 38.2211 209.042 37.9813C208.729 37.738 208.457 37.404 208.235 36.974C208.014 36.544 207.848 36.0421 207.726 35.4717C207.608 34.8978 207.55 34.2811 207.55 33.6147Z" fill="#FFCC00"/>
<path fill-rule="evenodd" clip-rule="evenodd" d="M218.67 30.8373C218.7 31.0206 218.712 31.257 218.708 31.5516V36.7987C218.712 37.0864 218.7 37.3194 218.67 37.4959C218.636 37.674 218.57 37.8111 218.464 37.907C218.357 38.0046 218.193 38.0766 217.967 38.1263C217.742 38.1725 217.438 38.2119 217.053 38.241V38.9297H222.043V38.7789C222.043 38.6813 222.055 38.5819 222.08 38.474C222.104 38.3695 222.142 38.2616 222.192 38.1554L225.729 31.2073H225.778C225.744 31.7435 225.725 32.1888 225.707 32.5366C225.695 32.8878 225.687 33.1756 225.683 33.4C225.679 33.6312 225.679 33.8317 225.679 34.003V36.8209C225.687 37.1858 225.657 37.4667 225.595 37.6569C225.531 37.847 225.403 37.9824 225.201 38.0646C225.006 38.1434 224.704 38.2051 224.299 38.241V38.9297H230.367V38.241C229.996 38.2119 229.698 38.1725 229.476 38.1228C229.259 38.0715 229.093 37.9961 228.987 37.8967C228.883 37.7957 228.811 37.6569 228.78 37.477C228.75 37.2972 228.734 37.0642 228.738 36.7781V31.4865C228.734 31.2107 228.746 30.9812 228.774 30.8047C228.807 30.6334 228.875 30.4929 228.979 30.3936C229.083 30.2925 229.247 30.2171 229.468 30.1675C229.69 30.1161 229.986 30.0732 230.367 30.0458V29.4223H225.403V29.5508C225.403 29.6141 225.385 29.6827 225.357 29.758C225.327 29.8334 225.289 29.9156 225.251 30.0013L221.717 36.9922H221.667C221.699 36.4954 221.721 36.0501 221.737 35.6629C221.749 35.2758 221.759 34.9349 221.763 34.6368C221.767 34.3404 221.767 34.0783 221.767 33.8522V31.4865C221.763 31.1165 221.787 30.8407 221.851 30.6505C221.913 30.457 222.047 30.3251 222.252 30.2428C222.452 30.164 222.757 30.1024 223.171 30.0664V29.4223H217.103V30.0664C217.476 30.0955 217.772 30.1349 217.989 30.1846C218.207 30.236 218.365 30.3114 218.47 30.4141C218.574 30.5152 218.64 30.654 218.67 30.8373Z" fill="#FFCC00"/>
<path fill-rule="evenodd" clip-rule="evenodd" d="M220.851 27.1146C221.094 27.4144 221.454 27.6525 221.929 27.8238C222.406 27.9969 222.995 28.0825 223.698 28.0859C224.407 28.0825 225.006 27.9969 225.491 27.8238C225.974 27.6525 226.338 27.411 226.585 27.1078C226.831 26.8029 226.957 26.4483 226.957 26.0423C226.957 25.859 226.915 25.6842 226.831 25.5181C226.747 25.3536 226.623 25.2183 226.455 25.1104C226.288 25.0025 226.08 24.9494 225.828 24.9459C225.569 24.9494 225.361 24.999 225.198 25.0967C225.034 25.196 224.926 25.3211 224.864 25.4753C224.804 25.626 224.8 25.7887 224.85 25.9566C224.864 26.032 224.88 26.1108 224.896 26.193C224.914 26.2752 224.926 26.354 224.926 26.4294C224.964 26.6761 224.884 26.8628 224.684 26.993C224.483 27.1181 224.161 27.1832 223.722 27.1832C223.293 27.1832 222.975 27.1181 222.762 26.9896C222.548 26.8594 222.46 26.6658 222.494 26.4072L222.532 26.1759L222.57 25.9566C222.628 25.7887 222.636 25.626 222.594 25.4753C222.552 25.3211 222.452 25.196 222.292 25.0967C222.135 24.999 221.909 24.9494 221.615 24.9459C221.358 24.9494 221.144 25.0025 220.976 25.1104C220.815 25.2183 220.689 25.3571 220.609 25.5266C220.529 25.6945 220.487 25.8744 220.487 26.0628C220.487 26.462 220.609 26.8097 220.851 27.1146Z" fill="#FFCC00"/>
<path fill-rule="evenodd" clip-rule="evenodd" d="M229.275 49.4372C229.025 49.4372 228.814 49.4972 228.642 49.6188C228.47 49.7387 228.382 49.9032 228.382 50.1087C228.382 50.3143 228.468 50.4822 228.638 50.6089C228.808 50.7374 229.011 50.8008 229.253 50.8008C229.497 50.8008 229.708 50.7374 229.886 50.6089C230.064 50.4822 230.153 50.3143 230.153 50.1087C230.153 49.9032 230.068 49.7387 229.898 49.6188C229.728 49.4972 229.52 49.4372 229.275 49.4372Z" fill="#FFCC00"/>
<path fill-rule="evenodd" clip-rule="evenodd" d="M227.318 50.0003V48.1142C227.318 47.751 227.461 47.5694 227.749 47.5694V47.4016H225.487V47.5694C225.626 47.5694 225.722 47.6123 225.776 47.6996C225.828 47.787 225.854 47.9257 225.854 48.1142L224.79 48.9536V48.1142C224.79 47.751 224.919 47.5694 225.181 47.5694V47.4016H222.903V47.5694C223.184 47.5694 223.324 47.751 223.324 48.1142V50.0003C223.324 50.3634 223.184 50.545 222.903 50.545V50.7129H225.181V50.545C224.919 50.545 224.79 50.3634 224.79 50.0003V49.5172L225.854 48.6778V50.0003C225.854 50.1887 225.828 50.3275 225.776 50.4131C225.722 50.5005 225.626 50.545 225.487 50.545V50.7129H227.749V50.545C227.461 50.545 227.318 50.3634 227.318 50.0003Z" fill="#FFCC00"/>
<path fill-rule="evenodd" clip-rule="evenodd" d="M222.15 50.0003V48.1142C222.15 47.751 222.294 47.5694 222.581 47.5694V47.4016H220.319V47.5694C220.461 47.5694 220.557 47.6123 220.609 47.6996C220.661 47.787 220.687 47.9257 220.687 48.1142L219.622 48.9536V48.1142C219.622 47.751 219.752 47.5694 220.014 47.5694V47.4016H217.735V47.5694C218.017 47.5694 218.159 47.751 218.159 48.1142V50.0003C218.159 50.3634 218.017 50.545 217.735 50.545V50.7129H220.014V50.545C219.752 50.545 219.622 50.3634 219.622 50.0003V49.5172L220.687 48.6778V50.0003C220.687 50.1887 220.661 50.3275 220.609 50.4131C220.557 50.5005 220.461 50.545 220.319 50.545V50.7129H222.581V50.545C222.294 50.545 222.15 50.3634 222.15 50.0003Z" fill="#FFCC00"/>
<path fill-rule="evenodd" clip-rule="evenodd" d="M216.194 49.8392V47.8247C216.518 47.8247 216.785 47.9103 217.001 48.0799C217.193 48.2324 217.36 48.4671 217.5 48.7857L217.666 48.7583L217.304 47.2936C217.268 47.3382 217.207 47.369 217.121 47.3844C217.035 47.3998 216.935 47.4084 216.819 47.4084H214.034C213.928 47.4084 213.844 47.3998 213.778 47.3844C213.712 47.369 213.664 47.3382 213.632 47.2936L213.249 48.7583L213.421 48.7857C213.517 48.4808 213.678 48.2444 213.912 48.0765C214.144 47.9086 214.417 47.8247 214.731 47.8247V49.8392C214.731 50.139 214.695 50.3326 214.623 50.4165C214.553 50.5022 214.447 50.545 214.307 50.545V50.7129H216.578V50.545C216.368 50.545 216.246 50.4439 216.21 50.2435C216.198 50.1853 216.194 50.0499 216.194 49.8392Z" fill="#FFCC00"/>
<path fill-rule="evenodd" clip-rule="evenodd" d="M212.755 50.0003V48.1142C212.755 47.751 212.897 47.5694 213.178 47.5694V47.4016H210.924V47.5694C211.064 47.5694 211.162 47.6123 211.214 47.6996C211.266 47.787 211.291 47.9257 211.291 48.1142V48.4362H210.227V48.1142C210.227 47.9257 210.253 47.787 210.305 47.6996C210.357 47.6123 210.455 47.5694 210.595 47.5694V47.4016H208.34V47.5694C208.622 47.5694 208.764 47.751 208.764 48.1142V50.0003C208.764 50.3634 208.622 50.545 208.34 50.545V50.7129H210.595V50.545C210.455 50.545 210.357 50.5005 210.305 50.4131C210.253 50.3275 210.227 50.1887 210.227 50.0003V48.8662H211.291V50.0003C211.291 50.1887 211.266 50.3275 211.214 50.4131C211.162 50.5005 211.064 50.545 210.924 50.545V50.7129H213.178V50.545C212.897 50.545 212.755 50.3634 212.755 50.0003Z" fill="#FFCC00"/>
<path fill-rule="evenodd" clip-rule="evenodd" d="M207.746 48.5841C207.746 48.3374 207.73 48.1524 207.698 48.0274C207.646 47.8201 207.544 47.6676 207.39 47.5666C207.235 47.4655 207.059 47.3987 206.861 47.3644C206.662 47.3319 206.442 47.3147 206.196 47.3147C206.013 47.3147 205.827 47.3267 205.635 47.349C205.446 47.3713 205.152 47.4192 204.755 47.4963L204.599 47.5237C204.541 47.5323 204.489 47.5357 204.441 47.5357C204.385 47.5357 204.339 47.5272 204.305 47.51C204.272 47.4912 204.23 47.4621 204.184 47.4227L204.026 48.6372H204.184C204.309 48.3871 204.495 48.1884 204.739 48.0428C204.98 47.8989 205.26 47.8252 205.575 47.8252C205.699 47.8252 205.813 47.8372 205.913 47.8612C206.011 47.8869 206.099 47.9332 206.172 48C206.218 48.0445 206.248 48.0925 206.262 48.1404C206.276 48.1901 206.282 48.2518 206.282 48.3289V48.5036C205.863 48.5567 205.498 48.6235 205.182 48.704C204.727 48.8222 204.377 48.9661 204.13 49.1408C203.82 49.3601 203.667 49.6325 203.667 49.9545C203.667 50.2183 203.79 50.4291 204.036 50.5849C204.262 50.7288 204.531 50.8008 204.845 50.8008C205.112 50.8008 205.376 50.7562 205.639 50.6655C205.937 50.5627 206.152 50.4291 206.282 50.2629C206.308 50.3485 206.344 50.4308 206.392 50.5113C206.438 50.5918 206.492 50.6586 206.554 50.7134H208.177V50.5455C207.993 50.5318 207.872 50.4633 207.808 50.3365C207.766 50.256 207.746 50.1258 207.746 49.9477V48.5841ZM206.282 48.8856C206.282 49.1905 206.24 49.4509 206.156 49.665C206.037 49.9751 205.835 50.1293 205.553 50.1293C205.424 50.1293 205.32 50.0882 205.244 50.0042C205.168 49.922 205.13 49.8243 205.13 49.713C205.13 49.5914 205.178 49.4749 205.272 49.3601C205.366 49.2453 205.478 49.1528 205.609 49.0809C205.713 49.0226 205.811 48.9815 205.903 48.9575C205.993 48.9319 206.12 48.9096 206.282 48.8856Z" fill="#FFCC00"/>
<path fill-rule="evenodd" clip-rule="evenodd" d="M203.323 49.1533C203.323 48.8895 203.255 48.6376 203.119 48.3978C202.983 48.158 202.802 47.9576 202.574 47.7965C202.348 47.6355 202.101 47.5293 201.835 47.4779C201.57 47.4265 201.26 47.4008 200.911 47.4008H198.469V47.5687C198.754 47.5687 198.898 47.7469 198.898 48.1066V51.4642C198.898 51.6389 198.854 51.7725 198.762 51.8633C198.67 51.9558 198.549 52.002 198.399 52.002V52.1699H200.849V52.002C200.703 52.002 200.585 51.9541 200.495 51.8599C200.408 51.7656 200.364 51.6337 200.364 51.4642V50.7395L200.665 50.7652C200.771 50.7738 200.871 50.7789 200.967 50.7789C201.278 50.7789 201.57 50.755 201.835 50.7053C202.169 50.6419 202.432 50.5443 202.626 50.4089C203.089 50.1057 203.323 49.686 203.323 49.1533ZM201.757 49.1139C201.757 49.4222 201.678 49.6894 201.522 49.9121C201.334 50.1759 201.071 50.3096 200.731 50.3096C200.599 50.3096 200.497 50.2667 200.426 50.1811C200.39 50.1417 200.37 50.0834 200.368 50.0064L200.364 49.7922V47.8377H200.466C200.867 47.8377 201.188 47.9678 201.428 48.2265C201.648 48.4646 201.757 48.7593 201.757 49.1139Z" fill="#FFCC00"/>
<path fill-rule="evenodd" clip-rule="evenodd" d="M197.882 48.5841C197.882 48.3374 197.866 48.1524 197.834 48.0274C197.782 47.8201 197.678 47.6676 197.525 47.5666C197.371 47.4655 197.195 47.3987 196.998 47.3644C196.798 47.3319 196.576 47.3147 196.331 47.3147C196.149 47.3147 195.961 47.3267 195.772 47.349C195.582 47.3713 195.288 47.4192 194.891 47.4963L194.735 47.5237C194.677 47.5323 194.625 47.5357 194.577 47.5357C194.52 47.5357 194.476 47.5272 194.44 47.51C194.408 47.4912 194.366 47.4621 194.32 47.4227L194.162 48.6372H194.32C194.444 48.3871 194.629 48.1884 194.875 48.0428C195.117 47.8989 195.396 47.8252 195.71 47.8252C195.835 47.8252 195.949 47.8372 196.049 47.8612C196.147 47.8869 196.233 47.9332 196.309 48C196.355 48.0445 196.385 48.0925 196.398 48.1404C196.41 48.1901 196.416 48.2518 196.416 48.3289V48.5036C195.999 48.5567 195.632 48.6235 195.318 48.704C194.863 48.8222 194.514 48.9661 194.266 49.1408C193.956 49.3601 193.803 49.6325 193.803 49.9545C193.803 50.2183 193.925 50.4291 194.172 50.5849C194.396 50.7288 194.665 50.8008 194.981 50.8008C195.246 50.8008 195.512 50.7562 195.774 50.6655C196.071 50.5627 196.287 50.4291 196.416 50.2629C196.444 50.3485 196.48 50.4308 196.526 50.5113C196.574 50.5918 196.628 50.6586 196.69 50.7134H198.311V50.5455C198.13 50.5318 198.008 50.4633 197.944 50.3365C197.902 50.256 197.882 50.1258 197.882 49.9477V48.5841ZM196.416 48.8856C196.416 49.1905 196.375 49.4509 196.293 49.665C196.173 49.9751 195.971 50.1293 195.69 50.1293C195.56 50.1293 195.456 50.0882 195.38 50.0042C195.304 49.922 195.266 49.8243 195.266 49.713C195.266 49.5914 195.314 49.4749 195.408 49.3601C195.502 49.2453 195.614 49.1528 195.744 49.0809C195.849 49.0226 195.947 48.9815 196.037 48.9575C196.129 48.9319 196.255 48.9096 196.416 48.8856Z" fill="#FFCC00"/>
<path fill-rule="evenodd" clip-rule="evenodd" d="M191.541 47.3742V47.22C191.541 47.1309 191.549 47.0555 191.569 46.9956C191.586 46.9356 191.626 46.8859 191.688 46.8517C191.756 46.802 191.84 46.7695 191.94 46.7557C192.038 46.7438 192.162 46.7369 192.307 46.7369C192.607 46.7369 192.876 46.7883 193.112 46.8894C193.192 46.9253 193.268 46.9647 193.342 47.0127C193.627 47.196 193.837 47.4547 193.967 47.7904L194.124 47.7442L193.747 46.1853C193.727 46.235 193.693 46.2658 193.645 46.2761C193.599 46.2881 193.535 46.2932 193.457 46.2932H189.504V46.4611C189.666 46.4611 189.779 46.5142 189.841 46.6187C189.903 46.7249 189.935 46.8962 189.935 47.1326V49.8735C189.935 50.1202 189.903 50.2932 189.841 50.3943C189.779 50.4936 189.666 50.545 189.504 50.545V50.7129H192.018V50.545C191.86 50.545 191.748 50.4936 191.68 50.3908C191.612 50.2881 191.567 50.115 191.541 49.8735V47.3742Z" fill="#FFCC00"/>
<path fill-rule="evenodd" clip-rule="evenodd" d="M186.272 50.1087C186.272 49.9032 186.188 49.7387 186.018 49.6188C185.848 49.4972 185.641 49.4372 185.395 49.4372C185.143 49.4372 184.934 49.4972 184.76 49.6188C184.588 49.7387 184.502 49.9032 184.502 50.1087C184.502 50.3143 184.588 50.4822 184.756 50.6089C184.926 50.7374 185.131 50.8008 185.371 50.8008C185.617 50.8008 185.828 50.7374 186.006 50.6089C186.184 50.4822 186.272 50.3143 186.272 50.1087Z" fill="#FFCC00"/>
<path fill-rule="evenodd" clip-rule="evenodd" d="M183.149 50.364C183.624 50.0453 183.859 49.6136 183.859 49.0672C183.859 48.5087 183.636 48.0685 183.187 47.7516C182.775 47.4604 182.24 47.3147 181.583 47.3147C180.908 47.3147 180.347 47.4706 179.9 47.7841C179.419 48.1199 179.179 48.5704 179.179 49.1357C179.179 49.4029 179.241 49.6565 179.367 49.8946C179.493 50.131 179.674 50.316 179.914 50.4513C180.134 50.5764 180.381 50.6655 180.655 50.7203C180.928 50.7734 181.214 50.8008 181.511 50.8008C182.164 50.8008 182.709 50.6552 183.149 50.364ZM182.252 48.6578C182.28 48.8239 182.294 48.9918 182.294 49.1614C182.294 49.283 182.28 49.4149 182.252 49.5588C182.222 49.701 182.184 49.8192 182.138 49.9134C182.08 50.0213 182.011 50.107 181.927 50.1687C181.823 50.2492 181.713 50.2886 181.597 50.2834C181.29 50.2834 181.06 50.1104 180.908 49.7661C180.799 49.5194 180.745 49.2402 180.745 48.9267C180.745 48.6492 180.793 48.4145 180.886 48.2209C181.01 47.9571 181.214 47.8252 181.497 47.8252C181.627 47.8252 181.749 47.8663 181.865 47.9469C181.959 48.0137 182.038 48.1079 182.106 48.2278C182.174 48.3494 182.222 48.4916 182.252 48.6578Z" fill="#FFCC00"/>
<path fill-rule="evenodd" clip-rule="evenodd" d="M176.212 48.724V48.2615C176.212 48.0594 176.244 47.9257 176.305 47.8589C176.351 47.8093 176.443 47.7836 176.579 47.7836C176.715 47.7836 176.815 47.823 176.877 47.9018C176.938 47.9806 176.97 48.0748 176.97 48.1878C176.97 48.2992 176.928 48.3985 176.845 48.4825C176.763 48.5681 176.649 48.6264 176.509 48.6572L176.212 48.724ZM179.007 49.6182C179.007 49.3801 178.879 49.1814 178.628 49.0204C178.374 48.8594 178.049 48.7532 177.651 48.7035C177.871 48.6418 178.057 48.5596 178.208 48.4551C178.39 48.33 178.482 48.1981 178.482 48.0594C178.482 47.7647 178.278 47.5694 177.871 47.4752C177.657 47.4255 177.282 47.4016 176.745 47.4016H174.325V47.5694C174.512 47.5694 174.634 47.6414 174.692 47.7836C174.73 47.8744 174.748 48.032 174.748 48.2615V49.8529C174.748 50.0722 174.726 50.2315 174.684 50.3292C174.622 50.4731 174.502 50.545 174.325 50.545V50.7129H176.892C177.498 50.7129 177.991 50.6255 178.372 50.4508C178.795 50.2589 179.007 49.9814 179.007 49.6182ZM176.212 49.8392V49.154L176.932 48.9793C177.094 49.029 177.22 49.1129 177.312 49.2311C177.404 49.351 177.448 49.4983 177.448 49.6782C177.448 49.8838 177.38 50.0448 177.24 50.1579C177.102 50.2726 176.918 50.3292 176.689 50.3292C176.507 50.3292 176.381 50.2966 176.313 50.2298C176.246 50.163 176.212 50.0328 176.212 49.8392Z" fill="#FFCC00"/>
<path fill-rule="evenodd" clip-rule="evenodd" d="M172.784 49.8392V47.8247C173.107 47.8247 173.375 47.9103 173.588 48.0799C173.782 48.2324 173.95 48.4671 174.089 48.7857L174.255 48.7583L173.894 47.2936C173.858 47.3382 173.796 47.369 173.71 47.3844C173.624 47.3998 173.524 47.4084 173.409 47.4084H170.621C170.517 47.4084 170.433 47.3998 170.368 47.3844C170.302 47.369 170.254 47.3382 170.222 47.2936L169.838 48.7583L170.012 48.7857C170.106 48.4808 170.268 48.2444 170.501 48.0765C170.733 47.9086 171.006 47.8247 171.318 47.8247V49.8392C171.318 50.139 171.284 50.3326 171.212 50.4165C171.142 50.5022 171.036 50.545 170.897 50.545V50.7129H173.167V50.545C172.957 50.545 172.835 50.4439 172.798 50.2435C172.788 50.1853 172.784 50.0499 172.784 49.8392Z" fill="#FFCC00"/>
<path fill-rule="evenodd" clip-rule="evenodd" d="M167.278 48.9335C167.278 48.7759 167.308 48.6235 167.368 48.4727C167.428 48.3237 167.518 48.1969 167.64 48.0941C167.734 48.0136 167.845 47.9468 167.975 47.8954C168.107 47.844 168.235 47.8183 168.359 47.8183C168.61 47.8183 168.836 47.9057 169.039 48.0804C169.229 48.2415 169.353 48.4316 169.417 48.6509L169.581 48.6183L169.229 47.2804C169.201 47.3216 169.163 47.3507 169.111 47.3678C169.057 47.3866 169.003 47.3952 168.946 47.3952L168.728 47.3747L167.913 47.3147C167.276 47.3147 166.759 47.4517 166.362 47.7258C165.931 48.0222 165.713 48.4367 165.713 48.9661C165.713 49.5519 165.958 50.011 166.45 50.3485C166.899 50.6586 167.466 50.8145 168.155 50.8145L168.61 50.7819L168.766 50.7562C168.83 50.7459 168.902 50.7408 168.986 50.7408C169.053 50.7408 169.113 50.7442 169.165 50.7528C169.217 50.7631 169.267 50.7819 169.315 50.8145L169.87 49.6325L169.72 49.5708C169.6 49.7729 169.435 49.9357 169.221 50.059C169.007 50.1823 168.772 50.244 168.516 50.244C168.141 50.244 167.835 50.1018 167.6 49.8192C167.386 49.5639 167.278 49.2693 167.278 48.9335Z" fill="#FFCC00"/>
<path fill-rule="evenodd" clip-rule="evenodd" d="M162.58 48.7349C162.58 48.5036 162.628 48.3066 162.722 48.1473C162.842 47.9366 163.019 47.8321 163.255 47.8321C163.433 47.8321 163.58 47.8886 163.7 48C163.82 48.1113 163.882 48.2449 163.882 48.4025V48.5156L162.58 48.7349ZM165.447 48.6578C165.357 48.2141 165.116 47.8749 164.719 47.6368C164.353 47.4227 163.9 47.3147 163.357 47.3147C162.704 47.3147 162.161 47.4604 161.727 47.7516C161.252 48.0685 161.017 48.4967 161.017 49.0346C161.017 49.3121 161.086 49.5691 161.226 49.8072C161.368 50.0436 161.566 50.244 161.821 50.4051C162.041 50.5438 162.293 50.6432 162.574 50.7066C162.856 50.7699 163.147 50.8008 163.451 50.8008C163.606 50.8008 163.772 50.7922 163.944 50.7734C164.116 50.7562 164.283 50.7357 164.445 50.7134L164.617 50.6929C164.669 50.6929 164.725 50.7066 164.78 50.734L164.868 50.7802L165.353 49.4903L165.188 49.4372C165.068 49.6839 164.886 49.8792 164.645 50.0248C164.401 50.1704 164.125 50.244 163.818 50.244C163.469 50.244 163.187 50.131 162.973 49.9066C162.786 49.7147 162.67 49.4612 162.628 49.1477L165.447 48.6578Z" fill="#FFCC00"/>
<path fill-rule="evenodd" clip-rule="evenodd" d="M160.263 50.0003V48.1142C160.263 47.751 160.405 47.5694 160.687 47.5694V47.4016H158.432V47.5694C158.584 47.5694 158.682 47.6105 158.73 47.6928C158.776 47.7767 158.8 47.9155 158.8 48.1142V48.6367C158.596 48.7669 158.38 48.832 158.149 48.832C158.025 48.832 157.925 48.8011 157.849 48.7412C157.773 48.6812 157.736 48.5887 157.736 48.4619V48.1142C157.736 47.9257 157.761 47.787 157.813 47.6996C157.865 47.6123 157.961 47.5694 158.103 47.5694V47.4016H155.849V47.5694C156.004 47.5694 156.114 47.6123 156.176 47.6996C156.24 47.787 156.27 47.9257 156.27 48.1142V48.4619C156.27 48.7497 156.392 48.9707 156.631 49.1283C156.851 49.2705 157.133 49.3424 157.476 49.3424C157.712 49.3424 157.929 49.3236 158.127 49.2859C158.325 49.2465 158.548 49.1746 158.8 49.0666V50.0003C158.8 50.1887 158.774 50.3275 158.722 50.4131C158.67 50.5005 158.572 50.545 158.432 50.545V50.7129H160.687V50.545C160.405 50.545 160.263 50.3634 160.263 50.0003Z" fill="#FFCC00"/>
<path fill-rule="evenodd" clip-rule="evenodd" d="M155.41 49.8072V48.5841C155.41 48.3374 155.394 48.1524 155.364 48.0274C155.312 47.8201 155.208 47.6676 155.054 47.5666C154.901 47.4655 154.723 47.3987 154.525 47.3644C154.328 47.3319 154.106 47.3147 153.86 47.3147C153.679 47.3147 153.491 47.3267 153.301 47.349C153.11 47.3713 152.816 47.4192 152.419 47.4963L152.263 47.5237C152.205 47.5323 152.153 47.5357 152.107 47.5357C152.049 47.5357 152.003 47.5272 151.97 47.51C151.936 47.4912 151.896 47.4621 151.848 47.4227L151.692 48.6372H151.848C151.974 48.3871 152.159 48.1884 152.403 48.0428C152.644 47.8989 152.924 47.8252 153.239 47.8252C153.365 47.8252 153.477 47.8372 153.577 47.8612C153.677 47.8869 153.763 47.9332 153.836 48C153.884 48.0445 153.914 48.0925 153.926 48.1404C153.94 48.1901 153.946 48.2518 153.946 48.3289V48.5036C153.527 48.5567 153.162 48.6235 152.846 48.704C152.391 48.8222 152.041 48.9661 151.796 49.1408C151.486 49.3601 151.331 49.6325 151.331 49.9545C151.331 50.2183 151.454 50.4291 151.7 50.5849C151.926 50.7288 152.195 50.8008 152.511 50.8008C152.776 50.8008 153.042 50.7562 153.303 50.6655C153.601 50.5627 153.816 50.4291 153.946 50.2629C153.972 50.3485 154.008 50.4308 154.056 50.5113C154.102 50.5918 154.156 50.6586 154.218 50.7134H155.841V50.5455C155.657 50.5318 155.536 50.4633 155.474 50.3365C155.432 50.256 155.41 50.1258 155.41 49.9477V49.8072ZM153.946 48.8856C153.946 49.1905 153.904 49.4509 153.82 49.665C153.701 49.9751 153.501 50.1293 153.217 50.1293C153.088 50.1293 152.984 50.0882 152.91 50.0042C152.834 49.922 152.796 49.8243 152.796 49.713C152.796 49.5914 152.842 49.4749 152.936 49.3601C153.03 49.2453 153.142 49.1528 153.273 49.0809C153.377 49.0226 153.475 48.9815 153.567 48.9575C153.659 48.9319 153.785 48.9096 153.946 48.8856Z" fill="#FFCC00"/>
<path fill-rule="evenodd" clip-rule="evenodd" d="M149.969 48.6332C149.677 48.169 149.332 47.7613 148.937 47.417L149.336 47.1206C149.582 46.9459 149.811 46.8071 150.025 46.7043C150.29 46.5724 150.552 46.4919 150.808 46.4611V46.2932H148.537V46.4611C148.625 46.4611 148.709 46.4851 148.787 46.5313C148.865 46.5793 148.905 46.6375 148.905 46.7095C148.905 46.7849 148.835 46.8911 148.693 47.0247L148.38 47.2936L147.543 47.9377V47.1669C147.543 46.9151 147.575 46.7352 147.641 46.6255C147.705 46.5159 147.817 46.4611 147.974 46.4611L147.964 46.2932H145.508V46.4611C145.668 46.4611 145.782 46.5142 145.844 46.6187C145.908 46.7249 145.938 46.8962 145.938 47.1343V49.8786C145.938 50.1253 145.908 50.3 145.844 50.4011C145.782 50.5005 145.668 50.5519 145.508 50.5519V50.7129H148.02V50.5519C147.703 50.5519 147.543 50.3275 147.543 49.8803V48.5031L147.817 48.2889C147.988 48.4671 148.128 48.6195 148.232 48.7446C148.362 48.9056 148.473 49.0701 148.569 49.2345C148.663 49.4007 148.755 49.5926 148.847 49.8118C148.937 50.0328 148.983 50.2024 148.983 50.3223C148.983 50.408 148.945 50.4713 148.865 50.5108C148.809 50.5382 148.727 50.5519 148.623 50.5519V50.7129H151.215V50.5519C151.073 50.5519 150.955 50.497 150.862 50.3908C150.8 50.3189 150.732 50.1973 150.658 50.026C150.434 49.4744 150.205 49.0118 149.969 48.6332Z" fill="#FFCC00"/>
<path fill-rule="evenodd" clip-rule="evenodd" d="M142.007 50.6089C142.185 50.4822 142.273 50.3143 142.273 50.1087C142.273 49.9032 142.189 49.7387 142.019 49.6188C141.85 49.4972 141.642 49.4372 141.396 49.4372C141.145 49.4372 140.935 49.4972 140.761 49.6188C140.59 49.7387 140.504 49.9032 140.504 50.1087C140.504 50.3143 140.588 50.4822 140.757 50.6089C140.927 50.7374 141.133 50.8008 141.372 50.8008C141.618 50.8008 141.83 50.7374 142.007 50.6089Z" fill="#FFCC00"/>
<path fill-rule="evenodd" clip-rule="evenodd" d="M139.494 50.4474C139.885 50.2709 140.081 50.026 140.081 49.7125C140.081 49.2636 139.814 48.9347 139.274 48.724C138.847 48.5544 138.268 48.4688 137.537 48.4688V48.2615C137.537 48.032 137.557 47.8744 137.601 47.7836C137.667 47.6414 137.807 47.5694 138.015 47.5694V47.4016H135.65V47.5694C135.838 47.5694 135.962 47.6414 136.018 47.7836C136.056 47.8744 136.074 48.032 136.074 48.2615V49.8529C136.074 50.1356 136.038 50.3206 135.968 50.4097C135.898 50.5005 135.792 50.545 135.65 50.545V50.7129H137.883C138.566 50.7129 139.103 50.6238 139.494 50.4474ZM138.352 49.1215C138.534 49.2825 138.626 49.4743 138.626 49.6988C138.626 49.8906 138.556 50.0448 138.418 50.1579C138.28 50.2726 138.108 50.3292 137.905 50.3292C137.755 50.3292 137.655 50.2966 137.607 50.2298C137.561 50.163 137.537 50.0397 137.537 49.8598V48.8594C137.883 48.8594 138.152 48.9467 138.352 49.1215Z" fill="#FFCC00"/>
<path fill-rule="evenodd" clip-rule="evenodd" d="M134.109 49.8392V47.8247C134.432 47.8247 134.7 47.9103 134.915 48.0799C135.107 48.2324 135.275 48.4671 135.415 48.7857L135.58 48.7583L135.219 47.2936C135.183 47.3382 135.121 47.369 135.035 47.3844C134.949 47.3998 134.849 47.4084 134.734 47.4084H131.946C131.842 47.4084 131.759 47.3998 131.693 47.3844C131.629 47.369 131.579 47.3382 131.547 47.2936L131.166 48.7583L131.337 48.7857C131.431 48.4808 131.593 48.2444 131.826 48.0765C132.058 47.9086 132.332 47.8247 132.645 47.8247V49.8392C132.645 50.139 132.609 50.3326 132.539 50.4165C132.467 50.5022 132.362 50.545 132.222 50.545V50.7129H134.492V50.545C134.282 50.545 134.161 50.4439 134.125 50.2435C134.113 50.1853 134.109 50.0499 134.109 49.8392Z" fill="#FFCC00"/>
<path fill-rule="evenodd" clip-rule="evenodd" d="M128.604 48.9335C128.604 48.7759 128.634 48.6235 128.694 48.4727C128.756 48.3237 128.846 48.1969 128.965 48.0941C129.059 48.0136 129.171 47.9468 129.301 47.8954C129.433 47.844 129.56 47.8183 129.686 47.8183C129.936 47.8183 130.163 47.9057 130.367 48.0804C130.555 48.2415 130.681 48.4316 130.742 48.6509L130.906 48.6183L130.555 47.2804C130.529 47.3216 130.489 47.3507 130.437 47.3678C130.385 47.3866 130.329 47.3952 130.273 47.3952L130.054 47.3747L129.239 47.3147C128.602 47.3147 128.085 47.4517 127.69 47.7258C127.256 48.0222 127.039 48.4367 127.039 48.9661C127.039 49.5519 127.284 50.011 127.775 50.3485C128.225 50.6586 128.794 50.8145 129.483 50.8145L129.936 50.7819L130.092 50.7562C130.155 50.7459 130.227 50.7408 130.311 50.7408C130.379 50.7408 130.439 50.7442 130.491 50.7528C130.543 50.7631 130.593 50.7819 130.641 50.8145L131.196 49.6325L131.048 49.5708C130.928 49.7729 130.76 49.9357 130.547 50.059C130.331 50.1823 130.098 50.244 129.842 50.244C129.467 50.244 129.161 50.1018 128.925 49.8192C128.712 49.5639 128.604 49.2693 128.604 48.9335Z" fill="#FFCC00"/>
<path fill-rule="evenodd" clip-rule="evenodd" d="M126.711 49.0672C126.711 48.5087 126.485 48.0685 126.036 47.7516C125.625 47.4604 125.09 47.3147 124.433 47.3147C123.758 47.3147 123.197 47.4706 122.75 47.7841C122.268 48.1199 122.029 48.5704 122.029 49.1357C122.029 49.4029 122.091 49.6565 122.217 49.8946C122.342 50.131 122.524 50.316 122.766 50.4513C122.983 50.5764 123.231 50.6655 123.504 50.7203C123.778 50.7734 124.063 50.8008 124.361 50.8008C125.014 50.8008 125.559 50.6552 125.998 50.364C126.474 50.0453 126.711 49.6136 126.711 49.0672ZM125.102 48.6578C125.13 48.8239 125.144 48.9918 125.144 49.1614C125.144 49.283 125.13 49.4149 125.102 49.5588C125.072 49.701 125.036 49.8192 124.988 49.9134C124.93 50.0213 124.86 50.107 124.776 50.1687C124.672 50.2492 124.563 50.2886 124.447 50.2834C124.139 50.2834 123.91 50.1104 123.758 49.7661C123.648 49.5194 123.594 49.2402 123.594 48.9267C123.594 48.6492 123.642 48.4145 123.736 48.2209C123.862 47.9571 124.063 47.8252 124.345 47.8252C124.477 47.8252 124.599 47.8663 124.714 47.9469C124.808 48.0137 124.888 48.1079 124.956 48.2278C125.024 48.3494 125.072 48.4916 125.102 48.6578Z" fill="#FFCC00"/>
<path fill-rule="evenodd" clip-rule="evenodd" d="M121.278 50.0003V48.1142C121.278 47.751 121.417 47.5694 121.699 47.5694V47.4016H119.445V47.5694C119.586 47.5694 119.682 47.6123 119.734 47.6996C119.786 47.787 119.812 47.9257 119.812 48.1142V48.4362H118.748V48.1142C118.748 47.9257 118.774 47.787 118.826 47.6996C118.878 47.6123 118.975 47.5694 119.115 47.5694V47.4016H116.861V47.5694C117.142 47.5694 117.284 47.751 117.284 48.1142V50.0003C117.284 50.3634 117.142 50.545 116.861 50.545V50.7129H119.115V50.545C118.975 50.545 118.878 50.5005 118.826 50.4131C118.774 50.3275 118.748 50.1887 118.748 50.0003V48.8662H119.812V50.0003C119.812 50.1887 119.786 50.3275 119.734 50.4131C119.682 50.5005 119.586 50.545 119.445 50.545V50.7129H121.699V50.545C121.417 50.545 121.278 50.3634 121.278 50.0003Z" fill="#FFCC00"/>
<path fill-rule="evenodd" clip-rule="evenodd" d="M115.781 49.3356C115.655 49.13 115.519 48.9347 115.374 48.7514C115.264 48.6178 115.108 48.438 114.904 48.2135L115.046 48.1073C115.264 47.9463 115.503 47.8161 115.761 47.7168C116.021 47.6191 116.28 47.5694 116.54 47.5694V47.4016H114.317V47.5694C114.391 47.5694 114.457 47.5866 114.521 47.6191C114.583 47.6534 114.615 47.6996 114.615 47.7579C114.615 47.7887 114.571 47.8555 114.485 47.9549C114.399 48.0559 114.285 48.1707 114.146 48.3009L113.668 48.7446V48.1142C113.668 47.9429 113.682 47.823 113.714 47.751C113.766 47.6294 113.874 47.5694 114.036 47.5694V47.4016H111.835V47.5694C112.003 47.5694 112.111 47.6294 112.165 47.751C112.191 47.8127 112.203 47.9343 112.203 48.1142V48.7446L111.726 48.3009C111.626 48.2067 111.538 48.1193 111.46 48.0388C111.324 47.8966 111.256 47.8024 111.256 47.7579C111.256 47.6945 111.286 47.6482 111.346 47.6157C111.406 47.5848 111.476 47.5694 111.554 47.5694V47.4016H109.33V47.5694C109.581 47.5694 109.841 47.6208 110.108 47.7236C110.378 47.8264 110.617 47.9549 110.825 48.1073L110.967 48.2135C110.783 48.4105 110.627 48.5921 110.496 48.7583C110.336 48.9639 110.198 49.1574 110.09 49.3356L109.801 49.8255C109.627 50.1082 109.533 50.2589 109.517 50.2761C109.377 50.4559 109.226 50.545 109.064 50.545V50.7129H111.616V50.545C111.402 50.545 111.294 50.4559 111.294 50.2761C111.294 50.115 111.37 49.8975 111.522 49.6217C111.674 49.3459 111.819 49.1386 111.961 48.9998L112.203 49.1951V49.7998C112.203 50.0585 112.187 50.2367 112.157 50.3292C112.109 50.4731 112.003 50.545 111.835 50.545V50.7129H114.036V50.545C113.904 50.545 113.81 50.5022 113.752 50.4165C113.696 50.3326 113.668 50.1253 113.668 49.7998V49.1951L113.91 48.9998C114.062 49.1574 114.21 49.3664 114.355 49.632C114.503 49.8958 114.575 50.1099 114.575 50.2761C114.575 50.4559 114.479 50.545 114.285 50.545V50.7129H116.807V50.545C116.64 50.545 116.486 50.4559 116.346 50.2761C116.314 50.2401 116.222 50.0911 116.07 49.8255L115.781 49.3356Z" fill="#FFCC00"/>
<path fill-rule="evenodd" clip-rule="evenodd" d="M109.08 48.6578C108.99 48.2141 108.749 47.8749 108.351 47.6368C107.986 47.4227 107.533 47.3147 106.99 47.3147C106.337 47.3147 105.794 47.4604 105.36 47.7516C104.885 48.0685 104.649 48.4967 104.649 49.0346C104.649 49.3121 104.719 49.5691 104.861 49.8072C105.001 50.0436 105.199 50.244 105.454 50.4051C105.674 50.5438 105.925 50.6432 106.207 50.7066C106.488 50.7699 106.78 50.8008 107.083 50.8008C107.239 50.8008 107.405 50.7922 107.577 50.7734C107.748 50.7562 107.916 50.7357 108.078 50.7134L108.249 50.6929C108.301 50.6929 108.357 50.7066 108.415 50.734L108.501 50.7802L108.986 49.4903L108.821 49.4372C108.701 49.6839 108.521 49.8792 108.277 50.0248C108.034 50.1704 107.76 50.244 107.451 50.244C107.101 50.244 106.82 50.131 106.606 49.9066C106.418 49.7147 106.303 49.4612 106.261 49.1477L109.08 48.6578ZM107.333 48C107.455 48.1113 107.515 48.2449 107.515 48.4025V48.5156L106.213 48.7349C106.213 48.5036 106.261 48.3066 106.355 48.1473C106.476 47.9366 106.652 47.8321 106.888 47.8321C107.065 47.8321 107.213 47.8886 107.333 48Z" fill="#FFCC00"/>
<path fill-rule="evenodd" clip-rule="evenodd" d="M103.896 50.0004V48.2616C103.896 48.0149 103.912 47.8539 103.944 47.7785C103.996 47.6432 104.122 47.5764 104.32 47.5764V47.4017H100.899V47.5764C101.013 47.5764 101.071 47.6141 101.071 47.6912C101.071 47.7477 101.043 47.806 100.985 47.8659C100.65 48.1743 100.384 48.5408 100.187 48.9657C100.041 49.2792 99.9329 49.6338 99.8651 50.0278C99.8451 50.1631 99.8012 50.2762 99.7353 50.3704C99.6714 50.4646 99.5935 50.5109 99.5056 50.5109C99.4537 50.5109 99.3978 50.4903 99.3399 50.4509L99.3239 50.5177C99.3679 50.5314 99.4178 50.54 99.4737 50.5451V50.713H99.274L98.9565 51.9824L99.1223 52.0098C99.2321 51.6517 99.4258 51.3571 99.7073 51.1293C100.047 50.8517 100.474 50.713 100.985 50.713H102.644C103.046 50.713 103.391 50.7986 103.679 50.9682C104.012 51.1652 104.288 51.5113 104.507 52.0098L104.665 51.9824L104.32 50.444C104.252 50.48 104.194 50.4971 104.148 50.4971C104.058 50.4971 103.994 50.4526 103.956 50.3601C103.916 50.2676 103.896 50.1477 103.896 50.0004ZM102.433 50.0209C102.433 50.1323 102.403 50.2128 102.339 50.2625C102.277 50.3121 102.123 50.3361 101.878 50.3361H101.251C101.043 50.3361 100.907 50.3327 100.843 50.3224C100.676 50.3001 100.594 50.2042 100.594 50.0346C100.594 49.6218 100.674 49.2312 100.831 48.8629C100.991 48.4929 101.195 48.2119 101.446 48.0184C101.556 47.9293 101.664 47.8642 101.772 47.8214C101.878 47.7785 102.008 47.758 102.159 47.758C102.279 47.758 102.355 47.7905 102.385 47.8556C102.417 47.9207 102.433 48.0561 102.433 48.2616V50.0209Z" fill="#FFCC00"/>
<path fill-rule="evenodd" clip-rule="evenodd" d="M99.0427 48.5841C99.0427 48.3374 99.0287 48.1524 98.9967 48.0274C98.9448 47.8201 98.841 47.6676 98.6873 47.5666C98.5335 47.4655 98.3578 47.3987 98.1581 47.3644C97.9604 47.3319 97.7388 47.3147 97.4932 47.3147C97.3115 47.3147 97.1238 47.3267 96.9341 47.349C96.7424 47.3713 96.4489 47.4192 96.0516 47.4963L95.8958 47.5237C95.8379 47.5323 95.786 47.5357 95.7401 47.5357C95.6822 47.5357 95.6362 47.5272 95.6023 47.51C95.5683 47.4912 95.5284 47.4621 95.4805 47.4227L95.3247 48.6372H95.4805C95.6063 48.3871 95.792 48.1884 96.0356 48.0428C96.2792 47.8989 96.5567 47.8252 96.8722 47.8252C96.998 47.8252 97.1098 47.8372 97.2097 47.8612C97.3095 47.8869 97.3954 47.9332 97.4692 48C97.5172 48.0445 97.5471 48.0925 97.5591 48.1404C97.5731 48.1901 97.5791 48.2518 97.5791 48.3289V48.5036C97.1597 48.5567 96.7943 48.6235 96.4789 48.704C96.0236 48.8222 95.6742 48.9661 95.4286 49.1408C95.1191 49.3601 94.9653 49.6325 94.9653 49.9545C94.9653 50.2183 95.0871 50.4291 95.3347 50.5849C95.5584 50.7288 95.8279 50.8008 96.1434 50.8008C96.409 50.8008 96.6745 50.7562 96.9361 50.6655C97.2336 50.5627 97.4493 50.4291 97.5791 50.2629C97.605 50.3485 97.641 50.4308 97.6889 50.5113C97.7348 50.5918 97.7887 50.6586 97.8526 50.7134H99.2743L99.3242 50.5181C99.2224 50.4839 99.1505 50.4239 99.1066 50.3365C99.0646 50.256 99.0427 50.1258 99.0427 49.9477V48.5841ZM97.5791 48.8856C97.5791 49.1905 97.5371 49.4509 97.4533 49.665C97.3335 49.9751 97.1338 50.1293 96.8522 50.1293C96.7205 50.1293 96.6166 50.0882 96.5428 50.0042C96.4669 49.922 96.4289 49.8243 96.4289 49.713C96.4289 49.5914 96.4749 49.4749 96.5687 49.3601C96.6626 49.2453 96.7764 49.1528 96.9062 49.0809C97.01 49.0226 97.1078 48.9815 97.1997 48.9575C97.2915 48.9319 97.4173 48.9096 97.5791 48.8856Z" fill="#FFCC00"/>
<path fill-rule="evenodd" clip-rule="evenodd" d="M94.1799 49.8735V47.1326C94.1799 46.8859 94.2118 46.7129 94.2757 46.6118C94.3376 46.5108 94.4494 46.4611 94.6112 46.4611V46.2932H92.1133V46.4611C92.277 46.4611 92.3928 46.5142 92.4667 46.6221C92.5386 46.73 92.5765 46.8996 92.5765 47.1326V47.4958H91.0171V47.1326C91.0171 46.8911 91.055 46.7181 91.1269 46.6153C91.2008 46.5125 91.3186 46.4611 91.4803 46.4611V46.2932H88.9824V46.4611C89.2699 46.4611 89.4137 46.6889 89.4137 47.1463V49.8735C89.4137 50.1202 89.3818 50.2932 89.3199 50.3943C89.256 50.4936 89.1442 50.545 88.9824 50.545V50.7129H91.4803V50.545C91.3026 50.545 91.1808 50.4902 91.1149 50.384C91.051 50.2761 91.0171 50.0945 91.0171 49.8392V47.9377H92.5765V49.8392C92.5765 50.0945 92.5426 50.2761 92.4747 50.384C92.4068 50.4902 92.287 50.545 92.1133 50.545V50.7129H94.6112V50.545C94.4494 50.545 94.3376 50.4919 94.2757 50.3874C94.2118 50.2812 94.1799 50.1099 94.1799 49.8735Z" fill="#FFCC00"/>
</svg>
