<svg width="143" height="29" viewBox="0 0 143 29" fill="none" xmlns="http://www.w3.org/2000/svg">
<path fill-rule="evenodd" clip-rule="evenodd" d="M23.9232 12.7781V6.25996H24.7259C24.9815 6.25996 25.1932 6.2788 25.3609 6.32163C25.5286 6.36103 25.6664 6.42099 25.7782 6.50664C25.892 6.594 25.9918 6.70535 26.0797 6.84068C26.1915 7.03083 26.2933 7.24667 26.3892 7.48993C26.481 7.73318 26.5689 8.02782 26.6567 8.36872L27.4834 8.30362C27.4674 8.04153 27.4494 7.7623 27.4415 7.46937C27.4335 7.17473 27.4295 6.88865 27.4295 6.61113C27.4255 6.33533 27.4215 6.09208 27.4215 5.87966L27.4095 5.42228H17.2802L17.2542 5.87624L17.2243 6.60428C17.2123 6.88008 17.1963 7.16445 17.1783 7.4608C17.1664 7.75545 17.1504 8.03468 17.1284 8.30362L17.9311 8.36872C17.997 8.15288 18.0609 7.96615 18.1188 7.8017C18.1767 7.64067 18.2366 7.4865 18.2945 7.34603C18.3524 7.20727 18.4163 7.0668 18.4822 6.92633C18.592 6.66081 18.7577 6.48608 18.9834 6.39358C19.209 6.29593 19.5025 6.25311 19.8619 6.25996H20.7145V12.7781C20.7185 13.0727 20.7025 13.3091 20.6726 13.4873C20.6386 13.6672 20.5688 13.8076 20.4589 13.9036C20.3511 14.0046 20.1874 14.0766 19.9618 14.1263C19.7401 14.1725 19.4406 14.2119 19.0592 14.241V14.9297H25.7782V14.241C25.3489 14.2119 25.0095 14.1725 24.7599 14.1228C24.5083 14.0715 24.3206 13.9961 24.2048 13.8967C24.083 13.7957 24.0071 13.6569 23.9692 13.477C23.9352 13.2972 23.9192 13.0642 23.9232 12.7781Z" fill="#FFCC00"/>
<path fill-rule="evenodd" clip-rule="evenodd" d="M4.61887 7.69889C4.61887 7.05821 4.69674 6.44151 4.85648 5.84194C5.01422 5.24409 5.24784 4.68735 5.55733 4.17172C5.86682 3.65952 6.24819 3.2107 6.70345 2.82355C7.1587 2.4364 7.67984 2.13491 8.27486 1.92077C8.87188 1.7015 9.5328 1.59358 10.2596 1.59187C10.7428 1.58673 11.22 1.64155 11.6873 1.74776C12.1565 1.85568 12.5998 2.03555 13.0171 2.28223C13.4344 2.53405 13.8058 2.8698 14.1372 3.29807C14.4667 3.71947 14.7382 4.25052 14.9479 4.88092L15.8744 4.73189C15.8165 4.27622 15.7586 3.85309 15.6987 3.46252C15.6368 3.07194 15.5749 2.69165 15.507 2.32163C15.4451 1.95332 15.3732 1.57303 15.2973 1.18245C15.0637 1.14305 14.7223 1.07796 14.267 0.988877C13.8118 0.901511 13.2766 0.819285 12.6696 0.743911C12.0646 0.668537 11.4157 0.625711 10.7348 0.622284C9.23129 0.625711 7.87352 0.809007 6.65752 1.16703C5.44152 1.5302 4.39524 2.03897 3.52267 2.70192C2.6541 3.36487 1.98519 4.15459 1.51596 5.06764C1.04873 5.98241 0.811122 6.99654 0.807129 8.1083C0.807129 8.79695 0.918945 9.48217 1.14457 10.1622C1.3742 10.8475 1.72562 11.4899 2.20683 12.098C2.68205 12.7078 3.29305 13.2492 4.03383 13.722C4.77661 14.193 5.66315 14.5648 6.69546 14.8337C7.72177 15.1061 8.90183 15.2431 10.2336 15.25C10.6649 15.2466 11.1202 15.2243 11.5914 15.1815C12.0646 15.1352 12.5199 15.0821 12.9592 15.017C13.4024 14.9554 13.7938 14.892 14.1332 14.8337C14.4747 14.7721 14.7303 14.7258 14.898 14.6915C15.0058 14.4963 15.1236 14.2633 15.2534 13.9841C15.3772 13.7048 15.507 13.4033 15.6368 13.0847C15.7666 12.7627 15.8884 12.4423 16.0042 12.1271C16.118 11.8085 16.2178 11.5173 16.3017 11.2483L15.4231 10.9263C14.7882 12.0158 14.0693 12.8363 13.2667 13.3965C12.466 13.9549 11.5455 14.2359 10.5092 14.2393C9.6526 14.2359 8.86789 14.0817 8.14907 13.7699C7.43425 13.4616 6.81127 13.0196 6.28413 12.4457C5.759 11.8684 5.34967 11.1849 5.06014 10.3815C4.76862 9.58152 4.62286 8.6856 4.61887 7.69889Z" fill="#FFCC00"/>
<path fill-rule="evenodd" clip-rule="evenodd" d="M34.654 8.94835C34.5042 9.05627 34.2866 9.16591 33.9991 9.28411C33.7055 9.39888 33.3761 9.52222 33.0007 9.64042C32.6233 9.76205 32.236 9.88367 31.8346 10.0053C31.4333 10.1269 31.0439 10.2486 30.6685 10.3668C30.2333 10.5072 29.8778 10.6648 29.5943 10.8447C29.3148 11.0246 29.1051 11.2387 28.9673 11.4974C28.8296 11.7509 28.7637 12.0627 28.7637 12.4327C28.7637 12.7702 28.8415 13.0991 28.9973 13.4262C29.151 13.7483 29.3727 14.0464 29.6662 14.3068C29.9577 14.5723 30.3131 14.7847 30.7304 14.9423C31.1497 15.0999 31.621 15.1821 32.1481 15.1855C32.3198 15.1787 32.5534 15.1102 32.841 14.9817C33.1305 14.8532 33.448 14.6922 33.7854 14.502L34.7798 13.9385C34.8297 14.0669 34.9016 14.2005 35.0014 14.3359C35.0972 14.4729 35.235 14.6048 35.4067 14.735C35.5705 14.8669 35.7841 14.9748 36.0417 15.0571C36.2973 15.1393 36.5988 15.1821 36.9362 15.1855L39.6697 13.9607L39.4181 13.2721C39.2804 13.3252 39.1426 13.368 39.0008 13.3971C38.8631 13.4297 38.7173 13.4434 38.5655 13.4434C38.4238 13.4468 38.29 13.4108 38.1702 13.3406C38.0484 13.2686 37.9525 13.1385 37.8767 12.9534C37.8048 12.7667 37.7649 12.5081 37.7649 12.174V8.62459C37.7689 8.22373 37.7349 7.85029 37.663 7.51111C37.5971 7.17021 37.4673 6.85501 37.2797 6.57064C37.088 6.28457 36.8164 6.02247 36.461 5.78607C36.1256 5.57023 35.7622 5.41263 35.3648 5.31327C34.9695 5.2122 34.5122 5.16252 34.003 5.16252C33.6436 5.22248 33.2723 5.30984 32.8829 5.42119C32.4995 5.53425 32.1182 5.66102 31.7428 5.80491C31.3714 5.9471 31.02 6.09442 30.6945 6.24859C30.367 6.39934 30.0835 6.54666 29.8419 6.68884C29.5644 6.86871 29.3487 7.03659 29.197 7.19762C29.0432 7.35693 28.9673 7.53166 28.9633 7.72181C28.9713 7.91196 29.0552 8.08669 29.2229 8.24943C29.3906 8.41045 29.5903 8.54236 29.8319 8.64343C30.0755 8.74279 30.3091 8.79418 30.5427 8.7976C30.7943 8.80103 31.012 8.75135 31.1897 8.64C31.3714 8.53208 31.5092 8.34193 31.595 8.06613C31.6968 7.73209 31.8047 7.43916 31.9185 7.18734C32.0343 6.93381 32.1601 6.73167 32.2979 6.58092C32.4117 6.45244 32.5355 6.35651 32.6792 6.29142C32.817 6.22632 32.9747 6.19549 33.1505 6.19549C33.6097 6.19891 33.9731 6.37707 34.2407 6.74024C34.5122 7.10169 34.65 7.62074 34.654 8.30253V8.94835ZM34.654 9.78603V13.2292C34.4583 13.3577 34.2786 13.4468 34.1209 13.4965C33.9571 13.5513 33.7854 13.577 33.6017 13.5736C33.4559 13.5736 33.2962 13.5444 33.1245 13.4828C32.9548 13.4228 32.7871 13.3286 32.6333 13.2001C32.4776 13.0716 32.3518 12.9021 32.2519 12.6914C32.1521 12.4824 32.1022 12.2323 32.0982 11.9376C32.0982 11.6909 32.1441 11.4751 32.23 11.2969C32.3198 11.1171 32.4496 10.9595 32.6233 10.8224C32.799 10.6905 33.0167 10.5655 33.2762 10.4541C33.5358 10.3359 33.7734 10.2211 33.9951 10.1132C34.2127 10.0019 34.4323 9.89395 34.654 9.78603Z" fill="#FFCC00"/>
<path fill-rule="evenodd" clip-rule="evenodd" d="M43.7067 6.25996V12.7781C43.7107 13.0727 43.6927 13.3091 43.6648 13.4873C43.6308 13.6672 43.559 13.8076 43.4511 13.9036C43.3413 14.0046 43.1796 14.0766 42.9539 14.1263C42.7323 14.1725 42.4308 14.2119 42.0514 14.241V14.9297H48.7704V14.241C48.3391 14.2119 48.0017 14.1725 47.7501 14.1228C47.5005 14.0715 47.3128 13.9961 47.195 13.8967C47.0732 13.7957 46.9993 13.6569 46.9614 13.477C46.9274 13.2972 46.9114 13.0642 46.9154 12.7781V6.25996H47.7181C47.9717 6.25996 48.1853 6.2788 48.3531 6.32163C48.5188 6.36103 48.6566 6.42099 48.7704 6.50664C48.8842 6.594 48.984 6.70535 49.0719 6.84068C49.1837 7.03083 49.2835 7.24667 49.3814 7.48993C49.4732 7.73318 49.5611 8.02782 49.6489 8.36872L50.4756 8.30362C50.4576 8.04153 50.4416 7.7623 50.4337 7.46937C50.4257 7.17473 50.4217 6.88865 50.4217 6.61113C50.4177 6.33533 50.4117 6.09208 50.4117 5.87966L50.3997 5.42228H40.2704L40.2464 5.87624L40.2164 6.60428C40.2045 6.88008 40.1865 7.16445 40.1705 7.4608C40.1585 7.75545 40.1406 8.03468 40.1206 8.30362L40.9233 8.36872C40.9892 8.15288 41.0531 7.96615 41.111 7.8017C41.1689 7.64067 41.2268 7.4865 41.2867 7.34603C41.3446 7.20727 41.4065 7.0668 41.4744 6.92633C41.5822 6.66081 41.7499 6.48608 41.9756 6.39358C42.2012 6.29593 42.4927 6.25311 42.8541 6.25996H43.7067Z" fill="#FFCC00"/>
<path fill-rule="evenodd" clip-rule="evenodd" d="M53.2972 8.61108L54.0439 10.2282L54.9964 12.2958C55.3438 13.0496 55.7072 13.8496 56.0926 14.6924C56.1465 14.8174 56.1884 14.9596 56.2204 15.1258C56.2583 15.2902 56.2623 15.4376 56.2423 15.5729C56.1924 15.7425 56.1345 15.8898 56.0586 16.0217C55.9868 16.1536 55.8869 16.2975 55.7651 16.4551C55.6453 16.6453 55.4616 16.8457 55.222 17.0581C54.9844 17.2722 54.6749 17.4778 54.2955 17.6748C53.9102 17.8684 53.4389 18.0363 52.8819 18.1767C52.6942 18.2196 52.5524 18.2984 52.4526 18.4166C52.3567 18.5313 52.3068 18.6821 52.3068 18.8637C52.3108 19.0761 52.3807 19.2834 52.5284 19.4804C52.6702 19.6825 52.8579 19.8469 53.0955 19.9754C53.3331 20.1056 53.5967 20.1724 53.8862 20.1776C54.1078 20.181 54.3275 20.133 54.5451 20.0371C54.7588 19.9394 54.9844 19.7716 55.222 19.5283C55.4616 19.2799 55.7272 18.939 56.0167 18.4988C56.1824 18.2555 56.3542 17.9746 56.5339 17.6645C56.7096 17.3476 56.9033 16.9827 57.1069 16.5665C57.3126 16.1468 57.5422 15.6585 57.7918 15.1001C58.0474 14.5451 58.3309 13.8993 58.6484 13.1644L59.7027 10.7558C59.9982 10.0843 60.2577 9.507 60.4794 9.02735C60.701 8.54598 60.9007 8.12457 61.0804 7.76483C61.2701 7.38796 61.4498 7.08818 61.6235 6.86206C61.7992 6.63594 62.0089 6.46634 62.2425 6.35328C62.4761 6.23508 62.7736 6.15457 63.137 6.10832V5.42139H58.5246V6.10832L59.3273 6.30189C59.5349 6.34814 59.6947 6.40639 59.7985 6.47148C59.9063 6.53487 59.9702 6.62052 59.9902 6.72844C60.0082 6.83294 59.9862 6.96998 59.9283 7.14128C59.8864 7.28518 59.8105 7.50616 59.7027 7.80423C59.5968 8.10573 59.469 8.45005 59.3273 8.83377C59.1795 9.22092 59.0258 9.61492 58.866 10.0192C58.7123 10.4252 58.5605 10.8021 58.4148 11.1532C58.273 11.5044 58.1512 11.7939 58.0474 12.0235L56.0167 7.16355C55.9129 6.91859 55.8829 6.72844 55.9328 6.59311C55.9788 6.45607 56.1345 6.35328 56.3921 6.28133L57.1449 6.10832L57.1708 5.42139H50.8013V6.10832C51.1906 6.12716 51.5001 6.18712 51.7337 6.29161C51.9674 6.39611 52.167 6.55028 52.3268 6.75756C52.4865 6.96484 52.6482 7.23379 52.808 7.57126L53.2972 8.61108Z" fill="#FFCC00"/>
<path fill-rule="evenodd" clip-rule="evenodd" d="M74.2944 8.1083C74.2944 8.79695 74.4063 9.48217 74.6319 10.1622C74.8635 10.8475 75.2129 11.4899 75.6941 12.098C76.1714 12.7078 76.7804 13.2492 77.5211 13.722C78.2639 14.193 79.1505 14.5648 80.1828 14.8337C81.2111 15.1061 82.3891 15.2431 83.721 15.25C84.1523 15.2466 84.6075 15.2243 85.0787 15.1815C85.552 15.1352 86.0072 15.0821 86.4465 15.017C86.8898 14.9554 87.2811 14.892 87.6206 14.8337C87.964 14.7721 88.2176 14.7258 88.3853 14.6915C88.4931 14.4963 88.6109 14.2633 88.7407 13.9841C88.8665 13.7048 88.9943 13.4033 89.1241 13.0847C89.2539 12.7627 89.3757 12.4423 89.4935 12.1271C89.6053 11.8085 89.7051 11.5173 89.789 11.2483L88.9104 10.9263C88.2755 12.0158 87.5587 12.8363 86.756 13.3965C85.9533 13.9549 85.0328 14.2359 83.9965 14.2393C83.1399 14.2359 82.3552 14.0817 81.6364 13.7699C80.9216 13.4616 80.2986 13.0196 79.7734 12.4457C79.2463 11.8684 78.837 11.1849 78.5475 10.3815C78.2559 9.58152 78.1102 8.6856 78.1062 7.69889C78.1062 7.05821 78.184 6.44151 78.3438 5.84194C78.5015 5.24409 78.7371 4.68735 79.0446 4.17172C79.3541 3.65952 79.7355 3.2107 80.1908 2.82355C80.646 2.4364 81.1672 2.13491 81.7622 1.92077C82.3592 1.7015 83.0201 1.59358 83.7469 1.59187C84.2321 1.58673 84.7073 1.64155 85.1766 1.74776C85.6438 1.85568 86.0871 2.03555 86.5044 2.28223C86.9217 2.53405 87.2951 2.8698 87.6246 3.29807C87.954 3.71947 88.2256 4.25052 88.4352 4.88092L89.3637 4.73189C89.3038 4.27622 89.2459 3.85309 89.188 3.46252C89.1241 3.07194 89.0622 2.69165 88.9943 2.32163C88.9324 1.95332 88.8605 1.57303 88.7866 1.18245C88.553 1.14305 88.2096 1.07796 87.7543 0.988877C87.2991 0.901511 86.764 0.819285 86.157 0.743911C85.552 0.668537 84.905 0.625711 84.2221 0.622284C82.7186 0.625711 81.3608 0.809007 80.1448 1.16703C78.9288 1.5302 77.8845 2.03897 77.01 2.70192C76.1414 3.36487 75.4725 4.15459 75.0053 5.06764C74.536 5.98241 74.2984 6.99654 74.2944 8.1083Z" fill="#FFCC00"/>
<path fill-rule="evenodd" clip-rule="evenodd" d="M66.7811 10.9166C66.6134 10.4901 66.5255 9.99159 66.5215 9.42115C66.5255 8.84728 66.5894 8.36077 66.7152 7.96163C66.839 7.56421 67.0027 7.24215 67.2084 6.99719C67.4121 6.75394 67.6377 6.57407 67.8853 6.46615C68.1349 6.35651 68.3825 6.29827 68.6281 6.30169C68.9755 6.29827 69.3589 6.38906 69.7722 6.57064C70.1875 6.75051 70.6508 7.03316 71.1599 7.42031C71.2698 7.50596 71.3696 7.56763 71.4535 7.60361C71.5413 7.63958 71.6252 7.65671 71.713 7.65671C71.8588 7.65329 72.0165 7.59676 72.1803 7.48883C72.348 7.38091 72.4898 7.23702 72.6056 7.05886C72.7234 6.87899 72.7853 6.68542 72.7913 6.47471C72.8072 6.32396 72.7813 6.18349 72.7154 6.05501C72.6475 5.92482 72.5237 5.80662 72.338 5.70041C72.1184 5.54624 71.8208 5.41605 71.4415 5.31669C71.0601 5.21562 70.6428 5.16594 70.1835 5.16252H70.1576C69.8361 5.15909 69.4507 5.19849 69.0035 5.27729C68.5562 5.35952 68.069 5.49485 67.5419 5.68842C67.0147 5.88714 66.4756 6.15437 65.9205 6.49527C65.3934 6.83616 64.9381 7.22331 64.5627 7.66185C64.1854 8.09868 63.8938 8.56805 63.6922 9.06655C63.4925 9.56504 63.3927 10.0772 63.3887 10.6049C63.3887 11.1959 63.5125 11.7663 63.7561 12.3111C63.9977 12.8558 64.3531 13.344 64.8203 13.774C65.2896 14.2074 65.8566 14.5483 66.5295 14.7984C67.2024 15.0502 67.9672 15.1787 68.8278 15.1855C69.3429 15.1821 69.8561 15.0862 70.3712 14.896C70.8844 14.7025 71.3776 14.4335 71.8508 14.0858C72.322 13.7414 72.7533 13.332 73.1407 12.8627L72.6655 12.347C72.368 12.5697 72.0804 12.741 71.8049 12.8695C71.5233 13.0031 71.2398 13.0922 70.9443 13.1504C70.6508 13.2036 70.3293 13.2292 69.9819 13.2292C69.7642 13.2292 69.5106 13.1881 69.2171 13.1059C68.9236 13.0237 68.6201 12.8952 68.3106 12.7119C67.9971 12.5338 67.7036 12.2922 67.438 11.9993C67.1665 11.7012 66.9488 11.3432 66.7811 10.9166Z" fill="#FFCC00"/>
<path fill-rule="evenodd" clip-rule="evenodd" d="M94.2018 6.25996V12.7781C94.2058 13.0727 94.1898 13.3091 94.1599 13.4873C94.126 13.6672 94.0561 13.8076 93.9482 13.9036C93.8384 14.0046 93.6747 14.0766 93.4491 14.1263C93.2274 14.1725 92.9279 14.2119 92.5465 14.241V14.9297H99.2675V14.241C98.8362 14.2119 98.4988 14.1725 98.2472 14.1228C97.9956 14.0715 97.8079 13.9961 97.6921 13.8967C97.5703 13.7957 97.4944 13.6569 97.4565 13.477C97.4245 13.2972 97.4066 13.0642 97.4106 12.7781V6.25996H98.2132C98.4688 6.25996 98.6825 6.2788 98.8482 6.32163C99.0159 6.36103 99.1537 6.42099 99.2675 6.50664C99.3793 6.594 99.4792 6.70535 99.567 6.84068C99.6808 7.03083 99.7807 7.24667 99.8765 7.48993C99.9684 7.73318 100.056 8.02782 100.144 8.36872L100.971 8.30362C100.955 8.04153 100.939 7.7623 100.931 7.46937C100.921 7.17473 100.917 6.88865 100.917 6.61113C100.913 6.33533 100.909 6.09208 100.909 5.87966L100.897 5.42228H90.7675L90.7415 5.87624L90.7136 6.60428C90.6996 6.88008 90.6836 7.16445 90.6676 7.4608C90.6557 7.75545 90.6377 8.03468 90.6157 8.30362L91.4184 8.36872C91.4863 8.15288 91.5482 7.96615 91.6061 7.8017C91.666 7.64067 91.7239 7.4865 91.7818 7.34603C91.8417 7.20727 91.9036 7.0668 91.9695 6.92633C92.0793 6.66081 92.247 6.48608 92.4727 6.39358C92.6983 6.29593 92.9898 6.25311 93.3492 6.25996H94.2018Z" fill="#FFCC00"/>
<path fill-rule="evenodd" clip-rule="evenodd" d="M103.604 8.02244V17.6806C103.608 17.9769 103.596 18.2219 103.562 18.4052C103.532 18.5919 103.462 18.7341 103.353 18.8386C103.245 18.938 103.073 19.0133 102.843 19.0682C102.61 19.1178 102.296 19.1572 101.899 19.1864V19.875H108.869V19.1864C108.384 19.1504 108.005 19.1076 107.725 19.0562C107.444 19.0031 107.24 18.9277 107.106 18.8283C106.977 18.7238 106.897 18.5799 106.859 18.3932C106.825 18.2082 106.809 17.9632 106.813 17.6583V14.9277C107.001 14.9945 107.23 15.0528 107.498 15.1025C107.761 15.1556 108.055 15.1813 108.368 15.1847C109.179 15.0271 109.948 14.7838 110.674 14.4498C111.401 14.1175 112.05 13.7012 112.617 13.1993C113.186 12.7008 113.634 12.1269 113.959 11.4777C114.289 10.825 114.452 10.1055 114.46 9.31237C114.46 8.78989 114.364 8.28454 114.169 7.7929C113.971 7.30125 113.684 6.85757 113.302 6.46186C112.919 6.06786 112.446 5.75266 111.878 5.51969C111.313 5.28671 110.663 5.16851 109.922 5.16166C109.708 5.16166 109.488 5.19763 109.263 5.26787C109.033 5.33982 108.794 5.44089 108.544 5.56936L106.813 6.51668V4.94582C105.982 5.15481 105.168 5.34496 104.369 5.51969C103.574 5.69613 102.835 5.83489 102.151 5.93596V6.58006C102.454 6.61603 102.706 6.65543 102.893 6.7034C103.087 6.74965 103.237 6.8216 103.337 6.9141C103.44 7.00832 103.512 7.14365 103.55 7.3201C103.588 7.49483 103.608 7.7278 103.604 8.02244ZM106.813 13.2712V7.31153C107.026 7.1505 107.264 7.02203 107.528 6.93295C107.791 6.84216 108.079 6.7959 108.392 6.7959C108.706 6.79248 109.019 6.85757 109.341 6.98948C109.662 7.11796 109.96 7.32695 110.231 7.6096C110.507 7.89739 110.724 8.2657 110.892 8.72822C111.058 9.19074 111.146 9.75091 111.15 10.4104C111.146 11.159 111.05 11.8117 110.854 12.3633C110.659 12.9149 110.391 13.3432 110.044 13.6481C109.7 13.9513 109.299 14.1055 108.843 14.1089C108.632 14.1055 108.396 14.0626 108.147 13.977C107.891 13.8948 107.649 13.7868 107.412 13.6618C107.176 13.5316 106.977 13.4031 106.813 13.2712Z" fill="#FFCC00"/>
<path fill-rule="evenodd" clip-rule="evenodd" d="M115.964 10.389C115.964 10.8618 116.044 11.3278 116.2 11.7869C116.354 12.2494 116.583 12.6828 116.897 13.0888C117.206 13.4965 117.6 13.8596 118.067 14.1714C118.536 14.4866 119.083 14.735 119.71 14.9132C120.337 15.093 121.046 15.1821 121.833 15.1855C122.422 15.1855 122.999 15.117 123.562 14.9783C124.127 14.8412 124.656 14.6339 125.145 14.3581C125.638 14.0823 126.074 13.738 126.445 13.3218C126.823 12.9089 127.114 12.4258 127.328 11.8691C127.535 11.3175 127.645 10.6939 127.649 10.0019C127.645 9.35263 127.515 8.73593 127.252 8.15521C126.984 7.57791 126.609 7.06229 126.112 6.61347C125.615 6.16637 125.016 5.81177 124.319 5.55652C123.618 5.29785 122.831 5.16595 121.959 5.16252C121.393 5.16252 120.824 5.23447 120.257 5.37323C119.688 5.5137 119.149 5.7244 118.636 6.00534C118.123 6.28457 117.666 6.63574 117.264 7.05201C116.863 7.47171 116.549 7.95821 116.32 8.51495C116.086 9.0734 115.97 9.69695 115.964 10.389ZM119.55 9.61473C119.554 8.7976 119.654 8.12438 119.848 7.58991C120.04 7.05201 120.289 6.65287 120.599 6.39249C120.904 6.13039 121.234 6.0002 121.581 6.0002C122.116 6.0002 122.572 6.1835 122.939 6.54152C123.306 6.89784 123.588 7.42374 123.776 8.11238C123.967 8.80445 124.063 9.64727 124.063 10.6477C124.059 11.4357 124.005 12.0781 123.893 12.5697C123.78 13.0597 123.634 13.4331 123.446 13.6901C123.256 13.9487 123.049 14.1252 122.815 14.2177C122.583 14.3068 122.35 14.3547 122.108 14.3479C121.711 14.3427 121.356 14.2211 121.042 13.9813C120.729 13.738 120.457 13.404 120.235 12.974C120.014 12.544 119.848 12.0421 119.726 11.4717C119.608 10.8978 119.55 10.2811 119.55 9.61473Z" fill="#FFCC00"/>
<path fill-rule="evenodd" clip-rule="evenodd" d="M130.67 6.83726C130.7 7.02055 130.712 7.25695 130.708 7.5516V12.7987C130.712 13.0864 130.7 13.3194 130.67 13.4959C130.636 13.674 130.57 13.8111 130.464 13.907C130.357 14.0046 130.193 14.0766 129.967 14.1263C129.742 14.1725 129.438 14.2119 129.053 14.241V14.9297H134.043V14.7789C134.043 14.6813 134.055 14.5819 134.08 14.474C134.104 14.3695 134.142 14.2616 134.192 14.1554L137.729 7.20727H137.778C137.744 7.74346 137.725 8.18885 137.707 8.5366C137.695 8.88777 137.687 9.17556 137.683 9.39997C137.679 9.63123 137.679 9.83166 137.679 10.003V12.8209C137.687 13.1858 137.657 13.4667 137.595 13.6569C137.531 13.847 137.403 13.9824 137.201 14.0646C137.006 14.1434 136.704 14.2051 136.299 14.241V14.9297H142.367V14.241C141.996 14.2119 141.698 14.1725 141.476 14.1228C141.259 14.0715 141.093 13.9961 140.987 13.8967C140.883 13.7957 140.811 13.6569 140.78 13.477C140.75 13.2972 140.734 13.0642 140.738 12.7781V7.4865C140.734 7.2107 140.746 6.98115 140.774 6.80471C140.807 6.6334 140.875 6.49293 140.979 6.39358C141.083 6.29251 141.247 6.21713 141.468 6.16745C141.69 6.11606 141.986 6.07324 142.367 6.04583V5.42228H137.403V5.55076C137.403 5.61414 137.385 5.68266 137.357 5.75804C137.327 5.83341 137.289 5.91564 137.251 6.00129L133.717 12.9922H133.667C133.699 12.4954 133.721 12.0501 133.737 11.6629C133.749 11.2758 133.759 10.9349 133.763 10.6368C133.767 10.3404 133.767 10.0783 133.767 9.85222V7.4865C133.763 7.11648 133.787 6.84068 133.851 6.65053C133.913 6.45696 134.047 6.32506 134.252 6.24283C134.452 6.16403 134.757 6.10236 135.171 6.06639V5.42228H129.103V6.06639C129.476 6.09551 129.772 6.13491 129.989 6.18459C130.207 6.23598 130.365 6.31135 130.47 6.41413C130.574 6.5152 130.64 6.65396 130.67 6.83726Z" fill="#FFCC00"/>
<path fill-rule="evenodd" clip-rule="evenodd" d="M132.851 3.11464C133.094 3.41442 133.454 3.65254 133.929 3.82384C134.406 3.99686 134.995 4.08251 135.698 4.08594C136.407 4.08251 137.006 3.99686 137.491 3.82384C137.974 3.65254 138.338 3.411 138.585 3.10779C138.831 2.80287 138.957 2.44827 138.957 2.04228C138.957 1.85898 138.915 1.68425 138.831 1.51808C138.747 1.35363 138.623 1.2183 138.455 1.11038C138.288 1.00246 138.08 0.949353 137.828 0.945927C137.569 0.949353 137.361 0.999031 137.198 1.09667C137.034 1.19603 136.926 1.32108 136.864 1.47526C136.804 1.62601 136.8 1.78874 136.85 1.95662C136.864 2.032 136.88 2.1108 136.896 2.19302C136.914 2.27525 136.926 2.35405 136.926 2.42942C136.964 2.6761 136.884 2.86282 136.684 2.99302C136.483 3.11807 136.161 3.18316 135.722 3.18316C135.293 3.18316 134.975 3.11807 134.762 2.98959C134.548 2.8594 134.46 2.66582 134.494 2.40715L134.532 2.17589L134.57 1.95662C134.628 1.78874 134.636 1.62601 134.594 1.47526C134.552 1.32108 134.452 1.19603 134.292 1.09667C134.135 0.999031 133.909 0.949353 133.615 0.945927C133.358 0.949353 133.144 1.00246 132.976 1.11038C132.815 1.2183 132.689 1.35706 132.609 1.52665C132.529 1.69453 132.487 1.8744 132.487 2.06283C132.487 2.46197 132.609 2.80972 132.851 3.11464Z" fill="#FFCC00"/>
<path fill-rule="evenodd" clip-rule="evenodd" d="M141.275 25.4372C141.025 25.4372 140.814 25.4972 140.642 25.6188C140.47 25.7387 140.382 25.9032 140.382 26.1087C140.382 26.3143 140.468 26.4822 140.638 26.6089C140.808 26.7374 141.011 26.8008 141.253 26.8008C141.497 26.8008 141.708 26.7374 141.886 26.6089C142.064 26.4822 142.153 26.3143 142.153 26.1087C142.153 25.9032 142.068 25.7387 141.898 25.6188C141.728 25.4972 141.52 25.4372 141.275 25.4372Z" fill="#FFCC00"/>
<path fill-rule="evenodd" clip-rule="evenodd" d="M139.318 26.0003V24.1142C139.318 23.751 139.461 23.5694 139.749 23.5694V23.4016H137.487V23.5694C137.626 23.5694 137.722 23.6123 137.776 23.6996C137.828 23.787 137.854 23.9257 137.854 24.1142L136.79 24.9536V24.1142C136.79 23.751 136.919 23.5694 137.181 23.5694V23.4016H134.903V23.5694C135.184 23.5694 135.324 23.751 135.324 24.1142V26.0003C135.324 26.3634 135.184 26.545 134.903 26.545V26.7129H137.181V26.545C136.919 26.545 136.79 26.3634 136.79 26.0003V25.5172L137.854 24.6778V26.0003C137.854 26.1887 137.828 26.3275 137.776 26.4131C137.722 26.5005 137.626 26.545 137.487 26.545V26.7129H139.749V26.545C139.461 26.545 139.318 26.3634 139.318 26.0003Z" fill="#FFCC00"/>
<path fill-rule="evenodd" clip-rule="evenodd" d="M134.15 26.0003V24.1142C134.15 23.751 134.294 23.5694 134.581 23.5694V23.4016H132.319V23.5694C132.461 23.5694 132.557 23.6123 132.609 23.6996C132.661 23.787 132.687 23.9257 132.687 24.1142L131.622 24.9536V24.1142C131.622 23.751 131.752 23.5694 132.014 23.5694V23.4016H129.735V23.5694C130.017 23.5694 130.159 23.751 130.159 24.1142V26.0003C130.159 26.3634 130.017 26.545 129.735 26.545V26.7129H132.014V26.545C131.752 26.545 131.622 26.3634 131.622 26.0003V25.5172L132.687 24.6778V26.0003C132.687 26.1887 132.661 26.3275 132.609 26.4131C132.557 26.5005 132.461 26.545 132.319 26.545V26.7129H134.581V26.545C134.294 26.545 134.15 26.3634 134.15 26.0003Z" fill="#FFCC00"/>
<path fill-rule="evenodd" clip-rule="evenodd" d="M128.194 25.8392V23.8247C128.518 23.8247 128.785 23.9103 129.001 24.0799C129.193 24.2324 129.36 24.4671 129.5 24.7857L129.666 24.7583L129.304 23.2936C129.268 23.3382 129.207 23.369 129.121 23.3844C129.035 23.3998 128.935 23.4084 128.819 23.4084H126.034C125.928 23.4084 125.844 23.3998 125.778 23.3844C125.712 23.369 125.664 23.3382 125.632 23.2936L125.249 24.7583L125.421 24.7857C125.517 24.4808 125.678 24.2444 125.912 24.0765C126.144 23.9086 126.417 23.8247 126.731 23.8247V25.8392C126.731 26.139 126.695 26.3326 126.623 26.4165C126.553 26.5022 126.447 26.545 126.307 26.545V26.7129H128.578V26.545C128.368 26.545 128.246 26.4439 128.21 26.2435C128.198 26.1853 128.194 26.0499 128.194 25.8392Z" fill="#FFCC00"/>
<path fill-rule="evenodd" clip-rule="evenodd" d="M124.755 26.0003V24.1142C124.755 23.751 124.897 23.5694 125.178 23.5694V23.4016H122.924V23.5694C123.064 23.5694 123.162 23.6123 123.214 23.6996C123.266 23.787 123.291 23.9257 123.291 24.1142V24.4362H122.227V24.1142C122.227 23.9257 122.253 23.787 122.305 23.6996C122.357 23.6123 122.455 23.5694 122.595 23.5694V23.4016H120.34V23.5694C120.622 23.5694 120.764 23.751 120.764 24.1142V26.0003C120.764 26.3634 120.622 26.545 120.34 26.545V26.7129H122.595V26.545C122.455 26.545 122.357 26.5005 122.305 26.4131C122.253 26.3275 122.227 26.1887 122.227 26.0003V24.8662H123.291V26.0003C123.291 26.1887 123.266 26.3275 123.214 26.4131C123.162 26.5005 123.064 26.545 122.924 26.545V26.7129H125.178V26.545C124.897 26.545 124.755 26.3634 124.755 26.0003Z" fill="#FFCC00"/>
<path fill-rule="evenodd" clip-rule="evenodd" d="M119.746 24.5841C119.746 24.3374 119.73 24.1524 119.698 24.0274C119.646 23.8201 119.544 23.6676 119.39 23.5666C119.235 23.4655 119.059 23.3987 118.861 23.3644C118.662 23.3319 118.442 23.3147 118.196 23.3147C118.013 23.3147 117.827 23.3267 117.635 23.349C117.446 23.3713 117.152 23.4192 116.755 23.4963L116.599 23.5237C116.541 23.5323 116.489 23.5357 116.441 23.5357C116.385 23.5357 116.339 23.5272 116.305 23.51C116.272 23.4912 116.23 23.4621 116.184 23.4227L116.026 24.6372H116.184C116.309 24.3871 116.495 24.1884 116.739 24.0428C116.98 23.8989 117.26 23.8252 117.575 23.8252C117.699 23.8252 117.813 23.8372 117.913 23.8612C118.011 23.8869 118.099 23.9332 118.172 24C118.218 24.0445 118.248 24.0925 118.262 24.1404C118.276 24.1901 118.282 24.2518 118.282 24.3289V24.5036C117.863 24.5567 117.498 24.6235 117.182 24.704C116.727 24.8222 116.377 24.9661 116.13 25.1408C115.82 25.3601 115.667 25.6325 115.667 25.9545C115.667 26.2183 115.79 26.4291 116.036 26.5849C116.262 26.7288 116.531 26.8008 116.845 26.8008C117.112 26.8008 117.376 26.7562 117.639 26.6655C117.937 26.5627 118.152 26.4291 118.282 26.2629C118.308 26.3485 118.344 26.4308 118.392 26.5113C118.438 26.5918 118.492 26.6586 118.554 26.7134H120.177V26.5455C119.993 26.5318 119.872 26.4633 119.808 26.3365C119.766 26.256 119.746 26.1258 119.746 25.9477V24.5841ZM118.282 24.8856C118.282 25.1905 118.24 25.4509 118.156 25.665C118.037 25.9751 117.835 26.1293 117.553 26.1293C117.424 26.1293 117.32 26.0882 117.244 26.0042C117.168 25.922 117.13 25.8243 117.13 25.713C117.13 25.5914 117.178 25.4749 117.272 25.3601C117.366 25.2453 117.478 25.1528 117.609 25.0809C117.713 25.0226 117.811 24.9815 117.903 24.9575C117.993 24.9319 118.12 24.9096 118.282 24.8856Z" fill="#FFCC00"/>
<path fill-rule="evenodd" clip-rule="evenodd" d="M115.323 25.1533C115.323 24.8895 115.255 24.6376 115.119 24.3978C114.983 24.158 114.802 23.9576 114.574 23.7965C114.348 23.6355 114.101 23.5293 113.835 23.4779C113.57 23.4265 113.26 23.4008 112.911 23.4008H110.469V23.5687C110.754 23.5687 110.898 23.7469 110.898 24.1066V27.4642C110.898 27.6389 110.854 27.7725 110.762 27.8633C110.67 27.9558 110.549 28.002 110.399 28.002V28.1699H112.849V28.002C112.703 28.002 112.585 27.9541 112.495 27.8599C112.408 27.7656 112.364 27.6337 112.364 27.4642V26.7395L112.665 26.7652C112.771 26.7738 112.871 26.7789 112.967 26.7789C113.278 26.7789 113.57 26.755 113.835 26.7053C114.169 26.6419 114.432 26.5443 114.626 26.4089C115.089 26.1057 115.323 25.686 115.323 25.1533ZM113.757 25.1139C113.757 25.4222 113.678 25.6894 113.522 25.9121C113.334 26.1759 113.071 26.3096 112.731 26.3096C112.599 26.3096 112.497 26.2667 112.426 26.1811C112.39 26.1417 112.37 26.0834 112.368 26.0064L112.364 25.7922V23.8377H112.466C112.867 23.8377 113.188 23.9678 113.428 24.2265C113.648 24.4646 113.757 24.7593 113.757 25.1139Z" fill="#FFCC00"/>
<path fill-rule="evenodd" clip-rule="evenodd" d="M109.882 24.5841C109.882 24.3374 109.866 24.1524 109.834 24.0274C109.782 23.8201 109.678 23.6676 109.525 23.5666C109.371 23.4655 109.195 23.3987 108.998 23.3644C108.798 23.3319 108.576 23.3147 108.331 23.3147C108.149 23.3147 107.961 23.3267 107.772 23.349C107.582 23.3713 107.288 23.4192 106.891 23.4963L106.735 23.5237C106.677 23.5323 106.625 23.5357 106.577 23.5357C106.52 23.5357 106.476 23.5272 106.44 23.51C106.408 23.4912 106.366 23.4621 106.32 23.4227L106.162 24.6372H106.32C106.444 24.3871 106.629 24.1884 106.875 24.0428C107.117 23.8989 107.396 23.8252 107.71 23.8252C107.835 23.8252 107.949 23.8372 108.049 23.8612C108.147 23.8869 108.233 23.9332 108.309 24C108.355 24.0445 108.385 24.0925 108.398 24.1404C108.41 24.1901 108.416 24.2518 108.416 24.3289V24.5036C107.999 24.5567 107.632 24.6235 107.318 24.704C106.863 24.8222 106.514 24.9661 106.266 25.1408C105.956 25.3601 105.803 25.6325 105.803 25.9545C105.803 26.2183 105.925 26.4291 106.172 26.5849C106.396 26.7288 106.665 26.8008 106.981 26.8008C107.246 26.8008 107.512 26.7562 107.774 26.6655C108.071 26.5627 108.287 26.4291 108.416 26.2629C108.444 26.3485 108.48 26.4308 108.526 26.5113C108.574 26.5918 108.628 26.6586 108.69 26.7134H110.311V26.5455C110.13 26.5318 110.008 26.4633 109.944 26.3365C109.902 26.256 109.882 26.1258 109.882 25.9477V24.5841ZM108.416 24.8856C108.416 25.1905 108.375 25.4509 108.293 25.665C108.173 25.9751 107.971 26.1293 107.69 26.1293C107.56 26.1293 107.456 26.0882 107.38 26.0042C107.304 25.922 107.266 25.8243 107.266 25.713C107.266 25.5914 107.314 25.4749 107.408 25.3601C107.502 25.2453 107.614 25.1528 107.744 25.0809C107.849 25.0226 107.947 24.9815 108.037 24.9575C108.129 24.9319 108.255 24.9096 108.416 24.8856Z" fill="#FFCC00"/>
<path fill-rule="evenodd" clip-rule="evenodd" d="M103.541 23.3742V23.22C103.541 23.1309 103.549 23.0555 103.569 22.9956C103.586 22.9356 103.626 22.8859 103.688 22.8517C103.756 22.802 103.84 22.7695 103.94 22.7557C104.038 22.7438 104.162 22.7369 104.307 22.7369C104.607 22.7369 104.876 22.7883 105.112 22.8894C105.192 22.9253 105.268 22.9647 105.342 23.0127C105.627 23.196 105.837 23.4547 105.967 23.7904L106.124 23.7442L105.747 22.1853C105.727 22.235 105.693 22.2658 105.645 22.2761C105.599 22.2881 105.535 22.2932 105.457 22.2932H101.504V22.4611C101.666 22.4611 101.779 22.5142 101.841 22.6187C101.903 22.7249 101.935 22.8962 101.935 23.1326V25.8735C101.935 26.1202 101.903 26.2932 101.841 26.3943C101.779 26.4936 101.666 26.545 101.504 26.545V26.7129H104.018V26.545C103.86 26.545 103.748 26.4936 103.68 26.3908C103.612 26.2881 103.567 26.115 103.541 25.8735V23.3742Z" fill="#FFCC00"/>
<path fill-rule="evenodd" clip-rule="evenodd" d="M98.2715 26.1087C98.2715 25.9032 98.1877 25.7387 98.018 25.6188C97.8482 25.4972 97.6406 25.4372 97.395 25.4372C97.1434 25.4372 96.9337 25.4972 96.76 25.6188C96.5883 25.7387 96.5024 25.9032 96.5024 26.1087C96.5024 26.3143 96.5883 26.4822 96.756 26.6089C96.9257 26.7374 97.1314 26.8008 97.371 26.8008C97.6166 26.8008 97.8283 26.7374 98.006 26.6089C98.1837 26.4822 98.2715 26.3143 98.2715 26.1087Z" fill="#FFCC00"/>
<path fill-rule="evenodd" clip-rule="evenodd" d="M95.1487 26.364C95.6239 26.0453 95.8595 25.6136 95.8595 25.0672C95.8595 24.5087 95.6359 24.0685 95.1866 23.7516C94.7753 23.4604 94.2402 23.3147 93.5832 23.3147C92.9084 23.3147 92.3473 23.4706 91.9 23.7841C91.4188 24.1199 91.1792 24.5704 91.1792 25.1357C91.1792 25.4029 91.2411 25.6565 91.3669 25.8946C91.4927 26.131 91.6744 26.316 91.914 26.4513C92.1336 26.5764 92.3812 26.6655 92.6548 26.7203C92.9283 26.7734 93.2139 26.8008 93.5114 26.8008C94.1643 26.8008 94.7094 26.6552 95.1487 26.364ZM94.2521 24.6578C94.2801 24.8239 94.2941 24.9918 94.2941 25.1614C94.2941 25.283 94.2801 25.4149 94.2521 25.5588C94.2222 25.701 94.1843 25.8192 94.1383 25.9134C94.0804 26.0213 94.0105 26.107 93.9267 26.1687C93.8228 26.2492 93.713 26.2886 93.5972 26.2834C93.2897 26.2834 93.0601 26.1104 92.9084 25.7661C92.7985 25.5194 92.7446 25.2402 92.7446 24.9267C92.7446 24.6492 92.7925 24.4145 92.8864 24.2209C93.0102 23.9571 93.2139 23.8252 93.4974 23.8252C93.6272 23.8252 93.749 23.8663 93.8648 23.9469C93.9586 24.0137 94.0385 24.1079 94.1064 24.2278C94.1743 24.3494 94.2222 24.4916 94.2521 24.6578Z" fill="#FFCC00"/>
<path fill-rule="evenodd" clip-rule="evenodd" d="M88.2116 24.724V24.2615C88.2116 24.0594 88.2436 23.9257 88.3055 23.8589C88.3514 23.8093 88.4432 23.7836 88.579 23.7836C88.7148 23.7836 88.8146 23.823 88.8765 23.9018C88.9384 23.9806 88.9704 24.0748 88.9704 24.1878C88.9704 24.2992 88.9284 24.3985 88.8446 24.4825C88.7627 24.5681 88.6489 24.6264 88.5091 24.6572L88.2116 24.724ZM91.007 25.6182C91.007 25.3801 90.8792 25.1814 90.6277 25.0204C90.3741 24.8594 90.0486 24.7532 89.6513 24.7035C89.8709 24.6418 90.0566 24.5596 90.2083 24.4551C90.39 24.33 90.4819 24.1981 90.4819 24.0594C90.4819 23.7647 90.2782 23.5694 89.8709 23.4752C89.6572 23.4255 89.2819 23.4016 88.7447 23.4016H86.3247V23.5694C86.5124 23.5694 86.6342 23.6414 86.6921 23.7836C86.73 23.8744 86.748 24.032 86.748 24.2615V25.8529C86.748 26.0722 86.726 26.2315 86.6841 26.3292C86.6222 26.4731 86.5024 26.545 86.3247 26.545V26.7129H88.8925C89.4975 26.7129 89.9907 26.6255 90.3721 26.4508C90.7954 26.2589 91.007 25.9814 91.007 25.6182ZM88.2116 25.8392V25.154L88.9324 24.9793C89.0942 25.029 89.22 25.1129 89.3118 25.2311C89.4037 25.351 89.4476 25.4983 89.4476 25.6782C89.4476 25.8838 89.3797 26.0448 89.2399 26.1579C89.1022 26.2726 88.9185 26.3292 88.6888 26.3292C88.5071 26.3292 88.3813 26.2966 88.3134 26.2298C88.2456 26.163 88.2116 26.0328 88.2116 25.8392Z" fill="#FFCC00"/>
<path fill-rule="evenodd" clip-rule="evenodd" d="M84.7835 25.8392V23.8247C85.107 23.8247 85.3746 23.9103 85.5882 24.0799C85.7819 24.2324 85.9496 24.4671 86.0894 24.7857L86.2551 24.7583L85.8937 23.2936C85.8578 23.3382 85.7959 23.369 85.71 23.3844C85.6241 23.3998 85.5243 23.4084 85.4085 23.4084H82.6211C82.5173 23.4084 82.4334 23.3998 82.3675 23.3844C82.3016 23.369 82.2537 23.3382 82.2217 23.2936L81.8384 24.7583L82.0121 24.7857C82.1059 24.4808 82.2677 24.2444 82.5013 24.0765C82.7329 23.9086 83.0065 23.8247 83.3179 23.8247V25.8392C83.3179 26.139 83.284 26.3326 83.2121 26.4165C83.1422 26.5022 83.0364 26.545 82.8966 26.545V26.7129H85.1669V26.545C84.9572 26.545 84.8354 26.4439 84.7975 26.2435C84.7875 26.1853 84.7835 26.0499 84.7835 25.8392Z" fill="#FFCC00"/>
<path fill-rule="evenodd" clip-rule="evenodd" d="M79.2783 24.9335C79.2783 24.7759 79.3083 24.6235 79.3682 24.4727C79.4281 24.3237 79.5179 24.1969 79.6397 24.0941C79.7336 24.0136 79.8454 23.9468 79.9752 23.8954C80.107 23.844 80.2347 23.8183 80.3585 23.8183C80.6101 23.8183 80.8358 23.9057 81.0394 24.0804C81.2291 24.2415 81.3529 24.4316 81.4168 24.6509L81.5805 24.6183L81.2291 23.2804C81.2012 23.3216 81.1632 23.3507 81.1113 23.3678C81.0574 23.3866 81.0035 23.3952 80.9456 23.3952L80.7279 23.3747L79.9133 23.3147C79.2763 23.3147 78.7592 23.4517 78.3618 23.7258C77.9305 24.0222 77.7129 24.4367 77.7129 24.9661C77.7129 25.5519 77.9585 26.011 78.4497 26.3485C78.8989 26.6586 79.466 26.8145 80.1549 26.8145L80.6101 26.7819L80.7659 26.7562C80.8298 26.7459 80.9016 26.7408 80.9855 26.7408C81.0534 26.7408 81.1133 26.7442 81.1652 26.7528C81.2171 26.7631 81.267 26.7819 81.315 26.8145L81.8701 25.6325L81.7203 25.5708C81.6005 25.7729 81.4348 25.9357 81.2211 26.059C81.0075 26.1823 80.7719 26.244 80.5163 26.244C80.1409 26.244 79.8354 26.1018 79.5998 25.8192C79.3861 25.5639 79.2783 25.2693 79.2783 24.9335Z" fill="#FFCC00"/>
<path fill-rule="evenodd" clip-rule="evenodd" d="M74.58 24.7349C74.58 24.5036 74.628 24.3066 74.7218 24.1473C74.8416 23.9366 75.0193 23.8321 75.2549 23.8321C75.4326 23.8321 75.5804 23.8886 75.7002 24C75.82 24.1113 75.8819 24.2449 75.8819 24.4025V24.5156L74.58 24.7349ZM77.4473 24.6578C77.3575 24.2141 77.1159 23.8749 76.7185 23.6368C76.3531 23.4227 75.8999 23.3147 75.3568 23.3147C74.7038 23.3147 74.1607 23.4604 73.7274 23.7516C73.2522 24.0685 73.0166 24.4967 73.0166 25.0346C73.0166 25.3121 73.0865 25.5691 73.2263 25.8072C73.368 26.0436 73.5657 26.244 73.8213 26.4051C74.0409 26.5438 74.2925 26.6432 74.574 26.7066C74.8556 26.7699 75.1471 26.8008 75.4506 26.8008C75.6063 26.8008 75.7721 26.7922 75.9438 26.7734C76.1155 26.7562 76.2832 26.7357 76.445 26.7134L76.6167 26.6929C76.6686 26.6929 76.7245 26.7066 76.7804 26.734L76.8683 26.7802L77.3535 25.4903L77.1878 25.4372C77.0679 25.6839 76.8862 25.8792 76.6446 26.0248C76.401 26.1704 76.1255 26.244 75.818 26.244C75.4686 26.244 75.187 26.131 74.9734 25.9066C74.7857 25.7147 74.6699 25.4612 74.628 25.1477L77.4473 24.6578Z" fill="#FFCC00"/>
<path fill-rule="evenodd" clip-rule="evenodd" d="M72.2633 26.0003V24.1142C72.2633 23.751 72.4051 23.5694 72.6866 23.5694V23.4016H70.4324V23.5694C70.5841 23.5694 70.682 23.6105 70.7299 23.6928C70.7758 23.7767 70.7998 23.9155 70.7998 24.1142V24.6367C70.5961 24.7669 70.3805 24.832 70.1488 24.832C70.025 24.832 69.9252 24.8011 69.8493 24.7412C69.7735 24.6812 69.7355 24.5887 69.7355 24.4619V24.1142C69.7355 23.9257 69.7615 23.787 69.8134 23.6996C69.8653 23.6123 69.9611 23.5694 70.1029 23.5694V23.4016H67.8486V23.5694C68.0044 23.5694 68.1142 23.6123 68.1761 23.6996C68.24 23.787 68.2699 23.9257 68.2699 24.1142V24.4619C68.2699 24.7497 68.3917 24.9707 68.6313 25.1283C68.851 25.2705 69.1325 25.3424 69.4759 25.3424C69.7116 25.3424 69.9292 25.3236 70.1269 25.2859C70.3245 25.2465 70.5482 25.1746 70.7998 25.0666V26.0003C70.7998 26.1887 70.7738 26.3275 70.7219 26.4131C70.67 26.5005 70.5721 26.545 70.4324 26.545V26.7129H72.6866V26.545C72.4051 26.545 72.2633 26.3634 72.2633 26.0003Z" fill="#FFCC00"/>
<path fill-rule="evenodd" clip-rule="evenodd" d="M67.4099 25.8072V24.5841C67.4099 24.3374 67.3939 24.1524 67.3639 24.0274C67.312 23.8201 67.2082 23.6676 67.0544 23.5666C66.9007 23.4655 66.723 23.3987 66.5253 23.3644C66.3276 23.3319 66.106 23.3147 65.8604 23.3147C65.6787 23.3147 65.491 23.3267 65.3013 23.349C65.1096 23.3713 64.8161 23.4192 64.4188 23.4963L64.263 23.5237C64.2051 23.5323 64.1532 23.5357 64.1073 23.5357C64.0494 23.5357 64.0035 23.5272 63.9695 23.51C63.9356 23.4912 63.8956 23.4621 63.8477 23.4227L63.692 24.6372H63.8477C63.9735 24.3871 64.1592 24.1884 64.4028 24.0428C64.6444 23.8989 64.9239 23.8252 65.2394 23.8252C65.3652 23.8252 65.477 23.8372 65.5769 23.8612C65.6767 23.8869 65.7626 23.9332 65.8364 24C65.8844 24.0445 65.9143 24.0925 65.9263 24.1404C65.9403 24.1901 65.9463 24.2518 65.9463 24.3289V24.5036C65.527 24.5567 65.1616 24.6235 64.8461 24.704C64.3908 24.8222 64.0414 24.9661 63.7958 25.1408C63.4863 25.3601 63.3306 25.6325 63.3306 25.9545C63.3306 26.2183 63.4544 26.4291 63.7 26.5849C63.9256 26.7288 64.1951 26.8008 64.5106 26.8008C64.7762 26.8008 65.0418 26.7562 65.3033 26.6655C65.6008 26.5627 65.8165 26.4291 65.9463 26.2629C65.9722 26.3485 66.0082 26.4308 66.0561 26.5113C66.102 26.5918 66.1559 26.6586 66.2178 26.7134H67.8412V26.5455C67.6575 26.5318 67.5357 26.4633 67.4738 26.3365C67.4318 26.256 67.4099 26.1258 67.4099 25.9477V25.8072ZM65.9463 24.8856C65.9463 25.1905 65.9043 25.4509 65.8205 25.665C65.7007 25.9751 65.501 26.1293 65.2175 26.1293C65.0877 26.1293 64.9839 26.0882 64.91 26.0042C64.8341 25.922 64.7962 25.8243 64.7962 25.713C64.7962 25.5914 64.8421 25.4749 64.9359 25.3601C65.0298 25.2453 65.1416 25.1528 65.2734 25.0809C65.3772 25.0226 65.475 24.9815 65.5669 24.9575C65.6587 24.9319 65.7845 24.9096 65.9463 24.8856Z" fill="#FFCC00"/>
<path fill-rule="evenodd" clip-rule="evenodd" d="M61.969 24.6332C61.6775 24.169 61.332 23.7613 60.9367 23.417L61.336 23.1206C61.5816 22.9459 61.8112 22.8071 62.0249 22.7043C62.2905 22.5724 62.552 22.4919 62.8076 22.4611V22.2932H60.5373V22.4611C60.6252 22.4611 60.709 22.4851 60.7869 22.5313C60.8648 22.5793 60.9047 22.6375 60.9047 22.7095C60.9047 22.7849 60.8348 22.8911 60.6931 23.0247L60.3796 23.2936L59.543 23.9377V23.1669C59.543 22.9151 59.5749 22.7352 59.6408 22.6255C59.7047 22.5159 59.8165 22.4611 59.9743 22.4611L59.9643 22.2932H57.5083V22.4611C57.668 22.4611 57.7819 22.5142 57.8438 22.6187C57.9076 22.7249 57.9376 22.8962 57.9376 23.1343V25.8786C57.9376 26.1253 57.9076 26.3 57.8438 26.4011C57.7819 26.5005 57.668 26.5519 57.5083 26.5519V26.7129H60.0202V26.5519C59.7027 26.5519 59.543 26.3275 59.543 25.8803V24.5031L59.8165 24.2889C59.9882 24.4671 60.128 24.6195 60.2318 24.7446C60.3616 24.9056 60.4734 25.0701 60.5693 25.2345C60.6631 25.4007 60.755 25.5926 60.8468 25.8118C60.9367 26.0328 60.9826 26.2024 60.9826 26.3223C60.9826 26.408 60.9447 26.4713 60.8648 26.5108C60.8089 26.5382 60.727 26.5519 60.6232 26.5519V26.7129H63.2149V26.5519C63.0732 26.5519 62.9554 26.497 62.8615 26.3908C62.7996 26.3189 62.7317 26.1973 62.6578 26.026C62.4342 25.4744 62.2046 25.0118 61.969 24.6332Z" fill="#FFCC00"/>
<path fill-rule="evenodd" clip-rule="evenodd" d="M54.0074 26.6089C54.1852 26.4822 54.273 26.3143 54.273 26.1087C54.273 25.9032 54.1891 25.7387 54.0194 25.6188C53.8497 25.4972 53.642 25.4372 53.3964 25.4372C53.1449 25.4372 52.9352 25.4972 52.7615 25.6188C52.5898 25.7387 52.5039 25.9032 52.5039 26.1087C52.5039 26.3143 52.5878 26.4822 52.7575 26.6089C52.9272 26.7374 53.1329 26.8008 53.3725 26.8008C53.6181 26.8008 53.8297 26.7374 54.0074 26.6089Z" fill="#FFCC00"/>
<path fill-rule="evenodd" clip-rule="evenodd" d="M51.4941 26.4474C51.8854 26.2709 52.0811 26.026 52.0811 25.7125C52.0811 25.2636 51.8136 24.9347 51.2744 24.724C50.8471 24.5544 50.2681 24.4688 49.5373 24.4688V24.2615C49.5373 24.032 49.5573 23.8744 49.6012 23.7836C49.6671 23.6414 49.8068 23.5694 50.0145 23.5694V23.4016H47.6504V23.5694C47.8381 23.5694 47.9619 23.6414 48.0178 23.7836C48.0557 23.8744 48.0737 24.032 48.0737 24.2615V25.8529C48.0737 26.1356 48.0378 26.3206 47.9679 26.4097C47.898 26.5005 47.7922 26.545 47.6504 26.545V26.7129H49.8827C50.5656 26.7129 51.1027 26.6238 51.4941 26.4474ZM50.352 25.1215C50.5337 25.2825 50.6255 25.4743 50.6255 25.6988C50.6255 25.8906 50.5556 26.0448 50.4178 26.1579C50.2801 26.2726 50.1084 26.3292 49.9047 26.3292C49.7549 26.3292 49.6551 26.2966 49.6072 26.2298C49.5613 26.163 49.5373 26.0397 49.5373 25.8598V24.8594C49.8827 24.8594 50.1523 24.9467 50.352 25.1215Z" fill="#FFCC00"/>
<path fill-rule="evenodd" clip-rule="evenodd" d="M46.1087 25.8392V23.8247C46.4322 23.8247 46.6997 23.9103 46.9154 24.0799C47.1071 24.2324 47.2748 24.4671 47.4145 24.7857L47.5803 24.7583L47.2189 23.2936C47.1829 23.3382 47.121 23.369 47.0352 23.3844C46.9493 23.3998 46.8495 23.4084 46.7337 23.4084H43.9462C43.8424 23.4084 43.7586 23.3998 43.6927 23.3844C43.6288 23.369 43.5788 23.3382 43.5469 23.2936L43.1655 24.7583L43.3372 24.7857C43.4311 24.4808 43.5928 24.2444 43.8264 24.0765C44.0581 23.9086 44.3316 23.8247 44.6451 23.8247V25.8392C44.6451 26.139 44.6092 26.3326 44.5393 26.4165C44.4674 26.5022 44.3616 26.545 44.2218 26.545V26.7129H46.4921V26.545C46.2824 26.545 46.1606 26.4439 46.1247 26.2435C46.1127 26.1853 46.1087 26.0499 46.1087 25.8392Z" fill="#FFCC00"/>
<path fill-rule="evenodd" clip-rule="evenodd" d="M40.604 24.9335C40.604 24.7759 40.634 24.6235 40.6939 24.4727C40.7558 24.3237 40.8456 24.1969 40.9654 24.0941C41.0593 24.0136 41.1711 23.9468 41.3009 23.8954C41.4326 23.844 41.5604 23.8183 41.6862 23.8183C41.9358 23.8183 42.1634 23.9057 42.3671 24.0804C42.5548 24.2415 42.6806 24.4316 42.7425 24.6509L42.9062 24.6183L42.5548 23.2804C42.5288 23.3216 42.4889 23.3507 42.437 23.3678C42.3851 23.3866 42.3292 23.3952 42.2733 23.3952L42.0536 23.3747L41.239 23.3147C40.602 23.3147 40.0849 23.4517 39.6895 23.7258C39.2562 24.0222 39.0386 24.4367 39.0386 24.9661C39.0386 25.5519 39.2842 26.011 39.7754 26.3485C40.2246 26.6586 40.7937 26.8145 41.4826 26.8145L41.9358 26.7819L42.0916 26.7562C42.1555 26.7459 42.2273 26.7408 42.3112 26.7408C42.3791 26.7408 42.439 26.7442 42.4909 26.7528C42.5428 26.7631 42.5927 26.7819 42.6407 26.8145L43.1957 25.6325L43.048 25.5708C42.9282 25.7729 42.7605 25.9357 42.5468 26.059C42.3312 26.1823 42.0976 26.244 41.842 26.244C41.4666 26.244 41.1611 26.1018 40.9255 25.8192C40.7118 25.5639 40.604 25.2693 40.604 24.9335Z" fill="#FFCC00"/>
<path fill-rule="evenodd" clip-rule="evenodd" d="M38.7111 25.0672C38.7111 24.5087 38.4855 24.0685 38.0362 23.7516C37.6249 23.4604 37.0898 23.3147 36.4329 23.3147C35.758 23.3147 35.1969 23.4706 34.7496 23.7841C34.2684 24.1199 34.0288 24.5704 34.0288 25.1357C34.0288 25.4029 34.0907 25.6565 34.2165 25.8946C34.3423 26.131 34.524 26.316 34.7656 26.4513C34.9832 26.5764 35.2308 26.6655 35.5044 26.7203C35.7779 26.7734 36.0635 26.8008 36.361 26.8008C37.0139 26.8008 37.559 26.6552 37.9983 26.364C38.4735 26.0453 38.7111 25.6136 38.7111 25.0672ZM37.1018 24.6578C37.1297 24.8239 37.1437 24.9918 37.1437 25.1614C37.1437 25.283 37.1297 25.4149 37.1018 25.5588C37.0718 25.701 37.0359 25.8192 36.9879 25.9134C36.93 26.0213 36.8602 26.107 36.7763 26.1687C36.6725 26.2492 36.5626 26.2886 36.4468 26.2834C36.1393 26.2834 35.9097 26.1104 35.758 25.7661C35.6481 25.5194 35.5942 25.2402 35.5942 24.9267C35.5942 24.6492 35.6422 24.4145 35.736 24.2209C35.8618 23.9571 36.0635 23.8252 36.345 23.8252C36.4768 23.8252 36.5986 23.8663 36.7144 23.9469C36.8082 24.0137 36.8881 24.1079 36.956 24.2278C37.0239 24.3494 37.0718 24.4916 37.1018 24.6578Z" fill="#FFCC00"/>
<path fill-rule="evenodd" clip-rule="evenodd" d="M33.2776 26.0003V24.1142C33.2776 23.751 33.4173 23.5694 33.6989 23.5694V23.4016H31.4446V23.5694C31.5863 23.5694 31.6822 23.6123 31.7341 23.6996C31.786 23.787 31.812 23.9257 31.812 24.1142V24.4362H30.7477V24.1142C30.7477 23.9257 30.7737 23.787 30.8256 23.6996C30.8775 23.6123 30.9754 23.5694 31.1151 23.5694V23.4016H28.8608V23.5694C29.1424 23.5694 29.2841 23.751 29.2841 24.1142V26.0003C29.2841 26.3634 29.1424 26.545 28.8608 26.545V26.7129H31.1151V26.545C30.9754 26.545 30.8775 26.5005 30.8256 26.4131C30.7737 26.3275 30.7477 26.1887 30.7477 26.0003V24.8662H31.812V26.0003C31.812 26.1887 31.786 26.3275 31.7341 26.4131C31.6822 26.5005 31.5863 26.545 31.4446 26.545V26.7129H33.6989V26.545C33.4173 26.545 33.2776 26.3634 33.2776 26.0003Z" fill="#FFCC00"/>
<path fill-rule="evenodd" clip-rule="evenodd" d="M27.7809 25.3356C27.6552 25.13 27.5194 24.9347 27.3736 24.7514C27.2638 24.6178 27.1081 24.438 26.9044 24.2135L27.0462 24.1073C27.2638 23.9463 27.5034 23.8161 27.761 23.7168C28.0206 23.6191 28.2801 23.5694 28.5397 23.5694V23.4016H26.3173V23.5694C26.3912 23.5694 26.4571 23.5866 26.521 23.6191C26.5829 23.6534 26.6149 23.6996 26.6149 23.7579C26.6149 23.7887 26.5709 23.8555 26.4851 23.9549C26.3992 24.0559 26.2854 24.1707 26.1456 24.3009L25.6684 24.7446V24.1142C25.6684 23.9429 25.6824 23.823 25.7143 23.751C25.7663 23.6294 25.8741 23.5694 26.0358 23.5694V23.4016H23.8354V23.5694C24.0031 23.5694 24.111 23.6294 24.1649 23.751C24.1908 23.8127 24.2028 23.9343 24.2028 24.1142V24.7446L23.7256 24.3009C23.6258 24.2067 23.5379 24.1193 23.46 24.0388C23.3243 23.8966 23.2564 23.8024 23.2564 23.7579C23.2564 23.6945 23.2863 23.6482 23.3462 23.6157C23.4061 23.5848 23.476 23.5694 23.5539 23.5694V23.4016H21.3295V23.5694C21.5811 23.5694 21.8407 23.6208 22.1083 23.7236C22.3778 23.8264 22.6174 23.9549 22.8251 24.1073L22.9668 24.2135C22.7831 24.4105 22.6274 24.5921 22.4956 24.7583C22.3359 24.9639 22.1981 25.1574 22.0903 25.3356L21.8008 25.8255C21.627 26.1082 21.5332 26.2589 21.5172 26.2761C21.3775 26.4559 21.2257 26.545 21.064 26.545V26.7129H23.6158V26.545C23.4021 26.545 23.2943 26.4559 23.2943 26.2761C23.2943 26.115 23.3702 25.8975 23.5219 25.6217C23.6737 25.3459 23.8194 25.1386 23.9612 24.9998L24.2028 25.1951V25.7998C24.2028 26.0585 24.1868 26.2367 24.1569 26.3292C24.109 26.4731 24.0031 26.545 23.8354 26.545V26.7129H26.0358V26.545C25.904 26.545 25.8102 26.5022 25.7523 26.4165C25.6964 26.3326 25.6684 26.1253 25.6684 25.7998V25.1951L25.91 24.9998C26.0618 25.1574 26.2095 25.3664 26.3553 25.632C26.503 25.8958 26.5749 26.1099 26.5749 26.2761C26.5749 26.4559 26.4791 26.545 26.2854 26.545V26.7129H28.8073V26.545C28.6395 26.545 28.4858 26.4559 28.346 26.2761C28.3141 26.2401 28.2222 26.0911 28.0705 25.8255L27.7809 25.3356Z" fill="#FFCC00"/>
<path fill-rule="evenodd" clip-rule="evenodd" d="M21.0801 24.6578C20.9902 24.2141 20.7486 23.8749 20.3513 23.6368C19.9859 23.4227 19.5327 23.3147 18.9896 23.3147C18.3366 23.3147 17.7935 23.4604 17.3602 23.7516C16.885 24.0685 16.6494 24.4967 16.6494 25.0346C16.6494 25.3121 16.7193 25.5691 16.8611 25.8072C17.0008 26.0436 17.1985 26.244 17.4541 26.4051C17.6737 26.5438 17.9253 26.6432 18.2068 26.7066C18.4884 26.7699 18.7799 26.8008 19.0834 26.8008C19.2391 26.8008 19.4049 26.7922 19.5766 26.7734C19.7483 26.7562 19.916 26.7357 20.0778 26.7134L20.2495 26.6929C20.3014 26.6929 20.3573 26.7066 20.4152 26.734L20.5011 26.7802L20.9863 25.4903L20.8205 25.4372C20.7007 25.6839 20.521 25.8792 20.2774 26.0248C20.0338 26.1704 19.7603 26.244 19.4508 26.244C19.1014 26.244 18.8198 26.131 18.6062 25.9066C18.4185 25.7147 18.3027 25.4612 18.2608 25.1477L21.0801 24.6578ZM19.333 24C19.4548 24.1113 19.5147 24.2449 19.5147 24.4025V24.5156L18.2128 24.7349C18.2128 24.5036 18.2608 24.3066 18.3546 24.1473C18.4764 23.9366 18.6521 23.8321 18.8877 23.8321C19.0654 23.8321 19.2132 23.8886 19.333 24Z" fill="#FFCC00"/>
<path fill-rule="evenodd" clip-rule="evenodd" d="M15.8964 26.0004V24.2616C15.8964 24.0149 15.9124 23.8539 15.9444 23.7785C15.9963 23.6432 16.1221 23.5764 16.3197 23.5764V23.4017H12.8994V23.5764C13.0132 23.5764 13.0711 23.6141 13.0711 23.6912C13.0711 23.7477 13.0431 23.806 12.9852 23.8659C12.6498 24.1743 12.3842 24.5408 12.1865 24.9657C12.0408 25.2792 11.9329 25.6338 11.8651 26.0278C11.8451 26.1631 11.8012 26.2762 11.7353 26.3704C11.6714 26.4646 11.5935 26.5109 11.5056 26.5109C11.4537 26.5109 11.3978 26.4903 11.3399 26.4509L11.3239 26.5177C11.3679 26.5314 11.4178 26.54 11.4737 26.5451V26.713H11.274L10.9565 27.9824L11.1223 28.0098C11.2321 27.6517 11.4258 27.3571 11.7073 27.1293C12.0468 26.8517 12.4741 26.713 12.9852 26.713H14.6445C15.0458 26.713 15.3913 26.7986 15.6788 26.9682C16.0122 27.1652 16.2878 27.5113 16.5074 28.0098L16.6652 27.9824L16.3197 26.444C16.2518 26.48 16.1939 26.4971 16.148 26.4971C16.0582 26.4971 15.9943 26.4526 15.9563 26.3601C15.9164 26.2676 15.8964 26.1477 15.8964 26.0004ZM14.4328 26.0209C14.4328 26.1323 14.4029 26.2128 14.339 26.2625C14.2771 26.3121 14.1233 26.3361 13.8777 26.3361H13.2508C13.0431 26.3361 12.9073 26.3327 12.8434 26.3224C12.6757 26.3001 12.5939 26.2042 12.5939 26.0346C12.5939 25.6218 12.6737 25.2312 12.8315 24.8629C12.9912 24.4929 13.1949 24.2119 13.4465 24.0184C13.5563 23.9293 13.6641 23.8642 13.7719 23.8214C13.8777 23.7785 14.0075 23.758 14.1593 23.758C14.2791 23.758 14.355 23.7905 14.3849 23.8556C14.4169 23.9207 14.4328 24.0561 14.4328 24.2616V26.0209Z" fill="#FFCC00"/>
<path fill-rule="evenodd" clip-rule="evenodd" d="M11.0427 24.5841C11.0427 24.3374 11.0287 24.1524 10.9967 24.0274C10.9448 23.8201 10.841 23.6676 10.6873 23.5666C10.5335 23.4655 10.3578 23.3987 10.1581 23.3644C9.96044 23.3319 9.7388 23.3147 9.4932 23.3147C9.3115 23.3147 9.12381 23.3267 8.93412 23.349C8.74243 23.3713 8.44891 23.4192 8.05156 23.4963L7.89581 23.5237C7.83791 23.5323 7.78599 23.5357 7.74007 23.5357C7.68216 23.5357 7.63624 23.5272 7.60229 23.51C7.56835 23.4912 7.52841 23.4621 7.48049 23.4227L7.32474 24.6372H7.48049C7.60629 24.3871 7.79198 24.1884 8.03558 24.0428C8.27919 23.8989 8.55673 23.8252 8.87222 23.8252C8.99801 23.8252 9.10983 23.8372 9.20967 23.8612C9.3095 23.8869 9.39536 23.9332 9.46924 24C9.51716 24.0445 9.54711 24.0925 9.55909 24.1404C9.57307 24.1901 9.57906 24.2518 9.57906 24.3289V24.5036C9.15975 24.5567 8.79434 24.6235 8.47886 24.704C8.0236 24.8222 7.67417 24.9661 7.42858 25.1408C7.11908 25.3601 6.96533 25.6325 6.96533 25.9545C6.96533 26.2183 7.08713 26.4291 7.33473 26.5849C7.55836 26.7288 7.82792 26.8008 8.14341 26.8008C8.40897 26.8008 8.67454 26.7562 8.93611 26.6655C9.23363 26.5627 9.44927 26.4291 9.57906 26.2629C9.60502 26.3485 9.64096 26.4308 9.68888 26.5113C9.73481 26.5918 9.78872 26.6586 9.85262 26.7134H11.2743L11.3242 26.5181C11.2224 26.4839 11.1505 26.4239 11.1066 26.3365C11.0646 26.256 11.0427 26.1258 11.0427 25.9477V24.5841ZM9.57906 24.8856C9.57906 25.1905 9.53713 25.4509 9.45327 25.665C9.33346 25.9751 9.13379 26.1293 8.85225 26.1293C8.72046 26.1293 8.61663 26.0882 8.54275 26.0042C8.46688 25.922 8.42894 25.8243 8.42894 25.713C8.42894 25.5914 8.47487 25.4749 8.56871 25.3601C8.66256 25.2453 8.77637 25.1528 8.90616 25.0809C9.00999 25.0226 9.10783 24.9815 9.19968 24.9575C9.29153 24.9319 9.41733 24.9096 9.57906 24.8856Z" fill="#FFCC00"/>
<path fill-rule="evenodd" clip-rule="evenodd" d="M6.17987 25.8735V23.1326C6.17987 22.8859 6.21182 22.7129 6.27571 22.6118C6.33761 22.5108 6.44943 22.4611 6.61116 22.4611V22.2932H4.11327V22.4611C4.277 22.4611 4.39281 22.5142 4.46669 22.6221C4.53857 22.73 4.57651 22.8996 4.57651 23.1326V23.4958H3.01707V23.1326C3.01707 22.8911 3.05501 22.7181 3.12689 22.6153C3.20077 22.5125 3.31858 22.4611 3.48031 22.4611V22.2932H0.982422V22.4611C1.26995 22.4611 1.41371 22.6889 1.41371 23.1463V25.8735C1.41371 26.1202 1.38176 26.2932 1.31987 26.3943C1.25597 26.4936 1.14416 26.545 0.982422 26.545V26.7129H3.48031V26.545C3.3026 26.545 3.1808 26.4902 3.11491 26.384C3.05102 26.2761 3.01707 26.0945 3.01707 25.8392V23.9377H4.57651V25.8392C4.57651 26.0945 4.54256 26.2761 4.47468 26.384C4.40679 26.4902 4.28698 26.545 4.11327 26.545V26.7129H6.61116V26.545C6.44943 26.545 6.33761 26.4919 6.27571 26.3874C6.21182 26.2812 6.17987 26.1099 6.17987 25.8735Z" fill="#FFCC00"/>
</svg>
