<svg width="18" height="18" viewBox="0 0 18 18" fill="none" xmlns="http://www.w3.org/2000/svg"><path fill-rule="evenodd" clip-rule="evenodd" d="M8.02 17.944a1.654 1.654 0 01-.747-.439c-.332-.326-.488-.72-.488-1.23v-.305l-.307-.116a11.28 11.28 0 01-.57-.234l-.261-.119-.196.191c-.49.48-1.07.652-1.671.495-.359-.093-.564-.24-1.146-.822s-.729-.787-.822-1.146c-.156-.6.016-1.18.494-1.67l.19-.194-.154-.35a12.57 12.57 0 01-.233-.57l-.08-.22h-.305c-.509 0-.9-.156-1.235-.49C.08 10.315 0 10.033 0 9c0-1.036.077-1.305.494-1.728.327-.33.721-.487 1.23-.487h.306l.115-.308c.064-.169.17-.425.235-.569l.118-.261-.191-.196a2.725 2.725 0 01-.301-.371 1.686 1.686 0 01-.03-1.703c.149-.263 1.138-1.252 1.4-1.4a1.697 1.697 0 011.63-.016c.098.053.283.194.411.315l.234.22.347-.152c.191-.084.447-.189.567-.233l.22-.08v-.306c0-.51.156-.904.488-1.231C7.695.077 7.964 0 9 0c1.034 0 1.316.08 1.726.49.334.334.489.725.489 1.235v.305l.22.08c.12.045.376.15.567.234l.347.152.234-.22c.128-.12.313-.262.41-.315a1.72 1.72 0 011.612 0c.236.126 1.263 1.152 1.416 1.414.285.488.292 1.122.018 1.63a2.512 2.512 0 01-.315.412l-.22.234.152.347c.084.191.189.446.233.567l.08.22h.304c.52.001.902.152 1.233.487.417.423.494.692.494 1.728s-.077 1.304-.494 1.727c-.331.336-.712.486-1.233.487h-.303l-.081.22c-.044.12-.15.376-.233.567l-.152.347.22.234c.12.129.262.314.315.411a1.698 1.698 0 01-.015 1.63c-.147.259-1.174 1.285-1.42 1.415a1.708 1.708 0 01-1.684-.045 2.732 2.732 0 01-.371-.3l-.196-.192-.261.119c-.144.065-.4.17-.57.234l-.307.116v.305c0 .51-.155.9-.49 1.235-.22.22-.46.357-.765.437-.279.072-1.667.07-1.94-.003zm1.813-1.073a.552.552 0 00.24-.223c.082-.14.087-.18.087-.646 0-.554.044-.733.206-.844.051-.035.299-.131.55-.213.251-.083.678-.26.95-.394.27-.134.527-.243.572-.243.168 0 .347.118.69.455.365.36.467.424.67.424.213 0 .31-.067.804-.556.498-.492.585-.616.585-.83 0-.207-.063-.307-.423-.674-.339-.345-.455-.522-.455-.693 0-.046.11-.305.245-.577a9.01 9.01 0 00.393-.946c.081-.249.176-.494.211-.545.111-.162.29-.206.845-.206.466 0 .506-.006.646-.088.263-.154.296-.273.296-1.072 0-.8-.033-.919-.296-1.073-.14-.082-.18-.088-.646-.088-.554 0-.734-.043-.845-.206-.035-.05-.13-.296-.211-.544a8.687 8.687 0 00-.393-.947c-.135-.271-.245-.531-.245-.577 0-.171.116-.348.455-.693.359-.365.424-.467.424-.671 0-.21-.068-.307-.554-.798-.497-.502-.621-.59-.83-.59-.21 0-.309.062-.676.423-.347.34-.522.455-.696.455-.048 0-.305-.11-.573-.243a8.367 8.367 0 00-.943-.393 4.081 4.081 0 01-.55-.213c-.162-.112-.206-.291-.206-.845 0-.466-.005-.506-.087-.646-.155-.263-.274-.296-1.073-.296-.8 0-.918.033-1.073.296-.082.14-.087.18-.087.646 0 .554-.044.734-.206.844-.051.035-.299.132-.55.215a8.87 8.87 0 00-.946.393c-.27.133-.527.242-.573.242-.17 0-.348-.116-.693-.455-.366-.36-.467-.424-.674-.424-.214 0-.337.088-.83.586-.488.493-.555.59-.555.803 0 .204.064.306.423.671.339.345.455.522.455.693 0 .046-.11.306-.245.577a8.695 8.695 0 00-.393.947c-.081.248-.176.493-.211.544-.111.163-.29.206-.844.206-.467 0-.507.006-.647.088-.263.154-.296.274-.296 1.073 0 .799.033.918.296 1.072.14.082.18.088.647.088.553 0 .733.043.844.206.035.05.13.298.213.55.082.25.259.677.393.946.134.269.243.527.243.572 0 .171-.116.349-.455.693-.36.367-.424.467-.424.675 0 .213.088.337.586.83.493.488.59.555.803.555.204 0 .306-.065.671-.424.345-.339.522-.455.693-.455.046 0 .306.11.578.245.271.134.697.311.946.393.249.082.494.177.545.212.162.11.206.29.206.844 0 .465.005.506.087.645a.565.565 0 00.237.223c.138.068.209.075.834.075.622 0 .697-.007.835-.074zM8.21 12.832a3.95 3.95 0 01-2.998-2.84c-.084-.312-.092-.4-.092-.992 0-.593.008-.681.092-.992a3.982 3.982 0 012.797-2.797c.311-.084.4-.092.992-.092s.68.008.992.092a3.98 3.98 0 012.797 2.797c.084.31.092.4.092.992s-.008.68-.092.991A3.965 3.965 0 0110 12.783c-.486.129-1.32.151-1.792.05zm1.45-1.055A2.827 2.827 0 0011.846 9 2.818 2.818 0 009 6.153c-.786 0-1.46.277-2.018.83a2.855 2.855 0 00-.373 3.575 2.927 2.927 0 001.773 1.235 3.54 3.54 0 001.276-.016z" fill="#212A4D"/></svg>