<svg width="18" height="18" viewBox="0 0 18 18" fill="none" xmlns="http://www.w3.org/2000/svg"><path d="M8.935 9.699h.119c1.092-.019 1.976-.403 2.628-1.137 1.435-1.618 1.197-4.39 1.17-4.656C12.76 1.92 11.82.97 11.045.526 10.467.194 9.792.015 9.039 0h-.063C8.562 0 7.75.067 6.97.51c-.782.444-1.737 1.395-1.83 3.396-.026.265-.264 3.038 1.17 4.656.65.734 1.533 1.118 2.625 1.137zm-2.8-5.7c0-.01.004-.022.004-.03.123-2.672 2.02-2.959 2.833-2.959h.045c1.006.023 2.717.433 2.833 2.96 0 .01 0 .022.004.03.003.026.264 2.56-.921 3.895-.47.53-1.096.79-1.92.797h-.038c-.82-.007-1.45-.268-1.915-.797C5.878 6.568 6.132 4.022 6.136 4z" fill="#fff"/><path d="M16.654 14.299v-.011c0-.03-.003-.06-.003-.094-.023-.738-.071-2.464-1.689-3.015l-.037-.011c-1.681-.43-3.079-1.398-3.094-1.41a.503.503 0 10-.578.824c.064.045 1.547 1.078 3.403 1.555.869.31.966 1.237.992 2.087 0 .034 0 .063.004.093.004.336-.019.854-.079 1.152-.603.343-2.97 1.528-6.571 1.528-3.586 0-5.968-1.189-6.575-1.532-.06-.298-.086-.816-.079-1.151 0-.03.004-.06.004-.094.026-.85.123-1.778.992-2.087 1.856-.477 3.34-1.513 3.403-1.554a.503.503 0 10-.578-.824c-.015.011-1.405.98-3.094 1.409a.472.472 0 00-.037.011c-1.618.555-1.666 2.281-1.689 3.016 0 .033 0 .063-.003.093v.011c-.004.194-.008 1.189.19 1.688a.478.478 0 00.194.235C1.84 16.293 4.52 18 9.006 18c4.484 0 7.164-1.71 7.276-1.782a.499.499 0 00.194-.235c.186-.495.182-1.49.178-1.684z" fill="#fff"/></svg>