<svg width="14" height="14" viewBox="0 0 14 14" fill="none" xmlns="http://www.w3.org/2000/svg"><path fill-rule="evenodd" clip-rule="evenodd" d="M8.57.339a.568.568 0 00-.632.507.573.573 0 00.505.633 4.608 4.608 0 014.084 4.092.571.571 0 101.136-.128A5.744 5.744 0 008.57.34zm.042 2.321a.575.575 0 00-.218 1.127c.93.181 1.647.9 1.83 1.833a.573.573 0 00.67.454.577.577 0 00.451-.674 3.45 3.45 0 00-2.733-2.74zm1.055 6.4c.3-.173.64-.37 1.07-.278.388.082 1.712 1.157 2.074 1.529.238.244.37.496.39.747.037.988-1.306 2.116-1.55 2.257a1.884 1.884 0 01-1.127.352c-.434 0-.917-.124-1.444-.37C6.22 12.104 1.85 7.821.695 4.983.215 3.926.212 3.055.687 2.4.877 2.093 1.955.809 2.921.85c.257.021.507.153.752.393.37.363 1.418 1.691 1.499 2.08.09.434-.107.778-.281 1.08a5.117 5.117 0 01-.143.227c-.209.321-.486.748-.388 1.02.704 1.73 2.332 3.24 4.062 3.948.268.097.694-.182 1.014-.392.083-.055.16-.104.224-.142l.007-.004z" fill="#B5C5D4"/></svg>