<svg width="16" height="16" viewBox="0 0 16 16" fill="none" xmlns="http://www.w3.org/2000/svg"><path fill-rule="evenodd" clip-rule="evenodd" d="M13.293.061a1.578 1.578 0 00-.574.26C12.58.416 5.452 7.544 5.331 7.71c-.066.09-1.029 3.526-1.028 3.67 0 .177.204.378.382.378.137 0 3.561-.971 3.648-1.035.046-.034 1.698-1.686 3.672-3.671 2.62-2.637 3.622-3.665 3.716-3.813a1.88 1.88 0 00.255-1.278 2.195 2.195 0 00-.165-.485c-.114-.24-.173-.312-.57-.71-.396-.4-.468-.458-.707-.572-.422-.203-.815-.245-1.241-.133zm.908.854c.17.087.806.727.9.907.063.12.074.188.074.44 0 .38-.057.502-.412.877l-.256.271-.948-.953-.95-.954.277-.263A2.45 2.45 0 0113.3.91c.27-.132.635-.13.9.005zm-12.715.706a2.017 2.017 0 00-1.39 1.3L0 3.19v5.58c0 5.325.003 5.59.057 5.769.116.375.242.585.521.868.197.199.326.3.494.383.456.23.008.215 6.61.206l5.93-.01.21-.082c.615-.24 1.05-.685 1.253-1.285.068-.201.07-.233.079-2.232.009-1.822.005-2.038-.04-2.125a.39.39 0 00-.358-.202c-.103 0-.152.022-.246.108l-.117.107-.015 1.991c-.016 1.984-.016 1.992-.087 2.17-.13.32-.37.563-.69.693l-.178.072-5.74.008c-3.788.006-5.798-.002-5.911-.023a1.213 1.213 0 01-.869-.67l-.09-.196V3.253l.091-.198c.116-.25.382-.506.636-.61l.181-.073 1.971-.015c2.202-.018 2.079-.004 2.19-.241.073-.153.04-.299-.096-.436l-.109-.11-2.01.003c-1.668.001-2.038.01-2.18.048zm11.515 1.412l.923.927-2.918 2.932L8.09 9.824l-.923-.927c-.508-.51-.924-.942-.924-.96 0-.04 5.764-5.832 5.805-5.832.017 0 .447.418.954.928zM7.3 10.215c-.114.038-2.01.563-2.016.558-.003-.004.092-.36.211-.792.12-.432.247-.897.284-1.033l.066-.247.747.75c.412.414.73.756.708.764z" fill="#000"/></svg>