<svg width="22" height="22" viewBox="0 0 22 22" fill="none" xmlns="http://www.w3.org/2000/svg"><g clip-path="url(#clip0_126:491)" fill="#fff"><path d="M18.79 23.51h-.643V7.705c0-1.05-.854-1.905-1.904-1.905H4.542v-.586c0-.67.544-1.215 1.215-1.215h13.031c.671 0 1.216.544 1.216 1.215v17.08c0 .67-.543 1.214-1.213 1.214z"/><path d="M9.725 6.49h6.515c.67 0 1.215.545 1.215 1.216v17.079c0 .67-.544 1.215-1.215 1.215H7.558v-.402a1.08 1.08 0 00.007-.129V22.14c0-.944-.767-1.711-1.712-1.711H2.525c-.035 0-.072.002-.106.004h-.423V7.706c0-.671.545-1.216 1.215-1.216h6.513zm.245 4.131H5.722a.575.575 0 000 1.149h4.25a.574.574 0 10-.002-1.149zm4.25 2.932H5.723a.575.575 0 000 1.148h8.499a.575.575 0 000-1.148zm-8.498 4.261h8.499a.575.575 0 000-1.148H5.723a.575.575 0 000 1.148z"/><path d="M2.525 21.118h3.338a1.02 1.02 0 011.01 1.01v3.342a.511.511 0 01-.872.36l-3.84-3.838a.512.512 0 01.364-.873z"/></g><defs><clipPath id="clip0_126:491"><path fill="#fff" transform="matrix(1 0 0 -1 0 22)" d="M0 0h22v22H0z"/></clipPath></defs></svg>