<svg width="15" height="18" viewBox="0 0 15 18" fill="none" xmlns="http://www.w3.org/2000/svg"><path fill-rule="evenodd" clip-rule="evenodd" d="M7.29.024c-.047.017-1.633.682-3.525 1.48C1.075 2.638.303 2.977.215 3.064c-.23.225-.225.155-.208 2.689.016 2.365.028 2.601.182 3.43a11.916 11.916 0 003.22 6.202c1 1.014 2.109 1.792 3.447 2.42.37.173.442.195.643.195.2 0 .274-.022.654-.199 3.907-1.81 6.479-5.549 6.813-9.9.02-.25.034-1.359.034-2.465 0-1.882-.005-2.02-.065-2.152a.913.913 0 00-.166-.238c-.07-.066-1.175-.549-3.573-1.56C7.651-.009 7.521-.058 7.291.024zm3.283 2.725l3.021 1.276-.002 1.971c-.001 1.865-.006 2-.08 2.483-.042.28-.115.677-.161.88-.694 3.065-2.718 5.65-5.5 7.025l-.356.176-.458-.235a10.385 10.385 0 01-5.44-7.184c-.178-.881-.193-1.122-.193-3.18V4.027L4.425 2.75C6.087 2.049 7.47 1.475 7.5 1.475c.029 0 1.412.573 3.074 1.274zM9.93 6.245c-.076.033-.697.636-1.658 1.609L6.736 9.41l-.773-.778c-.628-.63-.805-.789-.938-.84-.527-.2-1.044.298-.895.863.037.14.159.278 1.089 1.226.576.587 1.102 1.101 1.169 1.144.155.098.482.106.66.015.068-.034.945-.897 1.95-1.92 1.686-1.715 1.828-1.87 1.869-2.022.154-.582-.4-1.087-.937-.853z" fill="#212A4D"/></svg>