<svg width="102" height="33" viewBox="0 0 102 33" fill="none" xmlns="http://www.w3.org/2000/svg"><path d="M44.894 26c2.899 0 4.653-1.211 5.87-3.004l-3.093-2.229c-.73.848-1.437 1.357-2.533 1.357-1.56 0-2.631-1.284-2.631-2.98v-.048c0-1.6 1.096-2.908 2.582-2.908 1.12 0 1.827.51 2.46 1.381l3.143-2.325c-1.12-1.769-2.923-2.932-5.627-2.932-4.166 0-7.065 3.125-7.065 6.832v.049C38 22.898 40.923 26 44.894 26zm11.287-.024c1.73 0 2.972-.654 3.873-1.648v1.357h4.58v-7.534c0-1.841-.414-3.198-1.413-4.167-1.047-1.042-2.655-1.6-5.018-1.6-2.266 0-3.85.413-5.335 1.018l.95 3.247c1.17-.46 2.241-.727 3.63-.727 1.778 0 2.63.775 2.63 2.132v.218c-.755-.267-1.948-.509-3.166-.509-3.094 0-5.165 1.405-5.165 4.119v.048c0 2.616 1.925 4.046 4.434 4.046zm1.657-2.883c-.95 0-1.633-.533-1.633-1.43v-.048c0-.969.78-1.623 2.12-1.623.682 0 1.34.145 1.802.34v.605c0 1.308-.95 2.156-2.29 2.156zm9.15 2.592h4.628v-7.098c0-1.43.829-2.205 1.95-2.205 1.096 0 1.85.775 1.85 2.205v7.098h4.63V17.11c0-2.98-1.682-4.821-4.483-4.821-1.876 0-3.094 1.042-3.947 2.132V12.58h-4.628v13.106zm19.227.097h4.214l5.262-13.203h-4.8l-2.533 7.655-2.533-7.655h-4.872l5.261 13.203zm10.962-14.39H102V8h-4.823v3.392zm.097 14.293h4.629V12.58h-4.629v13.106z" fill="#212A4D"/><rect width="34" height="33" rx="10" fill="#0C9"/><path d="M16.95 26c4.884 0 8.05-2.5 8.05-8.205V8h-4.834v9.947c0 2.474-1.252 3.635-3.166 3.635s-3.166-1.212-3.166-3.762V8H9v9.922C9 23.45 12.068 26 16.95 26z" fill="#fff"/></svg>