<svg width="18" height="18" viewBox="0 0 18 18" fill="none" xmlns="http://www.w3.org/2000/svg"><path d="M16.128 14.844l-.804-10.13a1.266 1.266 0 00-1.257-1.163H12.48v-.072A3.484 3.484 0 009 0a3.483 3.483 0 00-3.48 3.48v.07H3.934c-.654 0-1.206.512-1.256 1.163l-.804 10.132a2.94 2.94 0 00.772 2.216 2.94 2.94 0 002.15.939h8.41a2.94 2.94 0 002.15-.94 2.94 2.94 0 00.773-2.216zM6.575 3.479A2.428 2.428 0 019 1.054a2.428 2.428 0 012.425 2.425v.072h-4.85v-.072zm8.007 12.865c-.36.388-.848.602-1.377.602h-8.41a1.857 1.857 0 01-1.377-.602 1.856 1.856 0 01-.494-1.417l.804-10.132a.207.207 0 01.205-.19h1.588v1.299a.527.527 0 001.054 0V4.605h4.85v1.299a.527.527 0 001.055 0V4.605h1.587c.107 0 .197.084.206.192l.803 10.129c.04.527-.135 1.03-.494 1.418z" fill="#212A4D"/><path d="M11.373 8.94a.527.527 0 00-.745 0l-2.354 2.354-.905-.906a.527.527 0 10-.746.746l1.278 1.278a.526.526 0 00.745 0l2.727-2.727a.527.527 0 000-.745z" fill="#212A4D"/></svg>