<svg width="18" height="18" viewBox="0 0 18 18" fill="none" xmlns="http://www.w3.org/2000/svg"><g clip-path="url(#clip0_96:536)"><path d="M13.568 3.584a.013.013 0 00-.02 0l-.16.163-.062-.062a.013.013 0 00-.02 0 .014.014 0 000 .019l.072.072a.013.013 0 00.019 0l.17-.172a.014.014 0 000-.02z" fill="#fff"/><path fill-rule="evenodd" clip-rule="evenodd" d="M3.312 2.195a1.738 1.738 0 00-1.105.899c-.203.417-.19-.005-.19 5.976 0 4.609.006 5.394.04 5.558.13.631.633 1.155 1.265 1.319.2.051.309.053 2.939.053h2.731l.137-.069c.193-.097.285-.244.298-.474a.533.533 0 00-.234-.503l-.114-.082-2.745-.013-2.746-.014-.107-.058a.545.545 0 01-.268-.288c-.037-.09-.041-.681-.041-5.429s.004-5.34.041-5.429a.545.545 0 01.268-.287l.107-.059 2.746-.013 2.745-.014.114-.081a.533.533 0 00.234-.503c-.013-.231-.105-.377-.298-.475l-.137-.069-2.742.002c-2.61.001-2.752.004-2.938.053zm8.26 2.852c-.364.118-.527.562-.316.864.039.056.621.652 1.294 1.324a91.765 91.765 0 011.231 1.243c.005.012-1.513.021-3.373.021H7.026l-.119.062a.57.57 0 00-.3.638.593.593 0 00.3.38l.119.062h3.382c1.86 0 3.378.01 3.373.02-.005.012-.559.572-1.231 1.244-.673.672-1.255 1.268-1.294 1.325-.328.47.227 1.084.738.817.108-.056 3.663-3.608 3.721-3.718.059-.11.059-.408 0-.518-.06-.112-3.615-3.662-3.725-3.72a.676.676 0 00-.417-.044z" fill="#212A4D"/></g><defs><clipPath id="clip0_96:536"><path fill="#fff" d="M0 0h18v18H0z"/></clipPath></defs></svg>