<svg width="310" height="53" viewBox="0 0 310 53" fill="none" xmlns="http://www.w3.org/2000/svg"><path d="M128.61 16.136l-3.974-5.167h-23.529v27.423h23.052l4.371-5.882.08-16.374zm-5.485 17.01h-16.453v-17.01h16.453v17.01zm21.939-22.176h-5.484v27.502h5.484V10.969zm55.005 0h-5.485v27.502h5.485V10.969zm-16.454 5.245V10.97h-23.607l-3.895 5.246v17.01l3.815 5.167h19.713l3.974-5.166V21.939h-16.533v5.246h10.969v6.04h-16.454v-17.01h22.018zm54.926-5.245h-27.502v5.166h11.048v22.256h5.485V16.136h10.969v-5.167zM288.3 33.305V10.97h-5.485v22.336l3.816 5.087H310v-5.087h-21.7zM253.405 10.97l-3.895 5.166h16.533v5.803H249.51v-5.803l-5.485 7.313v14.943h5.485V27.185h16.533v11.207h5.485V10.97h-18.123zM0 52.144h9.38l14.466-19.236h-9.38L0 52.144zM54.529 35.61L69.71 15.261c1.43-2.066 2.543-3.815 2.543-6.279C72.254 4.054 68.28 0 63.352 0H48.329L33.94 19.315h9.38L55.64 2.782h4.531c2.623.159 4.372 2.305 4.372 5.008 0 .318 0 .636-.08.954a4.332 4.332 0 01-.953 1.907L43.082 37.995 22.495 10.89h-9.38l20.826 27.502h42.367l2.067-2.702H54.529v-.08z" fill="#31312F"/></svg>