<svg width="209" height="29" viewBox="0 0 209 29" fill="none" xmlns="http://www.w3.org/2000/svg"><path d="M27.61 6.136L23.636.969H.107v27.423H23.16l4.372-5.882.079-16.374zm-5.485 17.01H5.672V6.136h16.453v17.01zM44.064.97H38.58v27.502h5.484V.969zm55.006 0h-5.485v27.502h5.484V.969zM82.615 6.216V.969H59.008l-3.895 5.247v17.01l3.815 5.166h19.713l3.974-5.166V11.939H66.082v5.246h10.97v6.04H60.596V6.216h22.018zM137.541.97h-27.502v5.166h11.048v22.256h5.485V6.136h10.969V.969zM187.3 23.305V.97h-5.485v22.336l3.816 5.087H209v-5.087h-21.7zM152.405.97l-3.895 5.166h16.533v5.803H148.51V6.136l-5.485 7.313v14.943h5.485V17.185h16.533v11.207h5.485V.97h-18.123z" fill="#31312F"/></svg>