<svg width="57" height="9" viewBox="0 0 57 9" fill="none" xmlns="http://www.w3.org/2000/svg"><path d="M7.531 2.332L6.464.945H.147v7.363h6.189l1.174-1.58.021-4.396zM6.06 6.9H1.64V2.332h4.418V6.9zM11.949.945h-1.473V8.33h1.473V.945zm14.768 0h-1.473V8.33h1.473V.945zM22.3 2.354V.945h-6.34l-1.045 1.409V6.92l1.024 1.387h5.293L22.3 6.921V3.89h-4.44v1.408h2.945V6.92h-4.417V2.354h5.911zM37.046.945h-7.384v1.387h2.966v5.976h1.473V2.332h2.945V.945zm13.36 5.997V.945h-1.472v5.997l1.024 1.366h6.274V6.942h-5.826zM41.036.945l-1.045 1.387h4.439V3.89h-4.44V2.332l-1.472 1.964v4.012h1.473v-3.01h4.439v3.01h1.472V.945h-4.866z" fill="#31312F"/></svg>