<svg width="21" height="15" viewBox="0 0 21 15" fill="none" xmlns="http://www.w3.org/2000/svg">
<path fill-rule="evenodd" clip-rule="evenodd" d="M14.3431 0.292895L20.7071 6.65686C21.0976 7.04738 21.0976 7.68055 20.7071 8.07107L14.3431 14.435C13.9526 14.8256 13.3195 14.8256 12.9289 14.435C12.5384 14.0445 12.5384 13.4113 12.9289 13.0208L17.5858 8.36396L0.999999 8.36396C0.447715 8.36396 -6.9206e-07 7.91625 -6.43778e-07 7.36396C-5.95496e-07 6.81168 0.447713 6.36396 0.999998 6.36396L17.5858 6.36396L12.9289 1.70711C12.5384 1.31658 12.5384 0.683419 12.9289 0.292894C13.3195 -0.0976299 13.9526 -0.0976299 14.3431 0.292895Z" fill="white"/>
</svg>
