<svg xmlns="http://www.w3.org/2000/svg" width="18" height="14" viewBox="0 0 18 14">
  <defs>
    <style>
      .cls-1 {
        fill: #cf3249;
        fill-rule: evenodd;
      }
    </style>
  </defs>
  <path id="twitter.svg" class="cls-1" d="M234,817.656a7.632,7.632,0,0,1-2.12.557,3.585,3.585,0,0,0,1.623-1.955,7.667,7.667,0,0,1-2.347.859A3.759,3.759,0,0,0,228.461,816a3.616,3.616,0,0,0-3.692,3.535,3.4,3.4,0,0,0,.095.805,10.642,10.642,0,0,1-7.61-3.694,3.4,3.4,0,0,0-.5,1.777,3.5,3.5,0,0,0,1.642,2.942,3.813,3.813,0,0,1-1.673-.443v0.044a3.583,3.583,0,0,0,2.962,3.467,3.889,3.889,0,0,1-.973.124,3.7,3.7,0,0,1-.695-0.066,3.678,3.678,0,0,0,3.448,2.456,7.622,7.622,0,0,1-4.585,1.511,8.242,8.242,0,0,1-.881-0.049A10.773,10.773,0,0,0,221.66,830a10.2,10.2,0,0,0,10.5-10.059l-0.012-.458A7.194,7.194,0,0,0,234,817.656Z" transform="translate(-216 -816)"/>
</svg>
