<svg width="105" height="40" viewBox="0 0 105 40" fill="none" xmlns="http://www.w3.org/2000/svg">
<path d="M103.821 20.3717L103.783 20.3894C103.466 19.8684 102.837 19.2525 101.835 19.167C101.099 19.1046 100.006 19.8603 98.7366 20.7353C97.423 21.6416 95.9327 22.6699 94.5449 22.9942C94.1956 23.0756 92.6379 23.0837 91.5576 22.8883L91.5536 22.8856C91.5414 22.8748 90.2898 21.7379 90.4287 19.8386C90.569 18.3408 91.5144 16.9787 92.5259 16.801C93.0533 16.7589 93.582 16.8675 93.6386 16.8783C93.6413 16.8797 93.6453 16.8797 93.648 16.8797H93.6494L93.8072 16.9149L93.8058 16.8837C93.9299 16.8593 94.0189 16.7915 94.0594 16.6857C94.1835 16.3614 93.8395 15.7753 93.6278 15.5338C93.3823 15.253 92.7309 14.5082 90.2885 14.5733C87.1124 14.6357 86.2371 16.105 86.206 16.1593L84.6321 18.3015C84.6605 18.0762 84.6605 17.8646 84.6092 17.6991C84.2707 16.5093 82.775 15.8296 82.7116 15.8011L82.6644 15.7794L82.6374 15.7889C82.0966 15.4104 81.3441 15.154 80.3825 15.0265C78.9421 14.8352 77.3331 15.7428 75.7282 17.6475C75.7066 17.6733 75.685 17.7004 75.6634 17.7262L75.7821 15.9571L74.9608 15.1051L74.571 14.9546L74.5211 14.9559C74.3687 14.7253 74.0504 14.5883 73.7456 14.5706C73.368 14.5476 72.8757 14.8514 72.7058 15.1282C72.6262 15.2571 72.6222 15.7184 72.6235 16.5907C72.6235 17.3925 72.6249 18.3896 72.5224 19.0761C71.7293 20.8411 70.7637 22.13 69.8088 23.0308C69.5081 23.2736 69.1723 23.5463 68.8688 23.7987C67.9598 24.4349 67.1196 24.7266 66.5235 24.7443C66.4749 24.7443 66.4129 24.7416 66.3535 24.7388L65.7898 24.4065L65.6374 23.7091L65.5821 22.982L65.6778 22.1218L66.0568 20.483L66.6988 17.9446L66.0946 16.9271L65.9435 16.9394C65.7736 16.6938 65.6185 16.4754 65.5578 16.3899L65.4202 16.1959L65.3906 16.2773C65.2341 16.1443 65.0521 16.044 64.8605 16.0168C64.3723 15.9476 64.2536 16.1267 63.9879 16.531C63.9623 16.5703 63.9394 16.6192 63.9165 16.6775C63.8881 16.3275 63.6616 15.7821 63.1127 15.3724C62.3871 14.8311 60.5502 14.4024 59.6088 14.4444C58.6472 14.4879 56.6741 14.8352 54.2505 16.6829C52.9827 17.9609 51.9429 19.4655 50.9382 20.9198C49.9617 22.3335 49.0729 23.6074 48.1289 24.4594L47.2145 25.0984L46.4997 25.0916L46.1045 24.785L45.5057 23.9967L45.2494 23.4242L45.0188 22.5112L44.946 21.4245L45.0876 19.0992L45.3438 17.5431L48.4755 7.27581L49.8498 2.29277L48.6562 0.811287L48.582 0.835707C48.4485 0.495184 48.1882 0.169583 47.8686 0.0596934C47.8443 0.0515534 47.8187 0.0501967 47.7944 0.04477L47.7526 0L47.7404 0.0352734C47.2387 -0.0474834 46.6305 0.32153 46.3729 0.647131C46.2529 0.797721 45.7916 2.07299 45.0471 4.14191C44.2663 6.31393 43.3802 8.77493 43.097 9.23755C43.0093 9.38 42.8205 9.70289 42.5602 10.1492C42.3511 10.5074 42.0935 10.9483 41.809 11.4313L40.0611 14.1636C39.9694 14.3006 37.8263 17.4983 37.2761 18.4927C37.1142 18.6935 36.9618 18.8726 36.8297 19.0042C36.6274 19.2064 36.3158 19.4736 35.9341 19.7748C35.779 19.886 35.6239 19.9959 35.4715 20.1018C35.0926 20.3663 34.7325 20.62 34.4465 20.8669C33.9084 21.2386 33.3406 21.6077 32.7877 21.9387C32.0365 22.2968 31.1989 22.6333 30.7121 22.8137L30.0755 22.4529L29.1719 21.7596L28.3856 20.7557C28.2049 20.1831 27.9419 19.3461 27.927 19.2945C27.9163 19.2308 27.7814 18.2106 27.6924 17.5336L27.602 15.39L28.1671 10.1248L29.273 2.14489L28.0417 0.805861L27.8138 0.762447C27.6573 0.614571 27.5373 0.501967 27.4982 0.466694L27.3471 0.3256L27.3282 0.39072C27.1475 0.278117 26.9209 0.200787 26.6445 0.200787C25.8622 0.200787 24.9734 1.09076 24.6349 1.9224L24.5742 2.07028C22.9572 6.03717 21.7717 8.87261 21.1392 10.2863L19.781 12.9141C18.5888 14.884 16.8369 17.2921 15.673 18.8794C15.0715 19.6215 14.0721 20.8751 13.2885 21.9536C12.4995 22.8192 11.5136 23.7946 10.49 24.6914C8.82709 25.9178 6.92006 27.0574 6.48983 27.2568C6.24167 27.3721 6.05151 27.4169 5.92339 27.4345C5.93148 27.1483 5.94631 26.6884 5.95171 26.5256C5.96115 26.2651 5.83033 25.3249 5.69007 25.0265C5.53227 24.69 4.1809 23.389 3.19771 23.1298C2.95765 23.0661 2.69735 23.0484 2.43571 23.0579C2.27522 23.0498 2.10528 23.0457 1.91512 23.0539C0.227926 23.1176 0 24.1867 0 25.2367C0.129473 26.0806 0.980488 26.9244 1.58874 27.4318C1.87061 27.8673 2.11472 28.2011 2.21722 28.3028C2.70949 28.7912 5.37987 29.3732 5.84786 29.4356C6.48578 29.5211 8.15949 29.4682 8.77314 29.1724C9.72665 28.7125 10.5062 28.2323 11.1563 27.7045C12.0086 27.014 13.716 25.31 13.7889 25.2367C13.8118 25.2137 16.087 22.9182 16.7735 22.1747C17.4977 21.3906 18.7682 19.6337 19.1809 18.9798C19.51 18.4588 20.3556 16.9963 21.2497 15.447C21.5073 15.002 21.7649 14.5543 22.0117 14.1283C22.6807 12.9738 23.1015 12.2996 23.3254 11.9509C22.8412 15.4131 22.5013 19.148 23.0098 20.582C23.587 21.8112 24.7307 22.5397 25.7327 22.9887C26.2574 23.3225 26.7523 23.6033 27.0302 23.7566C27.1893 23.8651 28.7969 24.9464 30.2724 25.2218C31.4754 25.447 31.7263 25.3534 32.4694 25.0767C32.6879 24.9953 32.959 24.8949 33.319 24.7795C34.4937 24.4037 35.0899 23.9452 35.721 23.4581C35.9409 23.2886 36.1688 23.1122 36.4291 22.9345C37.0562 22.5058 37.3988 22.1693 37.7306 21.8437C37.9437 21.6334 38.146 21.4354 38.417 21.2196C39.1157 20.6634 39.6443 19.8169 39.7104 19.7083C39.8278 19.5509 41.1104 17.8293 41.488 17.2894C41.5392 17.2148 41.5797 17.1578 41.6242 17.0954C41.4152 18.3489 41.2574 19.6907 41.2088 21.0419C41.0551 23.9533 43.4719 25.3629 43.4867 25.371C43.5002 25.3819 43.6122 25.4606 43.801 25.5569C44.1799 25.8065 44.4847 25.9558 44.5171 25.9721L44.5576 25.987C44.6115 26.0033 45.9022 26.3736 46.5914 26.4455C46.8072 26.4672 46.9717 26.5066 47.1322 26.5432C47.4491 26.6165 47.7499 26.687 48.2502 26.5676C48.9637 26.3994 49.3346 26.1945 50.137 25.6953C50.9422 25.1947 51.6759 24.222 52.3219 23.3645L52.3785 23.2886C52.9261 22.5614 53.1877 22.0147 53.3793 21.6158C53.4197 21.5303 53.4588 21.4489 53.4979 21.3729C53.7151 20.9429 54.0401 20.3582 54.3045 20.0136C54.5148 19.7368 54.8048 19.5292 54.8884 19.4723L54.9154 19.4628C54.7981 20.0136 54.7171 20.6485 54.7077 21.3974C54.6753 24.1541 55.6666 24.8854 56.4124 25.1947L56.488 25.4117L57.9796 25.6722C58.0443 25.6885 58.3896 25.774 58.7416 25.831C59.1273 25.8947 59.5886 25.8025 60.1132 25.5623C60.5394 25.367 61.4767 24.5774 61.5819 24.4892L63.0965 22.9548L63.1167 22.9345C63.1639 23.2302 63.2354 23.5287 63.3487 23.8068C63.609 24.4404 63.8854 24.8121 64.3453 25.0631L64.4721 25.3168L67.2221 25.8093C67.3448 25.8269 68.4305 25.9748 68.8297 25.9232C69.2235 25.8717 69.8345 25.5244 70.2391 25.2937L70.3389 25.2367C70.6342 25.0699 71.5702 24.3101 72.0288 23.9343C71.3032 25.2693 66.9321 33.4514 66.6732 37.2012C66.6732 37.2826 66.6718 37.3681 66.6705 37.4576C66.6624 38.0559 66.6597 38.8509 67.036 39.3705L67.0306 39.3719L67.0387 39.3746C67.2288 39.6351 67.5093 39.8318 67.949 39.8874C68.038 39.8982 68.123 39.9037 68.2066 39.9037C68.3442 39.9037 68.4709 39.8847 68.591 39.8576L68.9592 39.9715L70.2687 40L70.3213 39.9769C71.0334 39.6608 71.144 39.4967 71.1548 39.3827C71.2587 39.2335 71.7145 38.7749 71.8696 38.6176C72.0261 38.4602 72.0436 38.4412 72.0638 38.4127C72.1178 38.3313 72.6734 37.0357 72.6761 37.0262C72.6815 37.0113 72.6937 36.9706 73.7402 32.0377L74.0882 29.6703L74.4227 26.6857L74.7221 23.8055L74.8354 23.3781C74.9149 23.2058 75.592 21.7555 76.1449 21.1586C76.915 20.3283 78.8544 18.2594 79.0877 18.0586C79.2873 17.8863 80.2651 17.2066 80.6738 16.9258L81.0595 16.8363C81.4992 17.4617 81.7419 18.3679 81.7244 19.4139C81.6812 21.9563 81.1148 22.1815 79.9401 22.4162C79.8646 22.4311 79.7836 22.4284 79.7068 22.4352C79.696 22.4339 79.6852 22.4312 79.6744 22.4298C79.406 22.2385 79.0729 21.9061 78.8463 21.6782C78.555 21.3852 78.4539 21.2888 78.3702 21.2631C78.2542 21.2264 77.6635 21.2142 76.6116 21.2251C76.532 21.2264 76.4646 21.2726 76.4376 21.3431C76.4349 21.3499 76.4389 21.3567 76.4362 21.3648L76.3135 21.3811L76.4012 21.4923C76.4551 21.5602 77.5448 22.9263 78.938 23.2696C78.9502 23.275 78.9677 23.2845 78.9785 23.2886C79.696 23.5518 80.4647 23.6847 81.3279 23.6969C83.363 23.6888 84.821 21.8152 85.092 21.4394C85.2552 21.2142 85.4494 20.913 85.676 20.5644C86.1481 19.8372 86.7199 18.9527 87.2729 18.3462C87.1164 18.9052 87.0301 19.5116 87.1137 20.1099C87.374 21.9929 89.5373 23.0077 90.3519 23.3903C90.4463 23.4351 90.5245 23.4717 90.5825 23.5002C90.5892 23.5043 90.6027 23.5056 90.6095 23.5097C91.0734 23.8272 92.2144 24.4824 93.8827 24.5788C96.4843 24.6791 98.3832 23.0172 99.2963 22.2182C99.504 22.0364 99.6685 21.8926 99.7737 21.8288C100.368 21.4381 101.182 21.1708 101.752 21.0161C101.727 21.1233 101.708 21.221 101.702 21.2929C101.689 21.4991 101.791 21.8112 102.049 22.0092C102.052 22.0119 102.056 22.0133 102.058 22.016C102.157 22.4868 102.872 22.7907 103.41 22.731C103.895 22.6753 104.39 22.5438 104.39 21.9807C104.385 21.5018 103.844 20.4179 103.821 20.3717ZM69.8857 33.4351C70.0246 33.0308 70.1676 32.6211 70.2984 32.2602C70.4292 31.9238 70.587 31.5615 70.7502 31.1993C70.6221 31.6823 70.494 32.1666 70.3766 32.6062C70.2148 33.2139 70.0745 33.7403 69.9909 34.0619C69.7873 34.8514 69.446 35.8472 69.0698 36.6829C69.0725 36.5839 69.0779 36.4754 69.09 36.3506C69.1075 36.063 69.4514 34.7565 69.8857 33.4351ZM63.6926 17.7493C63.5955 18.3516 63.4835 19.0327 63.2893 19.3284L63.2138 19.4451C61.4578 22.1652 59.7976 23.9018 58.4085 24.5082L58.3761 24.4444L58.3073 24.245L58.1765 23.7498L58.1091 23.0742C58.1185 22.9318 58.1859 21.9468 58.3357 20.9714L59.1597 18.7179L60.6217 17.0452L61.1652 16.6192C61.1706 16.6192 61.176 16.6192 61.1814 16.6192C61.799 16.6287 62.174 16.8335 62.5044 17.0153C62.8847 17.2229 63.2125 17.4033 63.7452 17.1917L63.7735 17.1727C63.7803 17.1659 63.787 17.1591 63.7937 17.151C63.76 17.3341 63.7277 17.5363 63.6926 17.7493ZM76.9798 21.5073C76.9555 21.4856 76.9298 21.4706 76.9042 21.4543C76.9137 21.4543 76.9231 21.4543 76.9325 21.4543C76.946 21.4747 76.9663 21.4896 76.9798 21.5073ZM79.9954 23.3211C80.0075 23.3238 80.021 23.3279 80.0332 23.3306C80.0183 23.3279 80.0048 23.3238 79.99 23.3211C79.9913 23.3211 79.9927 23.3211 79.9954 23.3211Z" fill="#F3EAE5"/>
</svg>
