<svg width="40" height="40" viewBox="0 0 40 40" fill="none" xmlns="http://www.w3.org/2000/svg">
<path fill-rule="evenodd" clip-rule="evenodd" d="M34.2975 36.6309H23.0282C22.7474 36.6309 22.4899 36.3319 22.4056 36.0651C22.3214 35.7984 22.4337 35.5316 22.6584 35.3771H24.9447H33.5955V5.03667L19.1167 5.16772H17.8848V4.47507C17.8848 4.12407 18.2358 3.78711 18.5727 3.78711H34.2975C34.6485 3.78711 34.8732 4.13811 34.8732 4.47507V36.0693C34.8732 36.4063 34.6485 36.6309 34.2975 36.6309ZM26.5324 33.724C29.1875 30.8687 30.6309 27.084 30.6191 23.05C30.6191 17.4119 27.6839 12.3645 22.9995 9.57223L22.4594 10.7287C26.6782 13.3208 29.3976 17.9435 29.3976 23.0781C29.3976 27.1891 27.7355 30.9486 24.7627 33.724H26.5324Z" fill="#4B4B4B"/>
<path d="M25.4532 31.2073H10.29C9.939 31.2073 9.6582 30.9265 9.6582 30.5755V23.724C9.6582 20.2561 12.4803 17.4341 15.9481 17.4341H19.8091C23.277 17.4341 26.0991 20.2561 26.0991 23.724V30.5755C26.085 30.9265 25.8042 31.2073 25.4532 31.2073ZM10.9218 29.9437H24.8214V23.724C24.8214 20.9581 22.575 18.6977 19.7951 18.6977H15.9341C13.1682 18.6977 10.9078 20.9441 10.9078 23.724V29.9437H10.9218Z" fill="#4B4B4B"/>
<path d="M32.9639 36.6129H8.07096C6.94776 36.6129 6.03516 35.7003 6.03516 34.5771V34.4928C6.03516 33.3696 6.94776 32.457 8.07096 32.457H32.9639C34.0871 32.457 34.8823 33.3696 34.8823 34.4928V34.5771C34.8823 35.7003 34.0871 36.6129 32.9639 36.6129ZM8.07096 33.7347C7.64976 33.7347 7.29876 34.0716 7.29876 34.5069V34.5911C7.29876 35.0123 7.63572 35.3633 8.07096 35.3633H32.9639C33.3851 35.3633 33.7361 35.0264 33.7361 34.5911V34.4928C33.7361 34.0716 33.3991 33.7206 32.9639 33.7206H8.07096V33.7347Z" fill="#4B4B4B"/>
<path d="M23.5157 18.7118H11.7783C11.4273 18.7118 11.1465 18.431 11.1465 18.08V15.9178C11.1465 15.5668 11.4273 15.286 11.7783 15.286L25.2146 15.2439C25.4533 15.2439 25.6779 15.3843 25.7762 15.5949C25.8885 15.8055 25.8604 16.0723 25.706 16.2548L24.0071 18.4591C23.8948 18.6275 23.7123 18.7118 23.5157 18.7118ZM12.4101 17.4482H23.2068L23.9229 16.5075L12.4101 16.5356V17.4482Z" fill="#4B4B4B"/>
<path d="M23.2065 29.0453H12.2553C11.9043 29.0453 11.5674 28.8207 11.5674 28.4697V23.7241C11.5674 23.331 11.6657 22.9379 11.8201 22.4746C11.8903 22.264 12.0869 22.0955 12.3115 22.0534C13.4487 21.8287 14.6421 21.7024 15.8496 21.6603C18.3628 21.576 20.7215 21.8007 23.2767 22.3482C23.5154 22.4044 23.6839 22.5869 23.726 22.8396C23.7962 23.1345 23.7541 23.4153 23.7541 23.6961V28.4837C23.7822 28.8207 23.5575 29.0453 23.2065 29.0453ZM12.831 27.7817H22.5186V23.682C22.5186 23.6118 22.5467 23.5557 22.5467 23.4855C20.2722 23.0221 18.1521 22.8396 15.8917 22.9098C14.8808 22.9379 13.8699 23.0502 12.9152 23.2187C12.8731 23.4012 12.831 23.5697 12.831 23.7241V27.7817Z" fill="#4B4B4B"/>
<path d="M6.69557 31.3336C6.45689 31.3336 6.21822 31.1932 6.11994 30.9546C4.07009 26.1669 4.94058 22.4463 6.04974 20.1718C7.24314 17.7008 8.92794 16.3389 8.99814 16.2827C9.11046 16.1985 9.25087 16.1143 9.39127 16.1143H11.6377C11.9887 16.1143 12.2695 16.3951 12.2695 16.7461C12.2695 17.0971 11.9887 17.3779 11.6377 17.3779H9.61591C9.19471 17.7991 8.02938 18.9223 7.1589 20.7334C5.74086 23.6959 5.78297 26.9672 7.27121 30.4351C7.41161 30.758 7.25719 31.1371 6.93427 31.2775C6.86407 31.3196 6.77981 31.3336 6.69557 31.3336Z" fill="#4B4B4B"/>
<path d="M20.6369 14.261H15.1191C14.1504 14.261 13.2659 13.6854 12.8587 12.8149L10.3877 7.47968C10.0226 6.69344 10.0788 5.78084 10.5561 5.05076C11.0195 4.33472 11.8057 3.78491 12.6481 3.78491H23.0939C23.9503 3.78491 24.7225 4.33472 25.1859 5.05076C25.6492 5.78084 25.7194 6.69344 25.3543 7.47968L22.8833 12.8149C22.4902 13.6994 21.6056 14.261 20.6369 14.261ZM12.6481 5.16308C12.2269 5.16308 11.8478 5.37368 11.6232 5.73872C11.3845 6.10376 11.3564 6.56708 11.5389 6.9602L14.01 12.2954C14.2065 12.7306 14.6558 13.0114 15.1191 13.0114H20.6369C21.1142 13.0114 21.5495 12.7306 21.746 12.2954L24.2171 6.9602C24.3996 6.56708 24.3715 6.10376 24.1328 5.73872C23.9082 5.37368 23.5291 5.16308 23.1079 5.16308H12.6481Z" fill="#4B4B4B"/>
</svg>
