<svg width="41" height="40" viewBox="0 0 41 40" fill="none" xmlns="http://www.w3.org/2000/svg">
<path d="M32.9938 20.4892H10.4888C8.2906 20.4892 6.49805 18.6967 6.49805 16.4985V8.64794C6.49805 6.44978 8.2906 4.65723 10.4888 4.65723H32.9938C35.1919 4.65723 36.9845 6.44978 36.9845 8.64794V16.4985C36.9845 18.6967 35.1919 20.4892 32.9938 20.4892ZM10.4888 5.83481C8.93173 5.83481 7.67563 7.09091 7.67563 8.64794V16.4985C7.67563 18.0556 8.93173 19.3116 10.4888 19.3116H32.9938C34.5508 19.3116 35.8069 18.0556 35.8069 16.4985V8.64794C35.8069 7.09091 34.5508 5.83481 32.9938 5.83481H10.4888Z" fill="#4B4B4B"/>
<path d="M36.3957 35.1435H7.08684C6.75973 35.1435 6.49805 34.8818 6.49805 34.5547V34.3846C6.49805 32.8537 7.74106 31.5977 9.285 31.5977H34.2106C35.7415 31.5977 36.9976 32.8407 36.9976 34.3846V34.5547C36.9845 34.8818 36.7228 35.1435 36.3957 35.1435ZM7.72797 33.9659H35.7415C35.5583 33.2855 34.9302 32.7883 34.1975 32.7883H9.27192C8.5392 32.7883 7.91115 33.2855 7.72797 33.9659Z" fill="#4B4B4B"/>
<path d="M31.6858 32.7884H11.7976C11.4967 32.7884 11.2481 32.5659 11.2088 32.265L9.90041 19.9657C9.88733 19.7956 9.93967 19.6386 10.0443 19.5078C10.1621 19.39 10.3191 19.3115 10.4761 19.3115H32.9811C33.1512 19.3115 33.3082 19.3769 33.4129 19.5078C33.5307 19.6255 33.583 19.7956 33.5568 19.9657L32.2484 32.265C32.2353 32.5659 31.9867 32.7884 31.6858 32.7884ZM12.321 31.6108H31.1493L32.3269 20.4891H11.1303L12.321 31.6108Z" fill="#4B4B4B"/>
<path d="M26.0194 23.106H17.4491C17.122 23.106 16.8604 22.8443 16.8604 22.5172V19.9003C16.8604 19.5732 17.122 19.3115 17.4491 19.3115H26.0194C26.3465 19.3115 26.6082 19.5732 26.6082 19.9003V22.5172C26.6082 22.8443 26.3465 23.106 26.0194 23.106ZM18.0379 21.9284H25.4306V20.4891H18.0379V21.9284Z" fill="#4B4B4B"/>
<path d="M24.5149 26.7699H18.954C18.6269 26.7699 18.3652 26.5082 18.3652 26.1811V22.5175C18.3652 22.1904 18.6269 21.9287 18.954 21.9287H24.5149C24.842 21.9287 25.1037 22.1904 25.1037 22.5175V26.1811C25.1037 26.5082 24.842 26.7699 24.5149 26.7699ZM19.5428 25.5923H23.9261V23.1063H19.5428V25.5923Z" fill="#4B4B4B"/>
<path d="M35.5325 25.265H24.5156C24.1884 25.265 23.9268 25.0033 23.9268 24.6762C23.9268 24.3491 24.1884 24.0874 24.5156 24.0874H35.5325C35.8596 24.0874 36.1213 24.3491 36.1213 24.6762C36.1213 25.0033 35.8596 25.265 35.5325 25.265Z" fill="#4B4B4B"/>
<path d="M21.7145 15.4911C20.3407 15.4911 19.2285 14.3789 19.2285 13.0051C19.2285 11.6312 20.3407 10.519 21.7145 10.519C23.0884 10.519 24.2006 11.6312 24.2006 13.0051C24.2006 14.3658 23.0884 15.4911 21.7145 15.4911ZM21.7145 11.6966C20.9949 11.6966 20.4061 12.2854 20.4061 13.0051C20.4061 13.7247 20.9949 14.3135 21.7145 14.3135C22.4342 14.3135 23.023 13.7247 23.023 13.0051C23.023 12.2723 22.4342 11.6966 21.7145 11.6966Z" fill="#4B4B4B"/>
<path d="M21.8453 13.6198C21.6883 13.6198 21.5444 13.5675 21.4266 13.4497C21.1911 13.2142 21.1911 12.8479 21.4266 12.6123L24.1089 9.93006C24.3444 9.69454 24.7108 9.69454 24.9463 9.93006C25.1818 10.1656 25.1818 10.5319 24.9463 10.7674L22.264 13.4497C22.1463 13.5675 21.9893 13.6198 21.8453 13.6198Z" fill="#4B4B4B"/>
<path d="M29.3034 15.4911C27.9295 15.4911 26.8174 14.3789 26.8174 13.0051C26.8174 11.6312 27.9295 10.519 29.3034 10.519C30.6773 10.519 31.7894 11.6312 31.7894 13.0051C31.7894 14.3658 30.6773 15.4911 29.3034 15.4911ZM29.3034 11.6966C28.5838 11.6966 27.995 12.2854 27.995 13.0051C27.995 13.7247 28.5838 14.3135 29.3034 14.3135C30.023 14.3135 30.6118 13.7247 30.6118 13.0051C30.6118 12.2723 30.023 11.6966 29.3034 11.6966Z" fill="#4B4B4B"/>
<path d="M29.4205 13.6198C29.2635 13.6198 29.1196 13.5675 29.0018 13.4497C28.7663 13.2142 28.7663 12.8479 29.0018 12.6123L31.6841 9.93006C31.9196 9.69454 32.286 9.69454 32.5215 9.93006C32.757 10.1656 32.757 10.5319 32.5215 10.7674L29.8392 13.4497C29.7215 13.5675 29.5775 13.6198 29.4205 13.6198Z" fill="#4B4B4B"/>
<path d="M13.943 15.4911C12.5692 15.4911 11.457 14.3789 11.457 13.0051C11.457 11.6312 12.5692 10.519 13.943 10.519C15.3169 10.519 16.4291 11.6312 16.4291 13.0051C16.4291 14.3658 15.3169 15.4911 13.943 15.4911ZM13.943 11.6966C13.2234 11.6966 12.6346 12.2854 12.6346 13.0051C12.6346 13.7247 13.2234 14.3135 13.943 14.3135C14.6627 14.3135 15.2515 13.7247 15.2515 13.0051C15.2515 12.2723 14.6627 11.6966 13.943 11.6966Z" fill="#4B4B4B"/>
<path d="M17.7377 13.5941H13.9433C13.6162 13.5941 13.3545 13.3324 13.3545 13.0053C13.3545 12.6782 13.6162 12.4165 13.9433 12.4165H17.7377C18.0648 12.4165 18.3265 12.6782 18.3265 13.0053C18.3265 13.3193 18.0648 13.5941 17.7377 13.5941Z" fill="#4B4B4B"/>
<path d="M21.8848 32.566H21.5969C21.5708 32.566 21.5446 32.566 21.5184 32.566C20.1446 32.4875 19.0062 31.6371 18.5221 30.3286C18.3389 29.8314 18.2081 28.8763 18.1427 28.1566C18.1165 27.9473 18.195 27.7379 18.3389 27.5809C18.496 27.4108 18.7315 27.3062 18.9801 27.3062H24.5409C24.7895 27.3062 25.025 27.4108 25.182 27.5809C25.326 27.7379 25.3914 27.9473 25.3783 28.1566C25.2998 28.8763 25.182 29.8314 24.9989 30.3286C24.5147 31.6501 23.3764 32.4875 22.0026 32.566C21.9371 32.566 21.911 32.566 21.8848 32.566ZM21.7278 31.4539H21.7539C22.7614 31.4539 23.5727 30.8912 23.9259 29.9361C24.0175 29.6875 24.1222 29.1249 24.2007 28.4183H19.2679C19.3464 29.138 19.4511 29.6875 19.5427 29.9361C19.9091 30.8782 20.7203 31.4539 21.7278 31.4539Z" fill="#4B4B4B"/>
<path d="M24.9467 31.2574C24.5804 31.2574 24.2925 31.2182 24.214 31.2051C23.9131 31.1528 23.7037 30.8649 23.7561 30.564C23.8084 30.263 24.0963 30.0537 24.3972 30.106C24.9598 30.1976 25.8496 30.1584 25.9804 29.8443C26.2683 29.2294 26.2944 28.9677 26.2944 28.863C26.1898 28.8368 25.8626 28.8238 24.9991 29.0854C24.7112 29.177 24.3972 29.0069 24.3056 28.7191C24.214 28.4312 24.3841 28.1172 24.672 28.0256C25.601 27.7378 26.6346 27.5284 27.158 28.1303C27.6552 28.6929 27.3543 29.5565 27.001 30.3154C26.6215 31.1004 25.6402 31.2574 24.9467 31.2574Z" fill="#4B4B4B"/>
</svg>
