<svg width="41" height="40" viewBox="0 0 41 40" fill="none" xmlns="http://www.w3.org/2000/svg">
<path d="M32.9009 23.5857C32.8046 23.5857 32.7084 23.5697 32.6121 23.5216C32.243 23.3611 32.0826 22.9439 32.227 22.5748C35.5486 14.8565 31.7777 9.86609 30.0126 8.08494C29.7879 7.86029 29.467 7.71588 29.13 7.71588L25.2789 7.65169C24.8777 7.65169 24.5568 7.31472 24.5728 6.91356C24.5728 6.5124 24.9098 6.20752 25.2949 6.20752H25.311L29.1461 6.27171C29.8521 6.27171 30.5421 6.56053 31.0395 7.05797C31.906 7.92447 33.4786 9.80191 34.3611 12.5298C35.4202 15.8514 35.1635 19.4297 33.5588 23.1365C33.4465 23.4092 33.1898 23.5857 32.9009 23.5857Z" fill="#4B4B4B"/>
<path d="M30.1401 37.4818H12.81C12.4088 37.4818 12.0879 37.1608 12.0879 36.7597V28.929C12.0879 24.9656 15.3132 21.7402 19.2767 21.7402H23.6894C27.6529 21.7402 30.8782 24.9656 30.8782 28.929V36.7597C30.8622 37.1448 30.5412 37.4818 30.1401 37.4818ZM13.5321 36.0376H29.418V28.929C29.418 25.7679 26.8506 23.1844 23.6734 23.1844H19.2606C16.0995 23.1844 13.516 25.7518 13.516 28.929V36.0376H13.5321Z" fill="#4B4B4B"/>
<path d="M27.7331 35.0587H15.2169C14.8158 35.0587 14.4307 34.802 14.4307 34.4008V28.929C14.4307 28.576 14.543 28.2551 14.5911 27.9662L14.6232 27.902C14.6874 27.6293 14.9121 27.4046 15.1848 27.3404C18.1053 26.6986 20.8332 26.4579 23.7215 26.5541C25.0855 26.6023 26.3852 26.7467 27.7171 27.0034C27.9738 27.0516 28.1503 27.2441 28.2306 27.4848C28.375 27.902 28.391 28.3513 28.391 28.913V34.3848C28.391 34.802 28.1343 35.0587 27.7331 35.0587ZM15.8748 33.6145H26.9468V28.929C26.9468 28.7044 26.9629 28.5279 26.9468 28.3513C25.8557 28.1588 24.7806 28.0465 23.6573 28.0144C21.0418 27.9341 18.5546 28.1427 15.923 28.6723C15.9069 28.7686 15.8748 28.8488 15.8748 28.929V33.6145Z" fill="#4B4B4B"/>
<path fill-rule="evenodd" clip-rule="evenodd" d="M17.8654 23.3611H25.0862C26.8032 23.3611 28.2153 21.949 28.2153 20.2321V9.32051C28.2153 7.5875 26.8193 6.19147 25.0862 6.19147H17.8654C17.791 6.19147 17.7172 6.19404 17.6442 6.1991C16.5801 6.2728 15.6655 6.87432 15.159 7.74492C14.8901 8.20717 14.7363 8.74528 14.7363 9.32051V17.4273V20.2321C14.7363 21.9651 16.1324 23.3611 17.8654 23.3611ZM17.7273 7.64122L17.8654 7.63564H18.4341H25.0862C26.0169 7.63564 26.7711 8.38982 26.7711 9.32051V20.2321C26.7711 21.1627 26.0169 21.9169 25.0862 21.9169H17.8654C16.9347 21.9169 16.1805 21.1627 16.1805 20.2321V16.8683V9.32051C16.1805 8.43633 16.8612 7.71145 17.7273 7.64122Z" fill="#4B4B4B"/>
<path d="M9.29642 7.58749L14.7363 17.4273V14.686L11.1097 7.90842L15.159 7.74492C15.6655 6.87432 16.5801 6.2728 17.6442 6.1991L9.89013 6.51239C9.64944 6.52844 9.42479 6.6568 9.29642 6.88145C9.18409 7.1061 9.16804 7.36284 9.29642 7.58749Z" fill="#4B4B4B"/>
<path d="M21.476 7.63557C21.0748 7.63557 20.7539 7.31464 20.7539 6.91348V2.34025C20.7539 1.93909 21.0748 1.61816 21.476 1.61816C21.8772 1.61816 22.1981 1.93909 22.1981 2.34025V6.91348C22.1981 7.2986 21.8772 7.63557 21.476 7.63557Z" fill="#4B4B4B"/>
<path d="M23.2406 3.06235H19.7104C19.3092 3.06235 18.9883 2.74141 18.9883 2.34025C18.9883 1.93909 19.3092 1.61816 19.7104 1.61816H23.2406C23.6417 1.61816 23.9627 1.93909 23.9627 2.34025C23.9627 2.72536 23.6417 3.06235 23.2406 3.06235Z" fill="#4B4B4B"/>
</svg>
