<svg width="41" height="40" viewBox="0 0 41 40" fill="none" xmlns="http://www.w3.org/2000/svg">
<path d="M22.7781 36.5629C19.0876 36.5629 15.4402 34.9977 13.2862 32.4847C11.7209 30.661 11.0748 28.5214 11.4194 26.3099C11.8502 23.5816 12.8554 21.3127 14.5068 19.4172C14.636 19.2736 14.8083 19.1587 14.995 19.1587H30.5324C30.7191 19.1587 30.8914 19.2736 31.0207 19.4172C32.6721 21.2983 33.6916 23.5528 34.1081 26.2669C34.4527 28.4783 33.8065 30.6323 32.2413 32.4703C30.1016 34.9833 26.4686 36.5629 22.7781 36.5629ZM12.6974 26.4679C12.4102 28.2916 12.9559 30.0866 14.2627 31.6231C16.1725 33.8633 19.4322 35.2562 22.7637 35.2562C26.0952 35.2562 29.3406 33.8633 31.2648 31.6231C32.5859 30.0866 33.1316 28.2773 32.8444 26.4392C32.471 24.0842 31.6238 22.1599 30.2452 20.4367H15.2966C13.9324 22.1743 13.0708 24.0985 12.6974 26.4679Z" fill="#4B4B4B"/>
<path d="M31.6377 18.3546H13.9175C13.7165 18.3546 13.5298 18.2684 13.4149 18.1105C13.2857 17.9525 13.2426 17.7515 13.2857 17.5648L13.9606 14.621C14.0324 14.3338 14.2909 14.1184 14.5924 14.1184H30.9627C31.2643 14.1184 31.5228 14.3338 31.5946 14.621L32.2695 17.5648C32.3126 17.7515 32.2695 17.9525 32.1403 18.1105C32.011 18.2684 31.8243 18.3546 31.6377 18.3546ZM14.7217 17.0622H30.8191L30.4458 15.4108H15.1094L14.7217 17.0622Z" fill="#4B4B4B"/>
<path d="M30.2013 13.1849H14.6208C14.2618 13.1849 13.9746 12.8977 13.9746 12.5387V7.85736C13.9746 7.52708 14.2331 7.23988 14.5634 7.21116L35.2847 5.43053C35.5432 5.41617 35.7873 5.54541 35.9166 5.77517C36.0458 6.00493 36.0171 6.27777 35.8591 6.47881L30.7183 12.9408C30.589 13.0987 30.4024 13.1849 30.2013 13.1849ZM15.267 11.8925H29.8854L33.8918 6.85216L15.267 8.46047V11.8925Z" fill="#4B4B4B"/>
<path d="M22.778 34.2941C18.6998 34.2941 14.9949 32.0826 13.961 29.0383C13.6738 28.1911 13.602 27.3008 13.7456 26.4248C13.7887 26.1233 13.8605 25.8217 13.9323 25.5058C13.9754 25.3048 14.1333 25.1325 14.32 25.0607C16.6607 24.1273 19.1593 23.6103 21.7585 23.5241C25.6644 23.3949 28.6512 24.0124 31.0637 24.6299C31.2791 24.6873 31.4658 24.8596 31.5232 25.075C31.6525 25.5202 31.753 25.9653 31.8248 26.4105C31.8535 26.5972 31.8822 26.7982 31.8822 27.0136C31.9684 28.5788 31.3653 30.0723 30.1734 31.3359C28.4358 33.1596 25.6069 34.2941 22.778 34.2941ZM15.1098 26.1376C15.0811 26.31 15.038 26.4679 15.0093 26.6402C14.8944 27.3152 14.9519 27.9901 15.1816 28.6363C16.0289 31.1349 19.3029 33.016 22.778 33.016C25.2766 33.016 27.7178 32.0396 29.2113 30.4743C30.159 29.4691 30.5467 28.306 30.5467 27.0998C30.5467 26.9274 30.5467 26.7695 30.518 26.6402C30.4749 26.353 30.4319 26.0802 30.3601 25.8074C28.1055 25.2473 25.3484 24.716 21.7872 24.8309C19.4465 24.8883 17.2064 25.3335 15.1098 26.1376Z" fill="#4B4B4B"/>
<path d="M8.21677 28.0474C7.97265 28.0474 7.72853 27.9038 7.62801 27.6597C5.04323 21.6573 6.13458 16.9903 7.51313 14.1327C9.00656 11.0309 11.0888 9.35082 11.1749 9.27902C11.2898 9.19286 11.4334 9.10669 11.577 9.10669H14.5351C14.8941 9.10669 15.1813 9.39389 15.1813 9.75289C15.1813 10.1119 14.8941 10.3991 14.5351 10.3991H11.8211C11.3185 10.9735 9.782 12.352 8.66192 14.7071C6.86693 18.4981 6.91002 22.6912 8.81988 27.1284C8.96348 27.4587 8.80553 27.8464 8.47525 27.99C8.38909 28.0331 8.30293 28.0474 8.21677 28.0474Z" fill="#4B4B4B"/>
</svg>
