<svg width="41" height="40" viewBox="0 0 41 40" fill="none" xmlns="http://www.w3.org/2000/svg">
<path d="M35.4572 27.7205C35.3542 27.7205 35.266 27.7058 35.1778 27.6617C34.8542 27.5 34.7071 27.1029 34.8689 26.7793C38.972 18.2203 35.7513 12.1319 33.4571 9.24944C33.2659 8.99944 33.06 8.76414 32.8542 8.54354C32.5453 8.2053 32.0894 7.9847 31.6188 7.96999H31.6041L29.4864 7.82293C29.1187 7.79352 28.854 7.48469 28.8687 7.11703C28.8982 6.74937 29.207 6.48466 29.5746 6.49936L31.6776 6.64643C32.5012 6.69054 33.2806 7.04349 33.8248 7.64645C34.0454 7.89646 34.266 8.14647 34.4865 8.42589C35.6336 9.86711 37.1484 12.2642 37.8102 15.4702C38.6043 19.2791 38.0161 23.2792 36.0601 27.3529C35.9425 27.5735 35.6925 27.7205 35.4572 27.7205Z" fill="#4B4B4B"/>
<path d="M14.1475 17.8819C13.971 17.8819 13.7798 17.8083 13.6622 17.6613L4.57371 7.63158C4.39723 7.4404 4.35312 7.16098 4.45606 6.92568C4.55901 6.69038 4.7796 6.52862 5.04431 6.51391L12.7731 6.11684C12.9643 6.10213 13.1408 6.17566 13.2732 6.32272C13.4055 6.45508 13.479 6.64626 13.4643 6.82274L14.824 17.2348C14.8093 17.4995 14.6328 17.7348 14.3828 17.8083C14.2946 17.8672 14.221 17.8819 14.1475 17.8819ZM6.50023 7.79335L13.1144 14.8153L12.0672 7.48452L6.50023 7.79335Z" fill="#4B4B4B"/>
<path d="M26.7953 20.9996H15.4421C15.0744 20.9996 14.7803 20.7055 14.7803 20.3378V17.1025C14.7803 16.7348 15.0744 16.4407 15.4421 16.4407H26.7953C27.163 16.4407 27.4571 16.7348 27.4571 17.1025V20.3378C27.4571 20.7055 27.163 20.9996 26.7953 20.9996ZM16.1038 19.6761H26.1335V17.7642H16.1038V19.6761Z" fill="#4B4B4B"/>
<path d="M29.9716 35.9852H12.2652C12.0593 35.9852 11.8828 35.897 11.7505 35.7352C11.6181 35.5882 11.574 35.3823 11.6181 35.1911L14.1329 22.7937C14.1623 22.6613 14.2211 22.5437 14.3094 22.4555L16.8683 19.8819C16.9859 19.7642 17.1624 19.6907 17.3389 19.6907H24.8979C25.0744 19.6907 25.2361 19.7642 25.3685 19.8819L27.898 22.3672C27.9862 22.4555 28.0597 22.5731 28.0892 22.7055L30.6334 35.1911C30.6775 35.3823 30.6186 35.5882 30.501 35.7352C30.3539 35.897 30.1628 35.9852 29.9716 35.9852ZM13.074 34.6617H29.1627L26.8244 23.1614L24.6332 21.0142H17.6183L15.3829 23.2496L13.074 34.6617Z" fill="#4B4B4B"/>
<path d="M28.0744 17.8819H14.1475C13.824 17.8819 13.5446 17.6319 13.4857 17.3084L12.0151 6.8228C11.971 6.49926 12.1622 6.20513 12.4563 6.10219L20.883 3.30799C21.0153 3.26387 21.1624 3.26387 21.2948 3.30799L29.7215 6.10219C30.0303 6.20513 30.2068 6.49926 30.1627 6.8228L28.692 17.3084C28.692 17.6319 28.4126 17.8819 28.0744 17.8819ZM14.7211 16.5584H27.5008L28.8097 7.19046L21.1036 4.63156L13.3975 7.19046L14.7211 16.5584Z" fill="#4B4B4B"/>
<path d="M18.2655 36.0002C18.2508 36.0002 18.2361 36.0002 18.2213 36.0002C17.8537 35.9708 17.5743 35.6619 17.6037 35.2943L18.5596 20.2939C18.589 19.9262 18.8978 19.6468 19.2655 19.6762C19.6331 19.7056 19.9126 20.0144 19.8832 20.3821L18.9273 35.3825C18.9125 35.7355 18.6184 36.0002 18.2655 36.0002Z" fill="#4B4B4B"/>
<path d="M23.9567 36.0001C23.6038 36.0001 23.3244 35.7354 23.2949 35.3824L22.339 20.382C22.3096 20.0144 22.589 19.7055 22.9567 19.6761C23.3244 19.6614 23.6332 19.9261 23.6626 20.2938L24.6185 35.2942C24.6479 35.6619 24.3685 35.9707 24.0009 36.0001C23.9862 36.0001 23.9714 36.0001 23.9567 36.0001Z" fill="#4B4B4B"/>
<path d="M23.2949 17.6171C23.2802 17.6171 23.2655 17.6171 23.236 17.6171C22.8684 17.5877 22.6037 17.2642 22.6331 16.9112L23.589 5.1462C23.6184 4.77854 23.942 4.51383 24.2949 4.54325C24.6626 4.57266 24.9273 4.8962 24.8979 5.24915L23.942 17.0142C23.9272 17.3524 23.6478 17.6171 23.2949 17.6171Z" fill="#4B4B4B"/>
<path d="M18.9275 17.6171C18.5893 17.6171 18.2952 17.3524 18.2658 17.0142L17.3098 5.24915C17.2804 4.88149 17.5451 4.57266 17.9128 4.54325C18.2805 4.51383 18.5893 4.77854 18.6187 5.1462L19.5746 16.9112C19.604 17.2789 19.3393 17.5877 18.9716 17.6171C18.9716 17.6171 18.9422 17.6171 18.9275 17.6171Z" fill="#4B4B4B"/>
</svg>
