<svg width="14" height="14" viewBox="0 0 14 14" fill="none" xmlns="http://www.w3.org/2000/svg">
<path fill-rule="evenodd" clip-rule="evenodd" d="M6.99608 0.667969C7.1864 0.667969 7.36022 0.776019 7.44445 0.946688L9.12823 4.35844L12.893 4.90406C13.0814 4.93137 13.238 5.06335 13.2968 5.24445C13.3556 5.42556 13.3064 5.62435 13.17 5.75717L10.4419 8.41274L11.0851 12.1627C11.1173 12.3504 11.0401 12.54 10.886 12.6519C10.7319 12.7637 10.5277 12.7783 10.3592 12.6896L6.9999 10.9193L3.63251 12.6898C3.46405 12.7783 3.25991 12.7636 3.10594 12.6517C2.95196 12.5399 2.87485 12.3503 2.90703 12.1627L3.5503 8.41274L0.822157 5.75717C0.685709 5.62435 0.636547 5.42556 0.69536 5.24445C0.754173 5.06335 0.91075 4.93137 1.0992 4.90406L4.86393 4.35844L6.54771 0.946688C6.63194 0.776019 6.80576 0.667969 6.99608 0.667969ZM6.99608 2.29776L5.64428 5.03683C5.57142 5.18446 5.43056 5.28677 5.26763 5.31038L2.24662 5.74821L4.43634 7.87968C4.55435 7.99456 4.60823 8.16018 4.58038 8.3225L4.06393 11.3332L6.76748 9.91174C6.9133 9.83508 7.08752 9.83516 7.23326 9.91196L9.92803 11.332L9.41178 8.3225C9.38393 8.16018 9.43781 7.99456 9.55582 7.87968L11.7455 5.74821L8.72453 5.31038C8.5616 5.28677 8.42074 5.18446 8.34788 5.03683L6.99608 2.29776Z" fill="#DDA63C"/>
<path fill-rule="evenodd" clip-rule="evenodd" d="M6.99608 0.667969C7.1864 0.667969 7.36022 0.776019 7.44445 0.946688L9.12823 4.35844L12.893 4.90406C13.0814 4.93137 13.238 5.06335 13.2968 5.24445C13.3556 5.42556 13.3064 5.62435 13.17 5.75717L10.4419 8.41274L11.0851 12.1627C11.1173 12.3504 11.0401 12.54 10.886 12.6519C10.7319 12.7637 10.5277 12.7783 10.3592 12.6896L6.9999 10.9193L3.63251 12.6898C3.46405 12.7783 3.25991 12.7636 3.10594 12.6517C2.95196 12.5399 2.87485 12.3503 2.90703 12.1627L3.5503 8.41274L0.822157 5.75717C0.685709 5.62435 0.636547 5.42556 0.69536 5.24445C0.754173 5.06335 0.91075 4.93137 1.0992 4.90406L4.86393 4.35844L6.54771 0.946688C6.63194 0.776019 6.80576 0.667969 6.99608 0.667969Z" fill="#DDA63C"/>
</svg>
