<svg width="14" height="14" viewBox="0 0 14 14" fill="none" xmlns="http://www.w3.org/2000/svg">
<path d="M6.99999 0C3.134 0 0 3.134 0 6.99999C0 10.866 3.134 14 6.99999 14C10.866 14 14 10.866 14 6.99999C13.9959 3.13573 10.8643 0.00413086 6.99999 0ZM7.49999 6.99999C7.49999 7.27614 7.27614 7.49999 6.99999 7.49999H3C2.72385 7.49999 2.49999 7.27614 2.49999 6.99999C2.49999 6.72383 2.72385 6.49998 3 6.49998H6.50001V3C6.50001 2.72385 6.72386 2.49999 7.00001 2.49999C7.27617 2.49999 7.49999 2.72385 7.49999 3V6.99999Z" fill="black"/>
</svg>
