<svg width="11" height="14" viewBox="0 0 11 14" fill="none" xmlns="http://www.w3.org/2000/svg">
<path d="M5.154 0C2.31222 0 0 2.31222 0 5.15429C0 5.89561 0.151731 6.60341 0.450753 7.25819C1.7394 10.078 4.21009 13.0552 4.93679 13.9004C4.99124 13.9636 5.07062 14 5.15415 14C5.23768 14 5.31705 13.9636 5.3715 13.9004C6.09792 13.0554 8.56861 10.0783 9.85768 7.25819C10.1568 6.60341 10.3084 5.89561 10.3084 5.15429C10.3082 2.31222 7.99593 0 5.154 0ZM5.154 7.83144C3.67781 7.83144 2.47671 6.63034 2.47671 5.15415C2.47671 3.67781 3.67781 2.47671 5.154 2.47671C6.6302 2.47671 7.8313 3.67781 7.8313 5.15415C7.83144 6.63034 6.63034 7.83144 5.154 7.83144Z" fill="black"/>
</svg>
