<svg width="14" height="14" viewBox="0 0 14 14" fill="none" xmlns="http://www.w3.org/2000/svg">
<path d="M13.8055 3.06067L7.24593 8.14836C7.17303 8.20324 7.08652 8.23047 7 8.23047C6.91348 8.23047 6.82697 8.20324 6.75407 8.14836L0.194469 3.06067C0.0728438 3.25142 0 3.47621 0 3.71875V10.2813C0 10.9598 0.551961 11.5117 1.23047 11.5117H12.7695C13.448 11.5117 14 10.9598 14 10.2813V3.71875C14 3.47621 13.9272 3.25142 13.8055 3.06067Z" fill="black"/>
<path d="M12.7707 2.48828H1.23159C1.10532 2.48828 0.985855 2.51292 0.871094 2.54841L7.00113 7.30762L13.1312 2.54841C13.0164 2.51292 12.8969 2.48828 12.7707 2.48828Z" fill="black"/>
</svg>
