<svg xmlns="http://www.w3.org/2000/svg" width="1920" height="6460" fill="none"><path d="M352.141 3155.57v-3.91h1.008v2.9h1.418v-2.26h1.008v2.26h1.418v-2.9H358v3.91h-5.859z" fill="#fff" id="svg_1"/><path fill-rule="evenodd" clip-rule="evenodd" d="M358 3150.79v-1h-2.425v-1.31l2.425-.84v-1.07l-2.425.85-.84-.84h-1.754l-.84.84v3.37H358zm-4.851-1v-1.86l.34-.34h.738l.34.34v1.86h-1.418z" fill="#fff" id="svg_2"/><path fill-rule="evenodd" clip-rule="evenodd" d="M358 3145.71v-1h-2.425v-1.3l2.425-.84v-1.07l-2.425.84-.84-.84h-1.754l-.84.84v3.37H358zm-4.851-1v-1.86l.34-.34h.738l.34.34v1.86h-1.418z" fill="#fff" id="svg_3"/><path fill-rule="evenodd" clip-rule="evenodd" d="M357.161 3140.64l.839-.84v-2.54l-.839-.84h-4.18l-.84.84v2.54l.84.84h4.18zm-3.672-1.01l-.34-.34v-1.52l.34-.34h3.164l.34.34v1.52l-.34.34h-3.164z" fill="#fff" id="svg_4"/><path fill-rule="evenodd" clip-rule="evenodd" d="M358 3135.56v-1.01h-2.425v-1.3l2.425-.84v-1.07l-2.425.84-.84-.84h-1.754l-.84.84v3.38H358zm-4.851-1.01v-1.86l.34-.34h.738l.34.34v1.86h-1.418z" fill="#fff" id="svg_5"/><path d="M360.282 2888.13v-7.8h2.015v5.79h2.836v-4.52h2.016v4.52h2.836v-5.79H372v7.8h-11.718z" fill="#fff" id="svg_6"/><path d="M360.282 2878.59v-7.81h2.015v2.9H372v2.02h-9.703v2.89h-2.015z" fill="#fff" id="svg_7"/><path d="M360.282 2869.04v-2.02h4.851v-4.4h-4.851v-2.01H372v2.01h-4.851v4.4H372v2.02h-11.718z" fill="#fff" id="svg_8"/><path d="M370.321 2853.8l1.679-1.68v-5.07l-1.679-1.67h-3.508l-1.68 1.67v4.06l-.679.67h-1.477l-.688-.68v-3.03l.688-.68h.937v-2.01h-1.953l-1.679 1.67v5.07l1.679 1.68h3.508l1.68-1.68v-4.06l.687-.68h1.461l.688.69v3.04l-.68.68h-.937v2.01h1.953z" fill="#fff" id="svg_9"/><path d="M372 2838.43h-5.054l-6.664-3.51v2.22l4.328 2.29-4.328 2.3v2.22l6.64-3.5H372v-2.02z" fill="#fff" id="svg_10"/><path d="M370.321 2833.49l1.679-1.68v-5.07l-1.679-1.68h-3.508l-1.68 1.68v4.06l-.679.67h-1.477l-.688-.68v-3.03l.688-.68h.937v-2.02h-1.953l-1.679 1.68v5.07l1.679 1.68h3.508l1.68-1.68v-4.06l.687-.68h1.461l.688.69v3.04l-.68.68h-.937v2.01h1.953z" fill="#fff" id="svg_11"/><path d="M360.282 2823.34v-7.81h2.015v2.9H372v2.02h-9.703v2.89h-2.015z" fill="#fff" id="svg_12"/><path d="M360.282 2813.79v-7.81h2.015v5.79h2.836v-4.51h2.016v4.51h2.836v-5.79H372v7.81h-11.718z" fill="#fff" id="svg_13"/><path d="M360.282 2804.24v-2.88l7.797-2.74-7.797-2.73V2793l11.718.01v2.01h-8.351l8.351 2.73v1.74l-8.343 2.74H372v2.01h-11.718z" fill="#fff" id="svg_14"/><path d="M964.987 6145.81v7.32h-1.89v-2.72H954v-1.89h9.097v-2.71h1.89z" fill="#fff" id="svg_15"/><path fill-rule="evenodd" clip-rule="evenodd" d="M954 6154.76v1.89h4.549v2.44l-4.549 1.58v2l4.549-1.58 1.574 1.58h3.289l1.575-1.58v-6.33H954zm9.097 1.89v3.49l-.637.64h-1.384l-.638-.64v-3.49h2.659z" fill="#fff" id="svg_16"/><path d="M954 6164.28h10.987v2.77l-8.013 3.25h8.013v1.89H954v-2.75l7.998-3.27H954v-1.89z" fill="#fff" id="svg_17"/><path fill-rule="evenodd" clip-rule="evenodd" d="M949.25 6177v-96.5H653.793l-27.293-27.29v-336.42l26.293-26.29h-162l-36.293-36.29v-366.17l8.043-8.04H479.5v-193.5H189V2995h21.5V1990.5h210.308l15.5-14h39.905l13.5 14h280.725l80.439-20.48.061-.02H940v-9.71l10.5-10.5v-69.29h-85.207l-19.793-19.79v-30.42l19.793-19.79H950.5v-49H520.286l-10.148-10.66-.138-.14v-40.41l10.293-10.29h850.417l10.29 10.29v22.46h134.51v-116.54l-135.04-135.03-56.78 48.82h-122.51l-30.5 26H1034.5c-.28 0-.5-.22-.5-.5 0-.12.04-.23.11-.32a.5.5 0 01.39-.18h135.82l30.5-26h22.47l9-9h28.42l9 9h53.6l56.69-48.73V1395h-56.36l-108.5 64.5H1034.5c-.28 0-.5-.22-.5-.5s.22-.5.5-.5h180.36l108.5-64.5h56.91l9.57-11.49-9.56-10.51H511.669l30.545 32h229.412l94.111 50.56c.243.13.335.43.204.68a.502.502 0 01-.677.2L771.375 1405H541.786L510 1371.7v-111.92l10.808-9.78h399.485l10-10h19.211l.993-148.5h-99.415l-69.922 23.47-.078.03H.5c-.276 0-.5-.22-.5-.5s.224-.5.5-.5h480.318l9.5-8h40.865l9.5 8h240.235l69.923-23.47.078-.03h199.651l.07.02 79.93 23.48 385.44 2H1920c.11 0 .21.04.3.1.12.09.2.23.2.4 0 .28-.22.5-.5.5h-403.49v223.27l18 15V1383h-143.78l-9.73 11.68v85.61l48.71 48.71h13l18.29 18.29v13l55.51 55.51v195.41l-93.51 93.5v20.5l-21.79 21.8H1381V1988h332.5v3502.5h-197.99v-404h-385.09l-76.5-24H851.073l-80.43 23.98-.07.02H480.5v140h269.437l69.939-17.98.061-.02H859v-18.21l5.793-5.79h169.917l5.79 5.79v40.42l-5.79 5.79h-84.46v70.5c0 .28-.224.5-.5.5-.051 0-.1-.01-.146-.02a.56.56 0 01-.277-.21.51.51 0 01-.077-.27v-70.5h-84.457l-5.793-5.79v-21.21h-38.936l-69.939 17.98-.061.02H512.708l-7.5 7.5H480.5v46h-17.542l-7.458 7.46v365.33l35.708 35.71h603.082l36-36h288l14.71-14.71v-339.12l-14.74-18.67h-240.11l-18 11.5H1131v26.79l2.85 2.86c.2.19.2.51 0 .7-.19.2-.51.2-.7 0l-3.15-3.14V5280h288.74l15.15 19.19.11.14v339.88l-15.29 15.29h-288l-35 35h150l27.29 27.29v336.42l-27.29 27.29H950.25v44.04l21.25 21.25V6177h-22.25zm-295.042-486.5l-26.708 26.71v335.58l26.708 26.71h591.082l26.71-26.71v-335.58l-26.71-26.71H654.208zM211.5 2556v439h97.724l34.5 38.5h21.026v-113.29L347 2902.46v-124.67l17.75-17.75V2556H211.5zm154.25 477.5h21.027l34.5-38.5h88.719l-.498-55.22 10.81-9.78H950.5v-20.29l-9.5-9.5v-20.92l9.5-9.5v-29.29H520.293L510 2830.21v-130.42l10.293-10.29h409.94l10-15H950.5v-94h-99.574l-80.5-24.5H365.75v204.04l17.75 17.75v124.67l-17.75 17.75v113.29zm144.246-37.5h-88.272l-34.5 38.5H365.75v165h55.543l36-36H599.5V3061h-79.207l-10.794-10.79.497-54.21zM364.75 3107.54L343 3129.29v35.21h21.75v36H421v169.83l89.895 39.67H599.5v80.72l10 9v20.49l31.798 30.79H839.5v9.21l20.293 20.29h180.417l20.29-20.29V3551h366.63l53.37-29.71.5-140.29h47.5c.16 0 .3-.07.39-.19.04-.05.07-.1.09-.15.01-.05.02-.11.02-.16 0-.07-.01-.13-.04-.19-.01-.03-.03-.06-.04-.09a.52.52 0 00-.42-.22h-47.49v-130.76l35.5-28.5V2796h195.99v885.5h-269.29l-16-16h-43.42l-16 16h-237.22l-76.43-21.48-.07-.02H850.935l-.064.02-80.437 21.48H190V2996h118.777l34.5 38.5h21.473v73.04zm0 55.96v-54.54L344 3129.71v33.79h20.75zm92.957 1L422 3200.21v169.46l89.106 39.33H599.5v-79.21l10.301-9.79H1290.2l10.3 9.79v160.42l-9.79 9.79H610.5v19.79l31.203 30.21H839.5v-9.21l20.293-20.29h180.417l20.29 20.29v9.21h366.37l52.63-29.29.51-140.21v-131.74l35.5-28.5v-259.05l-34.8 34.79H1380.5v55.21l-9.79 9.79h-70.21v139.2l-20.29 20.8H620.293l-20.793-20.79v-35.71H457.707zM600.5 3490.28l9.692 8.72h680.098l9.21-9.21v-159.58l-9.7-9.21H610.2l-9.7 9.21v160.07zM1480.3 2995l35.21-35.21V2556h-384.94l-79.99 24.5H951.5v94h9.268l10 15h178.382l19.64-19.64h73.93l17.65 19.64h110.34l10.29 10.29v130.42l-10.29 10.29H951.5v29.29l9.5 9.5v20.92l-9.5 9.5V2930h419.21l9.79 9.79V2995h99.8zm120.7-439h-84.49v176.79l19.62 19.63 64.87-25.26v-32.95l-14.5-14.5v-34.42l14.5-14.5V2556zm-65.49 197.21l-19-19V2795h19v-41.79zm1 .13V2795h175.99v-239H1602v74.79l14.5 14.5v34.42l-14.5 14.5v33.63l-65.49 25.5zM1712.5 2555v-26.57l-41.54-6.43h-540.4l-80 20H850.938l-.061-.02-80.44-20.48H211.5v33.5h559.075l80.5 24.5h199.355l80-24.5h582.07zm0-27.58V1989h-582.06l-80-18H851.062l-80.438 20.48-.061.02H211.5v529h559.063l.061.02 80.439 20.48h199.377l80-20h540.6l41.46 6.42zM1130.56 1988H1380v-41.7l135.51-135.51v-77.04H1381v16.95l-.14.14-10.15 10.66H951.5v49h19.293l12-12h18.417l12 12h21.5l19.79 19.79v30.42l-19.79 19.79H951.5v69.29l10.5 10.5v9.71h88.56l80 18zm239.73-227.5l9.71-10.2v-39.59l-9.71-9.71H520.708l-9.708 9.71v39.59l9.715 10.2h849.575zm-387.082 39l-11 11h39.582l-11-11h-17.582zM961 1960.71l-10-10-10 10v9.29h20v-9.29zm654.5 685l-14-14-14 14v33.58l14 14 14-14v-33.58zm-446.29 25.15l-18.65 18.64h108.46l-16.74-18.64h-73.07zM960 2879.71l-9-9-9 9v20.08l9 9 9-9v-20.08zm419.5 171.08v-110.58l-9.21-9.21H520.693l-10.191 9.22.498 55.28-.498 54.29 10.206 10.21h849.582l9.21-9.21zm-80 149.01V3061h-260.29l-19.5 19.5H879.293l-19.5-19.5H600.5v138.79l20.208 20.21h659.082l19.71-20.2zm-280.21-120.3l18.5-18.5H861.208l18.5 18.5h139.582zM1712.5 3714v-31.5h-582.07l-.06-.02-76.44-21.48H851.066l-80.437 21.48-.063.02H190v31.5h580.432l80.434-22.48.066-.02h203.138l76.5 22.5h581.93zM190 3715v1340h580.423l80.426-25.48.074-.02h203.157l.08.03 76.42 25.47h581.92V3715h-192v145.25l-39.83 29.75H1410v199.7l-9.14 9.64-.14.16h-360.93l-.15-.16-9-9.5-.14-.14-3-274.88 12.27-14.82h360.95l9.28 10.31V3889h70.33l39.17-29.25V3715h-389.07l-76.5-22.5H851.069l-80.434 22.48-.066.02H381.5v144.75l38.668 29.25H489.5v-78.69l9.278-10.31h361.415l10.807 9.78v279.94l-10.807 9.78H498.785l-.148-.16-9.137-9.64V3890h-69.667L401 3875.76v351.94l19.237 10.36a.5.5 0 11-.474.88L401 4228.84v368.97l19.229 22.19H489.5v-160.22l20.309-18.28H950V4347h-90.207l-16.646-16.65a.492.492 0 010-.7c.195-.2.512-.2.707 0l16.354 16.35h179.582l16.36-16.35c.1-.11.23-.15.37-.15a.392.392 0 01.27.1c.03.01.05.03.06.05.2.19.2.51 0 .7l-16.64 16.65H951v94.5h400.71l18.29 18.29V4620h110c.28 0 .5.22.5.5s-.22.5-.5.5h-110v97.71L1261.71 4827H641v-206H419.772L400 4598.19V3875l-19.5-14.75V3715H190zm0 1341v29.5h580.427l80.431-23.98.069-.02h203.153l76.5 24h581.92V5056h-582.08l-.08-.03-76.42-25.47H851.078l-80.427 25.48-.073.02H190zm1522.5 30.5h-195.99v320h95.99v-42.29l-7-7v-35.42l7.5-7.5 7.5 7.5v35.42l-7 7v125.29h99v-403zm-100 321h-95.99v62.5h95.99v-62.5zm-67.71 63.5h-28.28v18.09l28.28-18.09zm67.71 18.5h-94.78l28.93-18.5h65.85v18.5zm-6-132.71l6.5 6.5 6.5-6.5v-34.58l-6.5-6.5-6.5 6.5v34.58zm-1116-896.57V4620H950v-177.5H510.192l-19.692 17.72zM951 4442.5V4620h418v-159.79l-17.71-17.71H951zm418 178.5v97.29L1261.29 4826H642v-205h727zm.21-939.5h72.58l-15-15h-42.58l-15 15zM382.5 2778.21l-17.25-17.25-17.25 17.25v123.83l17.25 17.25 17.25-17.25v-123.83zm54.193-800.71l-14.393 13h66.024l-12.536-13h-39.095zM1232.71 1521l-8 8h43.58l-8-8h-27.58zM1381 1371.31l9.72 10.69h124.79v-265l-385.01-2h-.07l-.07-.02-79.93-23.48h-98.933l-.993 148.5h20.211l9.501 10 169.144.64h.43l20.5-20.5h70.42l20.5 20.5h110l9.79 9.65v111.02zm135.51-29.74V1382h17v-26.27l-17-14.16zm-345.8-110.43l-19.5 19.5h108.58l-19.5-19.5h-69.58zM511 1371h869v-110.29l-9.2-9.07h-221.45l-169.565-.64-9.499-10h-39.578l-10 10H521.193L511 1260.22V1371zm-20.317-264l-8.313 7h56.76l-8.312-7h-40.135zm951.607 423h-11.58l29.29 29.29v-11.58l-17.71-17.71zM1422 1924.8v-19.09l-40.29 40.3h19.08l21.21-21.21zM480.5 5227.5v6.5h24.293l6.5-6.5H480.5zm679.35 64l16.44-10.5H1131v10.5h28.85zM970.5 6146.21l-20.25-20.25V6176h20.25v-29.79zM860 5230.29l5.208 5.21h169.082l5.21-5.21v-39.58l-5.21-5.21H865.208l-5.208 5.21v39.58zM490.5 4089.3l8.716 9.2h360.592l10.192-9.22v-279.06l-10.192-9.22H499.223l-8.723 9.69v278.61zm541 0l8.72 9.2h360.07l8.71-9.2v-278.61l-8.72-9.69h-360.04l-11.74 14.18 3 274.12zm-191-529.51l19.708 19.71h179.582l19.71-19.71v-18.58l-19.71-19.71H860.208l-19.708 19.71v18.58zm-329.5-730l9.708 9.71h849.582l9.71-9.71v-129.58l-9.71-9.71H970.233l-10-15h-19.465l-10 15h-410.06l-9.708 9.71v129.58zm335.5-969.5l19.208 19.21h168.582l19.21-19.21v-29.58l-19.21-19.21H865.708l-19.208 19.21v29.58z" fill="#fff" id="svg_18"/><path fill-rule="evenodd" clip-rule="evenodd" d="M0 1620.5c-.276 0-.5-.22-.5-.5s.224-.5.5-.5h440.311l69.858-61.81.012-.01.013-.01 22.135-17.17h41.828l22.672 15.71 33.859-27.1.137-.11h63.468l9-9h57.415l9 9H865c.276 0 .5.22.5.5s-.224.5-.5.5H631.176l-33.489 26.81 33.47 23.19H865c.276 0 .5.22.5.5a.5.5 0 01-.5.5H630.844l-.128-.09-33.844-23.45-22.559 18.06-.137.1h-41.847l-21.808-16.91-69.831 61.79H0zm573.825-45.88l22.19-17.76-22.171-15.36h-41.173l-21.355 16.56 21.355 16.56h41.154zM703.708 1521l-8 8h72.585l-8-8h-56.585z" fill="#fff" id="svg_19"/><path fill-rule="evenodd" clip-rule="evenodd" d="M185.5 1082V889.5h-71.176l-.137-.11L78.5 860.74V608.5h231.735l10.5-15.5h50.038l10 15.5h128.311l24-130.151h873.276l109.5-69.203h134.65V.113c0-.277.22-.5.5-.5.27 0 .5.223.5.5V244.5H1920c.28 0 .5.224.5.5s-.22.5-.5.5h-268.49v164.646h-135.36L1407 479.125v100.299h100.24l9.65 11.759.11.138V602.5h312v241h-311.71l36.55 33.632.16.149V997h77v25.29l59.71 59.71h-560.27l-.07-.02-79.93-20.98H851.065l-80.5 21H185.5zm1-192.5V1081h583.936l80.438-20.98.062-.02h199.624l.07.02 79.93 20.98h384.5l-10.56-15.34v-56.86l11.01-11.501V843.5H1407v34.231l-.18.15L1330.18 943H533.126l-24-82H324.658l-40.37 28.409-.129.091H186.5zm1319 175.84l10.01 14.55v-81.144l-10.01 10.454v56.14zm11.01 14.44l36.49-57.43V877.72l-36.49-33.58v235.64zm171.78 1.22h-171.37l36.86-58h76.51l58 58zM1554 998v24h76v-24h-76zm-148-120.731v-34.017l-21-15.5V595.753l21-16.076v-99.994l-68.76 36.758a.503.503 0 01-.48-.882l67.74-36.21H535.291L597 516.718v369.004L534.798 942h795.022l76.18-64.731zm1.61-296.845l19.61 22.076H1516v-10.821l-9.24-11.255h-99.15zm-1.17.18L1386 596.247v231.001l20.66 15.252H1828v-239h-401.22l-20.34-22.896zM596 517.282l-62-37.546v461.638l62-56.096V517.282zm-63 421.73l-23-78.584V711.174h23v227.838zM509 860V609.5H79.5v250.76l35.176 28.24h169.166l40.371-28.409.129-.091H509zm24-375.683l-23 124.729v101.128h23V484.317zM321.266 594l-9.823 14.5h68.14l-9.355-14.5h-48.962z" fill="#fff" id="svg_20"/><path fill-rule="evenodd" clip-rule="evenodd" d="M-56 124.5a.5.5 0 010-1h646.217L720.703 250H730v-9.707L750.293 220h400.417l19.79 19.793v9.707h233.26l102.5-126h144.43c.28 0 0 .224 0 .5s.09 1-.18 1l-143.77-.5-102.5 126H1170.5v9.704l-19.79 20.296H951v14h419.2l9.8 9.285v116.922l-9.79 9.793h-330.06l-20 13.5H879.847l-20-13.5H529.293L520 421.207V303.793l9.293-9.293H950v-14H750.293L730 260.207V251h-9.702L589.812 124.5H423.76l-10.887 11.463h-50.607L351.378 124.5H-56zm468.443 10.463l9.938-10.463h-69.624l9.938 10.463h49.748zM529.707 295.5L521 304.207v116.586l8.707 8.707h330.446l20 13.5h139.697l20-13.5h329.94l9.21-9.207V304.215l-9.2-8.715H529.707zm221-74.5L731 240.707v19.086l19.707 19.707h399.583l19.21-19.703v-19.59L1150.29 221H750.707z" fill="#fff" id="svg_21"/><path d="M1580.43 1007.14h3.91v1.01h-2.9v1.42h2.26v1h-2.26v1.42h2.9v1.01h-3.91v-5.86z" fill="#fff" id="svg_22"/><path fill-rule="evenodd" clip-rule="evenodd" d="M1585.21 1013h1v-2.43h1.31l.84 2.43h1.07l-.85-2.43.84-.84v-1.75l-.84-.84h-3.37v5.86zm1-4.85h1.86l.34.34v.74l-.34.34h-1.86v-1.42z" fill="#fff" id="svg_23"/><path fill-rule="evenodd" clip-rule="evenodd" d="M1590.29 1013h1v-2.43h1.3l.84 2.43h1.07l-.84-2.43.84-.84v-1.75l-.84-.84h-3.37v5.86zm1-4.85h1.86l.34.34v.74l-.34.34h-1.86v-1.42z" fill="#fff" id="svg_24"/><path fill-rule="evenodd" clip-rule="evenodd" d="M1595.36 1012.16l.84.84h2.54l.84-.84v-4.18l-.84-.84h-2.54l-.84.84v4.18zm1.01-3.67l.34-.34h1.52l.34.34v3.16l-.34.34h-1.52l-.34-.34v-3.16z" fill="#fff" id="svg_25"/><path fill-rule="evenodd" clip-rule="evenodd" d="M1600.44 1013h1.01v-2.43h1.3l.84 2.43h1.07l-.84-2.43.84-.84v-1.75l-.84-.84h-3.38v5.86zm1.01-4.85h1.86l.34.34v.74l-.34.34h-1.86v-1.42z" fill="#fff" id="svg_26"/><path d="M1802.41 508.718l-.84-.84v-4.18l.84-.839h2.53l.84.839v1.063h-1.01v-.555l-.34-.343h-1.51l-.34.343v3.164l.33.34h1.52l.34-.344v-.55h1.01v1.062l-.84.84h-2.53z" fill="#fff" id="svg_27"/><path d="M1809.25 506.191v2.527h-1v-2.539l-1.76-3.32h1.11l1.15 2.164 1.15-2.164h1.11l-1.76 3.332z" fill="#fff" id="svg_28"/><path d="M1815.1 508.718l-.84-.84v-.976h1.01v.468l.34.34h1.52l.34-.344v-.73l-.34-.344h-2.03l-.84-.84v-1.754l.84-.839h2.54l.84.839v.977h-1.01v-.469l-.34-.343h-1.52l-.34.343v.739l.34.339h2.03l.84.84v1.754l-.84.84h-2.54z" fill="#fff" id="svg_29"/><path d="M1820.78 502.859h-1.44v5.859h1.01v-4.172l1.36 4.172h.88l1.36-4.176v4.176h1.01v-5.859h-1.44l-1.37 3.898-1.37-3.898z" fill="#fff" id="svg_30"/><path fill-rule="evenodd" clip-rule="evenodd" d="M1919.97 468.614a.497.497 0 00.09-.701.497.497 0 00-.7-.091l-9.88 7.624v7.772h-42.61l-13.74 12h-57.44l-17.24 18.693 17.24 17.932h74.2l17.07-18.547h22.52v10.329l11.75 11.753v38.11c0 .277.23.5.5.5.28 0 .5-.223.5-.5v-38.525l-11.75-11.752v-9.915h10.18v-1h-10.18v-28.078h19.15c.28 0 .5-.224.5-.5s-.22-.5-.5-.5h-19.15v-7.28l9.49-7.324zm-123.84 27.604h55.85l-20.03 17.5h-51.82c-.06 0-.12.012-.18.033l16.18-17.533zm-15.52 18.5l15.51 16.125h73.33l16.6-18.033-16.59-16.592h-15.96l-21.18 18.5h-51.71zm86.63-30.5l-12.59 11h15.22l17.08 17.078h22.53v-28.078h-42.24z" fill="#fff" id="svg_31"/><path d="M80.274 265l-.84-.84v-4.179l.84-.84h2.535l.84.84v1.062H82.64v-.555l-.34-.343h-1.516l-.34.343v3.164l.336.34h1.52l.34-.344v-.55h1.008v1.062l-.84.84h-2.535z" fill="#fff" id="svg_32"/><path d="M87.121 262.473V265h-1.008v-2.539l-1.754-3.32h1.11l1.152 2.164 1.145-2.164h1.11l-1.755 3.332z" fill="#fff" id="svg_33"/><path d="M92.969 265l-.84-.84v-.976h1.008v.468l.34.34h1.52l.343-.344v-.73l-.34-.344h-2.03l-.84-.84v-1.753l.84-.84h2.535l.84.84v.976h-1.008v-.469l-.34-.343h-1.515l-.34.343v.739l.336.339h2.027l.84.84v1.754l-.84.84H92.97z" fill="#fff" id="svg_34"/><path d="M98.649 259.141h-1.442V265h1.008v-4.172L99.582 265h.871l1.364-4.176V265h1.007l.004-5.859h-1.445l-1.367 3.898-1.367-3.898z" fill="#fff" id="svg_35"/><path fill-rule="evenodd" clip-rule="evenodd" d="M.167 225.195a.5.5 0 00.09.701l9.495 7.324V240H-27v1H9.752v27.624H-17.5v1H9.752v10.869L-2 292.246v38.524a.5.5 0 101 0v-38.11l11.752-11.753v-11.283h5.45l17.078 18.547h74.191l17.248-17.932-17.242-18.692H49.804L36.427 240H10.752v-7.272l-9.884-7.624a.5.5 0 00-.701.091zm50.796 27.352h56.076l16.206 17.569H71.317l-20.354-17.569zm71.526 18.569H70.945l-21.513-18.569H33.706l-16.592 16.592 16.604 18.032h73.327l15.444-16.055zm-74.215-19.569L36.055 241H10.752v27.624h5.462l17.078-17.077h14.982z" fill="#fff" id="svg_36"/><path d="M1799.96 3982.36l-.84-.84v-4.18l.84-.84h2.54l.84.84v1.06h-1.01v-.55l-.34-.35h-1.52l-.34.35v3.16l.34.34h1.52l.34-.34v-.55h1.01v1.06l-.84.84h-2.54z" fill="#fff" id="svg_37"/><path d="M1806.81 3979.83v2.53h-1.01v-2.54l-1.75-3.32h1.11l1.15 2.16 1.14-2.16h1.11l-1.75 3.33z" fill="#fff" id="svg_38"/><path d="M1812.66 3982.36l-.84-.84v-.98h1v.47l.34.34h1.52l.35-.34v-.73l-.34-.35h-2.03l-.84-.84v-1.75l.84-.84h2.53l.84.84v.97h-1.01v-.46l-.34-.35h-1.51l-.34.35v.73l.33.34h2.03l.84.84v1.76l-.84.84h-2.53z" fill="#fff" id="svg_39"/><path d="M1818.34 3976.5h-1.45v5.86h1.01v-4.17l1.37 4.17h.87l1.36-4.18v4.18h1.01l.01-5.86h-1.45l-1.37 3.9-1.36-3.9z" fill="#fff" id="svg_40"/><path fill-rule="evenodd" clip-rule="evenodd" d="M1920.41 3940.91c.22-.16.28-.47.12-.7a.508.508 0 00-.7-.12l-12.8 8.98v7.79h-42.61l-13.74 12h-57.44l-17.24 18.69 17.25 17.93h74.19l17.08-18.54h22.51v10.32l13.62 13.62c.19.19.51.19.7 0 .2-.2.2-.51 0-.71l-13.32-13.32v-9.91h10.19v-1h-10.19v-28.08h19.16c.27 0 .5-.23.5-.5 0-.28-.23-.5-.5-.5h-19.16v-7.27l12.38-8.68zm-126.73 28.95h55.86l-20.04 17.5h-51.81c-.07 0-.13.01-.18.03l16.17-17.53zm-15.52 18.5l15.51 16.12H1867l16.61-18.03-16.6-16.59h-15.95l-21.19 18.5h-51.71zm86.64-30.5l-12.6 11h15.23l17.08 17.08h22.52v-28.08h-42.23z" fill="#fff" id="svg_41"/><path d="M98.774 4813.36l-.84-.84v-4.18l.84-.84h2.535l.84.84v1.06h-1.008v-.55l-.34-.35h-1.516l-.34.35v3.16l.336.34h1.52l.34-.34v-.55h1.008v1.06l-.84.84h-2.535z" fill="#fff" id="svg_42"/><path d="M105.621 4810.83v2.53h-1.008v-2.54l-1.753-3.32h1.109l1.152 2.16 1.145-2.16h1.109l-1.754 3.33z" fill="#fff" id="svg_43"/><path d="M111.469 4813.36l-.84-.84v-.98h1.008v.47l.34.34h1.519l.344-.34v-.73l-.34-.35h-2.031l-.84-.84v-1.75l.84-.84h2.535l.84.84v.98h-1.008v-.47l-.34-.35h-1.515l-.34.35v.74l.336.34h2.027l.84.84v1.75l-.84.84h-2.535z" fill="#fff" id="svg_44"/><path d="M117.149 4807.5h-1.442v5.86h1.008v-4.17l1.367 4.17h.871l1.364-4.18v4.18h1.007l.004-5.86h-1.445l-1.367 3.9-1.367-3.9z" fill="#fff" id="svg_45"/><path fill-rule="evenodd" clip-rule="evenodd" d="M.78 4771.91a.504.504 0 01-.123-.7c.159-.22.47-.28.697-.12l12.8 8.98v7.79h42.61l13.74 12h57.441l17.242 18.69-17.248 17.93H53.748l-17.078-18.54H14.154v10.35L.5 4840.23V4878c0 .28-.224.5-.5.5s-.5-.22-.5-.5v-38.23l13.654-11.94v-9.89H-7v-1h20.154v-28.08H-6c-.276 0-.5-.22-.5-.5s.224-.5.5-.5h19.154v-7.27L.78 4771.91zm126.727 28.95H71.65l20.038 17.5H143.5c.063 0 .124.01.179.03l-16.172-17.53zm15.516 18.5l-15.51 16.12H54.186l-16.604-18.03 16.592-16.59h15.955l21.184 18.5h51.71zm-86.634-30.5l12.595 11H53.76l-17.078 17.08H14.154v-28.08H56.39z" fill="#fff" id="svg_46"/><path d="M93.774 6227.36l-.84-.84v-4.18l.84-.84h2.535l.84.84v1.06H96.14v-.55l-.34-.35h-1.516l-.34.35v3.16l.336.34h1.52l.34-.34v-.55h1.008v1.06l-.84.84h-2.535z" fill="#fff" id="svg_47"/><path d="M100.621 6224.83v2.53h-1.008v-2.54l-1.754-3.32h1.11l1.152 2.16 1.145-2.16h1.109l-1.754 3.33z" fill="#fff" id="svg_48"/><path d="M106.469 6227.36l-.84-.84v-.98h1.008v.47l.34.34h1.519l.344-.34v-.73l-.34-.35h-2.031l-.84-.84v-1.75l.84-.84h2.535l.84.84v.98h-1.008v-.47l-.34-.35h-1.515l-.34.35v.74l.336.34h2.027l.84.84v1.75l-.84.84h-2.535z" fill="#fff" id="svg_49"/><path d="M112.149 6221.5h-1.442v5.86h1.008v-4.17l1.367 4.17h.871l1.364-4.18v4.18h1.007l.004-5.86h-1.445l-1.367 3.9-1.367-3.9z" fill="#fff" id="svg_50"/><path fill-rule="evenodd" clip-rule="evenodd" d="M-4.22 6185.91a.504.504 0 01-.123-.7c.159-.22.47-.28.697-.12l12.8 8.98v7.79h42.61l13.74 12h57.441l17.242 18.69-17.248 17.93H48.748l-17.078-18.54H9.154v10.35L-4.5 6254.23V6292c0 .28-.224.5-.5.5s-.5-.22-.5-.5v-38.23l13.654-11.94v-9.89H-12v-1H8.154v-28.08H-11c-.276 0-.5-.22-.5-.5s.224-.5.5-.5H8.154v-7.27l-12.375-8.68zm126.727 28.95H66.65l20.038 17.5H138.5c.063 0 .124.01.179.03l-16.172-17.53zm15.516 18.5l-15.51 16.12H49.186l-16.604-18.03 16.592-16.59h15.955l21.184 18.5h51.71zm-86.634-30.5l12.595 11H48.76l-17.078 17.08H9.154v-28.08H51.39z" fill="#fff" id="svg_51"/><path d="M441.239 4394.04l15.957 15.96h39.929l11.059 11.21 12.098-12.17-6.977-6.91 8.016-8.09v-79.41l-15.957-15.96h-48.168l-15.957 15.96v79.41zm19.148-69.76l6.457-6.46h28.871l6.457 6.46v60.11l-3.265 3.34-17.739-17.73-12.172 12.09 8.684 8.76h-10.836l-6.457-6.46v-60.11z" fill="#fff" id="svg_52"/><path d="M617.953 4382.69h-9.574V4410h-19.074v-27.31h-51.211v-19l51.211-64.87h19.074v64.87h9.574v19zm-28.648-19v-35.26l-28.277 35.26h28.277z" fill="#fff" id="svg_53"/><path d="M861.239 4949.04l15.957 15.96h39.929l11.059 11.21 12.097-12.17-6.976-6.91 8.016-8.09v-79.41l-15.957-15.96h-48.168l-15.957 15.96v79.41zm19.148-69.76l6.457-6.46h28.871l6.457 6.46v60.11l-3.266 3.34-17.738-17.73-12.172 12.09 8.684 8.76h-10.836l-6.457-6.46v-60.11z" fill="#fff" id="svg_54"/><path d="M1037.8 4945.85V4965h-80.077v-47.05l15.957-15.96h38.52l6.38-6.46v-16.25l-6.45-6.53h-28.802l-6.457 6.53v8.9h-19.148v-18.55l15.957-15.96h48.17l15.95 15.96v35.55l-15.95 15.96h-38.596l-6.383 6.53v18.18h60.929z" fill="#fff" id="svg_55"/><path d="M1354.24 4394.04l15.96 15.96h39.93l11.05 11.21 12.1-12.17-6.98-6.91 8.02-8.09v-79.41l-15.96-15.96h-48.16l-15.96 15.96v79.41zm19.15-69.76l6.45-6.46h28.88l6.45 6.46v60.11l-3.26 3.34-17.74-17.73-12.17 12.09 8.68 8.76h-10.84l-6.45-6.46v-60.11z" fill="#fff" id="svg_56"/><path d="M1447.68 4298.67h27.09V4410h-19.15v-92.18h-7.94v-19.15z" fill="#fff" id="svg_57"/><path d="M1394.43 3671.14h3.91v1.01h-2.9v1.42h2.26v1h-2.26v1.42h2.9v1.01h-3.91v-5.86z" fill="#fff" id="svg_58"/><path d="M1399.21 3677h1.01v-2.43h1.3l.84 2.43h1.07l-.85-2.43.84-.84v-1.75l-.84-.84h-3.37v5.86zm1.01-4.85h1.85l.34.34v.74l-.34.34h-1.85v-1.42z" fill="#fff" id="svg_59"/><path d="M1404.29 3677h1v-2.43h1.3l.84 2.43h1.07l-.84-2.43.84-.84v-1.75l-.84-.84h-3.37v5.86zm1-4.85h1.86l.34.34v.74l-.34.34h-1.86v-1.42z" fill="#fff" id="svg_60"/><path d="M1409.36 3676.16l.84.84h2.54l.84-.84v-4.18l-.84-.84h-2.54l-.84.84v4.18zm1.01-3.67l.34-.34h1.52l.34.34v3.16l-.34.34h-1.52l-.34-.34v-3.16z" fill="#fff" id="svg_61"/><path d="M1414.44 3677h1.01v-2.43h1.3l.84 2.43h1.07l-.84-2.43.84-.84v-1.75l-.84-.84h-3.38v5.86zm1.01-4.85h1.86l.34.34v.74l-.34.34h-1.86v-1.42z" fill="#fff" id="svg_62"/><path d="M1195.43 2677.14h3.91v1.01h-1.45v4.85h-1.01v-4.85h-1.45v-1.01z" fill="#fff" id="svg_63"/><path d="M1200.21 2677.14h3.9v1.01h-2.89v1.42h2.25v1h-2.25v1.42h2.89v1.01h-3.9v-5.86z" fill="#fff" id="svg_64"/><path d="M1204.72 2683l1.75-5.86h1.26l1.74 5.86h-1.05l-.39-1.29h-1.87l-.39 1.29h-1.05zm1.73-2.3h1.29l-.65-2.18-.64 2.18z" fill="#fff" id="svg_65"/><path d="M1210.08 2677.14h1.44l1.37 3.9 1.37-3.9h1.44v5.86h-1.01v-4.18l-1.36 4.18h-.87l-1.37-4.17v4.17h-1.01v-5.86z" fill="#fff" id="svg_66"/><path d="M1597.43 2666.16l.84.84h2.54l.84-.84v-1.06h-1.01v.55l-.34.34h-1.52l-.33-.34v-3.16l.34-.35h1.51l.34.35v.55h1.01v-1.06l-.84-.84h-2.54l-.84.84v4.18z" fill="#fff" id="svg_67"/><path d="M1605.12 2667v-2.53l1.76-3.33h-1.11l-1.15 2.16-1.15-2.16h-1.11l1.75 3.32v2.54h1.01z" fill="#fff" id="svg_68"/><path d="M1520.43 2774.16l.84.84h2.54l.84-.84v-1.75l-.84-.84h-2.37v-1.09l.35-.34h1.51l.34.34v.48h1.01v-.98l-.84-.84h-2.54l-.84.84v4.18zm1.01-1.59h1.86l.34.34v.74l-.34.34h-1.52l-.34-.34v-1.08z" fill="#fff" id="svg_69"/><path d="M1525.51 2774.16l.84.84h2.54l.84-.84v-2.09l-.84-.84h-2.29v-1.08h2.97v-1.01h-3.98v3.09h2.79l.34.35v1.07l-.34.34h-1.52l-.34-.34v-.47h-1.01v.98z" fill="#fff" id="svg_70"/><path d="M382.326 132v-4.394h1.104l1.301 3.205v-3.205h.756V132h-1.099l-1.307-3.199V132h-.755z" fill="#fff" id="svg_71"/><path d="M386.134 127.606h2.927v.755h-2.171v1.064h1.693v.756h-1.693V132h-.756v-4.394z" fill="#fff" id="svg_72"/><path d="M389.714 127.606h2.927v.755h-1.087V132h-.756v-3.639h-1.084v-.755z" fill="#fff" id="svg_73"/><path d="M1521.84 1354.43l-.84.84v2.54l.84.84h1.75l.84-.84v-2.37h1.09l.34.35v1.51l-.34.34h-.48v1.01h.98l.84-.84v-2.54l-.84-.84h-4.18zm1.59 1.01v1.86l-.34.34h-.74l-.34-.34v-1.52l.34-.34h1.08z" fill="#fff" id="svg_74"/><path d="M1521.84 1359.51l-.84.84v2.54l.84.84h2.09l.84-.84v-2.29h1.08v2.97h1.01v-3.98h-3.09v2.79l-.35.34h-1.07l-.34-.34v-1.52l.34-.34h.47v-1.01h-.98z" fill="#fff" id="svg_75"/><path d="M1522.44 1371.35v-.5H1521v-1.01h1.44v-2.69h1l3.41 2.69v1.01h-3.41v.5h-1zm1-1.51h1.85l-1.85-1.48v1.48z" fill="#fff" id="svg_76"/><path d="M1521.84 1372.21l-.84.84v2.54l.84.84h2.09l.84-.84v-2.29h1.08v2.97h1.01v-3.98h-3.09v2.8l-.35.34h-1.07l-.34-.34v-1.53l.34-.34h.47v-1.01h-.98z" fill="#fff" id="svg_77"/><path d="M1464.65 592.992V594h-4.22v-2.476l.84-.84h2.03l.34-.34v-.856l-.34-.343h-1.52l-.34.343v.469h-1.01v-.976l.84-.84h2.54l.84.84v1.871l-.84.84h-2.03l-.34.343v.957h3.21z" fill="#fff" id="svg_78"/><path d="M1465.51 592.918h1.08V594h-1.08v-1.082z" fill="#fff" id="svg_79"/><path d="M1467.47 593.16l.83.84h2.54l.84-.84v-4.179l-.84-.84h-2.54l-.83.84v4.179zm1-3.672l.34-.339h1.52l.34.339v3.164l-.34.34h-1.52l-.34-.34v-3.164z" fill="#fff" id="svg_80"/><path d="M754 221a3 3 0 11-6 0 3 3 0 016 0z" fill="#fff" id="svg_81"/><path d="M734 241a3 3 0 11-6 0 3 3 0 016 0z" fill="#fff" id="svg_82"/><path d="M734 261a3 3 0 11-6 0 3 3 0 016 0z" fill="#fff" id="svg_83"/><path d="M1153 220c0 1.657-1.34 3-3 3s-3-1.343-3-3 1.34-3 3-3 3 1.343 3 3z" fill="#fff" id="svg_84"/><path d="M1173 241c0 1.657-1.34 3-3 3s-3-1.343-3-3 1.34-3 3-3 3 1.343 3 3z" fill="#fff" id="svg_85"/><path d="M1173 259c0 1.657-1.34 3-3 3s-3-1.343-3-3 1.34-3 3-3 3 1.343 3 3z" fill="#fff" id="svg_86"/><path d="M1153 280c0 1.657-1.34 3-3 3s-3-1.343-3-3 1.34-3 3-3 3 1.343 3 3z" fill="#fff" id="svg_87"/><path d="M593 124a3 3 0 11-6 0 3 3 0 016 0z" fill="#fff" id="svg_88"/><path d="M416 135a3 3 0 11-6 0 3 3 0 016 0z" fill="#fff" id="svg_89"/><path d="M365 135a3 3 0 11-6 0 3 3 0 016 0z" fill="#fff" id="svg_90"/><path d="M39 241a3 3 0 11-6 0 3 3 0 016 0z" fill="#fff" id="svg_91"/><path d="M37 252a3 3 0 11-6 0 3 3 0 016 0z" fill="#fff" id="svg_92"/><path d="M74 270a3 3 0 11-6 0 3 3 0 016 0z" fill="#fff" id="svg_93"/><path d="M37 287a3 3 0 11-6 0 3 3 0 016 0z" fill="#fff" id="svg_94"/><path d="M110 287a3 3 0 11-6 0 3 3 0 016 0z" fill="#fff" id="svg_95"/><path d="M110 252a3 3 0 11-6 0 3 3 0 016 0z" fill="#fff" id="svg_96"/><path d="M13 233a3 3 0 11-6 0 3 3 0 016 0z" fill="#fff" id="svg_97"/><path d="M13 281a3 3 0 11-6 0 3 3 0 016 0z" fill="#fff" id="svg_98"/><path d="M754 280a3 3 0 11-6 0 3 3 0 016 0z" fill="#fff" id="svg_99"/><path d="M533 295a3 3 0 11-6 0 3 3 0 016 0z" fill="#fff" id="svg_100"/><path d="M524 304a3 3 0 11-6 0 3 3 0 016 0z" fill="#fff" id="svg_101"/><path d="M524 421a3 3 0 11-6 0 3 3 0 016 0z" fill="#fff" id="svg_102"/><path d="M533 430a3 3 0 11-6 0 3 3 0 016 0z" fill="#fff" id="svg_103"/><path d="M1518 410c0 1.657-1.34 3-3 3s-3-1.343-3-3 1.34-3 3-3 3 1.343 3 3z" fill="#fff" id="svg_104"/><path d="M1406 250c0 1.657-1.34 3-3 3s-3-1.343-3-3 1.34-3 3-3 3 1.343 3 3z" fill="#fff" id="svg_105"/><path d="M1510 125c0 1.657-1.34 3-3 3s-3-1.343-3-3 1.34-3 3-3 3 1.343 3 3z" fill="#fff" id="svg_106"/><path d="M1653 409c0 1.657-1.34 3-3 3s-3-1.343-3-3 1.34-3 3-3 3 1.343 3 3z" fill="#fff" id="svg_107"/><path d="M1556 877c0 1.657-1.34 3-3 3s-3-1.343-3-3 1.34-3 3-3 3 1.343 3 3z" fill="#fff" id="svg_108"/><path d="M1508 1009c0 1.66-1.34 3-3 3s-3-1.34-3-3 1.34-3 3-3 3 1.34 3 3z" fill="#fff" id="svg_109"/><path d="M1633 997c0 1.657-1.34 3-3 3s-3-1.343-3-3 1.34-3 3-3 3 1.343 3 3z" fill="#fff" id="svg_110"/><path d="M1332 942c0 1.657-1.34 3-3 3s-3-1.343-3-3 1.34-3 3-3 3 1.343 3 3z" fill="#fff" id="svg_111"/><path d="M1409 876c0 1.657-1.34 3-3 3s-3-1.343-3-3 1.34-3 3-3 3 1.343 3 3z" fill="#fff" id="svg_112"/><path d="M1388 827c0 1.657-1.34 3-3 3s-3-1.343-3-3 1.34-3 3-3 3 1.343 3 3z" fill="#fff" id="svg_113"/><path d="M1508 1065c0 1.66-1.34 3-3 3s-3-1.34-3-3 1.34-3 3-3 3 1.34 3 3z" fill="#fff" id="svg_114"/><path d="M324.434 603.16l.84.84h2.535l.84-.84v-5.019h-1.008l.004 4.508-.344.343h-1.519l-.336-.34v-4.511h-1.012v5.019z" fill="#fff" id="svg_115"/><path d="M329.512 604h1.008v-2.426h2.367l.84-.84v-1.753l-.84-.84h-3.375V604zm1.008-4.851h1.859l.34.339v.739l-.34.34h-1.859v-1.418z" fill="#fff" id="svg_116"/><path d="M334.59 604h3.375l.84-.84v-4.179l-.84-.84h-3.375V604zm1.008-4.851h1.859l.34.339v3.164l-.34.34h-1.859v-3.843z" fill="#fff" id="svg_117"/><path d="M339.41 604l1.747-5.859h1.257l1.743 5.859h-1.047l-.391-1.293h-1.875l-.383 1.293h-1.051zm1.723-2.301h1.297l-.648-2.175-.649 2.175z" fill="#fff" id="svg_118"/><path d="M343.793 598.141h3.903v1.008h-1.45V604h-1.007v-4.851h-1.446v-1.008z" fill="#fff" id="svg_119"/><path d="M348.567 598.141h3.902v1.008h-2.894v1.418h2.257v1.007h-2.257v1.418h2.894V604h-3.902v-5.859z" fill="#fff" id="svg_120"/><path d="M360.094 602.992V604h-4.215v-2.476l.84-.84h2.027l.336-.34v-.856l-.34-.343h-1.515l-.34.343v.469h-1.008v-.976l.84-.84h2.535l.84.84v1.871l-.84.84h-2.031l-.336.343v.957h3.207z" fill="#fff" id="svg_121"/><path d="M360.957 602.918h1.082V604h-1.082v-1.082z" fill="#fff" id="svg_122"/><path d="M362.91 603.16l.84.84h2.535l.84-.84v-4.179l-.84-.84h-2.535l-.84.84v4.179zm1.008-3.672l.34-.339h1.52l.339.339v3.164l-.339.34h-1.52l-.34-.34v-3.164z" fill="#fff" id="svg_123"/><path d="M287 888a3 3 0 11-6 0 3 3 0 016 0z" fill="#fff" id="svg_124"/><path d="M118 888a3 3 0 11-6 0 3 3 0 016 0z" fill="#fff" id="svg_125"/><path d="M82 860a3 3 0 11-6 0 3 3 0 016 0z" fill="#fff" id="svg_126"/><path d="M82 609a3 3 0 11-6 0 3 3 0 016 0z" fill="#fff" id="svg_127"/><path d="M327 860a3 3 0 11-6 0 3 3 0 016 0z" fill="#fff" id="svg_128"/><path d="M1173 1230c0 1.66-1.34 3-3 3s-3-1.34-3-3 1.34-3 3-3 3 1.34 3 3z" fill="#fff" id="svg_129"/><path d="M1242 1230c0 1.66-1.34 3-3 3s-3-1.34-3-3 1.34-3 3-3 3 1.34 3 3z" fill="#fff" id="svg_130"/><path d="M971.959 1240.5c0 1.66-1.343 3-3 3s-3-1.34-3-3 1.343-3 3-3 3 1.34 3 3z" fill="#fff" id="svg_131"/><path d="M933.5 1240.5c0 1.66-1.343 3-3 3s-3-1.34-3-3 1.343-3 3-3 3 1.34 3 3z" fill="#fff" id="svg_132"/><path d="M854 1091c0 1.66-1.343 3-3 3s-3-1.34-3-3 1.343-3 3-3 3 1.34 3 3z" fill="#fff" id="svg_133"/><path d="M851 1060c0 1.66-1.343 3-3 3s-3-1.34-3-3 1.343-3 3-3 3 1.34 3 3z" fill="#fff" id="svg_134"/><path d="M1054 1060c0 1.66-1.34 3-3 3s-3-1.34-3-3 1.34-3 3-3 3 1.34 3 3z" fill="#fff" id="svg_135"/><path d="M1054 1091c0 1.66-1.34 3-3 3s-3-1.34-3-3 1.34-3 3-3 3 1.34 3 3z" fill="#fff" id="svg_136"/><path d="M784 1114c0 1.66-1.343 3-3 3s-3-1.34-3-3 1.343-3 3-3 3 1.34 3 3z" fill="#fff" id="svg_137"/><path d="M773 1081c0 1.66-1.343 3-3 3s-3-1.34-3-3 1.343-3 3-3 3 1.34 3 3z" fill="#fff" id="svg_138"/><path d="M924 1250c0 1.66-1.343 3-3 3s-3-1.34-3-3 1.343-3 3-3 3 1.34 3 3z" fill="#fff" id="svg_139"/><path d="M983.5 1250.5c0 1.66-1.343 3-3 3s-3-1.34-3-3 1.343-3 3-3 3 1.34 3 3z" fill="#fff" id="svg_140"/><path d="M1383 1260c0 1.66-1.34 3-3 3s-3-1.34-3-3 1.34-3 3-3 3 1.34 3 3z" fill="#fff" id="svg_141"/><path d="M1373 1251c0 1.66-1.34 3-3 3s-3-1.34-3-3 1.34-3 3-3 3 1.34 3 3z" fill="#fff" id="svg_142"/><path d="M1536 1355c0 1.66-1.34 3-3 3s-3-1.34-3-3 1.34-3 3-3 3 1.34 3 3z" fill="#fff" id="svg_143"/><path d="M1519 1381c0 1.66-1.34 3-3 3s-3-1.34-3-3 1.34-3 3-3 3 1.34 3 3z" fill="#fff" id="svg_144"/><path d="M1536 1381c0 1.66-1.34 3-3 3s-3-1.34-3-3 1.34-3 3-3 3 1.34 3 3z" fill="#fff" id="svg_145"/><path d="M514 1260.17c0 1.66-1.343 3-3 3s-3-1.34-3-3 1.343-3 3-3 3 1.34 3 3z" fill="#fff" id="svg_146"/><path d="M524.101 1250.77c0 1.66-1.343 3-3 3s-3-1.34-3-3c0-1.65 1.343-3 3-3s3 1.35 3 3z" fill="#fff" id="svg_147"/><path d="M1185.18 1244l1.74-5.86h1.26l1.74 5.86h-1.04l-.4-1.29h-1.87l-.38 1.29h-1.05zm1.72-2.3h1.3l-.65-2.18-.65 2.18z" fill="#fff" id="svg_148"/><path d="M1190.54 1244h3.37l.84-.84v-1.57l-.52-.52.52-.52v-1.57l-.84-.84h-3.37v5.86zm1-4.85h1.86l.34.34v.74l-.34.34h-1.86v-1.42zm0 2.42h1.86l.34.34v.74l-.34.34h-1.86v-1.42z" fill="#fff" id="svg_149"/><path d="M1195.61 1243.16l.84.84h2.54l.84-.84v-4.18l-.84-.84h-2.54l-.84.84v4.18zm1.01-3.67l.34-.34h1.52l.34.34v3.16l-.34.34h-1.52l-.34-.34v-3.16z" fill="#fff" id="svg_150"/><path d="M1200.69 1243.16l.84.84h2.54l.84-.84v-5.02h-1.01v4.51l-.34.34h-1.52l-.34-.34v-4.51h-1.01v5.02z" fill="#fff" id="svg_151"/><path d="M1205.77 1238.14h3.9v1.01h-1.45v4.85h-1v-4.85h-1.45v-1.01z" fill="#fff" id="svg_152"/><path d="M1213.08 1243.16l.84.84h2.54l.84-.84v-5.02h-1.01v4.51l-.34.34h-1.52l-.34-.34v-4.51h-1.01v5.02z" fill="#fff" id="svg_153"/><path d="M1218.16 1243.16l.84.84h2.54l.84-.84v-1.75l-.84-.84h-2.03l-.34-.34v-.74l.34-.35h1.52l.34.35v.47h1.01v-.98l-.84-.84H1219l-.84.84v1.75l.84.84h2.03l.34.35v.73l-.34.34h-1.52l-.34-.34v-.47h-1.01v.98z" fill="#fff" id="svg_154"/><path d="M372 593a3 3 0 11-6 0 3 3 0 016 0z" fill="#fff" id="svg_155"/><path d="M324 593a3 3 0 11-6 0 3 3 0 016 0z" fill="#fff" id="svg_156"/><path d="M1387.5 597c0 1.657-1.34 3-3 3s-3-1.343-3-3 1.34-3 3-3 3 1.343 3 3z" fill="#fff" id="svg_157"/><path d="M1341 516c0 1.657-1.34 3-3 3s-3-1.343-3-3 1.34-3 3-3 3 1.343 3 3z" fill="#fff" id="svg_158"/><path d="M1510 580c0 1.657-1.34 3-3 3s-3-1.343-3-3 1.34-3 3-3 3 1.343 3 3z" fill="#fff" id="svg_159"/><path d="M1519 591c0 1.657-1.34 3-3 3s-3-1.343-3-3 1.34-3 3-3 3 1.343 3 3z" fill="#fff" id="svg_160"/><path d="M1873 496c0 1.657-1.34 3-3 3s-3-1.343-3-3 1.34-3 3-3 3 1.343 3 3z" fill="#fff" id="svg_161"/><path d="M1870 484c0 1.657-1.34 3-3 3s-3-1.343-3-3 1.34-3 3-3 3 1.343 3 3z" fill="#fff" id="svg_162"/><path d="M1799 496c0 1.657-1.34 3-3 3s-3-1.343-3-3 1.34-3 3-3 3 1.343 3 3z" fill="#fff" id="svg_163"/><path d="M1799 531c0 1.657-1.34 3-3 3s-3-1.343-3-3 1.34-3 3-3 3 1.343 3 3z" fill="#fff" id="svg_164"/><path d="M1873 531c0 1.657-1.34 3-3 3s-3-1.343-3-3 1.34-3 3-3 3 1.343 3 3z" fill="#fff" id="svg_165"/><path d="M1831.5 603.5c0 1.657-1.34 3-3 3s-3-1.343-3-3 1.34-3 3-3 3 1.343 3 3z" fill="#fff" id="svg_166"/><path d="M1831.5 841.959c0 1.656-1.34 3-3 3s-3-1.344-3-3c0-1.657 1.34-3 3-3s3 1.343 3 3z" fill="#fff" id="svg_167"/><path d="M1836 514c0 1.657-1.34 3-3 3s-3-1.343-3-3 1.34-3 3-3 3 1.343 3 3z" fill="#fff" id="svg_168"/><path d="M1914 476c0 1.657-1.34 3-3 3s-3-1.343-3-3 1.34-3 3-3 3 1.343 3 3z" fill="#fff" id="svg_169"/><path d="M1914 523c0 1.657-1.34 3-3 3s-3-1.343-3-3 1.34-3 3-3 3 1.343 3 3z" fill="#fff" id="svg_170"/><path d="M1326 1529c0 1.66-1.34 3-3 3s-3-1.34-3-3 1.34-3 3-3 3 1.34 3 3z" fill="#fff" id="svg_171"/><path d="M1383 1480c0 1.66-1.34 3-3 3s-3-1.34-3-3 1.34-3 3-3 3 1.34 3 3z" fill="#fff" id="svg_172"/><path d="M1327 1394c0 1.66-1.34 3-3 3s-3-1.34-3-3 1.34-3 3-3 3 1.34 3 3z" fill="#fff" id="svg_173"/><path d="M1218 1459c0 1.66-1.34 3-3 3s-3-1.34-3-3 1.34-3 3-3 3 1.34 3 3z" fill="#fff" id="svg_174"/><path d="M1204 1530c0 1.66-1.34 3-3 3s-3-1.34-3-3 1.34-3 3-3 3 1.34 3 3z" fill="#fff" id="svg_175"/><path d="M1173 1555c0 1.66-1.34 3-3 3s-3-1.34-3-3 1.34-3 3-3 3 1.34 3 3z" fill="#fff" id="svg_176"/><path d="M444 1619c0 1.66-1.343 3-3 3s-3-1.34-3-3 1.343-3 3-3 3 1.34 3 3z" fill="#fff" id="svg_177"/><path d="M535 1574c0 1.66-1.343 3-3 3s-3-1.34-3-3 1.343-3 3-3 3 1.34 3 3z" fill="#fff" id="svg_178"/><path d="M535 1541c0 1.66-1.343 3-3 3s-3-1.34-3-3 1.343-3 3-3 3 1.34 3 3z" fill="#fff" id="svg_179"/><path d="M576 1541c0 1.66-1.343 3-3 3s-3-1.34-3-3 1.343-3 3-3 3 1.34 3 3z" fill="#fff" id="svg_180"/><path d="M634.5 1530c0 1.66-1.343 3-3 3s-3-1.34-3-3 1.343-3 3-3 3 1.34 3 3z" fill="#fff" id="svg_181"/><path d="M545 1404c0 1.66-1.343 3-3 3s-3-1.34-3-3 1.343-3 3-3 3 1.34 3 3z" fill="#fff" id="svg_182"/><path d="M773.83 1405c0 1.66-1.343 3-3 3s-3-1.34-3-3 1.343-3 3-3 3 1.34 3 3z" fill="#fff" id="svg_183"/><path d="M633 1580c0 1.66-1.343 3-3 3s-3-1.34-3-3 1.343-3 3-3 3 1.34 3 3z" fill="#fff" id="svg_184"/><path d="M524 1700c0 1.66-1.343 3-3 3s-3-1.34-3-3 1.343-3 3-3 3 1.34 3 3z" fill="#fff" id="svg_185"/><path d="M514 1710c0 1.66-1.343 3-3 3s-3-1.34-3-3 1.343-3 3-3 3 1.34 3 3z" fill="#fff" id="svg_186"/><path d="M513 1750c0 1.66-1.343 3-3 3s-3-1.34-3-3 1.343-3 3-3 3 1.34 3 3z" fill="#fff" id="svg_187"/><path d="M523 1760c0 1.66-1.343 3-3 3s-3-1.34-3-3 1.343-3 3-3 3 1.34 3 3z" fill="#fff" id="svg_188"/><path d="M576 1574c0 1.66-1.343 3-3 3s-3-1.34-3-3 1.343-3 3-3 3 1.34 3 3z" fill="#fff" id="svg_189"/><path d="M532.434 1555.14h3.902v1.01h-2.894v1.42h2.258v1h-2.258v1.42h2.894v1.01h-3.902v-5.86z" fill="#fff" id="svg_190"/><path d="M537.207 1555.14h3.903v1.01h-1.45v4.85h-1.007v-4.85h-1.446v-1.01z" fill="#fff" id="svg_191"/><path d="M541.981 1555.14h1.008v2.43h2.199v-2.43h1.008v5.86h-1.008v-2.43h-2.199v2.43h-1.008v-5.86z" fill="#fff" id="svg_192"/><path d="M547.059 1555.14h3.902v1.01h-2.894v1.42h2.258v1h-2.258v1.42h2.894v1.01h-3.902v-5.86z" fill="#fff" id="svg_193"/><path d="M551.832 1561h1.008v-2.43h1.301l.84 2.43h1.07l-.844-2.43.84-.84v-1.75l-.84-.84h-3.375v5.86zm1.008-4.85h1.86l.339.34v.74l-.339.34h-1.86v-1.42z" fill="#fff" id="svg_194"/><path d="M556.91 1555.14h3.903v1.01h-2.895v1.42h2.258v1h-2.258v1.42h2.895v1.01h-3.903v-5.86z" fill="#fff" id="svg_195"/><path d="M561.684 1560.16l.84.84h2.535l.84-.84v-5.02h-1.008l.004 4.51-.344.34h-1.519l-.336-.34v-4.51h-1.012v5.02z" fill="#fff" id="svg_196"/><path d="M566.762 1555.14h1.441l1.368 3.9 1.367-3.9h1.445l-.004 5.86h-1.008v-4.18l-1.363 4.18h-.871l-1.367-4.17v4.17h-1.008v-5.86z" fill="#fff" id="svg_197"/><path d="M720.271 1525.48l.525.52h1.584l.525-.52v-.67h-.63v.35l-.212.21h-.95l-.21-.21v-1.98l.213-.21h.947l.212.21v.35h.63v-.67l-.525-.52h-1.584l-.525.52v2.62z" fill="#fff" id="svg_198"/><path d="M723.445 1525.48l.525.52h1.584l.525-.52v-2.62l-.525-.52h-1.584l-.525.52v2.62zm.63-2.3l.212-.21h.95l.212.21v1.98l-.212.21h-.95l-.212-.21v-1.98z" fill="#fff" id="svg_199"/><path d="M726.619 1526v-3.66h.92l1.084 2.67v-2.67h.63v3.66h-.916l-1.088-2.67v2.67h-.63z" fill="#fff" id="svg_200"/><path d="M729.793 1526v-3.66h.92l1.084 2.67v-2.67h.63v3.66h-.916l-1.089-2.67v2.67h-.629z" fill="#fff" id="svg_201"/><path d="M732.966 1522.34h2.439v.63h-1.809v.88h1.411v.63h-1.411v.89h1.809v.63h-2.439v-3.66z" fill="#fff" id="svg_202"/><path d="M735.95 1525.48l.525.52h1.584l.525-.52v-.67h-.63v.35l-.212.21h-.95l-.21-.21v-1.98l.212-.21h.948l.212.21v.35h.63v-.67l-.525-.52h-1.584l-.525.52v2.62z" fill="#fff" id="svg_203"/><path d="M739.124 1522.34h2.439v.63h-.906v3.03h-.63v-3.03h-.903v-.63z" fill="#fff" id="svg_204"/><path d="M1241.33 1522.61h2.92v.75h-2.17v1.06h1.69v.76h-1.69v1.06h2.17v.76h-2.92v-4.39z" fill="#fff" id="svg_205"/><path d="M1244.91 1522.61h2.92v.75h-1.08v3.64h-.76v-3.64h-1.08v-.75z" fill="#fff" id="svg_206"/><path d="M1248.49 1522.61h.75v1.81h1.65v-1.81h.76v4.39h-.76v-1.82h-1.65v1.82h-.75v-4.39z" fill="#fff" id="svg_207"/><path d="M868 1454.5a2.5 2.5 0 11-5 0 2.5 2.5 0 015 0z" fill="#fff" id="svg_208"/><path d="M868 1529.5a2.5 2.5 0 11-5 0 2.5 2.5 0 015 0z" fill="#fff" id="svg_209"/><path d="M868 1579.5a2.5 2.5 0 11-5 0 2.5 2.5 0 015 0z" fill="#fff" id="svg_210"/><path d="M1036 1554.5a2.5 2.5 0 01-5 0 2.5 2.5 0 015 0z" fill="#fff" id="svg_211"/><path d="M1037 1458.5a2.5 2.5 0 01-5 0 2.5 2.5 0 015 0z" fill="#fff" id="svg_212"/><path d="M1373 1760c0 1.66-1.34 3-3 3s-3-1.34-3-3 1.34-3 3-3 3 1.34 3 3z" fill="#fff" id="svg_213"/><path d="M1383 1750c0 1.66-1.34 3-3 3s-3-1.34-3-3 1.34-3 3-3 3 1.34 3 3z" fill="#fff" id="svg_214"/><path d="M1518 1732c0 1.66-1.34 3-3 3s-3-1.34-3-3 1.34-3 3-3 3 1.34 3 3z" fill="#fff" id="svg_215"/><path d="M1518 1616c0 1.66-1.34 3-3 3s-3-1.34-3-3 1.34-3 3-3 3 1.34 3 3z" fill="#fff" id="svg_216"/><path d="M1383 1710c0 1.66-1.34 3-3 3s-3-1.34-3-3 1.34-3 3-3 3 1.34 3 3z" fill="#fff" id="svg_217"/><path d="M1373 1700c0 1.66-1.34 3-3 3s-3-1.34-3-3 1.34-3 3-3 3 1.34 3 3z" fill="#fff" id="svg_218"/><path d="M868 1811c0 1.66-1.343 3-3 3s-3-1.34-3-3 1.343-3 3-3 3 1.34 3 3z" fill="#fff" id="svg_219"/><path d="M849 1830c0 1.66-1.343 3-3 3s-3-1.34-3-3 1.343-3 3-3 3 1.34 3 3z" fill="#fff" id="svg_220"/><path d="M849 1860c0 1.66-1.343 3-3 3s-3-1.34-3-3 1.343-3 3-3 3 1.34 3 3z" fill="#fff" id="svg_221"/><path d="M869 1879c0 1.66-1.343 3-3 3s-3-1.34-3-3 1.343-3 3-3 3 1.34 3 3z" fill="#fff" id="svg_222"/><path d="M1038 1879c0 1.66-1.34 3-3 3s-3-1.34-3-3 1.34-3 3-3 3 1.34 3 3z" fill="#fff" id="svg_223"/><path d="M964 1961c0 1.66-1.343 3-3 3s-3-1.34-3-3 1.343-3 3-3 3 1.34 3 3z" fill="#fff" id="svg_224"/><path d="M944 1961c0 1.66-1.343 3-3 3s-3-1.34-3-3 1.343-3 3-3 3 1.34 3 3z" fill="#fff" id="svg_225"/><path d="M855 1970c0 1.66-1.343 3-3 3s-3-1.34-3-3 1.343-3 3-3 3 1.34 3 3z" fill="#fff" id="svg_226"/><path d="M775 1991c0 1.66-1.343 3-3 3s-3-1.34-3-3 1.343-3 3-3 3 1.34 3 3z" fill="#fff" id="svg_227"/><path d="M1053 1970c0 1.66-1.34 3-3 3s-3-1.34-3-3 1.34-3 3-3 3 1.34 3 3z" fill="#fff" id="svg_228"/><path d="M1134 1989c0 1.66-1.34 3-3 3s-3-1.34-3-3 1.34-3 3-3 3 1.34 3 3z" fill="#fff" id="svg_229"/><path d="M1054 2541c0 1.66-1.34 3-3 3s-3-1.34-3-3 1.34-3 3-3 3 1.34 3 3z" fill="#fff" id="svg_230"/><path d="M1054 2579c0 1.66-1.34 3-3 3s-3-1.34-3-3 1.34-3 3-3 3 1.34 3 3z" fill="#fff" id="svg_231"/><path d="M1172 2671c0 1.66-1.34 3-3 3s-3-1.34-3-3 1.34-3 3-3 3 1.34 3 3z" fill="#fff" id="svg_232"/><path d="M1246 2671c0 1.66-1.34 3-3 3s-3-1.34-3-3 1.34-3 3-3 3 1.34 3 3z" fill="#fff" id="svg_233"/><path d="M964 2675c0 1.66-1.343 3-3 3s-3-1.34-3-3 1.343-3 3-3 3 1.34 3 3z" fill="#fff" id="svg_234"/><path d="M944 2675c0 1.66-1.343 3-3 3s-3-1.34-3-3 1.343-3 3-3 3 1.34 3 3z" fill="#fff" id="svg_235"/><path d="M934 2690c0 1.66-1.343 3-3 3s-3-1.34-3-3 1.343-3 3-3 3 1.34 3 3z" fill="#fff" id="svg_236"/><path d="M973 2690c0 1.66-1.343 3-3 3s-3-1.34-3-3 1.343-3 3-3 3 1.34 3 3z" fill="#fff" id="svg_237"/><path d="M854 2541c0 1.66-1.343 3-3 3s-3-1.34-3-3 1.343-3 3-3 3 1.34 3 3z" fill="#fff" id="svg_238"/><path d="M854 2580c0 1.66-1.343 3-3 3s-3-1.34-3-3 1.343-3 3-3 3 1.34 3 3z" fill="#fff" id="svg_239"/><path d="M773 2521c0 1.66-1.343 3-3 3s-3-1.34-3-3 1.343-3 3-3 3 1.34 3 3z" fill="#fff" id="svg_240"/><path d="M773 2556c0 1.66-1.343 3-3 3s-3-1.34-3-3 1.343-3 3-3 3 1.34 3 3z" fill="#fff" id="svg_241"/><path d="M1134 2521c0 1.66-1.34 3-3 3s-3-1.34-3-3 1.34-3 3-3 3 1.34 3 3z" fill="#fff" id="svg_242"/><path d="M1134 2555c0 1.66-1.34 3-3 3s-3-1.34-3-3 1.34-3 3-3 3 1.34 3 3z" fill="#fff" id="svg_243"/><path d="M1403 1946c0 1.66-1.34 3-3 3s-3-1.34-3-3 1.34-3 3-3 3 1.34 3 3z" fill="#fff" id="svg_244"/><path d="M1425 1925c0 1.66-1.34 3-3 3s-3-1.34-3-3 1.34-3 3-3 3 1.34 3 3z" fill="#fff" id="svg_245"/><path d="M1518 1811c0 1.66-1.34 3-3 3s-3-1.34-3-3 1.34-3 3-3 3 1.34 3 3z" fill="#fff" id="svg_246"/><path d="M1056 1860c0 1.66-1.34 3-3 3s-3-1.34-3-3 1.34-3 3-3 3 1.34 3 3z" fill="#fff" id="svg_247"/><path d="M1056 1830c0 1.66-1.34 3-3 3s-3-1.34-3-3 1.34-3 3-3 3 1.34 3 3z" fill="#fff" id="svg_248"/><path d="M1037 1811c0 1.66-1.34 3-3 3s-3-1.34-3-3 1.34-3 3-3 3 1.34 3 3z" fill="#fff" id="svg_249"/><path d="M982.434 1802.14h3.902v1.01h-1.449v4.85h-1.008v-4.85h-1.445v-1.01z" fill="#fff" id="svg_250"/><path d="M987.207 1802.14h1.008v5.86h-1.008v-5.86z" fill="#fff" id="svg_251"/><path d="M989.082 1802.14h1.442l1.367 3.9 1.367-3.9h1.445l-.004 5.86h-1.007v-4.18l-1.364 4.18h-.871l-1.367-4.17v4.17h-1.008v-5.86z" fill="#fff" id="svg_252"/><path d="M995.567 1802.14h3.902v1.01h-2.895v1.42h2.258v1h-2.258v1.42h2.895v1.01h-3.902v-5.86z" fill="#fff" id="svg_253"/><path d="M1439.38 1535.03v.89l1.35 1.34h.89l.56-.56-.53-.54-.3.3h-.36l-.8-.81v-.36l1.68-1.67.36-.01.8.81v.36l-.29.29.53.54.56-.56v-.89l-1.34-1.35h-.89l-2.22 2.22z" fill="#fff" id="svg_254"/><path d="M1443.01 1539.55l1.34-1.34 2.7-.84-.59-.59-1.75.54.54-1.75-.59-.59-.83 2.69-1.35 1.35.53.53z" fill="#fff" id="svg_255"/><path d="M1446.12 1541.76v.89l1.34 1.35h.89l.93-.93v-.9l-1.07-1.07v-.36l.39-.39h.36l.81.8-.01.36-.25.25.54.54.52-.52v-.89l-1.35-1.35h-.89l-.93.93v.89l1.08 1.08v.36l-.39.39h-.36l-.81-.8v-.36l.25-.25-.54-.54-.51.52z" fill="#fff" id="svg_256"/><path d="M1451.47 1541.79l.76.77-1.34 2.79 2.8-1.34.76.76-3.11 3.11-.53-.54 2.21-2.21-2.94 1.49-.46-.46 1.49-2.94-2.21 2.21-.54-.53 3.11-3.11z" fill="#fff" id="svg_257"/><path d="M1452.25 1547.89v.89l1.34 1.35h.89l.83-.83v-.56h.56l.83-.83v-.89l-1.35-1.34h-.89l-.83.83v.55h-.55l-.83.83zm2.48-1.41h.36l.81.81v.36l-.4.39h-.36l-.8-.81v-.36l.39-.39zm-1.29 1.29h.36l.81.8v.36l-.39.39h-.36l-.81-.8v-.36l.39-.39z" fill="#fff" id="svg_258"/><path d="M448.434 1987v-5.86h1.473l1.734 4.27v-4.27h1.008v5.86h-1.465l-1.742-4.27v4.27h-1.008z" fill="#fff" id="svg_259"/><path d="M453.512 1981.14h3.902v1.01h-2.894v1.42h2.258v1h-2.258v2.43h-1.008v-5.86z" fill="#fff" id="svg_260"/><path d="M458.285 1981.14h3.903v1.01h-1.449v4.85h-1.008v-4.85h-1.446v-1.01z" fill="#fff" id="svg_261"/><path d="M523 2691c0 1.66-1.343 3-3 3s-3-1.34-3-3 1.343-3 3-3 3 1.34 3 3z" fill="#fff" id="svg_262"/><path d="M514 2700c0 1.66-1.343 3-3 3s-3-1.34-3-3 1.343-3 3-3 3 1.34 3 3z" fill="#fff" id="svg_263"/><path d="M514 2830c0 1.66-1.343 3-3 3s-3-1.34-3-3 1.343-3 3-3 3 1.34 3 3z" fill="#fff" id="svg_264"/><path d="M386 2902c0 1.66-1.343 3-3 3s-3-1.34-3-3 1.343-3 3-3 3 1.34 3 3z" fill="#fff" id="svg_265"/><path d="M386 2779c0 1.66-1.343 3-3 3s-3-1.34-3-3 1.343-3 3-3 3 1.34 3 3z" fill="#fff" id="svg_266"/><path d="M351 2779c0 1.66-1.343 3-3 3s-3-1.34-3-3 1.343-3 3-3 3 1.34 3 3z" fill="#fff" id="svg_267"/><path d="M351 2902c0 1.66-1.343 3-3 3s-3-1.34-3-3 1.343-3 3-3 3 1.34 3 3z" fill="#fff" id="svg_268"/><path d="M524 2840c0 1.66-1.343 3-3 3s-3-1.34-3-3 1.343-3 3-3 3 1.34 3 3z" fill="#fff" id="svg_269"/><path d="M1373 2840c0 1.66-1.34 3-3 3s-3-1.34-3-3 1.34-3 3-3 3 1.34 3 3z" fill="#fff" id="svg_270"/><path d="M1383 2830c0 1.66-1.34 3-3 3s-3-1.34-3-3 1.34-3 3-3 3 1.34 3 3z" fill="#fff" id="svg_271"/><path d="M1373 2931c0 1.66-1.34 3-3 3s-3-1.34-3-3 1.34-3 3-3 3 1.34 3 3z" fill="#fff" id="svg_272"/><path d="M1383 2940c0 1.66-1.34 3-3 3s-3-1.34-3-3 1.34-3 3-3 3 1.34 3 3z" fill="#fff" id="svg_273"/><path d="M1519 2960c0 1.66-1.34 3-3 3s-3-1.34-3-3 1.34-3 3-3 3 1.34 3 3z" fill="#fff" id="svg_274"/><path d="M1483 2995c0 1.66-1.34 3-3 3s-3-1.34-3-3 1.34-3 3-3 3 1.34 3 3z" fill="#fff" id="svg_275"/><path d="M1604 2727c0 1.66-1.34 3-3 3s-3-1.34-3-3 1.34-3 3-3 3 1.34 3 3z" fill="#fff" id="svg_276"/><path d="M1619 2680c0 1.66-1.34 3-3 3s-3-1.34-3-3 1.34-3 3-3 3 1.34 3 3z" fill="#fff" id="svg_277"/><path d="M1619 2645c0 1.66-1.34 3-3 3s-3-1.34-3-3 1.34-3 3-3 3 1.34 3 3z" fill="#fff" id="svg_278"/><path d="M1590 2645c0 1.66-1.34 3-3 3s-3-1.34-3-3 1.34-3 3-3 3 1.34 3 3z" fill="#fff" id="svg_279"/><path d="M1590 2680c0 1.66-1.34 3-3 3s-3-1.34-3-3 1.34-3 3-3 3 1.34 3 3z" fill="#fff" id="svg_280"/><path d="M1383 3050c0 1.66-1.34 3-3 3s-3-1.34-3-3 1.34-3 3-3 3 1.34 3 3z" fill="#fff" id="svg_281"/><path d="M1373 3060c0 1.66-1.34 3-3 3s-3-1.34-3-3 1.34-3 3-3 3 1.34 3 3z" fill="#fff" id="svg_282"/><path d="M1373 2690c0 1.66-1.34 3-3 3s-3-1.34-3-3 1.34-3 3-3 3 1.34 3 3z" fill="#fff" id="svg_283"/><path d="M1383 2700c0 1.66-1.34 3-3 3s-3-1.34-3-3 1.34-3 3-3 3 1.34 3 3z" fill="#fff" id="svg_284"/><path d="M523 2931c0 1.66-1.343 3-3 3s-3-1.34-3-3 1.343-3 3-3 3 1.34 3 3z" fill="#fff" id="svg_285"/><path d="M514 2940c0 1.66-1.343 3-3 3s-3-1.34-3-3 1.343-3 3-3 3 1.34 3 3z" fill="#fff" id="svg_286"/><path d="M513 3049c0 1.66-1.343 3-3 3s-3-1.34-3-3 1.343-3 3-3 3 1.34 3 3z" fill="#fff" id="svg_287"/><path d="M523 3060c0 1.66-1.343 3-3 3s-3-1.34-3-3 1.343-3 3-3 3 1.34 3 3z" fill="#fff" id="svg_288"/><path d="M461 3164c0 1.66-1.343 3-3 3s-3-1.34-3-3 1.343-3 3-3 3 1.34 3 3z" fill="#fff" id="svg_289"/><path d="M425 3200c0 1.66-1.343 3-3 3s-3-1.34-3-3 1.343-3 3-3 3 1.34 3 3z" fill="#fff" id="svg_290"/><path d="M368 3200c0 1.66-1.343 3-3 3s-3-1.34-3-3 1.343-3 3-3 3 1.34 3 3z" fill="#fff" id="svg_291"/><path d="M347 3164c0 1.66-1.343 3-3 3s-3-1.34-3-3 1.343-3 3-3 3 1.34 3 3z" fill="#fff" id="svg_292"/><path d="M347 3129c0 1.66-1.343 3-3 3s-3-1.34-3-3 1.343-3 3-3 3 1.34 3 3z" fill="#fff" id="svg_293"/><path d="M347 3034c0 1.66-1.343 3-3 3s-3-1.34-3-3 1.343-3 3-3 3 1.34 3 3z" fill="#fff" id="svg_294"/><path d="M389 3034c0 1.66-1.343 3-3 3s-3-1.34-3-3 1.343-3 3-3 3 1.34 3 3z" fill="#fff" id="svg_295"/><path d="M425 2996c0 1.66-1.343 3-3 3s-3-1.34-3-3 1.343-3 3-3 3 1.34 3 3z" fill="#fff" id="svg_296"/><path d="M312 2996c0 1.66-1.343 3-3 3s-3-1.34-3-3 1.343-3 3-3 3 1.34 3 3z" fill="#fff" id="svg_297"/><path d="M883 3080c0 1.66-1.343 3-3 3s-3-1.34-3-3 1.343-3 3-3 3 1.34 3 3z" fill="#fff" id="svg_298"/><path d="M1023 3080c0 1.66-1.34 3-3 3s-3-1.34-3-3 1.34-3 3-3 3 1.34 3 3z" fill="#fff" id="svg_299"/><path d="M1373 295c0 1.657-1.34 3-3 3s-3-1.343-3-3 1.34-3 3-3 3 1.343 3 3z" fill="#fff" id="svg_300"/><path d="M1382 304c0 1.657-1.34 3-3 3s-3-1.343-3-3 1.34-3 3-3 3 1.343 3 3z" fill="#fff" id="svg_301"/><path d="M1382 420c0 1.657-1.34 3-3 3s-3-1.343-3-3 1.34-3 3-3 3 1.343 3 3z" fill="#fff" id="svg_302"/><path d="M1373 430c0 1.657-1.34 3-3 3s-3-1.343-3-3 1.34-3 3-3 3 1.343 3 3z" fill="#fff" id="svg_303"/><path d="M888.434 3071.85l.84.84h2.535l.84-.84v-1.44l-.84-.84h-2.145l-.257-.27v-.58l.261-.26h1.75l.262.26v.39h.969v-.82l-.84-.84h-2.535l-.84.84v1.44l.84.84h2.148l.262.27v.57l-.262.27h-1.758l-.257-.27-.004-.38-.969-.01v.83zm1.652 1.54h.903v-6.64h-.903v6.64z" fill="#fff" id="svg_304"/><path d="M896.112 3071.85l.84.84h2.535l.84-.84v-1.44l-.84-.84h-2.145l-.257-.27v-.58l.261-.26h1.75l.262.26v.39h.969v-.82l-.84-.84h-2.535l-.84.84v1.44l.84.84h2.148l.262.27v.57l-.262.27h-1.758l-.257-.27-.004-.38-.969-.01v.83zm1.652 1.54h.903v-6.64h-.903v6.64z" fill="#fff" id="svg_305"/><path d="M903.79 3071.85l.84.84h2.535l.84-.84v-1.44l-.84-.84h-2.144l-.258-.27v-.58l.262-.26h1.75l.261.26v.39h.969v-.82l-.84-.84h-2.535l-.84.84v1.44l.84.84h2.148l.262.27v.57l-.262.27h-1.757l-.258-.27-.004-.38-.969-.01v.83zm1.653 1.54h.902v-6.64h-.902v6.64z" fill="#fff" id="svg_306"/><path d="M911.468 3071.85l.84.84h2.535l.84-.84v-1.44l-.84-.84h-2.144l-.258-.27v-.58l.262-.26h1.75l.261.26v.39h.969v-.82l-.84-.84h-2.535l-.84.84v1.44l.84.84h2.149l.261.27v.57l-.261.27h-1.758l-.258-.27-.004-.38-.969-.01v.83zm1.653 1.54h.902v-6.64h-.902v6.64z" fill="#fff" id="svg_307"/><path d="M919.146 3071.85l.84.84h2.535l.84-.84v-1.44l-.84-.84h-2.144l-.258-.27v-.58l.262-.26h1.75l.262.26v.39h.968v-.82l-.84-.84h-2.535l-.84.84v1.44l.84.84h2.149l.261.27v.57l-.261.27h-1.758l-.258-.27-.004-.38-.969-.01v.83zm1.653 1.54h.902v-6.64h-.902v6.64z" fill="#fff" id="svg_308"/><path d="M926.825 3071.85l.839.84h2.536l.839-.84v-1.44l-.839-.84h-2.145l-.258-.27v-.58l.262-.26h1.75l.262.26v.39h.968v-.82l-.839-.84h-2.536l-.839.84v1.44l.839.84h2.149l.262.27v.57l-.262.27h-1.758l-.258-.27-.004-.38-.968-.01v.83zm1.652 1.54h.902v-6.64h-.902v6.64z" fill="#fff" id="svg_309"/><path d="M934.503 3071.85l.839.84h2.536l.839-.84v-1.44l-.839-.84h-2.145l-.258-.27v-.58l.262-.26h1.75l.262.26v.39h.968v-.82l-.839-.84h-2.536l-.839.84v1.44l.839.84h2.149l.262.27v.57l-.262.27h-1.758l-.258-.27-.004-.38-.968-.01v.83zm1.652 1.54h.902v-6.64h-.902v6.64z" fill="#fff" id="svg_310"/><path d="M942.181 3071.85l.84.84h2.535l.84-.84v-1.44l-.84-.84h-2.145l-.258-.27v-.58l.262-.26h1.75l.262.26v.39h.969v-.82l-.84-.84h-2.535l-.84.84v1.44l.84.84h2.148l.262.27v.57l-.262.27h-1.758l-.258-.27-.003-.38-.969-.01v.83zm1.652 1.54h.902v-6.64h-.902v6.64z" fill="#fff" id="svg_311"/><path d="M949.859 3071.85l.84.84h2.535l.84-.84v-1.44l-.84-.84h-2.145l-.257-.27v-.58l.261-.26h1.75l.262.26v.39h.969v-.82l-.84-.84h-2.535l-.84.84v1.44l.84.84h2.148l.262.27v.57l-.262.27h-1.758l-.257-.27-.004-.38-.969-.01v.83zm1.652 1.54h.903v-6.64h-.903v6.64z" fill="#fff" id="svg_312"/><path d="M957.537 3071.85l.84.84h2.535l.84-.84v-1.44l-.84-.84h-2.144l-.258-.27v-.58l.261-.26h1.75l.262.26v.39h.969v-.82l-.84-.84h-2.535l-.84.84v1.44l.84.84h2.148l.262.27v.57l-.262.27h-1.757l-.258-.27-.004-.38-.969-.01v.83zm1.652 1.54h.903v-6.64h-.903v6.64z" fill="#fff" id="svg_313"/><path d="M965.215 3071.85l.84.84h2.535l.84-.84v-1.44l-.84-.84h-2.144l-.258-.27v-.58l.262-.26h1.749l.262.26v.39h.969v-.82l-.84-.84h-2.535l-.84.84v1.44l.84.84h2.148l.262.27v.57l-.262.27h-1.757l-.258-.27-.004-.38-.969-.01v.83zm1.652 1.54h.903v-6.64h-.903v6.64z" fill="#fff" id="svg_314"/><path d="M972.893 3071.85l.84.84h2.535l.84-.84v-1.44l-.84-.84h-2.144l-.258-.27v-.58l.262-.26h1.75l.261.26v.39h.969v-.82l-.84-.84h-2.535l-.84.84v1.44l.84.84h2.149l.261.27v.57l-.261.27h-1.758l-.258-.27-.004-.38-.969-.01v.83zm1.653 1.54h.902v-6.64h-.902v6.64z" fill="#fff" id="svg_315"/><path d="M980.571 3071.85l.84.84h2.535l.84-.84v-1.44l-.84-.84h-2.144l-.258-.27v-.58l.262-.26h1.75l.262.26v.39h.968v-.82l-.84-.84h-2.535l-.84.84v1.44l.84.84h2.149l.261.27v.57l-.261.27h-1.758l-.258-.27-.004-.38-.969-.01v.83zm1.653 1.54h.902v-6.64h-.902v6.64z" fill="#fff" id="svg_316"/><path d="M988.25 3071.85l.839.84h2.536l.839-.84v-1.44l-.839-.84h-2.145l-.258-.27v-.58l.262-.26h1.75l.262.26v.39h.968v-.82l-.839-.84h-2.536l-.839.84v1.44l.839.84h2.149l.262.27v.57l-.262.27h-1.758l-.258-.27-.004-.38-.968-.01v.83zm1.652 1.54h.902v-6.64h-.902v6.64z" fill="#fff" id="svg_317"/><path d="M995.928 3071.85l.839.84h2.536l.837-.84v-1.44l-.837-.84h-2.145l-.258-.27v-.58l.262-.26h1.75l.262.26v.39h.966v-.82l-.837-.84h-2.536l-.839.84v1.44l.839.84h2.149l.262.27v.57l-.262.27h-1.758l-.258-.27-.004-.38-.968-.01v.83zm1.652 1.54h.902v-6.64h-.902v6.64z" fill="#fff" id="svg_318"/><path d="M1003.61 3071.85l.84.84h2.53l.84-.84v-1.44l-.84-.84h-2.14l-.26-.27v-.58l.26-.26h1.75l.26.26v.39h.97v-.82l-.84-.84h-2.53l-.84.84v1.44l.84.84h2.14l.27.27v.57l-.27.27h-1.75l-.26-.27-.01-.38-.96-.01v.83zm1.65 1.54h.9v-6.64h-.9v6.64z" fill="#fff" id="svg_319"/><path d="M603 3200c0 1.66-1.343 3-3 3s-3-1.34-3-3 1.343-3 3-3 3 1.34 3 3z" fill="#fff" id="svg_320"/><path d="M623 3220c0 1.66-1.343 3-3 3s-3-1.34-3-3 1.343-3 3-3 3 1.34 3 3z" fill="#fff" id="svg_321"/><path d="M614 3320c0 1.66-1.343 3-3 3s-3-1.34-3-3 1.343-3 3-3 3 1.34 3 3z" fill="#fff" id="svg_322"/><path d="M604 3330c0 1.66-1.343 3-3 3s-3-1.34-3-3 1.343-3 3-3 3 1.34 3 3z" fill="#fff" id="svg_323"/><path d="M603 3491c0 1.66-1.343 3-3 3s-3-1.34-3-3 1.343-3 3-3 3 1.34 3 3z" fill="#fff" id="svg_324"/><path d="M613 3520c0 1.66-1.343 3-3 3s-3-1.34-3-3 1.343-3 3-3 3 1.34 3 3z" fill="#fff" id="svg_325"/><path d="M645 3550c0 1.66-1.343 3-3 3s-3-1.34-3-3 1.343-3 3-3 3 1.34 3 3z" fill="#fff" id="svg_326"/><path d="M863 3521c0 1.66-1.343 3-3 3s-3-1.34-3-3 1.343-3 3-3 3 1.34 3 3z" fill="#fff" id="svg_327"/><path d="M843 3541c0 1.66-1.343 3-3 3s-3-1.34-3-3 1.343-3 3-3 3 1.34 3 3z" fill="#fff" id="svg_328"/><path d="M843 3560c0 1.66-1.343 3-3 3s-3-1.34-3-3 1.343-3 3-3 3 1.34 3 3z" fill="#fff" id="svg_329"/><path d="M863 3579c0 1.66-1.343 3-3 3s-3-1.34-3-3 1.343-3 3-3 3 1.34 3 3z" fill="#fff" id="svg_330"/><path d="M854 3661c0 1.66-1.343 3-3 3s-3-1.34-3-3 1.343-3 3-3 3 1.34 3 3z" fill="#fff" id="svg_331"/><path d="M854 3692c0 1.66-1.343 3-3 3s-3-1.34-3-3 1.343-3 3-3 3 1.34 3 3z" fill="#fff" id="svg_332"/><path d="M773 3715c0 1.66-1.343 3-3 3s-3-1.34-3-3 1.343-3 3-3 3 1.34 3 3z" fill="#fff" id="svg_333"/><path d="M385 3860c0 1.66-1.343 3-3 3s-3-1.34-3-3 1.343-3 3-3 3 1.34 3 3z" fill="#fff" id="svg_334"/><path d="M424 3889c0 1.66-1.343 3-3 3s-3-1.34-3-3 1.343-3 3-3 3 1.34 3 3z" fill="#fff" id="svg_335"/><path d="M494 3810c0 1.66-1.343 3-3 3s-3-1.34-3-3 1.343-3 3-3 3 1.34 3 3z" fill="#fff" id="svg_336"/><path d="M502 3801c0 1.66-1.343 3-3 3s-3-1.34-3-3 1.343-3 3-3 3 1.34 3 3z" fill="#fff" id="svg_337"/><path d="M863 3800c0 1.66-1.343 3-3 3s-3-1.34-3-3 1.343-3 3-3 3 1.34 3 3z" fill="#fff" id="svg_338"/><path d="M873 3810c0 1.66-1.343 3-3 3s-3-1.34-3-3 1.343-3 3-3 3 1.34 3 3z" fill="#fff" id="svg_339"/><path d="M874 4089c0 1.66-1.343 3-3 3s-3-1.34-3-3 1.343-3 3-3 3 1.34 3 3z" fill="#fff" id="svg_340"/><path d="M863 4099c0 1.66-1.343 3-3 3s-3-1.34-3-3 1.343-3 3-3 3 1.34 3 3z" fill="#fff" id="svg_341"/><path d="M503 4099c0 1.66-1.343 3-3 3s-3-1.34-3-3 1.343-3 3-3 3 1.34 3 3z" fill="#fff" id="svg_342"/><path d="M493 4090c0 1.66-1.343 3-3 3s-3-1.34-3-3 1.343-3 3-3 3 1.34 3 3z" fill="#fff" id="svg_343"/><path d="M773 3682c0 1.66-1.343 3-3 3s-3-1.34-3-3 1.343-3 3-3 3 1.34 3 3z" fill="#fff" id="svg_344"/><path d="M1057 3692c0 1.66-1.34 3-3 3s-3-1.34-3-3 1.34-3 3-3 3 1.34 3 3z" fill="#fff" id="svg_345"/><path d="M1057 3661c0 1.66-1.34 3-3 3s-3-1.34-3-3 1.34-3 3-3 3 1.34 3 3z" fill="#fff" id="svg_346"/><path d="M1133 3682c0 1.66-1.34 3-3 3s-3-1.34-3-3 1.34-3 3-3 3 1.34 3 3z" fill="#fff" id="svg_347"/><path d="M1133 3714c0 1.66-1.34 3-3 3s-3-1.34-3-3 1.34-3 3-3 3 1.34 3 3z" fill="#fff" id="svg_348"/><path d="M1043 3801c0 1.66-1.34 3-3 3s-3-1.34-3-3 1.34-3 3-3 3 1.34 3 3z" fill="#fff" id="svg_349"/><path d="M1404 3801c0 1.66-1.34 3-3 3s-3-1.34-3-3 1.34-3 3-3 3 1.34 3 3z" fill="#fff" id="svg_350"/><path d="M1413 3811c0 1.66-1.34 3-3 3s-3-1.34-3-3 1.34-3 3-3 3 1.34 3 3z" fill="#fff" id="svg_351"/><path d="M1412 4090c0 1.66-1.34 3-3 3s-3-1.34-3-3 1.34-3 3-3 3 1.34 3 3z" fill="#fff" id="svg_352"/><path d="M1404 4099c0 1.66-1.34 3-3 3s-3-1.34-3-3 1.34-3 3-3 3 1.34 3 3z" fill="#fff" id="svg_353"/><path d="M1483 3889c0 1.66-1.34 3-3 3s-3-1.34-3-3 1.34-3 3-3 3 1.34 3 3z" fill="#fff" id="svg_354"/><path d="M1523 3860c0 1.66-1.34 3-3 3s-3-1.34-3-3 1.34-3 3-3 3 1.34 3 3z" fill="#fff" id="svg_355"/><path d="M1797 3970c0 1.66-1.34 3-3 3s-3-1.34-3-3 1.34-3 3-3 3 1.34 3 3z" fill="#fff" id="svg_356"/><path d="M1869 3970c0 1.66-1.34 3-3 3s-3-1.34-3-3 1.34-3 3-3 3 1.34 3 3z" fill="#fff" id="svg_357"/><path d="M1869 4005c0 1.66-1.34 3-3 3s-3-1.34-3-3 1.34-3 3-3 3 1.34 3 3z" fill="#fff" id="svg_358"/><path d="M1832 3988c0 1.66-1.34 3-3 3s-3-1.34-3-3 1.34-3 3-3 3 1.34 3 3z" fill="#fff" id="svg_359"/><path d="M1911 3950c0 1.66-1.34 3-3 3s-3-1.34-3-3 1.34-3 3-3 3 1.34 3 3z" fill="#fff" id="svg_360"/><path d="M1911 3998c0 1.66-1.34 3-3 3s-3-1.34-3-3 1.34-3 3-3 3 1.34 3 3z" fill="#fff" id="svg_361"/><path d="M1868 3958c0 1.66-1.34 3-3 3s-3-1.34-3-3 1.34-3 3-3 3 1.34 3 3z" fill="#fff" id="svg_362"/><path d="M1797 4005c0 1.66-1.34 3-3 3s-3-1.34-3-3 1.34-3 3-3 3 1.34 3 3z" fill="#fff" id="svg_363"/><path d="M1032 3814c0 1.66-1.34 3-3 3s-3-1.34-3-3 1.34-3 3-3 3 1.34 3 3z" fill="#fff" id="svg_364"/><path d="M1035 4090c0 1.66-1.34 3-3 3s-3-1.34-3-3 1.34-3 3-3 3 1.34 3 3z" fill="#fff" id="svg_365"/><path d="M1043 4099c0 1.66-1.34 3-3 3s-3-1.34-3-3 1.34-3 3-3 3 1.34 3 3z" fill="#fff" id="svg_366"/><path d="M1042 3521c0 1.66-1.34 3-3 3s-3-1.34-3-3 1.34-3 3-3 3 1.34 3 3z" fill="#fff" id="svg_367"/><path d="M1293 3499c0 1.66-1.34 3-3 3s-3-1.34-3-3 1.34-3 3-3 3 1.34 3 3z" fill="#fff" id="svg_368"/><path d="M1303 3490c0 1.66-1.34 3-3 3s-3-1.34-3-3 1.34-3 3-3 3 1.34 3 3z" fill="#fff" id="svg_369"/><path d="M1430 3550c0 1.66-1.34 3-3 3s-3-1.34-3-3 1.34-3 3-3 3 1.34 3 3z" fill="#fff" id="svg_370"/><path d="M1483 3521c0 1.66-1.34 3-3 3s-3-1.34-3-3 1.34-3 3-3 3 1.34 3 3z" fill="#fff" id="svg_371"/><path d="M1484 3249c0 1.66-1.34 3-3 3s-3-1.34-3-3 1.34-3 3-3 3 1.34 3 3z" fill="#fff" id="svg_372"/><path d="M1532 3380.5c0 1.93-1.57 3.5-3.5 3.5s-3.5-1.57-3.5-3.5 1.57-3.5 3.5-3.5 3.5 1.57 3.5 3.5z" fill="#fff" id="svg_373"/><path d="M1519 3220c0 1.66-1.34 3-3 3s-3-1.34-3-3 1.34-3 3-3 3 1.34 3 3z" fill="#fff" id="svg_374"/><path d="M1303 3331c0 1.66-1.34 3-3 3s-3-1.34-3-3 1.34-3 3-3 3 1.34 3 3z" fill="#fff" id="svg_375"/><path d="M1293 3321c0 1.66-1.34 3-3 3s-3-1.34-3-3 1.34-3 3-3 3 1.34 3 3z" fill="#fff" id="svg_376"/><path d="M1063 3541c0 1.66-1.34 3-3 3s-3-1.34-3-3 1.34-3 3-3 3 1.34 3 3z" fill="#fff" id="svg_377"/><path d="M1063 3559c0 1.66-1.34 3-3 3s-3-1.34-3-3 1.34-3 3-3 3 1.34 3 3z" fill="#fff" id="svg_378"/><path d="M1042 3580c0 1.66-1.34 3-3 3s-3-1.34-3-3 1.34-3 3-3 3 1.34 3 3z" fill="#fff" id="svg_379"/><path d="M425 3369c0 1.66-1.343 3-3 3s-3-1.34-3-3 1.343-3 3-3 3 1.34 3 3z" fill="#fff" id="svg_380"/><path d="M514 3409c0 1.66-1.343 3-3 3s-3-1.34-3-3 1.343-3 3-3 3 1.34 3 3z" fill="#fff" id="svg_381"/><path d="M1303 3200c0 1.66-1.34 3-3 3s-3-1.34-3-3 1.34-3 3-3 3 1.34 3 3z" fill="#fff" id="svg_382"/><path d="M1283 3220c0 1.66-1.34 3-3 3s-3-1.34-3-3 1.34-3 3-3 3 1.34 3 3z" fill="#fff" id="svg_383"/><path d="M1492 4620.5l-12 6.5v-13l12 6.5z" fill="#fff" id="svg_384"/><path d="M847 4330c0 1.66-1.343 3-3 3s-3-1.34-3-3 1.343-3 3-3 3 1.34 3 3z" fill="#fff" id="svg_385"/><path d="M1059 4330c0 1.66-1.34 3-3 3s-3-1.34-3-3 1.34-3 3-3 3 1.34 3 3z" fill="#fff" id="svg_386"/><path d="M645 4825c0 1.66-1.343 3-3 3s-3-1.34-3-3 1.343-3 3-3 3 1.34 3 3z" fill="#fff" id="svg_387"/><path d="M1372 4718c0 1.66-1.34 3-3 3s-3-1.34-3-3 1.34-3 3-3 3 1.34 3 3z" fill="#fff" id="svg_388"/><path d="M1372 4460c0 1.66-1.34 3-3 3s-3-1.34-3-3 1.34-3 3-3 3 1.34 3 3z" fill="#fff" id="svg_389"/><path d="M1355 4442c0 1.66-1.34 3-3 3s-3-1.34-3-3 1.34-3 3-3 3 1.34 3 3z" fill="#fff" id="svg_390"/><path d="M1264 4827c0 1.66-1.34 3-3 3s-3-1.34-3-3 1.34-3 3-3 3 1.34 3 3z" fill="#fff" id="svg_391"/><path d="M494 4460c0 1.66-1.343 3-3 3s-3-1.34-3-3 1.343-3 3-3 3 1.34 3 3z" fill="#fff" id="svg_392"/><path d="M513 4442c0 1.66-1.343 3-3 3s-3-1.34-3-3 1.343-3 3-3 3 1.34 3 3z" fill="#fff" id="svg_393"/><path d="M423 4239c0 1.66-1.343 3-3 3s-3-1.34-3-3 1.343-3 3-3 3 1.34 3 3z" fill="#fff" id="svg_394"/><path d="M130 4801c0 1.66-1.343 3-3 3s-3-1.34-3-3 1.343-3 3-3 3 1.34 3 3z" fill="#fff" id="svg_395"/><path d="M146 4819c0 1.66-1.343 3-3 3s-3-1.34-3-3 1.343-3 3-3 3 1.34 3 3z" fill="#fff" id="svg_396"/><path d="M130 4836c0 1.66-1.343 3-3 3s-3-1.34-3-3 1.343-3 3-3 3 1.34 3 3z" fill="#fff" id="svg_397"/><path d="M57 4836c0 1.66-1.343 3-3 3s-3-1.34-3-3 1.343-3 3-3 3 1.34 3 3z" fill="#fff" id="svg_398"/><path d="M57 4801c0 1.66-1.343 3-3 3s-3-1.34-3-3 1.343-3 3-3 3 1.34 3 3z" fill="#fff" id="svg_399"/><path d="M16 4828c0 1.66-1.343 3-3 3s-3-1.34-3-3 1.343-3 3-3 3 1.34 3 3z" fill="#fff" id="svg_400"/><path d="M16 4780c0 1.66-1.343 3-3 3s-3-1.34-3-3 1.343-3 3-3 3 1.34 3 3z" fill="#fff" id="svg_401"/><path d="M59 4789c0 1.66-1.343 3-3 3s-3-1.34-3-3 1.343-3 3-3 3 1.34 3 3z" fill="#fff" id="svg_402"/><path d="M94 4819c0 1.66-1.343 3-3 3s-3-1.34-3-3 1.343-3 3-3 3 1.34 3 3z" fill="#fff" id="svg_403"/><path d="M1421 5281c0 1.66-1.34 3-3 3s-3-1.34-3-3 1.34-3 3-3 3 1.34 3 3z" fill="#fff" id="svg_404"/><path d="M1162 5292c0 1.66-1.34 3-3 3s-3-1.34-3-3 1.34-3 3-3 3 1.34 3 3z" fill="#fff" id="svg_405"/><path d="M1037 5237c0 1.66-1.34 3-3 3s-3-1.34-3-3 1.34-3 3-3 3 1.34 3 3z" fill="#fff" id="svg_406"/><path d="M863 5237c0 1.66 1.343 3 3 3s3-1.34 3-3-1.343-3-3-3-3 1.34-3 3z" fill="#fff" id="svg_407"/><path d="M1043 5231c0 1.66-1.34 3-3 3s-3-1.34-3-3 1.34-3 3-3 3 1.34 3 3z" fill="#fff" id="svg_408"/><path d="M857 5231c0 1.66 1.343 3 3 3s3-1.34 3-3-1.343-3-3-3-3 1.34-3 3z" fill="#fff" id="svg_409"/><path d="M1043 5190c0 1.66-1.34 3-3 3s-3-1.34-3-3 1.34-3 3-3 3 1.34 3 3z" fill="#fff" id="svg_410"/><path d="M857 5190c0 1.66 1.343 3 3 3s3-1.34 3-3-1.343-3-3-3-3 1.34-3 3z" fill="#fff" id="svg_411"/><path d="M817 5209c0 1.66 1.343 3 3 3s3-1.34 3-3-1.343-3-3-3-3 1.34-3 3z" fill="#fff" id="svg_412"/><path d="M748 5227c0 1.66 1.343 3 3 3s3-1.34 3-3-1.343-3-3-3-3 1.34-3 3z" fill="#fff" id="svg_413"/><path d="M769 5086c0 1.66 1.343 3 3 3s3-1.34 3-3-1.343-3-3-3-3 1.34-3 3z" fill="#fff" id="svg_414"/><path d="M502 5234c0 1.66 1.343 3 3 3s3-1.34 3-3-1.343-3-3-3-3 1.34-3 3z" fill="#fff" id="svg_415"/><path d="M476 5280c0 1.66 1.343 3 3 3s3-1.34 3-3-1.343-3-3-3-3 1.34-3 3z" fill="#fff" id="svg_416"/><path d="M460 5281c0 1.66 1.343 3 3 3s3-1.34 3-3-1.343-3-3-3-3 1.34-3 3z" fill="#fff" id="svg_417"/><path d="M452 5289c0 1.66 1.343 3 3 3s3-1.34 3-3-1.343-3-3-3-3 1.34-3 3z" fill="#fff" id="svg_418"/><path d="M452 5654c0 1.66 1.343 3 3 3s3-1.34 3-3-1.343-3-3-3-3 1.34-3 3z" fill="#fff" id="svg_419"/><path d="M489 5690c0 1.66 1.343 3 3 3s3-1.34 3-3-1.343-3-3-3-3 1.34-3 3z" fill="#fff" id="svg_420"/><path d="M769 5055c0 1.66 1.343 3 3 3s3-1.34 3-3-1.343-3-3-3-3 1.34-3 3z" fill="#fff" id="svg_421"/><path d="M848 5030c0 1.66 1.343 3 3 3s3-1.34 3-3-1.343-3-3-3-3 1.34-3 3z" fill="#fff" id="svg_422"/><path d="M1052 5030c0 1.66 1.34 3 3 3s3-1.34 3-3-1.34-3-3-3-3 1.34-3 3z" fill="#fff" id="svg_423"/><path d="M1052 5062c0 1.66 1.34 3 3 3s3-1.34 3-3-1.34-3-3-3-3 1.34-3 3z" fill="#fff" id="svg_424"/><path d="M1127 5055c0 1.66 1.34 3 3 3s3-1.34 3-3-1.34-3-3-3-3 1.34-3 3z" fill="#fff" id="svg_425"/><path d="M1127 5086c0 1.66 1.34 3 3 3s3-1.34 3-3-1.34-3-3-3-3 1.34-3 3z" fill="#fff" id="svg_426"/><path d="M849 5062c0 1.66 1.343 3 3 3s3-1.34 3-3-1.343-3-3-3-3 1.34-3 3z" fill="#fff" id="svg_427"/><path d="M1037 5185c0 1.66-1.34 3-3 3s-3-1.34-3-3 1.34-3 3-3 3 1.34 3 3z" fill="#fff" id="svg_428"/><path d="M863 5185c0 1.66 1.343 3 3 3s3-1.34 3-3-1.343-3-3-3-3 1.34-3 3z" fill="#fff" id="svg_429"/><path d="M1137 5323c0 1.66-1.34 3-3 3s-3-1.34-3-3 1.34-3 3-3 3 1.34 3 3z" fill="#fff" id="svg_430"/><path d="M1436 5300c0 1.66-1.34 3-3 3s-3-1.34-3-3 1.34-3 3-3 3 1.34 3 3z" fill="#fff" id="svg_431"/><path d="M1416 5654c0 1.66 1.34 3 3 3s3-1.34 3-3-1.34-3-3-3-3 1.34-3 3z" fill="#fff" id="svg_432"/><path d="M1243 5690c0 1.66 1.34 3 3 3s3-1.34 3-3-1.34-3-3-3-3 1.34-3 3z" fill="#fff" id="svg_433"/><path d="M1128 5654c0 1.66 1.34 3 3 3s3-1.34 3-3-1.34-3-3-3-3 1.34-3 3z" fill="#fff" id="svg_434"/><path d="M1269 5717c0 1.66 1.34 3 3 3s3-1.34 3-3-1.34-3-3-3-3 1.34-3 3z" fill="#fff" id="svg_435"/><path d="M1269 6053c0 1.66 1.34 3 3 3s3-1.34 3-3-1.34-3-3-3-3 1.34-3 3z" fill="#fff" id="svg_436"/><path d="M1242 6080c0 1.66 1.34 3 3 3s3-1.34 3-3-1.34-3-3-3-3 1.34-3 3z" fill="#fff" id="svg_437"/><path d="M968 6176c0 1.66 1.343 3 3 3s3-1.34 3-3-1.343-3-3-3-3 1.34-3 3z" fill="#fff" id="svg_438"/><path d="M968 6146c0 1.66 1.343 3 3 3s3-1.34 3-3-1.343-3-3-3-3 1.34-3 3z" fill="#fff" id="svg_439"/><path d="M651 6080c0 1.66 1.343 3 3 3s3-1.34 3-3-1.343-3-3-3-3 1.34-3 3z" fill="#fff" id="svg_440"/><path d="M624 6052c0 1.66 1.343 3 3 3s3-1.34 3-3-1.343-3-3-3-3 1.34-3 3z" fill="#fff" id="svg_441"/><path d="M120 6215c0 1.66 1.343 3 3 3s3-1.34 3-3-1.343-3-3-3-3 1.34-3 3z" fill="#fff" id="svg_442"/><path d="M84 6232c0 1.66 1.343 3 3 3s3-1.34 3-3-1.343-3-3-3-3 1.34-3 3z" fill="#fff" id="svg_443"/><path d="M47 6215c0 1.66 1.343 3 3 3s3-1.34 3-3-1.343-3-3-3-3 1.34-3 3z" fill="#fff" id="svg_444"/><path d="M47 6249c0 1.66 1.343 3 3 3s3-1.34 3-3-1.343-3-3-3-3 1.34-3 3z" fill="#fff" id="svg_445"/><path d="M120 6250c0 1.66 1.343 3 3 3s3-1.34 3-3-1.343-3-3-3-3 1.34-3 3z" fill="#fff" id="svg_446"/><path d="M6 6242c0 1.66 1.343 3 3 3s3-1.34 3-3-1.343-3-3-3-3 1.34-3 3z" fill="#fff" id="svg_447"/><path d="M6 6195c0 1.66 1.343 3 3 3s3-1.34 3-3-1.343-3-3-3-3 1.34-3 3z" fill="#fff" id="svg_448"/><path d="M625 5716c0 1.66 1.343 3 3 3s3-1.34 3-3-1.343-3-3-3-3 1.34-3 3z" fill="#fff" id="svg_449"/><path d="M1431 5639c0 1.66 1.34 3 3 3s3-1.34 3-3-1.34-3-3-3-3 1.34-3 3z" fill="#fff" id="svg_450"/><path d="M1559.7 5475.48h6.35v1.64h-4.71v2.3h3.67v1.64h-3.67v2.3h4.71v1.64h-6.35v-9.52z" fill="#fff" id="svg_451"/><path d="M1567.46 5485h1.64v-3.94h2.11l1.37 3.94h1.74l-1.37-3.94 1.36-1.37v-2.85l-1.36-1.36h-5.49v9.52zm1.64-7.88h3.02l.55.55v1.2l-.55.55h-3.02v-2.3z" fill="#fff" id="svg_452"/><path d="M1575.71 5485h1.64v-3.94h2.11l1.37 3.94h1.74l-1.37-3.94 1.36-1.37v-2.85l-1.36-1.36h-5.49v9.52zm1.64-7.88h3.02l.55.55v1.2l-.55.55h-3.02v-2.3z" fill="#fff" id="svg_453"/><path d="M1583.97 5483.64l1.36 1.36h4.12l1.36-1.36v-6.8l-1.36-1.36h-4.12l-1.36 1.36v6.8zm1.63-5.97l.56-.55h2.46l.56.55v5.14l-.56.55h-2.46l-.56-.55v-5.14z" fill="#fff" id="svg_454"/><path d="M1592.22 5485h1.63v-3.94h2.12l1.36 3.94h1.74l-1.37-3.94 1.37-1.37v-2.85l-1.37-1.36h-5.48v9.52zm1.63-7.88h3.03l.55.55v1.2l-.55.55h-3.03v-2.3z" fill="#fff" id="svg_455"/><path d="M1610.94 5334.49l-.94.94v2.85l.94.95h1.98l.94-.95v-2.66h1.22l.38.39v1.7l-.38.39h-.53v1.13h1.1l.94-.95v-2.85l-.94-.94h-4.71zm1.79 1.13v2.09l-.38.39h-.83l-.39-.39V5336l.39-.38h1.21z" fill="#fff" id="svg_456"/><path d="M1610.94 5340.2l-.94.95v2.85l.94.94h2.36l.95-.94v-2.58h1.21v3.35h1.13v-4.48h-3.48v3.14l-.39.38h-1.2l-.39-.38v-1.71l.39-.39h.52l.01-1.13h-1.11z" fill="#fff" id="svg_457"/><path d="M942.5 1410.5h72.789l19.711 20.204V1619.3l-20.214 21.2H887.707l-21.207-21.207V1430.7l19.215-20.2H942.5z" stroke="#fff" id="svg_458"/><path d="M948.28 1422.32l-1.366 4.636v134.529l1.365 1.361 62.481-36.912-62.48-103.614z" fill="#00FF97" class="ether_path" id="svg_463"/><path d="M948.395 1422.32l-62.48 103.614 62.48 36.913V1422.32z" fill="#00FF97" class="ether_path" id="svg_464"/><path d="M948.395 1574.67l-.769.937v47.922l.77 2.245 62.518-87.997-62.519 36.893z" fill="#00FF97" class="ether_path" id="svg_465"/><path d="M948.395 1625.774v-51.105l-62.48-36.893 62.48 87.998z" fill="#00FF97" class="ether_path" id="svg_466"/><script>let ethers = document.querySelectorAll(&apos;.ether_path&apos;); ethers.forEach(ether =&gt; { function svgHandler(){ ether.classList.toggle(&apos;shadow&apos;); function delayed(){ ether.classList.toggle(&apos;shadow&apos;); } setTimeout(delayed,1000) } setInterval(svgHandler,5000) })</script><style>.ether_path,.shadow{transition:1s}.shadow{-webkit-filter:drop-shadow(0 0 50px #00ff97);filter:drop-shadow(0 0 50px #00ff97)}</style></svg>