<svg width="1920" height="6177" viewBox="0 0 1920 6177" fill="none" xmlns="http://www.w3.org/2000/svg"><path opacity=".11" fill-rule="evenodd" clip-rule="evenodd" d="M949.75 6177h-.5v-96.5H653.793l-.146-.15-27-27-.147-.14v-336.42l.147-.14 26.146-26.15h-162l-.146-.15-36-36-.147-.14v-366.17l.147-.14 7.75-7.75.146-.15H479.5v-193.5H189V2995h21.5V1990.5h210.308l15.357-13.87.143-.13h39.905l.147.15 13.353 13.85h280.725l80.439-20.48.061-.02H940v-9.71l.147-.14 10.353-10.36v-69.29h-85.207l-.146-.15-19.5-19.5-.147-.14v-30.42l.147-.14 19.5-19.5.146-.15H950.5v-49H520.286l-.148-.16-10-10.5-.138-.14v-40.41l.147-.14 10-10 .146-.15h850.417l.14.15 10 10 .15.14v22.46h134.51v-116.54l-55.36-55.36-31-31-48.68-48.67-56.64 48.7-.14.12h-122.51l-30.36 25.88-.14.12H1034.5c-.28 0-.5-.22-.5-.5 0-.12.04-.23.11-.32.06-.06.13-.12.21-.15.03-.01.07-.02.1-.02.03-.01.05-.01.08-.01h135.82l30.36-25.88.14-.12h22.47l8.86-8.85.14-.15h28.42l.14.15 8.86 8.85h53.6l56.69-48.73V1395h-56.36l-108.38 64.43-.12.07H1034.5c-.28 0-.5-.22-.5-.5s.22-.5.5-.5h180.36l108.38-64.43.12-.07h56.91l9.57-11.49-9.56-10.51H511.669l30.545 32h229.412l.111.06 94 50.5c.243.13.334.43.204.68a.502.502 0 01-.677.2l-93.89-50.44H541.786l-.148-.15-31.5-33-.138-.15v-111.92l.165-.15 10.5-9.5.142-.13h399.486l9.854-9.85.146-.15h19.21l.994-148.5h-99.415l-69.923 23.47-.077.03H.5c-.276 0-.5-.22-.5-.5s.224-.5.5-.5h480.318l9.36-7.88.14-.12h40.865l.139.12 9.36 7.88h240.236l69.923-23.47.077-.03h199.652l.07.02 79.93 23.48 385.44 2H1920c.28 0 .5.22.5.5s-.22.5-.5.5h-403.49v223.27l17.82 14.85.18.15V1383h-143.78l-9.73 11.68v85.61l48.71 48.71h13l.14.15 18 18 .15.14v13l55.36 55.36.15.15v195.41l-.15.14-55.51 55.51-37.85 37.85v20.5l-.15.15-21.5 21.5-.14.15H1381V1988h332.5v3502.5h-197.99v-404h-385.09l-.07-.02-76.43-23.98H851.073l-80.43 23.98-.07.02H480.5v140h269.437l69.939-17.98.061-.02H859v-18.21l.147-.14 5.5-5.5.146-.15h169.917l.14.15 5.5 5.5.15.14v40.42l-.15.14-5.5 5.5-.14.15h-84.46v70.5c0 .28-.224.5-.5.5s-.5-.22-.5-.5v-70.5h-84.457l-.146-.15-5.5-5.5-.147-.14v-21.21h-38.937l-69.938 17.98-.062.02H512.707l-7.353 7.35-.147.15H480.5v46h-17.543l-7.457 7.46v365.33l35.707 35.71h603.083l35.86-35.85.14-.15h288l14.71-14.71v-339.12l-14.74-18.67h-240.11l-17.88 11.42-.12.08H1131v26.79l2.85 2.86c.2.19.2.51 0 .7-.19.2-.51.2-.7 0l-3-3-.15-.14V5280h288.74l.15.19 15 19 .11.14v339.88l-.15.14-15 15-.14.15h-288l-35 35h150l.14.15 27 27 .15.14v336.42l-.15.14-27 27-.14.15H950.25v44.04l21.104 21.11.146.14V6177h-21.75zm144.75-486.5H654.207l-26.707 26.71v335.58l26.707 26.71h591.083l26.71-26.71v-335.58l-26.71-26.71H1094.5zM211.5 2556v439h97.723l.15.17 34.351 38.33h21.026v-113.29l-17.603-17.61-.147-.14v-124.67l.147-.14 17.603-17.61V2556H211.5zm154.25 439.5v38h21.027l34.351-38.33.149-.17h88.719l-.496-55-.002-.22.167-.15 10.5-9.5.142-.13H950.5v-20.29l-9.353-9.36-.147-.14v-20.92l.147-.14 9.353-9.36v-29.29H520.293l-.146-.15-10-10-.147-.14v-130.42l.147-.14 10-10 .146-.15h409.94l9.851-14.78.149-.22H950.5v-94h-99.574l-.071-.02-80.429-24.48H365.75v204.04l17.604 17.61.146.14v124.67l-.146.14-17.604 17.61v75.29zM509.5 3050l.496-54h-88.272l-34.351 38.33-.15.17H365.75v165h55.543l35.854-35.85.146-.15H599.5V3061h-79.207l-.146-.15-10.5-10.5-.149-.14.002-.21zm-144.75 33.5v24.04l-21.603 21.61-.147.14v35.21h21.75v36H421v169.83l.298.13 89.5 39.5.097.04H599.5v80.72l.166.15 9.834 8.85v20.49l.152.15 31.5 30.5.146.14H839.5v9.21l.147.14 20 20 .146.15h180.417l.14-.15 20-20 .15-.14V3551h366.63l.11-.06 53-29.5.26-.15v-.29l.5-140h47.5c.05 0 .1-.01.15-.02.1-.03.18-.09.24-.17.04-.04.06-.09.08-.14.01-.02.01-.04.02-.06.01-.04.01-.07.01-.11 0-.28-.22-.5-.5-.5h-47.49v-130.76l35.31-28.35.19-.15V2796h195.99v885.5h-269.29l-15.86-15.85-.14-.15h-43.42l-.14.15-15.86 15.85h-237.22l-76.43-21.48-.07-.02H850.935l-.064.02-80.437 21.48H190V2996h118.777l34.351 38.33.149.17h21.473v49zm0 80v-54.54L344 3129.71v33.79h20.75zm92.957 1L422 3200.21v169.46l89.106 39.33H599.5v-79.21l.156-.15 10-9.5.145-.14H1290.2l.14.14 10 9.5.16.15v160.42l-.15.14-9.5 9.5-.14.15H610.5v19.79l31.202 30.21H839.5v-9.21l.147-.14 20-20 .146-.15h180.417l.14.15 20 20 .15.14v9.21h366.37l52.63-29.29.51-140.21v-131.74l.18-.15 35.32-28.35v-259.05l-34.65 34.64-.15.15H1380.5v55.21l-.15.14-9.5 9.5-.14.15h-70.21v139.2l-.14.15-20 20.5-.15.15H620.293l-.146-.15-20.5-20.5-.147-.14v-35.71H457.707zM600.5 3490.28l9.692 8.72h680.098l9.21-9.21v-159.58l-9.7-9.21H610.2l-9.7 9.21v160.07zM1480.3 2995l35.21-35.21V2556h-384.94l-79.92 24.48-.08.02H951.5v94h9.268l.148.22 9.852 14.78h178.382l19.5-19.5.14-.14h73.93l.15.16 17.5 19.48h110.34l.14.15 10 10 .15.14v130.42l-.15.14-10 10-.14.15H951.5v29.29l9.354 9.36.146.14v20.92l-.146.14-9.354 9.36V2930h419.21l.14.15 9.5 9.5.15.14V2995h99.8zm120.7-439h-84.49v176.79l19.62 19.63 64.87-25.26v-32.95l-14.35-14.36-.15-.14v-34.42l.15-.14 14.35-14.36V2556zm-65.49 197.21l-19-19V2795h19v-41.79zm1 .13V2795h175.99v-239H1602v74.79l14.35 14.36.15.14v34.42l-.15.14-14.35 14.36v33.63l-.32.13-65.17 25.37zM1601.5 2555h111v-26.57l-41.54-6.43h-540.4l-79.94 19.99-.06.01H850.938l-.061-.02-80.44-20.48H211.5v33.5h559.075l.071.02 80.428 24.48h199.356l79.92-24.48.08-.02h471.07zm69.58-33.99l41.42 6.41V1989h-582.06l-.05-.01-79.95-17.99H851.062l-80.438 20.48-.061.02H211.5v529h559.063l.061.02 80.439 20.48h199.377l79.94-19.99.06-.01h540.6l.04.01zM1130.56 1988H1380v-41.7l.15-.15 42-42 38-38 55.36-55.36v-77.04H1381v16.95l-.14.14-10 10.5-.15.16H951.5v49h19.293l11.854-11.85.146-.15h18.417l.14.15 11.86 11.85h21.5l.14.15 19.5 19.5.15.14v30.42l-.15.14-19.5 19.5-.14.15H951.5v69.29l10.354 10.36.146.14v9.71h88.56l.05.01 79.95 17.99zm20.44-227.5h219.29l9.71-10.2v-39.59l-9.71-9.71H520.707l-9.707 9.71v39.59l9.714 10.2H1151zm-167.793 39l-11 11h39.583l-11-11h-17.583zM961 1960.71l-10-10-10 10v9.29h20v-9.29zm654.5 685l-14-14-14 14v33.58l14 14 14-14v-33.58zm-446.29 25.15l-18.65 18.64h108.46l-16.74-18.64h-73.07zM960 2879.71l-9-9-9 9v20.08l9 9 9-9v-20.08zm419.5 171.08v-110.58l-9.21-9.21H520.693l-10.191 9.22.498 55.28-.498 54.29 10.205 10.21h849.583l9.21-9.21zm-80 149.01V3061h-260.29l-19.36 19.35-.14.15H879.293l-.146-.15-19.354-19.35H600.5v138.79l20.207 20.21h659.083l19.71-20.2zm-280.21-120.3l18.5-18.5H861.207l18.5 18.5h139.583zM1712.5 3714v-31.5h-582.07l-.07-.02-76.43-21.48H851.066l-80.437 21.48-.063.02H190v31.5h580.432l80.434-22.48.066-.02h203.138l.07.02 76.43 22.48h581.93zm-1427.25 1H190v1340h580.423l80.426-25.48.074-.02h203.157l.08.03 76.42 25.47h581.92V3715h-192v145.25l-.2.15-39.5 29.5-.13.1H1410v199.7l-.14.14-9 9.5-.14.16h-360.93l-.15-.16-9-9.5-.14-.14v-.19l-3-274.5v-.19l.11-.14 12-14.5.15-.18h360.96l.15.17 9 10 .13.14V3889h70.33l39.17-29.25V3715h-389.07l-.07-.02-76.43-22.48H851.068l-80.433 22.48-.066.02H381.5v144.75l19.302 14.6 19.366 14.65H489.5v-78.69l.129-.14 9-10 .148-.17h361.416l.143.13 10.5 9.5.164.15v279.94l-.164.15-10.5 9.5-.143.13H498.785l-.148-.16-9-9.5-.137-.14V3890h-69.668l-.133-.1L401 3875.76v351.94l19.237 10.36c.243.13.334.43.203.68a.502.502 0 01-.677.2L401 4228.84v368.97l19.229 22.19H489.5v-160.22l.166-.15 20-18 .142-.13H950V4347h-90.207l-.146-.15-16.5-16.5a.49.49 0 010-.7c.195-.2.511-.2.707 0l16.353 16.35h179.583l16.36-16.35c.19-.2.51-.2.7 0 .2.19.2.51 0 .7l-16.5 16.5-.14.15H951v94.5h400.71l.14.15 18 18 .15.14V4620h110c.28 0 .5.22.5.5s-.22.5-.5.5h-110v97.71l-.15.14-108 108-.14.15H641v-206H419.772l-.15-.17-19.5-22.5-.122-.14V3875l-19.301-14.6-.199-.15V3715h-95.25zM770.5 5056H190v29.5h580.427l80.43-23.98.07-.02h203.153l.07.02 76.43 23.98h581.92V5056h-582.08l-.08-.03-76.42-25.47H851.078l-80.427 25.48-.074.02h-.077zm942 351v-320.5h-195.99v320h95.99v-42.29l-6.85-6.86-.15-.14v-35.42l.15-.14 7-7 .35-.36.35.36 7 7 .15.14v35.42l-.15.14-6.85 6.86v125.29h99V5407zm-100 .5h-95.99v62.5h95.99v-62.5zm-67.71 63.5h-28.28v18.09l28.28-18.09zm67.71 18.5h-94.78l28.93-18.5h65.85v18.5zm-6-132.71l6.5 6.5 6.5-6.5v-34.58l-6.5-6.5-6.5 6.5v34.58zm-1116-896.57V4620H950v-177.5H510.192l-19.692 17.72zM951 4442.5V4620h418v-159.79l-17.71-17.71H951zm-.5 178.5H1369v97.29L1261.29 4826H642v-205h308.5zm418.71-939.5h72.58l-15-15h-42.58l-15 15zM382.5 2778.21l-17.25-17.25-17.25 17.25v123.83l17.25 17.25 17.25-17.25v-123.83zm54.193-800.71l-14.393 13h66.023l-12.535-13h-39.095zM1232.71 1521l-8 8h43.58l-8-8h-27.58zM1381 1371.31l9.72 10.69h124.79v-265l-385.01-2h-.07l-.07-.02-79.93-23.48h-98.933l-.993 148.5h20.211l.148.16 9.352 9.84 169.145.64h.43l20.36-20.35.14-.15h70.42l.14.15 20.36 20.35h109.99l.15.15 9.5 9.35.15.15v111.02zm135.51-29.74V1382h17v-26.27l-17-14.16zm-345.8-110.43l-19.5 19.5h108.58l-19.5-19.5h-69.58zM511 1371h869v-110.29l-9.2-9.07h-221.45l-169.352-.64h-.213l-.147-.16-9.352-9.84h-39.579l-9.853 9.85-.147.15H521.193L511 1260.22V1371zm-20.318-264l-8.312 7h56.76l-8.312-7h-40.136zm951.608 423h-11.58l29.29 29.29v-11.58l-17.71-17.71zM1422 1924.8v-19.09l-40.29 40.3h19.08l21.21-21.21zM496.5 5227.5h-16v6.5h24.293l6.5-6.5H496.5zm663.35 64l16.44-10.5H1131v10.5h28.85zM970.5 6146.21l-20.25-20.25V6176h20.25v-29.79zM860 5230.29l5.207 5.21h169.083l5.21-5.21v-39.58l-5.21-5.21H865.207l-5.207 5.21v39.58zM490.5 4089.3l8.715 9.2h360.592l10.193-9.22v-279.06l-10.193-9.22H499.223l-8.723 9.69v278.61zm541 0l8.72 9.2h360.06l8.72-9.2v-278.61l-8.72-9.69h-360.04l-11.74 14.18 3 274.12zm-191-529.51l19.707 19.71h179.583l19.71-19.71v-18.58l-19.71-19.71H860.207l-19.707 19.71v18.58zm-329.5-730l9.707 9.71h849.583l9.71-9.71v-129.58l-9.71-9.71H970.233l-.149-.22-9.851-14.78h-19.465l-9.852 14.78-.148.22H520.707l-9.707 9.71v129.58zm335.5-969.5l19.207 19.21h168.583l19.21-19.21v-29.58l-19.21-19.21H865.707l-19.207 19.21v29.58zM0 1620.5c-.276 0-.5-.22-.5-.5s.224-.5.5-.5h440.31l69.858-61.81.012-.01.013-.01 22-17.07.135-.1h41.827l.129.09 22.544 15.62 33.859-27.1.137-.11h63.469l8.854-8.85.146-.15h57.414l.147.15 8.853 8.85H865c.276 0 .5.22.5.5s-.224.5-.5.5H631.175l-33.488 26.81 33.47 23.19H865c.276 0 .5.22.5.5 0 .12-.043.23-.114.32a.502.502 0 01-.386.18H630.844l-.129-.09-33.843-23.45-22.559 18.06-.137.1h-41.847l-.135-.1-21.673-16.81-69.69 61.66-.141.13H0zm573.825-45.88l22.189-17.76-22.17-15.36h-41.173l-21.355 16.56 21.355 16.56h41.154zM703.707 1521l-8 8h72.586l-8-8h-56.586zM186 1082h-.5V889.5h-71.176l-.137-.11-35.5-28.5-.187-.15V608.5h231.735l10.351-15.28.149-.22h50.038l.147.229 9.853 15.271h128.311l23.924-129.742.076-.409h873.276l109.38-69.126.12-.077h134.65V.113c0-.277.22-.5.5-.5.27 0 .5.223.5.5V244.5H1920c.28 0 .5.224.5.5s-.22.5-.5.5h-268.49v164.646h-135.36L1407 479.125v100.299h100.24l.15.183 9.5 11.576.11.138V602.5h312v241h-311.71l36.55 33.632.16.149V997h77v25.29l58.85 58.86.86.85h-560.27l-.07-.02-79.93-20.98H851.065l-80.439 20.98-.062.02H186zm98-192.5h-97.5V1081h583.936l80.438-20.98.062-.02h199.624l.07.02 79.93 20.98h384.49l-10.46-15.22-.09-.12v-56.86l.14-.15 10.87-11.351V843.5H1407v34.231l-.18.15-76.5 65-.14.119H533.125l-.105-.359L509.125 861H324.658l-40.37 28.409-.13.091H284zm1221.5 175.84l10.01 14.55v-81.144l-10.01 10.454v56.14zm11.01-56.34v70.78l36.49-57.43V877.72l-36.49-33.58V1009zm171.78 72h-171.37l36.85-58h76.52l58 58zM1554 998v24h76v-24h-76zm-148-120.731v-34.017l-20.8-15.35-.2-.15V595.753l.2-.15 20.8-15.926v-99.994l-68.76 36.758a.503.503 0 01-.48-.882l67.74-36.21H535.291l61.468 37.223.241.146v369.004l-.164.149L534.798 942h795.022l76.18-64.731zm33.5-296.845h-31.89l19.61 22.076H1516v-10.821l-9.24-11.255h-67.26zm-12.87 22.908l-20.19-22.728-20.44 15.643v231.001l20.66 15.252H1828v-239h-401.22l-.15-.168zM596 517.282l-62-37.546v461.638l62-56.096V517.282zM533 826v113.012l-23-78.584V711.174h23V826zm-208.5 34H509V609.5H79.5v250.76l35.176 28.24h169.166l40.37-28.409.13-.091h.158zM533 484.317l-23 124.729v101.128h23V484.317zM321.265 594l-9.822 14.5h68.14l-9.355-14.5h-48.963zm39.016 2294.13v-7.8h2.016v5.79h2.836v-4.52h2.016v4.52h2.836v-5.79H372v7.8h-11.719zm0-9.54v-7.81h2.016v2.9H372v2.02h-9.703v2.89h-2.016zm0-9.55v-2.02h4.852v-4.4h-4.852v-2.01H372v2.01h-4.851v4.4H372v2.02h-11.719zm10.039-15.24l1.68-1.68v-5.07l-1.68-1.67h-3.507l-1.68 1.67v4.06l-.68.67h-1.476l-.688-.68v-3.03l.688-.68h.937v-2.01h-1.953l-1.68 1.67v5.07l1.68 1.68h3.508l1.68-1.68v-4.06l.687-.68h1.461l.688.69v3.04l-.68.68h-.938v2.01h1.953zm1.68-15.37h-5.055l-6.664-3.51v2.22l4.329 2.29-4.329 2.3v2.22l6.641-3.5H372v-2.02zm-1.68-4.94l1.68-1.68v-5.07l-1.68-1.68h-3.507l-1.68 1.68v4.06l-.68.67h-1.476l-.688-.68v-3.03l.688-.68h.937v-2.02h-1.953l-1.68 1.68v5.07l1.68 1.68h3.508l1.68-1.68v-4.06l.687-.68h1.461l.688.69v3.04l-.68.68h-.938v2.01h1.953zm-10.039-10.15v-7.81h2.016v2.9H372v2.02h-9.703v2.89h-2.016zm0-9.55v-7.81h2.016v5.79h2.836v-4.51h2.016v4.51h2.836v-5.79H372v7.81h-11.719zm0-9.55v-2.88l7.797-2.74-7.797-2.73V2793l11.719.01v2.01h-8.351l8.351 2.73v1.74l-8.344 2.74H372v2.01h-11.719zm-8.14 351.33v-3.91h1.008v2.9h1.418v-2.26h1.007v2.26h1.418v-2.9H358v3.91h-5.859zm5.859-4.78v-1h-2.426v-1.31l2.426-.84v-1.07l-2.426.85-.839-.84h-1.754l-.84.84v3.37H358zm-4.851-1v-1.86l.339-.34h.739l.34.34v1.86h-1.418zm4.851-4.08v-1h-2.426v-1.3l2.426-.84v-1.07l-2.426.84-.839-.84h-1.754l-.84.84v3.37H358zm-4.851-1v-1.86l.339-.34h.739l.34.34v1.86h-1.418zm4.011-4.07l.84-.84v-2.54l-.84-.84h-4.179l-.84.84v2.54l.84.84h4.179zm-3.672-1.01l-.339-.34v-1.52l.339-.34h3.164l.34.34v1.52l-.34.34h-3.164zm4.512-4.07v-1.01h-2.426v-1.3l2.426-.84v-1.07l-2.426.84-.839-.84h-1.754l-.84.84v3.38H358zm-4.851-1.01v-1.86l.339-.34h.739l.34.34v1.86h-1.418zm611.837 3011.26v7.32h-1.889v-2.72H954v-1.89h9.097v-2.71h1.889zM954 6154.76v1.89h4.548v2.44l-4.548 1.58v2l4.548-1.58 1.575 1.58h3.289l1.574-1.58v-6.33H954zm9.097 1.89v3.49l-.637.64h-1.385l-.637-.64v-3.49h2.659zm-9.097 7.63h10.986v2.77l-8.012 3.25h8.012v1.89H954v-2.75l7.998-3.27H954v-1.89zM-56 124.5a.5.5 0 010-1h646.217l.145.141L720.703 250H730v-9.707l.146-.146 20-20 .147-.147h400.417l.14.147 19.5 19.5.15.146v9.707h233.26l102.35-125.816.15-.184H1650c.28 0 .5.224.5.5s-.22.5-.5.5h-143.26l-102.35 125.816-.15.184H1170.5v9.704l-.14.145-19.5 20-.15.151H951v14h419.2l.14.137 9.5 9 .16.148v116.922l-.15.147-9.5 9.5-.14.146h-330.06l-19.87 13.414-.13.086H879.847l-.127-.086-19.873-13.414H529.293l-.147-.146-9-9-.146-.147V303.793l.146-.147 9-9 .147-.146H950v-14H750.293l-.147-.146-20-20-.146-.147V251h-9.703l-.145-.141L589.812 124.5H423.76l-10.74 11.308-.148.155h-50.607l-.148-.155-10.739-11.308H-56zm468.443 10.463l9.938-10.463h-69.624l9.938 10.463h49.748zM529.707 295.5L521 304.207v116.586l8.707 8.707h330.446l.127.086L880.153 443h139.697l19.87-13.414.13-.086h329.94l9.21-9.207V304.215l-9.2-8.715H529.707zm221-74.5L731 240.707v19.086l19.707 19.707h399.583l19.21-19.703v-19.59L1150.29 221H750.707z" fill="#fff"/></svg>