<svg width="181" height="46" viewBox="0 0 181 46" fill="none" xmlns="http://www.w3.org/2000/svg"><path fill-rule="evenodd" clip-rule="evenodd" d="M181 0H.08v35.374l10.8 10.531h72.368v-4.32H97.83v4.32h33.484v-2.7h1.621v2.7h.54v-1.08h.54v1.08h.539v-2.7h1.62v2.7h28.257l-.057-.057 16.568-16.568.057.056V2.7h-2.7V0h.54v2.16H181v-.54h-1.62V0H181zm0 32.278l-13.627 13.627h2.826L181 35.374v-3.096zM.08 15.122H1.7v2.7h-.54v-1.08H.08v-1.62zm1.62 2.7H.08v1.62H1.7v-1.62z" fill="#AD00FF"/><path fill-rule="evenodd" clip-rule="evenodd" d="M180.92 1.62V0v29.337l-.057-.057-16.568 16.568.057.057H97.751v-4.32H83.169v4.32H10.801L0 35.374V19.442h1.62v-1.62H0v-1.08h1.08v1.08h.54v-2.7H0V0h178.22v2.16h-.001v.54h2.701v-.54h-2.16V0h.539v1.62h1.621zm0 30.658l-13.627 13.627h2.826l10.801-10.531v-3.096zm-48.065 10.927h-1.62v2.7h1.62v-2.7zm1.62 0h1.62v2.7h-1.62v-2.7zm-1.08 1.62h.541v1.08h-.541v-1.08z" fill="#00FF97"/></svg>