<svg width="16" height="16" viewBox="0 0 16 16" fill="none" xmlns="http://www.w3.org/2000/svg">
<path d="M1.39192 6.42607C0.42645 8.77583 1.03108 11.5251 1.85821 13.1153C2.09897 13.5782 2.68985 13.674 3.09404 13.3441C5.20434 11.6214 6.04633 9.44722 6.93626 7.13341C7.97006 4.44552 10.0889 2.6365 11.3577 1.58142C11.8035 1.21073 11.7664 0.582445 11.2085 0.424901C9.69279 -0.00307074 7.19037 0.0703733 6.19028 0.528517C4.99067 1.07806 2.8326 2.91971 1.39192 6.42607Z" fill="#1D673B"/>
<path d="M13.8571 11.2028C15.4865 7.8288 15.2943 4.33617 14.5469 2.61621C14.3649 2.19744 13.8667 2.07287 13.467 2.29357C10.8094 3.76089 8.51673 6.63663 7.81628 9.26386C7.37056 10.9356 5.68245 13.0148 4.57351 14.2308C4.18286 14.6592 4.23316 15.3097 4.78737 15.48C6.16654 15.9036 8.23675 15.8957 8.62455 15.8181C9.12252 15.7185 11.8236 15.4134 13.8571 11.2028Z" fill="#1D673B"/>
</svg>
